<svg width="62" height="62" viewBox="0 0 62 62" fill="none" xmlns="http://www.w3.org/2000/svg">
<path d="M-1.9248 -3C20.3832 -3 42.6913 -3 64.9993 -3C64.9993 19.6743 64.9993 42.3486 64.9993 65.0229C42.6913 65.0229 20.4022 65.0229 -1.9248 65.0229C-1.9248 42.3109 -1.9248 19.6554 -1.9248 -3ZM3.89881 31.4642C3.74705 46.3855 16.3238 59.4392 32.4668 59.0053C46.6938 58.6092 59.8586 46.7061 59.2706 30.2569C58.7584 16.3165 46.9025 3.22506 30.3042 3.86643C16.1341 4.43234 3.80396 16.1845 3.89881 31.4642Z" fill="#1A130D"/>
<path d="M-1.92412 -3C-1.92412 19.6554 -1.92412 42.3109 -1.92412 65.0229C20.4029 65.0229 42.7109 65.0229 65 65.0229C64.981 65.0418 64.981 65.0984 64.9621 65.0984C64.8672 65.0984 64.7534 65.0984 64.6585 65.0984C42.4454 65.0984 20.2132 65.0984 -2 65.0984C-2 42.5184 -2 19.9384 -2 -2.66045C-2 -2.77363 -1.94309 -2.88682 -1.92412 -3Z" fill="#FFF3E0"/>
<path d="M3.89882 31.4639C3.80397 16.1842 16.1341 4.43202 30.3043 3.88497C46.9025 3.2436 58.7584 16.3162 59.2706 30.2566C59.8586 46.7058 46.6938 58.6089 32.4668 59.005C16.3238 59.4389 3.74706 46.3663 3.89882 31.4639ZM40.1304 50.5729C41.3634 50.5729 42.5775 50.5729 43.8105 50.5729C44.3796 50.5729 44.9486 50.5729 45.5177 50.5729C45.7264 50.5729 45.8971 50.5163 45.8971 50.2522C45.8971 49.5543 45.8971 48.8752 45.8971 48.1772C45.8971 47.8942 45.7643 47.7999 45.4798 47.7999C43.469 47.8188 41.4583 47.8188 39.4475 47.8188C39.2958 47.8188 39.144 47.8377 38.9922 47.8188C38.7646 47.7811 38.7077 47.649 38.8595 47.4604C39.0302 47.2529 39.2009 47.0265 39.4096 46.8756C40.6426 45.9701 41.8946 45.0835 43.1466 44.2158C44.9297 42.9708 46.0299 41.4051 45.8592 39.1226C45.7643 37.7644 45.2142 36.6514 44.1519 35.8214C42.7103 34.6707 41.022 34.4066 39.2578 34.7084C37.5126 34.9914 36.2037 35.9346 35.407 37.538C34.9328 38.5001 34.8 39.5376 34.7052 40.5939C34.6862 40.8769 34.8379 41.009 35.1415 41.009C35.9002 41.009 36.659 41.009 37.4178 41.009C37.7403 41.009 37.8161 40.8769 37.8731 40.5751C37.9869 39.9337 38.0627 39.2735 38.3283 38.6887C39.0492 37.1041 40.8512 37.123 41.7997 37.8964C42.7292 38.651 42.8999 40.1412 42.1981 41.1787C41.648 42.0087 40.8513 42.5181 40.0545 43.0651C38.6318 44.0649 37.1332 44.9138 35.9571 46.2342C34.9518 47.3472 34.4396 48.6488 34.3827 50.139C34.3637 50.4786 34.4965 50.5918 34.8379 50.5918C36.6021 50.5729 38.3663 50.5729 40.1304 50.5729ZM31.5183 39.613C31.5373 39.613 31.5373 39.613 31.5183 39.613C31.5373 38.1794 31.5373 36.7457 31.5373 35.3121C31.5373 35.0291 31.4424 34.9159 31.1579 34.9159C30.456 34.9159 29.7731 34.9348 29.0712 34.9159C28.7677 34.8971 28.5591 35.0103 28.3883 35.2366C27.99 35.7837 27.5727 36.3119 27.1553 36.8589C25.4671 39.1226 23.7598 41.4051 22.0905 43.6876C21.9387 43.914 21.8439 44.2158 21.8249 44.4799C21.787 45.1213 21.806 45.7626 21.806 46.404C21.806 46.951 21.8629 46.9699 22.413 46.9699C24.253 46.951 26.093 46.951 27.9331 46.9699C28.3694 46.9699 28.4263 47.0454 28.4263 47.4981C28.4263 48.3658 28.4263 49.2336 28.4263 50.1202C28.4263 50.3843 28.5022 50.5729 28.8057 50.5729C29.6024 50.5729 30.3991 50.5729 31.1958 50.5729C31.4235 50.5729 31.5183 50.4786 31.5183 50.2145C31.4993 49.2902 31.5183 48.3658 31.5183 47.4415C31.5183 47.102 31.6511 46.9133 32.0305 46.951C32.4099 46.9699 32.8082 46.951 33.1876 46.9699C33.4911 46.9699 33.6429 46.8567 33.6429 46.536C33.6429 45.9324 33.6239 45.3288 33.6429 44.7251C33.6429 44.4233 33.4911 44.3101 33.2066 44.3101C32.8082 44.3101 32.4099 44.2913 32.0115 44.329C31.6321 44.3478 31.5183 44.2158 31.5183 43.8385C31.5373 42.4426 31.5183 41.0278 31.5183 39.613ZM25.1066 21.8999C26.0361 21.8999 26.9656 21.8999 27.8951 21.8999C28.3694 21.8999 28.4453 21.9565 28.4453 22.4281C28.4453 23.2958 28.4642 24.1447 28.4453 25.0124C28.4453 25.3897 28.5591 25.5406 28.9574 25.5218C29.6783 25.484 30.3991 25.5029 31.1199 25.5218C31.4424 25.5406 31.5562 25.4274 31.5562 25.1068C31.5373 24.2013 31.5752 23.2958 31.5562 22.3715C31.5562 22.0131 31.708 21.8999 32.0494 21.8999C32.4478 21.9188 32.8462 21.8999 33.2445 21.8999C33.5101 21.8999 33.6618 21.7867 33.6618 21.5226C33.6618 20.8813 33.6618 20.2399 33.6618 19.5985C33.6618 19.3344 33.5291 19.2024 33.2445 19.2024C32.8651 19.2024 32.5047 19.2024 32.1253 19.2024C31.5942 19.2024 31.5373 19.1269 31.5373 18.5987C31.5562 17.4103 31.5562 16.2219 31.5562 15.0335C31.5562 14.7317 31.4424 14.6562 31.1389 14.7505C30.3991 14.9958 29.6593 15.241 28.9005 15.4673C28.578 15.5617 28.4263 15.7503 28.4453 16.071C28.4453 16.9387 28.4453 17.7876 28.4453 18.6553C28.4453 19.1458 28.3883 19.2212 27.8951 19.2212C26.9467 19.2212 26.0172 19.2212 25.0687 19.2212C24.9359 19.2212 24.7842 19.1458 24.6514 19.1269C24.7083 18.976 24.7272 18.8062 24.8221 18.6931C25.2963 18.0517 25.7895 17.4103 26.2827 16.7501C26.3396 16.6746 26.3586 16.5426 26.3966 16.4483C26.2827 16.4483 26.15 16.4105 26.0361 16.4294C25.1446 16.6935 24.272 16.9576 23.3804 17.2783C23.1528 17.3537 22.9251 17.5235 22.7734 17.7121C22.5268 17.9762 22.2992 18.2781 22.1095 18.5987C21.9767 18.8062 21.8439 19.0515 21.8439 19.2778C21.806 20.0135 21.8439 20.7681 21.8249 21.5038C21.8249 21.8245 21.9577 21.9376 22.2612 21.9188C23.1907 21.8999 24.1582 21.8999 25.1066 21.8999ZM42.7672 18.3158C42.7672 17.5046 42.7672 16.6935 42.7672 15.9012C42.7672 14.4487 42.7672 12.9962 42.7672 11.5625C42.7672 11.1287 42.6913 11.0721 42.255 11.1664C42.1412 11.1853 42.0274 11.223 41.9135 11.2607C41.0789 11.5248 40.2442 11.8078 39.4285 12.0719C38.2524 12.4491 37.0763 12.8264 35.9002 13.2037C35.6347 13.2791 35.5398 13.4489 35.5588 13.7319C35.5778 14.1092 35.5778 14.5053 35.5778 14.8826C35.5778 15.3353 35.6157 15.3919 36.071 15.3919C37.0574 15.3919 38.0248 15.3919 39.0112 15.3919C39.4665 15.3919 39.5234 15.4673 39.5234 15.9012C39.5234 17.2028 39.5044 18.5233 39.5044 19.8249C39.5044 21.5792 39.5044 23.3336 39.5044 25.0879C39.5044 25.4086 39.6372 25.5218 39.9597 25.5029C40.7374 25.484 41.5152 25.484 42.274 25.5029C42.6344 25.5218 42.7672 25.3897 42.7482 25.0502C42.7672 22.8054 42.7672 20.5606 42.7672 18.3158ZM42.0084 33.1993C42.7672 33.1993 43.6587 32.7843 44.1899 31.7468C44.4554 31.2186 44.5693 30.6527 44.5693 30.0868C44.5503 28.54 44.133 27.1063 42.1032 26.8045C41.0789 26.6536 39.9028 27.2006 39.3716 28.0872C38.8026 29.0682 38.7836 30.1245 39.0302 31.1809C39.3906 32.5202 40.2442 33.1616 42.0084 33.1993ZM31.4424 30.5207C31.8597 30.5207 32.296 30.5207 32.7134 30.5207C32.9979 30.5207 33.1497 30.4075 33.1307 30.1057C33.1307 29.8038 33.1497 29.5209 33.1307 29.2191C33.0928 28.0306 32.5996 26.9554 31.0061 26.8045C30.0007 26.7102 29.0902 26.9743 28.5211 27.8797C27.8003 29.0116 27.7813 30.2566 28.1797 31.5016C28.4073 32.1996 28.9005 32.7277 29.6593 32.9541C30.7026 33.2937 31.7459 33.2182 32.7703 32.8786C32.8841 32.8409 33.0169 32.5957 33.0169 32.4448C33.0169 32.1618 32.9031 31.8977 32.8462 31.6148C32.7892 31.3318 32.6375 31.2941 32.3719 31.3507C31.8028 31.4639 31.2338 31.5393 30.6647 31.577C30.3043 31.5959 29.9818 31.4073 29.83 31.0489C29.6783 30.6716 29.8111 30.4829 30.2094 30.4829C30.6267 30.5207 31.0441 30.5207 31.4424 30.5207ZM24.4996 33.105C24.9928 33.105 25.486 33.105 25.9603 33.105C26.9467 33.105 26.9277 33.105 26.8328 32.1052C26.7949 31.7657 26.6432 31.6336 26.3207 31.6336C25.7137 31.6336 25.1066 31.6336 24.4996 31.6336C24.4048 31.6336 24.2909 31.5582 24.1961 31.5205C24.253 31.4261 24.272 31.313 24.3479 31.2186C25.0877 30.332 25.8275 29.4454 26.5862 28.5966C26.7949 28.3513 26.8518 28.125 26.8139 27.8231C26.7949 27.6911 26.757 27.5402 26.7759 27.4081C26.7949 26.9931 26.5862 26.88 26.2069 26.88C25.2015 26.8988 24.1961 26.88 23.1907 26.88C22.2233 26.88 22.1664 26.9554 22.3181 27.9175C22.3561 28.2193 22.5078 28.3702 22.8303 28.3702C23.3045 28.3513 23.7788 28.3513 24.253 28.3702C24.3668 28.3702 24.4806 28.4268 24.5945 28.4645C24.5565 28.5966 24.5375 28.7286 24.4617 28.8229C23.8167 29.5963 23.2097 30.3698 22.5078 31.1054C22.0715 31.577 21.9767 32.0486 22.0715 32.6523C22.1284 32.9918 22.2612 33.1239 22.6027 33.1239C23.2287 33.0862 23.8547 33.105 24.4996 33.105ZM36.3176 27.5213C36.3176 26.9177 36.014 26.8422 35.6157 26.9177C35.4639 26.9365 35.3122 26.9554 35.1604 26.9365C34.781 26.9177 34.6483 27.0875 34.6483 27.4647C34.6672 28.9927 34.6483 30.5207 34.6483 32.0298C34.6483 33.2371 34.5344 33.105 35.7864 33.1239C36.1468 33.1239 36.2986 32.9918 36.2796 32.6146C36.2607 31.5016 36.2607 30.3886 36.2607 29.2757C36.2607 28.8229 36.3934 28.6532 36.8487 28.5777C37.0953 28.54 37.3609 28.54 37.6264 28.54C37.892 28.54 38.0058 28.4457 38.0248 28.2004C38.0438 27.8986 38.0627 27.5968 38.0817 27.2761C38.1007 26.9931 37.9679 26.8611 37.6834 26.8234C37.266 26.7856 36.9625 26.9743 36.678 27.2384C36.6021 27.295 36.5073 27.3704 36.3176 27.5213ZM19.2451 22.3715C19.2641 22.4281 19.2641 22.4847 19.283 22.5413C19.1882 22.6356 19.1123 22.7488 19.0174 22.8431C18.5242 23.2958 18.031 23.7486 17.5568 24.2013C17.4809 24.2767 17.462 24.3899 17.405 24.4842C17.4999 24.522 17.6137 24.5786 17.7086 24.5786C18.069 24.5786 18.4294 24.5597 18.7898 24.5597C19.1123 24.5597 19.4348 24.5597 19.7573 24.5597C19.7573 24.5031 19.7573 24.4465 19.7573 24.3899C19.6624 24.3711 19.5676 24.3333 19.4917 24.3522C19.1123 24.3522 18.7519 24.3899 18.3725 24.3899C18.2587 24.3899 18.1259 24.2767 18.0121 24.2202C18.0879 24.1258 18.1449 24.0127 18.2207 23.9372C18.7329 23.4656 19.2451 22.994 19.7383 22.5224C19.7952 22.4658 19.8711 22.3149 19.8331 22.2583C19.7762 22.1829 19.6434 22.1263 19.5486 22.1263C18.9226 22.1074 18.2966 22.1074 17.6517 22.1074C17.5568 22.1074 17.443 22.1829 17.3481 22.2206C17.3481 22.2772 17.3671 22.3338 17.3671 22.3904C18.0121 22.3715 18.6381 22.3715 19.2451 22.3715ZM18.7898 43.3669C18.8278 43.1972 18.8278 43.1217 18.8467 43.0462C18.8847 42.9142 18.9226 42.7256 19.0174 42.6878C19.1123 42.6501 19.321 42.7067 19.3968 42.801C19.8142 43.216 20.0228 43.7065 19.5676 44.2913C19.2261 44.7251 18.676 44.9138 18.2018 44.6874C17.443 44.329 17.2723 43.499 17.8034 42.8765C17.8603 42.801 17.8413 42.6878 17.8793 42.5746C17.8034 42.5935 17.6896 42.5746 17.6517 42.6312C17.3292 42.9331 17.1964 43.914 17.405 44.2724C17.8603 45.0458 18.7519 45.2533 19.4537 44.7628C20.0797 44.329 20.1936 43.3292 19.6814 42.7067C19.4727 42.4426 19.0554 42.2917 18.8278 42.4237C18.6381 42.4992 18.6001 42.9142 18.7898 43.3669ZM17.3102 46.536C17.1584 47.4792 18.031 48.0074 18.695 48.0074C19.4727 48.0074 20.0228 47.3472 19.9849 46.4606C19.947 45.6306 19.4537 45.2344 18.5242 45.2344C17.8224 45.2533 17.2912 45.8192 17.3102 46.536ZM18.6191 21.7679C19.3589 21.7679 20.0039 21.2963 19.9849 20.3908C19.9659 19.5608 19.5296 18.9949 18.5622 18.9949C17.7844 18.9949 17.3292 19.5419 17.2912 20.4663C17.2533 21.0699 17.9362 21.8433 18.6191 21.7679ZM17.3292 35.7837C17.3481 36.708 17.8034 37.1796 18.695 37.1607C19.5107 37.1419 20.0039 36.5571 20.0039 35.6328C19.9849 34.9537 19.3589 34.3878 18.6001 34.4066C17.8034 34.4255 17.3102 34.9537 17.3292 35.7837ZM19.8711 48.479C19.8521 48.4413 19.8331 48.4036 19.8142 48.3847C19.7762 48.3847 19.7383 48.347 19.7003 48.3658C19.4917 48.4979 19.283 48.6111 19.0933 48.762C18.9036 48.894 18.7898 48.8752 18.657 48.6677C18.4484 48.3281 17.9741 48.2149 17.6896 48.3658C17.424 48.4979 17.1964 49.0261 17.3102 49.3468C17.3481 49.4411 17.462 49.5543 17.5378 49.5543C18.2018 49.5731 18.8657 49.5543 19.5296 49.5543C19.6055 49.5543 19.6814 49.4977 19.7573 49.4788C19.6624 49.3845 19.5676 49.3656 19.4917 49.3468C19.3589 49.309 19.2261 49.2524 19.0933 49.2147C19.1882 49.1015 19.2641 48.9695 19.3779 48.8563C19.5296 48.7054 19.7003 48.5922 19.8711 48.479ZM19.8711 29.2002C19.8711 29.1625 19.8521 29.1248 19.8521 29.0682C19.7573 29.0682 19.6434 29.0304 19.5676 29.0682C18.9416 29.3134 18.3156 29.5775 17.6896 29.8604C17.5947 29.8982 17.5378 30.0113 17.462 30.0679C17.5378 30.1434 17.6137 30.2566 17.7086 30.2943C18.2966 30.5395 18.8657 30.7659 19.4537 30.9923C19.5676 31.03 19.7003 31.03 19.8331 31.0489C19.6055 30.6716 19.1123 30.6527 19.1123 30.0679C19.0933 29.5209 19.4537 29.37 19.8711 29.2002ZM19.7573 26.9931C19.7762 26.9365 19.8142 26.88 19.8331 26.8234C19.4537 26.6159 19.0554 26.5215 19.0554 25.9368C19.0744 25.352 19.4917 25.2577 19.8142 24.9747C18.9036 25.1445 18.1259 25.5784 17.2912 25.899C17.2912 25.9368 17.2912 25.9934 17.3102 26.0311C18.1449 26.3518 18.9605 26.6725 19.7573 26.9931ZM19.9469 40.9146C19.8711 40.9901 19.8331 40.9901 19.8331 41.009C19.8142 41.0655 19.8142 41.141 19.8142 41.1976C19.7952 41.7069 19.6814 41.7824 18.9795 41.7635C18.5622 41.7446 18.6381 41.4428 18.6191 41.1787C18.6191 41.0467 18.5812 40.9146 18.5812 40.8014C18.5242 40.8014 18.4863 40.8014 18.4294 40.8014C18.4104 40.9524 18.3915 41.1033 18.3725 41.2542C18.3535 41.4617 18.4484 41.7446 18.069 41.7635C17.5947 41.7824 17.5568 41.7258 17.5568 41.2353C17.5568 41.0844 17.5189 40.9146 17.5189 40.7637C17.462 40.7637 17.3861 40.7637 17.3292 40.7826C17.3292 41.141 17.3102 41.4994 17.3481 41.8578C17.3481 41.9144 17.5189 42.0087 17.6327 42.0087C18.3156 42.0276 18.9985 42.0276 19.6814 42.0087C19.7952 42.0087 20.0039 41.8578 20.0228 41.7446C20.0418 41.4805 19.9849 41.2165 19.9469 40.9146ZM18.5812 50.554C18.6191 50.1579 18.4104 49.9315 18.069 49.9127C17.5947 49.8938 17.3102 50.2334 17.2912 50.7993C17.2723 51.1011 17.3861 51.252 17.7086 51.252C18.3345 51.252 18.9416 51.2709 19.5676 51.252C19.6814 51.252 19.7952 51.1765 19.928 51.1388C19.928 51.1011 19.928 51.0822 19.909 51.0445C19.4727 50.969 19.0364 50.8747 18.5812 50.7993C18.5622 50.7993 18.5242 50.837 18.4863 50.8559C18.3156 50.8936 18.1449 50.969 17.9741 50.9502C17.8224 50.9313 17.6137 50.8181 17.5758 50.705C17.5378 50.5729 17.6327 50.3277 17.7465 50.2522C17.8793 50.1768 18.1069 50.2145 18.2587 50.2711C18.3725 50.3088 18.4673 50.4409 18.5812 50.554ZM17.5189 37.3682C17.462 37.3682 17.424 37.3682 17.3671 37.3682C17.3481 37.4626 17.3292 37.5757 17.3102 37.6701C17.3102 38.1605 17.3102 38.6698 17.3102 39.1603C17.3102 39.481 17.2912 39.8017 17.3102 40.1224C17.3102 40.1978 17.3861 40.2733 17.424 40.3299C17.462 40.311 17.5378 40.2921 17.5378 40.2544C17.5758 40.0092 17.6327 39.7639 17.6517 39.5187C17.6706 39.1037 17.6517 38.6698 17.6327 38.2548C17.6137 37.9719 17.5568 37.6701 17.5189 37.3682ZM19.7193 31.8034C19.7193 31.7468 19.7193 31.6902 19.7193 31.6336C19.283 31.6336 18.8657 31.6336 18.4294 31.6336C17.7275 31.6525 17.7275 31.6525 17.4999 31.0489C17.4999 31.03 17.443 31.0111 17.405 30.9923C17.2343 31.3507 17.2533 32.143 17.462 32.3505C17.4999 32.2939 17.5378 32.2373 17.5378 32.1807C17.5378 31.8223 17.6896 31.7468 18.05 31.7845C18.6001 31.8223 19.1692 31.8034 19.7193 31.8034ZM19.7762 27.4081C18.9985 27.295 18.2397 27.2761 17.462 27.3138C17.462 27.3893 17.462 27.4459 17.462 27.5213C18.2397 27.5213 18.9985 27.5779 19.7762 27.4081ZM17.4999 28.5211C17.6137 28.5966 17.6327 28.6154 17.6706 28.6154C18.3725 28.6154 19.0554 28.6154 19.7573 28.5966C20.0039 28.5966 20.0228 28.4645 19.928 28.2193C19.1882 28.672 18.3345 28.3325 17.4999 28.5211ZM17.8793 39.613C17.8793 39.6508 17.8793 39.6885 17.8793 39.7262C18.4863 39.7262 19.1123 39.7262 19.7193 39.7262C19.7193 39.6885 19.7193 39.6508 19.7193 39.613C19.1123 39.613 18.5053 39.613 17.8793 39.613ZM19.6245 38.1228C19.6245 38.0851 19.6245 38.0662 19.6245 38.0285C19.0744 38.0285 18.5242 38.0285 17.9741 38.0285C17.9741 38.0662 17.9741 38.0851 17.9741 38.1228C18.5242 38.1228 19.0744 38.1228 19.6245 38.1228ZM18.5242 32.8221C18.5242 32.8598 18.5242 32.8975 18.5242 32.9164C18.9226 32.9164 19.3399 32.9164 19.7383 32.9164C19.7383 32.8786 19.7383 32.8409 19.7383 32.8221C19.3399 32.8221 18.9416 32.8221 18.5242 32.8221ZM18.2397 32.9352C18.2397 32.8786 18.2397 32.8409 18.2397 32.7843C17.9931 32.8032 17.7465 32.8032 17.5189 32.8221C17.5189 32.8786 17.5189 32.9164 17.5189 32.973C17.7465 32.9541 17.9931 32.9541 18.2397 32.9352Z" fill="#FFF3E0"/>
<path d="M40.1305 50.5731C38.3664 50.5731 36.6022 50.5731 34.8381 50.5731C34.5156 50.5731 34.3828 50.4788 34.3828 50.1204C34.4397 48.6302 34.9519 47.3474 35.9573 46.2156C37.1334 44.8951 38.632 44.0463 40.0547 43.0465C40.8514 42.4994 41.6481 41.9712 42.1982 41.1601C42.8811 40.1226 42.7294 38.6323 41.7999 37.8778C40.8324 37.1044 39.0303 37.0666 38.3285 38.6701C38.0629 39.2548 37.987 39.9151 37.8732 40.5564C37.8163 40.8583 37.7404 40.9903 37.4179 40.9903C36.6591 40.9714 35.9004 40.9903 35.1416 40.9903C34.857 40.9903 34.6863 40.8583 34.7053 40.5753C34.8001 39.5189 34.9329 38.4814 35.4072 37.5194C36.2039 35.9159 37.5128 34.9916 39.258 34.6898C41.0221 34.388 42.7104 34.6709 44.1521 35.8028C45.2144 36.6516 45.7455 37.7646 45.8593 39.1039C46.03 41.3865 44.9108 42.9521 43.1467 44.1972C41.8947 45.0649 40.6617 45.9515 39.4097 46.857C39.201 47.0079 39.0303 47.2342 38.8596 47.4417C38.7078 47.6304 38.7837 47.7624 38.9924 47.8001C39.1441 47.819 39.2959 47.8001 39.4476 47.8001C41.4584 47.8001 43.4692 47.8002 45.4799 47.7813C45.7645 47.7813 45.8973 47.8756 45.8973 48.1586C45.8973 48.8565 45.8973 49.5356 45.8973 50.2336C45.8973 50.4977 45.7265 50.5543 45.5179 50.5543C44.9488 50.5543 44.3797 50.5543 43.8106 50.5543C42.5776 50.5731 41.3636 50.5731 40.1305 50.5731Z" fill="#1A130D"/>
<path d="M31.5188 39.6132C31.5188 41.028 31.5188 42.4428 31.5188 43.8387C31.5188 44.1971 31.6327 44.348 32.0121 44.3291C32.4104 44.3103 32.8088 44.3291 33.2071 44.3103C33.4917 44.3103 33.6434 44.4235 33.6434 44.7253C33.6434 45.3289 33.6434 45.9326 33.6434 46.5362C33.6434 46.838 33.4917 46.9701 33.1882 46.9701C32.8088 46.9701 32.4104 46.9889 32.031 46.9512C31.6516 46.9323 31.5188 47.1021 31.5188 47.4417C31.5188 48.366 31.4999 49.2903 31.5188 50.2146C31.5188 50.4787 31.424 50.5731 31.1964 50.5731C30.3996 50.5731 29.6029 50.5731 28.8062 50.5731C28.5027 50.5731 28.4268 50.3844 28.4268 50.1203C28.4268 49.2526 28.4268 48.3849 28.4268 47.4983C28.4268 47.0455 28.3699 46.9701 27.9336 46.9701C26.0936 46.9701 24.2536 46.9701 22.4135 46.9701C21.8634 46.9701 21.8065 46.9512 21.8065 46.4042C21.8065 45.7628 21.7875 45.1214 21.8255 44.48C21.8444 44.2159 21.9393 43.8953 22.091 43.6878C23.7604 41.4052 25.4676 39.1416 27.1559 36.8591C27.5542 36.312 27.9716 35.7838 28.3889 35.2368C28.5596 35.0104 28.7683 34.8972 29.0718 34.9161C29.7737 34.935 30.4566 34.935 31.1584 34.9161C31.443 34.9161 31.5378 35.0293 31.5378 35.3122C31.5378 36.7459 31.5378 38.1795 31.5188 39.6132C31.5378 39.6132 31.5378 39.6132 31.5188 39.6132ZM28.4268 41.7637C28.4458 41.7637 28.4458 41.7637 28.4648 41.7637C28.4648 41.0657 28.4648 40.3489 28.4648 39.6509C28.4648 39.5189 28.3889 39.4057 28.351 39.2736C28.2371 39.3491 28.1043 39.4057 28.0285 39.5C26.9282 40.9525 25.828 42.4239 24.7278 43.8764C24.6519 43.9707 24.6329 44.1028 24.595 44.216C24.7088 44.2537 24.8226 44.3291 24.9365 44.3291C25.9418 44.3291 26.9472 44.3291 27.9526 44.3291C28.294 44.3291 28.4458 44.2159 28.4458 43.8575C28.4268 43.1784 28.4268 42.4616 28.4268 41.7637Z" fill="#1A130D"/>
<path d="M25.1079 21.9007C24.1595 21.9007 23.192 21.9007 22.2435 21.9007C21.94 21.9007 21.7883 21.7876 21.8072 21.4857C21.8262 20.7501 21.7883 19.9955 21.8262 19.2598C21.8452 19.0334 21.959 18.7882 22.0918 18.5807C22.2815 18.26 22.5091 17.9582 22.7557 17.6941C22.9264 17.5055 23.1351 17.3357 23.3627 17.2603C24.2353 16.9584 25.1269 16.6943 26.0185 16.4114C26.1323 16.3737 26.2461 16.4114 26.3789 16.4302C26.3409 16.5246 26.3409 16.6566 26.2651 16.7321C25.7908 17.3734 25.2976 18.0148 24.8044 18.675C24.7096 18.7882 24.6906 18.958 24.6337 19.1089C24.7665 19.1466 24.9182 19.2032 25.051 19.2032C25.9995 19.2032 26.929 19.2032 27.8775 19.2032C28.3707 19.2032 28.4276 19.1278 28.4276 18.6373C28.4276 17.7696 28.4276 16.9207 28.4276 16.053C28.4276 15.7134 28.5604 15.5436 28.8828 15.4493C29.6416 15.223 30.3814 14.9777 31.1212 14.7325C31.4058 14.6382 31.5386 14.7136 31.5386 15.0155C31.5386 16.2039 31.5196 17.3923 31.5196 18.5807C31.5196 19.1089 31.5765 19.1655 32.1076 19.1844C32.487 19.1844 32.8475 19.2032 33.2268 19.1844C33.4924 19.1844 33.6442 19.3164 33.6442 19.5805C33.6442 20.2219 33.6442 20.8632 33.6442 21.5046C33.6442 21.7876 33.4924 21.8819 33.2268 21.8819C32.8285 21.8819 32.4301 21.8819 32.0318 21.8819C31.6903 21.863 31.5386 21.9762 31.5386 22.3535C31.5575 23.2589 31.5386 24.1644 31.5386 25.0887C31.5386 25.4094 31.4437 25.5226 31.1023 25.5037C30.3814 25.4849 29.6606 25.466 28.9398 25.5037C28.5414 25.5226 28.4086 25.3717 28.4276 24.9944C28.4465 24.1455 28.4465 23.2778 28.4276 22.4101C28.4276 21.9385 28.3517 21.8819 27.8775 21.8819C26.9669 21.9007 26.0374 21.9007 25.1079 21.9007Z" fill="#1A130D"/>
<path d="M42.7679 18.3164C42.7679 20.5611 42.7679 22.8059 42.7679 25.0507C42.7679 25.3903 42.6541 25.5223 42.2937 25.5035C41.5159 25.4846 40.7382 25.4846 39.9794 25.5035C39.6569 25.5035 39.5241 25.3903 39.5241 25.0885C39.5241 23.3341 39.5241 21.5798 39.5241 19.8255C39.5241 18.5239 39.5241 17.2034 39.5431 15.9018C39.5431 15.4679 39.4672 15.3925 39.0309 15.3925C38.0445 15.3925 37.0771 15.3925 36.0907 15.3925C35.6354 15.3925 35.5785 15.3359 35.5975 14.8831C35.5975 14.5059 35.5975 14.1097 35.5785 13.7324C35.5595 13.4684 35.6544 13.2986 35.92 13.2043C37.0961 12.827 38.2722 12.4497 39.4483 12.0724C40.2829 11.8083 41.1176 11.5254 41.9333 11.2613C42.0471 11.2236 42.1609 11.1858 42.2747 11.167C42.711 11.0727 42.7869 11.1104 42.7869 11.5631C42.7869 13.0156 42.7869 14.4681 42.7869 15.9018C42.7679 16.7129 42.7679 17.5052 42.7679 18.3164Z" fill="#1A130D"/>
<path d="M42.0095 33.1991C40.2454 33.1613 39.3917 32.5388 39.0503 31.1806C38.8037 30.1243 38.8037 29.0868 39.3917 28.087C39.9229 27.2004 41.08 26.6533 42.1233 26.8042C44.1531 27.0872 44.5704 28.5397 44.5894 30.0865C44.5894 30.6713 44.4755 31.2184 44.21 31.7466C43.6599 32.7841 42.7683 33.1802 42.0095 33.1991ZM40.6248 29.9922C40.7006 30.4261 40.7575 30.8034 40.8524 31.1618C40.9472 31.5202 41.1938 31.7654 41.5922 31.7843C42.0475 31.822 42.4458 31.6711 42.5976 31.2372C42.9201 30.3884 42.939 29.5018 42.5596 28.6718C42.3889 28.3133 42.0475 28.1624 41.6301 28.1813C41.2318 28.219 40.9662 28.4454 40.8714 28.7849C40.7575 29.1999 40.7006 29.6149 40.6248 29.9922Z" fill="#1A130D"/>
<path d="M31.4428 30.5207C31.0445 30.5207 30.6461 30.5207 30.2477 30.5207C29.8494 30.5207 29.7166 30.7093 29.8684 31.0866C30.0201 31.445 30.3426 31.6336 30.703 31.6148C31.2721 31.5959 31.8412 31.5016 32.4103 31.3884C32.6758 31.3318 32.8276 31.3507 32.8845 31.6525C32.9414 31.9355 33.0552 32.1996 33.0552 32.4825C33.0552 32.6334 32.9224 32.8787 32.8086 32.9164C31.7843 33.2371 30.7599 33.3314 29.6976 32.9918C28.9389 32.7466 28.4456 32.2373 28.218 31.5393C27.8197 30.2943 27.8386 29.0493 28.5595 27.9175C29.1285 27.012 30.0391 26.7479 31.0445 26.8422C32.6379 26.9931 33.1311 28.0684 33.169 29.2568C33.169 29.5586 33.1501 29.8416 33.169 30.1434C33.169 30.4452 33.0362 30.5584 32.7517 30.5584C32.2775 30.5207 31.8601 30.5207 31.4428 30.5207ZM30.6461 29.3888C30.8358 29.3888 31.0255 29.4266 31.1772 29.37C31.31 29.3323 31.4808 29.1813 31.4997 29.0682C31.5946 28.672 31.2721 28.2004 30.8737 28.0684C30.5133 27.9552 30.096 28.1627 29.8873 28.5588C29.6218 29.1059 29.7735 29.3889 30.3995 29.37C30.4943 29.3889 30.5702 29.3888 30.6461 29.3888Z" fill="#1A130D"/>
<path d="M24.4991 33.1052C23.8732 33.1052 23.2282 33.1052 22.6022 33.1052C22.2797 33.1052 22.128 32.9732 22.0711 32.6337C21.9762 32.0489 22.0521 31.5584 22.5074 31.0868C23.1903 30.37 23.8162 29.5777 24.4612 28.8043C24.5371 28.71 24.5561 28.5591 24.594 28.4459C24.4802 28.4082 24.3664 28.3516 24.2525 28.3516C23.7783 28.3516 23.3041 28.3516 22.8298 28.3516C22.5074 28.3516 22.3746 28.2007 22.3177 27.8988C22.1659 26.9368 22.2228 26.8613 23.1903 26.8613C24.1956 26.8613 25.201 26.8802 26.2064 26.8613C26.5858 26.8613 26.7944 26.9745 26.7755 27.3895C26.7755 27.5216 26.7944 27.6725 26.8134 27.8045C26.8514 28.0875 26.7944 28.3327 26.5858 28.5779C25.827 29.4457 25.0872 30.3323 24.3474 31.2C24.2715 31.2755 24.2525 31.3886 24.1956 31.5018C24.2905 31.5396 24.4043 31.615 24.4991 31.615C25.1062 31.6339 25.7132 31.6339 26.3202 31.615C26.6427 31.615 26.7944 31.7471 26.8324 32.0866C26.9462 33.0864 26.9462 33.0864 25.9598 33.0864C25.4666 33.1052 24.9734 33.1052 24.4991 33.1052Z" fill="#1A130D"/>
<path d="M36.3184 27.5211C36.5081 27.3702 36.6029 27.3136 36.6978 27.2382C36.9823 26.9741 37.2858 26.7854 37.7031 26.8232C37.9877 26.8609 38.1205 26.9929 38.1015 27.2759C38.0825 27.5777 38.0636 27.8984 38.0446 28.2002C38.0256 28.4455 37.8928 28.5586 37.6462 28.5398C37.3996 28.5398 37.1341 28.5398 36.8685 28.5775C36.4132 28.6341 36.2804 28.8227 36.2804 29.2755C36.2804 30.3884 36.2804 31.5014 36.2994 32.6144C36.2994 32.9728 36.1666 33.1237 35.8062 33.1237C34.5352 33.1048 34.668 33.2369 34.668 32.0296C34.668 30.5016 34.668 28.9736 34.668 27.4645C34.668 27.0873 34.8008 26.9175 35.1802 26.9363C35.332 26.9552 35.4837 26.9363 35.6355 26.9175C36.0149 26.842 36.3184 26.8986 36.3184 27.5211Z" fill="#1A130D"/>
<path d="M19.2452 22.3718C18.6192 22.3718 18.0121 22.3718 17.3862 22.3718C17.3862 22.3152 17.3672 22.2586 17.3672 22.2021C17.462 22.1643 17.5759 22.0889 17.6707 22.0889C18.2967 22.0889 18.9227 22.0889 19.5676 22.1077C19.6625 22.1077 19.7953 22.1643 19.8522 22.2398C19.8901 22.2775 19.8142 22.4473 19.7573 22.5039C19.2641 22.9755 18.733 23.4471 18.2398 23.9187C18.1639 23.9941 18.107 24.1073 18.0311 24.2016C18.1449 24.2582 18.2777 24.3714 18.3915 24.3714C18.752 24.3903 19.1313 24.3525 19.5107 24.3337C19.6056 24.3337 19.7004 24.3714 19.7763 24.3714C19.7763 24.428 19.7763 24.4846 19.7763 24.5412C19.4538 24.5412 19.1313 24.5412 18.8089 24.5412C18.4484 24.5412 18.088 24.56 17.7276 24.56C17.6328 24.56 17.5189 24.5034 17.4241 24.4657C17.481 24.3714 17.5 24.2582 17.5759 24.1828C18.0501 23.73 18.5433 23.2773 19.0365 22.8246C19.1313 22.7302 19.2262 22.6171 19.3021 22.5227C19.2831 22.485 19.2641 22.4284 19.2452 22.3718Z" fill="#1A130D"/>
<path d="M18.7906 43.368C18.5819 42.9153 18.6198 42.5191 18.8285 42.4059C19.0561 42.2927 19.4735 42.4248 19.6821 42.6889C20.1753 43.3114 20.0615 44.33 19.4545 44.745C18.7526 45.2355 17.8611 45.0091 17.4058 44.2546C17.1782 43.8773 17.3299 42.8964 17.6524 42.6134C17.7093 42.5757 17.8041 42.5757 17.88 42.5568C17.8611 42.6512 17.8611 42.7832 17.8041 42.8587C17.273 43.5 17.4627 44.3112 18.2025 44.6696C18.6767 44.896 19.2268 44.7073 19.5683 44.2734C20.0046 43.6887 19.7959 43.1982 19.3976 42.7832C19.3027 42.6889 19.113 42.6323 19.0182 42.67C18.9233 42.7078 18.9044 42.8964 18.8475 43.0284C18.8285 43.1228 18.8285 43.1793 18.7906 43.368Z" fill="#1A130D"/>
<path d="M17.3113 46.536C17.2924 45.8192 17.8235 45.2344 18.5254 45.2344C19.4359 45.2344 19.9291 45.6305 19.986 46.4605C20.0429 47.3471 19.4739 48.0074 18.6961 48.0074C18.0322 48.0074 17.1596 47.498 17.3113 46.536ZM18.6582 45.4607C18.0512 45.4607 17.501 45.9701 17.501 46.536C17.501 47.3471 17.9942 47.7244 18.6771 47.781C19.1893 47.8187 19.8532 47.1396 19.8343 46.6303C19.8153 46.0455 19.2083 45.4607 18.6582 45.4607Z" fill="#1A130D"/>
<path d="M18.6194 21.7681C17.9365 21.8436 17.2536 21.0701 17.2916 20.4665C17.3295 19.5422 17.7848 18.9951 18.5625 18.9951C19.5489 18.9951 19.9852 19.561 19.9852 20.391C20.0042 21.2965 19.3592 21.7681 18.6194 21.7681ZM18.6573 21.504C19.2454 21.504 19.8524 20.9192 19.8335 20.3722C19.8145 19.844 19.1695 19.1838 18.6763 19.1838C18.1641 19.1649 17.5002 19.8063 17.5192 20.3156C17.5192 21.0513 17.9555 21.504 18.6573 21.504Z" fill="#1A130D"/>
<path d="M17.3287 35.7838C17.3097 34.9538 17.8029 34.4256 18.5806 34.4067C19.3394 34.3878 19.9844 34.9538 19.9844 35.6329C20.0033 36.5572 19.5101 37.142 18.6755 37.1608C17.8029 37.1797 17.3476 36.727 17.3287 35.7838ZM18.6186 34.6331C17.9926 34.6331 17.4804 35.1613 17.4804 35.8026C17.4804 36.3874 18.0305 36.9722 18.5996 36.9722C19.1497 36.991 19.8326 36.3308 19.8516 35.8026C19.8706 35.2556 19.2256 34.6519 18.6186 34.6331Z" fill="#1A130D"/>
<path d="M19.8713 48.4795C19.7005 48.5927 19.5298 48.7058 19.3591 48.8379C19.2453 48.9322 19.1694 49.0643 19.0745 49.1963C19.2073 49.234 19.3401 49.2906 19.4729 49.3284C19.5677 49.3472 19.6436 49.3661 19.7385 49.4604C19.6626 49.4793 19.5867 49.5359 19.5108 49.5359C18.8469 49.5547 18.183 49.5547 17.519 49.5359C17.4432 49.5359 17.3104 49.4227 17.2914 49.3284C17.1776 49.0077 17.3863 48.4984 17.6708 48.3474C17.9743 48.1965 18.4296 48.3286 18.6382 48.6493C18.771 48.8568 18.8848 48.8568 19.0745 48.7436C19.2642 48.6115 19.4729 48.4795 19.6816 48.3474C19.7005 48.3286 19.7574 48.3663 19.7954 48.3663C19.8333 48.4229 19.8523 48.4418 19.8713 48.4795ZM18.0312 49.3095C18.0502 49.3472 18.0692 49.3661 18.0881 49.4038C18.2209 49.2906 18.3537 49.1774 18.4865 49.0643C18.3347 48.9134 18.2209 48.6493 18.0502 48.6115C17.8226 48.5738 17.538 48.7058 17.557 49.0265C17.557 49.3284 17.7656 49.3849 18.0312 49.3095Z" fill="#1A130D"/>
<path d="M19.8724 29.2009C19.4741 29.3707 19.0947 29.5216 19.0947 30.1064C19.0947 30.6912 19.5879 30.71 19.8155 31.0873C19.6827 31.0684 19.5499 31.0684 19.4361 31.0307C18.8481 30.8044 18.26 30.578 17.6909 30.3328C17.5961 30.295 17.5392 30.1818 17.4443 30.1064C17.5202 30.0309 17.5771 29.9366 17.672 29.8989C18.298 29.6348 18.924 29.3707 19.5499 29.1066C19.6258 29.0689 19.7396 29.1066 19.8345 29.1066C19.8535 29.1255 19.8535 29.1632 19.8724 29.2009ZM18.0324 30.1818C18.3549 30.295 18.6204 30.5969 18.924 30.295C18.9998 30.2196 18.905 29.8989 18.7912 29.7857C18.6204 29.6159 18.2221 29.8423 18.0324 30.1818Z" fill="#1A130D"/>
<path d="M19.758 26.993C18.9423 26.6724 18.1266 26.3517 17.311 26.031C17.311 25.9933 17.311 25.9367 17.292 25.8989C18.1266 25.5783 18.9044 25.1444 19.8149 24.9746C19.4924 25.2576 19.0751 25.3519 19.0561 25.9367C19.0372 26.5214 19.4545 26.6346 19.8339 26.8233C19.8149 26.8799 19.796 26.9364 19.758 26.993ZM17.9749 25.8801C17.9749 25.9367 17.9749 25.9744 17.9749 26.031C18.2025 26.1064 18.4112 26.2196 18.6388 26.2573C18.8665 26.2951 18.9803 26.1253 18.9613 25.8989C18.9423 25.6537 18.7716 25.5971 18.5819 25.6348C18.3732 25.6914 18.1836 25.8046 17.9749 25.8801Z" fill="#1A130D"/>
<path d="M19.9477 40.9149C19.9667 41.2167 20.0236 41.4808 19.9857 41.726C19.9667 41.8392 19.758 41.9901 19.6442 41.9901C18.9613 42.009 18.2784 42.009 17.5955 41.9901C17.5007 41.9901 17.3299 41.8958 17.311 41.8392C17.292 41.4808 17.292 41.1224 17.292 40.764C17.3489 40.764 17.4248 40.764 17.4817 40.7451C17.5007 40.896 17.5196 41.0658 17.5196 41.2167C17.5196 41.7072 17.5765 41.7638 18.0318 41.7449C18.3922 41.726 18.3163 41.4431 18.3353 41.2356C18.3543 41.0847 18.3732 40.9338 18.3922 40.7828C18.4491 40.7828 18.4871 40.7828 18.544 40.7828C18.5629 40.9149 18.5819 41.0469 18.5819 41.1601C18.6009 41.4242 18.525 41.7449 18.9423 41.7449C19.6632 41.7826 19.777 41.6883 19.777 41.179C19.777 41.1224 19.777 41.0469 19.796 40.9903C19.8339 40.9903 19.8718 40.9715 19.9477 40.9149Z" fill="#1A130D"/>
<path d="M18.5819 50.5542C18.4681 50.441 18.3733 50.309 18.2594 50.2713C18.0887 50.2147 17.8611 50.1769 17.7473 50.2524C17.6334 50.309 17.5576 50.5731 17.5765 50.7051C17.6145 50.8183 17.8231 50.9315 17.9749 50.9504C18.1456 50.9692 18.3163 50.8938 18.4871 50.856C18.525 50.856 18.5629 50.7995 18.5819 50.7995C19.0182 50.8749 19.4545 50.9692 19.9098 51.0447C19.9098 51.0824 19.9098 51.1013 19.9287 51.139C19.8149 51.1767 19.7011 51.2522 19.5683 51.2522C18.9423 51.2522 18.3353 51.2333 17.7093 51.2522C17.3868 51.2522 17.292 51.1201 17.292 50.7995C17.311 50.2335 17.5955 49.894 18.0697 49.9129C18.4112 49.9317 18.6199 50.1581 18.5819 50.5542Z" fill="#1A130D"/>
<path d="M17.5202 37.3682C17.5581 37.67 17.615 37.9529 17.634 38.2548C17.653 38.6698 17.6719 39.1036 17.653 39.5186C17.653 39.7639 17.5961 40.0091 17.5392 40.2543C17.5392 40.2921 17.4633 40.2921 17.4253 40.3298C17.3874 40.2543 17.3115 40.1977 17.3115 40.1223C17.3115 39.8016 17.3115 39.4809 17.3115 39.1602C17.3115 38.6698 17.3115 38.1604 17.3115 37.67C17.3115 37.5757 17.3495 37.4625 17.3684 37.3682C17.4064 37.3682 17.4633 37.3682 17.5202 37.3682Z" fill="#1A130D"/>
<path d="M19.7195 31.8033C19.1694 31.8033 18.6004 31.8411 18.0502 31.7845C17.6898 31.7467 17.5381 31.8222 17.5381 32.1806C17.5381 32.2372 17.4812 32.2938 17.4622 32.3504C17.2535 32.1429 17.2346 31.3506 17.4053 30.9922C17.4432 31.0111 17.4812 31.0299 17.5001 31.0488C17.7278 31.6524 17.7278 31.6524 18.4296 31.6336C18.8659 31.6147 19.2833 31.6336 19.7195 31.6336C19.7195 31.6902 19.7195 31.7467 19.7195 31.8033Z" fill="#1A130D"/>
<path d="M19.7762 27.4085C19.0174 27.5783 18.2397 27.5217 17.4619 27.5217C17.4619 27.4462 17.4619 27.3896 17.4619 27.3142C18.2207 27.2953 18.9984 27.3142 19.7762 27.4085Z" fill="#1A130D"/>
<path d="M17.5 28.5215C18.3347 28.3329 19.1883 28.6913 19.9091 28.2197C20.0229 28.465 19.985 28.597 19.7384 28.597C19.0365 28.6159 18.3536 28.6159 17.6518 28.6159C17.6328 28.6159 17.6138 28.5781 17.5 28.5215Z" fill="#1A130D"/>
<path d="M17.8799 39.6133C18.4869 39.6133 19.1129 39.6133 19.7199 39.6133C19.7199 39.651 19.7199 39.6887 19.7199 39.7265C19.1129 39.7265 18.4869 39.7265 17.8799 39.7265C17.8989 39.6887 17.8989 39.651 17.8799 39.6133Z" fill="#1A130D"/>
<path d="M19.6249 38.1226C19.0748 38.1226 18.5247 38.1226 17.9746 38.1226C17.9746 38.0849 17.9746 38.066 17.9746 38.0283C18.5247 38.0283 19.0748 38.0283 19.6249 38.0283C19.6249 38.066 19.6249 38.1038 19.6249 38.1226Z" fill="#1A130D"/>
<path d="M18.5254 32.8223C18.9237 32.8223 19.3221 32.8223 19.7394 32.8223C19.7394 32.86 19.7394 32.8977 19.7394 32.9166C19.3411 32.9166 18.9237 32.9166 18.5254 32.9166C18.5254 32.8789 18.5254 32.86 18.5254 32.8223Z" fill="#1A130D"/>
<path d="M18.2404 32.9361C17.9938 32.9549 17.7472 32.9549 17.5195 32.9738C17.5195 32.9172 17.5195 32.8795 17.5195 32.8229C17.7661 32.804 18.0127 32.804 18.2404 32.7852C18.2214 32.8417 18.2214 32.8795 18.2404 32.9361Z" fill="#1A130D"/>
<path d="M28.426 41.7641C28.426 42.4621 28.407 43.1789 28.426 43.8769C28.426 44.2353 28.2742 44.3485 27.9328 44.3485C26.9274 44.3296 25.922 44.3485 24.9166 44.3485C24.8028 44.3485 24.689 44.273 24.5752 44.2353C24.6131 44.1221 24.6321 43.9901 24.708 43.8957C25.8082 42.4244 26.9084 40.9718 28.0087 39.5193C28.0845 39.425 28.2173 39.3684 28.3311 39.293C28.3691 39.425 28.445 39.5382 28.445 39.6702C28.4639 40.3682 28.445 41.085 28.445 41.783C28.445 41.7641 28.445 41.7641 28.426 41.7641Z" fill="#FFF3E0"/>
<path d="M40.624 29.993C40.6999 29.6157 40.7568 29.2007 40.8706 28.8046C40.9844 28.465 41.231 28.2387 41.6294 28.2009C42.0467 28.1632 42.3882 28.3141 42.5589 28.6914C42.9383 29.5403 42.9193 30.408 42.5968 31.2569C42.4451 31.6719 42.0278 31.8228 41.5915 31.8039C41.1931 31.7851 40.9465 31.5398 40.8517 31.1814C40.7568 30.8041 40.7189 30.4269 40.624 29.993Z" fill="#FFF3E0"/>
<path d="M30.6472 29.3892C30.5713 29.3892 30.4954 29.3892 30.4195 29.3892C29.8125 29.3892 29.6418 29.1251 29.9074 28.578C30.0971 28.1819 30.5334 27.9555 30.8938 28.0876C31.2921 28.2196 31.5957 28.6723 31.5198 29.0873C31.5008 29.2005 31.3301 29.3514 31.1973 29.3892C31.0266 29.4269 30.8369 29.3703 30.6472 29.3892Z" fill="#FFF3E0"/>
<path d="M18.6582 45.4609C19.2273 45.4609 19.8343 46.0646 19.8532 46.6305C19.8722 47.1398 19.2083 47.8189 18.6961 47.7812C18.0132 47.7246 17.52 47.3473 17.52 46.5362C17.501 45.9703 18.0512 45.4609 18.6582 45.4609Z" fill="#FFF3E0"/>
<path d="M18.6575 21.5046C17.9557 21.5046 17.5194 21.0518 17.5004 20.2973C17.4814 19.788 18.1454 19.1466 18.6575 19.1654C19.1697 19.1843 19.8147 19.8445 19.8147 20.3539C19.8336 20.9198 19.2456 21.5046 18.6575 21.5046Z" fill="#FFF3E0"/>
<path d="M18.6186 34.6338C19.2067 34.6338 19.8516 35.2374 19.8516 35.8033C19.8327 36.3315 19.1498 36.9918 18.5997 36.9729C18.0306 36.954 17.4805 36.3881 17.4805 35.8033C17.4805 35.1808 17.9926 34.6338 18.6186 34.6338Z" fill="#FFF3E0"/>
<path d="M18.0308 49.3097C17.7652 49.3851 17.5755 49.3286 17.5566 49.0267C17.5376 48.706 17.8221 48.574 18.0498 48.6117C18.2205 48.6306 18.3343 48.8947 18.4861 49.0645C18.3533 49.1776 18.2205 49.2908 18.0877 49.404C18.0687 49.3663 18.0498 49.3286 18.0308 49.3097Z" fill="#FFF3E0"/>
<path d="M18.0322 30.1809C18.2219 29.8225 18.6203 29.615 18.791 29.7848C18.9048 29.898 18.9807 30.2375 18.9238 30.2941C18.6203 30.5959 18.3547 30.2941 18.0322 30.1809Z" fill="#FFF3E0"/>
<path d="M17.9746 25.8804C18.1833 25.8049 18.373 25.6918 18.6006 25.6352C18.7903 25.5786 18.961 25.6352 18.98 25.8993C18.98 26.1256 18.8851 26.2954 18.6575 26.2577C18.4299 26.22 18.2212 26.1068 17.9936 26.0313C17.9746 25.9747 17.9746 25.937 17.9746 25.8804Z" fill="#FFF3E0"/>
</svg>
