<svg width="94" height="62" viewBox="0 0 94 62" fill="none" xmlns="http://www.w3.org/2000/svg">
<g clip-path="url(#clip0_608_4720)">
<path d="M-3 64.4164C-3 42.2843 -3 20.1722 -3 -2C30.6 -2 64.1999 -2 97.7999 -2C97.7999 20.112 97.7999 42.2241 97.7999 64.4164C64.0999 64.4164 30.5599 64.4164 -3 64.4164ZM42.8472 41.7224C42.6271 41.3011 42.5471 41.0201 42.367 40.7994C41.2063 39.2745 40.0256 37.7696 38.8849 36.2446C35.0026 31.0075 31.1403 25.7303 27.218 20.5133C26.9378 20.1321 26.3374 19.8512 25.8772 19.8111C24.7965 19.7107 23.6959 19.8311 22.5952 19.7709C21.7147 19.7107 21.2944 20.0117 21.3745 20.9146C21.3945 21.2156 21.3545 21.5367 21.3545 21.8377C21.3545 27.8372 21.3745 33.8167 21.3745 39.8162C21.3745 41.8027 21.3745 41.7626 23.3156 41.7626C24.2362 41.7626 24.4963 41.3813 24.4563 40.5185C24.3963 39.0738 24.4363 37.6492 24.3763 36.2045C24.3563 35.5022 24.6164 35.1811 25.3168 35.2012C28.0585 35.2213 30.7801 35.2012 33.5217 35.2815C33.982 35.3015 34.5423 35.6426 34.8425 36.0038C36.1433 37.6291 37.324 39.3547 38.5847 41.0001C38.8048 41.281 39.125 41.6622 39.4052 41.6823C40.5058 41.7626 41.5865 41.7224 42.8472 41.7224ZM40.9661 34.7999C41.0662 34.7598 41.1462 34.7397 41.2463 34.6996C41.2863 34.3584 41.3463 33.9973 41.3463 33.6562C41.3463 30.225 41.3463 26.8139 41.3263 23.3827C41.3263 22.7406 41.5865 22.4196 42.2269 22.4396C44.0079 22.4998 45.789 22.4597 47.55 22.6804C52.9332 23.3426 55.975 28.8405 53.7137 34.1578C52.3129 37.4485 49.5912 38.833 46.1292 38.9735C45.5689 38.9935 45.0085 38.9735 44.108 38.9735C44.6483 39.736 45.0085 40.1975 45.3087 40.7192C45.869 41.6622 46.6695 41.883 47.6701 41.6422C48.7307 41.3813 49.8114 41.1807 50.832 40.8195C56.0951 38.9133 59.0369 32.1713 56.9356 26.9945C55.1545 22.5801 51.9126 20.1722 47.1898 19.9114C44.5683 19.7709 41.9267 19.8311 39.3051 19.7709C38.5047 19.7509 38.2445 20.092 38.2445 20.8745C38.2845 23.6034 38.3646 26.3524 38.2245 29.0813C38.1444 30.6464 38.6247 31.8703 39.5853 33.0141C40.0656 33.596 40.5058 34.218 40.9661 34.7999ZM58.9568 30.6865C58.9768 30.6865 58.9768 30.6865 58.9568 30.6865C58.9768 33.9371 58.9968 37.1877 58.9568 40.4583C58.9368 41.4415 59.277 41.7826 60.2576 41.7826C63.8197 41.7425 67.3818 41.7425 70.9239 41.7826C71.8445 41.8027 72.0846 41.3613 71.9846 40.5988C71.9045 39.9166 72.3448 38.9534 70.9439 38.9935C68.3824 39.0738 65.8209 38.9935 63.2393 39.0337C62.3188 39.0537 61.9786 38.7528 61.9786 37.7896C62.0186 34.1979 61.9986 30.5862 61.9986 26.9945C61.9986 24.9478 61.9786 22.8811 61.9986 20.8344C61.9986 20.092 61.7184 19.7509 60.958 19.8111C60.6778 19.8311 60.3977 19.8512 60.1375 19.8111C59.1369 19.6505 58.8968 20.1522 58.8968 21.0551C58.9768 24.2455 58.9568 27.456 58.9568 30.6865ZM63.2393 46.1569C62.8591 45.575 62.579 45.1536 62.3188 44.7322C62.2388 44.7523 62.1387 44.7724 62.0586 44.7924C62.0186 45.2539 61.9586 45.7154 61.8986 46.3174C62.3588 46.2773 62.699 46.2371 63.2393 46.1569ZM59.5772 45.9161C59.237 45.4747 58.9768 45.1335 58.5566 44.5918C58.4765 46.2973 58.5366 46.3776 59.5772 45.9161Z" fill="#1A130D"/>
<path d="M-3 64.4164C30.5599 64.4164 64.0999 64.4164 97.7999 64.4164C97.7999 42.2441 97.7999 20.112 97.7999 -2C97.8599 -1.69902 98 -1.37797 98 -1.07699C98 15.8782 98 32.8535 98 49.8088C98 54.7449 98 59.6809 98 64.617C64.6402 64.617 31.2804 64.617 -2.07945 64.617C-2.37963 64.617 -2.69982 64.4766 -3 64.4164Z" fill="#FFF3E0"/>
<path d="M42.8478 41.7226C41.567 41.7226 40.4864 41.7828 39.4257 41.6824C39.1255 41.6624 38.8054 41.2811 38.6052 41.0002C37.3445 39.3348 36.1438 37.6292 34.863 36.0039C34.5628 35.6428 34.0025 35.2816 33.5422 35.2816C30.8006 35.2013 28.079 35.2214 25.3374 35.2013C24.6369 35.2013 24.3768 35.5023 24.3968 36.2046C24.4568 37.6493 24.4168 39.0739 24.4768 40.5187C24.5169 41.3815 24.2567 41.7627 23.3362 41.7627C21.395 41.7627 21.395 41.8028 21.395 39.8164C21.395 33.8168 21.375 27.8373 21.375 21.8378C21.375 21.5368 21.415 21.2158 21.395 20.9148C21.315 20.0118 21.7352 19.7109 22.6157 19.7711C23.6964 19.8313 24.817 19.7109 25.8977 19.8112C26.378 19.8513 26.9783 20.1322 27.2385 20.5135C31.1608 25.7305 35.0231 31.0077 38.9054 36.2447C40.0461 37.7898 41.2268 39.2746 42.3875 40.7996C42.5476 41.0203 42.6476 41.3012 42.8478 41.7226ZM24.717 22.4197C24.6169 22.6404 24.5169 22.8009 24.5169 22.9414C24.5169 25.7706 24.5369 28.6199 24.5569 31.4491C24.5569 32.2517 24.9571 32.4925 25.7176 32.4724C27.5987 32.4524 29.4598 32.4925 31.3409 32.4925C31.5611 32.4925 31.9413 32.3922 31.9613 32.3119C32.0013 32.0711 31.9213 31.7702 31.7812 31.5896C29.6199 28.66 27.4386 25.7305 25.2373 22.8009C25.1172 22.6605 24.9371 22.5802 24.717 22.4197Z" fill="#FFF3E0"/>
<path d="M40.9661 34.8003C40.5058 34.1984 40.0655 33.5964 39.5852 33.0145C38.6247 31.8708 38.1444 30.6669 38.2244 29.0817C38.3645 26.3528 38.2845 23.6039 38.2444 20.875C38.2244 20.0724 38.5046 19.7513 39.3051 19.7714C41.9266 19.8316 44.5682 19.7513 47.1898 19.9118C51.9126 20.1727 55.1545 22.5805 56.9355 26.9949C59.0368 32.1919 56.095 38.9137 50.8319 40.82C49.8113 41.1811 48.7307 41.3818 47.67 41.6426C46.6694 41.8834 45.869 41.6627 45.3086 40.7196C45.0085 40.218 44.6282 39.7565 44.1079 38.9739C45.0085 38.9739 45.5688 38.994 46.1291 38.9739C49.5712 38.8335 52.3128 37.449 53.7136 34.1583C55.975 28.861 52.9332 23.343 47.55 22.6809C45.7889 22.4601 44.0079 22.5203 42.2268 22.4401C41.5664 22.42 41.3263 22.7411 41.3263 23.3832C41.3463 26.8143 41.3463 30.2254 41.3463 33.6566C41.3463 33.9977 41.2862 34.3589 41.2462 34.7C41.1462 34.7402 41.0461 34.7803 40.9661 34.8003Z" fill="#FFF3E0"/>
<path d="M58.9575 30.6862C58.9575 27.4757 58.9775 24.2452 58.9375 21.0347C58.9375 20.1318 59.1776 19.6502 60.1782 19.7907C60.4384 19.8308 60.7186 19.8108 60.9987 19.7907C61.7592 19.7104 62.0393 20.0716 62.0393 20.814C62.0193 22.8607 62.0393 24.9274 62.0393 26.9741C62.0393 30.5658 62.0594 34.1776 62.0193 37.7693C61.9993 38.7324 62.3595 39.0334 63.2801 39.0133C65.8416 38.9732 68.4031 39.0534 70.9847 38.9732C72.3855 38.933 71.9452 39.8962 72.0253 40.5784C72.1253 41.361 71.8852 41.7823 70.9646 41.7623C67.4025 41.7221 63.8404 41.7221 60.2983 41.7623C59.3177 41.7823 58.9775 41.4212 58.9975 40.4379C59.0175 37.1874 58.9775 33.9368 58.9575 30.6862C58.9775 30.6862 58.9775 30.6862 58.9575 30.6862Z" fill="#FFF3E0"/>
<path d="M63.2407 46.1571C62.7004 46.2173 62.3602 46.2574 61.8799 46.3176C61.9399 45.7156 62 45.2541 62.04 44.7926C62.12 44.7726 62.2201 44.7525 62.3001 44.7324C62.5803 45.1538 62.8605 45.5752 63.2407 46.1571Z" fill="#FFF3E0"/>
<path d="M59.5776 45.9161C58.5369 46.3776 58.4769 46.2974 58.5569 44.5918C58.9772 45.1336 59.2374 45.4747 59.5776 45.9161Z" fill="#FFF3E0"/>
<path d="M24.7167 22.4199C24.9369 22.5804 25.117 22.6607 25.237 22.8012C27.4183 25.7307 29.5996 28.6402 31.7809 31.5898C31.921 31.7904 31.981 32.0914 31.961 32.3122C31.941 32.3924 31.5608 32.4927 31.3407 32.4927C29.4595 32.4927 27.5984 32.4526 25.7173 32.4727C24.9569 32.4927 24.5566 32.2319 24.5566 31.4493C24.5566 28.6201 24.5366 25.7708 24.5166 22.9416C24.5166 22.8012 24.6367 22.6406 24.7167 22.4199Z" fill="#1A130D"/>
</g>
<defs>
<clipPath id="clip0_608_4720">
<rect width="94" height="62" fill="white"/>
</clipPath>
</defs>
</svg>
