<svg width="161" height="62" viewBox="0 0 161 62" fill="none" xmlns="http://www.w3.org/2000/svg">
<path d="M163.801 63.3105C108.212 63.3105 52.5895 63.3105 -3 63.3105C-3 41.9423 -3 20.5742 -3 -0.793945C52.5895 -0.793945 108.146 -0.793945 163.801 -0.793945C163.801 20.6429 163.801 41.9767 163.801 63.3105ZM83.7262 36.6862C83.8254 36.6518 83.8916 36.6175 83.9909 36.6175C84.1894 37.0984 84.4541 37.545 84.5534 38.026C84.9505 39.5376 86.0093 40.5682 87.2336 41.2553C90.6749 43.1447 94.083 42.7325 97.2926 40.5682C97.8552 40.1903 98.1199 40.1559 98.2853 40.843C98.4508 41.5301 98.8809 41.7706 99.5427 41.7362C100.535 41.7019 101.561 41.7362 102.554 41.7019C103.381 41.6675 103.679 41.9767 103.679 42.8012C103.646 44.7594 103.679 46.6832 103.679 48.6414C103.679 49.3971 103.877 49.775 104.705 49.7407C105.797 49.7063 106.888 49.7063 107.98 49.775C108.741 49.8094 108.973 49.5346 108.973 48.7788C108.973 46.2022 109.006 43.66 109.039 41.0835C109.039 40.74 109.172 40.4308 109.238 40.0872C109.569 40.2246 109.933 40.259 110.23 40.4651C113.44 42.8699 118.536 42.1141 120.984 38.8505C123.698 35.1746 124.128 31.1209 123.003 26.7579C122.374 24.2501 120.984 22.2232 118.933 20.7803C116.451 19.0626 112.613 19.2344 110.131 21.0552C109.833 21.2956 109.469 21.433 109.039 21.7079C109.006 20.5742 108.411 20.3681 107.616 20.4368C106.756 20.4711 105.929 20.4368 105.069 20.4368C103.745 20.4368 103.646 20.5398 103.646 21.9484C103.679 27.5824 103.712 33.1821 103.712 38.8161C103.712 39.2627 103.646 39.7093 103.58 40.1559C103.48 40.1559 103.381 40.1559 103.282 40.1559C103.182 39.778 103.05 39.3658 103.05 38.9879C102.951 37.5107 102.918 35.9991 102.852 34.5219C102.752 31.6705 102.719 28.8191 102.554 25.9678C102.388 23.3569 101.098 21.5361 98.7155 20.6086C95.7706 19.4749 92.7595 19.5436 89.7814 20.5055C87.1012 21.33 85.6784 23.3225 85.149 26.1395C84.9836 26.9297 85.3475 27.2389 86.0755 27.2045C86.9689 27.2045 87.8954 27.1014 88.7888 27.1702C89.616 27.2389 89.98 26.861 90.2116 26.1052C90.344 25.6586 90.6087 25.212 90.9396 24.9028C92.3293 23.6317 94.8441 23.4599 96.3992 24.5249C97.5574 25.315 97.8552 26.861 96.9287 27.6855C96.4985 28.0634 95.8036 28.2351 95.2411 28.3725C93.0903 28.8879 90.8734 29.2314 88.7557 29.9185C86.8034 30.5712 85.2152 31.8423 84.5203 34.0066C84.3879 34.4188 84.1894 34.7967 83.8916 35.4151C83.8254 34.8654 83.7923 34.625 83.7923 34.3845C83.8254 30.1589 83.8254 25.9334 83.8585 21.7422C83.8585 20.6086 83.7262 20.4368 82.6342 20.4368C81.7408 20.4368 80.8805 20.4711 79.9871 20.4368C79.1268 20.4024 78.3658 20.4024 78.465 21.6392C78.465 21.7422 78.2996 21.8797 78.2003 21.9484C78.068 21.914 78.0018 21.914 77.9687 21.8453C72.7076 17.5511 66.0898 20.0589 64.336 26.964C63.9721 28.4069 63.7735 29.8498 63.5088 31.327C63.3103 29.5749 63.4096 27.8229 63.2772 26.1052C63.1117 23.6317 61.9867 21.6735 59.7036 20.746C56.9903 19.6466 54.1446 19.4749 51.299 20.162C48.3541 20.8834 46.3687 22.6354 45.7731 25.796C45.6077 26.6892 45.8062 27.0327 46.6665 27.0671C47.6592 27.1014 48.685 27.1014 49.6776 27.1014C50.2732 27.1014 50.6703 26.8953 50.7696 26.1739C50.8357 25.796 51.1335 25.4525 51.3652 25.1089C52.3909 23.5973 55.7329 23.4599 57.0565 24.5936C57.5859 25.0402 57.983 25.8647 58.0491 26.5518C58.1484 27.4106 57.4535 28.029 56.6263 28.2351C55.6667 28.4756 54.6741 28.6474 53.6814 28.7848C51.4975 29.1283 49.4129 29.6093 47.4607 30.8117C44.0525 32.976 43.5893 37.7168 46.6334 40.3621C49.6115 42.9386 54.3763 43.0417 57.7513 40.5682C58.3469 40.1216 58.5455 40.1903 58.8433 40.843C58.9756 41.1522 59.3727 41.5301 59.7036 41.5645C60.961 41.6675 62.2184 41.6675 63.4426 41.5988C63.6412 41.5988 64.0382 41.1179 64.0051 40.8774C63.8397 38.6787 63.575 36.5144 63.4095 34.3158C63.3765 33.8005 63.5088 33.2852 63.5419 32.7698C63.6412 32.7355 63.7404 32.7011 63.8397 32.7011C64.3691 36.2739 65.7258 39.3314 68.8692 41.0835C72.145 42.9043 75.2554 42.1485 78.1011 39.9155C78.2665 40.1216 78.3327 40.1903 78.3658 40.259C78.6966 42.3202 77.0422 45.1716 75.09 45.8587C73.237 46.5114 70.6891 45.7556 70.0935 44.1066C69.4979 42.5607 68.6376 41.8736 67.0824 42.1828C66.9501 42.2172 66.8177 42.1828 66.7184 42.1828C64.2037 42.2172 64.0713 42.4576 65.0971 44.9311C66.553 48.5383 69.7626 50.5308 73.8326 50.3934C76.0164 50.3247 78.101 49.775 79.7886 48.3322C82.4688 46.0305 83.8916 43.076 83.6931 39.4002C83.6931 38.5413 83.7262 37.6137 83.7262 36.6862ZM38.5928 26.3113C38.5266 26.3113 38.4605 26.3113 38.3943 26.3113C38.3281 24.6623 38.2619 23.0133 38.1958 21.3643C38.1627 20.5055 37.8649 20.3681 37.1369 20.7116C35.5817 21.3987 34.0266 22.1201 32.4383 22.6011C29.3279 23.5286 26.1845 24.1814 23.0741 25.0746C20.5263 25.8304 18.0777 26.7923 15.9931 28.5443C13.8754 30.2964 12.8165 32.5637 13.0812 35.3464C13.4452 39.3314 16.1585 41.5301 19.9307 42.4233C24.4308 43.4883 28.6992 42.4576 32.8023 40.4651C35.7141 39.0566 37.5671 36.7893 38.0634 33.4913C38.3612 31.1209 38.3943 28.7161 38.5928 26.3113ZM136.801 32.2889C136.801 32.2545 136.801 32.2545 136.801 32.2889C138.952 32.2545 141.136 32.2545 143.286 32.2889C143.915 32.2889 144.213 32.0484 144.18 31.3613C144.08 28.7504 143.485 26.3113 142.062 24.1127C138.919 19.2 132.764 17.9977 128.132 21.3987C125.451 23.3569 124.194 26.2082 123.995 29.5406C123.698 33.8348 124.856 37.442 128.396 40.0872C133.095 43.557 141.036 42.2172 143.584 36.2052C144.014 35.1403 143.882 34.8654 142.757 34.8998C141.731 34.9341 140.672 34.8311 139.647 34.9341C139.117 35.0028 138.422 35.2433 138.124 35.6212C136.867 37.3046 135.213 37.7855 133.293 37.4076C131.308 36.9954 130.018 35.7586 129.488 33.6974C129.223 32.5637 129.389 32.3232 130.481 32.3232C132.599 32.2545 134.683 32.2889 136.801 32.2889Z" fill="#1A130D"/>
<path d="M163.801 63.3106C163.801 41.9768 163.801 20.643 163.801 -0.793876C108.146 -0.793876 52.5895 -0.793876 -3 -0.793876C-2.96691 -0.862584 -2.93382 -1 -2.90073 -1C-2.66911 -1 -2.4044 -1 -2.13969 -1C53.2182 -1 108.576 -1 164 -1C164 -0.622107 164 -0.278567 164 0.0993259C164 20.8835 164 41.6676 164 62.4174C164 62.7265 163.868 63.0014 163.801 63.3106Z" fill="#FFF3E0"/>
<path d="M83.7259 36.6864C83.7259 37.614 83.6928 38.5415 83.7259 39.4691C83.9244 43.1793 82.5016 46.1337 79.8214 48.4011C78.1338 49.844 76.0492 50.3936 73.8654 50.4623C69.7954 50.5998 66.6189 48.5729 65.1299 45.0001C64.1041 42.5266 64.2696 42.2861 66.7512 42.2518C66.8836 42.2518 67.0159 42.2518 67.1152 42.2518C68.6704 41.9769 69.5638 42.664 70.1263 44.1756C70.755 45.8246 73.3028 46.5804 75.1227 45.9276C77.0419 45.2405 78.7294 42.3892 78.3985 40.3279C78.3985 40.2592 78.2993 40.1905 78.1338 39.9844C75.2882 42.2518 72.1778 42.9732 68.902 41.1524C65.7586 39.4004 64.4019 36.3429 63.8725 32.7701C63.7732 32.8044 63.674 32.8388 63.5747 32.8388C63.5085 33.3541 63.4092 33.8694 63.4423 34.3847C63.6409 36.5834 63.8725 38.7477 64.0379 40.9463C64.071 41.1868 63.674 41.6677 63.4754 41.6677C62.218 41.7364 60.9607 41.7364 59.7364 41.6334C59.4386 41.599 59.0415 41.2555 58.8761 40.9119C58.5783 40.2592 58.3797 40.1905 57.7841 40.6371C54.409 43.1106 49.6111 43.0075 46.6662 40.431C43.622 37.7857 44.0522 33.0105 47.4935 30.8806C49.4457 29.6782 51.5303 29.1629 53.7142 28.8537C54.7068 28.7163 55.6995 28.5445 56.6591 28.3041C57.4863 28.0979 58.1812 27.4796 58.0819 26.6207C58.0157 25.9336 57.5856 25.1091 57.0893 24.6625C55.7657 23.5289 52.4237 23.6319 51.3979 25.1778C51.1663 25.5214 50.8685 25.8649 50.8023 26.2428C50.7031 26.9643 50.2729 27.1704 49.7104 27.1704C48.7177 27.1704 47.692 27.1704 46.6993 27.136C45.839 27.1017 45.6074 26.7581 45.8059 25.8649C46.4346 22.7044 48.3869 20.9523 51.3318 20.2309C54.1774 19.5094 57.0231 19.6812 59.7364 20.8149C62.0195 21.7425 63.1445 23.7006 63.31 26.1741C63.4092 27.9262 63.3431 29.6782 63.5416 31.3959C63.8063 29.953 64.0048 28.4758 64.3688 27.033C66.1225 20.0935 72.7403 17.62 78.0015 21.9142C78.0346 21.9486 78.1007 21.9486 78.2331 22.0173C78.2993 21.9142 78.4978 21.8112 78.4978 21.7081C78.3985 20.4714 79.1596 20.4714 80.0199 20.5057C80.8802 20.5401 81.7736 20.5057 82.667 20.5057C83.7589 20.5057 83.8913 20.6775 83.8913 21.8112C83.8582 26.0367 83.8251 30.2279 83.8251 34.4534C83.8251 34.6939 83.8582 34.9344 83.9244 35.484C84.2222 34.8313 84.4207 34.4534 84.5531 34.0755C85.248 31.9112 86.8362 30.6401 88.7885 29.9874C90.9062 29.3003 93.1231 28.9568 95.2739 28.4415C95.8695 28.3041 96.5313 28.1323 96.9615 27.7544C97.8879 26.9299 97.5901 25.384 96.432 24.5938C94.9099 23.5289 92.3621 23.6663 90.9723 24.9717C90.6415 25.2809 90.3767 25.7275 90.2444 26.1741C90.0128 26.9299 89.6488 27.3078 88.8216 27.2391C87.9282 27.1704 87.0017 27.2391 86.1083 27.2734C85.4134 27.2734 85.0494 26.9986 85.1818 26.2085C85.7112 23.4258 87.134 21.3989 89.8473 20.5401C92.8253 19.5782 95.8364 19.5094 98.7813 20.6431C101.164 21.5707 102.454 23.4258 102.62 26.0023C102.785 28.8537 102.818 31.7051 102.917 34.5565C102.984 36.0337 103.017 37.5453 103.116 39.0225C103.149 39.4347 103.281 39.8126 103.348 40.1905C103.447 40.1905 103.546 40.1905 103.645 40.1905C103.679 39.7439 103.778 39.2973 103.778 38.8507C103.745 33.2167 103.745 27.617 103.712 21.9829C103.712 20.5744 103.778 20.4714 105.134 20.4714C105.995 20.4714 106.822 20.5057 107.682 20.4714C108.476 20.437 109.039 20.6088 109.105 21.7425C109.535 21.502 109.899 21.3302 110.197 21.0897C112.679 19.269 116.517 19.0972 118.999 20.8149C121.083 22.2578 122.44 24.2846 123.069 26.7925C124.194 31.1211 123.764 35.2092 121.05 38.8851C118.635 42.1487 113.539 42.9045 110.296 40.4997C110.032 40.2936 109.635 40.2249 109.304 40.1218C109.237 40.4653 109.105 40.7745 109.105 41.1181C109.072 43.6946 109.039 46.2368 109.039 48.8134C109.039 49.5691 108.807 49.844 108.046 49.8096C106.954 49.7409 105.862 49.7409 104.77 49.7753C103.943 49.8096 103.745 49.4317 103.745 48.6759C103.778 46.7178 103.712 44.7939 103.745 42.8358C103.745 41.9769 103.447 41.6677 102.62 41.7364C101.627 41.8052 100.601 41.7364 99.6086 41.7708C98.9468 41.8052 98.5166 41.5647 98.3512 40.8776C98.1857 40.1905 97.921 40.2249 97.3585 40.6028C94.1489 42.7671 90.7738 43.1793 87.2995 41.2898C86.0752 40.6028 85.0163 39.5721 84.6193 38.0606C84.4869 37.5796 84.2222 37.133 84.0568 36.6521C83.9244 36.6177 83.8251 36.6521 83.7259 36.6864ZM69.1998 30.8462C69.2329 31.3959 69.266 31.9456 69.3322 32.4952C69.4314 33.0793 69.5307 33.6289 69.6961 34.2129C70.1925 36.0337 71.8469 37.4422 73.6337 37.6483C75.1889 37.8201 77.1412 36.7551 77.8029 35.3466C79.1265 32.4952 79.1265 29.6095 77.8029 26.7925C76.2147 23.4602 72.0124 23.4602 70.3248 26.2085C69.4645 27.5826 69.1998 29.1629 69.1998 30.8462ZM118.403 30.9493C118.072 29.5064 117.874 28.2697 117.51 27.0673C116.947 25.2466 115.326 24.0785 113.539 24.0785C111.62 24.0785 109.965 25.2809 109.304 27.033C108.443 29.369 108.41 31.7394 109.204 34.0755C109.833 35.9306 111.057 37.0643 112.943 37.3391C114.829 37.614 116.418 36.8238 117.245 35.0374C117.841 33.7663 118.039 32.2548 118.403 30.9493ZM58.3797 33.1823C58.3466 33.1823 58.3466 33.1823 58.3135 33.1823C58.3135 32.9075 58.3135 32.667 58.3135 32.3922C58.2805 31.3272 58.115 31.2585 57.1223 31.602C56.5598 31.8082 55.9642 31.9112 55.4017 32.1173C54.0451 32.5983 52.6553 32.9762 51.3649 33.5946C49.9089 34.2816 49.7435 36.6177 51.034 37.5109C52.6884 38.6789 54.4421 38.3698 56.1628 37.717C57.7841 37.0987 58.2805 35.7245 58.3797 34.1099C58.3797 33.835 58.3797 33.5259 58.3797 33.1823ZM97.7556 33.2167C97.7556 32.9075 97.7556 32.5639 97.7556 32.2548C97.7556 31.2928 97.557 31.1898 96.6967 31.499C96.2004 31.6707 95.671 31.8082 95.1746 31.9799C93.6856 32.5296 92.1305 33.0105 90.7076 33.6976C89.8804 34.0755 89.4503 35.0031 89.6157 35.9993C89.7811 36.9956 90.4098 37.6483 91.3363 37.9919C94.8438 39.2286 97.8879 36.9956 97.7556 33.2167Z" fill="#FFF3E0"/>
<path d="M38.5924 26.3117C38.3938 28.6821 38.3607 31.0869 37.9968 33.4573C37.5335 36.7553 35.6474 39.0226 32.7356 40.4311C28.6326 42.4237 24.3641 43.4543 19.864 42.3893C16.0919 41.4961 13.3786 39.2975 13.0146 35.3124C12.7499 32.5297 13.8087 30.2624 15.9264 28.5103C18.011 26.7583 20.4927 25.7964 23.0075 25.0406C26.1178 24.1474 29.2613 23.4603 32.3716 22.5671C33.993 22.0861 35.5482 21.3647 37.0703 20.6776C37.7982 20.3684 38.096 20.4715 38.1291 21.3303C38.1953 22.9793 38.2615 24.6283 38.3276 26.2773C38.46 26.3117 38.5262 26.3117 38.5924 26.3117Z" fill="#FFF3E0"/>
<path d="M136.802 32.2893C134.717 32.2893 132.599 32.2893 130.515 32.2893C129.423 32.2893 129.257 32.5298 129.522 33.6635C130.018 35.7247 131.342 36.9615 133.327 37.3737C135.246 37.7516 136.901 37.305 138.158 35.5873C138.456 35.1751 139.151 34.9346 139.68 34.9002C140.706 34.7972 141.732 34.9002 142.791 34.8659C143.883 34.8315 144.048 35.1407 143.618 36.1713C141.103 42.1833 133.129 43.5231 128.43 40.0533C124.889 37.4424 123.764 33.8009 124.029 29.5067C124.261 26.1743 125.485 23.3573 128.165 21.3648C132.798 17.9637 138.952 19.1661 142.096 24.0787C143.519 26.2774 144.114 28.7165 144.213 31.3274C144.247 32.0145 143.949 32.255 143.32 32.255C141.103 32.255 138.952 32.255 136.802 32.2893C136.802 32.255 136.802 32.255 136.802 32.2893ZM133.857 28.4417C133.857 28.4073 133.857 28.4073 133.857 28.4417C134.386 28.4073 134.915 28.4073 135.445 28.4073C135.974 28.4073 136.504 28.4073 137.033 28.4073C138.423 28.4073 138.588 28.2012 138.224 26.8271C138.158 26.6209 138.092 26.3805 137.993 26.2087C137.099 24.4566 135.246 23.6665 132.897 24.01C131.209 24.2505 129.82 25.6934 129.456 27.5485C129.323 28.2012 129.555 28.4417 130.184 28.4417C131.408 28.4073 132.632 28.4417 133.857 28.4417Z" fill="#FFF3E0"/>
<path d="M69.1992 30.8463C69.1992 29.1973 69.4639 27.617 70.3242 26.1742C72.0118 23.4258 76.2141 23.4259 77.8023 26.7582C79.1259 29.5409 79.1259 32.4609 77.8023 35.3123C77.1406 36.7552 75.1883 37.7858 73.6331 37.614C71.8463 37.4423 70.1919 35.9994 69.6956 34.1786C69.5301 33.629 69.4308 33.045 69.3316 32.4609C69.2323 31.9456 69.2323 31.396 69.1992 30.8463Z" fill="#1A130D"/>
<path d="M118.403 30.9487C118.039 32.2542 117.841 33.7658 117.212 35.0712C116.385 36.8233 114.83 37.6134 112.91 37.3729C111.024 37.1324 109.8 35.9644 109.171 34.1093C108.377 31.7389 108.41 29.4028 109.271 27.0667C109.899 25.2803 111.587 24.1123 113.506 24.1123C115.293 24.1123 116.914 25.2803 117.477 27.1011C117.874 28.2691 118.072 29.5059 118.403 30.9487Z" fill="#1A130D"/>
<path d="M58.3805 33.1822C58.3805 33.4914 58.3805 33.835 58.3805 34.1441C58.2812 35.7588 57.7849 37.1329 56.1635 37.7513C54.4429 38.404 52.6892 38.7132 51.0348 37.5452C49.7774 36.652 49.9428 34.3159 51.3656 33.6288C52.6561 33.0105 54.0459 32.5982 55.4025 32.1516C55.965 31.9455 56.5606 31.8424 57.1231 31.6363C58.1158 31.2584 58.2812 31.3615 58.3143 32.4264C58.3143 32.7013 58.3143 32.9418 58.3143 33.2166C58.3474 33.1822 58.3474 33.1822 58.3805 33.1822Z" fill="#1A130D"/>
<path d="M97.7553 33.2162C97.8876 36.9951 94.8765 39.2281 91.336 37.957C90.4095 37.6135 89.7478 36.9608 89.6154 35.9645C89.45 34.9682 89.9132 34.075 90.7073 33.6628C92.1302 32.9757 93.6853 32.4948 95.1743 31.9451C95.6707 31.7733 96.2001 31.6359 96.6964 31.4641C97.5567 31.155 97.7553 31.258 97.7553 32.2199C97.7553 32.5635 97.7553 32.8726 97.7553 33.2162Z" fill="#1A130D"/>
<path d="M133.857 28.441C132.632 28.441 131.408 28.441 130.184 28.441C129.555 28.441 129.323 28.2005 129.456 27.5478C129.82 25.727 131.243 24.2842 132.897 24.0093C135.246 23.6658 137.099 24.4559 137.993 26.208C138.092 26.4141 138.191 26.6202 138.224 26.8264C138.555 28.2005 138.423 28.4067 137.033 28.4067C136.504 28.4067 135.974 28.4067 135.445 28.4067C134.916 28.4067 134.386 28.4067 133.857 28.441C133.857 28.4067 133.857 28.4067 133.857 28.441Z" fill="#1A130D"/>
</svg>
