<svg width="200" height="60" viewBox="0 0 200 60" fill="none" xmlns="http://www.w3.org/2000/svg">
<path d="M0 60.6186C0 40.4536 0 20.1649 0 0C66.832 0 133.664 0 200.496 0C200.496 20.1649 200.496 40.4536 200.496 60.6186C133.664 60.6186 66.832 60.6186 0 60.6186ZM47.7371 26.3505C47.8611 26.2268 47.9851 26.1031 48.1091 25.8557C47.8611 25.6082 47.7371 25.2371 47.4891 24.9897C44.8853 22.8866 39.4296 23.0103 37.3218 26.7216C35.2139 30.3093 34.7179 33.5258 38.3137 37.2371C40.4216 39.4639 44.2653 40.2062 47.8611 38.2268C49.101 37.4845 49.597 36.4948 49.349 35.134C49.225 34.268 49.349 33.2784 48.2331 33.0309C46.8692 32.7835 45.3813 32.4124 44.1413 33.5258C44.6373 33.8969 45.1333 34.0206 45.6293 34.0206C46.7452 33.8969 47.9851 34.1443 47.9851 35.3814C47.9851 36.1237 46.9932 37.2371 46.1252 37.6082C43.5214 38.7216 40.1736 37.732 38.5617 35.6289C36.9498 33.5258 36.5778 29.6907 38.9337 26.9691C40.4216 25.1134 43.0254 24.4948 46.0012 25.4845C46.3732 25.8557 47.1172 26.1031 47.7371 26.3505ZM27.8983 38.3505C27.5263 37.6082 27.1544 36.866 26.9064 36.2474C25.4185 32.7835 23.9306 29.1959 22.4427 25.732C22.3187 25.3608 21.8227 24.9897 21.3267 24.866C21.0787 24.866 20.5828 25.3608 20.4588 25.732C18.7229 29.567 16.987 33.5258 15.3751 37.4845C15.2511 37.8557 15.3751 38.4742 15.3751 38.9691C15.7471 38.7216 16.367 38.4742 16.615 38.1031C17.235 36.7423 18.3509 36.4948 19.7148 36.4948C20.7068 36.6186 21.8227 36.7423 22.8146 36.6186C24.4265 36.4948 25.7905 36.4948 26.2864 38.4742C26.4104 38.7216 26.9064 39.0928 27.1544 39.0928C27.5263 39.0928 27.7743 38.5979 27.8983 38.3505ZM188.965 38.1031C188.717 37.6082 188.469 37.2371 188.345 36.7423C186.857 33.2784 185.493 29.6907 184.005 26.2268C183.881 25.732 183.509 25.3608 183.261 24.9897C182.889 25.3608 182.269 25.732 182.021 26.2268C180.409 29.9381 178.797 33.7732 177.309 37.4845C177.185 37.8557 177.433 38.3505 177.433 38.8454C177.805 38.5979 178.425 38.4742 178.549 38.1031C179.045 36.6186 180.285 36.4948 181.525 36.6186C182.393 36.6186 183.137 36.866 184.005 36.7423C185.617 36.4948 186.733 36.7423 187.229 38.4742C187.353 38.7216 187.849 39.0928 188.097 39.0928C188.469 38.9691 188.717 38.4742 188.965 38.1031ZM80.3472 30.1856C80.4712 30.1856 80.4712 30.1856 80.5952 30.1856C80.5952 29.1959 80.5952 28.2062 80.5952 27.2165C80.7191 25.9794 81.2151 25.2371 82.579 25.4845C83.075 25.6082 83.447 25.4845 83.943 25.6082C85.6788 25.8557 87.2908 27.5876 87.2908 29.4433C87.4147 31.9175 86.2988 33.6495 84.1909 34.1443C83.447 34.268 82.827 34.7629 82.2071 35.134C82.951 35.134 83.695 35.3814 84.4389 35.2577C86.5468 34.8866 87.9107 33.6495 88.5307 31.6701C89.2746 29.567 88.6547 27.5876 87.0428 26.1031C85.1829 24.4948 82.827 24.2474 80.4712 24.4948C79.1072 24.6186 78.6113 25.3608 78.7353 26.7216C78.8593 27.5876 78.8593 28.5773 78.8593 29.4433C78.8593 32.2887 78.7353 35.0103 78.7353 37.8557C78.7353 38.2268 79.1072 38.5979 79.3552 38.9691C79.3552 38.9691 79.9752 38.8454 80.0992 38.5979C80.4712 37.2371 80.9671 35.8763 80.9671 34.6392C80.9671 33.1546 80.5952 31.6701 80.3472 30.1856ZM106.138 25.2371C106.138 24.9897 106.138 24.6186 106.138 24.3711C104.03 24.3711 102.046 24.2474 99.938 24.3711C98.0781 24.4948 97.7061 24.9897 97.7061 26.8454C97.7061 28.9485 97.8301 31.0515 97.8301 33.1546C97.8301 34.6392 97.7061 36 97.8301 37.4845C97.8301 38.8454 98.3261 39.5876 99.938 39.4639C101.798 39.3402 103.782 39.5876 105.642 39.4639C106.138 39.4639 106.51 39.0928 107.006 38.8454C106.51 38.5979 106.138 38.2268 105.642 38.1031C104.154 37.9794 102.666 37.9794 101.178 38.1031C99.938 38.2268 99.194 37.732 99.0701 36.4948C98.9461 35.134 99.69 34.3918 101.178 34.268C102.17 34.268 103.286 34.268 104.278 34.268C104.774 34.268 105.27 34.0206 105.766 33.8969C105.766 33.7732 105.766 33.5258 105.766 33.4021C104.898 33.2784 104.03 33.0309 103.162 33.1546C98.8221 33.6495 99.194 32.2887 99.194 29.1959C99.194 24.866 100.186 25.3608 103.286 25.3608C104.278 25.3608 105.146 25.3608 106.138 25.2371ZM69.0639 39.3402C69.1878 39.2165 69.3118 39.0928 69.4358 38.9691C69.4358 38.4742 69.6838 37.8557 69.4358 37.4845C67.8239 33.5258 66.212 29.567 64.6001 25.732C64.4761 25.3608 63.9802 25.1134 63.6082 24.7423C63.3602 25.1134 62.9882 25.4845 62.7402 25.8557C62.3683 26.5979 62.2443 27.4639 61.9963 28.2062C60.5084 31.5464 59.1444 34.7629 57.6565 38.1031C57.5325 38.3505 57.7805 38.7216 57.7805 39.0928C57.9045 39.2165 58.0285 39.3402 58.1525 39.4639C59.2684 36.9897 60.7564 36.2474 63.4842 36.4948C65.84 36.866 68.1959 36.2474 69.0639 39.3402ZM149.907 38.8454C150.155 38.7216 150.279 38.7216 150.527 38.5979C150.403 38.1031 150.279 37.4845 150.155 36.9897C149.535 35.3814 148.667 33.8969 148.047 32.2887C147.179 30.0619 146.435 27.8351 145.443 25.732C145.319 25.3608 144.947 25.1134 144.699 24.866C144.451 25.1134 143.955 25.4845 143.831 25.732C143.459 26.4742 143.335 27.3402 142.963 28.2062C141.6 31.5464 140.112 34.8866 138.748 38.2268C138.624 38.3505 138.872 38.7216 138.872 38.8454C139.12 39.0928 139.368 39.2165 139.616 39.4639C139.864 38.9691 139.988 38.2268 140.484 37.8557C140.98 37.2371 141.723 36.4948 142.343 36.4948C143.955 36.3711 145.567 36.6186 147.179 36.7423C148.171 36.866 148.915 37.2371 149.287 38.2268C149.287 38.4742 149.659 38.5979 149.907 38.8454ZM166.646 26.2268C166.646 25.732 166.646 25.6082 166.646 25.4845C165.654 24.1237 163.794 23.5052 161.934 24.1237C160.446 24.6186 159.454 25.6082 159.206 27.2165C158.958 28.4536 160.074 29.9381 161.562 30.8041C162.802 31.5464 164.166 32.0412 165.282 33.0309C166.026 33.6495 166.77 34.8866 166.77 35.7526C166.77 36.9897 165.778 37.732 164.414 37.9794C162.802 38.2268 161.438 37.9794 160.322 36.7423C160.074 36.4948 159.33 36.6186 158.834 36.6186C158.958 36.9897 159.082 37.6082 159.33 37.8557C159.702 38.3505 160.322 38.5979 160.818 38.9691C163.174 40.2062 166.522 39.4639 167.762 37.2371C168.754 35.3814 167.886 33.1546 165.406 31.5464C164.538 31.0515 163.546 30.5567 162.678 30.1856C160.198 28.9485 159.702 27.0928 161.438 25.732C162.43 24.866 163.546 24.9897 164.662 25.6082C165.406 25.732 166.026 25.9794 166.646 26.2268ZM128.58 36.7423C128.456 36.6186 128.332 36.4948 128.208 36.3711C126.72 36.9897 125.232 37.8557 123.621 37.9794C121.885 38.2268 120.025 37.6082 119.033 36C118.165 34.6392 117.421 33.0309 117.297 31.4227C117.173 29.4433 117.917 27.5876 119.529 26.2268C122.257 23.8763 125.108 24.6186 127.96 26.3505C127.836 25.732 127.836 25.2371 127.588 25.1134C126.1 24.1237 124.489 23.3814 122.505 23.5052C117.917 23.8763 114.569 29.9381 116.181 34.268C118.165 39.2165 123.497 40.0825 127.34 37.9794C127.836 37.8557 128.208 37.2371 128.58 36.7423Z" fill="#1A130D"/>
<path d="M47.7371 26.3509C47.1171 26.1035 46.4972 25.8561 45.7532 25.6087C42.7774 24.619 40.1735 25.2375 38.6856 27.0932C36.4538 29.9386 36.7018 33.6499 38.3137 35.753C39.9256 37.8561 43.2734 38.8458 45.8772 37.7324C46.7451 37.3613 47.7371 36.2479 47.7371 35.5056C47.7371 34.3922 46.4972 34.1448 45.3812 34.1448C44.8853 34.1448 44.3893 34.021 43.8933 33.6499C45.1332 32.5365 46.6212 32.9076 47.9851 33.1551C49.225 33.4025 48.977 34.3922 49.101 35.2582C49.349 36.619 48.853 37.6087 47.6131 38.3509C44.0173 40.3303 40.1735 39.5881 38.0657 37.3613C34.4699 33.6499 34.9659 30.4334 37.0737 26.8458C39.3056 23.1345 44.6373 23.0107 47.2411 25.1138C47.4891 25.3613 47.6131 25.7324 47.8611 25.9798C47.9851 26.1035 47.8611 26.2272 47.7371 26.3509Z" fill="#FFF3E0"/>
<path d="M27.8981 38.3502C27.6501 38.5977 27.4021 39.0925 27.1542 39.0925C26.9062 39.0925 26.2862 38.7214 26.2862 38.4739C25.7902 36.4946 24.4263 36.4946 22.8144 36.6183C21.8225 36.742 20.7065 36.6183 19.7146 36.4946C18.3507 36.3709 17.3587 36.742 16.6148 38.1028C16.3668 38.4739 15.8708 38.7214 15.3749 38.9688C15.3749 38.4739 15.1269 37.8554 15.3749 37.4843C16.9868 33.5255 18.7227 29.6904 20.4586 25.7317C20.5826 25.3605 21.0785 24.742 21.3265 24.8657C21.6985 24.9894 22.1945 25.3605 22.4424 25.7317C23.9304 29.1956 25.4183 32.7832 26.9062 36.2471C27.1542 36.8657 27.5261 37.4843 27.8981 38.3502ZM22.1945 35.2575C24.7983 35.2575 24.9223 35.1337 24.0543 33.0306C23.5584 31.7935 23.0624 30.4327 22.5664 29.1956C22.3184 28.8245 21.9465 28.4533 21.5745 28.4533C21.2025 28.4533 20.7065 28.8245 20.5826 29.0719C19.9626 30.4327 19.3426 31.9172 18.7227 33.2781C18.2267 34.6389 18.8467 35.5049 20.3346 35.5049C21.0785 35.5049 21.8225 35.3812 22.1945 35.2575Z" fill="#FFF3E0"/>
<path d="M188.965 38.1033C188.717 38.4745 188.469 38.9693 188.221 38.9693C187.973 38.9693 187.353 38.5982 187.353 38.3507C186.857 36.6188 185.741 36.3714 184.129 36.6188C183.385 36.7425 182.517 36.4951 181.649 36.4951C180.409 36.4951 179.169 36.4951 178.673 37.9796C178.549 38.3507 177.929 38.4745 177.557 38.7219C177.433 38.227 177.185 37.7322 177.433 37.3611C178.921 33.526 180.533 29.8147 182.145 26.1033C182.393 25.6085 183.013 25.3611 183.385 24.8662C183.633 25.2373 183.881 25.7322 184.129 26.1033C185.617 29.5672 186.981 33.1549 188.469 36.6188C188.469 37.2373 188.717 37.6085 188.965 38.1033ZM182.641 35.3817C183.137 35.3817 183.385 35.3817 183.757 35.3817C185.741 35.3817 185.989 34.8868 185.245 33.0312C184.749 31.794 184.253 30.5569 183.757 29.3198C183.633 28.9487 183.385 28.7013 183.261 28.3301C182.889 28.5776 182.393 28.7013 182.145 28.9487C181.649 29.8147 181.277 30.9281 180.781 31.794C179.417 34.7631 179.665 35.6291 182.641 35.3817Z" fill="#FFF3E0"/>
<path d="M80.3471 30.1853C80.595 31.6698 80.967 33.1544 80.967 34.6389C80.967 35.9997 80.471 37.3606 80.0991 38.5977C80.0991 38.7214 79.4791 38.9688 79.3551 38.9688C79.1071 38.5977 78.7352 38.2265 78.7352 37.8554C78.7352 35.01 78.8591 32.2884 78.8591 29.443C78.8591 28.577 78.8591 27.5874 78.7352 26.7214C78.6112 25.3606 79.1071 24.6183 80.4711 24.4946C82.8269 24.3709 85.1828 24.4946 87.0427 26.1028C88.7785 27.5874 89.2745 29.5667 88.5306 31.6698C87.9106 33.6492 86.5467 34.8863 84.4388 35.2575C83.6949 35.3812 82.9509 35.2575 82.207 35.1337C82.8269 34.7626 83.4469 34.3915 84.1908 34.1441C86.2987 33.6492 87.4146 31.9173 87.2906 29.443C87.1667 27.5874 85.6787 25.8554 83.9428 25.608C83.4469 25.4843 82.9509 25.608 82.5789 25.4843C81.215 25.2368 80.719 25.9791 80.595 27.2162C80.4711 28.2059 80.595 29.1956 80.595 30.1853C80.4711 30.1853 80.4711 30.1853 80.3471 30.1853Z" fill="#FFF3E0"/>
<path d="M106.138 25.2374C105.27 25.2374 104.278 25.3611 103.41 25.3611C100.186 25.3611 99.194 24.9899 99.318 29.1961C99.318 32.2889 98.946 33.6497 103.286 33.1549C104.154 33.0312 105.022 33.2786 105.89 33.4023C105.89 33.526 105.89 33.7734 105.89 33.8972C105.394 34.0209 104.898 34.1446 104.402 34.2683C103.41 34.2683 102.294 34.2683 101.302 34.2683C99.814 34.2683 99.07 35.0106 99.194 36.4951C99.318 37.7322 100.062 38.2271 101.302 38.1033C102.79 37.9796 104.278 37.9796 105.766 38.1033C106.262 38.1033 106.634 38.5982 107.13 38.8456C106.634 39.093 106.262 39.4642 105.766 39.4642C103.906 39.4642 101.922 39.3405 100.062 39.4642C98.45 39.5879 97.9541 38.8456 97.9541 37.4848C97.9541 36.0003 97.9541 34.6394 97.9541 33.1549C97.9541 31.0518 97.8301 28.9487 97.8301 26.8456C97.8301 24.9899 98.2021 24.4951 100.062 24.3714C102.17 24.2477 104.154 24.3714 106.262 24.3714C106.138 24.7425 106.138 24.9899 106.138 25.2374Z" fill="#FFF3E0"/>
<path d="M69.0636 39.3404C68.1957 36.2477 65.8398 36.8662 63.608 36.6188C61.0041 36.2477 59.3922 37.1136 58.2763 39.5879C58.1523 39.4641 58.0283 39.3404 57.9043 39.2167C57.9043 38.8456 57.6563 38.4745 57.7803 38.227C59.1442 34.8868 60.6322 31.5466 62.1201 28.3301C62.492 27.5879 62.616 26.7219 62.864 25.9796C62.988 25.6085 63.36 25.2373 63.732 24.8662C64.1039 25.2373 64.5999 25.4848 64.7239 25.8559C66.3358 29.8147 67.9477 33.6497 69.5596 37.6085C69.6836 37.9796 69.5596 38.5982 69.5596 39.093C69.3116 39.093 69.1876 39.2167 69.0636 39.3404ZM63.36 35.5054C63.856 35.5054 64.1039 35.5054 64.3519 35.5054C66.5838 35.6291 67.0798 34.6394 66.2118 32.66C65.7159 31.5466 65.3439 30.3095 64.8479 29.0724C64.7239 28.7013 64.2279 28.2064 63.856 28.2064C63.484 28.2064 62.864 28.5775 62.74 28.9487C62.1201 30.5569 61.5001 32.0415 61.0041 33.6497C60.6322 34.8868 61.2521 35.5054 62.492 35.5054C62.864 35.6291 63.236 35.5054 63.36 35.5054Z" fill="#FFF3E0"/>
<path d="M149.907 38.8453C149.659 38.5979 149.287 38.4741 149.163 38.103C148.791 36.9896 148.047 36.7422 147.055 36.6185C145.443 36.4948 143.831 36.2473 142.219 36.3711C141.599 36.3711 140.855 37.237 140.36 37.7319C139.988 38.103 139.864 38.8453 139.492 39.3401C139.244 39.0927 138.996 38.969 138.748 38.7216C138.624 38.4741 138.5 38.2267 138.624 38.103C139.988 34.7628 141.475 31.4226 142.839 28.0824C143.211 27.3401 143.335 26.3504 143.707 25.6082C143.831 25.237 144.327 24.9896 144.575 24.7422C144.823 24.9896 145.195 25.237 145.319 25.6082C146.187 27.835 146.931 30.0618 147.923 32.1649C148.543 33.7731 149.411 35.3814 150.031 36.8659C150.279 37.3607 150.279 37.9793 150.403 38.4741C150.279 38.7216 150.155 38.8453 149.907 38.8453ZM145.939 35.5051C147.179 35.8762 147.923 34.8865 147.551 33.6494C146.931 31.9174 146.187 30.3092 145.443 28.701C145.071 27.835 144.327 27.835 143.955 28.5772C143.087 30.3092 142.343 32.1649 141.723 34.1442C141.475 35.0102 141.847 35.7525 142.963 35.7525C143.955 35.6288 144.947 35.5051 145.939 35.5051Z" fill="#FFF3E0"/>
<path d="M166.646 26.2272C165.902 25.9798 165.406 25.8561 164.91 25.6087C163.794 25.1138 162.678 24.9901 161.686 25.7324C159.95 27.0932 160.446 29.0726 162.926 30.186C163.794 30.6808 164.786 31.052 165.654 31.5468C168.134 33.0313 169.002 35.3819 168.01 37.2375C166.77 39.4643 163.422 40.3303 161.066 38.9695C160.57 38.7221 159.95 38.3509 159.578 37.8561C159.33 37.6087 159.207 36.9901 159.083 36.619C159.578 36.619 160.322 36.4953 160.57 36.7427C161.686 37.9798 163.05 38.2272 164.662 37.9798C166.026 37.7324 167.018 36.9901 167.018 35.753C167.018 34.7633 166.274 33.6499 165.53 33.0313C164.414 32.0417 163.05 31.5468 161.81 30.8045C160.198 29.9386 159.207 28.454 159.455 27.2169C159.702 25.7324 160.694 24.619 162.182 24.1241C164.042 23.5056 165.902 24.1241 166.894 25.485C166.77 25.485 166.646 25.6087 166.646 26.2272Z" fill="#FFF3E0"/>
<path d="M128.58 36.7423C128.208 37.2371 127.836 37.8557 127.34 38.1031C123.621 40.2062 118.165 39.2165 116.181 34.3918C114.445 30.1856 117.917 24 122.505 23.6289C124.489 23.5052 125.977 24.1237 127.588 25.2371C127.836 25.3608 127.96 25.8557 127.96 26.4743C125.109 24.7423 122.257 24 119.529 26.3505C117.917 27.7114 117.173 29.567 117.297 31.5464C117.421 33.1547 118.165 34.7629 119.033 36.1237C120.025 37.732 121.885 38.2268 123.621 38.1031C125.233 37.9794 126.721 36.9897 128.208 36.4949C128.332 36.4949 128.456 36.6186 128.58 36.7423Z" fill="#FFF3E0"/>
<path d="M22.1946 35.2572C21.8227 35.2572 21.0787 35.5047 20.3347 35.5047C18.8468 35.5047 18.2269 34.6387 18.7228 33.2779C19.2188 31.7933 19.8388 30.4325 20.5827 29.0717C20.7067 28.7005 21.3267 28.4531 21.5747 28.4531C21.9466 28.4531 22.3186 28.948 22.4426 29.3191C23.0626 30.5562 23.4346 31.917 23.9305 33.1542C24.9225 35.1335 24.9225 35.381 22.1946 35.2572Z" fill="#1A130D"/>
<path d="M182.641 35.381C179.665 35.7521 179.293 34.7624 180.781 31.917C181.277 30.9274 181.649 29.9377 182.145 29.0717C182.393 28.7005 182.889 28.5768 183.261 28.4531C183.385 28.8243 183.633 29.0717 183.757 29.4428C184.253 30.6799 184.749 31.917 185.245 33.1542C185.989 35.0098 185.617 35.5047 183.757 35.5047C183.509 35.381 183.137 35.381 182.641 35.381Z" fill="#1A130D"/>
<path d="M63.36 35.5053C63.236 35.5053 62.74 35.629 62.3681 35.629C61.1281 35.629 60.5082 34.8868 60.8802 33.7734C61.3761 32.1651 61.9961 30.5569 62.6161 29.0723C62.74 28.7012 63.36 28.3301 63.732 28.3301C64.104 28.3301 64.4759 28.8249 64.7239 29.1961C65.2199 30.3095 65.5919 31.5466 66.0878 32.7837C66.9558 34.7631 66.4598 35.7528 64.228 35.629C64.104 35.5053 63.856 35.5053 63.36 35.5053Z" fill="#1A130D"/>
<path d="M145.939 35.5047C144.947 35.6284 143.955 35.6284 142.963 35.7521C141.847 35.7521 141.475 35.0099 141.723 34.1439C142.343 32.2882 143.087 30.4326 143.955 28.5769C144.327 27.8346 145.071 27.7109 145.443 28.7006C146.187 30.3088 146.807 32.0408 147.551 33.6491C147.923 34.7625 147.179 35.8759 145.939 35.5047Z" fill="#1A130D"/>
</svg>
