<svg width="99" height="60" viewBox="0 0 99 60" fill="none" xmlns="http://www.w3.org/2000/svg">
<g clip-path="url(#clip0_608_4277)">
<path d="M0 60C0 39.9643 0 20.0357 0 0C33.1068 0 66.2136 0 99.3204 0C99.3204 20.0357 99.3204 39.9643 99.3204 60C66.2136 60 33.1068 60 0 60ZM33.1068 25.2857C33 24.6429 33.1068 24 33 23.25C32.7864 20.8929 31.2913 19.1786 29.4757 18.8571C25.0971 18.1071 23.7087 21.1071 23.6019 24.4286C23.6019 24.75 24.0291 25.0714 24.2427 25.3929C24.5631 25.1786 24.9903 24.9643 25.2039 24.6429C25.4175 24.2143 25.3107 23.6786 25.3107 23.25C25.6311 20.8929 27.9806 19.5 29.7961 20.5714C31.6117 21.6429 32.3592 26.0357 30.9709 27.5357C29.9029 28.6071 28.7282 29.6786 27.3398 30.4286C23.8155 32.4643 22.534 34.6071 22.8544 38.6786C23.2816 43.0714 26.8058 44.7857 30.4369 42.3214C31.0777 41.8929 31.3981 41.8929 31.932 42.4286C32.1456 42.6429 32.7864 42.8571 32.8932 42.75C33.2136 42.5357 33.3204 42 33.3204 41.6786C33.3204 41.25 33.1068 40.8214 33.1068 40.3929C33.1068 35.25 33.1068 30.2143 33.1068 25.2857ZM64.7184 30.9643C64.6116 33.3214 64.6116 35.6786 64.7184 38.0357C64.7184 40.9286 67.1748 43.6071 69.7379 43.5C72.9418 43.2857 75.0777 41.7857 75.1845 38.1429C75.2913 33.9643 75.2913 29.6786 75.2913 25.5C75.2913 24.4286 75.2913 23.25 74.8641 22.3929C74.3301 21.2143 73.4757 19.8214 72.301 19.3929C68.5631 17.7857 65.0388 19.7143 64.8252 24C64.6117 26.25 64.7184 28.6071 64.7184 30.9643ZM49.8738 30.8571C49.8738 33.2143 49.6602 35.5714 49.8738 37.9286C49.9806 39.2143 50.4078 40.6071 51.1553 41.5714C52.3301 43.1786 54.2524 43.8214 56.1748 43.1786C58.0971 42.5357 59.4854 41.1429 59.699 39C59.8058 38.1429 60.4466 36.8571 59.0583 36.6429C57.8835 36.5357 58.2039 37.9286 58.0971 38.7857C57.7767 40.7143 56.2816 41.8929 54.3592 41.6786C52.7573 41.4643 51.5825 40.1786 51.5825 38.0357C51.4757 33.75 51.4757 29.4643 51.4757 25.0714C51.4757 24.1071 51.7961 23.0357 52.1165 22.0714C52.5437 20.7857 54.2524 19.9286 55.4272 20.1429C56.6019 20.3571 57.9903 21.8571 58.0971 23.1429C58.0971 23.5714 58.2039 24.1071 58.4175 24.5357C58.5243 24.75 58.9515 25.0714 59.2718 24.9643C59.4854 24.9643 59.8058 24.5357 59.9126 24.2143C60.3398 22.7143 58.8447 19.9286 57.4563 19.1786C53.7184 17.3571 50.1942 19.3929 49.9806 23.4643C49.767 26.1429 49.8738 28.5 49.8738 30.8571ZM40.6893 21.6429C40.5825 21.4286 40.4757 21.3214 40.3689 21.2143C40.0485 20.6786 39.835 20.0357 39.5146 19.5C39.301 20.1429 38.8738 20.7857 38.8738 21.4286C38.8738 27.8571 38.8738 34.3929 38.8738 40.8214C38.8738 41.5714 38.5534 42.75 39.6214 42.75C40.6893 42.75 40.3689 41.5714 40.3689 40.8214C40.3689 36 40.3689 31.1786 40.4757 26.3571C40.5825 23.5714 41.6505 21.3214 44.7476 20.7857C45.068 20.6786 45.2816 20.25 45.6019 19.9286C45.2816 19.6071 44.8544 19.0714 44.534 19.1786C43.7864 19.3929 42.932 19.7143 42.2913 20.1429C41.7573 20.4643 41.2233 21.1071 40.6893 21.6429Z" fill="#1A130D"/>
<path d="M33.1065 25.2857C33.1065 30.3214 33.1065 35.25 33.1065 40.2857C33.1065 40.7143 33.3201 41.1428 33.3201 41.5714C33.3201 42 33.1065 42.4285 32.8929 42.6428C32.7861 42.75 32.1453 42.5357 31.9317 42.3214C31.3978 41.7857 31.0774 41.7857 30.4366 42.2143C26.8055 44.6786 23.1745 42.9643 22.8541 38.5714C22.5337 34.5 23.7084 32.3571 27.3395 30.3214C28.6211 29.5714 29.9026 28.6071 30.9706 27.4285C32.4657 25.9285 31.6114 21.5357 29.7958 20.4643C27.9803 19.3928 25.7376 20.7857 25.3104 23.1428C25.2036 23.6785 25.3104 24.2143 25.2036 24.5357C25.0968 24.8571 24.5628 25.0714 24.2424 25.2857C24.0288 24.9643 23.6017 24.6428 23.6017 24.3214C23.8152 21 25.0968 18 29.4754 18.75C31.3978 19.0714 32.7861 20.7857 32.9997 23.1428C33.1065 23.8928 32.9997 24.5357 33.1065 25.2857ZM24.3492 37.2857C24.456 37.7143 24.456 38.1428 24.5628 38.5714C24.6696 39 24.7764 39.5357 24.8832 39.9643C25.3104 41.0357 26.5919 42 27.6599 41.7857C29.2618 41.4643 31.3978 40.1786 31.3978 37.9286C31.3978 35.5714 31.5046 33.2143 31.6114 30.75C31.6114 30 31.291 29.4643 30.4366 30C28.9415 30.9643 27.4463 32.0357 26.058 33.1071C24.7764 34.1785 24.5628 35.6785 24.3492 37.2857Z" fill="#FFF3E0"/>
<path d="M64.7181 30.9638C64.7181 28.6067 64.6113 26.2495 64.7181 23.8924C64.9317 19.6067 68.456 17.6781 72.1939 19.2852C73.2618 19.7138 74.1162 21.1067 74.757 22.2852C75.1841 23.1424 75.1841 24.3209 75.1841 25.3924C75.1841 29.5709 75.2909 33.8567 75.0774 38.0352C74.9706 41.5709 72.8346 43.1781 69.6307 43.3924C67.0676 43.6067 64.7181 40.8209 64.6113 37.9281C64.7181 35.6781 64.7181 33.3209 64.7181 30.9638ZM66.3201 31.1781C66.2133 33.4281 66.2133 35.5709 66.2133 37.8209C66.2133 40.3924 68.99 42.9638 71.7667 41.1424C72.9414 40.3924 73.3686 39.3209 73.4754 38.0352C73.5822 33.7495 73.5822 29.4638 73.4754 25.0709C73.4754 24.3209 73.3686 23.6781 73.155 22.9281C72.8346 21.5352 71.3395 20.1424 70.2715 20.1424C68.2424 20.1424 66.4269 21.6424 66.3201 23.7852C66.3201 26.2495 66.3201 28.7138 66.3201 31.1781Z" fill="#FFF3E0"/>
<path d="M49.8737 30.8573C49.8737 28.5001 49.7669 26.0359 49.8737 23.6787C50.0873 19.6073 53.6116 17.5716 57.3494 19.393C58.7378 20.143 60.1261 22.9287 59.8057 24.4287C59.6989 24.7501 59.3785 25.0716 59.165 25.1787C58.9514 25.1787 58.4174 24.9644 58.3106 24.7501C58.097 24.3216 58.097 23.7859 57.9902 23.3573C57.8834 22.0716 56.495 20.5716 55.3203 20.3573C54.1455 20.143 52.4368 21.0001 52.0096 22.2859C51.6892 23.2501 51.3688 24.2144 51.3688 25.2859C51.3688 29.5716 51.3688 33.8573 51.4756 38.2501C51.4756 40.393 52.6504 41.6787 54.2523 41.893C56.1747 42.1073 57.7766 40.9287 57.9902 39.0002C58.097 38.143 57.7766 36.7502 58.9514 36.8573C60.2329 36.9644 59.5921 38.3573 59.5921 39.2144C59.3785 41.3573 57.9902 42.8573 56.0679 43.393C54.1455 44.0359 52.2232 43.393 51.0484 41.7859C50.3009 40.7144 49.8737 39.3216 49.7669 38.143C49.6601 35.5716 49.7669 33.2144 49.8737 30.8573Z" fill="#FFF3E0"/>
<path d="M40.6893 21.643C41.3301 21.1072 41.7573 20.4644 42.3981 20.0358C43.0389 19.6072 43.8932 19.2858 44.6408 19.0715C44.9612 18.9644 45.3884 19.6072 45.7088 19.8215C45.3884 20.1429 45.1748 20.6787 44.8544 20.6787C41.7573 21.3215 40.6893 23.5715 40.5825 26.2501C40.369 31.0715 40.4757 35.893 40.4757 40.7144C40.4757 41.4644 40.7961 42.6429 39.7282 42.6429C38.6602 42.6429 38.9806 41.4644 38.9806 40.7144C38.9806 34.2858 38.9806 27.7501 38.9806 21.3215C38.9806 20.6787 39.4078 20.0358 39.6214 19.3929C39.9418 19.9287 40.1554 20.5715 40.4757 21.1072C40.369 21.3215 40.4757 21.4287 40.6893 21.643Z" fill="#FFF3E0"/>
<path d="M24.3496 37.2857C24.5632 35.6786 24.7768 34.1786 26.1651 33.1072C27.6603 32.0357 29.0486 30.9643 30.5438 30C31.3982 29.4643 31.7185 30 31.7185 30.75C31.7185 33.1072 31.6117 35.4643 31.505 37.9286C31.505 40.2857 29.369 41.5715 27.7671 41.7857C26.6991 42 25.4176 41.1429 24.9904 39.9643C24.7768 39.5357 24.7768 39 24.67 38.5715C24.4564 38.1429 24.4564 37.7143 24.3496 37.2857Z" fill="#1A130D"/>
<path d="M66.3207 31.1786C66.3207 28.7143 66.2139 26.25 66.3207 23.8929C66.4275 21.8571 68.1362 20.25 70.2721 20.25C71.3401 20.25 72.8352 21.6429 73.1556 23.0357C73.3692 23.6786 73.476 24.4286 73.476 25.1786C73.476 29.4643 73.476 33.75 73.476 38.1429C73.476 39.4286 73.0488 40.5 71.7673 41.25C68.9906 43.0714 66.2139 40.5 66.2139 37.9286C66.3207 35.5714 66.3207 33.3214 66.3207 31.1786Z" fill="#1A130D"/>
</g>
<defs>
<clipPath id="clip0_608_4277">
<rect width="99" height="60" fill="white"/>
</clipPath>
</defs>
</svg>
