<svg width="114" height="62" viewBox="0 0 114 62" fill="none" xmlns="http://www.w3.org/2000/svg">
<g clip-path="url(#clip0_608_4184)">
<path d="M0 62C0 41.372 0 20.628 0 0C37.9666 0 75.9332 0 113.9 0C113.9 20.628 113.9 41.372 113.9 62C75.9332 62 37.9666 62 0 62ZM69.522 39.5178C69.6221 40.5607 69.522 41.6037 69.6221 42.6467C69.6221 43.5738 70.0229 44.2692 70.9244 44.1533C71.7258 44.1533 72.4271 43.6897 72.4271 42.6467C72.4271 42.0673 72.3269 41.372 72.3269 40.7925C72.3269 40.4449 72.4271 39.8654 72.6274 39.6336C72.8278 39.5178 73.3287 39.6336 73.6292 39.7495C76.0334 41.372 78.638 40.6766 80.2408 37.8953C81.7434 35.2299 81.7434 32.2168 80.6415 29.3196C79.3392 25.843 76.4341 24.8 73.4288 26.6542C73.1283 27.0019 72.5272 26.7701 72.1265 26.6542C71.5255 26.5383 70.8242 26.0748 70.3234 26.3065C69.9227 26.5383 69.522 27.4654 69.522 28.0449C69.4218 31.8692 69.522 35.6935 69.522 39.5178ZM62.9104 34.071C64.0123 34.071 65.1142 34.071 66.3163 34.1869C67.0176 34.1869 67.5185 33.8393 67.6186 33.028C67.819 30.7103 66.0158 27.3495 64.1125 26.4224C61.2074 25.0318 58.2021 26.1907 56.5993 29.0878C54.7961 32.4486 55.6977 36.7364 57.7012 38.9383C60.3058 41.7196 63.9121 41.4878 66.5167 38.3589C66.8172 38.0112 66.9174 37.3159 67.1178 36.7364C66.717 36.5047 66.2162 36.157 65.8155 36.157C65.4148 36.157 64.9139 36.5047 64.5132 36.8523C62.8102 38.8224 60.2056 38.4748 59.0035 36.157C58.4025 34.9981 58.8032 34.1869 59.9051 34.071C60.9069 34.071 61.9086 34.071 62.9104 34.071ZM28.7504 25.7271C27.0475 25.4953 25.5448 26.5383 24.4429 28.1607C24.1424 28.6243 24.1424 29.7832 24.4429 30.3626C24.8436 31.0579 25.645 30.8262 26.1459 30.1308C26.4464 29.7832 26.7469 29.4355 26.9473 29.0878C27.8489 27.929 29.4517 27.6972 30.4534 28.7402C30.9543 29.2037 31.1547 30.1308 31.5554 30.8262C30.9543 31.1738 30.3533 31.5215 29.7522 31.7533C28.2496 32.2168 26.7469 32.4486 25.3445 33.1439C23.4411 33.9551 22.9402 36.2729 23.6415 38.3589C24.5431 40.6766 28.3497 41.6037 30.3533 40.329C30.8541 40.0972 31.4552 40.2131 32.0562 40.2131C32.5571 40.2131 33.2584 40.5607 33.5589 40.329C33.9596 39.9813 34.0598 39.1701 34.1599 38.5907C34.2601 36.8523 34.1599 34.9981 34.2601 33.2598C34.761 28.2766 32.6573 25.4953 28.7504 25.7271ZM42.174 40.7925C42.6749 40.6766 43.6766 40.4449 44.5782 39.9813C45.7803 39.4019 47.1828 37.0841 46.9824 35.9252C46.6819 34.1869 45.7803 33.028 44.1775 32.5645C42.775 32.2168 41.4728 31.7533 40.0703 31.2897C39.6696 31.0579 39.0685 30.3626 39.0685 29.8991C39.1687 29.3196 39.7698 28.5084 40.1705 28.3925C41.1722 28.3925 42.2742 28.6243 43.2759 28.8561C43.6766 28.972 43.877 29.6673 44.2777 29.7832C44.8787 29.8991 45.6801 30.1308 46.0808 29.7832C46.6819 29.2037 46.2812 28.3925 45.7803 27.8131C44.2777 26.0748 42.3743 25.3794 40.2707 25.9589C39.1687 26.3065 37.8664 26.7701 37.1652 27.6972C35.4622 29.7832 36.6643 32.9121 39.2689 33.7234C40.5712 34.1869 41.9736 34.5346 43.1757 34.9981C43.5765 35.114 43.877 35.9252 43.877 36.3888C43.877 36.8523 43.4763 37.4318 43.1757 37.6636C41.6731 38.5907 39.8699 38.1271 38.9684 36.5047C38.3673 35.5776 37.1652 35.2299 36.5641 35.8093C35.6626 36.7364 36.3638 37.4318 36.8647 38.1271C38.167 40.0972 39.7698 40.6766 42.174 40.7925ZM49.3866 32.9121C49.2865 33.7234 49.3866 34.5346 49.2865 35.3458C49.2865 38.1271 50.4886 39.9813 52.8928 40.329C53.2935 40.4449 53.8946 39.8654 54.3954 39.6336C54.0949 39.0542 53.9947 38.1271 53.594 37.8953C52.4921 37.3159 52.0914 36.3888 52.0914 35.2299C52.0914 33.6075 52.1916 32.1009 52.0914 30.4785C51.9912 29.0878 52.3919 28.3925 53.594 28.1607C53.9947 28.0449 54.2953 27.4654 54.5958 27.1178C54.1951 26.7701 53.8946 26.1907 53.4939 26.0748C52.4921 25.843 51.9912 25.3794 52.0914 24.1047C52.0914 23.8729 52.1916 23.4093 51.9912 23.2935C51.4903 22.8299 50.8893 22.2505 50.2882 22.2505C49.587 22.2505 49.0861 22.9458 49.2865 23.8729C49.6872 25.1477 49.2865 25.6112 48.2847 25.9589C47.9842 26.0748 47.4833 26.5383 47.4833 26.886C47.4833 27.2336 47.884 27.8131 48.1845 27.929C49.2865 28.2766 49.3866 29.2037 49.3866 30.3626C49.3866 31.2897 49.3866 32.1009 49.3866 32.9121ZM86.7522 22.4822C85.3497 22.2505 84.4482 22.714 83.9473 23.8729C82.7452 26.1907 83.0457 28.5084 84.6485 30.1308C86.1511 31.6374 88.0545 31.7533 89.5571 30.4785C91.0598 29.2037 91.6608 26.886 91.0598 25.2635C90.4587 23.6411 89.3568 22.5981 88.4552 22.8299C88.6555 23.0617 88.8559 23.2935 89.0562 23.6411C89.5571 24.8 90.4587 25.9589 90.3585 27.0019C90.2583 28.1607 89.2566 29.4355 88.355 30.2467C87.9543 30.7103 86.5518 30.5944 86.1511 30.1308C85.3497 29.2037 83.9473 28.5084 84.1476 26.7701C84.1476 26.6542 84.1476 26.5383 84.1476 26.5383C84.1476 24.4523 85.6503 23.757 86.7522 22.4822ZM88.4552 28.6243C88.5554 27.2336 88.8559 26.0748 88.6555 25.0318C88.355 23.4093 86.8524 25.3794 86.2513 24.2206C86.051 24.3364 85.6503 24.5682 85.6503 24.6841C85.5501 25.9589 85.6503 27.1178 85.6503 28.3925C85.7504 28.3925 85.9508 28.3925 86.051 28.3925C86.4517 28.0449 86.7522 27.6972 87.1529 27.2336C87.5536 27.6972 87.8541 28.0449 88.4552 28.6243Z" fill="#1A130D"/>
<path d="M69.5215 39.5176C69.5215 35.6933 69.5215 31.869 69.5215 28.1606C69.5215 27.5812 69.9222 26.5382 70.3229 26.4223C70.8238 26.1905 71.525 26.6541 72.1261 26.77C72.5268 26.8859 73.1278 27.1176 73.4283 27.0018C76.4336 25.1475 79.3387 26.0747 80.641 29.6672C81.6427 32.5644 81.7429 35.4616 80.2403 38.2429C78.7376 41.0242 76.0329 41.6036 73.6287 40.0971C73.3282 39.8653 72.8273 39.7494 72.6269 39.9812C72.4266 40.0971 72.3264 40.6765 72.3264 41.1401C72.3264 41.7195 72.3264 42.4148 72.4266 42.9943C72.4266 44.1532 71.8255 44.5008 70.9239 44.5008C70.0224 44.5008 69.6217 43.9214 69.6217 42.9943C69.5215 41.6036 69.5215 40.5606 69.5215 39.5176ZM78.8378 33.0279C78.4371 31.9849 78.0364 30.5943 77.4354 29.4354C76.5338 27.9289 75.0311 27.9289 73.829 28.9718C72.5268 30.2466 71.8255 33.2597 72.3264 35.1139C72.8273 36.8522 74.1296 38.127 75.532 38.0111C77.0347 38.0111 77.7359 36.7363 78.1366 35.3457C78.4371 34.7662 78.5373 34.0709 78.8378 33.0279Z" fill="#FFF3E0"/>
<path d="M62.9106 34.0711C61.9089 34.0711 60.8069 34.0711 59.8052 34.0711C58.7032 34.0711 58.3025 34.9982 58.9036 36.1571C60.2059 38.4748 62.7103 38.8225 64.4132 36.8524C64.7138 36.5047 65.2146 36.1571 65.7155 36.1571C66.1162 36.1571 66.6171 36.5047 67.0178 36.7365C66.8175 37.3159 66.7173 37.8954 66.4168 38.3589C63.8122 41.4879 60.2059 41.8356 57.6013 38.9384C55.5978 36.7365 54.6962 32.5645 56.4994 29.0879C58.1022 26.1907 61.1074 25.0318 64.0125 26.4225C65.9159 27.2337 67.6189 30.7103 67.5187 33.0281C67.4185 33.9552 66.9176 34.187 66.2164 34.187C65.2146 34.187 64.1127 34.187 62.9106 34.0711ZM61.6083 27.6972C60.6066 28.5085 59.6048 29.0879 58.9036 30.015C58.2023 30.8262 58.7032 31.7533 59.705 31.7533C60.9071 31.7533 62.1092 31.7533 63.3113 31.7533C63.712 31.7533 64.2129 31.5215 64.3131 31.2898C64.4132 30.8262 64.4132 30.1309 64.2129 29.8991C63.5117 29.0879 62.6101 28.5085 61.6083 27.6972Z" fill="#FFF3E0"/>
<path d="M28.75 25.7267C32.6568 25.379 34.6603 28.2762 34.3598 33.0276C34.2596 34.7659 34.3598 36.5042 34.2596 38.3584C34.2596 38.9379 34.0593 39.7491 33.6586 40.0968C33.3581 40.3285 32.6568 39.9809 32.156 39.9809C31.5549 39.9809 30.8537 39.865 30.453 40.0968C28.3493 41.3715 24.6428 40.4444 23.7412 38.1267C22.9398 36.1566 23.4407 33.8388 25.4442 32.9117C26.8466 32.3323 28.4495 32.1005 29.8519 31.5211C30.453 31.2893 31.054 30.9416 31.6551 30.594C31.2544 29.8986 31.054 28.9715 30.5531 28.508C29.5514 27.5809 27.9486 27.8127 27.047 28.8556C26.7465 29.2033 26.4459 29.551 26.2456 29.8986C25.7447 30.594 24.9433 30.8257 24.5426 30.1304C24.2421 29.6669 24.2421 28.3921 24.5426 27.9285C25.5444 26.5379 27.047 25.4949 28.75 25.7267ZM28.1489 38.3584C30.2526 38.3584 31.1542 37.5472 31.6551 35.693C31.9556 34.65 31.5549 33.9547 30.5531 34.0706C29.5514 34.1865 28.6498 34.4183 27.648 34.65C26.7465 34.8818 26.0452 35.5771 26.2456 36.736C26.5461 37.8949 27.3475 38.3584 28.1489 38.3584Z" fill="#FFF3E0"/>
<path d="M42.1737 40.793C39.7695 40.793 38.1667 40.0976 36.8644 38.3593C36.3635 37.664 35.6623 36.9687 36.5638 36.0416C37.1649 35.3462 38.367 35.8098 38.9681 36.7369C39.9698 38.2434 41.773 38.8229 43.1754 37.8958C43.5761 37.664 43.9768 37.0846 43.8767 36.621C43.8767 36.1575 43.476 35.3462 43.1754 35.2303C41.8732 34.6509 40.5709 34.3032 39.2686 33.9556C36.664 33.1444 35.4619 30.0154 37.1649 27.9294C37.8661 27.0023 39.1684 26.5388 40.2703 26.1911C42.374 25.6117 44.1772 26.1911 45.78 28.0453C46.2809 28.6247 46.6816 29.436 46.0805 30.0154C45.6798 30.3631 44.8784 30.1313 44.2774 30.0154C43.8767 29.8995 43.6763 29.2042 43.2756 29.0883C42.2739 28.8565 41.1719 28.5089 40.1702 28.6247C39.7695 28.6247 39.1684 29.5518 39.0682 30.1313C38.9681 30.4789 39.5691 31.2902 40.07 31.5219C41.3723 32.1014 42.7747 32.449 44.1772 32.7967C45.6798 33.2603 46.5814 34.4191 46.9821 36.1575C47.1825 37.3163 45.78 39.6341 44.5779 40.2135C43.6763 40.4453 42.6746 40.5612 42.1737 40.793Z" fill="#FFF3E0"/>
<path d="M49.3867 32.9123C49.3867 32.1011 49.3867 31.4058 49.3867 30.5946C49.3867 29.5516 49.2866 28.6245 48.1846 28.1609C47.8841 28.045 47.4834 27.4656 47.4834 27.1179C47.4834 26.7703 47.8841 26.3067 48.2848 26.1908C49.2866 25.8432 49.6873 25.2637 49.2866 24.1049C48.986 23.1777 49.4869 22.4824 50.2883 22.4824C50.8894 22.4824 51.4904 23.0619 51.9913 23.5254C52.0915 23.6413 52.0915 24.1049 52.0915 24.3366C51.9913 25.4955 52.4922 26.0749 53.4939 26.3067C53.8946 26.4226 54.1952 27.002 54.5959 27.3497C54.2953 27.6974 53.9948 28.2768 53.5941 28.3927C52.392 28.6245 51.9913 29.3198 52.0915 30.7105C52.1917 32.3329 52.0915 33.8394 52.0915 35.4619C52.0915 36.7366 52.4922 37.6637 53.5941 38.1273C53.9948 38.3591 54.095 39.2862 54.3955 39.8656C53.8946 40.0974 53.3938 40.5609 52.8929 40.5609C50.5888 40.0974 49.2866 38.2432 49.2866 35.5777C49.2866 34.5348 49.2866 33.7235 49.3867 32.9123Z" fill="#FFF3E0"/>
<path d="M86.7524 22.4819C85.5503 23.8726 84.1479 24.452 84.1479 26.3062C84.1479 26.4221 84.1479 26.538 84.1479 26.538C84.0477 28.2763 85.35 28.9716 86.1514 29.8987C86.5521 30.3623 87.9545 30.3623 88.3552 30.0146C89.2568 29.2034 90.1584 27.9286 90.3588 26.7698C90.4589 25.7268 89.5574 24.5679 89.0565 23.409C88.9563 23.1772 88.756 22.9455 88.4554 22.5978C89.4572 22.366 90.4589 23.409 91.06 25.0314C91.6611 26.6539 91.06 28.9716 89.5574 30.2464C88.0547 31.5212 86.1514 31.4053 84.6487 29.8987C83.0459 28.2763 82.7454 25.9586 83.9475 23.6408C84.5486 22.7137 85.4502 22.2501 86.7524 22.4819Z" fill="#FFF3E0"/>
<path d="M88.4549 28.6241C87.8538 28.0447 87.4531 27.8129 87.0524 27.4652C86.6517 27.8129 86.3512 28.1606 85.9505 28.6241C85.8503 28.6241 85.65 28.6241 85.5498 28.6241C85.5498 27.3493 85.5498 26.1905 85.5498 24.9157C85.5498 24.6839 85.9505 24.568 86.1509 24.4521C86.7519 25.611 88.2545 23.6409 88.5551 25.2634C88.9558 26.0746 88.5551 27.2335 88.4549 28.6241Z" fill="#FFF3E0"/>
<path d="M78.8386 33.0277C78.5381 34.0707 78.4379 34.8819 78.1374 35.5772C77.6365 36.9679 77.0354 38.2427 75.5328 38.2427C74.1303 38.2427 72.828 37.0838 72.3272 35.3455C71.7261 33.4913 72.5275 30.4782 73.8298 29.2034C75.0319 28.0445 76.5345 28.1604 77.4361 29.667C78.0372 30.5941 78.4379 31.8688 78.8386 33.0277Z" fill="#1A130D"/>
<path d="M61.6078 27.6973C62.6096 28.5085 63.5111 29.0879 64.2124 29.7832C64.4127 30.015 64.5129 30.8262 64.3125 31.1739C64.2124 31.4057 63.6113 31.6375 63.3108 31.6375C62.1087 31.6375 60.9066 31.6375 59.7045 31.6375C58.7027 31.6375 58.2018 30.7103 58.9031 29.8991C59.6043 29.2038 60.606 28.6244 61.6078 27.6973Z" fill="#1A130D"/>
<path d="M28.1491 38.3587C27.3477 38.3587 26.5463 37.8952 26.3459 36.6204C26.1456 35.4615 26.8468 34.8821 27.7484 34.5344C28.65 34.1867 29.6517 33.955 30.6535 33.955C31.6553 33.8391 31.9558 34.5344 31.7554 35.5774C31.1544 37.5475 30.2528 38.2428 28.1491 38.3587Z" fill="#1A130D"/>
</g>
<defs>
<clipPath id="clip0_608_4184">
<rect width="114" height="62" fill="white"/>
</clipPath>
</defs>
</svg>
