<svg width="83" height="61" viewBox="0 0 83 61" fill="none" xmlns="http://www.w3.org/2000/svg">
<path d="M85.999 -1.82129C85.999 19.6772 85.999 41.1757 85.999 62.6743C56.7198 62.6743 27.4588 62.6743 -1.82031 62.6743C-1.82031 41.1937 -1.82031 19.7131 -1.82031 -1.82129C27.5492 -1.82129 56.7741 -1.82129 85.999 -1.82129ZM41.7007 47.8045C42.6225 48.8794 43.5262 49.9364 44.5383 51.1188C44.954 50.3843 44.954 50.026 44.3937 49.7393C43.978 49.5243 43.5985 49.2377 43.2189 48.969C42.6948 48.5927 42.1887 48.2165 41.6827 47.8403C41.6284 47.267 41.3935 46.8549 40.6163 46.837C40.6163 48.1986 40.6163 49.5243 40.6163 50.8322C40.7067 50.8322 40.8151 50.8322 40.9055 50.8501C40.9597 49.9185 41.0139 49.0048 41.0682 48.0194C41.2308 47.9657 41.4658 47.894 41.7007 47.8045ZM53.6112 49.5781C53.4124 49.2735 53.1955 48.951 52.9063 48.5032C52.5268 49.3631 52.2195 50.0976 51.8942 50.8322C51.9665 50.868 52.0388 50.9038 52.093 50.9397C52.5991 50.4739 53.1051 50.008 53.6293 49.5422C53.7377 49.6318 53.8823 49.8289 53.9546 49.811C54.6414 49.6497 54.9848 50.0439 55.292 50.5455C55.3824 50.6709 55.527 50.7605 55.6535 50.868C55.7258 50.8322 55.7981 50.7784 55.8704 50.7426C55.3101 49.4706 54.7679 48.1986 54.1895 46.9266C54.1534 46.8728 53.7196 46.8728 53.6835 46.9624C53.557 47.2132 53.5208 47.5178 53.4124 47.894C54.3703 47.7686 54.4787 48.3777 54.4245 48.9152C54.3884 49.166 53.8823 49.3631 53.6112 49.5781ZM20.4282 49.9364C20.1752 49.0048 19.9221 48.0732 19.633 47.1595C19.6149 47.0699 19.3257 46.9803 19.2534 47.0341C19.1269 47.1237 19.0185 47.3028 18.9823 47.4641C18.892 47.9478 18.8558 48.4315 18.7654 48.8973C18.657 49.5243 18.5124 50.1514 18.3859 50.7605C19.3076 50.2409 18.7112 48.969 19.7595 48.539C20.0125 49.0585 20.2294 49.4885 20.4282 49.9364C20.4824 50.0439 20.5005 50.1693 20.5728 50.2589C20.7174 50.4559 20.8981 50.653 21.0608 50.8501C21.2234 50.653 21.4222 50.4739 21.5307 50.2589C21.8379 49.7035 22.109 49.1481 22.5067 48.3419C22.832 49.2556 23.1031 49.9722 23.3561 50.6709C23.4465 50.6351 23.5188 50.5993 23.6091 50.5634C23.3742 49.381 23.1212 48.2165 22.8862 47.0341C22.7778 47.0341 22.6874 47.0341 22.5789 47.0162C22.4163 47.3566 22.2717 47.7149 22.091 48.0373C21.6933 48.8256 21.6933 49.9185 20.4282 49.9364ZM26.9166 38.8826C27.9106 39.2409 28.8685 39.7604 29.8807 39.9037C32.6459 40.3158 35.4292 40.6562 38.2126 40.8891C42.3333 41.2295 46.3999 40.5308 50.4664 39.9037C50.7014 39.8679 50.8821 39.5992 51.099 39.4379C52.2738 39.205 53.5208 39.1155 54.6414 38.7034C57.3524 37.7001 60.0634 36.6611 62.3588 34.8695C64.618 33.1138 66.5518 31.1252 67.3109 28.1871C68.0881 25.2131 67.2748 22.7049 65.5578 20.3938C63.7324 17.9573 61.2201 16.327 58.5091 15.0371C54.9306 13.3352 51.117 12.2602 47.2132 11.6869C44.719 11.3286 42.1526 11.1853 39.6584 11.3286C36.0437 11.5436 32.3748 11.3824 28.8685 12.6185C26.9347 13.2993 24.8924 13.6576 23.0127 14.4638C20.0306 15.7358 17.2473 17.402 15.0604 19.8743C13.9217 21.1642 13.0903 22.6691 12.765 24.2636C12.277 26.7001 12.6927 29.1007 14.1567 31.2148C15.8195 33.5796 18.0967 35.2099 20.5909 36.5715C21.1331 36.876 21.7837 36.9835 22.3982 37.1806C22.8681 37.4493 23.32 37.8256 23.8441 37.9868C24.8381 38.363 25.8864 38.5959 26.9166 38.8826ZM46.3095 41.4266C46.3095 41.4803 46.2914 41.5161 46.2914 41.5699C46.3999 41.5878 46.5083 41.6595 46.6167 41.6415C47.8096 41.4982 49.0024 41.3728 50.1953 41.1578C51.2978 40.9608 52.4364 40.8174 53.4666 40.4054C55.8704 39.4559 58.2922 38.4884 60.6057 37.3239C64.2384 35.4786 67.1663 32.8988 68.4857 28.9037C69.3894 26.1805 69.0098 23.6007 67.5459 21.1821C66.0458 18.674 63.8589 16.8645 61.3467 15.3417C58.3826 13.5501 55.2559 12.3319 51.9123 11.5436C50.9182 11.3107 49.9061 11.0957 48.894 10.9882C45.6046 10.6479 42.3152 10.1462 39.0259 10.1283C36.3329 10.1104 33.6399 10.6479 30.9651 11.0778C29.0673 11.3645 27.1335 11.669 25.3623 12.3319C23.0308 13.2098 20.8258 14.3922 18.6028 15.5388C16.1809 16.7928 14.2651 18.6381 12.8192 20.9313C11.6083 22.8483 11.0119 24.9623 11.3191 27.2734C11.7168 30.2473 13.2892 32.5763 15.458 34.5291C19.3438 38.0226 24.1152 39.7246 29.0673 41.0682C29.3927 41.1578 29.7541 41.0862 30.0975 41.0862C29.971 40.8174 29.8445 40.7279 29.6999 40.7099C26.2479 40.065 22.9946 38.8109 19.9583 37.1627C17.1027 35.604 14.5362 33.5796 12.9277 30.6056C11.6806 28.3125 11.3553 25.9476 12.1505 23.4932C12.9096 21.1463 14.482 19.3368 16.3436 17.7424C18.0606 16.2733 19.9764 15.073 22.109 14.2847C24.6213 13.3352 27.1335 12.3319 29.718 11.6511C31.9049 11.0957 34.2002 10.9703 36.4413 10.6658C40.4898 10.1104 44.466 10.8449 48.4602 11.2032C49.3278 11.2749 50.2134 11.4003 51.0267 11.6511C53.0509 12.2961 55.039 13.0306 57.0452 13.7293C60.2261 14.8401 62.9914 16.6316 65.3228 19.0144C66.8229 20.5551 68.0339 22.3466 68.4134 24.5144C69.0279 28.0079 67.6724 30.8744 65.2505 33.293C63.4974 35.0487 61.5093 36.464 59.2321 37.5747C56.3764 38.9721 53.4124 39.9754 50.3218 40.6562C48.9844 40.907 47.6469 41.1578 46.3095 41.4266ZM11.6806 44.3468C11.6806 44.4901 11.6806 44.6513 11.6806 44.7947C30.5132 44.7947 49.3639 44.8126 68.1965 44.7947C68.3592 44.7947 68.5219 44.6334 68.6845 44.5438C68.6664 44.4722 68.6484 44.4005 68.6303 44.3289C49.6531 44.3468 30.6759 44.3468 11.6806 44.3468ZM29.0312 48.8435C29.0493 48.8435 29.0493 48.8435 29.0673 48.8435C29.0673 49.4348 29.0493 50.008 29.0854 50.5993C29.1035 50.7605 29.2662 51.0113 29.4107 51.0651C30.694 51.5129 32.2121 50.7067 32.5917 49.3989C32.917 48.2702 32.0133 46.7295 30.8386 46.407C29.5553 46.0667 29.0854 46.425 29.0854 47.7328C29.0854 48.109 29.0493 48.4673 29.0312 48.8435ZM35.5557 46.7474C35.5557 46.622 35.5557 46.4966 35.5557 46.3891C35.0135 46.3891 34.4171 46.2458 33.9653 46.4429C33.7122 46.5504 33.6219 47.1953 33.5857 47.6074C33.5315 48.4315 33.5315 49.2735 33.5677 50.0976C33.5857 50.4201 33.7122 50.9755 33.8749 51.0113C34.4352 51.1188 35.0135 51.0471 35.5919 51.0471C35.61 50.9038 35.628 50.7605 35.6461 50.6172C34.8328 50.8322 34.1822 50.9397 34.0195 49.8826C33.8388 48.7002 34.6882 48.754 35.4292 48.5569C34.7786 48.3419 33.893 48.4315 34.0376 47.4282C34.1279 46.5325 34.887 46.7116 35.5557 46.7474ZM35.4654 41.767C36.9655 42.2865 44.2853 42.1969 45.0986 41.767C41.8815 41.767 38.6644 41.767 35.4654 41.767ZM59.955 50.9397C60.0273 50.9397 60.0996 50.9397 60.19 50.9397C60.3165 50.1872 60.3345 49.3989 60.5695 48.6823C60.8045 47.9836 61.2744 47.3745 61.6358 46.7116C61.5274 46.6399 61.419 46.5862 61.2924 46.5145C60.931 47.052 60.5695 47.5895 60.1177 48.2703C59.5755 47.6253 59.1055 47.052 58.6176 46.4787C58.5272 46.5504 58.4368 46.6041 58.3465 46.6758C58.7621 47.3207 59.3044 47.9299 59.5755 48.6286C59.8466 49.381 59.8466 50.1872 59.955 50.9397ZM26.5009 46.6041C26.3925 46.6041 26.2659 46.622 26.1575 46.622C26.0129 47.1237 25.8503 47.6074 25.7237 48.0015C26.0671 48.0373 26.5371 47.9478 26.6274 48.109C27.007 48.6823 26.9889 49.2914 26.519 49.5602C27.0612 49.9901 27.6215 50.4201 28.1637 50.8501C28.2179 50.8322 28.254 50.8142 28.3083 50.7784C27.7118 49.3989 27.1154 48.0015 26.5009 46.6041ZM50.5025 50.9755C50.611 50.9755 50.7194 50.9576 50.8279 50.9576C50.8279 50.2768 50.8279 49.5781 50.8279 48.8973C50.8459 48.0732 50.5387 47.1774 51.7315 46.4608C50.7917 46.4608 50.1772 46.4608 49.4543 46.4608C51.1713 47.7149 49.87 49.5602 50.5025 50.9755ZM57.985 50.9934C56.2861 49.9006 57.6235 48.109 56.9367 46.7833C56.8102 46.8728 56.6837 46.9266 56.6837 46.9803C56.6837 48.1986 56.6114 49.4348 56.7379 50.653C56.8102 51.3338 57.4066 51.2263 57.985 50.9934ZM48.2072 50.8142C48.2795 50.8142 48.3699 50.8142 48.4422 50.8142C48.4422 49.4527 48.4422 48.109 48.4422 46.7474C48.3699 46.7474 48.2795 46.7474 48.2072 46.7474C48.2072 48.0911 48.2072 49.4527 48.2072 50.8142ZM39.4235 46.6937C39.3331 46.6937 39.2608 46.6937 39.1704 46.6937C39.1704 48.0553 39.1704 49.4168 39.1704 50.7784C39.2608 50.7784 39.3331 50.7784 39.4235 50.7784C39.4235 49.4348 39.4235 48.0553 39.4235 46.6937ZM24.3682 50.6888C24.4767 50.7247 24.567 50.7605 24.6755 50.7963C24.8743 50.5097 25.0189 50.1155 25.3081 49.9722C26.0671 49.5781 25.6876 49.1839 25.3623 48.4315C24.9647 49.3452 24.6755 50.008 24.3682 50.6888Z" fill="#1A130D"/>
<path d="M86 -1.82085C56.7751 -1.82085 27.5502 -1.82085 -1.81926 -1.82085C-1.81926 19.7135 -1.81926 41.1941 -1.81926 62.6747C-1.87349 62.3881 -2 62.1193 -2 61.8327C-2 48.1274 -2 34.4042 -2 20.6988C-2 13.1385 -2 5.59614 -2 -2C-1.42165 -2 -0.843294 -2 -0.264941 -2C28.2009 -2 56.6847 -2 85.1505 -2C85.4397 -2 85.7108 -1.87459 86 -1.82085Z" fill="#FFF3E0"/>
<path d="M46.3099 41.4269C47.6474 41.1581 48.9848 40.9252 50.3042 40.6207C53.3948 39.9399 56.3588 38.9366 59.2144 37.5392C61.4917 36.4285 63.4798 35.0131 65.2329 33.2574C67.6548 30.8388 69.0103 27.9724 68.3958 24.4789C68.0162 22.3111 66.8234 20.5196 65.3052 18.9788C62.9737 16.5782 60.2085 14.8045 57.0275 13.6938C55.0214 12.9951 53.0333 12.2605 51.009 11.6156C50.1957 11.3469 49.3101 11.2394 48.4426 11.1677C44.4484 10.8094 40.4541 10.0928 36.4237 10.6302C34.1826 10.9348 31.8692 11.0423 29.7004 11.6156C27.1158 12.2785 24.6036 13.2996 22.0914 14.2492C19.9587 15.0374 18.061 16.2378 16.326 17.7068C14.4644 19.3013 12.892 21.1108 12.1329 23.4577C11.3377 25.9121 11.663 28.2769 12.9101 30.5701C14.5367 33.5441 17.085 35.5685 19.9407 37.1272C22.977 38.7754 26.2302 40.0295 29.6823 40.6744C29.8269 40.6923 29.9534 40.7819 30.0799 41.0506C29.7365 41.0506 29.375 41.1223 29.0497 41.0327C24.0976 39.6891 19.3262 37.9871 15.4403 34.4936C13.2535 32.5408 11.6991 30.2118 11.3015 27.2378C10.9943 24.9267 11.5907 22.8127 12.8016 20.8958C14.2475 18.6205 16.1633 16.7573 18.5851 15.5032C20.8082 14.3566 23.0132 13.1742 25.3446 12.2964C27.1158 11.6335 29.0497 11.3289 30.9474 11.0423C33.6223 10.6302 36.3333 10.0928 39.0082 10.0928C42.2976 10.1107 45.587 10.6123 48.8764 10.9527C49.8885 11.0602 50.9006 11.2752 51.8947 11.5081C55.2383 12.2964 58.365 13.5146 61.329 15.3062C63.8593 16.829 66.0282 18.6384 67.5283 21.1466C68.9741 23.5652 69.3537 26.145 68.4681 28.8681C67.1487 32.8812 64.2208 35.461 60.588 37.2884C58.2746 38.4529 55.8708 39.4203 53.449 40.3698C52.4188 40.764 51.2802 40.9252 50.1777 41.1223C48.9848 41.3373 47.792 41.4627 46.5991 41.606C46.4907 41.6239 46.3822 41.5702 46.2738 41.5344C46.3099 41.5164 46.3099 41.4627 46.3099 41.4269Z" fill="#FFF3E0"/>
<path d="M22.3992 37.1989C21.8028 37.0018 21.1522 36.8943 20.5919 36.5898C18.0977 35.2282 15.8024 33.5979 14.1577 31.233C12.6757 29.119 12.2781 26.7184 12.7661 24.2819C13.0914 22.6695 13.9228 21.1825 15.0614 19.8926C17.2483 17.4023 20.0316 15.7541 23.0137 14.4821C24.8753 13.6938 26.9357 13.3176 28.8696 12.6368C32.3758 11.4007 36.0448 11.544 39.6595 11.3469C42.1717 11.2036 44.7381 11.3469 47.2142 11.7052C51.1181 12.2785 54.9316 13.3355 58.5101 15.0554C61.2212 16.3453 63.7334 17.9935 65.5588 20.4121C67.2758 22.7232 68.0891 25.2314 67.312 28.2053C66.5529 31.1435 64.619 33.1321 62.3598 34.8878C60.0645 36.6793 57.3534 37.7184 54.6424 38.7217C53.5219 39.1337 52.2929 39.2233 51.1 39.4562L51.1181 39.4921C51.335 39.3308 51.5338 39.1337 51.7868 39.0442C53.9918 38.2559 56.2329 37.5751 58.3836 36.6793C61.167 35.4969 63.5346 33.7412 65.3781 31.3405C66.5167 29.8715 67.2216 28.1695 67.2216 26.378C67.2035 23.3323 65.6853 20.9138 63.4081 18.9431C61.3296 17.1336 58.9258 15.8795 56.3775 14.8225C53.0881 13.4609 49.6903 12.6547 46.184 12.2069C42.2078 11.7052 38.1955 11.6694 34.2193 12.2069C31.9782 12.5114 29.719 12.9235 27.5502 13.5326C25.6163 14.0701 23.7367 14.8225 21.9113 15.6645C18.2785 17.3844 15.0614 19.5343 13.5794 23.5294C12.7299 25.8405 12.9287 28.062 14.0673 30.1402C15.3867 32.5588 17.5013 34.2607 19.8509 35.6582C20.7184 36.1598 21.5317 36.7331 22.3812 37.2885L22.3992 37.1989Z" fill="#FFF3E0"/>
<path d="M11.6816 44.3477C30.6588 44.3477 49.6541 44.3477 68.6313 44.3477C68.6494 44.4193 68.6675 44.491 68.6855 44.5626C68.5229 44.6522 68.3602 44.8135 68.1976 44.8135C49.3649 44.8135 30.5143 44.8135 11.6816 44.8135C11.6816 44.6522 11.6816 44.5089 11.6816 44.3477Z" fill="#FFF3E0"/>
<path d="M51.0813 39.4382C50.8825 39.5994 50.6837 39.8682 50.4487 39.904C46.3822 40.531 42.3337 41.2297 38.1949 40.8893C35.4116 40.6564 32.6282 40.316 29.863 39.904C28.8509 39.7428 27.8749 39.2232 26.8989 38.8828L26.8809 38.9007C27.8749 39.0799 28.8689 39.2949 29.8811 39.4382C31.8149 39.7428 33.7488 40.1548 35.7007 40.2802C38.3033 40.4415 40.924 40.531 43.5266 40.3877C46.0569 40.2444 48.5872 39.7786 51.1175 39.474C51.0994 39.4561 51.0813 39.4382 51.0813 39.4382Z" fill="#FFF3E0"/>
<path d="M29.0332 48.8435C29.0513 48.4673 29.0874 48.109 29.0874 47.7328C29.0874 46.407 29.5573 46.0487 30.8406 46.4071C32.0334 46.7295 32.919 48.2523 32.5937 49.3989C32.2141 50.7068 30.696 51.5129 29.4127 51.0651C29.2682 51.0113 29.0874 50.7605 29.0874 50.5993C29.0513 50.026 29.0693 49.4348 29.0693 48.8435C29.0693 48.8435 29.0513 48.8435 29.0332 48.8435ZM29.5212 48.8077H29.5393C29.5393 49.1123 29.5393 49.4168 29.5393 49.7393C29.5573 50.6172 29.973 51.0292 30.7502 50.6351C31.3466 50.3305 31.9973 49.6677 32.1057 49.0764C32.2141 48.5211 31.7442 47.7686 31.3105 47.267C31.0755 46.9803 30.3887 46.9087 29.973 47.0162C29.7381 47.0878 29.6296 47.697 29.5212 48.0911C29.467 48.3061 29.5212 48.5569 29.5212 48.8077Z" fill="#FFF3E0"/>
<path d="M35.5577 46.7472C34.889 46.6934 34.1299 46.5322 34.0215 47.4459C33.895 48.4312 34.7625 48.3596 35.4131 48.5745C34.6721 48.7716 33.8227 48.7179 34.0034 49.9003C34.1661 50.9573 34.8167 50.8498 35.63 50.6348C35.6119 50.7781 35.5939 50.9215 35.5758 51.0648C34.9974 51.0648 34.401 51.1364 33.8588 51.029C33.6961 50.9931 33.5696 50.4377 33.5516 50.1153C33.5154 49.2912 33.5154 48.4491 33.5696 47.625C33.6058 47.213 33.6961 46.568 33.9492 46.4605C34.401 46.2635 34.9974 46.4068 35.5396 46.4068C35.5396 46.5143 35.5396 46.6218 35.5577 46.7472Z" fill="#FFF3E0"/>
<path d="M35.4668 41.7676C38.6658 41.7676 41.8829 41.7676 45.1 41.7676C44.2867 42.1975 36.9669 42.2871 35.4668 41.7676Z" fill="#FFF3E0"/>
<path d="M20.4287 49.9365C21.6758 49.9186 21.6939 48.8078 22.0915 48.0554C22.2722 47.715 22.4168 47.3746 22.5795 47.0342C22.6879 47.0342 22.7783 47.0342 22.8867 47.0521C23.1217 48.2345 23.3747 49.399 23.6097 50.5814C23.5193 50.6173 23.447 50.6531 23.3566 50.6889C23.1036 49.9723 22.8325 49.2736 22.5072 48.3599C22.1096 49.1482 21.8384 49.7215 21.5312 50.2769C21.4047 50.4919 21.2239 50.671 21.0613 50.8681C20.8986 50.671 20.7179 50.4919 20.5733 50.2769C20.501 50.1873 20.4829 50.044 20.4287 49.9365Z" fill="#FFF3E0"/>
<path d="M59.9557 50.9398C59.8473 50.1694 59.8653 49.3632 59.5942 48.6645C59.3231 47.9658 58.799 47.3567 58.3652 46.7117C58.4556 46.6401 58.546 46.5863 58.6363 46.5146C59.1062 47.0879 59.5942 47.6612 60.1364 48.3062C60.5883 47.6254 60.9497 47.0879 61.3112 46.5505C61.4197 46.6221 61.5281 46.6759 61.6546 46.7476C61.2931 47.3925 60.8232 48.0195 60.5883 48.7182C60.3352 49.4349 60.3172 50.2231 60.2087 50.9756C60.1003 50.9398 60.028 50.9398 59.9557 50.9398Z" fill="#FFF3E0"/>
<path d="M26.5013 46.6045C27.1158 48.0019 27.7122 49.3993 28.3267 50.7967C28.2725 50.8146 28.2363 50.8325 28.1821 50.8684C27.6399 50.4384 27.0796 50.0084 26.5374 49.5785C26.9893 49.3097 27.0254 48.7006 26.6459 48.1273C26.5374 47.9661 26.0856 48.0556 25.7422 48.0198C25.8687 47.6257 26.0133 47.124 26.176 46.6403C26.2844 46.6224 26.3928 46.6045 26.5013 46.6045Z" fill="#FFF3E0"/>
<path d="M50.5033 50.976C49.8708 49.5606 51.1901 47.7154 49.4551 46.4434C50.178 46.4434 50.7925 46.4434 51.7323 46.4434C50.5395 47.16 50.8467 48.0557 50.8287 48.8799C50.8287 49.5606 50.8287 50.2593 50.8287 50.9401C50.7202 50.958 50.6118 50.976 50.5033 50.976Z" fill="#FFF3E0"/>
<path d="M20.4476 49.9194C20.2307 49.4894 20.0138 49.0416 19.7789 48.5399C18.7487 48.9699 19.3451 50.2419 18.4053 50.7614C18.5318 50.1344 18.6764 49.5253 18.7848 48.8982C18.8752 48.4145 18.9113 47.9308 19.0017 47.465C19.0378 47.3038 19.1463 47.1246 19.2728 47.035C19.3451 46.9813 19.6343 47.0888 19.6523 47.1604C19.9234 48.0741 20.1765 49.0057 20.4476 49.9194Z" fill="#FFF3E0"/>
<path d="M53.6124 49.5605C53.8835 49.3455 54.3896 49.1664 54.4076 48.9335C54.4618 48.396 54.3534 47.769 53.3955 47.9123C53.4859 47.5361 53.522 47.2315 53.6666 46.9807C53.7028 46.8911 54.1546 46.8911 54.1727 46.9449C54.751 48.199 55.3113 49.4889 55.8535 50.7609C55.7812 50.7967 55.7089 50.8504 55.6366 50.8863C55.5101 50.7788 55.3655 50.6892 55.2752 50.5638C54.9679 50.0622 54.6245 49.668 53.9377 49.8293C53.8473 49.8472 53.7208 49.6501 53.6124 49.5605Z" fill="#FFF3E0"/>
<path d="M57.9849 50.9933C57.4066 51.2262 56.8102 51.3516 56.7379 50.6529C56.6114 49.4347 56.6837 48.2164 56.6837 46.9803C56.6837 46.9265 56.8102 46.8728 56.9367 46.7832C57.6235 48.1089 56.286 49.8826 57.9849 50.9933Z" fill="#FFF3E0"/>
<path d="M41.7031 47.8047C41.4681 47.8763 41.2332 47.948 41.0524 48.0018C40.9982 48.9871 40.944 49.9008 40.8898 50.8324C40.7994 50.8324 40.691 50.8324 40.6006 50.8145C40.6006 49.4887 40.6006 48.1809 40.6006 46.8193C41.3777 46.8373 41.5946 47.2493 41.6669 47.8226C41.685 47.8405 41.7031 47.8047 41.7031 47.8047Z" fill="#FFF3E0"/>
<path d="M41.6836 47.8403C42.1897 48.2165 42.7138 48.6107 43.2198 48.969C43.5994 49.2377 43.9789 49.5244 44.3946 49.7393C44.9549 50.026 44.9368 50.3843 44.5392 51.1188C43.5271 49.9364 42.6234 48.8794 41.7017 47.8224C41.7017 47.8045 41.6836 47.8403 41.6836 47.8403Z" fill="#FFF3E0"/>
<path d="M26.9183 38.8829C25.8881 38.5963 24.8579 38.3634 23.8458 38.023C23.3397 37.8438 22.8879 37.4855 22.3999 37.2168L22.3818 37.2526C23.2855 37.5034 24.1892 37.7184 25.0748 38.0409C25.7074 38.2738 26.2857 38.6321 26.8821 38.9367C26.8821 38.9008 26.9183 38.8829 26.9183 38.8829Z" fill="#FFF3E0"/>
<path d="M48.208 50.8148C48.208 49.4533 48.208 48.1096 48.208 46.748C48.2803 46.748 48.3707 46.748 48.443 46.748C48.443 48.1096 48.443 49.4533 48.443 50.8148C48.3707 50.8148 48.2803 50.8148 48.208 50.8148Z" fill="#FFF3E0"/>
<path d="M39.4239 46.6943C39.4239 48.0559 39.4239 49.4175 39.4239 50.797C39.3336 50.797 39.2613 50.797 39.1709 50.797C39.1709 49.4354 39.1709 48.0738 39.1709 46.7123C39.2613 46.6943 39.3516 46.6943 39.4239 46.6943Z" fill="#FFF3E0"/>
<path d="M53.613 49.543C53.1069 50.0088 52.6009 50.4746 52.0767 50.9404C52.0044 50.9046 51.9322 50.8687 51.8779 50.8329C52.1852 50.0984 52.5105 49.3638 52.89 48.5039C53.1973 48.9518 53.3961 49.2564 53.613 49.5788C53.613 49.5609 53.613 49.543 53.613 49.543Z" fill="#FFF3E0"/>
<path d="M24.3691 50.689C24.6583 50.0261 24.9656 49.3453 25.3632 48.4316C25.6885 49.1662 26.0681 49.5782 25.309 49.9724C25.0379 50.1157 24.8933 50.5098 24.6764 50.7965C24.586 50.7606 24.4776 50.7248 24.3691 50.689Z" fill="#FFF3E0"/>
<path d="M26.8824 38.9005C26.2859 38.596 25.7076 38.2377 25.075 38.0048C24.1894 37.6823 23.2857 37.4852 22.3821 37.2165C21.5326 36.679 20.7193 36.1057 19.8518 35.5862C17.4841 34.1888 15.3876 32.4868 14.0682 30.0682C12.9296 27.99 12.7127 25.7685 13.5803 23.4574C15.0623 19.4623 18.2974 17.2945 21.9122 15.5926C23.7195 14.7326 25.6172 13.9802 27.5511 13.4606C29.738 12.8515 31.9791 12.4395 34.2202 12.1349C38.1964 11.5974 42.2087 11.6333 46.1849 12.1349C49.6731 12.5828 53.089 13.389 56.3784 14.7505C58.9267 15.8076 61.3305 17.0616 63.409 18.8711C65.6862 20.8418 67.2044 23.2604 67.2225 26.306C67.2225 28.0975 66.5176 29.7995 65.379 31.2686C63.5174 33.6692 61.1498 35.4429 58.3845 36.6074C56.2338 37.5211 53.9927 38.1839 51.7877 38.9722C51.5347 39.0618 51.3358 39.2768 51.119 39.4201C48.5887 39.7426 46.0765 40.2084 43.5281 40.3338C40.9255 40.4771 38.3048 40.4054 35.7023 40.2263C33.7503 40.1009 31.8164 39.6888 29.8826 39.3843C28.8885 39.2947 27.8945 39.0797 26.8824 38.9005ZM37.4192 30.749C37.1662 30.9282 36.8951 31.0715 36.6963 31.2865C36.1541 31.806 35.7023 31.7702 35.3769 31.1073C35.2504 30.8386 35.2143 30.5161 35.2143 30.2116C35.1962 28.5454 35.2323 26.8793 35.1962 25.1952C35.1781 24.1024 34.4913 23.2245 33.4069 23.0275C32.6659 22.8841 31.8707 22.8483 31.1297 22.92C30.0452 23.0275 29.0873 24.0666 28.9789 25.0877C28.9247 25.679 28.9789 26.2881 29.6657 26.4314C30.0091 26.5031 30.5332 26.3239 30.7682 26.0731C31.2381 25.5535 30.8224 25.1415 30.4429 24.7294C30.2802 24.5503 30.1175 24.1561 30.2079 23.9591C30.6778 22.9916 32.2864 22.8662 32.9912 23.7083C33.6961 24.5682 33.6057 25.8044 32.7201 27.0226C33.5696 27.8646 33.5876 29.5666 32.7743 30.4624C32.0875 31.2148 31.1477 31.394 30.5332 30.8744C29.8645 30.3011 29.8103 29.0829 30.4971 28.3842C30.8585 28.008 31.3285 27.7034 31.7984 27.3272C30.6597 27.1122 29.5392 27.6497 29.0512 28.5633C28.5632 29.4949 28.5994 30.749 29.2139 31.2686C30.6597 32.451 31.9972 32.2002 33.1539 30.8207C34.2202 31.9494 37.1662 32.4868 38.4856 31.7165C37.365 32.021 37.4192 31.3581 37.4373 30.7311C38.1783 30.3011 38.9193 29.3516 38.7567 28.6529C38.2868 29.3516 37.853 30.0503 37.4192 30.749ZM43.9799 32.0031C43.8353 31.7523 43.6004 31.2686 43.2751 30.8207C42.5521 29.8174 41.775 28.85 41.0882 27.8109C40.9074 27.5422 40.8532 26.9689 41.0339 26.736C41.6484 25.8939 42.3172 25.034 43.1305 24.389C43.5642 24.0666 44.3595 24.0845 44.974 24.1741C45.1728 24.2099 45.3535 24.9444 45.3716 25.3744C45.4258 26.8255 45.3535 28.2767 45.3897 29.7458C45.4258 30.9103 46.0042 31.6627 46.944 31.9135C48.2633 32.2539 48.914 32.0031 49.655 30.8923C49.7454 30.749 49.89 30.6415 49.9442 30.5878C50.7394 31.1073 51.4262 31.7702 52.2395 32.0031C53.0528 32.236 54.083 32.2897 54.8602 32.0031C55.9085 31.591 56.5772 30.6415 56.8121 29.477C56.4868 29.7995 56.2518 30.1936 55.9807 30.552C54.9325 31.9135 53.1613 32.1285 52.1311 30.8923C51.6973 30.3549 51.5347 29.5666 51.372 28.85C51.1732 27.9005 51.4443 27.6317 52.4564 27.6138C53.7035 27.6138 54.9506 27.5959 56.1976 27.6138C56.7218 27.6138 57.0109 27.4168 57.0109 26.8614C57.0109 25.5894 55.6916 23.6366 54.4445 23.3858C52.9625 23.0812 51.8419 23.2425 50.7214 24.6936C49.8719 25.8044 49.6189 27.0584 49.655 28.4558C49.6731 29.1725 49.5285 29.9249 49.2755 30.5878C49.167 30.8565 48.5345 31.1432 48.2091 31.0715C47.9019 30.9998 47.4862 30.4982 47.4681 30.1757C47.3958 28.42 47.4139 26.6464 47.432 24.8907C47.432 24.2995 47.7573 24.0128 48.3899 24.0128C48.7333 24.0128 49.0767 23.9053 49.4201 23.8337C49.4201 23.7083 49.402 23.5829 49.402 23.4574C49.0586 23.4037 48.7333 23.332 48.3899 23.332C47.685 23.3499 47.3416 23.0633 47.3958 22.3288C47.45 21.6122 47.4862 20.9135 47.4681 20.1968C47.4681 19.9998 47.2512 19.8206 47.1428 19.6235C46.9801 19.7848 46.7994 19.946 46.691 20.1252C46.6187 20.2506 46.6548 20.4297 46.6187 20.5731C46.221 22.1675 45.3535 23.7978 43.3835 23.4395C42.8774 23.35 42.3172 23.3679 41.793 23.4037C41.5039 23.4216 41.2327 23.5829 40.8171 23.7441C41.4135 24.0307 41.7569 24.192 42.1003 24.3532C41.9015 24.6936 41.7027 25.0519 41.5039 25.3923C41.4496 25.464 41.3773 25.5356 41.3231 25.6073C40.4556 26.6643 40.3471 26.6643 39.5519 25.5715C39.4435 25.4281 39.335 25.2669 39.2266 25.1236C38.8651 24.6399 38.829 24.2816 39.5338 24.1203C39.6965 24.0845 39.823 23.9591 39.9857 23.8695C39.8772 23.7262 39.8411 23.6008 39.7869 23.6008C38.5579 23.5649 37.3108 23.5291 36.0818 23.5112C35.9914 23.5112 35.8468 23.6724 35.8468 23.7441C35.8468 23.8695 35.9372 24.0307 36.0276 24.1203C36.6963 24.819 37.4735 25.4461 38.0518 26.1985C38.6302 26.933 38.9916 27.8288 39.5158 28.5813C40.076 29.3874 40.7628 30.1041 41.3231 30.9103C41.6665 31.4119 41.3773 31.7702 40.7448 31.7523C40.5098 31.7344 40.2749 31.7523 40.0399 31.7523C40.0399 31.8419 40.0399 31.9494 40.0399 32.0389C41.5039 32.0031 42.9678 32.0031 43.9799 32.0031ZM20.1229 18.9607C20.394 19.3369 20.7916 19.6594 20.8097 19.9819C20.8277 23.4754 20.7916 26.9689 20.7735 30.4624C20.7735 30.7132 20.8277 30.964 20.8639 31.3044C21.8941 30.4086 21.8941 30.4086 22.9423 31.2327C23.0869 31.3402 23.2315 31.4656 23.3761 31.5731C24.4967 32.3793 26.051 32.2718 26.8281 31.2327C28.256 29.3337 28.6355 27.2555 27.7138 25.034C27.28 23.977 26.5932 23.0812 25.4003 22.7946C24.4786 22.5617 23.9906 23.2604 23.4303 23.7799C23.3219 23.8874 22.9966 23.977 22.9604 23.9232C22.8158 23.7441 22.6893 23.5112 22.6712 23.2962C22.6532 22.4363 22.6893 21.5584 22.6712 20.6985C22.6351 18.674 22.2555 18.3874 20.1771 18.889C20.159 18.9248 20.1229 18.9786 20.1229 18.9607ZM56.7218 23.4754C56.6495 23.6008 56.5591 23.7083 56.4868 23.8337C58.258 23.9053 58.0773 25.0519 58.0592 26.1268C58.0411 27.2734 58.0411 28.42 58.0592 29.5487C58.0773 30.6057 58.0411 31.5731 56.6495 31.7165C56.5952 31.7165 56.541 31.8598 56.4145 32.0569C58.1134 32.0569 59.6858 32.0569 61.5112 32.0569C61.2221 31.8419 61.1498 31.7344 61.0413 31.7165C59.8123 31.3402 59.6677 31.1611 59.6858 29.9249C59.7039 29.0829 59.6497 28.2588 59.722 27.4168C59.7762 26.736 60.1557 26.0373 60.0834 25.3923C60.0111 24.7832 59.6858 23.8874 59.2159 23.6903C58.493 23.3679 57.5712 23.5112 56.7218 23.4754ZM61.6378 23.5112C61.6378 23.9232 61.6016 24.2995 61.6558 24.6757C61.7101 25.034 61.7281 25.5356 61.9631 25.6969C62.2523 25.8939 62.8125 25.9298 63.1379 25.7685C63.8066 25.4461 63.8789 24.8369 63.5716 24.192C63.1559 23.3679 62.4691 23.1708 61.6378 23.5112Z" fill="#1A130D"/>
<path d="M29.5205 48.8081C29.5205 48.5573 29.4663 48.3064 29.5386 48.0735C29.647 47.6794 29.7555 47.0703 29.9904 46.9986C30.388 46.8911 31.0929 46.9628 31.3278 47.2494C31.7435 47.7511 32.2315 48.5214 32.1231 49.0589C32.0146 49.6501 31.3459 50.313 30.7676 50.6175C30.0085 51.0117 29.5747 50.6175 29.5566 49.7218C29.5566 49.4172 29.5566 49.1126 29.5566 48.7902C29.5386 48.8081 29.5205 48.8081 29.5205 48.8081Z" fill="#1A130D"/>
<path d="M43.9783 32.0033C42.9662 32.0033 41.5022 32.0033 40.0202 32.0033C40.0202 31.9137 40.0202 31.8062 40.0202 31.7166C40.2552 31.7166 40.4901 31.7166 40.7251 31.7166C41.3576 31.7346 41.6468 31.3762 41.3034 30.8746C40.7431 30.0684 40.0564 29.3518 39.4961 28.5456C38.9539 27.7752 38.5924 26.8795 38.0321 26.1629C37.4357 25.4104 36.6766 24.7834 36.0079 24.0847C35.9175 23.9951 35.8271 23.8338 35.8271 23.7084C35.8271 23.6189 35.9717 23.4576 36.0621 23.4755C37.2911 23.4935 38.5382 23.5293 39.7672 23.5651C39.8214 23.5651 39.8756 23.7084 39.966 23.8338C39.8033 23.9234 39.6587 24.0488 39.5141 24.0847C38.8093 24.2459 38.8454 24.6221 39.2069 25.0879C39.3153 25.2313 39.4238 25.3925 39.5322 25.5358C40.3275 26.6287 40.454 26.6287 41.3034 25.5716C41.3576 25.5 41.4299 25.4283 41.4842 25.3567C41.683 25.0163 41.8818 24.6759 42.0806 24.3176C41.7372 24.1563 41.3938 23.9951 40.7974 23.7084C41.2131 23.5651 41.4842 23.386 41.7733 23.368C42.2975 23.3322 42.8397 23.3143 43.3638 23.4039C45.3519 23.7622 46.2014 22.1319 46.599 20.5374C46.6351 20.3941 46.599 20.197 46.6713 20.0895C46.7797 19.8925 46.9604 19.7491 47.1231 19.5879C47.2315 19.785 47.4484 19.9641 47.4484 20.1612C47.4665 20.8778 47.4304 21.5765 47.3761 22.2931C47.3219 23.0277 47.6653 23.3143 48.3702 23.2964C48.7136 23.2964 49.0389 23.386 49.3823 23.4218C49.3823 23.5472 49.4004 23.6726 49.4004 23.798C49.057 23.8697 48.7136 23.9772 48.3702 23.9772C47.7376 23.9593 47.4123 24.2459 47.4123 24.855C47.3942 26.6107 47.3761 28.3844 47.4484 30.1401C47.4665 30.4626 47.8822 30.9642 48.1894 31.0358C48.4967 31.1075 49.1473 30.8209 49.2558 30.5521C49.5088 29.8893 49.6715 29.1368 49.6353 28.4202C49.5811 27.0407 49.8341 25.7687 50.7017 24.658C51.8222 23.2247 52.9428 23.0456 54.4248 23.3501C55.69 23.6009 56.9912 25.5537 56.9912 26.8257C56.9912 27.399 56.7021 27.5961 56.1779 27.5782C54.9309 27.5782 53.6838 27.5782 52.4367 27.5782C51.4246 27.5782 51.1535 27.8469 51.3523 28.8143C51.4969 29.513 51.6776 30.3192 52.1114 30.8567C53.1235 32.0929 54.9128 31.8779 55.9611 30.5163C56.2322 30.158 56.4671 29.7639 56.7924 29.4414C56.5756 30.6059 55.8888 31.5733 54.8405 31.9675C54.0633 32.272 53.0331 32.2183 52.2198 31.9675C51.4065 31.7346 50.7197 31.0717 49.9245 30.5521C49.8703 30.6059 49.7257 30.7134 49.6353 30.8567C48.8943 31.9675 48.2617 32.2183 46.9243 31.8779C45.9664 31.6271 45.388 30.8925 45.37 29.7101C45.3338 28.259 45.388 26.7899 45.3519 25.3387C45.3338 24.9088 45.1531 24.1742 44.9543 24.1384C44.3579 24.0488 43.5445 24.0309 43.1108 24.3534C42.2975 24.9804 41.6468 25.8583 41.0142 26.7003C40.8516 26.9332 40.8877 27.5065 41.0685 27.7752C41.7553 28.8143 42.5324 29.7639 43.2554 30.785C43.5807 31.2688 43.8337 31.7525 43.9783 32.0033ZM53.1958 27.1661C53.7019 27.1661 54.1899 27.184 54.6959 27.1661C55.2381 27.1303 55.5273 26.772 55.3827 26.2883C55.1658 25.5716 54.8947 24.8371 54.479 24.228C54.0453 23.5651 53.3223 23.4218 52.5813 23.8338C51.6957 24.3176 51.0631 25.6433 51.28 26.6107C51.4969 27.5423 52.2921 27.0586 52.8343 27.1661C52.9428 27.2019 53.0693 27.184 53.1958 27.1661Z" fill="#FFF3E0"/>
<path d="M20.1221 18.9608C20.1221 18.9608 20.1582 18.907 20.2124 18.8891C22.2909 18.3875 22.6704 18.6741 22.7066 20.6986C22.7247 21.5585 22.6704 22.4364 22.7066 23.2963C22.7066 23.5113 22.8512 23.7442 22.9958 23.9233C23.0319 23.9771 23.3572 23.8875 23.4657 23.78C24.026 23.2425 24.5139 22.5618 25.4357 22.7947C26.6285 23.0813 27.3153 23.9771 27.7491 25.0341C28.6528 27.2556 28.2732 29.3338 26.8635 31.2328C26.0863 32.254 24.532 32.3794 23.4115 31.5732C23.2669 31.4657 23.1223 31.3403 22.9777 31.2328C21.9113 30.4266 21.9113 30.4266 20.8992 31.3045C20.8631 30.9641 20.8089 30.7133 20.8089 30.4625C20.8269 26.969 20.8631 23.4754 20.845 19.9819C20.8089 19.6595 20.3932 19.3549 20.1221 18.9608ZM26.99 27.3273C26.7551 26.324 26.6466 25.4641 26.3394 24.6758C25.7249 23.0813 24.3874 22.9201 23.3753 24.2816C23.2307 24.4787 23.1404 24.7116 23.05 24.9445C22.5259 26.4494 22.5801 27.9901 22.9415 29.495C23.0681 30.0146 23.3934 30.5162 23.7548 30.9103C24.7489 32.0032 25.6526 31.8957 26.2309 30.5162C26.6285 29.4771 26.7551 28.3126 26.99 27.3273Z" fill="#FFF3E0"/>
<path d="M37.4006 30.7132C37.3825 31.3402 37.3464 32.0031 38.4489 31.6985C37.1476 32.4689 34.1835 31.9314 33.1172 30.8027C31.9605 32.2002 30.623 32.4331 29.1771 31.2506C28.5446 30.7311 28.5265 29.477 29.0145 28.5454C29.5025 27.6317 30.623 27.0943 31.7616 27.3092C31.2917 27.6855 30.8399 27.99 30.4604 28.3662C29.7916 29.0649 29.8278 30.2832 30.4965 30.8565C31.0929 31.376 32.0327 31.1969 32.7376 30.4444C33.5509 29.5487 33.5328 27.8467 32.6834 27.0047C33.569 25.7864 33.6594 24.5503 32.9545 23.6903C32.2677 22.8483 30.6411 22.9737 30.1712 23.9411C30.0808 24.1203 30.2435 24.5144 30.4061 24.7115C30.7857 25.1236 31.2014 25.5356 30.7315 26.0552C30.4965 26.306 29.9724 26.4851 29.629 26.4135C28.9422 26.2881 28.888 25.661 28.9422 25.0698C29.0506 24.0486 30.0085 23.0095 31.0929 22.902C31.852 22.8304 32.6292 22.8662 33.3702 23.0095C34.4546 23.2245 35.1414 24.0845 35.1595 25.1773C35.1775 26.8434 35.1595 28.5096 35.1775 30.1936C35.1775 30.4982 35.2137 30.8207 35.3402 31.0894C35.6655 31.7523 36.1174 31.7881 36.6596 31.2685C36.8765 31.0536 37.1476 30.9102 37.3825 30.7311L37.4006 30.7132Z" fill="#FFF3E0"/>
<path d="M56.7203 23.4756C57.5698 23.5293 58.4915 23.3681 59.2145 23.6906C59.6844 23.9056 60.0097 24.7834 60.082 25.3925C60.1543 26.0554 59.7748 26.7362 59.7205 27.417C59.6482 28.2411 59.7025 29.0831 59.6844 29.9251C59.6663 31.1613 59.8109 31.3405 61.0399 31.7167C61.1483 31.7525 61.2206 31.8421 61.5098 32.0571C59.6844 32.0571 58.0939 32.0571 56.4131 32.0571C56.5577 31.86 56.5938 31.7167 56.648 31.7167C58.0397 31.5734 58.0758 30.6059 58.0578 29.5489C58.0397 28.4023 58.0397 27.2557 58.0578 26.1271C58.0758 25.0521 58.2566 23.9056 56.4854 23.8339C56.5577 23.7085 56.648 23.601 56.7203 23.4756Z" fill="#FFF3E0"/>
<path d="M61.6368 23.512C62.4682 23.1716 63.173 23.3687 63.5707 24.1749C63.8779 24.8198 63.8056 25.4469 63.1369 25.7514C62.8116 25.8948 62.2513 25.8589 61.9621 25.6798C61.7272 25.5365 61.7091 25.0169 61.6549 24.6586C61.6007 24.3003 61.6368 23.9241 61.6368 23.512Z" fill="#FFF3E0"/>
<path d="M37.418 30.7494C37.8517 30.0507 38.2674 29.352 38.7012 28.6533C38.8639 29.3341 38.1409 30.3015 37.3818 30.7315C37.3999 30.7136 37.418 30.7494 37.418 30.7494Z" fill="#FFF3E0"/>
<path d="M53.1955 27.166C53.069 27.166 52.9424 27.1839 52.8159 27.166C52.2737 27.0585 51.4785 27.5601 51.2616 26.6106C51.0447 25.6431 51.6773 24.3174 52.5629 23.8337C53.3039 23.4216 54.0269 23.565 54.4606 24.2278C54.8763 24.8549 55.1474 25.5715 55.3643 26.2881C55.5089 26.7718 55.2378 27.1301 54.6775 27.166C54.1895 27.1839 53.7015 27.166 53.1955 27.166Z" fill="#1A130D"/>
<path d="M26.9893 27.3282C26.7543 28.3314 26.6459 29.478 26.2121 30.5171C25.6518 31.8966 24.7481 32.0041 23.736 30.9113C23.3746 30.5171 23.0492 29.9976 22.9227 29.4959C22.5613 27.9731 22.507 26.4503 23.0312 24.9454C23.1035 24.7125 23.1938 24.4796 23.3565 24.2825C24.3867 22.921 25.706 23.0822 26.3205 24.6767C26.6278 25.465 26.7543 26.3249 26.9893 27.3282Z" fill="#1A130D"/>
</svg>
