<svg width="172" height="61" viewBox="0 0 172 61" fill="none" xmlns="http://www.w3.org/2000/svg">
<path d="M0 61C0 40.6604 0 20.3396 0 0C57.3396 0 114.66 0 172 0C172 20.3396 172 40.6604 172 61C114.66 61 57.3396 61 0 61ZM29.759 41.2464C27.8837 38.0896 28.1489 35.3108 28.9445 32.4943C29.0771 32.0406 28.774 31.4924 28.7551 30.982C28.6793 29.1862 28.4709 27.3905 28.6604 25.6325C28.8119 24.2715 30.1947 23.9501 31.2176 24.8196C33.0172 26.313 33.074 29.2619 31.2555 30.6607C29.9674 31.6436 30.2326 32.3241 31.4449 33.0235C33.0551 33.9309 33.5855 35.4242 33.2256 37.0688C32.9414 38.392 32.2405 39.6207 31.7291 40.8872C33.3392 41.5866 36.37 40.339 37.374 38.4487C38.3969 36.5395 37.7529 34.1955 35.9154 33.0614C34.1537 31.9839 34.1727 31.7192 35.7639 30.3204C36.2564 29.8857 36.6731 29.224 36.8247 28.6002C37.374 26.2941 35.6692 24.0068 32.9414 23.7233C29.9106 23.4019 26.8419 23.4397 23.7921 23.3641C23.5269 23.3641 23.2806 23.5531 23.3943 23.5153C23.6405 25.7837 24.0573 27.8252 24.0383 29.8667C24.0004 33.3449 23.6784 36.842 23.5079 40.3201C23.489 40.6226 23.8489 41.2275 24.0573 41.2464C25.8379 41.2842 27.6185 41.2464 29.759 41.2464ZM120.76 23.3452C120.76 23.3263 120.76 23.3263 120.76 23.3074C119.282 23.3074 117.805 23.2696 116.346 23.3074C113.865 23.383 112.861 24.5739 113.164 27.0124C113.202 27.3148 113.448 27.8441 113.6 27.8441C113.959 27.8441 114.49 27.674 114.622 27.4094C115.778 25.1032 117.672 24.2904 120.154 24.5739C120.684 24.6306 121.215 24.7629 121.745 24.8575C121.593 25.4056 121.574 26.0294 121.29 26.4831C119.775 28.9216 118.184 31.3034 116.649 33.723C115.437 35.6511 114.244 37.5981 113.069 39.564C112.501 40.5091 112.615 41.3976 113.884 41.4543C115.153 41.511 116.536 41.4732 117.691 41.0384C118.203 40.8494 118.297 39.564 118.6 38.789C118.676 38.5621 118.79 38.3542 118.922 38.1652C121.518 34.0632 124.151 29.9991 126.689 25.8593C127.03 25.3111 127.219 24.4605 127.011 23.9123C126.878 23.5531 125.912 23.383 125.325 23.3452C123.81 23.2885 122.275 23.3452 120.76 23.3452ZM99.241 23.3074C99.241 23.2885 99.241 23.2696 99.241 23.2507C98.2938 23.2507 97.3467 23.1751 96.4185 23.2696C94.1454 23.4775 93.4066 24.3849 93.6529 26.6343C93.6908 26.9935 93.937 27.3526 94.0885 27.6929C94.4485 27.485 94.9978 27.3526 95.1683 27.0502C96.2101 25.0465 98.0097 24.5172 100.037 24.4416C100.624 24.4227 101.571 24.5739 101.722 24.9331C101.95 25.4623 101.817 26.3319 101.495 26.8612C99.2789 30.4527 96.9489 33.9687 94.7326 37.5414C94.1264 38.5432 93.8044 39.7152 93.3687 40.8116C94.4863 40.9817 95.604 41.2085 96.7216 41.3031C98.0286 41.4165 99.0894 41.1707 98.9379 39.4317C98.9 38.9591 99.1652 38.392 99.4493 37.9572C101.95 33.9309 104.507 29.9424 107.007 25.8971C107.348 25.3489 107.67 24.4416 107.424 23.9879C107.197 23.5531 106.25 23.3452 105.606 23.3263C103.465 23.2696 101.344 23.3074 99.241 23.3074ZM64.3485 41.3976C65.2767 41.3976 65.6934 41.4921 66.0533 41.3787C68.2317 40.7549 69.6524 38.8268 69.804 36.3505C69.9176 34.498 68.6106 32.5132 66.7731 31.5869C64.9925 30.6796 63.2687 29.6588 61.5071 28.6948C60.2379 27.9954 59.9916 26.9935 60.4841 25.727C61.3176 23.6099 64.3863 23.3263 66.0722 25.2544C66.6026 25.8782 66.9436 26.6721 67.5308 27.2203C67.815 27.485 68.7242 27.5417 68.9137 27.3148C69.8987 26.1429 68.9705 23.78 67.474 23.6099C65.5419 23.4019 63.5907 23.2129 61.6396 23.3074C58.3436 23.4775 56.2789 26.899 57.4912 29.9613C58.23 31.8327 59.6885 32.9101 61.4502 33.7797C62.9278 34.498 64.3485 35.3486 65.6745 36.3127C66.83 37.1444 66.7731 38.3164 65.9586 39.4128C65.5608 39.961 65.1062 40.4713 64.3485 41.3976ZM78.0819 34.1199C77.9304 34.0443 77.7789 33.9687 77.6273 33.8931C77.722 33.326 77.6652 32.6644 77.9304 32.1729C78.2714 31.5113 78.8397 30.982 79.3132 30.4149C79.8815 30.9064 80.6771 31.2845 80.9612 31.8894C81.9273 33.9876 82.704 36.1614 83.5374 38.3164C83.6132 38.5243 83.7269 38.8079 83.6701 38.9969C82.704 41.511 84.3899 41.3409 86 41.2842C86.341 41.2653 86.7009 41.4165 87.0608 41.3787C87.667 41.322 88.6899 41.3409 88.8035 41.0762C89.0119 40.5091 88.8414 39.7152 88.5952 39.1292C87.8753 37.3334 87.004 35.6133 86.2463 33.8364C84.9582 30.8875 83.7458 27.9008 82.4198 24.952C82.1925 24.4416 81.5295 24.1202 81.0749 23.7233C80.696 24.1769 80.1846 24.5739 79.9573 25.0843C79.4458 26.1996 79.1238 27.4094 78.6313 28.5246C77.0211 32.2485 75.3352 35.9724 73.744 39.6963C73.5546 40.15 73.5925 40.7171 73.5357 41.2275C74.2745 41.2653 75.0132 41.3976 75.733 41.2842C75.8656 41.2653 76.074 40.2256 75.8846 39.8475C75.3352 38.7512 75.6952 38.0328 76.396 37.1633C77.059 36.256 77.5137 35.1407 78.0819 34.1199ZM43.6819 23.5342C44.1934 24.8007 44.8943 25.8026 44.9322 26.8234C45.0458 29.7911 44.8943 32.7589 44.8374 35.7456C44.7996 37.2767 45.311 38.9024 44.1366 40.3012C44.0608 40.3957 44.5722 41.3409 44.8564 41.3598C46.2582 41.4732 47.6789 41.5299 49.0617 41.3976C49.933 41.322 50.3877 40.8116 49.7815 39.7908C49.4026 39.1292 49.2511 38.2597 49.2132 37.4847C49.1374 35.3297 49.0238 33.137 49.1943 30.982C49.4026 28.5624 48.3797 25.916 50.8802 23.5531C48.2471 23.5342 46.0498 23.5342 43.6819 23.5342ZM136.52 32.2296C136.653 32.3052 136.804 32.3808 136.937 32.4376C137.107 32.2296 137.316 32.0595 137.467 31.8327C137.827 31.3034 138.149 30.7363 138.509 30.1881C139.021 30.7741 139.665 31.2845 140.006 31.965C140.972 33.7986 140.877 36.0858 142.544 37.6359C142.847 37.9194 142.866 38.6377 142.847 39.1292C142.752 41.4543 142.771 41.4921 145.063 41.4165C148.473 41.2842 148.549 41.2653 147.28 38.2219C145.348 33.6284 143.321 29.0728 141.294 24.5172C141.142 24.158 140.612 23.7422 140.29 23.7611C139.949 23.78 139.513 24.2337 139.324 24.5928C138.85 25.4623 138.433 26.3697 138.111 27.3148C137.543 28.9405 137.051 30.5851 136.52 32.2296ZM108.826 36.3694C108.656 36.2938 108.504 36.1993 108.333 36.1236C107.481 37.1633 106.78 38.4298 105.719 39.167C104.621 39.9231 103.162 40.1878 101.855 40.6604C101.874 40.8116 101.874 40.9817 101.893 41.1329C103.389 41.2653 104.886 41.5677 106.363 41.4354C107.083 41.3598 108.068 40.6037 108.333 39.9421C108.75 38.8457 108.674 37.5603 108.826 36.3694ZM122.351 41.0195C123.715 41.7756 126.689 41.8891 127.617 40.8494C128.735 39.6018 128.318 38.0896 128.242 36.7096C126.121 38.2597 124.151 39.7152 122.351 41.0195ZM137.278 35.2919C136.861 34.6303 136.539 34.1199 136.217 33.6095C135.819 34.0254 135.289 34.3846 135.043 34.876C134.247 36.4261 133.546 38.0139 132.864 39.6207C132.675 40.0933 132.713 40.6793 132.656 41.1896C133.376 41.2085 134.133 41.3409 134.796 41.1707C135.043 41.114 135.289 40.1878 135.137 39.8097C134.569 38.3353 135.043 37.3334 136.274 36.5017C136.653 36.2371 136.88 35.7645 137.278 35.2919ZM61.7533 41.4732C61.848 41.2464 61.9427 41.0195 62.0374 40.7738C59.6696 40.339 59.0445 38.5054 58.3057 36.7663C58.1921 36.5206 57.7943 36.2938 57.5101 36.256C57.3396 36.2371 56.9419 36.5962 56.9419 36.7852C57.0366 38.2597 56.6956 40.2256 57.5101 41.0384C58.2868 41.7945 60.2758 41.3598 61.7533 41.4732Z" fill="#1A130D"/>
<path d="M29.7592 41.2462C27.6186 41.2462 25.838 41.284 24.0763 41.2084C23.868 41.2084 23.527 40.6035 23.527 40.2822C23.6785 36.804 24.0195 33.307 24.0574 29.8288C24.0763 27.7873 23.6596 25.7458 23.4133 23.4774C23.2997 23.5152 23.5649 23.3262 23.8111 23.3262C26.8609 23.4207 29.9296 23.364 32.9605 23.6853C35.6882 23.9689 37.3931 26.2561 36.8437 28.5623C36.6922 29.1861 36.2754 29.8666 35.7829 30.2825C34.1917 31.6624 34.1728 31.927 35.9345 33.0234C37.7719 34.1576 38.416 36.5016 37.3931 38.4108C36.3702 40.3011 33.3583 41.5487 31.7481 40.8493C32.2596 39.5828 32.9605 38.3352 33.2446 37.0308C33.6045 35.3674 33.0741 33.893 31.464 32.9856C30.2517 32.3051 29.9865 31.6246 31.2746 30.6227C33.0931 29.2239 33.0362 26.275 31.2367 24.7817C30.2138 23.9311 28.831 24.2524 28.6794 25.5945C28.471 27.3525 28.6984 29.1672 28.7741 30.9441C28.7931 31.4545 29.0772 32.0027 28.9636 32.4563C28.149 35.3107 27.8838 38.0894 29.7592 41.2462Z" fill="#FFF3E0"/>
<path d="M120.76 23.3453C122.294 23.3453 123.828 23.2886 125.344 23.3642C125.95 23.402 126.897 23.5721 127.03 23.9313C127.238 24.4795 127.03 25.3301 126.708 25.8783C124.151 29.9991 121.536 34.0822 118.941 38.1841C118.809 38.3732 118.695 38.6 118.619 38.8079C118.316 39.583 118.221 40.8684 117.71 41.0574C116.554 41.4922 115.172 41.53 113.903 41.4733C112.633 41.4165 112.52 40.5281 113.088 39.583C114.243 37.617 115.437 35.67 116.668 33.7419C118.203 31.3223 119.794 28.9406 121.309 26.5021C121.593 26.0484 121.612 25.4246 121.764 24.8764C121.233 24.7819 120.703 24.6496 120.173 24.5929C117.691 24.3093 115.797 25.1222 114.641 27.4283C114.509 27.693 113.978 27.8631 113.618 27.8631C113.467 27.8631 113.221 27.3338 113.183 27.0314C112.88 24.5929 113.884 23.4209 116.365 23.3264C117.843 23.2886 119.32 23.3264 120.779 23.3264C120.76 23.3264 120.76 23.3264 120.76 23.3453Z" fill="#FFF3E0"/>
<path d="M99.2408 23.3077C101.362 23.3077 103.465 23.2509 105.587 23.3455C106.231 23.3644 107.197 23.5912 107.405 24.0071C107.632 24.4607 107.329 25.3681 106.988 25.9163C104.507 29.9615 101.95 33.95 99.4302 37.9764C99.165 38.4112 98.8809 38.9593 98.9188 39.4508C99.0703 41.1899 98.0095 41.4356 96.7025 41.3222C95.5849 41.2277 94.4672 41.0009 93.3496 40.8307C93.8042 39.7344 94.1073 38.5435 94.7135 37.5605C96.9298 33.9689 99.2597 30.453 101.476 26.8803C101.798 26.351 101.931 25.4815 101.703 24.9522C101.552 24.612 100.605 24.4418 100.017 24.4607C97.9906 24.5174 96.191 25.0656 95.1492 27.0693C94.9787 27.3907 94.4483 27.5041 94.0694 27.7121C93.9179 27.3529 93.6716 27.0126 93.6338 26.6535C93.3875 24.404 94.1073 23.4967 96.3994 23.2887C97.3276 23.1942 98.2937 23.2698 99.2219 23.2698C99.2408 23.2698 99.2408 23.2887 99.2408 23.3077Z" fill="#FFF3E0"/>
<path d="M64.3486 41.3974C65.1063 40.4712 65.5609 39.9608 65.9777 39.4126C66.7922 38.2973 66.849 37.1443 65.6935 36.3125C64.3675 35.3485 62.9468 34.5167 61.4693 33.7795C59.7076 32.91 58.249 31.8514 57.5103 29.9611C56.2979 26.8988 58.3627 23.4585 61.6587 23.3073C63.5909 23.2127 65.5609 23.4018 67.4931 23.6097C68.9895 23.7798 69.9177 26.1427 68.9327 27.3147C68.7433 27.5415 67.834 27.4659 67.5499 27.2202C66.9627 26.672 66.6217 25.8592 66.0913 25.2543C64.4054 23.3262 61.3177 23.5908 60.5032 25.7268C60.0107 27.0122 60.2569 28.0141 61.5261 28.6946C63.2878 29.6587 65.0116 30.6794 66.7922 31.5868C68.6296 32.5319 69.9367 34.4978 69.823 36.3503C69.6715 38.8077 68.2508 40.7547 66.0724 41.3785C65.6935 41.473 65.2768 41.3974 64.3486 41.3974Z" fill="#FFF3E0"/>
<path d="M78.0821 34.1203C77.5138 35.141 77.0592 36.2563 76.3394 37.1637C75.6385 38.0332 75.2786 38.7515 75.8279 39.8479C76.0173 40.226 75.809 41.2656 75.6764 41.2845C74.9565 41.3979 74.2178 41.2656 73.479 41.2278C73.5548 40.7174 73.4979 40.1503 73.6874 39.6967C75.2975 35.9539 76.9645 32.2489 78.5746 28.525C79.0671 27.3908 79.3891 26.1999 79.9006 25.0846C80.1279 24.5743 80.6394 24.1773 81.0182 23.7236C81.4728 24.1395 82.1358 24.4419 82.3631 24.9523C83.6891 27.8823 84.9015 30.869 86.1896 33.8367C86.9662 35.6136 87.8187 37.3338 88.5385 39.1296C88.7847 39.7345 88.9552 40.5284 88.7468 41.0766C88.6521 41.3601 87.6292 41.3223 87.0041 41.379C86.6631 41.4168 86.3032 41.2656 85.9433 41.2845C84.3521 41.3412 82.6662 41.5114 83.6134 38.9973C83.6891 38.8082 83.5755 38.5247 83.4808 38.3168C82.6473 36.1618 81.8517 33.988 80.9046 31.8897C80.6204 31.2848 79.8248 30.9068 79.2565 30.4153C78.783 31.0013 78.2147 31.5306 77.8737 32.1733C77.6275 32.6648 77.6653 33.3075 77.5706 33.8934C77.779 33.9691 77.9305 34.0447 78.0821 34.1203Z" fill="#FFF3E0"/>
<path d="M43.6821 23.5342C46.0689 23.5342 48.2473 23.5342 50.8993 23.5342C48.3989 25.8971 49.4218 28.5435 49.2134 30.9631C49.024 33.118 49.1566 35.2918 49.2323 37.4657C49.2702 38.2407 49.4028 39.1292 49.8006 39.7719C50.4068 40.7926 49.9522 41.303 49.0808 41.3786C47.679 41.5109 46.2583 41.4731 44.8755 41.3408C44.5914 41.3219 44.061 40.3768 44.1557 40.2822C45.3491 38.8834 44.8376 37.2767 44.8566 35.7266C44.9134 32.7588 45.0649 29.7722 44.9513 26.8044C44.8945 25.7836 44.1936 24.8007 43.6821 23.5342Z" fill="#FFF3E0"/>
<path d="M136.521 32.2296C137.051 30.585 137.543 28.9404 138.131 27.3337C138.472 26.4074 138.869 25.4812 139.343 24.6116C139.532 24.2525 139.968 23.7988 140.309 23.7799C140.631 23.761 141.161 24.1769 141.313 24.536C143.34 29.0917 145.367 33.6473 147.299 38.2407C148.568 41.2841 148.511 41.303 145.083 41.4353C142.772 41.5298 142.753 41.492 142.866 39.1481C142.885 38.6377 142.866 37.9383 142.563 37.6547C140.896 36.0858 140.991 33.7985 140.025 31.9838C139.665 31.3222 139.021 30.7929 138.528 30.2069C138.187 30.7551 137.846 31.3033 137.487 31.8515C137.335 32.0783 137.127 32.2485 136.956 32.4564C136.805 32.3619 136.653 32.2863 136.521 32.2296Z" fill="#FFF3E0"/>
<path d="M108.826 36.3691C108.693 37.56 108.75 38.8454 108.333 39.9229C108.068 40.6034 107.083 41.3595 106.363 41.4162C104.905 41.5486 103.389 41.2461 101.893 41.1138C101.874 40.9626 101.874 40.7924 101.855 40.6412C103.162 40.1686 104.621 39.9229 105.719 39.1479C106.78 38.4107 107.481 37.1442 108.333 36.1045C108.504 36.199 108.655 36.2935 108.826 36.3691Z" fill="#FFF3E0"/>
<path d="M122.351 41.0198C124.151 39.6966 126.121 38.26 128.242 36.71C128.318 38.0899 128.735 39.5832 127.617 40.8497C126.689 41.9083 123.715 41.776 122.351 41.0198Z" fill="#FFF3E0"/>
<path d="M137.278 35.2917C136.899 35.7643 136.653 36.2369 136.274 36.5015C135.043 37.3522 134.588 38.3351 135.137 39.8096C135.289 40.1876 135.024 41.1139 134.796 41.1706C134.133 41.3407 133.376 41.2084 132.656 41.1895C132.713 40.6602 132.656 40.0931 132.864 39.6205C133.527 38.0138 134.247 36.4259 135.043 34.8759C135.289 34.3844 135.819 34.0252 136.217 33.6094C136.539 34.1198 136.861 34.6301 137.278 35.2917Z" fill="#FFF3E0"/>
<path d="M61.7535 41.4731C60.2949 41.3597 58.287 41.7945 57.5103 41.0195C56.6958 40.2066 57.0367 38.2407 56.942 36.7663C56.9231 36.5962 57.3398 36.2181 57.5103 36.237C57.7945 36.2748 58.2112 36.5017 58.3059 36.7474C59.0636 38.5054 59.6698 40.3201 62.0376 40.7548C61.9429 41.0006 61.8482 41.2274 61.7535 41.4731Z" fill="#FFF3E0"/>
</svg>
