<svg width="72" height="62" viewBox="0 0 72 62" fill="none" xmlns="http://www.w3.org/2000/svg">
<path d="M-0.892578 -1C24.0643 -1 49.0212 -1 73.9996 -1C73.9996 20.4989 73.9996 41.9762 73.9996 63.4751C49.0427 63.4751 24.0858 63.4751 -0.892578 63.4751C-0.892578 41.9331 -0.892578 20.4773 -0.892578 -1ZM25.0729 20.1107C24.0214 17.1565 21.6824 15.9921 18.8498 15.4314C18.9356 15.3021 18.9571 15.2374 19 15.2158C19.0858 15.1727 19.1717 15.1295 19.279 15.0864C20.0944 14.7198 20.9528 14.4179 21.7253 13.9867C23.6995 12.8869 24.6652 10.5581 24.0429 8.38015C23.5493 6.61194 22.2618 5.5122 20.6309 4.8006C19.1502 4.15369 17.5837 4.02431 15.9957 4.02431C12.1975 4.02431 8.42066 4.02431 4.6224 4.00275C4.27906 4.00275 4.12885 4.11056 4.10739 4.45558C4.08593 5.01623 4.17176 5.10249 4.7297 5.08093C5.58806 5.05936 5.58806 5.05936 5.58806 5.87878C5.58806 12.7576 5.58806 19.6579 5.58806 26.5367C5.58806 27.3992 5.5666 27.4208 4.68678 27.3777C4.12885 27.3561 4.06447 27.4423 4.06447 28.0246C4.08593 28.4774 4.34344 28.499 4.68678 28.4774C8.5065 28.4774 12.3048 28.4774 16.1245 28.4774C17.6481 28.4774 19.1502 28.4127 20.6094 27.9383C22.8412 27.2267 24.4935 25.8682 25.0944 23.4746C25.1158 23.3453 25.2017 23.2374 25.309 22.9787C25.4592 23.4315 25.5665 23.7118 25.6738 23.9922C26.5965 26.1701 28.2703 27.4855 30.4806 28.1755C33.0771 29.0165 35.7381 29.0596 38.3775 28.4774C40.7166 27.9599 42.5406 26.7307 43.6565 24.5744C44.5577 22.8062 44.5148 20.9517 43.8925 19.0972C43.7208 18.5582 43.7638 18.515 44.3002 18.3641C46.4247 17.825 47.9912 16.6174 48.7423 14.4826C48.7852 14.3748 48.871 14.267 48.9354 14.1808C48.9783 14.1808 49.0212 14.2023 49.0642 14.2023C49.0856 14.3964 49.1285 14.5905 49.1285 14.7845C49.1285 18.7091 49.1285 22.6337 49.1285 26.5798C49.1285 27.3561 49.0641 27.4423 48.2916 27.3992C47.841 27.3777 47.6049 27.4855 47.6264 27.9599C47.6264 28.4343 47.8839 28.5205 48.2916 28.499C50.7165 28.4774 53.1628 28.5205 55.5877 28.4774C57.7551 28.4558 59.9439 28.4558 62.1113 28.3265C63.8924 28.2402 65.5447 27.6149 66.9181 26.4289C69.4074 24.2509 69.1928 20.6283 67.755 18.4719C66.6177 16.7468 64.8795 15.8843 62.8623 15.5393C62.6907 15.5177 62.5404 15.4314 62.3902 15.3883C62.3902 15.3452 62.3902 15.2805 62.3902 15.2374C62.5834 15.1727 62.7765 15.0864 62.9696 15.0217C64.858 14.4611 66.446 13.4907 67.3258 11.6147C67.9696 10.2777 67.9481 8.87611 67.3044 7.56074C66.5104 5.94347 65.137 4.97311 63.4203 4.47715C61.9611 4.04587 60.4804 3.98118 58.9782 3.98118C55.416 3.98118 51.8753 3.98118 48.3131 3.98118C47.8839 3.98118 47.6264 4.06744 47.6479 4.5634C47.6479 5.08093 47.9697 5.08093 48.3345 5.05936C48.4204 5.05936 48.5062 5.05936 48.5921 5.05936C48.9998 5.0378 49.1714 5.18874 49.1714 5.62001C49.15 7.08634 49.1714 8.55266 49.1714 10.019C49.1714 10.1699 49.1071 10.3424 49.0427 10.6228C48.9139 10.4287 48.8496 10.364 48.8281 10.2777C48.5277 9.24269 47.8624 8.50953 46.8968 8.01357C45.9097 7.51761 44.4934 7.8195 43.914 8.7036C43.4204 9.43677 43.3775 10.2131 43.8281 10.9678C44.1929 11.5931 44.7938 11.9381 45.5234 11.9166C46.3603 11.8734 47.0041 11.4853 47.283 10.6228C47.3045 10.5365 47.4547 10.3856 47.4976 10.4071C47.6049 10.4503 47.7766 10.5581 47.7766 10.6443C47.7766 11.0972 47.8624 11.5931 47.6908 12.0028C47.2401 13.2104 46.1672 13.5985 45.0084 13.7279C43.6135 13.8789 42.2187 13.9004 40.8453 14.0298C38.2059 14.267 35.8883 15.1727 34.5149 17.6309C33.6136 19.2266 33.3346 20.9517 34.2788 22.6552C34.9441 23.8412 36.5321 24.5744 37.8411 23.4531C38.7423 22.6768 38.914 21.3183 38.1844 20.4126C37.5192 19.5932 36.2531 19.5285 35.3518 20.2401C35.266 20.3048 35.1587 20.3479 34.9226 20.4773C34.987 20.2185 34.987 20.046 35.0728 19.9598C35.6093 19.4854 36.1243 18.9032 36.7466 18.5797C37.9054 17.9544 39.193 17.9759 40.4376 18.3425C41.4462 18.6444 42.3045 19.2051 42.841 20.197C43.7852 21.9868 42.9269 24.3156 41.4247 25.5879C39.6865 27.0758 37.6479 27.5286 35.4162 27.1405C33.5707 26.817 32.1973 25.7819 31.5965 23.9922C30.9312 22.0946 30.9741 20.1107 31.3604 18.1269C31.7252 16.2509 33.0986 15.2158 34.8368 14.9786C35.2445 14.9139 35.6522 14.9139 36.0385 14.8061C36.2102 14.763 36.3175 14.5258 36.4677 14.3964C36.3175 14.267 36.2102 14.0729 36.0385 14.0082C35.8239 13.922 35.5664 13.9436 35.3303 13.922C34.4076 13.8142 33.3561 12.9732 33.0771 12.0244C32.6909 10.6443 32.6694 9.24269 32.8411 7.86263C32.9269 7.19415 33.2488 6.43943 33.6995 5.94347C35.4162 4.11057 38.2917 5.01623 39.2574 6.65507C39.4505 6.97852 39.6865 7.3451 39.4719 7.84106C39.2788 7.71168 39.1286 7.60386 38.9998 7.49605C38.0127 6.69819 36.532 6.89226 35.781 7.90575C35.0728 8.89768 35.3089 10.1915 36.3389 10.9893C37.3475 11.7656 39.0857 11.6147 39.8153 10.709C41.4247 8.74673 40.5449 6.1591 38.914 4.90842C37.7552 4.02431 36.4033 3.70086 34.987 3.65773C32.7123 3.59304 30.6523 4.17526 28.8926 5.70627C27.5407 6.8707 26.854 9.58771 27.7338 11.205C28.3561 12.3694 29.2574 13.232 30.3948 13.8789C30.545 13.9651 30.6952 14.0945 30.9741 14.2886C29.3862 14.612 28.0986 15.1942 27.0042 16.2293C25.9313 17.3075 25.309 18.5582 25.0729 20.1107ZM65.8451 55.6906C66.5533 55.6906 67.2829 55.6906 67.9911 55.7122C68.3988 55.7337 68.5061 55.5612 68.4417 55.1947C68.0984 53.0599 67.755 50.9251 67.4117 48.7687C66.8323 45.1892 66.2314 41.6312 65.652 38.0516C65.3301 36.154 65.0297 34.2349 64.7293 32.3373C64.6649 31.9707 64.5576 31.7551 64.1284 31.7551C61.9611 31.7766 59.8151 31.7766 57.6478 31.7551C57.1971 31.7551 57.0469 31.9276 56.9826 32.3373C56.8538 33.2214 56.7036 34.0839 56.5748 34.968C56.0598 38.1594 55.5448 41.3724 55.0298 44.5638C54.4718 48.0787 53.8924 51.572 53.3345 55.0868C53.2487 55.6044 53.3345 55.6906 53.8495 55.6906C54.7293 55.6906 55.6092 55.6906 56.5104 55.6906C57.1757 55.6906 57.2186 55.6691 57.3259 55.0006C57.6049 53.2971 57.8838 51.5935 58.1628 49.89C58.2272 49.5234 58.3988 49.3941 58.7422 49.3941C59.7079 49.4156 60.6735 49.3941 61.6392 49.3941C62.004 49.3941 62.1756 49.5234 62.24 49.9116C62.4975 51.6367 62.8194 53.3402 63.0984 55.0653C63.1628 55.5181 63.3774 55.7122 63.8495 55.6906C64.4932 55.669 65.1799 55.6906 65.8451 55.6906ZM28.9999 31.7982C27.927 31.7982 26.854 31.8197 25.7811 31.7766C25.3733 31.7766 25.1802 31.9276 25.1373 32.3157C24.751 34.8386 24.3433 37.34 23.9356 39.863C23.5922 42.0193 23.2489 44.1757 22.9055 46.332C22.4334 49.2862 21.9613 52.2404 21.4892 55.1731C21.4249 55.5397 21.5536 55.7122 21.9613 55.6906C22.8626 55.669 23.7639 55.6906 24.6652 55.6906C25.309 55.6906 25.3733 55.6475 25.4592 54.979C25.7381 53.2971 26.0171 51.6151 26.2746 49.9116C26.339 49.545 26.4892 49.3725 26.8755 49.3941C27.8411 49.4156 28.8068 49.4156 29.7724 49.3941C30.1372 49.3941 30.3089 49.5234 30.3733 49.9116C30.6523 51.6582 30.9527 53.4049 31.2531 55.1731C31.3175 55.5397 31.4463 55.6906 31.854 55.6906C33.2917 55.669 34.708 55.669 36.1458 55.6906C36.575 55.6906 36.6823 55.5397 36.6179 55.13C36.4248 54.0733 36.2745 53.0167 36.1029 51.9386C35.3303 47.324 34.5578 42.7093 33.8067 38.0947C33.5063 36.2187 33.2059 34.3427 32.9055 32.4882C32.7982 31.7766 32.7767 31.7766 32.0686 31.7766C31.0385 31.7982 30.0085 31.7982 28.9999 31.7982ZM14.9657 45.7067C14.9871 45.7067 14.9871 45.7067 15.0086 45.7067C15.0086 48.8334 15.0086 51.9601 15.0086 55.0868C15.0086 55.5612 15.1374 55.7122 15.6309 55.6906C17.0472 55.669 18.442 55.6906 19.8583 55.6906C20.4807 55.6906 20.545 55.6259 20.545 54.979C20.545 48.7903 20.545 42.58 20.5236 36.3912C20.5236 35.9599 20.6738 35.809 21.0815 35.809C21.854 35.8306 22.648 35.7874 23.4206 35.809C23.8283 35.8306 23.957 35.6796 23.957 35.2699C23.9356 34.2564 23.957 33.2214 23.957 32.2079C23.957 31.8629 23.7854 31.7766 23.4849 31.7766C19.6867 31.7766 15.867 31.7766 12.0687 31.7766C11.7039 31.7766 11.5537 31.9276 11.5537 32.2941C11.5537 33.3076 11.5537 34.2996 11.5537 35.313C11.5537 35.6581 11.6824 35.809 12.0472 35.809C12.8412 35.809 13.6352 35.8306 14.4507 35.809C14.8798 35.809 15.0086 35.9384 15.0086 36.3697C14.9657 39.4748 14.9657 42.58 14.9657 45.7067ZM37.4762 43.7013C37.4762 47.518 37.4762 51.3563 37.4548 55.1731C37.4548 55.5828 37.6694 55.6906 38.0342 55.6906C40.738 55.6906 43.4419 55.6906 46.1457 55.6906C46.4891 55.6906 46.6393 55.5612 46.6393 55.2162C46.6393 54.2027 46.6393 53.2108 46.6393 52.1973C46.6393 51.766 46.4676 51.6367 46.0599 51.6367C45.1157 51.6582 44.1929 51.6367 43.2487 51.6582C42.8196 51.6582 42.6693 51.4857 42.6693 51.076C42.6693 46.9574 42.6908 42.8387 42.6908 38.7417C42.6908 36.6069 42.6693 34.4721 42.6908 32.3373C42.6908 31.9276 42.562 31.7551 42.1329 31.7766C40.7595 31.7982 39.3861 31.7982 38.0127 31.7766C37.605 31.7766 37.4762 31.9276 37.4977 32.3157C37.4977 36.1109 37.4762 39.9061 37.4762 43.7013ZM52.5405 43.766C52.5191 42.2996 52.5405 40.8333 52.5191 39.367C52.5191 37.0166 52.5191 34.6446 52.5191 32.2941C52.5191 32.0138 52.4976 31.7766 52.1328 31.7766C50.695 31.7766 49.2358 31.7982 47.7981 31.7982C47.3903 31.7982 47.326 31.9707 47.326 32.3373C47.3474 37.1244 47.3474 41.9115 47.3474 46.6986C47.3474 49.5234 47.3474 52.3698 47.326 55.1947C47.326 55.4965 47.3903 55.7122 47.7337 55.7122C49.2144 55.7122 50.695 55.7122 52.1757 55.669C52.3045 55.669 52.5405 55.4103 52.5405 55.2593C52.5405 51.421 52.5405 47.5827 52.5405 43.766ZM5.63098 43.7013C5.63098 47.4965 5.65244 51.2916 5.63098 55.0868C5.63098 55.5828 5.80265 55.7337 6.29621 55.7337C7.30479 55.6906 8.33482 55.6906 9.36486 55.7122C10.8026 55.7337 10.8026 55.7337 10.8026 54.3105C10.8026 46.9789 10.8026 39.6473 10.8026 32.3373C10.8026 31.9707 10.6953 31.7982 10.3091 31.7982C8.95714 31.8197 7.58376 31.8197 6.23184 31.7982C5.78119 31.7982 5.63098 31.9491 5.63098 32.3804C5.63098 36.1325 5.63098 39.9276 5.63098 43.7013Z" fill="#1A130D"/>
<path d="M-0.892705 -1C-0.892705 20.4773 -0.892705 41.9331 -0.892705 63.4751C24.0857 63.4751 49.0426 63.4751 73.9995 63.4751C73.978 63.5182 73.9565 63.5613 73.9565 63.5829C73.8278 63.5829 73.6776 63.5829 73.5488 63.5829C48.6992 63.5829 23.8496 63.5829 -1 63.5829C-1 42.2134 -1 20.8439 -1 -0.547165C-1 -0.69811 -0.935623 -0.849055 -0.892705 -1Z" fill="#FFF3E0"/>
<path d="M25.0734 20.1108C25.288 18.5583 25.9318 17.3076 27.0047 16.2725C28.0777 15.259 29.3867 14.6768 30.9746 14.3318C30.6957 14.1377 30.5669 14.0083 30.3952 13.9221C29.2579 13.2752 28.3781 12.4126 27.7343 11.2482C26.8545 9.63094 27.5412 6.91393 28.8931 5.7495C30.6528 4.24005 32.7128 3.63627 34.9875 3.70096C36.4038 3.74408 37.7557 4.06754 38.9145 4.95164C40.5454 6.20233 41.4252 8.78996 39.8158 10.7522C39.0647 11.6579 37.348 11.8304 36.3394 11.0326C35.3094 10.2347 35.0733 8.96247 35.7815 7.94898C36.5111 6.91393 38.0132 6.71986 39.0003 7.53927C39.1505 7.64709 39.3008 7.75491 39.4724 7.88429C39.687 7.38833 39.451 7.02175 39.2578 6.69829C38.2922 5.05946 35.4167 4.15379 33.6999 5.9867C33.2493 6.48266 32.9274 7.23738 32.8416 7.90585C32.6699 9.28592 32.6914 10.6876 33.0776 12.0676C33.3351 13.0164 34.3866 13.8574 35.3308 13.9652C35.5669 13.9868 35.8244 13.9652 36.039 14.0515C36.2107 14.1162 36.3394 14.3102 36.4682 14.4396C36.3179 14.5906 36.2107 14.8062 36.039 14.8493C35.6527 14.9571 35.245 14.9787 34.8373 15.0218C33.0991 15.259 31.7257 16.2941 31.3609 18.1701C30.9746 20.154 30.9317 22.1162 31.5969 24.0354C32.2193 25.8252 33.5712 26.8602 35.4167 27.1837C37.6484 27.5718 39.687 27.0974 41.4252 25.6311C42.9273 24.3589 43.7857 22.03 42.8415 20.2402C42.3265 19.2483 41.4467 18.6876 40.4381 18.3857C39.2149 18.0192 37.9274 18.0192 36.7471 18.6229C36.1248 18.9464 35.6313 19.5286 35.0733 20.003C34.9875 20.0893 34.9875 20.2618 34.9231 20.5205C35.1377 20.3912 35.245 20.348 35.3523 20.2833C36.2536 19.5502 37.5197 19.6364 38.1849 20.4558C38.9145 21.34 38.7428 22.72 37.8415 23.4963C36.554 24.5961 34.9446 23.8629 34.2793 22.6985C33.3137 20.9949 33.6141 19.2699 34.5154 17.6741C35.8888 15.2375 38.2063 14.3102 40.8458 14.073C42.2407 13.9437 43.6355 13.9221 45.0089 13.7711C46.1677 13.6418 47.2192 13.2321 47.6913 12.0461C47.8415 11.6363 47.7771 11.1404 47.7771 10.6876C47.7771 10.6013 47.6054 10.4935 47.4981 10.4504C47.4552 10.4288 47.305 10.5797 47.2835 10.666C47.0046 11.5285 46.3608 11.9167 45.5239 11.9598C44.7943 12.0029 44.1934 11.6579 43.8286 11.011C43.378 10.2563 43.4209 9.47999 43.9145 8.74683C44.4939 7.86273 45.9102 7.56084 46.8973 8.0568C47.8415 8.55276 48.5067 9.28592 48.8286 10.321C48.85 10.3857 48.9144 10.4504 49.0432 10.666C49.1076 10.3857 49.1719 10.2132 49.1719 10.0622C49.1719 8.59589 49.1505 7.12956 49.1719 5.66324C49.1719 5.23197 49.0003 5.08103 48.5925 5.10259C48.5067 5.10259 48.4209 5.10259 48.335 5.10259C47.9702 5.12415 47.6483 5.14572 47.6483 4.60663C47.6483 4.11067 47.9058 4.02441 48.3136 4.02441C51.8758 4.04597 55.4165 4.04597 58.9787 4.02441C60.4809 4.02441 61.9615 4.0891 63.4208 4.52037C65.1375 5.0379 66.4894 6.00826 67.3048 7.60396C67.9701 8.91934 67.9701 10.321 67.3263 11.6579C66.4465 13.5339 64.8585 14.4827 62.9701 15.065C62.777 15.1296 62.5838 15.1943 62.3907 15.2806C62.3907 15.3237 62.3907 15.3884 62.3907 15.4315C62.5409 15.4747 62.7126 15.5609 62.8628 15.5825C64.88 15.9275 66.6182 16.79 67.7555 18.5151C69.1718 20.6715 69.4078 24.2942 66.9186 26.4721C65.5452 27.6581 63.9143 28.2834 62.1118 28.3697C59.9444 28.4775 57.7556 28.4991 55.5882 28.5206C53.1633 28.5422 50.717 28.5206 48.2921 28.5422C47.8844 28.5422 47.6269 28.4559 47.6269 28.0031C47.6269 27.5071 47.8629 27.3993 48.2921 27.4424C49.0861 27.4856 49.129 27.4209 49.129 26.623C49.129 22.6985 49.129 18.7739 49.129 14.8278C49.129 14.6337 49.0861 14.4396 49.0646 14.2455C49.0217 14.2455 48.9788 14.224 48.9359 14.224C48.8715 14.3318 48.7857 14.418 48.7428 14.5259C47.9917 16.6607 46.4252 17.8682 44.3007 18.4073C43.7642 18.5367 43.6999 18.6014 43.893 19.1405C44.5153 20.9949 44.5582 22.8494 43.657 24.6176C42.5625 26.774 40.7171 28.0031 38.378 28.5206C35.7171 29.1028 33.0776 29.0381 30.4811 28.2187C28.2923 27.5287 26.597 26.2133 25.6742 24.0354C25.5669 23.7551 25.4597 23.4747 25.3094 23.0219C25.2021 23.2807 25.1163 23.3885 25.0948 23.5179C24.494 25.9114 22.8631 27.2699 20.6099 27.9815C19.1507 28.4559 17.6271 28.5206 16.125 28.5206C12.3267 28.5422 8.50699 28.5206 4.68727 28.5206C4.34392 28.5206 4.08642 28.5206 4.06496 28.0678C4.0435 27.5071 4.10787 27.3993 4.68727 27.4209C5.54563 27.464 5.58855 27.4209 5.58855 26.5799C5.58855 19.7011 5.58855 12.8008 5.58855 5.922C5.58855 5.08103 5.58855 5.08103 4.73019 5.12415C4.15079 5.14572 4.08642 5.05946 4.10787 4.49881C4.10787 4.15379 4.25809 4.04597 4.62289 4.04597C8.42115 4.06754 12.1979 4.04597 15.9962 4.06754C17.5842 4.06754 19.1721 4.19692 20.6314 4.84383C22.2408 5.55542 23.5283 6.6336 24.0434 8.42338C24.6657 10.6013 23.7 12.9302 21.7258 14.0299C20.9532 14.4612 20.0949 14.7631 19.2794 15.1296C19.1936 15.1728 19.0863 15.2159 19.0005 15.259C18.9576 15.2806 18.9361 15.3453 18.8503 15.4747C21.6829 15.9922 24.0434 17.1566 25.0734 20.1108ZM13.0349 21.6634C13.0134 21.6634 13.0134 21.6634 12.9919 21.6634C12.9919 23.3885 12.9919 25.1136 12.9919 26.8387C12.9919 27.1837 13.0563 27.4856 13.464 27.4856C14.2366 27.4856 14.9876 27.464 15.7602 27.4209C16.8116 27.3778 17.5413 26.7955 17.8846 25.8467C18.185 25.0058 18.4211 24.1217 18.5498 23.2375C18.8073 21.6203 18.743 20.003 18.2279 18.4289C17.9275 17.5232 17.4769 16.7469 16.5756 16.3588C15.5456 15.9059 14.4511 15.8844 13.3782 16.0353C13.2494 16.0569 13.0778 16.3803 13.0563 16.5528C13.0349 18.2348 13.0349 19.9599 13.0349 21.6634ZM56.5753 21.7065C56.5538 21.7065 56.5539 21.7065 56.5324 21.7065C56.5324 23.4101 56.5324 25.1136 56.5324 26.8171C56.5324 27.2052 56.6182 27.464 57.0474 27.464C57.6483 27.464 58.2277 27.464 58.8285 27.464C60.0302 27.4209 60.9959 26.9896 61.4465 25.8036C61.6611 25.243 61.8757 24.6607 61.983 24.057C62.3693 21.9437 62.4122 19.8521 61.5324 17.8251C61.1675 16.9626 60.5452 16.3372 59.601 16.1863C58.8285 16.0569 58.0131 16.0353 57.2405 15.9491C56.7684 15.9059 56.5753 16.0784 56.5753 16.5744C56.5753 18.2995 56.5753 20.003 56.5753 21.7065ZM12.9919 10.0191C13.0134 10.0191 13.0134 10.0191 13.0349 10.0191C13.0349 11.4854 13.0563 12.9517 13.0349 14.418C13.0349 14.8924 13.2065 15.0434 13.6357 14.9571C14.1722 14.8709 14.7087 14.8062 15.2237 14.6768C16.3395 14.3965 17.1121 13.6633 17.3481 12.5636C17.7558 10.7091 17.8417 8.81152 17.2623 6.95706C16.9189 5.83575 16.1893 5.16728 14.9876 5.10259C14.4941 5.08103 14.0005 5.10259 13.5069 5.08103C13.0992 5.05946 12.949 5.25353 12.949 5.66324C13.0134 7.108 12.9919 8.57432 12.9919 10.0191ZM56.5324 10.0191C56.5539 10.0191 56.5538 10.0191 56.5753 10.0191C56.5753 11.4854 56.5753 12.9517 56.5753 14.418C56.5753 14.8062 56.7041 15.0003 57.1118 14.9571C57.2405 14.9356 57.3478 14.9571 57.4766 14.9571C59.0002 14.8062 60.3521 14.3318 60.8671 12.7145C61.0817 12.0245 61.1246 11.2698 61.189 10.5582C61.2963 9.1781 61.2534 7.8196 60.674 6.54735C60.4379 6.02982 60.159 5.46917 59.5581 5.36135C58.6568 5.21041 57.7556 5.16728 56.8328 5.12415C56.747 5.12415 56.5539 5.40448 56.5539 5.55542C56.5109 7.04331 56.5324 8.5312 56.5324 10.0191Z" fill="#FFF3E0"/>
<path d="M65.8443 55.6904C65.1576 55.6904 64.4924 55.6689 63.8057 55.6904C63.3336 55.712 63.1404 55.5179 63.0546 55.0651C62.7756 53.34 62.4752 51.6365 62.1962 49.9114C62.1319 49.5233 61.9602 49.3939 61.5954 49.3939C60.6297 49.4154 59.6641 49.4154 58.6984 49.3939C58.3551 49.3939 58.1834 49.5233 58.119 49.8898C57.84 51.5934 57.5611 53.2969 57.2821 55.0004C57.1748 55.6689 57.1533 55.6904 56.4667 55.6904C55.5868 55.6904 54.707 55.6904 53.8057 55.6904C53.2907 55.6904 53.2049 55.6042 53.2907 55.0867C53.8487 51.5718 54.428 48.0785 54.986 44.5636C55.501 41.3722 56.016 38.1593 56.531 34.9679C56.6813 34.0837 56.8315 33.2212 56.9388 32.3371C57.0031 31.9274 57.1534 31.7549 57.604 31.7549C59.7714 31.7764 61.9173 31.7764 64.0846 31.7549C64.5353 31.7549 64.6426 31.9705 64.6855 32.3371C64.9859 34.2347 65.2863 36.1539 65.6082 38.0514C66.1876 41.631 66.7885 45.189 67.3679 48.7685C67.7112 50.9033 68.0546 53.0381 68.3979 55.1945C68.4623 55.5611 68.355 55.7336 67.9473 55.712C67.282 55.6689 66.5739 55.6904 65.8443 55.6904ZM65.7155 54.9788C66.1876 54.9788 66.6597 54.9788 67.1533 54.9788C67.561 54.9788 67.7327 54.8495 67.6683 54.3966C67.1104 51.1837 66.5739 47.9707 66.0589 44.7577C65.4366 40.9625 64.8142 37.1458 64.1919 33.329C64.0417 32.4449 64.0417 32.4449 63.2048 32.4449C61.5954 32.4449 59.9645 32.4665 58.3551 32.4234C57.7971 32.4018 57.604 32.6174 57.5396 33.135C57.2177 35.1619 56.8744 37.1673 56.5525 39.1943C56.0804 42.1054 55.6298 45.0165 55.1577 47.9491C54.8143 50.1055 54.4495 52.2618 54.0847 54.4182C53.9989 54.871 54.1705 55.022 54.5997 55.0004C55.0718 54.9788 55.5439 54.9788 56.016 55.0004C56.3808 55.0004 56.574 54.9142 56.6383 54.5044C56.9388 52.7578 57.2821 51.0111 57.5825 49.2645C57.6469 48.8332 57.84 48.7038 58.2692 48.7254C59.4709 48.747 60.6726 48.7254 61.8958 48.7254C62.6683 48.7254 62.6898 48.747 62.84 49.5233C63.1404 51.2052 63.4623 52.8872 63.7627 54.5476C63.8271 54.871 63.9988 54.9788 64.2778 54.9788C64.7284 54.9788 65.222 54.9788 65.7155 54.9788Z" fill="#FFF3E0"/>
<path d="M29 31.7977C30.03 31.7977 31.0386 31.7977 32.0687 31.7977C32.7768 31.7977 32.7768 31.7977 32.9056 32.5093C33.206 34.3853 33.5064 36.2613 33.8068 38.1158C34.5579 42.7304 35.3304 47.345 36.103 51.9596C36.2746 53.0162 36.4463 54.0728 36.618 55.151C36.6824 55.5607 36.5751 55.7117 36.1459 55.7117C34.7081 55.6901 33.2918 55.6901 31.8541 55.7117C31.4463 55.7117 31.3176 55.5607 31.2532 55.1941C30.9742 53.4475 30.6524 51.7008 30.3734 49.9326C30.309 49.5445 30.1373 49.4151 29.7725 49.4151C28.8069 49.4367 27.8412 49.4367 26.8756 49.4151C26.4893 49.4151 26.3391 49.566 26.2747 49.9326C26.0172 51.6146 25.7382 53.2965 25.4593 55.0001C25.352 55.6685 25.309 55.7117 24.6653 55.7117C23.764 55.7117 22.8627 55.6901 21.9614 55.7117C21.5752 55.7117 21.4464 55.5607 21.4893 55.1941C21.9614 52.2399 22.4335 49.2857 22.9056 46.3531C23.249 44.1967 23.5923 42.0404 23.9357 39.884C24.3434 37.3611 24.7297 34.8597 25.1374 32.3368C25.2018 31.9486 25.3734 31.7977 25.7811 31.7977C26.8541 31.7977 27.9271 31.7761 29 31.7977ZM29.0429 32.4446C28.2489 32.4446 27.455 32.4446 26.6395 32.4446C25.7811 32.4446 25.7811 32.4446 25.6524 33.3071C25.2018 36.1751 24.7511 39.043 24.279 41.911C23.5923 46.1159 22.9056 50.2992 22.1975 54.4825C22.1331 54.8491 22.2619 55.0001 22.6267 55.0001C23.1631 55.0001 23.7211 55.0001 24.2576 55.0001C24.6009 55.0001 24.7082 54.8707 24.7726 54.5257C25.073 52.779 25.3949 51.0324 25.6953 49.2857C25.7597 48.876 25.9314 48.7035 26.3605 48.7251C27.5622 48.7466 28.764 48.7251 29.9871 48.7251C30.7811 48.7251 30.8026 48.7466 30.9528 49.566C31.2532 51.2264 31.5751 52.8868 31.8755 54.5472C31.9399 54.8707 32.0687 55.0001 32.3691 55.0001C33.3777 55.0001 34.3648 55.0001 35.3734 55.0001C35.7596 55.0001 35.8669 54.806 35.8025 54.4394C35.6309 53.5553 35.4806 52.6496 35.3519 51.7655C34.8154 48.5526 34.2789 45.3396 33.7425 42.1266C33.2274 39.043 32.7124 35.9594 32.1974 32.8974C32.176 32.7465 31.897 32.5093 31.7468 32.5093C30.8455 32.423 29.9442 32.4446 29.0429 32.4446Z" fill="#FFF3E0"/>
<path d="M14.9647 45.7063C14.9647 42.6012 14.9647 39.496 14.9647 36.3909C14.9647 35.9596 14.8359 35.8087 14.4067 35.8302C13.6128 35.8518 12.8188 35.8302 12.0033 35.8302C11.66 35.8302 11.5098 35.6793 11.5098 35.3343C11.5098 34.3208 11.5098 33.3289 11.5098 32.3154C11.5098 31.9488 11.66 31.7979 12.0248 31.7979C15.823 31.7979 19.6428 31.7979 23.441 31.7979C23.7414 31.7979 23.9346 31.8625 23.9131 32.2291C23.8917 33.2426 23.8917 34.2777 23.9131 35.2911C23.9131 35.6793 23.7844 35.8302 23.3766 35.8302C22.6041 35.8087 21.8101 35.8302 21.0376 35.8302C20.6299 35.8302 20.4797 35.9812 20.4797 36.4125C20.5011 42.6012 20.5011 48.8115 20.5011 55.0002C20.5011 55.6472 20.4367 55.7118 19.8144 55.7118C18.3981 55.7118 17.0033 55.6903 15.587 55.7118C15.0934 55.7118 14.9647 55.5609 14.9647 55.1081C14.9861 51.9813 14.9647 48.8546 14.9647 45.7279C14.9861 45.7063 14.9861 45.7063 14.9647 45.7063ZM19.8359 45.0379C19.8144 41.9543 19.8144 38.8491 19.8144 35.7655C19.8144 35.1402 19.8788 35.0971 20.4797 35.0971C21.2093 35.0971 21.9389 35.0971 22.6685 35.1186C23.0547 35.1186 23.2693 34.9893 23.2693 34.558C23.2479 33.9973 23.2908 33.4367 23.2479 32.876C23.2264 32.7251 23.0118 32.5526 22.8616 32.4663C22.7543 32.4016 22.5612 32.4879 22.411 32.4879C19.1921 32.4879 15.9518 32.4879 12.7329 32.4879C12.4325 32.4879 12.2823 32.6173 12.2823 32.8976C12.2823 33.4798 12.2823 34.062 12.2823 34.6442C12.2823 34.9677 12.4325 35.1402 12.7759 35.1402C13.3123 35.1186 13.8703 35.1618 14.4067 35.1402C15.7157 35.0971 15.6943 34.9461 15.6943 36.4125C15.6728 42.4503 15.6943 48.4665 15.6943 54.5043C15.6943 54.914 15.8445 55.0434 16.2308 55.0434C17.2608 55.0218 18.2694 55.0434 19.2994 55.0649C19.7071 55.0649 19.8573 54.8924 19.8573 54.4827C19.8359 51.2913 19.8359 48.1646 19.8359 45.0379Z" fill="#FFF3E0"/>
<path d="M37.4765 43.7009C37.4765 39.9058 37.4765 36.1106 37.4765 32.3369C37.4765 31.9488 37.5838 31.7979 37.9915 31.7979C39.3649 31.8194 40.7383 31.8194 42.1117 31.7979C42.5409 31.7979 42.6696 31.9488 42.6696 32.3585C42.6696 34.4933 42.6696 36.6281 42.6696 38.7629C42.6696 42.8815 42.6696 47.0002 42.6481 51.0972C42.6481 51.4854 42.7984 51.6795 43.2275 51.6795C44.1717 51.6579 45.0945 51.6795 46.0387 51.6579C46.4464 51.6579 46.6395 51.7873 46.6181 52.2185C46.5966 53.232 46.6181 54.224 46.6181 55.2374C46.6181 55.5825 46.4679 55.7118 46.1245 55.7118C43.4207 55.6903 40.7168 55.7118 38.013 55.7118C37.6482 55.7118 37.4336 55.604 37.4336 55.1943C37.4765 51.3344 37.4765 47.5177 37.4765 43.7009ZM41.9615 42.364C41.9615 39.2588 41.9615 36.1537 41.9829 33.0485C41.9829 32.5957 41.8327 32.4448 41.4035 32.4448C40.4808 32.4663 39.5795 32.4448 38.6568 32.4232C38.3563 32.4232 38.1847 32.5526 38.2061 32.8976C38.2276 33.9973 38.2061 35.0755 38.2061 36.1753C38.2061 42.2562 38.2061 48.3371 38.2061 54.418C38.2061 54.763 38.249 54.9787 38.6568 54.9787C40.9314 54.9787 43.2061 54.9787 45.4807 54.9787C45.8241 54.9787 45.9958 54.8493 45.9743 54.5043C45.9528 53.9221 45.9528 53.3398 45.9528 52.7576C45.9528 52.4342 45.7812 52.3048 45.4593 52.3264C44.5151 52.3264 43.5923 52.3264 42.6481 52.3264C42.0044 52.3264 41.9615 52.3048 41.9615 51.6363C41.9615 48.5527 41.9615 45.4692 41.9615 42.364Z" fill="#FFF3E0"/>
<path d="M52.5407 43.7658C52.5407 47.5825 52.5407 51.4209 52.5192 55.2376C52.5192 55.3885 52.2832 55.6473 52.1544 55.6473C50.6738 55.6904 49.1931 55.6904 47.7124 55.6904C47.3691 55.6904 47.3047 55.4748 47.3047 55.1729C47.3261 52.3481 47.3261 49.5017 47.3261 46.6769C47.3261 41.8898 47.3261 37.1026 47.3047 32.3155C47.3047 31.949 47.3905 31.7764 47.7768 31.7764C49.2145 31.7764 50.6738 31.7764 52.1115 31.7549C52.4763 31.7549 52.4978 31.9921 52.4978 32.2724C52.4978 34.6228 52.4978 36.9948 52.4978 39.3453C52.5192 40.8331 52.5192 42.2995 52.5407 43.7658ZM48.0772 43.7442C48.0772 47.3238 48.0772 50.8818 48.0772 54.4613C48.0772 54.871 48.206 55.0004 48.6137 55.0004C49.4291 54.9788 50.2446 54.9788 51.06 55.0004C51.8326 55.0004 51.8326 55.0004 51.8326 54.2457C51.8326 47.1513 51.8326 40.0353 51.8326 32.9409C51.8326 32.5743 51.7038 32.4665 51.3605 32.4665C50.4806 32.488 49.6008 32.5312 48.721 32.4665C48.1845 32.4234 48.0987 32.6174 48.0987 33.0918C48.0772 36.6498 48.0772 40.1862 48.0772 43.7442Z" fill="#FFF3E0"/>
<path d="M5.63086 43.701C5.63086 39.9274 5.63086 36.1537 5.63086 32.3801C5.63086 31.9273 5.78107 31.7763 6.23171 31.7979C7.58364 31.8195 8.95702 31.7979 10.3089 31.7979C10.6952 31.7979 10.8025 31.9704 10.8025 32.337C10.8025 39.6686 10.8025 47.0002 10.8025 54.3103C10.8025 55.7334 10.8025 55.7334 9.36474 55.7119C8.3347 55.6903 7.32613 55.6903 6.29609 55.7334C5.80253 55.755 5.63086 55.6041 5.63086 55.0865C5.63086 51.2698 5.63086 47.4746 5.63086 43.701ZM6.31755 43.7225C6.31755 47.3021 6.31755 50.9032 6.31755 54.4828C6.31755 54.8925 6.48922 54.9787 6.83257 54.9787C7.73385 54.9787 8.63513 54.9572 9.53641 54.9787C9.96559 54.9787 10.1373 54.8493 10.1373 54.3749C10.1158 52.7792 10.1158 51.2051 10.1158 49.6094C10.1158 44.1107 10.1158 38.612 10.1373 33.1133C10.1373 32.7467 10.1158 32.4232 9.62225 32.4232C8.67805 32.4232 7.71239 32.4232 6.76819 32.4017C6.46776 32.4017 6.31755 32.5311 6.31755 32.8761C6.31755 36.5203 6.31755 40.1214 6.31755 43.7225Z" fill="#FFF3E0"/>
<path d="M13.0341 21.6633C13.0341 19.9598 13.0341 18.2563 13.0556 16.5312C13.0556 16.3587 13.2273 16.0353 13.3775 16.0137C14.4719 15.8627 15.5448 15.8843 16.5749 16.3371C17.4762 16.7253 17.9483 17.5016 18.2272 18.4072C18.7208 19.9814 18.8066 21.5987 18.5491 23.2159C18.3989 24.1 18.1843 24.9841 17.8839 25.8251C17.5405 26.7739 16.8109 27.3346 15.7594 27.3993C14.9869 27.4424 14.2358 27.4639 13.4633 27.4639C13.0556 27.4639 12.9912 27.1836 12.9912 26.817C12.9912 25.092 12.9912 23.3669 12.9912 21.6418C13.0127 21.6633 13.0127 21.6633 13.0341 21.6633Z" fill="#1A130D"/>
<path d="M56.5742 21.7069C56.5742 20.0034 56.5956 18.2999 56.5742 16.5964C56.5742 16.1004 56.7458 15.9063 57.2394 15.971C58.0334 16.0573 58.8274 16.0573 59.5999 16.2082C60.5441 16.3592 61.1664 16.9845 61.5312 17.8471C62.411 19.874 62.3467 21.9657 61.9819 24.0789C61.8746 24.6827 61.6814 25.2649 61.4454 25.8256C60.9947 27.0116 60.0291 27.4428 58.8274 27.486C58.2265 27.5075 57.6471 27.5075 57.0463 27.486C56.6171 27.486 56.5313 27.2272 56.5313 26.8391C56.5527 25.1355 56.5313 23.432 56.5313 21.7285C56.5312 21.7069 56.5527 21.7069 56.5742 21.7069Z" fill="#1A130D"/>
<path d="M12.9912 10.0189C12.9912 8.57418 13.0127 7.12943 12.9912 5.6631C12.9912 5.23183 13.12 5.05932 13.5491 5.08089C14.0427 5.10245 14.5363 5.08089 15.0298 5.10245C16.2315 5.14558 16.9611 5.81405 17.3045 6.95692C17.8839 8.81138 17.7766 10.709 17.3903 12.5634C17.1543 13.6632 16.3603 14.3963 15.2659 14.6767C14.7509 14.8061 14.1929 14.8707 13.6779 14.957C13.2487 15.0217 13.0556 14.8923 13.077 14.4179C13.0985 12.9516 13.077 11.4853 13.077 10.0189C13.0127 10.0189 13.0127 10.0189 12.9912 10.0189Z" fill="#1A130D"/>
<path d="M56.5312 10.019C56.5312 8.53107 56.5313 7.04318 56.5527 5.55529C56.5527 5.40435 56.7458 5.12402 56.8317 5.12402C57.733 5.16715 58.6557 5.21028 59.557 5.36122C60.1578 5.46904 60.4368 6.00813 60.6728 6.54722C61.2522 7.84103 61.2737 9.19954 61.1879 10.558C61.1449 11.2912 61.102 12.0459 60.866 12.7144C60.351 14.3317 58.9776 14.7845 57.4754 14.957C57.3682 14.9786 57.2394 14.957 57.1106 14.957C56.7029 15.0001 56.5742 14.8061 56.5742 14.4179C56.5956 12.9516 56.5742 11.4853 56.5742 10.019C56.5527 10.019 56.5312 10.019 56.5312 10.019Z" fill="#1A130D"/>
<path d="M65.7173 54.9793C65.2237 54.9793 64.7302 54.9793 64.2366 54.9793C63.9577 54.9793 63.786 54.8931 63.7216 54.548C63.4212 52.8661 63.0993 51.1841 62.7989 49.5237C62.6701 48.7474 62.6272 48.7259 61.8547 48.7259C60.653 48.7259 59.4513 48.7474 58.2281 48.7259C57.7989 48.7259 57.6272 48.8337 57.5414 49.265C57.241 51.0116 56.8976 52.7583 56.5972 54.5049C56.5328 54.9146 56.3397 55.0009 55.9749 55.0009C55.5028 54.9793 55.0307 54.9793 54.5586 55.0009C54.1294 55.0224 53.9792 54.8715 54.0436 54.4187C54.4084 52.2623 54.7732 50.106 55.1165 47.9496C55.5886 45.0385 56.0393 42.1274 56.5114 39.1948C56.8333 37.1678 57.1766 35.1624 57.4985 33.1354C57.5843 32.6179 57.756 32.4238 58.3139 32.4238C59.9234 32.467 61.5328 32.4454 63.1637 32.4454C63.9791 32.4454 64.0006 32.4454 64.1508 33.3295C64.7731 37.1462 65.3954 40.9414 66.0177 44.7582C66.5542 47.9712 67.0907 51.1841 67.6272 54.3971C67.713 54.8499 67.5413 54.9793 67.1121 54.9793C66.6615 54.9793 66.1894 54.9793 65.7173 54.9793ZM60.1165 46.0951C60.1165 46.0736 60.1165 46.0736 60.1165 46.0951C60.3311 46.0736 60.5671 46.0736 60.7817 46.0736C60.9963 46.0736 61.2324 46.0736 61.447 46.0951C62.2195 46.0951 62.2409 46.052 62.1122 45.3188C61.7474 43.2487 61.3826 41.1786 61.0178 39.1085C60.8032 37.901 60.6101 36.6934 60.3955 35.4859C60.374 35.378 60.2667 35.2702 60.1809 35.184C60.095 35.2702 59.9877 35.3565 59.9234 35.4427C59.8804 35.529 59.8804 35.6368 59.859 35.7446C59.5586 37.4913 59.2581 39.2379 58.9577 40.9846C58.7002 42.5371 58.4427 44.0897 58.1637 45.6207C58.0993 45.9657 58.2281 46.1167 58.5929 46.1167C59.1294 46.0736 59.6229 46.0951 60.1165 46.0951Z" fill="#1A130D"/>
<path d="M29.042 32.4445C29.9433 32.4445 30.8446 32.4229 31.7459 32.4661C31.9175 32.4661 32.175 32.7033 32.1965 32.8542C32.733 35.9378 33.248 39.0214 33.7415 42.0834C34.278 45.2964 34.8145 48.5093 35.351 51.7223C35.5012 52.6064 35.6514 53.5121 35.8016 54.3962C35.866 54.7628 35.7587 54.9569 35.3724 54.9569C34.3639 54.9569 33.3767 54.9569 32.3682 54.9569C32.0677 54.9569 31.939 54.849 31.8746 54.504C31.5956 52.8436 31.2738 51.1832 30.9519 49.5228C30.8017 48.7034 30.7802 48.6819 29.9862 48.6819C28.7845 48.6819 27.5613 48.7034 26.3596 48.6819C25.9304 48.6819 25.7588 48.8328 25.6944 49.2425C25.394 50.9892 25.0721 52.7358 24.7717 54.4825C24.7073 54.8275 24.5785 54.9569 24.2566 54.9569C23.7202 54.9569 23.1622 54.9569 22.6257 54.9569C22.2609 54.9569 22.1322 54.8059 22.1966 54.4393C22.9047 50.256 23.5914 46.0511 24.2781 41.8678C24.7502 38.9998 25.2008 36.1319 25.6515 33.2639C25.7802 32.4229 25.7802 32.4014 26.6386 32.4014C27.4326 32.4661 28.2266 32.4661 29.042 32.4445ZM28.3553 46.0727C28.8489 46.0727 29.3424 46.0511 29.836 46.0727C30.2866 46.0942 30.4154 45.9217 30.3296 45.4905C30.0291 43.7869 29.7072 42.105 29.4283 40.4015C29.1493 38.8057 28.8918 37.21 28.6128 35.6143C28.5914 35.4418 28.4412 35.2909 28.3553 35.1399C28.248 35.3125 28.0978 35.4634 28.0764 35.6359C27.7759 37.3394 27.497 39.0429 27.1965 40.7249C26.9176 42.299 26.6386 43.8947 26.3811 45.4689C26.2952 45.9864 26.3811 46.0727 26.8961 46.0727C27.3682 46.0727 27.8618 46.0727 28.3553 46.0727Z" fill="#1A130D"/>
<path d="M19.8358 45.0378C19.8358 48.1645 19.8358 51.2912 19.8358 54.4179C19.8358 54.8492 19.6856 55.0002 19.2779 55.0002C18.2478 54.9786 17.2392 54.9786 16.2092 54.9786C15.8229 54.9786 15.6727 54.8492 15.6727 54.4395C15.6727 48.4017 15.6513 42.3855 15.6727 36.3477C15.6727 34.9029 15.7157 35.0323 14.3852 35.0754C13.8487 35.097 13.2908 35.0754 12.7543 35.0754C12.3895 35.0754 12.2607 34.9245 12.2607 34.5795C12.2607 33.9972 12.2607 33.415 12.2607 32.8328C12.2607 32.5309 12.3895 32.4231 12.7114 32.4231C15.9302 32.4231 19.1706 32.4231 22.3894 32.4231C22.5396 32.4231 22.7328 32.3584 22.8401 32.4015C23.0117 32.4878 23.2263 32.6603 23.2263 32.8113C23.2692 33.3719 23.2263 33.9326 23.2478 34.4932C23.2692 34.9245 23.0332 35.0539 22.6469 35.0539C21.9173 35.0323 21.1877 35.0323 20.4581 35.0323C19.8573 35.0323 19.7929 35.0754 19.7929 35.7008C19.8143 38.8491 19.8143 41.9542 19.8358 45.0378Z" fill="#1A130D"/>
<path d="M41.9624 42.3646C41.9624 45.4482 41.9624 48.5534 41.9624 51.637C41.9624 52.3054 42.0053 52.327 42.6491 52.327C43.5933 52.327 44.516 52.327 45.4602 52.327C45.7821 52.327 45.9538 52.4348 45.9538 52.7583C45.9538 53.3405 45.9538 53.9227 45.9752 54.5049C45.9752 54.8499 45.825 55.0009 45.4817 54.9793C43.207 54.9793 40.9323 54.9793 38.6577 54.9793C38.25 54.9793 38.207 54.7421 38.207 54.4187C38.207 48.3377 38.207 42.2568 38.207 36.1759C38.207 35.0761 38.207 33.998 38.207 32.8982C38.207 32.5532 38.3572 32.4238 38.6577 32.4238C39.5804 32.4238 40.5032 32.4454 41.4044 32.4454C41.8551 32.4454 42.0053 32.5748 41.9838 33.0492C41.9624 36.1543 41.9624 39.2595 41.9624 42.3646Z" fill="#1A130D"/>
<path d="M48.0771 43.7445C48.0771 40.1865 48.0771 36.6501 48.0771 33.0921C48.0771 32.6177 48.163 32.4237 48.6994 32.4668C49.5793 32.5315 50.4591 32.4883 51.3389 32.4668C51.6822 32.4668 51.811 32.5746 51.811 32.9412C51.811 40.0356 51.811 47.1516 51.811 54.246C51.811 55.0007 51.7895 55.0007 51.0385 55.0007C50.223 55.0007 49.4076 54.9792 48.5921 55.0007C48.2059 55.0007 48.0557 54.8713 48.0557 54.4616C48.0771 50.8821 48.0771 47.3241 48.0771 43.7445Z" fill="#1A130D"/>
<path d="M6.31836 43.7231C6.31836 40.1219 6.31836 36.5208 6.31836 32.9197C6.31836 32.5747 6.44711 32.4453 6.769 32.4453C7.7132 32.4453 8.67886 32.4669 9.62306 32.4669C10.1166 32.4669 10.1381 32.7903 10.1381 33.1569C10.1381 38.6556 10.1381 44.1543 10.1166 49.653C10.1166 51.2487 10.0952 52.8229 10.1381 54.4186C10.1381 54.8714 9.9664 55.0224 9.53722 55.0224C8.63594 55.0008 7.73466 55.0224 6.83338 55.0224C6.49003 55.0224 6.31836 54.9361 6.31836 54.5264C6.31836 50.9037 6.31836 47.3242 6.31836 43.7231Z" fill="#1A130D"/>
<path d="M60.1152 46.0948C59.6217 46.0948 59.1281 46.0733 58.6345 46.0948C58.2697 46.1164 58.141 45.9655 58.2054 45.5989C58.4629 44.0463 58.7204 42.4937 58.9993 40.9627C59.2998 39.2161 59.6002 37.4694 59.9006 35.7228C59.9221 35.6149 59.9221 35.5071 59.965 35.4209C60.0294 35.3131 60.1367 35.2484 60.2225 35.1621C60.2869 35.2699 60.4156 35.3562 60.4371 35.464C60.6517 36.6716 60.8448 37.8791 61.0594 39.0867C61.4242 41.1568 61.789 43.2269 62.1538 45.297C62.2826 46.0517 62.2397 46.0733 61.4886 46.0733C61.274 46.0733 61.038 46.0733 60.8234 46.0517C60.5659 46.0733 60.3513 46.0733 60.1152 46.0948C60.1152 46.0733 60.1152 46.0733 60.1152 46.0948ZM60.2225 38.3751C60.1796 38.3751 60.1367 38.3751 60.0938 38.3751C60.0294 38.5476 59.965 38.6985 59.9221 38.871C59.686 40.3805 59.45 41.9115 59.2139 43.421C59.1496 43.9169 59.0637 44.3913 58.9779 44.8873C58.935 45.2107 59.0637 45.4048 59.4285 45.4048C59.9435 45.3832 60.4371 45.4048 60.9521 45.4048C61.3598 45.4048 61.4457 45.2107 61.3813 44.8442C61.038 42.8387 60.6946 40.8549 60.3513 38.8495C60.3298 38.6554 60.2654 38.526 60.2225 38.3751Z" fill="#FFF3E0"/>
<path d="M28.3557 46.0734C27.8622 46.0734 27.3686 46.0734 26.8751 46.0734C26.3601 46.0734 26.2742 45.9871 26.3601 45.4696C26.639 43.8954 26.918 42.2997 27.1755 40.7256C27.4759 39.0221 27.7549 37.3185 28.0553 35.6366C28.0768 35.4641 28.2485 35.3131 28.3343 35.1406C28.4201 35.2916 28.5489 35.4425 28.5918 35.615C28.8708 37.2107 29.1283 38.8064 29.4072 40.4021C29.7077 42.1057 30.0081 43.7876 30.3085 45.4911C30.3944 45.9008 30.2656 46.0949 29.815 46.0734C29.3429 46.0518 28.8493 46.0734 28.3557 46.0734ZM28.3987 38.332C28.3343 38.332 28.2699 38.332 28.2055 38.332C28.1626 38.5261 28.0982 38.7417 28.0553 38.9358C27.9909 39.3671 27.9266 39.8199 27.8622 40.2512C27.6261 41.7606 27.3686 43.2701 27.1111 44.8011C27.0467 45.2108 27.197 45.3618 27.6047 45.3618C28.0553 45.3402 28.5274 45.3618 28.9781 45.3618C29.536 45.3618 29.6004 45.2755 29.5145 44.7364C29.1927 42.7741 28.8708 40.8118 28.5274 38.828C28.506 38.677 28.4416 38.5045 28.3987 38.332Z" fill="#FFF3E0"/>
<path d="M60.2233 38.3751C60.2662 38.526 60.3305 38.677 60.352 38.8279C60.6954 40.8333 61.0387 42.8172 61.382 44.8226C61.4464 45.1892 61.3606 45.3832 60.9529 45.3832C60.4378 45.3832 59.9443 45.3832 59.4293 45.3832C59.0645 45.3832 58.9357 45.2107 58.9786 44.8657C59.043 44.3697 59.1288 43.8954 59.2147 43.3994C59.4507 41.8899 59.6653 40.3589 59.9228 38.8495C59.9443 38.677 60.0301 38.526 60.0945 38.3535C60.1374 38.3535 60.1803 38.3751 60.2233 38.3751Z" fill="#1A130D"/>
<path d="M28.3996 38.332C28.4425 38.5045 28.5069 38.6771 28.5498 38.8496C28.8717 40.8118 29.1936 42.7741 29.5369 44.758C29.6227 45.2971 29.5584 45.3833 29.0004 45.3833C28.5498 45.3833 28.0777 45.3618 27.627 45.3833C27.2193 45.4049 27.0691 45.2324 27.1335 44.8227C27.391 43.3132 27.627 41.8038 27.8846 40.2728C27.9489 39.8415 28.0133 39.3886 28.0777 38.9574C28.1206 38.7417 28.185 38.5477 28.2279 38.3536C28.2708 38.332 28.3352 38.332 28.3996 38.332Z" fill="#1A130D"/>
</svg>
