<svg width="80" height="62" viewBox="0 0 80 62" fill="none" xmlns="http://www.w3.org/2000/svg">
<path d="M0 0C26.6506 0 53.3011 0 80 0C80 20.4224 80 40.8932 80 61.3156C53.3494 61.3156 26.6989 61.3156 0 61.3156C0 40.8932 0 20.4224 0 0ZM41.2794 23.271C41.4725 23.6089 41.6657 23.8021 41.7139 23.9952C42.5347 26.5057 44.3211 27.9059 46.8316 28.2921C50.694 28.8715 54.315 26.7954 54.6047 22.4985C54.7013 21.2915 54.5081 20.0362 54.3633 18.8292C54.2667 18.2016 54.4599 18.0084 54.9909 18.0567C55.7634 18.105 55.7634 18.6844 55.7634 19.2155C55.7634 21.9191 55.7634 24.5745 55.7151 27.2782C55.7151 27.9059 55.9565 28.1473 56.5842 28.1473C57.3084 28.1473 58.0326 28.1473 58.7568 28.1473C59.6741 28.1473 59.819 28.0507 59.819 27.0851C59.819 24.3814 59.819 21.726 59.819 19.0223C59.819 18.3464 60.0604 18.0084 60.7363 18.0567C62.0398 18.105 62.0398 18.105 62.0881 16.8014C62.0881 16.6083 62.0881 16.4152 62.0881 16.2221C62.0881 15.0151 62.0881 15.0151 60.8328 14.9668C60.4949 14.9668 60.1569 14.7254 59.819 14.5806C60.1086 14.2426 60.3983 13.9046 60.7363 13.615C60.8811 13.5184 61.1708 13.615 61.3639 13.615C61.557 13.5667 61.895 13.4701 61.895 13.3736C61.9433 12.5528 61.9433 11.732 61.895 10.9596C61.895 10.9113 61.7019 10.8147 61.6536 10.8147C60.3983 10.9113 59.0948 10.863 57.8395 11.201C56.5359 11.5389 55.9565 12.6976 55.8117 14.0012C55.7634 14.5806 55.6669 15.1116 54.8944 15.0634C54.1702 15.0151 53.9771 15.4013 53.9771 16.029C53.9771 16.4635 53.9288 16.9463 53.9288 17.3808C53.8805 17.3808 53.7839 17.4291 53.7357 17.4291C51.8045 14.5806 49.0525 13.9529 46.0109 14.6771C42.6795 15.4979 41.376 18.0084 41.1346 21.2915C40.8449 21.0501 40.7001 20.8087 40.5552 20.5673C40.169 20.0845 39.7827 19.5051 39.2999 19.1672C38.7689 18.7327 38.7206 18.4912 39.2034 17.9602C40.6035 16.5118 40.7483 14.4357 39.6379 12.7459C38.624 11.201 37.0791 10.7182 35.341 10.6699C32.6856 10.6216 30.0302 10.6699 27.3748 10.6216C26.6023 10.6216 26.4092 10.9113 26.4092 11.5872C26.4092 16.6083 26.4092 21.6295 26.4092 26.6506C26.4092 28.1473 26.4092 28.1473 27.9059 28.1473C28.0507 28.1473 28.1955 28.1955 28.2921 28.1955C30.8027 28.1955 33.2649 28.2921 35.7755 28.2438C38.2378 28.1473 40.2655 26.4575 40.8932 24.0917C40.9897 23.7538 41.1346 23.6089 41.2794 23.271ZM63.102 50.0664C63.1986 50.0664 63.2951 50.0664 63.3917 50.1147C63.4882 50.3078 63.5848 50.5009 63.6814 50.694C63.8745 51.2251 64.1159 51.7562 64.2124 52.2873C64.4538 53.3011 65.178 53.3011 65.9988 53.3494C66.8195 53.3494 66.9161 52.7218 67.1092 52.239C67.4955 51.2251 67.8817 50.2112 68.2197 49.2456C68.4128 48.7145 68.7508 48.4731 69.3301 48.5214C69.8612 48.5697 70.2957 48.4249 70.6337 47.9421C71.0682 47.3627 71.6958 47.3627 72.3235 47.6524C72.5649 47.7489 72.758 48.0869 72.758 48.3283C72.758 48.4731 72.4683 48.7628 72.2269 48.8111C71.4062 49.0042 70.5854 49.1491 69.8129 49.2939C68.6542 49.5353 67.8817 51.1285 68.3162 52.239C68.7025 53.2046 69.475 53.6874 70.7302 53.446C71.8407 53.2529 72.9511 52.9149 74.1098 53.3494C74.5444 53.4943 74.8823 53.3011 74.8823 52.7218C74.834 51.1285 74.834 49.5836 74.7858 47.9903C74.7858 47.2661 74.3995 46.6868 73.7719 46.3488C72.6614 45.7695 71.4544 45.7695 70.2474 46.0591C69.8129 46.1557 69.3784 46.204 68.9921 46.1557C67.6886 45.866 67.2541 46.1074 66.8678 47.411C66.5782 48.3766 66.3368 49.3422 66.0471 50.2595C65.9988 50.4526 65.9022 50.694 65.8057 50.8871C65.516 50.6457 65.3229 50.4526 65.2746 50.1629C64.9849 49.1973 64.6952 48.2317 64.5021 47.2179C64.3573 46.3005 63.8262 46.0109 63.0054 46.1074C62.6192 46.1557 62.233 46.3971 61.7019 46.5902C60.8328 46.0591 59.7707 45.7695 58.5637 45.9143C57.3084 46.0591 56.5359 46.9282 55.6186 47.8938C55.5703 47.5075 55.5703 47.3144 55.5703 47.1213C55.5703 46.1557 55.6186 45.1901 55.5703 44.2245C55.5703 43.9831 55.4255 43.5969 55.2323 43.5003C54.3633 43.0658 53.5908 43.5969 53.5908 44.5625C53.5908 45.1901 53.5908 45.866 53.5908 46.6868C51.6596 45.4798 50.1147 45.5763 48.9559 47.3627C48.9077 47.411 48.4731 47.3627 48.4249 47.2661C47.4593 45.866 45.1418 45.3349 43.5969 46.2523C43.0175 46.5902 42.8727 46.5419 42.6795 45.9143C42.1967 44.2245 41.2794 43.5486 39.5413 43.5003C38.624 43.5003 37.7067 43.5003 36.7894 43.5003C34.9547 43.452 35.003 43.3072 35.0513 45.2867C35.0513 46.0109 35.0513 46.7351 35.0513 47.4593C35.003 47.5075 34.9065 47.5558 34.8582 47.6041C34.134 46.4454 33.1201 45.8177 31.8165 45.8177C30.513 45.8177 29.3543 46.2523 28.5335 47.6524C28.3887 47.1696 28.2921 46.8799 28.2438 46.6385C28.0024 44.9004 26.4575 43.5003 24.7194 43.452C23.4641 43.4037 22.2088 43.452 20.9535 43.452C19.9397 43.452 19.8914 43.5003 19.8914 44.4659C19.8914 47.1213 19.8914 49.7767 19.8431 52.4321C19.8431 53.0597 20.0845 53.3011 20.7121 53.3011C22.0157 53.2529 23.271 53.3011 24.5745 53.2529C25.7333 53.2046 26.6506 52.7218 27.3265 51.8045C27.6162 51.4665 27.8576 51.0803 28.2438 50.5492C28.5335 52.2873 29.5474 53.1563 31.0923 53.3494C32.5407 53.5425 33.8443 53.2529 34.8582 52.0941C35.1479 52.5769 35.2444 53.108 35.5341 53.2046C36.6445 53.6391 37.2239 53.1563 37.2239 51.9976C37.2239 51.8527 37.2239 51.7079 37.2239 51.6113C37.1756 49.7284 36.8859 49.7284 39.0585 49.7767C40.2173 49.7767 41.2794 49.6319 42.1485 48.6663C42.3416 48.4249 42.8244 48.4731 43.1623 48.3283C43.5969 48.1835 43.9831 47.9903 44.4176 47.8455C44.8039 47.7007 45.2384 47.411 45.6246 47.4593C45.9143 47.4593 46.204 47.8455 46.4937 48.0869C46.204 48.3283 45.9626 48.6663 45.6729 48.7628C44.997 48.9559 44.2728 49.0042 43.5486 49.1973C42.5347 49.487 42.0036 50.2595 42.0036 51.4665C42.0036 52.3838 42.5347 53.108 43.3555 53.3011C44.2245 53.4943 45.0935 53.4943 45.9143 53.0115C46.1074 52.9149 46.4937 52.8183 46.5419 52.8666C46.9282 53.446 47.5075 53.2529 47.9903 53.3011C48.5697 53.3494 48.618 53.108 48.5214 52.6252C48.4731 52.3838 48.5214 52.1424 48.5214 51.8527C48.7145 51.901 48.8111 51.901 48.8111 51.9493C48.9077 51.9976 49.0042 52.0941 49.0525 52.1907C49.7284 53.3977 50.8871 53.7839 51.9976 53.3977C52.9632 53.0597 53.7839 53.3011 54.7013 53.3494C55.4738 53.3977 55.6186 53.2046 55.5703 52.4321C55.522 52.239 55.5703 51.9976 55.5703 51.8045C55.6186 51.7562 55.7151 51.7079 55.7634 51.6596C56.7773 53.3011 58.274 53.6874 60.0121 53.446C61.895 53.108 62.8606 51.901 63.102 50.0664ZM5.21424 19.3603C5.21424 21.9191 5.21424 24.5263 5.21424 27.0851C5.21424 28.099 5.21424 28.1473 6.22812 28.1473C11.2492 28.1473 16.2704 28.099 21.2915 28.1473C21.9191 28.1473 22.1605 27.9059 22.1605 27.2782C22.1123 26.1678 22.1605 25.0091 22.1605 23.8986C22.1605 19.7465 22.1605 15.6427 22.1605 11.4906C22.1605 11.0561 22.2088 10.5733 21.4846 10.5733C17.8153 10.5733 14.1943 10.5733 10.525 10.5733C10.0422 10.5733 9.84912 10.8147 9.84912 11.2492C9.84912 11.7803 9.80084 12.3114 9.80084 12.8425C9.80084 13.0356 9.84912 13.3253 9.94569 13.4218C10.0905 13.5184 10.3802 13.4218 10.525 13.3253C12.8908 11.4906 16.8014 12.1666 19.0223 14.7254C22.2571 18.443 20.7604 24.2366 16.1255 25.9747C11.3941 27.761 6.7592 24.14 6.61436 19.4569C6.56608 16.898 6.61436 14.3392 6.56608 11.8286C6.56608 11.2975 6.7592 10.6216 5.84188 10.6216C4.92456 10.6216 5.16596 11.2975 5.16596 11.7803C5.21424 14.2426 5.21424 16.8014 5.21424 19.3603ZM68.4128 23.0779C68.4128 21.726 68.4611 20.3742 68.4128 19.0706C68.3645 18.2981 68.6542 18.0084 69.4267 18.0084C70.682 18.0567 70.682 18.0084 70.682 16.7532C70.682 16.2221 70.8268 15.5462 70.5371 15.2082C70.2957 14.9185 69.5715 15.0151 69.0887 14.8702C68.8956 14.822 68.6059 14.6771 68.5576 14.5323C68.5094 14.3392 68.6059 14.0012 68.799 13.9046C69.137 13.7115 69.5715 13.615 69.9578 13.4701C70.1992 13.3736 70.6337 13.1804 70.682 12.9873C70.7785 12.408 70.7302 11.7803 70.682 11.1527C70.682 10.9596 70.344 10.6699 70.1509 10.6699C69.0404 10.6699 67.8817 10.6216 66.8195 10.863C65.2263 11.201 64.5987 12.5045 64.4055 14.0012C64.3573 14.484 64.2607 14.8702 63.6814 14.8702C62.764 14.822 62.6675 15.353 62.7157 16.029C62.7157 16.4152 62.7157 16.8497 62.7157 17.236C62.7157 17.7188 62.9571 18.0567 63.4399 17.9602C64.309 17.8636 64.3573 18.3464 64.3573 18.974C64.3573 21.6294 64.3573 24.3331 64.3573 26.9885C64.3573 27.7127 64.5504 28.0507 65.3229 28.0024C66.0954 27.9541 66.8678 27.9541 67.6403 28.0024C68.3162 28.0507 68.5576 27.761 68.5094 27.0851C68.3645 25.8298 68.4128 24.478 68.4128 23.0779ZM71.213 21.4846C71.1648 21.4846 71.1648 21.4846 71.1165 21.4846C71.1165 23.4158 71.1165 25.347 71.1165 27.2782C71.1165 27.8576 71.2613 28.1473 71.889 28.099C72.5166 28.0507 73.1442 28.099 73.7236 28.099C74.6892 28.099 74.7858 28.0024 74.7858 27.0368C74.7858 24.8159 74.7858 22.6433 74.7858 20.4224C74.7858 18.8775 74.7858 17.3808 74.7858 15.8358C74.7858 15.1599 74.5444 14.8702 73.8202 14.9185C73.1925 14.9668 72.5649 14.9185 71.9855 14.9185C71.4544 14.9185 71.213 15.1599 71.213 15.691C71.213 17.6705 71.213 19.5534 71.213 21.4846ZM17.5256 19.2637C17.5256 16.9946 15.9324 15.4013 13.5184 15.4013C11.4424 15.4013 9.75257 17.0911 9.75257 19.1672C9.75257 21.3881 11.4424 23.0779 13.6632 23.0779C15.7876 23.1261 17.5256 21.3881 17.5256 19.2637ZM10.2836 50.1147C10.9113 50.1629 11.5389 50.2112 12.1183 50.1629C12.3597 50.1629 12.7459 49.9215 12.7459 49.7767C12.8908 48.618 12.3597 47.073 11.4906 46.4937C10.1388 45.5763 8.2076 45.5763 7.0006 46.5902C5.69704 47.6524 5.50392 49.6801 5.98672 51.3217C6.66264 53.446 8.73868 53.6391 10.3319 53.3977C11.2492 53.2529 11.9734 52.7218 12.4562 51.9976C12.6494 51.7079 12.7942 51.2734 12.3114 51.2734C11.6838 51.2734 10.9596 51.3217 10.4285 51.6596C9.46288 52.239 8.40072 52.0941 7.91792 51.0803C7.67652 50.5492 7.86964 50.2595 8.40072 50.2112C9.02836 50.1147 9.656 50.1147 10.2836 50.1147ZM72.9511 10.7182C72.6614 10.7182 72.42 10.7664 72.1304 10.7182C71.4544 10.5733 71.213 10.9113 71.213 11.5389C71.213 12.1666 71.213 12.8425 71.1648 13.4701C71.1648 13.9529 71.3579 14.146 71.8407 14.146C72.5649 14.146 73.2891 14.146 74.0133 14.146C74.5444 14.146 74.7375 13.9529 74.7858 13.4701C74.7858 13.1804 74.7858 12.939 74.7858 12.6494C74.834 10.7182 74.834 10.7182 72.9511 10.7182ZM12.6011 44.9487C12.6011 44.8521 12.6011 44.7073 12.6011 44.6107C12.2148 44.5625 11.8286 44.5142 11.4424 44.5142C9.84913 44.5142 8.30416 44.5142 6.71092 44.5142C6.46952 44.5142 6.17984 44.659 5.93844 44.7073C6.17984 44.8521 6.42124 45.0935 6.66264 45.0935C8.40072 45.1418 10.0905 45.0935 11.8286 45.0935C12.07 45.0935 12.3114 44.997 12.6011 44.9487Z" fill="#1A130D"/>
<path d="M41.28 23.2706C41.1351 23.6086 40.9903 23.8017 40.942 23.9948C40.3144 26.3605 38.2866 28.0503 35.8243 28.1469C33.3138 28.2434 30.8515 28.1469 28.3409 28.0986C28.1961 28.0986 28.0512 28.0986 27.9547 28.0503C26.458 28.0503 26.458 28.0503 26.458 26.5536C26.458 21.5325 26.458 16.5114 26.458 11.4903C26.458 10.7661 26.6511 10.4764 27.4236 10.5247C30.079 10.5729 32.7344 10.5247 35.3898 10.5729C37.1279 10.6212 38.6729 11.104 39.6867 12.649C40.7972 14.3388 40.6523 16.4148 39.2522 17.8632C38.7694 18.346 38.7694 18.6357 39.3488 19.0702C39.8316 19.4565 40.2178 19.9876 40.6041 20.4704C40.7972 20.6635 40.942 20.9532 41.1834 21.1946C41.4248 17.9115 42.7767 15.401 46.0597 14.5802C49.1496 13.8077 51.9016 14.4354 53.7845 17.3322C53.8328 17.3322 53.9293 17.2839 53.9776 17.2839C53.9776 16.8494 54.0742 16.3666 54.0259 15.932C53.9776 15.2561 54.219 14.8699 54.9432 14.9664C55.7157 15.0147 55.8123 14.4836 55.8605 13.9043C56.0054 12.6007 56.5847 11.442 57.8883 11.104C59.0953 10.7661 60.3989 10.8144 61.7024 10.7178C61.799 10.7178 61.9438 10.8143 61.9438 10.8626C61.9438 11.6834 61.9921 12.5042 61.9438 13.2766C61.9438 13.3732 61.6059 13.4698 61.4127 13.518C61.2196 13.5663 60.9299 13.4215 60.7851 13.518C60.4471 13.8077 60.1575 14.1457 59.8678 14.4836C60.2057 14.6285 60.5437 14.8699 60.8817 14.8699C62.1369 14.9182 62.1369 14.8699 62.1369 16.1252C62.1369 16.3183 62.1369 16.5114 62.1369 16.7045C62.0887 18.0081 62.0887 18.0081 60.7851 17.9598C60.0609 17.9115 59.8678 18.2495 59.8678 18.9254C59.8678 21.6291 59.8678 24.2845 59.8678 26.9882C59.8678 27.9538 59.7712 28.0503 58.8056 28.0503C58.0814 28.0503 57.3572 28.0503 56.633 28.0503C56.0054 28.0503 55.764 27.8089 55.764 27.1813C55.764 24.4776 55.764 21.8222 55.8123 19.1185C55.8123 18.5874 55.8123 18.0081 55.0398 17.9598C54.4604 17.9115 54.3156 18.1046 54.4121 18.7323C54.557 19.9393 54.7501 21.1946 54.6535 22.4016C54.3639 26.6985 50.6946 28.7745 46.8805 28.1952C44.3216 27.8089 42.5835 26.4088 41.7628 23.8982C41.6662 23.7534 41.4731 23.6086 41.28 23.2706ZM44.9975 21.3394C45.2872 22.2084 45.4803 23.174 45.9149 23.9465C46.7839 25.5398 48.8599 25.6363 50.0187 24.2362C51.2739 22.7395 51.2257 19.6979 49.9704 18.2012C48.8599 16.8976 46.6873 17.0425 45.8666 18.5874C45.4321 19.4082 45.2872 20.3738 44.9975 21.3394ZM32.9758 24.719C33.5069 24.719 33.9897 24.719 34.5208 24.719C35.6795 24.6707 36.6451 23.7534 36.6934 22.643C36.7899 21.5808 36.0657 20.6635 34.907 20.4704C34.1828 20.3738 33.4103 20.4221 32.6861 20.4221C30.1273 20.3738 30.6101 20.3738 30.6101 22.4498C30.5618 24.9121 29.9825 24.719 32.9758 24.719ZM32.9275 17.0908C33.4586 17.0908 33.9414 17.0908 34.4725 17.0425C35.5829 17.0425 36.114 16.4631 36.1623 15.3527C36.2106 14.4354 35.5347 13.7112 34.5208 13.6629C33.4586 13.6146 32.3965 13.6629 31.3343 13.6629C30.8515 13.6629 30.5618 13.856 30.6101 14.3871C30.6101 15.0147 30.6101 15.5941 30.6101 16.2217C30.6101 16.8976 30.8998 17.139 31.5274 17.0908C31.9619 17.0908 32.4447 17.0908 32.9275 17.0908Z" fill="#FFF3E0"/>
<path d="M63.1017 50.0665C62.8603 51.9495 61.8947 53.1565 60.0118 53.3979C58.2737 53.6393 56.777 53.2047 55.7631 51.6115C55.7148 51.6598 55.6183 51.7081 55.57 51.7563C55.57 51.9495 55.57 52.1909 55.57 52.384C55.6666 53.1565 55.5217 53.3979 54.701 53.3013C53.7836 53.253 53.0112 53.0116 51.9973 53.3496C50.8868 53.7358 49.7281 53.3496 49.0522 52.1426C49.0039 52.046 48.9073 51.9977 48.8108 51.9012C48.7625 51.8529 48.7142 51.8529 48.5211 51.8046C48.5211 52.0943 48.4728 52.3357 48.5211 52.5771C48.6177 53.0599 48.5211 53.3013 47.99 53.253C47.4589 53.2047 46.9279 53.3979 46.5416 52.8185C46.4933 52.7702 46.1071 52.8185 45.914 52.9633C45.0932 53.4461 44.2242 53.4461 43.3551 53.253C42.4861 53.0599 42.0033 52.3357 42.0033 51.4184C42.0033 50.2114 42.5344 49.4389 43.5483 49.1492C44.2242 48.9561 44.9967 48.9078 45.6726 48.7147C46.0105 48.6181 46.2519 48.2802 46.4933 48.0388C46.2037 47.7974 45.914 47.4594 45.6243 47.4111C45.2381 47.4111 44.8035 47.6525 44.4173 47.7974C43.9828 47.9422 43.5965 48.1353 43.162 48.2802C42.8241 48.3767 42.3413 48.3767 42.1481 48.6181C41.3274 49.5837 40.2169 49.7286 39.0582 49.7286C36.8856 49.6803 37.1753 49.6803 37.2236 51.5632C37.2236 51.7081 37.2236 51.8529 37.2236 51.9495C37.2236 53.1565 36.6442 53.591 35.5338 53.1565C35.2441 53.0599 35.0993 52.5288 34.8579 52.046C33.844 53.2047 32.5404 53.4461 31.092 53.3013C29.5471 53.1082 28.5815 52.2391 28.2435 50.5011C27.8573 51.0321 27.6159 51.4184 27.3262 51.7563C26.6503 52.6737 25.7329 53.1565 24.5742 53.2047C23.2707 53.253 22.0154 53.253 20.7118 53.253C20.1325 53.253 19.8428 53.0599 19.8428 52.384C19.8911 49.7286 19.8428 47.0732 19.8911 44.4178C19.8911 43.4522 19.9393 43.4039 20.9532 43.4039C22.2085 43.4039 23.4638 43.4039 24.7191 43.4039C26.4571 43.4522 28.0021 44.8523 28.2435 46.5904C28.2918 46.8318 28.3883 47.1215 28.5332 47.6043C29.3539 46.1559 30.5127 45.7696 31.8162 45.7696C33.1198 45.7696 34.1337 46.3973 34.8579 47.556C34.9061 47.5077 35.0027 47.4594 35.051 47.4111C35.051 46.6869 35.051 45.9627 35.051 45.2385C35.0027 43.259 34.9544 43.4039 36.7891 43.4522C37.7064 43.5005 38.6237 43.4522 39.541 43.4522C41.2791 43.4522 42.1964 44.1764 42.6792 45.8662C42.8723 46.4938 43.0172 46.5421 43.5965 46.2041C45.1415 45.2868 47.4107 45.8179 48.4246 47.218C48.5211 47.3146 48.9074 47.4111 48.9556 47.3146C50.1626 45.5282 51.6593 45.4317 53.5905 46.6387C53.5905 45.8179 53.5905 45.1903 53.5905 44.5143C53.5905 43.5487 54.4113 43.0177 55.232 43.4522C55.4252 43.5487 55.57 43.935 55.57 44.1764C55.6183 45.142 55.57 46.1076 55.57 47.0732C55.57 47.2663 55.6183 47.4111 55.6183 47.8457C56.5356 46.8801 57.3081 46.011 58.5634 45.8662C59.7704 45.7213 60.8325 46.011 61.7016 46.5421C62.2326 46.349 62.6189 46.1076 63.0051 46.0593C63.8259 45.9627 64.357 46.2524 64.5018 47.1697C64.6466 48.1836 64.9846 49.1492 65.2743 50.1148C65.3226 50.3562 65.5157 50.5976 65.8054 50.839C65.9019 50.6459 65.9502 50.4045 66.0468 50.2114C66.3364 49.2458 66.5778 48.3285 66.8675 47.3629C67.2538 46.1076 67.6883 45.8662 68.9918 46.1076C69.3781 46.2041 69.8609 46.1076 70.2471 46.011C71.4541 45.7213 72.6611 45.6731 73.7716 46.3007C74.3992 46.6387 74.7854 47.1697 74.7854 47.9422C74.8337 49.5355 74.8337 51.0804 74.882 52.6737C74.882 53.253 74.544 53.4461 74.1095 53.3013C72.9508 52.8668 71.8886 53.2047 70.7299 53.3979C69.4746 53.591 68.7022 53.1082 68.3159 52.1909C67.8331 51.0804 68.6056 49.5355 69.8126 49.2458C70.6334 49.0527 71.4541 48.9561 72.2266 48.763C72.4197 48.7147 72.7577 48.425 72.7577 48.2802C72.7094 48.0388 72.5163 47.7008 72.3232 47.6043C71.7438 47.3146 71.0679 47.3146 70.6334 47.8939C70.2954 48.3767 69.8609 48.5216 69.3298 48.4733C68.7504 48.425 68.4125 48.6664 68.2194 49.1975C67.8814 50.2114 67.4952 51.2253 67.1089 52.1909C66.9158 52.7219 66.8192 53.3496 65.9985 53.3013C65.1777 53.3013 64.4535 53.253 64.2121 52.2391C64.0673 51.7081 63.8742 51.177 63.681 50.6459C63.5845 50.4528 63.4879 50.2597 63.3914 50.0665C63.2465 50.0665 63.1982 50.0665 63.1017 50.0665ZM21.9188 48.425C21.9188 48.9561 21.9188 49.4389 21.9188 49.97C21.9188 51.9012 21.774 51.5632 23.6086 51.6115C24.6708 51.6598 25.4433 51.177 25.8295 50.2597C26.3606 49.0044 26.3606 47.7008 25.8778 46.4455C25.5881 45.7696 25.057 45.2868 24.188 45.2868C23.6569 45.2868 23.1741 45.2868 22.643 45.2385C22.1119 45.2385 21.8705 45.4317 21.8705 45.9627C21.9188 46.7835 21.9188 47.6043 21.9188 48.425ZM60.9774 49.5355C60.9774 49.3906 60.9291 49.0527 60.8808 48.763C60.6394 47.9905 59.9635 47.5077 59.2393 47.5077C58.4185 47.556 57.7909 47.9422 57.646 48.7147C57.5495 49.2941 57.5495 49.8734 57.646 50.4528C57.7909 51.4184 58.4185 51.8046 59.3358 51.8046C60.398 51.8046 61.0256 50.9839 60.9774 49.5355ZM53.7354 49.8251C53.6871 49.4872 53.5905 49.0527 53.494 48.6664C53.3491 48.0388 52.9629 47.6043 52.3352 47.5077C51.6593 47.4111 51.1282 47.6525 50.742 48.2319C50.2592 48.9561 50.3075 50.5493 50.7903 51.2253C51.2248 51.8529 52.0455 51.9977 52.7215 51.6598C53.5422 51.3218 53.5422 50.5493 53.7354 49.8251ZM37.127 46.5904C37.127 47.9905 37.127 47.9905 38.5271 48.0388C38.8168 48.0388 39.0582 48.0388 39.3479 47.9905C40.0721 47.8939 40.5549 47.3629 40.5549 46.6387C40.5549 45.7696 40.1204 45.2868 39.2513 45.2385C38.7685 45.1903 38.2857 45.1903 37.8029 45.1903C37.3684 45.1903 37.0787 45.3834 37.127 45.8662C37.127 46.1076 37.127 46.349 37.127 46.5904ZM33.8923 51.0321C33.8923 51.0804 33.9405 51.1287 33.9405 51.177C34.0371 51.177 34.1819 51.2253 34.2785 51.177C34.5199 51.0321 34.7613 50.839 35.051 50.6459C34.8096 50.5011 34.5682 50.1631 34.2785 50.1631C33.1198 50.1148 31.9611 50.1631 30.8023 50.1631C30.3678 50.1631 30.0299 50.3562 30.1747 50.839C30.4644 51.8046 31.8162 52.2391 32.637 51.6115C33.0232 51.3701 33.4577 51.2253 33.8923 51.0321ZM71.0679 52.0943C72.0335 52.0943 72.806 51.3701 72.7577 50.5493C72.7577 50.3562 72.4197 50.0665 72.2266 50.0665C71.2127 50.0183 70.1506 50.6459 70.1988 51.2253C70.2954 51.8046 70.5851 52.0943 71.0679 52.0943ZM44.9484 52.2391C45.4312 51.9495 45.8657 51.7563 46.1071 51.4667C46.3485 51.1287 46.3485 50.6459 46.4451 50.2114C46.1071 50.2114 45.7691 50.1631 45.4312 50.1631C45.2381 50.1631 44.9967 50.2114 44.8035 50.3079C44.2725 50.5011 43.8379 50.839 44.0311 51.4184C44.1276 51.7081 44.6104 51.9495 44.9484 52.2391ZM31.5748 48.9078C31.8162 48.9078 32.0576 48.9561 32.299 48.9078C32.5404 48.8595 32.8784 48.763 32.9267 48.5699C32.9749 48.3767 32.8301 48.0871 32.637 47.8939C32.1542 47.3629 31.2851 47.2663 30.7541 47.7008C30.5127 47.8939 30.4161 48.2802 30.2713 48.5699C30.5609 48.6664 30.8023 48.8113 31.092 48.8595C31.2369 48.9561 31.43 48.9078 31.5748 48.9078Z" fill="#FFF3E0"/>
<path d="M5.21425 19.3606C5.21425 16.8018 5.21425 14.243 5.21425 11.7324C5.21425 11.2496 4.97285 10.5737 5.89017 10.5737C6.80749 10.5737 6.61437 11.2496 6.61437 11.7807C6.61437 14.3395 6.56609 16.8984 6.66265 19.4089C6.80749 24.1404 11.4424 27.7131 16.1738 25.9267C20.8087 24.1886 22.3054 18.395 19.0706 14.6775C16.8497 12.1186 12.9391 11.4427 10.5733 13.2774C10.4285 13.3739 10.1388 13.4222 9.99397 13.3739C9.84913 13.2774 9.84913 12.9877 9.84913 12.7946C9.84913 12.2635 9.84913 11.7324 9.89741 11.2013C9.89741 10.7668 10.0905 10.5254 10.5733 10.5254C14.2426 10.5254 17.8636 10.5254 21.5329 10.5254C22.2571 10.5254 22.2088 11.0082 22.2088 11.4427C22.2088 15.5948 22.2088 19.6986 22.2088 23.8507C22.2088 24.9611 22.2088 26.1198 22.2088 27.2303C22.2088 27.8579 21.9674 28.0993 21.3398 28.0993C16.3187 28.0993 11.2975 28.0993 6.27641 28.0993C5.26253 28.0993 5.26253 28.051 5.26253 27.0372C5.21425 24.4783 5.21425 21.9195 5.21425 19.3606Z" fill="#FFF3E0"/>
<path d="M68.4131 23.078C68.4131 24.4299 68.4131 25.83 68.4131 27.1818C68.4131 27.8095 68.1717 28.0992 67.5441 28.0992C66.7716 28.0509 65.9992 28.0509 65.2267 28.0992C64.5025 28.1474 64.2611 27.8095 64.2611 27.0853C64.3093 24.4299 64.2611 21.7262 64.2611 19.0708C64.2611 18.4432 64.1645 17.9604 63.3437 18.0569C62.8609 18.1052 62.6195 17.8155 62.6195 17.3327C62.6195 16.9465 62.6678 16.512 62.6195 16.1257C62.5713 15.4498 62.7161 14.8704 63.5851 14.967C64.1645 15.0153 64.2611 14.5808 64.3093 14.098C64.5025 12.6013 65.1301 11.2977 66.7233 10.9598C67.7855 10.7184 68.9442 10.7666 70.0547 10.7666C70.2478 10.7666 70.5375 11.0563 70.5857 11.2494C70.634 11.8771 70.6823 12.5047 70.5857 13.0841C70.5375 13.2772 70.1512 13.422 69.8615 13.5669C69.4753 13.7117 69.0408 13.8083 68.7028 14.0014C68.558 14.098 68.4132 14.4359 68.4614 14.629C68.5097 14.7739 68.7994 14.9187 68.9925 14.967C69.4753 15.1118 70.1995 15.0153 70.4409 15.305C70.7306 15.6429 70.5857 16.3188 70.5857 16.8499C70.5857 18.0569 70.5858 18.1052 69.3305 18.1052C68.558 18.1052 68.3166 18.3466 68.3166 19.1674C68.4614 20.4226 68.4131 21.7745 68.4131 23.078Z" fill="#FFF3E0"/>
<path d="M71.213 21.4843C71.213 19.5531 71.213 17.6219 71.213 15.6907C71.213 15.1596 71.4544 14.9182 71.9855 14.9182C72.6131 14.9182 73.2408 14.9665 73.8201 14.9182C74.5443 14.87 74.7857 15.1596 74.7857 15.8356C74.7857 17.3805 74.7857 18.8772 74.7857 20.4222C74.7857 22.643 74.7857 24.8156 74.7857 27.0365C74.7857 28.0021 74.6892 28.0987 73.7236 28.0987C73.0959 28.0987 72.4683 28.0504 71.8889 28.0987C71.2613 28.147 71.0682 27.8573 71.1164 27.2779C71.1164 25.3467 71.1164 23.4155 71.1164 21.4843C71.1647 21.4843 71.213 21.4843 71.213 21.4843Z" fill="#FFF3E0"/>
<path d="M17.5256 19.2638C17.5256 21.3398 15.7875 23.0779 13.7115 23.0779C11.4906 23.0779 9.80078 21.3881 9.80078 19.1672C9.80078 17.0912 11.4906 15.3531 13.5666 15.4014C15.9323 15.4497 17.5256 16.9946 17.5256 19.2638Z" fill="#FFF3E0"/>
<path d="M10.2832 50.1147C9.65557 50.1147 9.07621 50.1147 8.44857 50.1147C7.86921 50.1147 7.67609 50.4527 7.96577 50.9837C8.44857 51.9976 9.51073 52.1425 10.4763 51.5631C11.0074 51.2734 11.7316 51.1769 12.3592 51.1769C12.8421 51.1769 12.6972 51.6114 12.5041 51.9011C11.973 52.6735 11.2971 53.2046 10.3798 53.3012C8.78653 53.5426 6.71049 53.3495 6.03457 51.2251C5.50349 49.5836 5.74489 47.5559 7.04845 46.4937C8.25545 45.5281 10.1866 45.4798 11.5385 46.3971C12.4075 46.9765 12.9386 48.5215 12.7938 49.6802C12.7938 49.825 12.4075 50.0664 12.1661 50.0664C11.4902 50.2113 10.9108 50.163 10.2832 50.1147ZM9.22105 48.9077C9.46245 48.9077 9.70385 48.956 9.94525 48.9077C10.1866 48.8594 10.5729 48.7146 10.5729 48.618C10.5729 48.3766 10.4763 48.0387 10.2832 47.8455C9.75213 47.3145 8.88309 47.2662 8.40029 47.7973C8.15889 48.0387 8.11061 48.3766 7.91749 48.6663C8.20717 48.7629 8.49685 48.8594 8.78653 48.9077C8.93137 48.9077 9.07621 48.9077 9.22105 48.9077Z" fill="#FFF3E0"/>
<path d="M72.9514 10.7178C74.8343 10.7178 74.8343 10.7178 74.786 12.649C74.786 12.9387 74.786 13.1801 74.786 13.4698C74.786 13.9526 74.5446 14.194 74.0136 14.1457C73.2894 14.0974 72.5652 14.0974 71.841 14.1457C71.3582 14.1457 71.165 13.9043 71.165 13.4698C71.165 12.8422 71.2133 12.1662 71.2133 11.5386C71.2133 10.911 71.4547 10.573 72.1306 10.7178C72.4203 10.7661 72.6617 10.7178 72.9514 10.7178Z" fill="#FFF3E0"/>
<path d="M12.6011 44.9491C12.3597 44.9974 12.07 45.094 11.8286 45.094C10.0906 45.1423 8.40076 45.1423 6.66268 45.094C6.42128 45.094 6.17988 44.8526 5.93848 44.7077C6.17988 44.6595 6.46956 44.5146 6.71096 44.5146C8.3042 44.5146 9.84916 44.4663 11.4424 44.5146C11.8286 44.5146 12.2149 44.5629 12.6011 44.6112C12.5528 44.7077 12.5528 44.8043 12.6011 44.9491Z" fill="#FFF3E0"/>
<path d="M44.9971 21.3395C45.2868 20.3739 45.4316 19.4083 45.8661 18.6358C46.6869 17.0909 48.8595 16.946 49.9699 18.2496C51.2252 19.7463 51.2735 22.7879 50.0182 24.2846C48.8595 25.6847 46.7352 25.5399 45.9144 23.9949C45.4316 23.1742 45.2868 22.2568 44.9971 21.3395Z" fill="#1A130D"/>
<path d="M32.9748 24.7191C30.0297 24.7191 30.5607 24.9123 30.5607 22.45C30.5607 20.3739 30.0779 20.3739 32.6368 20.4222C33.361 20.4222 34.1335 20.3739 34.8577 20.4705C36.0647 20.6636 36.7406 21.5809 36.644 22.6431C36.5475 23.7535 35.6302 24.6709 34.4714 24.7191C33.9886 24.7191 33.4576 24.7191 32.9748 24.7191Z" fill="#1A130D"/>
<path d="M32.9269 17.091C32.4441 17.091 31.9613 17.0427 31.4785 17.091C30.8509 17.1392 30.5129 16.8978 30.5612 16.2219C30.5612 15.5943 30.5612 15.0149 30.5612 14.3873C30.5612 13.8562 30.8026 13.6631 31.2854 13.6631C32.3476 13.6631 33.4097 13.6631 34.4719 13.6631C35.4858 13.7114 36.1617 14.4356 36.1134 15.3529C36.0651 16.4633 35.534 16.9944 34.4236 17.0427C33.9408 17.091 33.4097 17.091 32.9269 17.091Z" fill="#1A130D"/>
<path d="M21.9194 48.425C21.9194 47.6043 21.9677 46.7835 21.9194 45.9627C21.9194 45.3834 22.1608 45.1903 22.6919 45.2385C23.223 45.2385 23.7058 45.2868 24.2368 45.2868C25.0576 45.2868 25.637 45.7213 25.9267 46.4455C26.4095 47.7008 26.4094 49.0044 25.8784 50.2597C25.4921 51.2253 24.7196 51.6598 23.6575 51.6115C21.7746 51.5632 21.9677 51.9012 21.9677 49.97C21.8711 49.4389 21.8711 48.9561 21.9194 48.425Z" fill="#1A130D"/>
<path d="M60.9774 49.5357C61.0257 50.9841 60.3981 51.8048 59.2876 51.8048C58.3703 51.8531 57.7427 51.4186 57.5978 50.453C57.5013 49.8736 57.5013 49.2943 57.5978 48.7149C57.7427 47.9424 58.322 47.5079 59.191 47.5079C59.9635 47.4596 60.6395 47.9907 60.8326 48.7632C60.9774 49.1012 60.9774 49.3908 60.9774 49.5357Z" fill="#1A130D"/>
<path d="M53.7361 49.825C53.543 50.5492 53.5913 51.3217 52.7705 51.7079C52.0946 52.0459 51.2738 51.8528 50.8393 51.2734C50.3565 50.5975 50.3082 49.0042 50.791 48.28C51.1773 47.7007 51.7083 47.4593 52.3843 47.5558C53.0119 47.6524 53.3981 48.0869 53.543 48.7146C53.5913 49.1008 53.6395 49.487 53.7361 49.825Z" fill="#1A130D"/>
<path d="M37.1279 46.5906C37.1279 46.3492 37.1279 46.1078 37.1279 45.8664C37.1279 45.3836 37.3693 45.1904 37.8039 45.1904C38.2867 45.1904 38.7695 45.1904 39.2523 45.2387C40.1213 45.287 40.5558 45.7698 40.5558 46.6388C40.5558 47.3148 40.073 47.8941 39.3488 47.9907C39.1074 48.039 38.8177 48.039 38.5281 48.039C37.1762 48.039 37.1762 48.039 37.1279 46.5906Z" fill="#1A130D"/>
<path d="M33.8927 51.0317C33.4581 51.2248 33.0236 51.3696 32.6374 51.6593C31.8166 52.2387 30.4648 51.8524 30.1751 50.8868C30.0303 50.3558 30.3199 50.2109 30.8027 50.2109C31.9615 50.2109 33.1202 50.1626 34.2789 50.2109C34.5203 50.2109 34.81 50.5006 35.0514 50.6937C34.81 50.8868 34.5686 51.08 34.2789 51.2248C34.1824 51.2731 34.0858 51.2248 33.941 51.2248C33.8927 51.1282 33.8927 51.0799 33.8927 51.0317Z" fill="#1A130D"/>
<path d="M71.0675 52.0939C70.5847 52.0939 70.2467 51.7559 70.2467 51.2248C70.1984 50.6455 71.2606 50.0178 72.2745 50.0661C72.4676 50.0661 72.7573 50.4041 72.8055 50.5489C72.8538 51.3697 72.0331 52.0939 71.0675 52.0939Z" fill="#1A130D"/>
<path d="M44.9488 52.2386C44.5626 51.9489 44.1281 51.7075 43.9832 51.3695C43.7901 50.7902 44.2246 50.4522 44.7557 50.2591C44.9488 50.2108 45.1902 50.1143 45.3834 50.1143C45.7213 50.1143 46.0593 50.1625 46.3972 50.1625C46.3007 50.5971 46.3007 51.0799 46.0593 51.4178C45.9144 51.7558 45.4799 51.9489 44.9488 52.2386Z" fill="#1A130D"/>
<path d="M31.575 48.908C31.4302 48.908 31.2371 48.9562 31.0922 48.908C30.8026 48.8114 30.5612 48.7148 30.2715 48.6183C30.4163 48.3286 30.5129 47.9906 30.7543 47.7492C31.2854 47.3147 32.1544 47.4113 32.6372 47.9424C32.782 48.1355 32.9752 48.4252 32.9269 48.6183C32.8786 48.7631 32.5406 48.908 32.2992 48.9562C32.0578 48.9562 31.8164 48.908 31.575 48.908Z" fill="#1A130D"/>
<path d="M9.2211 48.9081C9.07626 48.9081 8.93142 48.9081 8.83486 48.9081C8.54518 48.8598 8.2555 48.7633 7.96582 48.6667C8.11066 48.377 8.20722 48.0391 8.44862 47.7977C8.93142 47.3149 9.80046 47.3149 10.3315 47.846C10.5247 48.0391 10.6212 48.377 10.6212 48.6184C10.6212 48.715 10.235 48.8598 9.99358 48.9081C9.7039 48.9564 9.41422 48.9081 9.2211 48.9081Z" fill="#1A130D"/>
</svg>
