<svg width="142" height="62" viewBox="0 0 142 62" fill="none" xmlns="http://www.w3.org/2000/svg">
<g clip-path="url(#clip0_608_4682)">
<rect width="142" height="62" fill="white"/>
<path d="M147.402 63.9997C96.2747 63.9997 45.1275 63.9997 -6 63.9997C-6 42.0528 -6 20.1257 -6 -1.82129C45.1077 -1.82129 96.2352 -1.82129 147.402 -1.82129C147.402 20.2052 147.402 42.0925 147.402 63.9997ZM44.93 31.4967C44.9103 31.3377 44.9103 31.1986 44.8905 31.0395C44.7918 27.3419 43.9426 23.8233 42.0665 20.6624C40.1115 17.3624 37.3073 14.8576 33.8711 13.1281C31.7384 12.0546 29.4278 11.498 27.0778 11.1401C24.0762 10.6829 21.1337 11.1799 18.6257 12.8895C16.8089 14.1419 15.2291 15.8317 13.7085 17.4817C11.8522 19.4895 10.1736 21.6564 8.43576 23.7636C6.44122 26.1889 5.49332 29.0118 5.6908 32.113C5.82903 34.5383 6.42147 36.8841 7.56685 39.1106C9.20593 42.2714 11.2795 44.9949 14.2417 47.0028C17.9543 49.5076 22.1211 50.5413 26.4657 50.3823C29.4081 50.263 32.3308 49.5274 35.2535 49.0106C38.7686 48.3943 41.2766 46.2871 42.7972 43.1461C44.5745 39.5082 45.1472 35.5522 44.93 31.4967ZM52.8884 30.9401C52.8884 33.2064 52.9082 35.4528 52.8884 37.719C52.8884 38.3154 53.0267 38.7329 53.7376 38.7329C55.9296 38.713 58.1216 38.7329 60.2939 38.6534C62.1502 38.5937 63.5918 37.3413 64.0065 35.572C64.441 33.7034 63.6906 31.8546 62.0712 30.96C61.4591 30.622 61.3801 30.3835 61.9922 29.9461C63.4536 28.9124 63.9275 27.6202 63.5128 25.9702C63.1179 24.4196 61.9527 23.3462 60.2347 23.2468C58.0821 23.1275 55.9296 23.1672 53.7573 23.1474C53.0859 23.1474 52.8687 23.5052 52.8687 24.1413C52.8884 26.4076 52.8884 28.6739 52.8884 30.9401ZM68.8448 30.8606C68.8448 33.1467 68.8448 35.4329 68.8448 37.719C68.8448 38.3552 68.983 38.7528 69.7729 38.7329C70.5431 38.713 70.6616 38.3154 70.6419 37.6793C70.6221 36.2082 70.6616 34.757 70.6221 33.2859C70.6024 32.4311 70.8393 32.0136 71.7477 32.113C72.2019 32.1726 72.6561 32.1329 73.1104 32.1329C75.6381 32.0931 75.0851 32.0335 76.0528 34.2202C76.6452 35.5522 77.2179 36.904 77.8301 38.2359C78.0671 38.7528 79.0545 39.051 79.5482 38.7528C80.1406 38.3949 79.7457 37.9775 79.5679 37.56C78.857 35.8702 78.1658 34.1805 77.4352 32.5106C77.1784 31.9341 77.2179 31.5763 77.8301 31.1588C78.8965 30.4431 79.7852 29.5088 79.9036 28.0775C80.1406 25.2943 78.5805 23.3859 75.7961 23.2468C73.8608 23.1474 71.9057 23.2468 69.9704 23.207C69.1015 23.1871 68.8053 23.4654 68.825 24.3799C68.8843 26.5269 68.8448 28.6937 68.8448 30.8606ZM83.6953 30.9004C83.6163 30.9202 83.5175 30.96 83.4385 30.9799C83.873 32.5504 84.1495 34.2004 84.8011 35.6714C85.7688 37.8781 87.5856 39.1504 90.0344 39.1702C92.4633 39.1901 94.2604 37.9377 95.3861 35.8106C97.0251 32.769 97.0844 29.6281 95.6428 26.4871C93.7865 22.3919 89.0667 21.4576 85.9465 24.5986C84.268 26.3281 83.7545 28.5546 83.6953 30.9004ZM129.55 22.7498C128.306 22.71 127.22 23.0678 126.213 23.7835C124.909 24.698 124.238 25.9702 124.435 27.5407C124.653 29.2305 125.502 30.5028 127.279 30.9799C128.839 31.3973 130.379 31.8546 131.92 32.3118C133.085 32.6498 133.737 33.4847 133.776 34.6178C133.816 35.6118 133.045 36.7449 132.098 37.1226C129.748 38.0769 127.279 37.3016 125.877 35.1744C125.778 35.0154 125.66 34.8763 125.561 34.7371C125.166 34.1208 124.613 34.3196 124.218 34.6178C124.04 34.757 124.021 35.3335 124.139 35.6118C124.416 36.2082 124.732 36.8443 125.205 37.3016C127.417 39.5082 131.229 39.866 133.796 38.0967C135.356 37.0232 136.225 35.5522 135.869 33.5642C135.593 31.9937 134.507 31.0992 133.144 30.4829C132.71 30.2841 132.236 30.1648 131.762 30.0455C130.557 29.7275 129.333 29.469 128.148 29.1112C127.22 28.8329 126.509 28.2763 126.39 27.2227C126.272 26.2684 126.766 25.3739 127.773 24.857C129.017 24.2209 130.32 24.1215 131.525 24.8769C132.256 25.3341 132.848 26.01 133.44 26.666C133.934 27.1829 134.467 27.1233 134.882 26.7654C135.06 26.6064 135.02 25.9702 134.882 25.6721C133.737 23.5052 131.801 22.8293 129.55 22.7498ZM101.33 31.0594C101.33 33.3257 101.35 35.572 101.33 37.8383C101.33 38.4347 101.508 38.7329 102.16 38.7726C102.871 38.7925 103.206 38.5937 103.246 37.7985C103.305 36.4467 102.93 35.0353 103.897 33.8226C104.687 32.8485 105.458 31.8745 106.208 30.8805C106.702 30.2443 106.958 30.4034 107.314 31.0395C108.538 33.3455 109.822 35.6516 111.086 37.9377C111.481 38.6534 112.429 39.0112 113.08 38.6335C113.238 38.554 113.337 38.0967 113.258 37.9377C111.777 35.1347 110.316 32.3317 108.716 29.6082C108.242 28.7931 108.38 28.316 108.913 27.6799C109.901 26.4871 110.849 25.2546 111.777 24.0022C111.915 23.8034 111.816 23.4257 111.816 23.1275C111.224 23.2666 110.395 23.207 110.079 23.5648C108.044 25.9901 106.129 28.5148 104.154 30.9799C103.957 31.2184 103.68 31.3775 103.443 31.5961C103.364 31.298 103.206 30.9998 103.206 30.7016C103.187 28.4949 103.186 26.3082 103.226 24.1016C103.246 23.366 102.91 23.1275 102.239 23.1275C101.508 23.1275 101.291 23.5251 101.291 24.1811C101.33 26.4871 101.33 28.7733 101.33 31.0594ZM117.859 30.9004H117.839C117.839 33.1865 117.839 35.4726 117.839 37.7787C117.839 38.3949 118.037 38.7726 118.708 38.7726C119.321 38.7726 119.676 38.5341 119.676 37.8582C119.676 33.2859 119.676 28.6937 119.676 24.1215C119.676 23.4853 119.4 23.1474 118.748 23.1672C118.096 23.1672 117.859 23.4853 117.859 24.1413C117.859 26.3877 117.859 28.654 117.859 30.9004Z" fill="#1A130D"/>
<path d="M147.402 63.9999C147.402 42.0927 147.402 20.2054 147.402 -1.82108C96.2352 -1.82108 45.1077 -1.82108 -6 -1.82108C-5.9605 -1.88072 -5.94076 -1.98012 -5.90126 -2C-5.66428 -2 -5.42731 -2 -5.17059 -2C45.7397 -2 96.6302 -2 147.6 -2C147.6 -1.66205 147.6 -1.30422 147.6 -0.966266C147.6 20.4042 147.6 41.7945 147.6 63.165C147.58 63.4433 147.461 63.7216 147.402 63.9999Z" fill="#FFF3E0"/>
<path d="M44.9294 31.4972C45.1466 35.5526 44.5739 39.4888 42.8163 43.1466C41.2957 46.2876 38.8075 48.3948 35.2726 49.0111C32.3499 49.5279 29.4272 50.2635 26.4848 50.3827C22.1205 50.5616 17.9537 49.5279 14.2608 47.0032C11.2986 44.9954 9.22506 42.2719 7.58598 39.1111C6.4406 36.8846 5.84816 34.5388 5.70992 32.1135C5.53219 29.0123 6.46034 26.1894 8.45489 23.7641C10.1927 21.6569 11.8713 19.5099 13.7276 17.5021C15.2482 15.8521 16.8083 14.1822 18.6448 12.9099C21.1331 11.1804 24.0755 10.7033 27.097 11.1605C29.4272 11.5183 31.7377 12.0749 33.8903 13.1484C37.3264 14.878 40.1306 17.3828 42.0857 20.6828C43.9617 23.8436 44.8109 27.3623 44.9096 31.0599C44.8899 31.199 44.9096 31.3581 44.9294 31.4972ZM8.98808 24.1219C8.77085 24.281 8.51413 24.4002 8.3759 24.6189C6.8553 26.9051 6.12463 29.4496 6.24312 32.193C6.38135 35.2743 7.3885 38.0574 8.98808 40.6815C10.4692 43.1267 12.365 45.1942 14.6952 46.7448C18.2301 49.0906 22.2192 50.0845 26.4453 49.7864C28.9533 49.6074 31.4415 49.2496 33.9298 48.8719C37.0104 48.3948 39.6567 47.0629 41.4537 44.399C42.7768 42.4508 43.4483 40.284 43.8827 37.9978C44.6924 33.6243 44.5739 29.3304 43.3495 25.0563C42.3819 21.6569 40.4268 18.8539 37.8596 16.5081C36.102 14.8978 34.068 13.7051 31.8167 12.9099C28.973 11.8762 26.0503 11.4189 23.0486 11.8165C21.2911 12.0551 19.573 12.6316 18.2499 13.8442C16.1763 15.7527 14.2213 17.8002 12.2465 19.8081C11.97 20.0864 11.7923 20.4243 11.5948 20.7026C12.6217 19.7683 13.6486 18.7743 14.715 17.8599C16.1171 16.6274 17.4007 15.1364 19.02 14.3015C23.0289 12.234 27.097 13.2081 30.8096 15.1563C35.2134 17.4623 38.0768 21.1798 39.0642 26.1496C39.9331 30.5828 39.7752 34.9562 37.8399 39.1309C36.5365 41.9141 34.3642 43.743 31.4218 44.5183C29.4865 45.0351 27.5117 45.3731 25.5369 45.6514C22.6339 46.0888 19.7902 45.8701 17.0452 44.6773C14.8137 43.7032 13.0562 42.1725 11.5158 40.3237C7.92169 36.0496 5.9469 29.7677 8.98808 24.1219ZM17.4007 16.5478C17.9537 16.2894 18.4671 15.9912 19.0398 15.7924C21.5675 14.9376 24.036 15.4147 26.4058 16.4087C29.4865 17.7008 31.718 19.9274 32.9819 23.0286C34.6012 27.0243 34.6012 31.0599 32.8634 35.0358C32.0142 36.9641 30.7108 38.5544 28.6571 39.2502C26.6428 39.9261 24.6087 40.5225 22.5549 41.0195C20.0864 41.6358 17.7167 41.3376 15.5839 39.8864C12.0688 37.4809 10.094 34.0617 9.42254 29.9267C9.20531 28.6346 9.56077 27.2231 9.7385 25.8912C9.8175 25.2551 10.1137 24.6388 10.2914 24.0225C8.86959 25.7123 8.21791 27.6406 8.17842 29.7677C8.11917 32.2328 8.8301 34.5189 9.93598 36.6858C12.5032 41.6954 17.0847 45.4129 23.0486 45.0352C25.8133 44.8562 28.5978 44.399 31.3033 43.7629C34.0482 43.1068 36.0823 41.3574 37.2869 38.7135C38.8667 35.2743 39.1037 31.6364 38.689 27.9587C38.531 26.4677 38.1756 24.937 37.6029 23.5454C35.9638 19.6093 33.1596 16.7069 29.2297 15.0966C26.3663 13.9237 23.3843 13.4268 20.3234 14.3611C19.1188 14.7388 18.0326 15.2755 17.4007 16.5478ZM11.3973 24.1418C10.173 25.8316 9.75825 27.6804 10.1137 29.6285C10.6074 32.3918 11.6541 34.9364 13.5301 37.0834C15.6036 39.4291 18.0524 40.9201 21.2713 40.4231C23.3251 40.105 25.3789 39.5683 27.3734 38.9918C29.2692 38.4352 30.8096 37.3219 31.7377 35.5129C33.7323 31.6165 33.8113 27.6406 32.3302 23.5653C30.5134 18.5557 24.4902 15.0171 19.178 16.6075C18.1511 16.9057 17.1045 17.343 16.591 18.4364C16.9663 18.3767 17.2822 18.2177 17.5982 18.0587C18.8423 17.4225 20.1654 17.3033 21.4885 17.6611C25.6751 18.7942 28.5188 21.9749 28.7163 26.5671C28.8743 30.0063 27.7289 32.9087 24.5692 34.6183C23.1079 35.4135 21.5083 35.9502 19.9482 36.5267C17.8154 37.302 15.9986 36.6261 14.4978 35.0358C12.9377 33.3858 12.0095 31.3779 11.3973 29.2111C10.9629 27.7002 10.7456 26.2291 11.4171 24.7382C11.4961 24.5593 11.4171 24.3406 11.3973 24.1418ZM12.3452 24.9966C12.286 24.9767 12.2267 24.9767 12.1675 24.9569C12.1083 25.2948 11.9898 25.6526 11.97 25.9906C11.8515 29.7081 13.2339 32.7695 16.0381 35.155C16.9268 35.9105 18.0326 36.1291 19.1385 35.7713C20.5801 35.2942 22.002 34.7575 23.3843 34.1809C26.386 32.9087 27.7092 30.5032 27.8276 27.3424C27.9856 23.2273 25.2802 19.2912 20.9751 18.4563C19.415 18.1581 17.5389 18.6551 16.8675 19.7087C17.1045 19.7087 17.3217 19.7286 17.4995 19.7087C19.5927 19.4502 21.7058 20.5436 22.7722 22.4322C23.8385 24.3207 23.8386 26.8057 22.3575 28.237C20.7776 29.7478 18.8818 30.9605 17.065 32.1731C16.7293 32.3918 15.8011 32.2328 15.5247 31.9147C14.8137 31.0797 14.2213 30.0858 13.7868 29.0719C13.2339 27.7798 12.8192 26.3683 12.3452 24.9966ZM22.4759 25.1159C22.4759 22.3526 20.1852 20.4641 17.7957 20.6231C15.0705 20.802 13.0957 23.287 13.7276 25.8912C14.1423 27.5412 14.952 29.1316 15.6629 30.6822C16.0184 31.4575 16.591 31.537 17.3217 31.04C18.4079 30.3243 19.494 29.6087 20.5406 28.8334C21.8045 27.9388 22.4957 26.7063 22.4759 25.1159Z" fill="#FFF3E0"/>
<path d="M52.8887 30.9399C52.8887 28.6736 52.8887 26.4272 52.8887 24.161C52.8887 23.5248 53.1256 23.167 53.7773 23.167C55.9299 23.1869 58.1021 23.1471 60.2547 23.2664C61.9727 23.3658 63.1379 24.4194 63.5328 25.9899C63.9475 27.6399 63.4736 28.932 62.0122 29.9658C61.3803 30.4031 61.479 30.6417 62.0912 30.9796C63.7106 31.8742 64.4807 33.723 64.0265 35.5917C63.6118 37.361 62.1702 38.6134 60.3139 38.673C58.1219 38.7525 55.9299 38.7128 53.7576 38.7525C53.0467 38.7525 52.9084 38.335 52.9084 37.7387C52.9084 35.4525 52.8887 33.1863 52.8887 30.9399ZM57.5689 37.0429V37.0628C58.4181 37.023 59.287 37.0429 60.1164 36.9236C61.3803 36.7248 62.1307 35.6911 62.1307 34.3591C62.1307 32.9676 61.321 31.6754 60.1362 31.5363C58.6353 31.3772 57.1147 31.3971 55.5941 31.3772C55.0412 31.3772 54.7845 31.7152 54.7845 32.2519C54.7845 33.564 54.7845 34.876 54.8042 36.1881C54.8042 36.7447 55.0807 37.0429 55.6534 37.023C56.3051 37.0429 56.937 37.0429 57.5689 37.0429ZM57.4899 29.767C57.4899 29.7471 57.4899 29.7471 57.4899 29.7272C58.1219 29.7272 58.7538 29.7471 59.4055 29.7272C60.6101 29.6875 61.6568 28.5941 61.7555 27.3417C61.8345 26.129 61.0446 25.0158 59.8005 24.8965C58.3589 24.7574 56.8975 24.7772 55.4559 24.7971C55.2584 24.7971 54.903 25.2543 54.8832 25.4929C54.824 26.626 54.8635 27.7393 54.8437 28.8724C54.8437 29.5483 55.1399 29.8067 55.7916 29.7471C56.3446 29.7272 56.9173 29.767 57.4899 29.767Z" fill="#FFF3E0"/>
<path d="M68.8449 30.8602C68.8449 28.6934 68.8844 26.5265 68.8251 24.3596C68.8054 23.465 69.1016 23.1669 69.9705 23.1867C71.9058 23.2265 73.8609 23.1271 75.7962 23.2265C78.5806 23.3855 80.1407 25.294 79.9037 28.0572C79.7853 29.4686 78.8966 30.403 77.8302 31.1385C77.218 31.556 77.1983 31.9138 77.4353 32.4903C78.1462 34.1801 78.8571 35.8698 79.568 37.5397C79.7458 37.9373 80.1407 38.3548 79.5483 38.7325C79.0546 39.0307 78.0672 38.7325 77.8302 38.2156C77.218 36.8837 76.6651 35.5319 76.0529 34.2C75.0852 32.0132 75.6382 32.0729 73.1104 32.1126C72.6562 32.1126 72.202 32.1524 71.7478 32.0927C70.8394 31.9933 70.5827 32.4108 70.6222 33.2656C70.6814 34.7367 70.6222 36.1879 70.642 37.659C70.6617 38.315 70.5432 38.6927 69.773 38.7126C68.9831 38.7325 68.8449 38.3349 68.8449 37.6988C68.8449 35.4325 68.8449 33.1464 68.8449 30.8602ZM73.5646 24.956C73.5646 24.9361 73.5646 24.9361 73.5646 24.956C72.8735 24.9361 72.1625 24.956 71.4714 24.9361C70.9974 24.9162 70.7012 25.0952 70.7012 25.612C70.7012 27.0036 70.6814 28.415 70.7209 29.8066C70.7209 30.0253 71.0567 30.403 71.2344 30.403C72.7747 30.4229 74.3348 30.4626 75.8554 30.2837C77.2575 30.1247 78.0672 28.7331 77.9487 27.103C77.85 25.8307 77.0008 25.0554 75.5592 24.956C74.9075 24.9162 74.2361 24.956 73.5646 24.956Z" fill="#FFF3E0"/>
<path d="M83.696 30.9011C83.7552 28.5354 84.2687 26.3089 85.967 24.5993C89.0872 21.4583 93.7872 22.4126 95.6632 26.4878C97.1048 29.6288 97.0258 32.7698 95.4065 35.8113C94.2611 37.9384 92.4838 39.1908 90.0548 39.171C87.6061 39.1511 85.7892 37.8788 84.8216 35.6722C84.1699 34.2011 83.8934 32.5511 83.459 30.9806C83.5182 30.9607 83.617 30.9409 83.696 30.9011ZM94.7746 31.2192C94.5178 29.9469 94.3599 28.6348 93.9846 27.4023C93.4515 25.6728 92.2863 24.4999 90.3708 24.4204C88.6527 24.3409 87.4086 25.1559 86.6582 26.7264C86.4607 27.1637 86.2829 27.6409 86.1842 28.0981C85.967 29.1716 85.6313 30.2451 85.6905 31.3186C85.7497 32.4915 86.125 33.6445 86.5002 34.7776C86.9939 36.2686 87.9615 37.3023 89.6204 37.4613C91.2002 37.6204 92.4838 37.1035 93.3132 35.6722C94.1229 34.3204 94.5968 32.8493 94.7746 31.2192Z" fill="#FFF3E0"/>
<path d="M129.55 22.7501C131.801 22.8296 133.736 23.4856 134.842 25.6525C135 25.9507 135.039 26.5868 134.842 26.7458C134.427 27.1037 133.874 27.1832 133.4 26.6464C132.808 26.0103 132.216 25.3145 131.485 24.8573C130.3 24.1217 128.977 24.2013 127.733 24.8374C126.726 25.3543 126.232 26.229 126.35 27.2031C126.469 28.2567 127.18 28.8133 128.108 29.0916C129.293 29.4494 130.517 29.7079 131.722 30.026C132.196 30.1452 132.67 30.2645 133.104 30.4633C134.467 31.0796 135.533 31.9741 135.829 33.5446C136.185 35.5326 135.316 37.0037 133.756 38.0772C131.208 39.8265 127.377 39.4687 125.165 37.282C124.711 36.8247 124.376 36.1886 124.099 35.5922C123.981 35.3139 124 34.7374 124.178 34.5982C124.573 34.2802 125.126 34.1012 125.521 34.7175C125.62 34.8765 125.738 35.0157 125.837 35.1549C127.239 37.282 129.708 38.0573 132.058 37.1031C133.025 36.7055 133.776 35.5922 133.736 34.5982C133.697 33.4651 133.045 32.6302 131.88 32.2922C130.339 31.835 128.799 31.3778 127.239 30.9603C125.481 30.4832 124.632 29.2109 124.395 27.5211C124.178 25.9507 124.85 24.6784 126.173 23.7639C127.219 23.0681 128.305 22.7103 129.55 22.7501Z" fill="#FFF3E0"/>
<path d="M101.33 31.0598C101.33 28.7737 101.33 26.4876 101.33 24.1815C101.33 23.5255 101.547 23.1279 102.278 23.1279C102.93 23.1279 103.265 23.3864 103.265 24.102C103.226 26.3086 103.226 28.4954 103.246 30.702C103.246 31.0002 103.404 31.2984 103.483 31.5966C103.72 31.3978 104.016 31.2388 104.194 30.9803C106.168 28.4954 108.084 25.9906 110.118 23.5653C110.434 23.1876 111.263 23.2472 111.856 23.1279C111.856 23.4261 111.954 23.8038 111.816 24.0026C110.908 25.255 109.96 26.4876 108.953 27.6803C108.42 28.3165 108.281 28.7737 108.755 29.6086C110.355 32.352 111.816 35.155 113.297 37.9382C113.376 38.0972 113.278 38.5544 113.12 38.6339C112.468 38.9918 111.52 38.6339 111.125 37.9382C109.861 35.652 108.578 33.346 107.353 31.04C107.017 30.4038 106.741 30.2448 106.247 30.8809C105.477 31.8749 104.707 32.849 103.937 33.8231C102.969 35.0159 103.344 36.4472 103.285 37.799C103.246 38.5942 102.91 38.793 102.199 38.7731C101.567 38.7532 101.37 38.455 101.37 37.8388C101.35 35.5725 101.35 33.3261 101.33 31.0598Z" fill="#FFF3E0"/>
<path d="M117.859 30.9003C117.859 28.634 117.879 26.3876 117.839 24.1214C117.839 23.4653 118.076 23.1672 118.728 23.1473C119.379 23.1274 119.656 23.4852 119.656 24.1015C119.656 28.6738 119.656 33.2659 119.656 37.8382C119.656 38.5141 119.3 38.7527 118.688 38.7527C117.997 38.7527 117.819 38.375 117.819 37.7587C117.839 35.4726 117.819 33.1864 117.819 30.8804C117.839 30.9003 117.839 30.9003 117.859 30.9003Z" fill="#FFF3E0"/>
<path d="M8.98905 24.1216C5.92811 29.7674 7.90291 36.0493 11.497 40.3234C13.0374 42.1523 14.8147 43.7029 17.0265 44.677C19.7517 45.8698 22.6151 46.0686 25.5181 45.6511C27.4929 45.3529 29.4874 45.015 31.403 44.518C34.3454 43.7427 36.5177 41.9138 37.8211 39.1307C39.7564 34.956 39.9341 30.5825 39.0454 26.1494C38.0581 21.1795 35.1946 17.4421 30.7908 15.156C27.0782 13.2078 23.0101 12.2337 19.0013 14.3012C17.3819 15.1361 16.0983 16.647 14.6962 17.8596C13.6298 18.7939 12.6029 19.768 11.576 20.7024C11.7735 20.4241 11.971 20.0662 12.2277 19.8078C14.2223 17.8 16.1773 15.7524 18.2311 13.8439C19.5542 12.6313 21.2723 12.0349 23.0299 11.8162C26.0315 11.4186 28.974 11.8759 31.7979 12.9096C34.0295 13.7247 36.0833 14.8976 37.8408 16.5078C40.4081 18.8536 42.3631 21.6367 43.3308 25.056C44.5551 29.3301 44.6736 33.624 43.864 37.9975C43.4295 40.3036 42.7581 42.4704 41.435 44.3987C39.6181 47.0825 36.9917 48.3945 33.911 48.8716C31.4227 49.2692 28.9345 49.627 26.4265 49.7861C22.2004 50.0644 18.2113 49.0903 14.6765 46.7445C12.3462 45.1939 10.4504 43.1264 8.9693 40.6813C7.36972 38.0572 6.36257 35.274 6.22433 32.1927C6.10585 29.4493 6.83652 26.9048 8.35711 24.6186C8.5151 24.4 8.79157 24.2807 8.98905 24.1216Z" fill="#1A130D"/>
<path d="M17.4017 16.5477C18.0337 15.2754 19.1198 14.7188 20.3047 14.361C23.3656 13.4266 26.3673 13.9038 29.211 15.0965C33.1409 16.7266 35.9451 19.6092 37.5842 23.5453C38.1568 24.9369 38.5123 26.4676 38.6703 27.9586C39.085 31.6363 38.8283 35.2742 37.2682 38.7134C36.0636 41.3573 34.0295 43.1067 31.2846 43.7628C28.5791 44.3989 25.7946 44.8561 23.0299 45.035C17.066 45.4128 12.4845 41.6953 9.91726 36.6857C8.81137 34.5188 8.10045 32.2525 8.15969 29.7676C8.21893 27.6206 8.85087 25.6923 10.2727 24.0224C10.0752 24.6387 9.79877 25.2549 9.71978 25.8911C9.54205 27.2429 9.20633 28.6345 9.40381 29.9266C10.095 34.0616 12.05 37.4808 15.5652 39.8863C17.698 41.3573 20.0677 41.6356 22.5362 41.0194C24.59 40.5025 26.6438 39.926 28.6383 39.2501C30.6921 38.5543 31.9955 36.964 32.8446 35.0357C34.5825 31.0598 34.5825 27.0242 32.9631 23.0284C31.6993 19.9272 29.4677 17.7007 26.3871 16.4086C24.0173 15.4146 21.5686 14.9176 19.0211 15.7923C18.4879 15.9911 17.9547 16.3092 17.4017 16.5477Z" fill="#1A130D"/>
<path d="M11.3972 24.1421C11.3972 24.3409 11.4761 24.5596 11.4169 24.7186C10.7455 26.2096 10.9627 27.6806 11.3972 29.1915C12.0093 31.3583 12.9572 33.3662 14.4976 35.0162C15.9984 36.6065 17.8152 37.2824 19.948 36.5071C21.5081 35.9306 23.1274 35.3939 24.569 34.5987C27.7287 32.8891 28.8741 29.9867 28.7161 26.5475C28.5186 21.9553 25.6749 18.7945 21.4884 17.6415C20.1653 17.2837 18.8421 17.4228 17.598 18.0391C17.2821 18.1981 16.9661 18.3572 16.5909 18.4168C17.1241 17.3234 18.151 16.8861 19.1779 16.5879C24.4901 14.9975 30.5132 18.5361 32.33 23.5457C33.8111 27.621 33.7519 31.6168 31.7376 35.4933C30.8094 37.3023 29.2493 38.4354 27.3733 38.9722C25.359 39.5487 23.3249 40.0854 21.2711 40.4035C18.0522 40.9005 15.5837 39.4095 13.5299 37.0638C11.6539 34.9168 10.627 32.3722 10.1135 29.609C9.77782 27.6806 10.1728 25.8318 11.3972 24.1421Z" fill="#1A130D"/>
<path d="M12.3457 24.9966C12.8196 26.3683 13.2343 27.7599 13.8268 29.0918C14.281 30.1056 14.8734 31.0797 15.5646 31.9346C15.8213 32.2526 16.7692 32.4117 17.1049 32.193C18.9415 30.9803 20.8373 29.7677 22.3974 28.2568C23.8982 26.8255 23.8785 24.3406 22.8121 22.452C21.7654 20.5635 19.6327 19.4701 17.5394 19.7285C17.3419 19.7484 17.1444 19.7285 16.9074 19.7285C17.5591 18.6749 19.4549 18.1779 21.015 18.4761C25.3201 19.3111 28.0255 23.2472 27.8676 27.3623C27.7491 30.5231 26.4062 32.9285 23.4243 34.2008C22.0222 34.7972 20.6003 35.3339 19.1785 35.7912C18.0726 36.149 16.9667 35.9303 16.078 35.1749C13.2738 32.7894 11.8915 29.708 12.01 26.0105C12.0297 25.6725 12.1284 25.3147 12.2074 24.9767C12.2272 24.9767 12.2864 24.9966 12.3457 24.9966Z" fill="#1A130D"/>
<path d="M22.4767 25.1155C22.4965 26.7058 21.8053 27.9383 20.5612 28.8528C19.5145 29.6281 18.4284 30.3438 17.3422 31.0594C16.6116 31.5564 16.0586 31.4968 15.6834 30.7016C14.9527 29.1311 14.1431 27.5606 13.7481 25.9106C13.0964 23.2865 15.0712 20.8215 17.8162 20.6426C20.186 20.4637 22.4767 22.3522 22.4767 25.1155Z" fill="#1A130D"/>
<path d="M57.5686 37.0431C56.9367 37.0431 56.285 37.0431 55.6531 37.0431C55.0804 37.0431 54.8039 36.7648 54.8039 36.2082C54.8039 34.8961 54.8039 33.5841 54.7842 32.272C54.7842 31.7154 55.0409 31.3774 55.5938 31.3973C57.1144 31.4172 58.635 31.3973 60.1359 31.5564C61.3208 31.6955 62.1304 32.9678 62.1304 34.3792C62.1304 35.7112 61.38 36.7449 60.1161 36.9437C59.2867 37.0828 58.4178 37.0431 57.5686 37.0829C57.5686 37.063 57.5686 37.063 57.5686 37.0431Z" fill="#1A130D"/>
<path d="M57.4891 29.7671C56.9164 29.7671 56.3437 29.7273 55.771 29.7671C55.1194 29.8068 54.8034 29.5484 54.8231 28.8924C54.8429 27.7592 54.8034 26.6261 54.8626 25.5129C54.8824 25.2544 55.2378 24.8171 55.4353 24.8171C56.8769 24.7773 58.3383 24.7574 59.7799 24.9165C61.024 25.0358 61.8139 26.1689 61.7349 27.3617C61.6559 28.6141 60.5895 29.7074 59.3849 29.7472C58.753 29.7671 58.121 29.7472 57.4694 29.7472C57.4891 29.7472 57.4891 29.7472 57.4891 29.7671Z" fill="#1A130D"/>
<path d="M73.5657 24.9564C74.2371 24.9564 74.9085 24.9166 75.5602 24.9564C77.0018 25.0359 77.851 25.8112 77.9497 27.1034C78.0682 28.7136 77.2585 30.1251 75.8564 30.2841C74.3358 30.463 72.7757 30.4034 71.2354 30.4034C71.0577 30.4034 70.722 30.0257 70.722 29.807C70.6825 28.4154 70.7022 27.004 70.7022 25.6124C70.7022 25.1154 70.9984 24.9365 71.4724 24.9365C72.1636 24.9365 72.8745 24.9365 73.5657 24.9564C73.5657 24.9365 73.5657 24.9365 73.5657 24.9564Z" fill="#1A130D"/>
<path d="M94.7743 31.2188C94.5966 32.8489 94.1227 34.32 93.3327 35.6917C92.5033 37.123 91.2197 37.62 89.6399 37.4808C87.981 37.3218 87.0134 36.2682 86.5197 34.7971C86.1445 33.6839 85.7693 32.511 85.71 31.3381C85.6508 30.2845 85.9865 29.1911 86.2037 28.1176C86.3025 27.6405 86.4802 27.1833 86.6777 26.7459C87.4083 25.1754 88.6525 24.3604 90.3903 24.4399C92.3058 24.5194 93.471 25.6923 94.0042 27.4218C94.3596 28.6345 94.5176 29.9465 94.7743 31.2188Z" fill="#1A130D"/>
</g>
<defs>
<clipPath id="clip0_608_4682">
<rect width="142" height="62" fill="white"/>
</clipPath>
</defs>
</svg>
