<svg width="157" height="62" viewBox="0 0 157 62" fill="none" xmlns="http://www.w3.org/2000/svg">
<g clip-path="url(#clip0_608_4453)">
<path d="M0 62C0 41.3333 0 20.6667 0 0C52.3333 0 104.667 0 157 0C157 20.6667 157 41.3333 157 62C104.667 62 52.3333 62 0 62ZM12.9542 32.116C12.9749 35.03 12.9542 37.9233 12.9749 40.8373C12.9955 42.3253 13.4501 42.7387 14.917 42.7387C20.6813 42.7593 26.4456 42.7593 32.2099 42.7593C33.8008 42.7593 34.3793 42.1807 34.3793 40.5687C34.3793 36.2493 34.3793 31.93 34.3586 27.59C34.3586 26.102 34.3793 24.614 34.3379 23.1053C34.2966 22.01 33.6768 21.39 32.6851 21.39C26.7348 21.39 20.7846 21.3693 14.8343 21.39C13.4087 21.39 12.9129 21.9067 12.9129 23.3533C12.9542 26.3087 12.9542 29.2227 12.9542 32.116ZM96.3611 38.2953C97.4974 38.2953 98.6131 38.2747 99.7494 38.316C100.452 38.3367 100.535 37.9233 100.555 37.3653C100.576 36.7867 100.349 36.5593 99.7701 36.5593C98.2206 36.58 96.671 36.5387 95.1215 36.5593C94.4603 36.58 94.1297 36.3733 94.1711 35.6707C94.2124 35.092 94.2124 34.5133 94.1504 33.9347C94.0884 33.232 94.3983 32.984 95.0595 33.0047C96.4437 33.0253 97.8487 32.984 99.2329 33.046C99.9147 33.0667 100.245 32.9427 100.245 32.1573C100.245 31.3513 99.8321 31.2687 99.1916 31.2893C98.1172 31.31 97.0429 31.2893 95.9685 31.2893C93.8405 31.2893 94.1917 31.3513 94.1711 29.5327C94.1711 29.3467 94.1711 29.1607 94.1711 28.9747C94.1091 28.272 94.419 28.0653 95.1008 28.086C96.6503 28.1273 98.1999 28.086 99.7494 28.1067C100.39 28.1067 100.535 27.7967 100.535 27.218C100.555 26.6187 100.287 26.412 99.7494 26.412C97.4974 26.412 95.2454 26.4327 92.9934 26.412C92.3943 26.412 92.1463 26.6393 92.1463 27.2387C92.167 30.6487 92.1463 34.0587 92.1463 37.4687C92.1463 38.0473 92.3529 38.2747 92.9108 38.2747C94.0471 38.2747 95.2041 38.2953 96.3611 38.2953ZM38.2015 31.806C38.2015 35.4847 39.3998 37.386 42.003 38.254C44.6889 39.1427 47.6434 37.758 48.5318 35.1333C48.6144 34.906 48.4905 34.472 48.3252 34.3687C47.7673 34.038 46.8376 34.41 46.5897 35.03C46.0938 36.2493 45.0608 36.6833 43.8625 36.8073C42.5815 36.9313 41.6518 36.3113 41.0526 35.2987C40.2056 33.8313 40.0609 32.1987 40.5361 30.5867C40.846 29.5327 41.3419 28.52 42.5195 28.1067C44.255 27.5073 45.8046 28.1687 46.6103 29.8633C46.8376 30.3387 47.912 30.6693 48.3872 30.3387C48.9037 29.9873 48.5524 29.5327 48.3872 29.1607C46.5897 25.048 41.1766 25.7713 39.3791 28.272C38.4701 29.45 38.2221 30.814 38.2015 31.806ZM107.477 37.448C107.58 37.5927 107.683 37.696 107.704 37.7993C107.89 38.626 108.489 38.2953 108.964 38.2747C109.501 38.254 109.522 37.8407 109.522 37.4273C109.522 34.0173 109.522 30.628 109.543 27.218C109.543 26.598 109.233 26.4533 108.716 26.4533C108.2 26.4533 107.662 26.35 107.642 27.1147C107.642 27.7967 107.662 28.4787 107.662 29.1607C107.662 29.5327 107.662 29.9047 107.662 30.256C107.435 30.2767 107.373 30.2973 107.332 30.2767C107.249 30.2353 107.146 30.194 107.063 30.1113C106.196 29.2227 105.142 29.078 104.026 29.4087C102.435 29.8633 101.526 31 101.196 32.5707C100.844 34.348 101.092 36.0427 102.435 37.3653C103.964 38.812 105.534 38.812 107.477 37.448ZM66.0107 37.448C66.3206 37.5927 66.4652 37.634 66.5685 37.7373C68.2007 39.308 71.1345 38.502 72.0229 36.0427C72.5394 34.6167 72.4568 33.1493 72.0022 31.7233C71.4444 30.0287 69.7089 29.0367 67.9734 29.45C67.3329 29.5947 66.7751 29.9667 66.114 30.256C66.0726 30.132 66.052 29.8633 65.9487 29.8427C65.5148 29.6773 65.0809 29.5327 64.6264 29.512C64.4611 29.512 64.1719 29.9253 64.1719 30.1527C64.1305 33.5213 64.1512 36.9107 64.1305 40.2793C64.1305 40.982 64.3578 41.23 65.1016 41.23C65.8454 41.23 66.0726 40.9613 66.0313 40.2587C65.99 39.37 66.0107 38.502 66.0107 37.448ZM77.5599 38.502C79.0475 38.502 80.1838 37.7993 80.9896 36.5387C81.1755 36.2493 81.3821 35.8153 80.845 35.7327C80.2458 35.65 79.626 35.6087 79.0888 36.1253C77.7665 37.386 75.9484 37.0347 75.1013 35.402C74.7294 34.6787 74.936 34.3273 75.7418 34.3273C77.3947 34.348 79.0268 34.3273 80.6797 34.348C81.2995 34.348 81.5888 34.038 81.4441 33.4593C81.2582 32.6947 81.0722 31.9093 80.721 31.2273C79.7913 29.4293 77.25 28.6853 75.4732 29.574C73.2832 30.69 72.6427 32.3847 73.0353 35.0093C73.3865 37.2 75.6592 38.6673 77.5599 38.502ZM55.4944 37.3033C55.6597 37.5927 55.701 37.882 55.8456 37.944C56.2175 38.1093 56.6307 38.254 57.0233 38.2747C57.1473 38.2747 57.3952 37.82 57.3952 37.572C57.3745 35.9187 57.3332 34.2653 57.2506 32.6327C57.1679 30.69 56.4035 29.8013 54.5234 29.326C52.8085 28.892 50.8044 29.822 50.1226 31.3927C50.0193 31.62 50.0193 32.0127 50.164 32.1573C50.5152 32.55 51.6515 32.2607 51.8995 31.7647C52.416 30.752 53.6143 30.318 54.5234 30.9587C54.9366 31.2687 55.1432 31.93 55.3085 32.4673C55.3291 32.5707 54.606 32.8807 54.2134 33.0667C54.1101 33.1287 53.9449 33.0667 53.8209 33.0873C52.7672 33.3767 51.6929 33.5833 50.6805 33.976C49.8954 34.286 49.3375 35.0093 49.4202 35.898C49.5028 36.9313 50.0193 37.7993 51.073 38.1713C52.6639 38.7087 54.1721 38.8327 55.4944 37.3033ZM131.34 33.9347C131.34 33.7073 131.36 33.4593 131.34 33.232C131.112 30.4213 128.55 28.644 125.844 29.4293C123.612 30.07 122.455 32.0747 122.807 34.596C123.034 36.1873 123.736 37.4687 125.245 38.0887C128.385 39.37 131.319 37.3447 131.34 33.9347ZM134.501 30.4213C134.377 30.0907 134.335 29.9253 134.253 29.7807C133.901 29.14 133.302 29.512 132.848 29.4913C132.682 29.4913 132.393 29.9047 132.393 30.132C132.352 32.5087 132.373 34.8853 132.373 37.2827C132.373 38.1093 132.579 38.2333 133.509 38.254C134.211 38.2747 134.335 37.8613 134.335 37.3033C134.315 35.96 134.294 34.6373 134.335 33.294C134.356 32.8393 134.459 32.364 134.625 31.93C134.934 31.1033 135.637 30.7727 136.587 30.876C137.414 30.9587 137.827 31.372 137.992 32.3227C138.054 32.7153 138.054 33.108 138.075 33.5007C138.075 34.844 138.096 36.1667 138.075 37.51C138.075 38.316 138.674 38.2333 139.17 38.2747C139.707 38.316 140.017 38.068 139.996 37.51C139.976 35.65 140.017 33.79 139.955 31.93C139.893 30.38 138.715 29.3673 137.186 29.2847C136.133 29.202 135.306 29.6567 134.501 30.4213ZM82.973 33.9553C82.973 34.472 82.973 35.0093 82.973 35.526C82.9524 37.9853 83.3656 38.3987 85.8035 38.44C86.32 38.44 86.6919 38.3573 86.6919 37.7373C86.6919 37.1587 86.4853 36.8487 85.8655 36.8693C85.163 36.89 84.8738 36.518 84.8738 35.836C84.8738 34.4927 84.9151 33.17 84.8945 31.8267C84.8945 31.186 85.0391 30.814 85.7829 30.876C86.2994 30.9173 86.7126 30.7933 86.6919 30.1113C86.6713 29.388 86.1961 29.4293 85.7002 29.4913C85.163 29.5533 84.9151 29.2847 84.9151 28.768C84.9151 28.5407 84.8945 28.2927 84.9358 28.0653C85.0184 27.4247 84.7912 27.156 84.13 27.1353C83.0763 27.094 83.0143 27.1147 83.0143 28.148C83.0143 28.3753 82.973 28.6233 82.9937 28.8507C83.0557 29.326 82.8077 29.4707 82.4152 29.45C81.9606 29.4293 81.6507 29.512 81.6714 30.0907C81.6921 30.566 81.816 30.9173 82.3945 30.8967C82.9317 30.876 83.035 31.2067 83.035 31.6613C82.973 32.4467 82.973 33.2113 82.973 33.9553ZM114.852 33.9967H114.832C114.832 34.4927 114.832 34.9887 114.832 35.4847C114.79 37.9647 115.266 38.44 117.724 38.44C118.179 38.44 118.571 38.3987 118.592 37.82C118.613 37.2413 118.468 36.8487 117.765 36.8487C117.042 36.8693 116.753 36.4147 116.753 35.7327C116.753 34.5547 116.753 33.3767 116.753 32.1987C116.753 31.0413 116.774 31.062 117.951 30.8553C118.199 30.814 118.489 30.4007 118.53 30.132C118.551 29.9253 118.199 29.5327 117.972 29.4913C116.794 29.2847 116.753 29.326 116.794 28.1067C116.815 27.404 116.567 27.094 115.844 27.1147C114.894 27.156 114.77 27.2387 114.832 28.2513C114.873 28.892 114.935 29.4707 114.005 29.512C113.819 29.512 113.53 29.9873 113.551 30.2353C113.571 30.4627 113.923 30.8553 114.109 30.8553C114.749 30.8553 114.852 31.186 114.852 31.7027C114.852 32.4673 114.852 33.232 114.852 33.9967ZM60.6182 30.6693C60.5563 30.5247 60.5149 30.4833 60.4943 30.4213C60.4323 29.4913 60.3496 29.45 59.3579 29.45C58.5315 29.45 58.6142 30.008 58.6142 30.5247C58.6142 32.7567 58.6348 34.968 58.6142 37.2C58.6142 37.8407 58.6555 38.3573 59.5026 38.316C60.3496 38.2747 60.4943 38.1507 60.4943 37.2207C60.5149 35.836 60.4736 34.4513 60.5769 33.0667C60.6596 31.9507 61.362 31.3927 62.4364 31.3513C62.7256 31.3513 63.2421 31.186 63.2628 31.0413C63.3248 30.566 63.2628 30.07 63.1388 29.6153C63.1182 29.5327 62.457 29.5327 62.1678 29.6567C61.6513 29.946 61.1761 30.318 60.6182 30.6693ZM110.762 33.8313C110.741 35.0093 110.762 36.1873 110.741 37.3653C110.741 37.9233 110.782 38.3367 111.526 38.316C112.166 38.2953 112.704 38.3367 112.683 37.4067C112.642 35.03 112.662 32.6533 112.704 30.2767C112.724 29.3673 112.104 29.5533 111.588 29.4913C111.03 29.4293 110.762 29.6567 110.762 30.2353C110.782 31.434 110.762 32.6327 110.762 33.8313ZM121.732 33.852C121.732 32.6533 121.732 31.4547 121.753 30.2353C121.774 29.5533 121.36 29.4707 120.844 29.4913C120.327 29.512 119.832 29.45 119.852 30.2353C119.873 32.612 119.873 34.9887 119.852 37.3653C119.852 38.1093 120.162 38.316 120.844 38.316C121.588 38.316 121.794 37.9647 121.774 37.3033C121.712 36.146 121.732 35.0093 121.732 33.852ZM111.629 28.3753C112.228 28.4167 112.745 28.3753 112.704 27.5073C112.642 26.5567 112.538 26.4327 111.547 26.412C110.865 26.412 110.72 26.784 110.741 27.3627C110.762 27.9413 110.762 28.52 111.629 28.3753ZM119.832 27.28C119.852 28.3133 119.935 28.3753 120.885 28.396C121.629 28.4167 121.732 27.9827 121.712 27.3833C121.691 26.598 121.484 26.412 120.658 26.412C120.079 26.4327 119.728 26.6393 119.832 27.28Z" fill="#1A130D"/>
<path d="M12.9541 32.1163C12.9541 29.2023 12.9541 26.2883 12.9541 23.395C12.9541 21.9276 13.45 21.4316 14.8755 21.4316C20.8258 21.4316 26.7761 21.4316 32.7263 21.4316C33.718 21.4316 34.3378 22.0516 34.3792 23.147C34.4205 24.635 34.3998 26.123 34.3998 27.6316C34.3998 31.951 34.3998 36.2703 34.4205 40.6103C34.4205 42.2016 33.842 42.801 32.2511 42.801C26.4868 42.801 20.7225 42.801 14.9582 42.7803C13.4706 42.7803 13.0161 42.367 13.0161 40.879C12.9541 37.9443 12.9748 35.0303 12.9541 32.1163ZM23.677 22.4443C20.9084 22.465 18.1193 22.465 15.3507 22.465C14.0491 22.465 14.0698 22.465 14.0698 23.767C14.0698 29.3883 14.0698 34.989 14.0491 40.6103C14.0491 41.623 14.1318 41.6643 15.3714 41.685C16.2391 41.7056 16.0945 41.127 16.0945 40.6103C16.0945 36.8903 16.0739 33.1703 16.0945 29.4296C16.0945 28.293 16.6317 27.7556 17.768 27.6936C18.0573 27.673 18.3465 27.6523 18.6358 27.6523C19.111 27.6523 19.2969 27.4043 19.2762 26.9496C19.2762 26.743 19.2762 26.5363 19.2762 26.3296C19.2556 25.1516 19.8341 24.5523 21.0324 24.4903C21.5283 24.4696 22.0241 24.449 22.52 24.449C25.8463 24.449 29.1727 24.4696 32.499 24.449C32.747 24.449 33.1189 24.325 33.2428 24.139C33.7387 23.3123 33.2222 22.4236 32.2718 22.4236C29.3793 22.4443 26.5281 22.4443 23.677 22.4443ZM33.2222 32.0956C33.2222 30.5663 33.2222 29.0576 33.2222 27.5283C33.2222 25.5856 33.2222 25.5856 31.2801 25.5856C27.8711 25.5856 24.4621 25.6063 21.0531 25.6063C20.268 25.6063 20.144 26.061 20.1647 26.681C20.1853 27.2803 20.3093 27.673 21.0531 27.6523C23.7803 27.6316 26.5075 27.6523 29.2347 27.6523C30.5776 27.6523 31.0528 28.0656 31.0528 29.409C31.0735 32.1783 31.0941 34.9683 31.0735 37.7376C31.0735 38.5023 31.404 38.6883 32.0652 38.6676C33.0982 38.647 33.2222 38.5643 33.2222 37.7376C33.2222 35.8776 33.2222 33.997 33.2222 32.0956ZM23.615 41.6643C25.4538 41.6436 27.2719 41.6436 29.1107 41.6643C29.7099 41.6643 30.2057 41.6643 30.1851 40.8376C30.1644 39.7216 30.1231 39.639 29.1727 39.639C26.5488 39.639 23.9249 39.639 21.3216 39.639C19.7721 39.639 19.2556 39.1223 19.2349 37.5723C19.1936 34.927 19.1523 32.2816 19.1316 29.6363C19.1316 29.099 19.111 28.6443 18.3465 28.665C17.2928 28.7063 17.1275 28.8303 17.1275 29.719C17.1275 33.3356 17.1275 36.9523 17.1069 40.569C17.1069 41.5403 17.2308 41.6643 18.1812 41.6643C19.9994 41.6643 21.7968 41.6643 23.615 41.6643ZM25.2058 38.5643C26.5901 38.585 27.9744 38.5643 29.3793 38.585C29.8958 38.585 30.1851 38.4196 30.1851 37.8823C30.1851 35.1336 30.1851 32.385 30.1851 29.6363C30.1851 28.975 29.8545 28.6856 29.214 28.7063C28.9867 28.727 28.7388 28.727 28.5115 28.727C27.9537 28.6856 27.7678 28.975 27.7678 29.4916C27.7884 31.0003 27.7884 32.5296 27.7884 34.0383C27.7884 35.795 27.2926 36.2496 25.5158 36.2083C24.0489 36.1876 22.5819 36.2083 21.115 36.1876C20.5572 36.1876 20.268 36.3943 20.3093 36.973C20.3093 37.1796 20.3299 37.3863 20.3093 37.593C20.2266 38.3163 20.5365 38.6056 21.239 38.585C22.5406 38.5436 23.8629 38.5643 25.2058 38.5643ZM20.1647 31.8063C20.1853 31.8063 20.1853 31.8063 20.1647 31.8063C20.1853 32.633 20.1853 33.4803 20.1647 34.307C20.1647 34.8236 20.3713 35.0923 20.9084 35.0716C22.5613 35.051 24.1935 35.0716 25.8463 35.0716C26.3835 35.0716 26.6728 34.865 26.6728 34.2656C26.6521 32.757 26.6727 31.2276 26.6521 29.719C26.6314 28.6236 26.5488 28.5616 25.4744 28.5616C23.9869 28.5616 22.4993 28.5823 21.0117 28.541C20.3919 28.5203 20.1647 28.7683 20.1647 29.3676C20.1853 30.1943 20.1647 31.0003 20.1647 31.8063ZM31.2181 40.5896C31.1974 41.5816 31.2801 41.6643 32.1685 41.685C33.1189 41.7056 33.3874 41.4576 33.4081 40.6103C33.4288 39.9696 33.2841 39.5563 32.499 39.577C31.2801 39.5976 31.2181 39.5976 31.2181 40.5896Z" fill="#FFF3E0"/>
<path d="M96.3607 38.2953C95.2037 38.2953 94.0467 38.2746 92.9104 38.2953C92.3319 38.2953 92.1253 38.0679 92.1459 37.4893C92.1666 34.0793 92.1666 30.6693 92.1459 27.2593C92.1459 26.6599 92.3939 26.4326 92.993 26.4326C95.245 26.4533 97.497 26.4326 99.749 26.4326C100.286 26.4326 100.555 26.6393 100.534 27.2386C100.513 27.8173 100.39 28.1273 99.749 28.1273C98.1995 28.1066 96.6499 28.148 95.1004 28.1066C94.4186 28.086 94.1087 28.3133 94.1707 28.9953C94.1913 29.1813 94.1707 29.3673 94.1707 29.5533C94.1707 31.3513 93.8401 31.31 95.9681 31.31C97.0425 31.31 98.1168 31.3306 99.1912 31.31C99.8317 31.2893 100.245 31.3926 100.245 32.1779C100.245 32.9426 99.9143 33.0873 99.2325 33.0666C97.8483 33.0046 96.464 33.046 95.0591 33.0253C94.3979 33.0046 94.088 33.2526 94.15 33.9553C94.212 34.534 94.212 35.1126 94.1707 35.6913C94.1293 36.3939 94.4393 36.6006 95.1211 36.58C96.6706 36.5386 98.2201 36.58 99.7697 36.58C100.348 36.58 100.555 36.8073 100.555 37.3859C100.534 37.9646 100.451 38.3573 99.749 38.3366C98.6127 38.2746 97.497 38.2953 96.3607 38.2953Z" fill="#FFF3E0"/>
<path d="M38.2012 31.8064C38.2218 30.8144 38.4904 29.4504 39.3582 28.2517C41.1556 25.7511 46.5894 25.0071 48.3662 29.1404C48.5315 29.5124 48.9034 29.9671 48.3662 30.3184C47.9117 30.6284 46.8166 30.3184 46.5894 29.8431C45.7836 28.1691 44.2341 27.5077 42.4986 28.0864C41.3209 28.4997 40.8251 29.5124 40.5152 30.5664C40.0193 32.1784 40.1846 33.8111 41.0317 35.2784C41.6308 36.2911 42.5606 36.9317 43.8415 36.7871C45.0398 36.6631 46.0729 36.2497 46.5687 35.0097C46.8166 34.4104 47.7257 34.0177 48.3042 34.3484C48.4695 34.4517 48.5935 34.9064 48.5108 35.1131C47.6224 37.7171 44.6473 39.1224 41.9821 38.2337C39.3995 37.3864 38.2012 35.4851 38.2012 31.8064Z" fill="#FFF3E0"/>
<path d="M107.476 37.4476C105.534 38.8323 103.964 38.8323 102.476 37.3649C101.133 36.0423 100.885 34.3269 101.237 32.5703C101.546 30.9996 102.476 29.8629 104.067 29.4083C105.183 29.0983 106.236 29.2429 107.104 30.1109C107.166 30.1729 107.269 30.2349 107.373 30.2763C107.414 30.2969 107.476 30.2763 107.703 30.2556C107.703 29.9043 107.703 29.5323 107.703 29.1603C107.703 28.4783 107.683 27.7963 107.683 27.1143C107.683 26.3496 108.24 26.4529 108.757 26.4529C109.274 26.4529 109.583 26.5769 109.583 27.2176C109.563 30.6276 109.563 34.0169 109.563 37.4269C109.563 37.8403 109.542 38.2536 109.005 38.2743C108.53 38.2949 107.91 38.6256 107.745 37.7989C107.683 37.6749 107.579 37.5923 107.476 37.4476ZM107.662 33.7896C107.641 33.5623 107.641 33.2729 107.6 32.9836C107.435 31.8883 106.65 30.9789 105.782 30.8549C104.625 30.6896 103.902 31.1443 103.365 32.3843C102.848 33.5623 103.013 34.7609 103.53 35.8769C104.088 37.0549 105.782 37.2616 106.753 36.3523C107.497 35.6703 107.641 34.7816 107.662 33.7896Z" fill="#FFF3E0"/>
<path d="M66.0111 37.4481C66.0111 38.4815 65.9698 39.3701 66.0111 40.2381C66.0525 40.9408 65.8252 41.2095 65.0814 41.2095C64.3376 41.2095 64.1104 40.9615 64.1104 40.2588C64.131 36.8902 64.131 33.5008 64.1517 30.1322C64.1517 29.9048 64.4616 29.4915 64.6062 29.4915C65.0401 29.4915 65.4946 29.6568 65.9285 29.8222C66.0318 29.8635 66.0525 30.1322 66.0938 30.2355C66.7549 29.9462 67.3334 29.5741 67.9532 29.4295C69.6887 29.0161 71.4242 30.0081 71.982 31.7028C72.4366 33.1288 72.5399 34.5961 72.0027 36.0222C71.1143 38.4815 68.1805 39.2875 66.5483 37.7168C66.4657 37.6341 66.321 37.6135 66.0111 37.4481ZM70.5358 33.9968C70.3085 33.2321 70.2052 32.5915 69.9573 32.0335C69.6474 31.3515 69.1102 30.8555 68.2631 30.8348C67.4574 30.8141 66.7962 31.1035 66.4243 31.8061C65.7012 33.1701 65.6806 34.5755 66.4243 35.9395C67.1061 37.2001 68.9036 37.3242 69.6887 36.1255C70.1433 35.4848 70.2879 34.6581 70.5358 33.9968Z" fill="#FFF3E0"/>
<path d="M77.5596 38.5017C75.6588 38.6464 73.3861 37.1997 73.0349 35.0297C72.6217 32.4051 73.2622 30.7104 75.4728 29.5944C77.2497 28.6851 79.8116 29.4497 80.7206 31.2477C81.0719 31.9297 81.2578 32.7151 81.4438 33.4797C81.5884 34.0584 81.2991 34.3684 80.6793 34.3684C79.0265 34.3477 77.3943 34.3477 75.7414 34.3477C74.9357 34.3477 74.7084 34.6991 75.1009 35.4224C75.948 37.0344 77.7662 37.3857 79.0884 36.1457C79.6256 35.6291 80.2661 35.6704 80.8446 35.7531C81.3611 35.8151 81.1752 36.2491 80.9892 36.5591C80.1835 37.7991 79.0471 38.5017 77.5596 38.5017ZM77.105 33.0871C77.105 33.0664 77.105 33.0664 77.105 33.0871C77.6629 33.0664 78.2 33.0664 78.7579 33.0664C79.2537 33.0664 79.419 32.8391 79.2951 32.3637C79.0265 31.4544 78.1174 30.7517 77.2083 30.7311C76.2786 30.7104 75.2869 31.4544 74.9976 32.3224C74.8324 32.8391 75.0183 33.0664 75.5555 33.0664C76.072 33.0871 76.5885 33.0871 77.105 33.0871Z" fill="#FFF3E0"/>
<path d="M55.4943 37.3032C54.172 38.8326 52.6638 38.7086 51.0936 38.1712C50.0192 37.7992 49.5234 36.9312 49.4407 35.8979C49.3581 35.0092 49.9159 34.2859 50.701 33.9759C51.7134 33.5832 52.7877 33.3559 53.8414 33.0872C53.9654 33.0459 54.1307 33.1079 54.234 33.0666C54.6265 32.8806 55.3497 32.5706 55.329 32.4672C55.1844 31.9299 54.9778 31.2479 54.5439 30.9586C53.6348 30.3179 52.4365 30.7519 51.92 31.7646C51.6721 32.2606 50.5357 32.5499 50.1845 32.1572C50.0399 31.9919 50.0605 31.5992 50.1432 31.3926C50.825 29.8012 52.8291 28.8919 54.5439 29.3259C56.424 29.8012 57.1885 30.6899 57.2711 32.6326C57.3537 34.2859 57.3951 35.9392 57.4157 37.5719C57.4157 37.8199 57.1678 38.2746 57.0438 38.2746C56.6513 38.2746 56.2381 38.1299 55.8662 37.9439C55.7009 37.8612 55.6596 37.5926 55.4943 37.3032ZM55.391 35.0506C55.4116 34.2446 55.2257 34.0792 54.5646 34.1619C54.2753 34.2032 53.9654 34.2032 53.7175 34.3066C53.0563 34.5752 52.3332 34.7819 51.7754 35.2159C51.2175 35.6499 51.3828 36.3319 52.0026 36.7039C52.7671 37.1586 53.5935 37.1172 54.3373 36.7452C55.0398 36.3939 55.3497 35.7119 55.391 35.0506Z" fill="#FFF3E0"/>
<path d="M131.34 33.9351C131.319 37.3451 128.386 39.3704 125.245 38.0684C123.737 37.4484 123.034 36.1671 122.807 34.5757C122.456 32.0544 123.613 30.0704 125.844 29.4091C128.53 28.6237 131.092 30.4011 131.34 33.2117C131.361 33.4804 131.34 33.7077 131.34 33.9351ZM129.584 34.1624C129.315 33.3151 129.212 32.5504 128.861 31.9097C128.076 30.5044 126.195 30.4631 125.266 31.7857C124.419 32.9844 124.501 35.0097 125.41 36.1257C126.237 37.1384 127.745 37.2831 128.571 36.3117C129.067 35.7124 129.253 34.8857 129.584 34.1624Z" fill="#FFF3E0"/>
<path d="M134.5 30.4209C135.327 29.6356 136.132 29.2016 137.165 29.2429C138.694 29.3256 139.872 30.3383 139.934 31.8883C140.017 33.7483 139.975 35.6083 139.975 37.4683C139.975 38.0469 139.686 38.2949 139.149 38.2329C138.632 38.1916 138.054 38.2743 138.054 37.4683C138.074 36.1249 138.054 34.8023 138.054 33.4589C138.054 33.0663 138.033 32.6736 137.971 32.2809C137.827 31.3509 137.393 30.9376 136.566 30.8343C135.595 30.7309 134.913 31.0616 134.603 31.8883C134.438 32.3223 134.335 32.7976 134.314 33.2523C134.273 34.5956 134.294 35.9183 134.314 37.2616C134.314 37.8403 134.19 38.2329 133.488 38.2123C132.558 38.1916 132.351 38.0676 132.351 37.2409C132.331 34.8643 132.331 32.4876 132.372 30.0903C132.372 29.8629 132.682 29.4496 132.827 29.4496C133.302 29.4496 133.901 29.0776 134.232 29.7389C134.335 29.9456 134.376 30.1109 134.5 30.4209Z" fill="#FFF3E0"/>
<path d="M82.973 33.9551C82.973 33.1904 82.9523 32.4464 82.973 31.6817C82.9936 31.2271 82.8697 30.8964 82.3325 30.9171C81.754 30.9377 81.63 30.6071 81.6094 30.1111C81.5887 29.5531 81.8986 29.4497 82.3532 29.4704C82.7664 29.4911 83.0143 29.3257 82.9317 28.8711C82.8903 28.6437 82.9523 28.3957 82.9523 28.1684C82.9523 27.1351 83.0143 27.1144 84.068 27.1557C84.7291 27.1764 84.9564 27.4657 84.8737 28.0857C84.8324 28.3131 84.8531 28.5611 84.8531 28.7884C84.8738 29.3051 85.101 29.5737 85.6382 29.5117C86.134 29.4497 86.6092 29.4084 86.6299 30.1317C86.6506 30.8137 86.2373 30.9377 85.7208 30.8964C84.9977 30.8344 84.8324 31.2064 84.8324 31.8471C84.8531 33.1904 84.8324 34.5131 84.8118 35.8564C84.8118 36.5177 85.101 36.9104 85.8035 36.8897C86.4233 36.8691 86.6299 37.1791 86.6299 37.7577C86.6299 38.3777 86.258 38.4811 85.7415 38.4604C83.3035 38.4397 82.8903 38.0057 82.911 35.5464C82.9936 35.0091 82.9936 34.4924 82.973 33.9551Z" fill="#FFF3E0"/>
<path d="M114.852 33.9971C114.852 33.2325 114.852 32.4885 114.852 31.7238C114.852 31.2278 114.749 30.8765 114.109 30.8765C113.902 30.8765 113.551 30.4838 113.551 30.2565C113.53 30.0085 113.84 29.5538 114.005 29.5331C114.935 29.4918 114.873 28.9131 114.832 28.2725C114.77 27.2805 114.894 27.1771 115.844 27.1358C116.567 27.1151 116.815 27.4045 116.795 28.1278C116.753 29.3265 116.795 29.3058 117.972 29.5125C118.199 29.5538 118.551 29.9465 118.53 30.1531C118.509 30.4218 118.199 30.8351 117.952 30.8765C116.774 31.1038 116.774 31.0625 116.753 32.2198C116.753 33.3978 116.753 34.5758 116.753 35.7538C116.753 36.4358 117.022 36.8698 117.766 36.8698C118.447 36.8698 118.613 37.2625 118.592 37.8411C118.571 38.4405 118.179 38.4818 117.724 38.4611C115.266 38.4611 114.811 37.9858 114.832 35.5058C114.832 35.0098 114.832 34.5138 114.832 34.0178C114.832 33.9971 114.852 33.9971 114.852 33.9971Z" fill="#FFF3E0"/>
<path d="M60.6185 30.6694C61.1557 30.318 61.6516 29.946 62.1887 29.6774C62.478 29.5327 63.1391 29.5534 63.1598 29.636C63.3044 30.0907 63.3664 30.6074 63.2837 31.062C63.2631 31.2067 62.7466 31.372 62.4573 31.372C61.383 31.4134 60.6598 31.9507 60.5979 33.0874C60.4946 34.472 60.5359 35.8567 60.5152 37.2414C60.4946 38.1714 60.3706 38.2954 59.5235 38.3367C58.6764 38.378 58.6351 37.8614 58.6351 37.2207C58.6558 34.9887 58.6351 32.7774 58.6351 30.5454C58.6351 30.008 58.5525 29.4707 59.3789 29.4707C60.3706 29.4707 60.4532 29.512 60.5152 30.442C60.5152 30.4834 60.5565 30.5247 60.6185 30.6694Z" fill="#FFF3E0"/>
<path d="M110.762 33.8315C110.762 32.6328 110.762 31.4342 110.762 30.2148C110.762 29.6362 111.01 29.4088 111.588 29.4708C112.105 29.5328 112.725 29.3468 112.704 30.2562C112.663 32.6328 112.642 35.0095 112.683 37.3862C112.704 38.3162 112.167 38.2748 111.526 38.2955C110.783 38.3162 110.741 37.9028 110.741 37.3448C110.762 36.1875 110.762 35.0095 110.762 33.8315Z" fill="#FFF3E0"/>
<path d="M121.732 33.8523C121.732 35.0096 121.711 36.1463 121.732 37.3036C121.753 37.965 121.546 38.337 120.802 38.3163C120.12 38.3163 119.811 38.089 119.811 37.3656C119.831 34.989 119.831 32.6123 119.811 30.2356C119.811 29.471 120.306 29.5123 120.802 29.4916C121.339 29.471 121.732 29.5743 121.711 30.2356C121.711 31.4343 121.732 32.6536 121.732 33.8523Z" fill="#FFF3E0"/>
<path d="M111.63 28.3754C110.762 28.5201 110.762 27.9414 110.741 27.3628C110.721 26.7841 110.845 26.4121 111.547 26.4121C112.539 26.4121 112.642 26.5568 112.704 27.5074C112.745 28.3754 112.229 28.4168 111.63 28.3754Z" fill="#FFF3E0"/>
<path d="M119.831 27.2795C119.707 26.6389 120.059 26.4322 120.678 26.4115C121.505 26.3909 121.711 26.5975 121.732 27.3829C121.753 27.9822 121.629 28.3955 120.906 28.3955C119.955 28.3749 119.852 28.3129 119.831 27.2795Z" fill="#FFF3E0"/>
<path d="M23.6768 22.4443C26.528 22.4443 29.3998 22.4443 32.251 22.4443C33.1807 22.4443 33.7179 23.333 33.222 24.1597C33.1187 24.3457 32.7468 24.449 32.4782 24.4697C29.1519 24.4903 25.8255 24.4697 22.4992 24.4697C22.0033 24.4697 21.5075 24.4697 21.0116 24.511C19.8133 24.573 19.2555 25.1723 19.2555 26.3503C19.2555 26.557 19.2555 26.7637 19.2555 26.9703C19.2555 27.4043 19.0695 27.6523 18.615 27.673C18.3257 27.673 18.0365 27.6937 17.7472 27.7143C16.6316 27.7763 16.0944 28.3137 16.0737 29.4503C16.0737 33.1703 16.0737 36.8903 16.0737 40.631C16.0737 41.1477 16.2183 41.7263 15.3506 41.7057C14.111 41.6643 14.0283 41.623 14.0283 40.631C14.0283 35.0097 14.0283 29.409 14.049 23.7877C14.049 22.4857 14.049 22.4857 15.3299 22.4857C18.1191 22.465 20.8876 22.465 23.6768 22.4443Z" fill="#1A130D"/>
<path d="M33.2226 32.0958C33.2226 33.9764 33.2226 35.8778 33.2226 37.7584C33.2226 38.5851 33.0987 38.6471 32.0657 38.6884C31.3839 38.7091 31.0533 38.5024 31.0739 37.7584C31.0946 34.9891 31.0739 32.1991 31.0533 29.4298C31.0326 28.0864 30.5781 27.6731 29.2351 27.6731C26.5079 27.6731 23.7807 27.6524 21.0535 27.6731C20.3098 27.6731 20.1858 27.2804 20.1651 26.7018C20.1445 26.0818 20.2684 25.6271 21.0535 25.6271C24.4625 25.6271 27.8715 25.6064 31.2805 25.6064C33.2226 25.6064 33.2226 25.6064 33.2226 27.5491C33.2226 29.0578 33.2226 30.5871 33.2226 32.0958Z" fill="#1A130D"/>
<path d="M23.6154 41.6641C21.8179 41.6641 19.9998 41.6641 18.2023 41.6641C17.2519 41.6641 17.1279 41.5401 17.1279 40.5687C17.1279 36.9521 17.1279 33.3354 17.1486 29.7187C17.1486 28.8094 17.3139 28.7061 18.3676 28.6647C19.1113 28.6441 19.132 29.0987 19.1527 29.6361C19.1733 32.2814 19.2147 34.9267 19.256 37.5721C19.2766 39.1014 19.7931 39.6181 21.3427 39.6387C23.9666 39.6387 26.5905 39.6387 29.1937 39.6387C30.1648 39.6387 30.1854 39.7214 30.2061 40.8374C30.2268 41.6641 29.7309 41.6641 29.1317 41.6641C27.2723 41.6434 25.4542 41.6641 23.6154 41.6641Z" fill="#1A130D"/>
<path d="M25.2055 38.564C23.8625 38.564 22.5402 38.5433 21.1973 38.564C20.4948 38.5846 20.1643 38.2953 20.2676 37.572C20.2882 37.3653 20.2882 37.1586 20.2676 36.952C20.2469 36.3733 20.5155 36.1666 21.0733 36.1666C22.5402 36.1873 24.0071 36.1666 25.4741 36.1873C27.2509 36.208 27.7467 35.774 27.7467 34.0173C27.7467 32.5086 27.7261 30.9793 27.7261 29.4706C27.7261 28.954 27.912 28.6646 28.4698 28.706C28.6971 28.7266 28.945 28.706 29.1723 28.6853C29.8334 28.644 30.1433 28.954 30.1433 29.6153C30.1433 32.364 30.1433 35.1126 30.1433 37.8613C30.1433 38.4193 29.8541 38.5846 29.3376 38.564C27.974 38.564 26.5897 38.564 25.2055 38.564Z" fill="#1A130D"/>
<path d="M20.165 31.8065C20.165 31.0005 20.165 30.1945 20.165 29.3678C20.165 28.7891 20.3716 28.5205 21.0121 28.5411C22.4997 28.5825 23.9873 28.5411 25.4748 28.5618C26.5492 28.5618 26.6318 28.6238 26.6525 29.7191C26.6938 31.2278 26.6525 32.7571 26.6731 34.2658C26.6731 34.8445 26.3839 35.0718 25.8467 35.0718C24.1939 35.0718 22.5617 35.0718 20.9088 35.0718C20.3716 35.0718 20.165 34.8238 20.165 34.3071C20.1857 33.4805 20.1857 32.6538 20.165 31.8065C20.1857 31.8065 20.1857 31.8065 20.165 31.8065Z" fill="#1A130D"/>
<path d="M31.2179 40.5896C31.2385 39.6182 31.2798 39.5976 32.4988 39.5769C33.2839 39.5562 33.4285 39.9696 33.4079 40.6102C33.3872 41.4576 33.098 41.7262 32.1682 41.6849C31.2592 41.6642 31.1972 41.5816 31.2179 40.5896Z" fill="#1A130D"/>
<path d="M107.663 33.7905C107.642 34.7825 107.497 35.6711 106.774 36.3531C105.803 37.2625 104.109 37.0558 103.551 35.8778C103.035 34.7825 102.869 33.5838 103.386 32.3851C103.923 31.1451 104.646 30.7111 105.803 30.8558C106.671 30.9798 107.456 31.8891 107.621 32.9845C107.642 33.2738 107.642 33.5631 107.663 33.7905Z" fill="#1A130D"/>
<path d="M70.5354 33.997C70.2875 34.6583 70.1222 35.485 69.709 36.1257C68.9033 37.3243 67.1264 37.2003 66.4446 35.9397C65.7009 34.5963 65.7215 33.1703 66.4446 31.8063C66.8165 31.1037 67.4777 30.8143 68.2834 30.835C69.1305 30.8557 69.647 31.3517 69.9776 32.0337C70.2255 32.6123 70.3288 33.2323 70.5354 33.997Z" fill="#1A130D"/>
<path d="M77.1053 33.0877C76.5888 33.0877 76.0516 33.0877 75.5351 33.0877C74.9979 33.0877 74.812 32.8604 74.9773 32.3437C75.2459 31.4757 76.2582 30.7317 77.188 30.7524C78.1177 30.773 79.0061 31.4757 79.2747 32.385C79.4193 32.8604 79.2334 33.0877 78.7375 33.0877C78.2003 33.067 77.6632 33.067 77.1053 33.0877C77.1053 33.067 77.1053 33.067 77.1053 33.0877Z" fill="#1A130D"/>
<path d="M55.3913 35.0504C55.3499 35.7117 55.04 36.3937 54.3376 36.745C53.5938 37.117 52.7674 37.1584 52.0029 36.7037C51.3831 36.311 51.2178 35.6497 51.7757 35.2157C52.3128 34.7817 53.0359 34.575 53.7177 34.3064C53.9863 34.203 54.2756 34.203 54.5648 34.1617C55.226 34.079 55.4119 34.2444 55.3913 35.0504Z" fill="#1A130D"/>
<path d="M129.583 34.1618C129.253 34.8852 129.067 35.7325 128.591 36.3112C127.765 37.3032 126.257 37.1378 125.43 36.1252C124.501 35.0092 124.439 32.9838 125.286 31.7852C126.215 30.4625 128.096 30.5038 128.881 31.9092C129.211 32.5498 129.315 33.3145 129.583 34.1618Z" fill="#1A130D"/>
</g>
<defs>
<clipPath id="clip0_608_4453">
<rect width="157" height="62" fill="white"/>
</clipPath>
</defs>
</svg>
