<svg width="198" height="62" viewBox="0 0 198 62" fill="none" xmlns="http://www.w3.org/2000/svg">
<path d="M199.74 63.9996C132.816 63.9996 65.8918 63.9996 -1 63.9996C-1 42.0864 -1 20.1733 -1 -1.77246C65.8918 -1.77246 132.784 -1.77246 199.74 -1.77246C199.74 20.271 199.74 42.1516 199.74 63.9996ZM105.735 25.3829C105.637 24.6666 105.572 24.2759 105.572 23.8852C105.572 21.5083 105.54 19.1313 105.572 16.7544C105.572 15.7776 105.28 15.2566 104.208 15.3543C103.267 15.452 102.293 15.4194 101.351 15.3543C100.312 15.2892 99.9546 15.7125 99.9546 16.7544C99.9871 24.6341 99.9871 32.5137 99.9546 40.3607C99.9546 43.4865 99.9546 43.4865 103.039 43.6168C105.053 43.6819 105.053 43.6819 105.312 41.826C105.312 41.7608 105.442 41.7283 105.605 41.5655C106.157 42.0539 106.676 42.7051 107.326 43.0307C111.742 45.2448 117.23 44.3006 119.438 39.156C120.964 35.6395 121.061 32.0253 119.795 28.4436C117.717 22.6153 112.099 21.378 107.65 23.82C107.066 24.2108 106.546 24.6992 105.735 25.3829ZM164.216 25.5783C164.151 24.9597 164.054 24.6015 164.054 24.2433C164.054 21.7362 164.054 19.2616 164.119 16.7544C164.151 15.7125 163.729 15.2892 162.722 15.3543C161.943 15.3869 161.131 15.3869 160.352 15.3543C158.599 15.3218 158.469 15.452 158.469 17.2428C158.469 25.5783 158.436 33.8812 158.404 42.2167C158.404 43.0958 158.728 43.5842 159.605 43.5842C160.612 43.5842 161.618 43.5191 162.593 43.5842C163.762 43.6819 164.119 43.1609 164.086 42.0539C164.054 39.0909 164.021 36.1279 164.119 33.1974C164.151 31.895 164.379 30.5601 164.736 29.2902C165.19 27.7599 166.944 26.9133 168.795 27.0435C170.386 27.1738 171.522 28.1831 171.847 29.8437C171.944 30.3647 172.009 30.9182 172.009 31.4392C172.042 34.9883 172.042 38.5048 172.009 42.0539C172.009 42.8353 172.107 43.5191 173.081 43.5517C174.282 43.5842 175.516 43.6168 176.685 43.4865C177.042 43.454 177.627 42.8679 177.595 42.5097C177.595 37.7233 177.627 32.937 177.335 28.1506C177.237 26.783 176.328 25.2201 175.321 24.1782C173.341 22.1269 167.756 21.8664 165.385 24.6666C165.158 25.0248 164.768 25.1876 164.216 25.5783ZM53.7798 34.7278C53.8447 34.7278 53.8772 34.7278 53.9422 34.7278C53.9422 32.6114 53.9746 30.4949 53.9422 28.3459C53.9097 26.1318 52.8381 24.4387 50.7924 23.6898C46.701 22.192 42.5771 22.1269 38.583 24.1131C36.862 24.9597 35.9528 26.49 35.4982 28.2808C35.2709 29.1274 35.6281 29.5507 36.5048 29.5181C37.5764 29.4856 38.6805 29.6158 39.752 29.453C40.2391 29.3879 40.9535 28.932 41.0834 28.5087C41.7977 26.1318 45.8242 25.7411 47.6427 27.2063C47.8375 27.3691 47.9674 27.5971 48.0323 27.825C48.7142 29.453 48.0323 30.7554 46.1489 31.1461C43.5837 31.6671 40.9859 31.9602 38.4532 32.6439C36.0827 33.2626 34.7514 35.2488 34.7189 37.6582C34.6864 40.7515 35.8229 42.7377 38.3233 43.5842C41.4081 44.6262 44.3955 44.268 47.2205 42.6725C47.7725 42.3795 48.2921 41.9888 48.6493 42.7702C49.0065 43.5842 49.6559 43.6493 50.4027 43.6168C51.3444 43.5842 52.3186 43.5842 53.2603 43.5842C54.0071 43.5842 54.2994 43.2586 54.2669 42.5097C54.1045 39.9375 53.9422 37.3326 53.7798 34.7278ZM141.616 34.7929C141.681 34.7929 141.746 34.7929 141.811 34.7929C141.811 32.8393 141.778 30.8857 141.811 28.932C141.843 26.2621 140.642 24.2759 138.109 23.4944C134.277 22.3223 130.381 22.2571 126.646 23.9828C124.795 24.862 123.724 26.3923 123.302 28.3785C123.139 29.1274 123.367 29.5181 124.146 29.5181C125.218 29.5181 126.322 29.5181 127.393 29.5181C128.237 29.5181 128.757 29.2251 129.082 28.3459C129.277 27.825 129.764 27.304 130.283 27.011C131.55 26.2295 132.946 26.197 134.375 26.7179C135.446 27.1086 136.323 28.1506 136.193 29.1925C136.063 30.3321 135.316 30.9508 134.245 31.1787C133.108 31.4066 131.939 31.4717 130.803 31.7322C128.919 32.1555 126.939 32.4486 125.185 33.23C122.977 34.2068 122.393 36.3558 122.555 38.6025C122.685 40.784 123.691 42.5097 125.802 43.3889C129.147 44.7564 132.394 44.4634 135.446 42.5097C136.128 42.0864 136.453 42.1841 136.745 42.933C136.875 43.2586 137.362 43.6168 137.719 43.6493C138.921 43.747 140.122 43.747 141.324 43.6493C141.616 43.6168 142.135 43.0633 142.135 42.7702C141.973 40.1003 141.778 37.4629 141.616 34.7929ZM96.2204 34.7278C96.2528 34.7278 96.3178 34.7278 96.3502 34.7278C96.3502 33.7835 96.3502 32.8067 96.3502 31.8625C96.3502 30.8531 96.2528 29.8437 96.3502 28.8669C96.61 25.9039 94.7591 24.1131 92.3237 23.3642C89.2714 22.4199 86.2191 22.5176 83.1992 23.234C80.6989 23.82 78.8155 25.3504 77.9712 27.9552C77.5816 29.16 77.8738 29.5832 79.1402 29.5832C80.1793 29.5832 81.2184 29.6158 82.2575 29.5181C82.6796 29.4856 83.2317 29.1925 83.459 28.8669C84.7903 26.6854 86.6087 25.9365 88.9792 26.7179C90.1806 27.1086 90.7326 27.9227 90.7326 29.1274C90.7651 30.3321 89.8884 30.8205 88.9792 31.1136C88.0375 31.4066 87.0309 31.4392 86.0567 31.6671C84.1084 32.0904 82.0952 32.3509 80.2443 33.0021C78.0037 33.8161 77.062 35.7372 77.127 38.049C77.1919 40.2631 77.8089 42.2492 80.0494 43.2912C83.394 44.789 86.6087 44.4634 89.726 42.6725C90.5378 42.2167 90.9599 42.0864 91.2847 43.0958C91.3496 43.3237 91.7068 43.5842 91.9341 43.5842C93.2654 43.6493 94.5968 43.6819 95.9281 43.5842C96.2204 43.5517 96.675 42.933 96.675 42.6074C96.5775 39.97 96.3827 37.3326 96.2204 34.7278ZM65.5995 22.713C64.8202 22.7455 64.0084 22.713 63.2291 22.8432C61.2808 23.2014 59.3974 23.7549 58.1635 25.4806C56.0528 28.4436 56.5399 32.5137 60.7612 33.9138C62.0601 34.3371 63.4239 34.565 64.7228 34.9557C66.184 35.4116 67.6777 35.8348 69.009 36.5186C70.0806 37.0721 70.1131 38.4071 69.3013 39.2863C67.6452 41.0771 63.359 40.8166 62.3848 38.6025C61.638 36.9093 60.5664 36.8442 59.1376 36.9419C58.6506 36.9745 58.131 36.9745 57.6439 36.9419C56.7347 36.9093 56.4425 37.3326 56.6373 38.1792C56.9296 39.6444 57.6439 40.8492 58.748 41.8911C61.7029 44.6913 69.3338 44.6587 72.8082 42.4446C75.6657 40.6212 76.9646 34.565 72.8082 32.6765C71.1522 31.9276 69.3338 31.5694 67.6128 31.0159C66.184 30.5601 64.7228 30.2344 63.4239 29.5507C62.3199 28.9972 62.5147 27.3691 63.5863 26.783C65.5021 25.7411 68.3271 26.5226 69.4637 28.3459C69.691 28.7041 70.178 29.0623 70.6002 29.0948C71.6717 29.1925 72.7758 29.1274 73.8473 29.0948C74.5617 29.0623 74.9838 28.7367 74.7565 27.9878C74.3669 26.5226 73.685 25.1876 72.3861 24.2759C70.3404 22.9083 68.0024 22.6804 65.5995 22.713ZM30.0105 30.3647C30.0105 30.3973 30.0105 30.4298 30.0105 30.4624C30.7574 30.4298 31.5367 30.4624 32.251 30.2996C32.5433 30.2344 32.933 29.6484 32.868 29.3879C32.4784 27.4668 31.6666 25.7411 29.9456 24.6015C26.8607 22.5176 23.4837 22.1595 20.0092 23.1688C15.4956 24.5038 13.4499 27.8901 13.0278 32.3834C12.4433 38.7327 16.0152 43.9098 22.7693 44.1378C27.6725 44.3006 31.4717 42.2818 32.8031 37.3652C33.0953 36.2581 32.7381 35.8674 31.7315 35.8348C30.8548 35.8023 29.978 35.9325 29.1013 35.8348C28.1271 35.7372 27.705 36.0953 27.3803 37.007C26.7309 38.7978 25.432 39.8723 23.4512 39.97C21.6653 40.0677 20.0417 39.0909 19.3598 37.4629C18.3531 35.1185 18.2233 32.709 19.0351 30.267C19.6845 28.2483 21.0158 26.9784 23.1914 26.8807C25.1722 26.783 26.601 27.6947 27.3478 29.6158C27.5102 29.974 28.1271 30.267 28.5817 30.3973C29.0363 30.5275 29.5559 30.3973 30.0105 30.3647ZM146.844 33.9138C146.844 35.8023 146.811 37.6582 146.876 39.5467C146.974 41.6632 148.143 43.0633 150.188 43.4865C151.455 43.747 152.754 43.8773 154.02 43.8447C157.04 43.8447 156.553 43.7145 156.65 41.2073C156.715 39.4491 156.683 39.4165 154.994 39.4816C153.046 39.5142 152.461 38.9606 152.461 36.9745C152.461 34.6952 152.461 32.3834 152.461 30.1042C152.461 27.0761 152.461 27.0761 155.514 27.0435C156.358 27.0435 156.715 26.6528 156.683 25.8062C156.65 23.2991 156.683 23.2991 154.215 23.2665C154.117 23.2665 154.053 23.2665 153.955 23.2665C152.786 23.3968 152.396 22.7781 152.461 21.7036C152.494 20.6291 152.429 19.5221 152.461 18.4476C152.494 17.5033 152.137 17.0475 151.13 17.1126C150.123 17.1777 149.117 17.1777 148.143 17.1452C147.136 17.1126 146.811 17.5359 146.844 18.4801C146.909 19.5546 146.876 20.6617 146.876 21.7362C146.876 23.1363 146.649 23.2991 145.253 23.2665C144.733 23.2665 143.856 23.3642 143.791 23.5596C143.597 24.5038 143.532 25.5132 143.694 26.4574C143.727 26.6854 144.733 26.8807 145.318 26.9133C146.649 26.9784 146.909 27.1738 146.909 28.5413C146.844 30.3321 146.844 32.123 146.844 33.9138Z" fill="#1A130D"/>
<path d="M199.74 64C199.74 42.1194 199.74 20.2713 199.74 -1.77208C132.784 -1.73952 65.8918 -1.73952 -1 -1.73952C-0.967528 -1.8372 -0.935057 -1.96744 -0.870113 -2C-0.642811 -2 -0.383037 -2 -0.123263 -2C66.4438 -2 132.978 -2 199.545 -2C199.708 -2 199.87 -2 200 -2C200 19.6527 200 41.2728 200 62.8929C200 63.2511 199.838 63.6418 199.74 64Z" fill="#FFF3E0"/>
<path d="M105.735 25.383C106.579 24.7318 107.066 24.2108 107.651 23.8852C112.1 21.4106 117.717 22.6805 119.795 28.5088C121.062 32.0904 120.964 35.7046 119.438 39.2212C117.23 44.3657 111.742 45.31 107.326 43.0958C106.677 42.7702 106.157 42.119 105.605 41.6306C105.41 41.7934 105.313 41.826 105.313 41.8911C105.053 43.7796 105.053 43.7796 103.04 43.6819C99.9551 43.5517 99.9551 43.5517 99.9551 40.4259C99.9551 32.5463 99.9551 24.6666 99.9551 16.8196C99.9551 15.7776 100.312 15.3869 101.351 15.4195C102.293 15.4846 103.267 15.4846 104.209 15.4195C105.313 15.3218 105.605 15.8102 105.573 16.8196C105.54 19.1965 105.54 21.5734 105.573 23.9503C105.573 24.2434 105.638 24.6341 105.735 25.383ZM115.314 33.4254C115.217 33.3928 115.152 33.3603 115.054 33.3277C114.925 32.416 114.827 31.5043 114.6 30.6252C114.048 28.4762 112.359 27.011 110.443 26.8807C108.56 26.7505 106.937 27.7924 106.027 29.9089C104.923 32.5137 105.053 35.1185 106.32 37.6257C107.846 40.6212 111.872 40.9143 113.626 38.049C114.502 36.6814 114.795 34.9557 115.314 33.4254Z" fill="#FFF3E0"/>
<path d="M164.216 25.5792C164.768 25.1884 165.19 24.9931 165.45 24.7C167.821 21.8998 173.406 22.1929 175.387 24.2116C176.393 25.2535 177.302 26.8164 177.4 28.184C177.724 32.9378 177.66 37.7568 177.66 42.5431C177.66 42.8687 177.075 43.4874 176.75 43.52C175.549 43.6502 174.347 43.6176 173.146 43.5851C172.172 43.5525 172.074 42.8687 172.074 42.0873C172.074 38.5382 172.074 35.0217 172.074 31.4726C172.074 30.9191 172.009 30.3981 171.912 29.8771C171.555 28.2165 170.451 27.2072 168.86 27.0769C167.009 26.9141 165.255 27.7933 164.801 29.3236C164.444 30.5609 164.216 31.8959 164.184 33.2309C164.086 36.1939 164.086 39.1568 164.151 42.0873C164.184 43.1943 163.827 43.7153 162.658 43.6176C161.651 43.5525 160.644 43.6176 159.67 43.6176C158.793 43.6176 158.469 43.1292 158.469 42.2501C158.501 33.9146 158.534 25.6117 158.534 17.2762C158.534 15.4854 158.664 15.3552 160.417 15.3877C161.196 15.4203 162.008 15.4203 162.787 15.3877C163.794 15.3552 164.216 15.7785 164.184 16.7878C164.119 19.295 164.119 21.7696 164.119 24.2767C164.054 24.6023 164.119 24.9605 164.216 25.5792Z" fill="#FFF3E0"/>
<path d="M53.7801 34.7278C53.9424 37.3326 54.1048 39.9374 54.2996 42.5423C54.3646 43.2912 54.0399 43.6168 53.293 43.6168C52.3513 43.6168 51.3772 43.6168 50.4355 43.6493C49.6886 43.6819 49.0717 43.6168 48.682 42.8027C48.3248 42.0213 47.7728 42.3795 47.2533 42.7051C44.4282 44.3005 41.4408 44.6587 38.356 43.6168C35.8232 42.7702 34.6867 40.8166 34.7517 37.6908C34.7841 35.2813 36.083 33.2951 38.4859 32.6764C41.0187 32.0252 43.6164 31.7322 46.1817 31.1787C48.0651 30.7879 48.747 29.4855 48.0651 27.8575C47.9676 27.6296 47.8378 27.4017 47.6754 27.2389C45.857 25.7736 41.8305 26.1318 41.1161 28.5413C40.9862 28.9646 40.2718 29.4204 39.7848 29.4855C38.7132 29.6158 37.6092 29.5181 36.5376 29.5506C35.6284 29.5832 35.3037 29.1925 35.531 28.3134C36.0181 26.5225 36.9273 24.9922 38.6158 24.1456C42.6098 22.1594 46.7337 22.2246 50.8252 23.7223C52.8709 24.4712 53.9424 26.1644 53.9749 28.3785C54.0074 30.4949 53.9749 32.6113 53.9749 34.7603C53.8775 34.7278 53.8126 34.7278 53.7801 34.7278ZM43.6814 40.3933C46.961 40.3933 48.8444 38.1792 48.2599 34.9231C48.1949 34.5975 47.6105 34.1091 47.3182 34.1417C45.7271 34.3696 44.136 34.6952 42.5773 35.0859C41.5707 35.3464 40.6615 35.8348 40.4017 37.0395C39.9471 39.1885 41.1161 40.3933 43.6814 40.3933Z" fill="#FFF3E0"/>
<path d="M141.615 34.7935C141.778 37.4309 141.973 40.1008 142.102 42.7382C142.102 43.0313 141.583 43.5848 141.291 43.6174C140.089 43.7151 138.888 43.6825 137.686 43.6174C137.329 43.5848 136.842 43.2266 136.712 42.901C136.42 42.1522 136.095 42.0545 135.413 42.4778C132.361 44.4314 129.114 44.7244 125.769 43.3569C123.658 42.5103 122.684 40.7521 122.522 38.5705C122.392 36.3238 122.977 34.1748 125.152 33.198C126.906 32.4166 128.886 32.1235 130.77 31.7003C131.906 31.4398 133.075 31.3747 134.212 31.1467C135.283 30.9188 136.03 30.3002 136.16 29.1605C136.29 28.1186 135.413 27.0767 134.342 26.6859C132.913 26.1975 131.549 26.1975 130.25 26.979C129.763 27.272 129.244 27.793 129.049 28.314C128.724 29.1931 128.205 29.4861 127.36 29.4861C126.289 29.4861 125.185 29.4861 124.113 29.4861C123.334 29.4861 123.106 29.0954 123.269 28.3465C123.691 26.3603 124.763 24.7974 126.613 23.9509C130.348 22.1926 134.212 22.2577 138.076 23.4625C140.609 24.2439 141.81 26.2301 141.778 28.9001C141.745 30.8537 141.778 32.8073 141.778 34.7609C141.745 34.7935 141.68 34.7935 141.615 34.7935ZM136.128 36.1285C136.16 33.9144 136.16 33.9469 134.504 34.3377C133.432 34.5981 132.296 34.6307 131.192 34.9237C130.413 35.1191 129.601 35.4447 128.951 35.9006C127.685 36.8448 127.847 38.9938 129.211 39.8078C130.932 40.8497 132.621 40.5893 134.277 39.6776C135.9 38.7984 136.063 37.203 136.128 36.1285Z" fill="#FFF3E0"/>
<path d="M96.2206 34.7283C96.383 37.3331 96.5778 39.9379 96.6752 42.5753C96.6752 42.9009 96.2206 43.5196 95.9284 43.5522C94.597 43.6498 93.2657 43.5847 91.9344 43.5522C91.7071 43.5522 91.3499 43.2917 91.2849 43.0637C90.9602 42.0544 90.5381 42.1846 89.7263 42.6405C86.6415 44.4313 83.3943 44.7569 80.0497 43.2591C77.7767 42.2497 77.1597 40.2635 77.1273 38.0169C77.0623 35.7051 77.9715 33.7515 80.2445 32.97C82.0954 32.2862 84.1087 32.0258 86.057 31.635C87.0311 31.4397 88.0702 31.4071 88.9794 31.0815C89.8886 30.7885 90.7654 30.2675 90.7329 29.0953C90.7004 27.8906 90.1809 27.0766 88.9794 26.6858C86.609 25.937 84.7581 26.6533 83.4592 28.8348C83.2644 29.193 82.6799 29.4535 82.2578 29.486C81.2187 29.5837 80.1796 29.5512 79.1405 29.5512C77.8416 29.5512 77.5819 29.1604 77.9715 27.9231C78.7833 25.3183 80.6667 23.788 83.1995 23.2019C86.2193 22.4856 89.3042 22.4204 92.324 23.3321C94.7919 24.081 96.6103 25.8718 96.3505 28.8348C96.2531 29.8116 96.3505 30.821 96.3505 31.8304C96.3505 32.7746 96.3505 33.7515 96.3505 34.6957C96.318 34.7283 96.2531 34.7283 96.2206 34.7283ZM90.7329 35.6074C90.4731 35.2167 91.3174 33.9794 89.9536 34.1422C88.2001 34.3376 86.4466 34.7608 84.6932 35.2167C83.4268 35.5423 82.7124 36.6493 82.7449 37.9192C82.7773 39.2216 83.5242 40.1007 84.9529 40.3612C88.2326 40.8822 90.7979 39.3519 90.7329 35.6074Z" fill="#FFF3E0"/>
<path d="M65.5993 22.7138C68.0022 22.6812 70.3402 22.9092 72.3859 24.3418C73.6848 25.2535 74.3342 26.5885 74.7564 28.0537C74.9512 28.8352 74.5615 29.1608 73.8471 29.1608C72.7756 29.1933 71.6715 29.2584 70.6 29.1608C70.2103 29.1282 69.6908 28.77 69.4635 28.4119C68.327 26.5885 65.4694 25.7745 63.5861 26.849C62.5145 27.4351 62.3522 29.0305 63.4237 29.6166C64.7226 30.3004 66.2163 30.626 67.6126 31.0818C69.3336 31.6354 71.152 31.9935 72.8081 32.7424C76.9644 34.6309 75.6331 40.7197 72.8081 42.5105C69.3336 44.7246 61.7027 44.7572 58.7478 41.957C57.6438 40.9151 56.9294 39.7103 56.6371 38.2451C56.4748 37.3985 56.7345 36.9427 57.6438 37.0078C58.1308 37.0404 58.6504 37.0404 59.1375 37.0078C60.5662 36.9101 61.6378 36.9753 62.3846 38.6684C63.3588 40.8825 67.645 41.143 69.3011 39.3522C70.1129 38.473 70.1129 37.1381 69.0089 36.5845C67.6775 35.9008 66.1838 35.4775 64.7226 35.0216C63.4237 34.5983 62.0599 34.403 60.761 33.9797C56.5072 32.5796 56.0202 28.5095 58.1633 25.5465C59.3972 23.8208 61.2806 23.2673 63.2289 22.9092C64.0082 22.7138 64.7875 22.7464 65.5993 22.7138Z" fill="#FFF3E0"/>
<path d="M30.01 30.3648C29.5554 30.3973 29.0684 30.5276 28.6462 30.3973C28.1916 30.2671 27.5422 30.0066 27.4123 29.6159C26.633 27.6948 25.2367 26.7831 23.2559 26.8808C21.0803 26.9785 19.749 28.2483 19.0995 30.2671C18.3202 32.7091 18.4501 35.1186 19.4242 37.4629C20.1062 39.091 21.7297 40.0678 23.5157 39.9701C25.464 39.8724 26.7953 38.7979 27.4448 37.0071C27.7695 36.0954 28.1916 35.7372 29.1658 35.8349C30.0425 35.9326 30.9192 35.8024 31.796 35.8349C32.8026 35.8675 33.1598 36.2908 32.8675 37.3653C31.5362 42.2819 27.737 44.3006 22.8338 44.1378C16.0797 43.9099 12.5078 38.7002 13.0923 32.3835C13.5144 27.9227 15.5601 24.5039 20.0737 23.1689C23.5157 22.1595 26.9252 22.5177 30.01 24.6016C31.6986 25.7412 32.5104 27.4669 32.9325 29.3879C32.9974 29.6484 32.5753 30.2345 32.3155 30.2996C31.6011 30.4624 30.8218 30.4299 30.075 30.4624C30.01 30.4299 30.01 30.3973 30.01 30.3648Z" fill="#FFF3E0"/>
<path d="M146.844 33.9137C146.844 32.1229 146.844 30.3321 146.844 28.5413C146.844 27.1737 146.617 26.9784 145.253 26.9132C144.701 26.8807 143.694 26.6853 143.629 26.4574C143.467 25.5132 143.564 24.5038 143.727 23.5595C143.759 23.3642 144.668 23.2665 145.188 23.2665C146.584 23.2665 146.779 23.1362 146.812 21.7361C146.812 20.6616 146.844 19.5546 146.779 18.4801C146.747 17.5358 147.104 17.08 148.078 17.1451C149.085 17.1777 150.091 17.1777 151.065 17.1126C152.072 17.0474 152.397 17.5033 152.397 18.4475C152.364 19.522 152.429 20.6291 152.397 21.7036C152.364 22.7781 152.721 23.3967 153.89 23.2665C153.988 23.2665 154.053 23.2665 154.15 23.2665C156.618 23.299 156.618 23.299 156.618 25.8062C156.618 26.6528 156.293 27.0109 155.449 27.0435C152.397 27.1086 152.397 27.1086 152.397 30.1042C152.397 32.3834 152.397 34.6952 152.397 36.9744C152.397 38.9606 153.014 39.5141 154.93 39.4816C156.618 39.449 156.683 39.4816 156.586 41.2073C156.488 43.7144 156.975 43.8121 153.955 43.8447C152.689 43.8447 151.39 43.7144 150.124 43.4865C148.045 43.0958 146.877 41.6957 146.812 39.5467C146.779 37.6582 146.844 35.7697 146.844 33.9137Z" fill="#FFF3E0"/>
<path d="M115.313 33.4257C114.794 34.956 114.502 36.6817 113.657 38.0167C111.904 40.8495 107.877 40.589 106.351 37.5934C105.085 35.1188 104.922 32.4814 106.059 29.8766C106.968 27.7927 108.592 26.7182 110.475 26.8485C112.423 26.9787 114.079 28.4439 114.631 30.5929C114.859 31.4721 114.924 32.3838 115.086 33.2954C115.151 33.3606 115.216 33.3931 115.313 33.4257Z" fill="#1A130D"/>
<path d="M43.6814 40.3934C41.1161 40.3934 39.9472 39.1887 40.4018 37.0723C40.6615 35.8675 41.5707 35.3791 42.5774 35.1187C44.136 34.6954 45.7271 34.4023 47.3182 34.1744C47.6105 34.1418 48.195 34.6302 48.2599 34.9559C48.8444 38.1793 46.9611 40.3934 43.6814 40.3934Z" fill="#1A130D"/>
<path d="M136.128 36.1286C136.063 37.2031 135.9 38.7986 134.309 39.6777C132.653 40.5894 130.965 40.8824 129.244 39.8079C127.88 38.9939 127.717 36.8124 128.984 35.9007C129.633 35.4448 130.445 35.1192 131.224 34.9239C132.296 34.6308 133.432 34.5983 134.537 34.3378C136.16 33.9471 136.16 33.9145 136.128 36.1286Z" fill="#1A130D"/>
<path d="M90.733 35.6069C90.7979 39.3188 88.2002 40.8817 84.9855 40.3282C83.5567 40.1003 82.8099 39.1886 82.7774 37.8862C82.745 36.6163 83.4593 35.5093 84.7257 35.1837C86.4467 34.7604 88.2002 34.3371 89.9862 34.1092C91.3175 33.9789 90.4732 35.2162 90.733 35.6069Z" fill="#1A130D"/>
</svg>
