<svg width="192" height="62" viewBox="0 0 192 62" fill="none" xmlns="http://www.w3.org/2000/svg">
<path d="M0 62C0 41.1918 0 20.6667 0 0C64.0472 0 127.953 0 192 0C192 20.6667 192 41.3333 192 62C127.953 62 64.0472 62 0 62ZM17.9956 30.1507C17.8539 33.9726 18.8458 37.5114 20.9712 40.6256C23.3801 44.1644 26.9225 45.7215 31.1734 46.1461C37.4081 46.7123 44.0679 44.8721 46.7601 38.7854C48.0354 35.8128 47.8937 35.2466 44.493 35.3881C44.2096 35.3881 43.7845 35.3881 43.5011 35.3881C42.3675 35.3881 41.8007 35.8128 41.3756 36.8037C40.6672 37.9361 39.817 39.21 38.6834 39.9178C33.8657 42.8904 26.9225 41.4749 25.2221 35.105C23.9469 30.5753 23.9469 26.1872 26.3557 22.0822C28.0561 19.2511 30.7483 17.9772 34.1491 18.1187C37.5498 18.2603 40.1004 19.6758 41.2339 22.9315C41.659 24.0639 42.5092 24.6301 43.6428 24.4886C44.3513 24.4886 45.0598 24.4886 45.7683 24.4886C47.4686 24.4886 47.8937 23.7808 47.3269 22.2237C46.9018 21.0913 46.3351 19.8174 45.6266 18.8265C41.234 13.1644 34.0074 12.3151 28.3395 14.1553C21.3963 16.5616 18.1373 22.3653 17.9956 30.1507ZM168.478 36.8037C168.478 34.1142 168.762 31.4247 168.337 28.8767C168.053 27.1781 167.203 25.1963 165.928 24.0639C162.81 21.3744 158.984 21.6575 155.159 22.6484C153.033 23.2146 151.191 24.347 150.058 26.4703C149.632 27.3196 149.066 28.4521 150.341 28.7352C152.041 29.1598 153.883 29.4429 155.3 27.7443C156.717 25.9041 158.701 25.7626 160.685 26.4703C162.102 27.0365 163.235 28.8767 162.952 30.4338C162.669 32.274 161.252 31.8493 160.118 31.9909C157.001 32.274 154.025 32.274 151.049 33.9726C147.224 36.2374 147.365 42.6073 150.624 44.8722C153.317 46.8539 158.134 46.8539 161.11 44.8722C161.535 44.589 162.81 44.4475 162.81 44.589C163.661 46.2877 165.219 45.863 166.636 45.863C167.77 45.863 168.337 45.2968 168.337 44.1644C168.337 41.758 168.478 39.21 168.478 36.8037ZM60.3631 32.1324C60.3631 31.9909 60.3631 31.8493 60.2214 31.8493C58.0959 32.274 56.1122 32.5571 54.1284 33.1233C50.0192 34.3973 48.8856 37.9361 49.5941 40.9087C50.7277 46.0046 58.3793 48.2694 62.3469 45.0137C63.3387 44.1644 64.0472 44.0228 64.8974 45.1553C66.031 46.7123 67.7314 45.7215 69.1483 45.5799C69.4317 45.5799 69.8568 44.0228 69.8568 43.1735C69.9985 39.0685 69.8568 35.105 69.8568 31C69.8568 27.7443 69.29 24.6301 66.1727 23.2146C62.2052 21.2329 57.9542 21.2329 54.1284 23.4977C52.8531 24.2055 52.003 25.621 51.0111 26.895C50.4443 27.7443 50.586 28.5936 52.003 28.7352C53.845 28.8767 55.4037 29.1598 56.8207 27.4612C58.0959 25.9041 60.7882 25.7626 62.4886 26.7534C63.7638 27.4612 64.614 29.3014 64.3306 30.7169C64.0472 32.274 62.772 31.9909 61.6384 32.1324C61.2133 32.1324 60.7882 32.1324 60.3631 32.1324ZM140.139 37.7945C140.139 39.6347 140.139 41.6164 140.139 43.4566C140.139 45.4384 140.564 45.863 142.264 46.0046C145.382 46.0046 145.665 45.863 145.665 43.5982C145.665 39.3516 145.948 35.105 145.665 30.8584C145.523 28.5936 144.956 26.1872 143.681 24.4886C141.272 21.2329 135.321 21.2329 132.204 23.9224C131.354 24.6301 130.645 24.9132 129.937 23.7808C129.228 22.6484 127.244 22.0822 125.686 22.5068C124.269 22.9315 124.41 24.0639 124.41 25.1963C124.41 31.2831 124.41 37.3699 124.41 43.5982C124.41 45.863 124.694 46.1461 127.386 46.1461C129.511 46.1461 130.078 45.7215 130.078 43.5982C130.078 40.0594 129.937 36.6621 130.078 33.1233C130.078 31.9909 130.22 30.8584 130.645 29.8676C131.495 27.7443 134.046 26.1872 136.171 26.7534C138.438 27.3196 140.139 27.8858 140.139 31.2831C140.139 33.2648 140.139 35.5297 140.139 37.7945ZM81.3343 46.7123C81.3343 46.5708 81.476 46.4292 81.476 46.2877C85.0184 46.4292 86.5771 46.1461 88.5609 44.7306C92.6701 41.758 92.5284 35.2466 88.2775 33.2648C86.5771 32.5571 84.7351 32.274 83.0347 31.7078C81.7594 31.2831 80.3424 31.1416 79.2089 30.5753C77.5085 29.8676 77.3668 28.3105 78.6421 27.0365C80.2007 25.4795 83.4598 25.621 85.0184 27.4612C86.0103 28.7352 89.4111 29.3014 90.2613 28.3105C90.9697 27.6027 90.1196 25.3379 88.7026 24.2055C88.5609 24.0639 88.5609 24.0639 88.4192 24.0639C85.3018 21.6575 81.7594 21.516 78.0753 22.3653C72.8325 23.6393 70.8487 29.726 74.3911 33.5479C75.5247 34.6804 77.3668 35.105 78.9255 35.6712C80.9092 36.379 83.0347 36.5205 84.8768 37.3699C86.7188 38.2192 86.5771 40.3425 85.0184 41.6164C83.1764 43.032 79.6339 42.7489 78.3587 40.7671C77.3668 39.21 76.3749 38.3607 74.3911 38.6438C72.8325 38.9269 71.9823 39.3516 72.6908 40.7671C73.3993 42.1827 74.3911 43.8813 75.6664 44.7306C77.3668 45.7215 79.4923 46.1461 81.3343 46.7123ZM103.156 46.2877C103.581 46.2877 104.006 46.2877 104.431 46.2877C109.815 46.0046 113.358 42.3242 112.083 36.6621C111.658 34.9635 110.666 33.6895 108.965 33.1233C106.698 32.4155 104.431 31.8493 102.164 31.2831C101.314 31 100.605 30.8584 99.8967 30.4338C98.4797 29.5845 98.338 28.5936 99.3299 27.4612C100.889 25.3379 104.148 25.4795 106.131 27.7443C106.982 28.7352 110.382 29.3014 111.232 28.5936C111.799 28.0274 111.232 25.9041 109.957 24.6301L109.815 24.4886C106.556 20.9498 99.4716 21.2329 95.9291 24.2055C93.8037 25.9041 92.9535 29.0183 93.9454 31.5662C94.7956 33.8311 96.6376 34.8219 98.6214 35.3881C100.747 36.0959 103.014 36.379 105.139 37.0868C105.99 37.3699 106.84 38.5023 106.982 39.3516C106.982 40.2009 106.273 41.3333 105.423 41.758C103.014 43.1735 100.322 42.3242 98.6214 39.9178C97.6295 38.6438 95.5041 38.0776 94.0871 38.9269C92.9535 39.6347 93.0952 40.9087 94.2288 42.6073C94.3705 42.7489 94.5122 42.8904 94.5122 43.032C96.7793 46.0046 99.8967 46.2877 103.156 46.2877ZM120.585 34.1142C120.585 31 120.585 27.7443 120.585 24.6301C120.585 24.0639 120.301 23.0731 120.018 22.9315C118.742 22.6484 117.325 22.5069 116.05 22.9315C115.483 23.0731 115.2 24.6301 115.2 25.4795C115.058 31.5662 115.2 37.653 115.2 43.5982C115.2 45.5799 115.625 46.0046 117.751 46.0046C120.301 46.0046 120.726 45.7215 120.726 43.5982C120.584 40.3425 120.585 37.2283 120.585 34.1142ZM120.585 16.4201C120.443 13.7306 120.301 13.589 117.325 13.7306C115.342 13.7306 114.917 14.2968 115.058 16.9863C115.2 18.968 115.625 19.2511 118.317 19.1096C120.443 18.968 120.726 18.6849 120.585 16.4201Z" fill="#1A130D"/>
<path d="M17.9956 30.1503C17.9956 22.3649 21.3963 16.5613 28.1978 14.2965C33.8657 12.4563 41.0923 13.164 45.4849 18.9677C46.1934 19.9586 46.7602 21.2325 47.1853 22.3649C47.7521 23.922 47.1853 24.6298 45.6266 24.6298C44.9181 24.6298 44.2096 24.6298 43.5011 24.6298C42.2259 24.7713 41.5174 24.2051 41.0923 23.0727C39.817 19.817 37.4082 18.4015 34.0074 18.2599C30.6067 18.1184 27.9144 19.3923 26.2141 22.2234C23.8052 26.3284 23.8052 30.7165 25.0805 35.2462C26.7808 41.6161 33.8657 43.0316 38.5417 40.059C39.6753 39.3512 40.5255 38.0773 41.234 36.9449C41.8008 35.954 42.3676 35.5293 43.3594 35.5293C43.6428 35.5293 44.0679 35.5293 44.3513 35.5293C47.7521 35.3878 47.8938 35.954 46.6185 38.9266C43.9262 45.1549 37.2665 46.9951 31.0318 46.2873C26.9225 45.8627 23.2384 44.3056 20.8296 40.7668C18.8458 37.5111 17.9956 33.9723 17.9956 30.1503Z" fill="#FFF3E0"/>
<path d="M168.478 36.8038C168.478 39.2102 168.478 41.7581 168.478 44.1645C168.478 45.4385 168.053 46.0047 166.778 45.8631C165.361 45.8631 163.802 46.2878 162.952 44.5892C162.81 44.4476 161.677 44.5892 161.252 44.8723C158.276 46.854 153.458 46.7125 150.766 44.8723C147.507 42.6074 147.365 36.2376 151.191 33.9727C154.025 32.2741 157.143 32.2741 160.26 31.991C161.393 31.8494 162.952 32.2741 163.094 30.4339C163.377 28.8768 162.244 27.0367 160.827 26.4705C158.701 25.7627 156.859 25.9042 155.442 27.7444C154.025 29.4431 152.183 29.0184 150.483 28.7353C149.207 28.4522 149.774 27.3198 150.199 26.4705C151.333 24.3472 153.033 23.2147 155.3 22.6485C158.985 21.6577 162.952 21.3746 166.069 24.0641C167.345 25.1965 168.337 27.1782 168.478 28.8768C168.62 31.4248 168.337 34.1143 168.478 36.8038ZM160.402 35.2467C158.701 35.5298 157.426 35.6714 156.292 35.9545C154.875 36.3791 153.458 38.3609 153.6 39.6348C153.883 41.1919 155.3 42.6074 157.001 42.3243C158.56 42.1828 159.976 41.6166 161.393 40.9088C162.527 40.3426 163.661 37.37 162.952 36.5207C162.244 35.8129 160.968 35.5298 160.402 35.2467Z" fill="#FFF3E0"/>
<path d="M60.3633 32.1326C60.7884 32.1326 61.3552 31.991 61.7802 31.991C62.9138 31.991 64.0474 32.1326 64.4725 30.5755C64.7559 29.16 63.9057 27.3198 62.6304 26.612C60.9301 25.6212 58.2378 25.7627 56.9625 27.3198C55.5456 29.0184 53.9869 28.7353 52.1448 28.5938C50.8695 28.4522 50.5861 27.6029 51.1529 26.7536C52.0031 25.4796 52.995 24.0641 54.2703 23.3563C58.2378 21.233 62.347 21.233 66.3146 23.0732C69.4319 24.6303 70.1404 27.6029 69.9987 30.8586C69.9987 34.9636 69.9987 38.9271 69.9987 43.0321C69.9987 43.8814 69.5736 45.4385 69.2902 45.4385C67.8732 45.4385 66.1729 46.5709 65.0393 45.0138C64.1891 43.7399 63.4806 44.023 62.4887 44.8723C58.5212 48.2696 50.7278 45.8632 49.736 40.7673C49.1692 37.9362 50.3028 34.2559 54.2703 32.9819C56.254 32.2741 58.3795 32.1326 60.3633 31.7079C60.2216 31.991 60.2216 32.1326 60.3633 32.1326ZM61.4969 35.1052C59.7965 35.5298 58.0961 35.6714 56.9625 36.3791C55.9707 36.9454 55.1205 38.3609 54.9788 39.3517C54.9788 40.2011 55.9707 41.475 56.8208 42.0412C59.088 43.3152 62.6304 42.1828 63.764 39.918C64.3308 38.9271 64.4725 37.37 64.0474 36.2376C63.9057 35.6714 62.347 35.3883 61.4969 35.1052Z" fill="#FFF3E0"/>
<path d="M140.139 37.7949C140.139 35.5301 140.139 33.2653 140.139 31.142C140.139 27.7447 138.438 27.1785 136.171 26.6123C134.046 26.1876 131.495 27.6032 130.645 29.7264C130.22 30.7173 130.078 31.8497 130.078 32.9822C130.078 36.521 130.078 39.9182 130.078 43.457C130.078 45.5803 129.653 46.005 127.386 46.005C124.694 46.005 124.41 45.7219 124.41 43.457C124.41 37.3703 124.41 31.2835 124.41 25.0552C124.41 24.0643 124.268 22.7904 125.685 22.3657C127.102 21.9411 129.228 22.5073 129.936 23.6397C130.645 24.9137 131.495 24.489 132.204 23.7812C135.463 21.0917 141.272 21.2333 143.681 24.3475C144.956 26.0461 145.523 28.594 145.665 30.7173C145.948 34.9639 145.665 39.2105 145.665 43.457C145.665 45.7219 145.381 45.8634 142.264 45.8634C140.564 45.8634 140.139 45.2972 140.139 43.3155C140.139 41.6169 140.139 39.6351 140.139 37.7949Z" fill="#FFF3E0"/>
<path d="M81.3341 46.7126C79.3503 46.0049 77.3666 45.7218 75.6662 44.7309C74.3909 43.8816 73.399 42.3245 72.6906 40.7674C71.9821 39.3519 72.8323 38.7857 74.3909 38.6441C76.3747 38.361 77.3666 39.0688 78.3585 40.7674C79.6337 42.7492 83.1762 43.1738 85.0182 41.6167C86.7186 40.3428 86.7186 38.361 84.8765 37.3702C83.0345 36.5208 80.909 36.3793 78.9252 35.6715C77.3666 35.1053 75.5245 34.6807 74.3909 33.5482C70.7068 29.7263 72.6906 23.7811 78.0751 22.3656C81.6175 21.5163 85.1599 21.6578 88.419 24.0642C88.5607 24.0642 88.5607 24.2058 88.7024 24.2058C90.1193 25.3382 90.9695 27.603 90.261 28.3108C89.4109 29.1601 86.0101 28.5939 85.0182 27.4615C83.4596 25.6213 80.3422 25.3382 78.6419 27.0368C77.3666 28.3108 77.5083 29.8679 79.2086 30.5756C80.4839 31.1418 81.7592 31.2834 83.0345 31.7081C84.7348 32.1327 86.5769 32.5574 88.2773 33.2651C92.5282 35.1053 92.5282 41.7583 88.5607 44.7309C86.5769 46.1464 85.0182 46.4295 81.4758 46.288C81.4758 46.4295 81.4758 46.5711 81.3341 46.7126Z" fill="#FFF3E0"/>
<path d="M103.156 46.2876C99.8968 46.2876 96.7795 45.863 94.654 43.0319C94.5123 42.8904 94.3706 42.7488 94.3706 42.6073C93.2371 40.9086 93.0954 39.4931 94.2289 38.9269C95.5042 38.0776 97.7714 38.6438 98.7633 39.9178C100.464 42.3242 103.156 43.1735 105.565 41.758C106.273 41.3333 107.123 40.0593 107.123 39.3516C107.123 38.5023 106.132 37.3698 105.281 37.0867C103.156 36.379 100.889 36.0959 98.7633 35.3881C96.6378 34.8219 94.9374 33.6895 94.0872 31.5662C93.0954 29.0182 93.9455 25.9041 96.071 24.2054C99.6134 21.2328 106.698 21.0913 109.957 24.4886L110.099 24.6301C111.233 25.7625 111.941 27.8858 111.374 28.5936C110.666 29.3013 107.123 28.7351 106.273 27.7443C104.431 25.4794 101.172 25.3379 99.4717 27.4612C98.4799 28.7351 98.6216 29.726 100.039 30.4338C100.747 30.8584 101.597 31.1415 102.306 31.2831C104.573 31.9908 106.84 32.4155 109.107 33.1233C110.808 33.6895 111.799 34.8219 112.225 36.6621C113.641 42.3242 109.957 46.0045 104.573 46.2876C104.006 46.2876 103.581 46.2876 103.156 46.2876Z" fill="#FFF3E0"/>
<path d="M120.584 34.1137C120.584 37.2278 120.584 40.4835 120.584 43.5977C120.584 45.5794 120.159 46.0041 117.609 46.0041C115.483 46.0041 115.058 45.5794 115.058 43.5977C115.058 37.5109 115.058 31.4242 115.058 25.479C115.058 24.6297 115.483 23.0726 115.908 22.931C117.184 22.6479 118.601 22.7895 119.876 22.931C120.159 22.931 120.443 24.0634 120.443 24.6297C120.726 27.7438 120.726 30.858 120.584 34.1137Z" fill="#FFF3E0"/>
<path d="M120.584 16.4198C120.726 18.6847 120.443 18.9678 118.317 19.1093C115.483 19.2509 115.058 18.9678 115.058 16.9861C114.916 14.4381 115.341 13.8719 117.325 13.7303C120.443 13.5888 120.584 13.7303 120.584 16.4198Z" fill="#FFF3E0"/>
<path d="M160.402 35.2461C161.11 35.5292 162.244 35.8123 162.952 36.6616C163.661 37.5109 162.527 40.6251 161.394 41.0497C159.977 41.7575 158.418 42.1822 157.001 42.4653C155.301 42.6068 153.884 41.1913 153.6 39.7758C153.458 38.5018 154.875 36.3785 156.292 36.0954C157.426 35.6708 158.56 35.5292 160.402 35.2461Z" fill="#1A130D"/>
<path d="M61.4966 35.1055C62.3468 35.3886 63.9055 35.6717 64.0472 36.2379C64.3305 37.3703 64.1888 38.7858 63.7638 39.9183C62.6302 42.1831 59.0877 43.3155 56.8206 42.0415C55.9704 41.6169 54.9785 40.2014 54.9785 39.352C55.1202 38.2196 55.9704 36.9457 56.9623 36.3794C58.0959 35.5301 59.7962 35.5301 61.4966 35.1055Z" fill="#1A130D"/>
</svg>
