<svg width="106" height="60" viewBox="0 0 106 60" fill="none" xmlns="http://www.w3.org/2000/svg">
<path d="M109.856 62.5585C71.9038 62.5585 33.9519 62.5585 -4 62.5585C-4 41.0805 -4 19.6205 -4 -1.85742C33.9338 -1.85742 71.8677 -1.85742 109.856 -1.85742C109.856 19.6742 109.856 41.1163 109.856 62.5585ZM54.6693 28.9377C54.6693 28.9556 54.6693 28.9556 54.6693 28.9377C56.9071 28.9377 59.1629 28.9556 61.4007 28.9377C62.8805 28.9377 62.8805 28.9198 62.8624 27.4892C62.8624 27.2746 62.8624 27.0421 62.8624 26.8275C62.8263 26.1658 63.2053 25.9154 63.8189 25.9154C64.2881 25.9154 64.7573 25.9333 65.2265 25.9333C66.1289 25.9154 66.2732 25.7366 65.9845 24.8603C64.4866 20.5147 61.545 17.4387 57.1778 15.9544C52.215 14.2555 47.5229 14.9529 43.3541 18.315C39.7268 21.2479 37.9402 25.0213 37.9763 29.6531C37.9763 30.9764 37.9943 32.2819 37.9943 33.6053C37.9763 35.7513 38.3372 37.8079 39.2395 39.7751C40.6111 42.8331 42.8127 45.1043 45.8806 46.3919C51.4029 48.7167 56.7266 48.2697 61.5811 44.693C63.7828 43.0656 65.2265 40.8302 66.0386 38.2192C66.2191 37.6291 66.0206 37.325 65.389 37.3072C64.7573 37.3072 64.1076 37.3072 63.458 37.3072C62.9166 37.3072 62.6459 37.5933 62.4113 38.0583C61.9601 38.9167 61.5089 39.7929 60.8954 40.544C59.1809 42.7079 56.9973 44.1922 54.2181 44.6215C51.457 45.0328 48.8222 44.6036 46.4401 43.0477C43.4083 41.0627 41.6577 38.3086 41.4412 34.7141C41.3149 32.6932 41.4051 30.6724 41.4412 28.6337C41.4592 28.0257 41.5134 27.3998 41.6758 26.8275C42.8127 22.7501 45.4656 20.0497 49.5621 18.8873C52.0706 18.1719 54.5971 18.4044 56.9793 19.5669C59.1809 20.6399 60.8412 22.2851 62.0142 24.4311C62.5917 25.4862 62.5015 25.6651 61.2743 25.6651C57.0875 25.6651 52.9007 25.6651 48.7139 25.6651C46.3859 25.6651 46.4401 25.4326 46.4581 27.8826C46.4581 28.7231 46.6386 28.9198 47.5048 28.9198C49.887 28.9556 52.2691 28.9377 54.6693 28.9377ZM95.1838 34.6425C95.1838 33.0509 95.1657 31.4772 95.2018 29.8856C95.256 26.1479 94.2093 22.8216 91.6467 20.0139C89.9683 18.1541 88.0013 16.6697 85.583 15.8829C79.0321 13.7726 72.4452 16.0438 68.6734 21.7665C68.0057 22.768 67.5906 23.9483 67.1395 25.0749C66.9229 25.6114 67.1575 25.9691 67.8252 25.9333C68.4208 25.9154 69.0343 26.0227 69.5938 25.8976C69.9908 25.8081 70.3878 25.5041 70.6766 25.2001C70.9473 24.914 71.0556 24.4669 71.2721 24.1092C73.0948 21.1585 75.6394 19.2449 79.1585 18.6727C85.962 17.5818 91.8813 23.2687 91.7008 29.3848C91.6647 30.8155 91.7549 32.264 91.6647 33.6947C91.5745 34.9465 91.5203 36.252 91.0872 37.4144C89.6435 41.3667 86.8102 43.9598 82.5693 44.6215C77.3358 45.4441 72.7339 42.7616 70.6044 37.951C70.4781 37.6648 70.063 37.3608 69.7382 37.3072C69.0344 37.2177 68.3125 37.2893 67.6087 37.3072C67.1214 37.325 66.9229 37.5754 67.0853 38.0404C67.3199 38.7378 67.5184 39.4353 67.8433 40.097C70.1713 44.7645 74.1596 47.1967 79.2307 47.6974C83.7423 48.1445 87.8208 46.9463 91.0692 43.6021C91.6467 43.0119 91.8632 43.0835 92.1881 43.8525C93.1987 46.1773 94.9853 47.4291 97.5298 47.608C98.2337 47.6616 98.5946 47.3218 98.6126 46.6423C98.6307 46.0879 98.6126 45.5156 98.6126 44.9612C98.6126 44.532 98.3961 44.2995 97.9449 44.2459C95.7432 43.924 95.1838 43.2444 95.1838 41.0805C95.1838 38.9345 95.1838 36.7885 95.1838 34.6425ZM8.90328 32.3713C9.0296 33.5874 9.04765 35.4473 9.40858 37.2535C10.0943 40.7229 12.0434 43.459 15.0391 45.4083C18.1972 47.4828 21.7344 48.1087 25.4159 47.6795C28.3755 47.3397 31.0644 46.1415 33.3022 44.1565C35.1249 42.5291 36.3701 40.4904 37.092 38.1656C37.1642 37.951 36.9837 37.4144 36.9296 37.4144C35.8829 37.3966 34.8362 37.4323 33.8075 37.5039C33.6812 37.5217 33.5368 37.8258 33.4646 38.0225C32.7067 39.8108 31.5517 41.3309 29.9997 42.4933C25.7948 45.6945 20.3989 45.5693 16.3204 42.2251C14.227 40.5083 12.7833 38.3265 12.5667 35.5725C12.4043 33.6053 12.4404 31.6381 12.4043 29.6531C12.3502 26.291 13.6134 23.5548 16.158 21.2658C20.9403 16.9559 29.0613 17.6176 32.7428 24.0019C33.609 25.522 34.4933 26.0943 36.1536 25.9333C37.1461 25.826 37.3627 25.5935 36.9837 24.6457C36.3521 23.0541 35.54 21.5698 34.403 20.2643C32.2014 17.707 29.5305 15.9544 26.1738 15.3643C21.1208 14.488 16.7174 15.7577 13.0901 19.4238C10.9245 21.6056 9.53491 24.1986 9.15593 27.2388C8.97546 28.7589 9.01156 30.2432 8.90328 32.3713Z" fill="#1A130D"/>
<path d="M109.856 62.5589C109.856 41.1168 109.856 19.6746 109.856 -1.85693C71.8677 -1.85693 33.9338 -1.85693 -4 -1.85693C-3.98195 -1.8927 -3.94586 -1.98212 -3.92781 -2C-3.7293 -2 -3.53079 -2 -3.33228 -2C34.4391 -2 72.1925 -2 110 -2C110 -1.69598 110 -1.39197 110 -1.08795C110 19.9071 110 40.9022 110 61.9151C110 62.1119 109.91 62.3443 109.856 62.5589Z" fill="#FFF3E0"/>
<path d="M54.6692 28.9382C52.287 28.9382 49.8868 28.9382 47.5047 28.9382C46.6565 28.9382 46.476 28.7415 46.458 27.901C46.4399 25.451 46.3858 25.6835 48.7138 25.6835C52.9006 25.6835 57.0874 25.6835 61.2742 25.6835C62.5014 25.6835 62.5916 25.5046 62.0141 24.4495C60.8411 22.3035 59.1628 20.6761 56.9791 19.5852C54.615 18.4228 52.0705 18.1903 49.562 18.9057C45.4835 20.0681 42.8306 22.7685 41.6757 26.8459C41.5132 27.4181 41.4411 28.0441 41.4411 28.6521C41.405 30.6729 41.3147 32.7116 41.4411 34.7324C41.6576 38.327 43.4081 41.081 46.4399 43.0661C48.8221 44.6219 51.4569 45.069 54.218 44.6398C56.9972 44.2106 59.1989 42.7263 60.8952 40.5624C61.4908 39.8113 61.96 38.935 62.4111 38.0766C62.6457 37.6117 62.9164 37.3255 63.4578 37.3255C64.0895 37.3255 64.7391 37.3255 65.3888 37.3255C66.0204 37.3255 66.219 37.6295 66.0385 38.2376C65.2264 40.8486 63.7827 43.1019 61.581 44.7114C56.7084 48.288 51.4027 48.7351 45.8805 46.4103C42.7945 45.1227 40.6109 42.8336 39.2394 39.7934C38.3371 37.8084 37.9761 35.7697 37.9942 33.6237C38.0122 32.3003 37.9942 30.9948 37.9761 29.6715C37.94 25.0397 39.7266 21.2663 43.354 18.3334C47.5227 14.9713 52.2148 14.2739 57.1776 15.9728C61.5269 17.4571 64.4684 20.5331 65.9844 24.8787C66.2911 25.755 66.1287 25.9338 65.2264 25.9517C64.7572 25.9517 64.288 25.9338 63.8188 25.9338C63.2052 25.9338 62.8262 26.1842 62.8623 26.8459C62.8803 27.0605 62.8623 27.293 62.8623 27.5076C62.8623 28.9382 62.8623 28.9561 61.4005 28.9561C59.1447 28.9561 56.9069 28.9561 54.6692 28.9382C54.6692 28.9561 54.6692 28.9561 54.6692 28.9382Z" fill="#FFF3E0"/>
<path d="M95.1834 34.6429C95.1834 36.7889 95.1834 38.9349 95.1834 41.0809C95.1834 43.2626 95.7429 43.9243 97.9446 44.2462C98.3957 44.3178 98.5942 44.5324 98.6123 44.9616C98.6123 45.5159 98.6303 46.0882 98.6123 46.6426C98.5942 47.3222 98.2333 47.6619 97.5295 47.6083C94.9849 47.4295 93.1983 46.1776 92.1877 43.8528C91.8629 43.0838 91.6283 43.0123 91.0688 43.6024C87.8204 46.9466 83.7419 48.1448 79.2303 47.6977C74.1412 47.197 70.1709 44.7648 67.8429 40.0973C67.5181 39.4535 67.3196 38.7381 67.085 38.0407C66.9225 37.5936 67.1211 37.3254 67.6083 37.3075C68.3302 37.2896 69.052 37.2181 69.7378 37.3075C70.0626 37.3432 70.4777 37.6473 70.604 37.9513C72.7335 42.7619 77.3354 45.4444 82.5689 44.6218C86.8098 43.9601 89.6431 41.367 91.0869 37.4148C91.52 36.2524 91.5741 34.9469 91.6643 33.695C91.7546 32.2644 91.6644 30.8158 91.7004 29.3851C91.8629 23.2511 85.9616 17.5642 79.1581 18.673C75.639 19.2453 73.0945 21.1588 71.2718 24.1096C71.0552 24.4672 70.9469 24.8964 70.6762 25.2004C70.3875 25.5045 69.9905 25.8264 69.5934 25.8979C69.034 26.0231 68.4204 25.9158 67.8249 25.9337C67.1572 25.9694 66.9225 25.6118 67.1391 25.0753C67.5903 23.9486 68.0053 22.7862 68.6731 21.7668C72.4448 16.0442 79.0318 13.773 85.5827 15.8832C88.0009 16.6701 89.9499 18.1544 91.6463 20.0143C94.1909 22.8219 95.2556 26.1483 95.2015 29.8859C95.1654 31.4775 95.2015 33.0691 95.1834 34.6429Z" fill="#FFF3E0"/>
<path d="M8.90332 32.3723C8.99355 30.2442 8.97551 28.7599 9.15597 27.2756C9.53495 24.2175 10.9245 21.6423 13.0901 19.4606C16.7175 15.7945 21.1208 14.5247 26.1739 15.401C29.5305 15.9733 32.2195 17.7438 34.4031 20.3011C35.54 21.6244 36.3521 23.0909 36.9837 24.6825C37.3447 25.6303 37.1281 25.8628 36.1536 25.9701C34.4933 26.1311 33.6271 25.5588 32.7428 24.0387C29.0794 17.6543 20.9404 16.9748 16.158 21.3025C13.6315 23.5916 12.3502 26.3278 12.4043 29.6898C12.4404 31.657 12.4043 33.6421 12.5668 35.6092C12.7833 38.3633 14.227 40.5272 16.3204 42.2618C20.399 45.6239 25.7768 45.7312 29.9997 42.5301C31.5337 41.3677 32.7067 39.8476 33.4647 38.0593C33.5549 37.8625 33.6812 37.5406 33.8075 37.5406C34.8542 37.4691 35.8829 37.4333 36.9296 37.4512C37.0018 37.4512 37.1642 37.9698 37.092 38.2023C36.3521 40.5272 35.1249 42.5659 33.3022 44.1932C31.0645 46.1783 28.3936 47.3765 25.4159 47.7163C21.7164 48.1455 18.1973 47.5196 15.0391 45.4451C12.0434 43.4958 10.0944 40.7596 9.40862 37.2903C9.04769 35.4483 9.02965 33.5884 8.90332 32.3723Z" fill="#FFF3E0"/>
</svg>
