<svg width="120" height="62" viewBox="0 0 120 62" fill="none" xmlns="http://www.w3.org/2000/svg">
<g clip-path="url(#clip0_608_4668)">
<rect width="120" height="62" fill="white"/>
<g clip-path="url(#clip1_608_4668)">
<path d="M-11 71.7833C-11 47.8646 -11 23.9187 -11 0C36.2513 0 83.53 0 130.781 0C130.781 23.9187 130.781 47.8104 130.781 71.7833C83.4207 71.7833 36.1967 71.7833 -11 71.7833ZM16.0008 31.7743C16.0008 35.2145 16.0008 38.6817 16.0008 42.1219C16.0008 44.8849 16.0008 44.912 18.7336 44.8578C23.0789 44.7765 27.4515 44.8307 31.7421 44.3973C35.6774 43.991 38.5743 41.7156 40.0774 38.0316C41.4985 34.5102 41.4711 30.8804 40.5966 27.2506C39.3941 22.3205 36.224 19.395 31.1136 19.07C26.3857 18.7449 21.6305 18.9074 16.8753 18.8804C16.0828 18.8804 16.0008 19.395 16.0008 20.0451C16.0008 23.9458 16.0008 27.8736 16.0008 31.7743ZM82.6008 30.4199C82.6282 27.0339 82.6009 23.6749 82.6282 20.2889C82.6282 19.3138 82.3822 18.7991 81.2891 18.8804C80.0866 18.9616 78.9115 18.8804 77.709 18.9075C75.4134 18.9616 75.4407 18.9616 75.468 21.2641C75.4954 23.0519 75.4954 24.8668 75.4407 26.6546C75.4407 26.9526 75.1674 27.2506 75.0035 27.5485C74.8122 27.4673 74.6209 27.4131 74.4569 27.2777C71.0135 24.1354 64.9192 25.3815 63.0062 29.6343C61.8037 32.2889 61.6124 35.1061 62.1863 37.8691C62.5689 39.6569 63.3888 41.553 64.5639 42.9887C67.1055 46.1038 72.4072 46.1038 74.6755 43.693C75.1401 43.2054 75.632 43.2867 75.6867 44.0722C75.7687 44.8307 76.1239 44.9661 76.8618 44.912C78.4196 44.8307 79.9773 44.8578 81.535 44.912C82.3822 44.9391 82.6008 44.614 82.6008 43.8555C82.6008 39.386 82.6008 34.8894 82.6008 30.4199ZM54.1517 43.4763C54.3156 44.8578 55.1355 44.9391 56.1467 44.912C57.5677 44.8578 58.9888 44.8578 60.3826 44.9661C61.3391 45.0474 61.5031 44.7224 61.3391 43.8826C61.1205 42.6907 60.9292 41.4718 60.8745 40.2799C60.7652 36.8939 60.7925 33.535 60.6559 30.149C60.6012 28.6321 59.836 27.3589 58.3603 26.7359C54.3703 25.0564 50.2983 25.1648 46.2263 26.3296C44.1493 26.9255 42.6189 28.2257 42.1544 30.5011C41.9904 31.3138 42.209 31.6659 43.0289 31.6659C44.5866 31.6659 46.1443 31.7201 47.7021 31.6388C48.0847 31.6117 48.5766 31.395 48.7952 31.0971C49.943 29.6343 51.1455 29.2551 52.8399 30.0677C53.3045 30.2844 53.8237 30.9075 53.851 31.395C53.8784 31.8826 53.4958 32.5869 53.0858 32.8578C52.5119 33.237 51.7467 33.3183 51.0362 33.4537C49.1232 33.833 47.1555 34.0768 45.2698 34.5372C43.3022 35.0248 41.8264 36.1354 41.3345 38.2483C40.8426 40.4695 41.1159 42.5824 43.0289 43.991C45.3791 45.7246 48.112 45.7517 50.8176 44.9932C51.9654 44.6411 52.9492 44.0181 54.1517 43.4763ZM103.261 36.3792C103.179 36.3792 103.097 36.3792 103.043 36.3792C103.043 34.4289 103.125 32.5056 103.015 30.5824C102.906 28.4695 101.786 27.0068 99.6813 26.3296C95.8553 25.0835 92.0293 25.2731 88.2306 26.4108C86.2356 27.0068 84.9511 28.4424 84.4592 30.5011C84.2679 31.2867 84.5139 31.6659 85.3611 31.6388C86.9461 31.6117 88.5585 31.6388 90.1436 31.5847C90.4715 31.5847 90.8814 31.4221 91.0454 31.1783C92.1386 29.6885 93.1224 29.2822 94.8168 29.8239C95.6367 30.0677 96.2925 30.5824 96.2652 31.4763C96.2652 32.3431 95.7186 32.9391 94.8168 33.1016C93.1497 33.4266 91.4553 33.6433 89.7883 34.0497C88.4765 34.3747 87.1101 34.6998 85.935 35.3228C83.2294 36.7314 82.6555 41.1738 84.7052 43.4221C87.0554 45.9955 92.9858 45.833 95.3087 43.9639C95.9373 43.4492 96.3199 43.3409 96.6478 44.2619C96.7571 44.5598 97.3037 44.8849 97.659 44.912C99.2167 44.9661 100.774 44.8849 102.332 44.9391C103.808 44.9932 103.89 44.912 103.425 43.5847C103.316 43.2867 103.234 42.9616 103.234 42.6366C103.261 40.5508 103.261 38.465 103.261 36.3792Z" fill="#1A130D"/>
<path d="M-11 71.7833C36.1967 71.7833 83.4207 71.7833 130.781 71.7833C130.781 47.8104 130.781 23.9187 130.781 0C130.863 0.325056 131 0.650113 131 0.975169C131 18.1219 131 35.2415 131 52.3883C131 58.9165 131 65.4718 131 72C83.9946 72 36.9892 72 -10.0162 72C-10.3441 71.9729 -10.6721 71.8375 -11 71.7833Z" fill="#FFF3E0"/>
<path d="M16.001 31.7744C16.001 27.8737 16.001 23.9459 16.001 20.0452C16.001 19.3951 16.083 18.8534 16.8755 18.8805C21.6307 18.9075 26.3859 18.745 31.1137 19.0701C36.2242 19.4222 39.3943 22.3206 40.5968 27.2507C41.4987 30.8805 41.4987 34.5373 40.0776 38.0317C38.5745 41.7428 35.6776 44.0182 31.7423 44.3974C27.4244 44.8308 23.0518 44.7495 18.7338 44.8579C16.001 44.9121 16.001 44.8579 16.001 42.122C15.9736 38.6818 15.9736 35.2416 16.001 31.7744ZM24.0356 31.8285C24.0356 33.5893 24.0083 35.35 24.0629 37.1107C24.0629 37.4899 24.4182 38.1942 24.6095 38.1942C26.3312 38.1671 28.1349 38.3026 29.7473 37.8421C32.0976 37.1649 32.9174 35.1062 33.1634 32.8037C33.464 29.9865 32.5895 26.8985 29.392 25.815C28.1349 25.3816 26.6865 25.5441 25.3201 25.4087C24.3635 25.3003 24.0083 25.7337 24.0356 26.6547C24.0629 28.3884 24.0356 30.0949 24.0356 31.8285Z" fill="#FFF3E0"/>
<path d="M82.6005 30.4199C82.6005 34.8895 82.6005 39.3861 82.6005 43.8556C82.6005 44.6411 82.3818 44.9662 81.5346 44.912C79.9769 44.8579 78.4192 44.8308 76.8614 44.912C76.1235 44.9391 75.7683 44.8308 75.6863 44.0723C75.6043 43.2867 75.1124 43.2055 74.6751 43.6931C72.4068 46.0768 67.1051 46.1039 64.5635 42.9888C63.4157 41.5531 62.5685 39.684 62.1859 37.8691C61.612 35.1332 61.8033 32.289 63.0058 29.6344C64.9461 25.3816 71.0131 24.1355 74.4565 27.2777C74.5931 27.4132 74.8118 27.4673 75.0031 27.5486C75.167 27.2506 75.4403 26.9527 75.4403 26.6547C75.495 24.8669 75.495 23.0791 75.4677 21.2642C75.4403 18.9617 75.413 18.9617 77.7086 18.9075C78.9111 18.8804 80.1135 18.9346 81.2887 18.8804C82.3818 18.7992 82.6551 19.3138 82.6278 20.289C82.6005 23.675 82.6278 27.0339 82.6005 30.4199ZM75.7956 35.2687C75.6316 34.5102 75.495 33.508 75.1397 32.587C74.5931 31.1242 73.6366 30.6095 72.1062 30.6908C70.7398 30.7721 69.8106 31.5305 69.4007 32.9391C68.9088 34.6457 68.9361 36.3522 69.4007 38.0317C69.8379 39.5757 72.0789 41.0384 74.0192 39.7111C75.6043 38.6547 75.5223 37.0565 75.7956 35.2687Z" fill="#FFF3E0"/>
<path d="M54.1514 43.4767C52.9489 44.0456 51.9377 44.6415 50.8719 44.9666C48.1664 45.725 45.4062 45.6979 43.0832 43.9643C41.1702 42.5557 40.8969 40.4429 41.3889 38.2216C41.8534 36.1088 43.3565 34.9982 45.3242 34.5106C47.2099 34.0501 49.1775 33.8063 51.0906 33.427C51.8011 33.2916 52.5663 33.2103 53.1402 32.8311C53.5775 32.5602 53.9601 31.8289 53.9054 31.3684C53.8781 30.8808 53.3588 30.2848 52.8943 30.041C51.1999 29.2284 49.9974 29.6076 48.8496 31.0704C48.631 31.3684 48.1391 31.6121 47.7565 31.6121C46.1987 31.6663 44.641 31.6122 43.0832 31.6392C42.2634 31.6392 42.0174 31.2871 42.2087 30.4745C42.6733 28.1991 44.2037 26.8988 46.2807 26.3029C50.3527 25.1381 54.452 25.0298 58.4147 26.7092C59.8904 27.3322 60.6283 28.6054 60.7103 30.1223C60.8469 33.4812 60.8196 36.8672 60.9289 40.2532C60.9562 41.4722 61.1475 42.6641 61.3935 43.8559C61.5575 44.7228 61.3935 45.0207 60.437 44.9395C59.0159 44.8311 57.5948 44.8311 56.201 44.8853C55.1352 44.9395 54.3153 44.8582 54.1514 43.4767ZM54.0694 37.7882C54.0421 37.0568 53.8234 36.488 52.8943 36.7047C51.9924 36.9214 51.0632 37.111 50.1887 37.4361C49.2869 37.7611 48.4123 38.2758 48.467 39.4135C48.5217 40.4699 49.3688 40.8763 50.298 41.1201C52.3203 41.6347 54.0967 40.0365 54.0694 37.7882Z" fill="#FFF3E0"/>
<path d="M103.261 36.3792C103.261 38.465 103.261 40.5507 103.261 42.6094C103.261 42.9345 103.343 43.2596 103.452 43.5575C103.917 44.8848 103.807 44.9661 102.359 44.9119C100.801 44.8577 99.2436 44.939 97.6858 44.8848C97.3306 44.8577 96.784 44.5598 96.6747 44.2347C96.3467 43.3137 95.9641 43.4221 95.3356 43.9367C93.0126 45.8058 87.0823 45.9954 84.732 43.395C82.6824 41.1467 83.2563 36.6772 85.9618 35.2957C87.137 34.6726 88.5034 34.3476 89.8152 34.0225C91.4549 33.6162 93.1493 33.3995 94.8437 33.0744C95.7455 32.9119 96.2921 32.2889 96.2921 31.4492C96.2921 30.5553 95.6635 30.0406 94.8437 29.7968C93.1493 29.2821 92.1654 29.6614 91.0723 31.1512C90.9083 31.395 90.4711 31.5304 90.1705 31.5575C88.5854 31.6117 86.973 31.5846 85.3879 31.6117C84.5407 31.6388 84.2948 31.2595 84.4861 30.474C84.978 28.4153 86.2351 26.9796 88.2574 26.3837C92.0561 25.246 95.8822 25.0564 99.7082 26.3024C101.812 26.9796 102.933 28.4424 103.042 30.5553C103.152 32.4785 103.07 34.4288 103.07 36.3521C103.124 36.3792 103.206 36.3792 103.261 36.3792ZM93.2039 41.3092C95.4176 41.3634 96.6474 39.0338 96.2374 37.246C96.1828 37.0022 95.6362 36.6501 95.4176 36.7042C94.1604 37.0293 92.9033 37.3814 91.7282 37.8961C90.4984 38.4379 90.3891 39.7923 91.4822 40.5778C91.9741 40.93 92.63 41.0654 93.2039 41.3092Z" fill="#FFF3E0"/>
<path d="M24.0352 31.8287C24.0352 30.0951 24.0625 28.3886 24.0352 26.6549C24.0078 25.7339 24.3631 25.3005 25.3196 25.4089C26.686 25.5443 28.1345 25.4089 29.3916 25.8152C32.589 26.8716 33.4636 29.9868 33.1629 32.8039C32.917 35.0793 32.0971 37.138 29.7469 37.8423C28.1345 38.3028 26.3308 38.1673 24.6091 38.1944C24.4178 38.1944 24.0625 37.4901 24.0625 37.1109C24.0078 35.3502 24.0352 33.5895 24.0352 31.8287Z" fill="#1A130D"/>
<path d="M75.7961 35.269C75.4955 37.0568 75.6048 38.655 74.0471 39.7385C72.1067 41.0658 69.8658 39.603 69.4285 38.059C68.9366 36.3525 68.9366 34.6459 69.4285 32.9665C69.8384 31.5308 70.7676 30.7994 72.1341 30.7182C73.6645 30.6369 74.621 31.1516 75.1675 32.6143C75.4955 33.5082 75.6321 34.5376 75.7961 35.269Z" fill="#1A130D"/>
<path d="M54.0697 37.7879C54.097 40.0633 52.3206 41.6344 50.3256 41.1198C49.3965 40.876 48.5493 40.4696 48.4946 39.4132C48.44 38.2755 49.3145 37.7879 50.2163 37.4358C51.0909 37.1107 52.02 36.9211 52.9219 36.7044C53.8237 36.4877 54.0424 37.0295 54.0697 37.7879Z" fill="#1A130D"/>
<path d="M93.2044 41.3088C92.6305 41.065 91.9746 40.9296 91.4554 40.5774C90.3622 39.7919 90.4715 38.4375 91.7013 37.8957C92.8765 37.381 94.1609 37.0289 95.3907 36.7038C95.6093 36.6496 96.1559 37.0018 96.2106 37.2456C96.6478 39.0605 95.418 41.363 93.2044 41.3088Z" fill="#1A130D"/>
</g>
</g>
<defs>
<clipPath id="clip0_608_4668">
<rect width="120" height="62" fill="white"/>
</clipPath>
<clipPath id="clip1_608_4668">
<rect width="142" height="72" fill="white" transform="translate(-11)"/>
</clipPath>
</defs>
</svg>
