<svg width="270" height="61" viewBox="0 0 270 61" fill="none" xmlns="http://www.w3.org/2000/svg">
<path d="M-4 61.6441C-4 40.4096 -4 19.2048 -4 -2C88.6344 -2 181.269 -2 273.903 -2C273.903 19.1752 273.903 40.3503 273.903 61.6441C181.09 61.6441 88.545 61.6441 -4 61.6441ZM154.632 26.7377C154.036 26.3522 153.738 26.1446 153.44 25.937C150.609 23.8906 147.6 23.8313 144.799 25.7887C142.237 27.5681 141.134 32.3726 142.415 36.228C144.054 41.1807 148.881 42.6636 153.142 39.6089C153.47 39.3716 154.214 39.6682 154.751 39.7275C154.423 41.0621 154.453 42.6636 153.678 43.7016C152.814 44.8879 151.205 44.8285 149.715 44.2651C148.315 43.7312 146.825 43.2864 145.335 43.0788C144.59 42.9601 143.786 43.4347 142.981 43.6719C143.399 44.5023 143.637 45.5996 144.292 46.1038C147.302 48.4171 150.758 48.4171 154.304 47.7053C158.058 46.9639 159.905 45.0955 160.025 41.4476C160.174 36.4949 160.144 31.5422 160.084 26.5894C160.084 26.0259 159.28 25.0473 158.803 25.0176C157.254 24.8693 155.287 24.1576 154.632 26.7377ZM102.013 38.7785C102.102 41.0621 103.473 40.7952 104.813 40.8545C107.108 40.9435 107.257 40.8545 107.257 38.5709C107.227 32.3133 107.167 26.0556 107.257 19.798C107.316 15.0825 107.197 16.3577 103.592 16.1798C102.43 16.1205 101.923 16.6543 101.983 17.8999C102.072 20.1835 102.072 22.4671 102.042 24.7804C102.042 25.2252 101.864 25.8777 101.566 26.0556C101.268 26.2039 100.612 25.937 100.284 25.6404C98.0796 23.6237 92.7164 24.0686 90.6903 27.2419C88.8727 30.089 88.6344 33.0547 89.558 36.139C90.869 40.469 94.4147 42.367 98.7053 41.0028C99.7779 40.6469 100.702 39.6682 102.013 38.7785ZM28.2388 39.1047C29.1327 40.7952 30.4735 41.329 32.5294 40.8545C34.1383 40.469 33.6318 39.1047 33.6318 38.0964C33.6616 31.8387 33.6616 25.5811 33.6616 19.3531C33.6616 16.0908 33.6318 16.1205 30.2947 16.1798C29.0135 16.2095 28.2984 16.5653 28.358 18.0185C28.4474 20.2428 28.4474 22.4671 28.4474 24.6914C28.4474 25.1362 28.3282 25.759 28.0004 25.9963C27.7919 26.1742 27.0768 25.937 26.749 25.6701C23.6503 23.4458 19.1809 24.3058 17.0357 27.3902C15.1287 30.1483 15.0692 33.114 15.8438 36.1094C17.2144 41.329 22.667 43.0195 26.9576 39.7572C27.3151 39.4606 27.7323 39.342 28.2388 39.1047ZM206.237 39.3123C210.915 42.1891 214.223 42.1297 216.606 39.431C219.139 36.5542 219.616 31.038 217.56 27.7164C216.07 25.3438 213.865 24.0686 211.094 24.5431C209.366 24.8397 207.757 25.8184 205.999 26.5598C205.761 24.6617 204.152 24.9583 202.573 24.899C200.964 24.8693 200.546 25.4328 200.576 26.975C200.666 32.8471 200.606 38.7488 200.606 44.6209C200.606 48.2391 200.606 48.2095 204.271 48.1205C205.493 48.0908 205.939 47.557 205.91 46.43C205.88 44.8285 205.82 43.2271 205.88 41.5959C205.91 40.9138 206.088 40.2317 206.237 39.3123ZM227.988 39.1344C228.942 39.6386 229.418 39.7868 229.776 40.0834C232.07 41.8332 234.811 41.9815 237.255 40.469C240.473 38.4523 241.903 33.7961 240.532 29.6738C238.804 24.4245 233.679 22.8526 229.299 26.2039C228.286 26.975 227.929 26.5005 227.482 25.6404C226.558 23.95 225.009 25.2252 223.757 25.0176C223.549 24.988 222.834 26.2039 222.804 26.8563C222.714 33.4106 222.685 39.9944 222.714 46.5487C222.714 47.0232 223.102 47.8832 223.37 47.9129C224.711 48.0315 226.141 48.1205 227.392 47.7943C227.78 47.6756 227.929 46.1928 227.958 45.3327C228.048 43.405 227.988 41.4773 227.988 39.1344ZM50.2875 39.3716C50.2577 39.342 50.4067 39.4903 50.4961 39.6386C51.2112 40.7655 53.2969 41.4476 54.727 40.6766C55.323 40.3503 55.6507 39.1047 55.6805 38.2447C55.7699 34.8934 55.6209 31.5718 55.6805 28.2206C55.7401 24.6321 55.7699 24.5431 52.1646 24.899C51.3601 24.988 50.6748 25.8777 49.8406 26.4708C49.7214 26.3818 49.4532 26.2039 49.2149 26.0259C45.1925 22.823 39.5313 24.4838 38.0713 29.3475C37.6542 30.6821 37.4754 32.165 37.4754 33.5588C37.535 38.4523 40.9317 41.9518 45.1627 41.3883C46.861 41.1214 48.4104 40.1131 50.2875 39.3716ZM187.734 24.3948C183.444 24.4541 178.945 27.3012 178.826 32.7581C178.736 37.4736 182.729 41.5366 187.407 41.5366C192.591 41.5663 196.852 37.8591 196.941 33.2919C197.001 28.2206 193.157 24.4838 187.734 24.3948ZM122.542 33.8554V33.8851C123.972 33.8851 125.432 33.7961 126.832 33.9147C128.322 34.0334 128.739 33.3809 128.59 32.0463C127.816 25.4921 121.648 22.734 115.897 25.2549C112.352 26.797 110.743 29.8517 111.011 33.7071C111.249 36.9991 112.858 39.4903 116.046 40.6766C119.771 42.0704 123.436 42.0111 126.654 39.4013C127.845 38.4523 127.607 37.6515 126.207 37.088C124.955 36.5839 123.853 36.4059 122.542 37.2956C120.635 38.6006 117.983 38.1557 116.821 36.4949C116.463 35.9611 116.344 35.101 116.463 34.4486C116.523 34.152 117.476 33.9147 118.013 33.8851C119.562 33.7961 121.052 33.8554 122.542 33.8554ZM68.0754 33.3809C67.8669 33.4402 67.6881 33.4995 67.4795 33.5292C66.6751 31.6311 65.9004 29.7331 65.0959 27.835C63.8445 24.8693 63.8147 24.8693 60.5372 24.8693C58.3323 24.8693 58.1237 25.2549 59.0474 27.2419C60.8351 31.0677 62.6229 34.8638 64.3808 38.6895C64.9171 39.8165 65.3045 40.8842 66.973 40.8842C68.8203 40.8842 70.0122 40.4393 70.757 38.6302C72.217 35.1307 73.8558 31.7498 75.435 28.3095C77.0141 24.899 77.0141 24.9583 73.1407 24.81C71.8297 24.7507 71.1146 25.1956 70.6677 26.5005C69.9526 28.8434 68.9693 31.0973 68.0754 33.3809ZM170.393 27.4495C169.47 24.9583 169.47 24.9583 166.818 24.899C166.758 24.899 166.699 24.899 166.639 24.8693C165.269 24.721 164.702 25.2549 164.732 26.6487C164.792 30.1779 164.762 33.7071 164.762 37.2363C164.762 40.9435 164.166 40.8545 168.546 40.8842C169.887 40.8842 170.304 40.3503 170.244 39.1047C170.185 37.5032 170.215 35.8721 170.274 34.2706C170.423 30.7711 171.645 29.5551 175.131 29.1696C175.727 29.1103 176.68 28.7247 176.77 28.3392C176.978 27.1826 176.859 25.9666 176.859 24.7507C175.727 24.8693 174.565 24.899 173.492 25.1659C172.896 25.3142 172.39 25.937 171.853 26.3522C171.377 26.7081 170.93 27.0639 170.393 27.4495ZM244.912 32.9064H244.942C244.942 34.3892 244.912 35.8721 244.942 37.355C245.001 40.7062 245.031 40.6172 248.458 40.8248C250.245 40.9435 250.603 40.2317 250.573 38.6895C250.514 35.3383 250.543 32.0167 250.543 28.6654C250.573 24.8397 250.573 24.8693 246.73 24.8397C245.419 24.81 244.912 25.3735 244.912 26.5894C244.912 28.6951 244.912 30.8007 244.912 32.9064ZM85.0887 32.9657C85.0887 31.2456 85.0589 29.4958 85.0887 27.7757C85.1483 24.7804 85.0887 24.721 82.1092 24.8693C81.8708 24.8693 81.6026 24.899 81.3643 24.899C79.9341 24.8397 79.368 25.5218 79.3978 26.9453C79.4573 30.4745 79.5169 33.974 79.4574 37.5032C79.3978 41.4476 79.5467 40.7359 82.9434 40.8842C83.0626 40.8842 83.1818 40.8842 83.3308 40.8842C84.5822 40.9138 85.1483 40.3503 85.0887 39.0751C85.0589 37.0584 85.0887 35.012 85.0887 32.9657ZM250.841 19.7386C250.901 18.3151 249.53 16.8026 248.13 16.7136C246.402 16.595 244.763 18.0185 244.703 19.6497C244.674 21.1918 246.193 22.6747 247.832 22.6747C249.352 22.7044 250.782 21.3105 250.841 19.7386ZM85.3867 19.6793C85.3569 18.1372 83.7181 16.595 82.1985 16.6247C80.7683 16.684 79.1892 18.2854 79.2488 19.6793C79.3084 21.2215 80.7683 22.734 82.1985 22.734C83.7777 22.734 85.4165 21.1622 85.3867 19.6793Z" fill="#1A130D"/>
<path d="M-4 61.6441C88.545 61.6441 181.09 61.6441 273.903 61.6441C273.903 40.38 273.903 19.1752 273.903 -2C274.022 -1.49583 274.261 -1.02132 274.261 -0.517146C274.29 20.3318 274.29 41.1511 274.29 62C182.103 62 89.8858 62 -2.30165 61.9703C-2.86777 62 -3.43388 61.7627 -4 61.6441Z" fill="#FFF3E0"/>
<path d="M154.631 26.7374C155.316 24.1572 157.253 24.869 158.802 24.958C159.279 24.9876 160.084 25.9663 160.084 26.5298C160.173 31.4825 160.203 36.4352 160.024 41.388C159.905 45.0358 158.058 46.9042 154.303 47.6456C150.758 48.3574 147.301 48.3574 144.292 46.0441C143.607 45.54 143.398 44.4427 142.981 43.6123C143.756 43.4047 144.59 42.9302 145.335 43.0191C146.825 43.2267 148.285 43.7012 149.715 44.2054C151.205 44.7392 152.814 44.8282 153.678 43.6419C154.423 42.6039 154.422 41.0024 154.75 39.6679C154.214 39.6086 153.469 39.312 153.141 39.5492C148.881 42.6039 144.054 41.1211 142.415 36.1683C141.134 32.3129 142.236 27.5085 144.799 25.729C147.629 23.7717 150.609 23.831 153.439 25.8773C153.707 26.1442 154.035 26.3222 154.631 26.7374ZM151.085 37.0284C153.529 37.058 155.346 35.2193 155.316 32.8171C155.287 30.5335 153.558 28.6651 151.443 28.6058C148.881 28.5465 147.212 30.3259 147.182 33.173C147.123 35.249 148.91 36.9987 151.085 37.0284Z" fill="#FFF3E0"/>
<path d="M102.012 38.7784C100.671 39.6977 99.7776 40.6468 98.6751 41.0027C94.3548 42.3965 90.8389 40.4985 89.5279 36.1389C88.6042 33.0546 88.8426 30.0889 90.6601 27.2418C92.6862 24.0685 98.0494 23.6236 100.254 25.6403C100.582 25.9369 101.238 26.2038 101.536 26.0555C101.833 25.9072 102.012 25.2251 102.012 24.7802C102.042 22.4966 102.072 20.1834 101.953 17.8998C101.893 16.6838 102.4 16.15 103.562 16.1797C107.167 16.328 107.286 15.0824 107.226 19.7978C107.137 26.0555 107.226 32.3131 107.226 38.5708C107.226 40.8544 107.077 40.9433 104.783 40.8544C103.472 40.7951 102.102 41.062 102.012 38.7784ZM98.4368 37.1176C100.791 37.1176 102.549 35.3382 102.489 32.9952C102.429 30.4744 100.671 28.5467 98.4368 28.5467C96.3213 28.5467 94.5038 30.5337 94.5038 32.8766C94.5038 35.3382 96.1723 37.1176 98.4368 37.1176Z" fill="#FFF3E0"/>
<path d="M28.2392 39.1048C27.7327 39.3421 27.3156 39.4607 26.958 39.7276C22.6675 43.0195 17.2447 41.2994 15.8443 36.0798C15.0696 33.0844 15.0994 30.1187 17.0361 27.3606C19.1814 24.2763 23.6507 23.4162 26.7494 25.6405C27.107 25.8777 27.7923 26.115 28.0009 25.9667C28.2988 25.7295 28.418 25.1067 28.4478 24.6618C28.4776 22.4375 28.4776 20.2132 28.3584 17.989C28.2988 16.5358 29.0139 16.1799 30.2951 16.1502C33.6024 16.0909 33.6322 16.0613 33.662 19.3235C33.6918 25.5812 33.6918 31.8388 33.6322 38.0668C33.6322 39.0752 34.1387 40.4394 32.5298 40.8249C30.4739 41.3291 29.1331 40.7953 28.2392 39.1048ZM21.0585 32.8175C21.0585 35.6053 22.3993 37.1474 24.8127 37.1474C27.2262 37.1178 28.8947 35.4273 28.9245 33.0548C28.9543 30.5043 27.256 28.6062 24.9617 28.6062C22.5483 28.5765 21.0287 30.2373 21.0585 32.8175Z" fill="#FFF3E0"/>
<path d="M206.237 39.3127C206.088 40.2321 205.91 40.9142 205.88 41.5963C205.85 43.1978 205.88 44.7993 205.909 46.4304C205.939 47.5871 205.492 48.1209 204.271 48.1209C200.606 48.1802 200.606 48.2395 200.606 44.6214C200.606 38.7493 200.665 32.8475 200.576 26.9754C200.546 25.4332 200.993 24.8697 202.572 24.8994C204.152 24.9291 205.761 24.6325 205.999 26.5602C207.757 25.8484 209.366 24.8401 211.094 24.5435C213.865 24.069 216.07 25.3443 217.56 27.7168C219.615 31.0384 219.139 36.5546 216.606 39.4314C214.222 42.1005 210.915 42.1598 206.237 39.3127ZM209.396 37.1181C211.898 37.1478 213.358 35.5463 213.388 32.7882C213.388 30.4453 211.72 28.6362 209.515 28.6065C207.31 28.5769 205.552 30.4749 205.522 32.8772C205.522 35.487 206.952 37.0885 209.396 37.1181Z" fill="#FFF3E0"/>
<path d="M227.988 39.134C227.988 41.477 228.047 43.4047 227.958 45.3324C227.928 46.1924 227.779 47.7049 227.392 47.7939C226.11 48.1498 224.71 48.0312 223.369 47.9125C223.101 47.8829 222.714 47.0228 222.714 46.5483C222.684 39.9941 222.714 33.4102 222.803 26.856C222.803 26.2036 223.518 24.958 223.757 25.0173C225.008 25.2249 226.557 23.92 227.481 25.6401C227.928 26.4705 228.286 26.9746 229.299 26.2036C233.708 22.8523 238.803 24.4538 240.532 29.6734C241.902 33.7958 240.472 38.4519 237.254 40.4686C234.811 41.9811 232.07 41.8328 229.775 40.0831C229.418 39.8162 228.941 39.6382 227.988 39.134ZM235.496 33.0247C235.496 30.3259 233.857 28.6058 231.325 28.6651C229.209 28.7244 227.57 30.6521 227.57 33.1433C227.57 35.4566 229.239 37.147 231.533 37.147C233.977 37.1174 235.496 35.5455 235.496 33.0247Z" fill="#FFF3E0"/>
<path d="M50.287 39.3717C48.4397 40.1132 46.8606 41.1215 45.192 41.3291C40.961 41.9223 37.5643 38.4227 37.5048 33.4996C37.475 32.1058 37.6835 30.6229 38.1007 29.2883C39.5606 24.4246 45.2218 22.7934 49.2442 25.9667C49.4826 26.1447 49.7209 26.3226 49.8699 26.4116C50.7042 25.8185 51.4193 24.9287 52.194 24.8398C55.7992 24.4839 55.7694 24.5729 55.7098 28.1614C55.6502 31.5126 55.7992 34.8342 55.7098 38.1855C55.68 39.0159 55.3523 40.2911 54.7564 40.6173C53.3262 41.3884 51.2405 40.6767 50.5254 39.5793C50.3764 39.4904 50.2572 39.3717 50.287 39.3717ZM50.8532 32.8472C50.7936 30.4153 49.1846 28.5172 47.1585 28.5172C44.6259 28.5172 42.868 30.445 42.9275 33.1438C42.9871 35.6053 44.5663 37.0585 47.1585 37.0288C49.3634 37.0288 50.9128 35.2791 50.8532 32.8472Z" fill="#FFF3E0"/>
<path d="M187.736 24.3945C193.188 24.4835 197.032 28.2203 196.913 33.2917C196.823 37.8588 192.562 41.566 187.378 41.5363C182.73 41.5363 178.707 37.4733 178.797 32.7578C178.916 27.3009 183.445 24.4538 187.736 24.3945ZM187.527 36.9988C189.911 36.9988 191.549 35.2787 191.49 32.8171C191.46 30.6522 189.821 28.9024 187.825 28.8728C185.799 28.8431 184.19 30.5632 184.16 32.7875C184.13 34.8635 185.799 36.9988 187.527 36.9988Z" fill="#FFF3E0"/>
<path d="M122.542 33.856C121.052 33.856 119.532 33.7966 118.043 33.8856C117.477 33.9153 116.553 34.1525 116.493 34.4491C116.344 35.1015 116.464 35.9616 116.851 36.4954C118.013 38.1562 120.694 38.6011 122.572 37.2962C123.883 36.4065 124.985 36.5844 126.236 37.0886C127.667 37.6521 127.875 38.4528 126.683 39.4018C123.436 42.0117 119.801 42.071 116.076 40.6771C112.888 39.4908 111.309 36.9699 111.041 33.7077C110.743 29.8522 112.382 26.7976 115.927 25.2554C121.678 22.7642 127.845 25.4927 128.62 32.0469C128.769 33.3814 128.352 34.0339 126.862 33.9153C125.432 33.7966 124.002 33.8856 122.572 33.8856C122.542 33.856 122.542 33.856 122.542 33.856ZM119.652 30.9199C119.652 30.9496 119.652 30.9496 119.652 30.9792C120.456 30.9792 121.32 31.1572 122.035 30.9199C122.452 30.7716 122.989 29.7929 122.84 29.4074C122.333 27.8949 119.532 26.9755 118.251 27.9245C117.506 28.488 117.119 29.4964 116.553 30.3268C117.387 30.5344 118.221 30.7716 119.086 30.9792C119.294 30.9792 119.473 30.9199 119.652 30.9199Z" fill="#FFF3E0"/>
<path d="M68.0749 33.3806C68.9687 31.097 69.952 28.8431 70.7267 26.5298C71.1736 25.2249 71.8589 24.8097 73.1997 24.8394C77.0731 24.9876 77.0731 24.9283 75.4939 28.3389C73.9148 31.7791 72.2462 35.16 70.816 38.6596C70.0712 40.4686 68.8793 40.9135 67.032 40.9135C65.3635 40.9135 64.9463 39.8458 64.4398 38.7189C62.6521 34.8931 60.8941 31.0673 59.1064 27.2712C58.1827 25.2842 58.3913 24.8987 60.5962 24.8987C63.8737 24.869 63.9035 24.869 65.1549 27.8644C65.9594 29.7624 66.7341 31.6605 67.5385 33.5585C67.6875 33.4696 67.8663 33.4103 68.0749 33.3806Z" fill="#FFF3E0"/>
<path d="M170.394 27.4494C170.93 27.0639 171.377 26.7376 171.854 26.3818C172.39 25.9666 172.867 25.3438 173.493 25.1955C174.566 24.8989 175.728 24.8989 176.86 24.7803C176.86 25.9666 176.979 27.2122 176.77 28.3688C176.711 28.7543 175.728 29.1399 175.132 29.1992C171.675 29.5847 170.454 30.8007 170.275 34.3002C170.186 35.9017 170.186 37.5328 170.245 39.1343C170.305 40.3799 169.858 40.9434 168.547 40.9137C164.167 40.9137 164.733 40.973 164.763 37.2659C164.763 33.7367 164.793 30.2075 164.733 26.6783C164.703 25.2844 165.269 24.721 166.64 24.8989C166.7 24.8989 166.759 24.9286 166.819 24.9286C169.47 24.9582 169.47 24.9582 170.394 27.4494Z" fill="#FFF3E0"/>
<path d="M244.911 32.9066C244.911 30.8009 244.911 28.6953 244.911 26.5896C244.911 25.3737 245.418 24.8398 246.729 24.8398C250.602 24.8992 250.572 24.8398 250.542 28.6656C250.513 32.0169 250.483 35.3385 250.572 38.6897C250.602 40.2319 250.215 40.9436 248.457 40.825C245.03 40.5878 245.03 40.7064 244.941 37.3551C244.911 35.8723 244.941 34.3894 244.941 32.9066C244.911 32.9066 244.911 32.9066 244.911 32.9066Z" fill="#FFF3E0"/>
<path d="M85.0886 32.9658C85.0886 35.0121 85.0588 37.0585 85.0886 39.0752C85.1183 40.3504 84.582 40.9139 83.3306 40.8843C83.2114 40.8843 83.0922 40.8843 82.9433 40.8843C79.5466 40.736 79.3976 41.4477 79.4572 37.5033C79.5168 33.9741 79.4572 30.4746 79.3976 26.9454C79.3678 25.5219 79.9339 24.8398 81.3641 24.8991C81.6025 24.8991 81.8706 24.8694 82.109 24.8694C85.0886 24.7211 85.1481 24.7804 85.0886 27.7758C85.0588 29.5256 85.0886 31.2457 85.0886 32.9658Z" fill="#FFF3E0"/>
<path d="M250.842 19.739C250.782 21.3108 249.382 22.7047 247.832 22.675C246.194 22.675 244.644 21.1922 244.704 19.65C244.763 18.0189 246.402 16.5953 248.13 16.714C249.531 16.8029 250.871 18.2858 250.842 19.739Z" fill="#FFF3E0"/>
<path d="M85.3859 19.6791C85.4157 21.1323 83.7471 22.7338 82.1977 22.7338C80.7676 22.7338 79.2778 21.2213 79.248 19.6791C79.2182 18.3149 80.7676 16.6838 82.1977 16.6244C83.7173 16.5948 85.3561 18.137 85.3859 19.6791Z" fill="#FFF3E0"/>
<path d="M151.087 37.0285C148.912 37.0285 147.124 35.2788 147.154 33.1731C147.183 30.326 148.852 28.5466 151.414 28.6059C153.53 28.6356 155.258 30.5336 155.288 32.8172C155.347 35.2195 153.53 37.0285 151.087 37.0285Z" fill="#1A130D"/>
<path d="M98.4379 37.1174C96.1734 37.1174 94.5049 35.338 94.5049 32.9061C94.5049 30.5632 96.3224 28.5762 98.4379 28.5762C100.673 28.5762 102.46 30.5039 102.49 33.0247C102.55 35.338 100.792 37.1174 98.4379 37.1174Z" fill="#1A130D"/>
<path d="M21.0591 32.8171C21.0591 30.237 22.5787 28.5762 24.9325 28.5762C27.2268 28.5762 28.9251 30.4742 28.8953 33.0247C28.8655 35.427 27.197 37.1174 24.7835 37.1174C22.3999 37.1471 21.0591 35.6049 21.0591 32.8171Z" fill="#1A130D"/>
<path d="M209.396 37.1174C206.953 37.0878 205.523 35.4863 205.523 32.8764C205.553 30.4742 207.311 28.5465 209.516 28.6058C211.72 28.6355 213.389 30.4742 213.389 32.7875C213.359 35.5456 211.899 37.1471 209.396 37.1174Z" fill="#1A130D"/>
<path d="M235.496 33.0254C235.496 35.5462 233.976 37.118 231.533 37.118C229.239 37.118 227.57 35.4573 227.57 33.1143C227.57 30.6231 229.209 28.6954 231.325 28.6361C233.857 28.6065 235.496 30.3266 235.496 33.0254Z" fill="#1A130D"/>
<path d="M50.8544 32.8465C50.914 35.2784 49.3646 37.0282 47.1597 37.0578C44.5973 37.0875 43.0181 35.6046 42.9287 33.1727C42.8691 30.4443 44.5973 28.5166 47.1597 28.5462C49.1858 28.5166 50.7948 30.4146 50.8544 32.8465Z" fill="#1A130D"/>
<path d="M187.525 36.9985C185.797 36.9985 184.129 34.8632 184.159 32.7575C184.188 30.5332 185.797 28.8428 187.823 28.8428C189.82 28.8724 191.458 30.6222 191.488 32.7872C191.548 35.2784 189.909 36.9985 187.525 36.9985Z" fill="#1A130D"/>
<path d="M119.651 30.9198C119.472 30.9198 119.264 30.9791 119.085 30.9494C118.251 30.7418 117.416 30.5342 116.552 30.297C117.118 29.4962 117.506 28.4879 118.251 27.8948C119.502 26.9161 122.333 27.8651 122.839 29.3776C122.958 29.7928 122.452 30.7418 122.035 30.8901C121.32 31.157 120.455 30.9494 119.651 30.9494C119.651 30.9494 119.651 30.9494 119.651 30.9198Z" fill="#1A130D"/>
</svg>
