<svg width="173" height="62" viewBox="0 0 173 62" fill="none" xmlns="http://www.w3.org/2000/svg">
<g clip-path="url(#clip0_608_4198)">
<path d="M0 0C57.6334 0 115.367 0 173 0C173 20.6351 173 41.3649 173 62C115.367 62 57.6334 62 0 62C0 41.3649 0 20.6351 0 0ZM73.2882 34.455C74.1856 34.455 74.7839 33.9817 75.083 33.1298C76.0801 29.9115 77.1769 26.7878 78.2738 23.5695C78.4732 22.9069 78.872 22.1496 77.7752 21.8657C76.8778 21.5817 75.9804 22.055 75.6813 22.9069C75.1827 24.516 74.7839 26.1252 74.1856 27.6397C74.0859 28.0183 73.5873 28.3969 73.2882 28.6809C72.9891 28.3023 72.5902 28.0183 72.4905 27.6397C71.9919 26.0305 71.4934 24.4214 70.9948 22.7176C70.7954 21.8657 70.0974 21.6763 69.3994 21.771C68.6017 21.771 67.9037 21.8657 67.7043 22.8122C67.3055 24.516 66.8069 26.2198 66.2086 27.9237C66.1089 28.3023 65.7101 28.5863 65.4109 28.8702C65.1118 28.4916 64.8127 28.2076 64.6133 27.829C64.015 26.0305 63.5164 24.3267 62.9182 22.5282C62.7187 21.9603 61.3228 21.5817 60.6248 21.8657C59.7274 22.2443 60.2259 22.8122 60.4254 23.3802C61.5222 26.5985 62.5193 29.8168 63.5164 33.1298C63.8156 34.0763 64.3141 34.5496 65.3112 34.5496C66.3084 34.5496 67.0063 34.0763 67.2058 33.0351C67.5049 31.6153 68.0035 30.1008 68.4023 28.6809C68.502 28.3023 69.0006 28.0183 69.2997 27.6397C69.5988 27.9237 69.898 28.2076 70.0974 28.5863C70.596 30.1008 70.9948 31.7099 71.4934 33.2244C71.7925 34.0763 72.3908 34.455 73.2882 34.455ZM32.4063 28.2076C32.4063 29.8168 32.4063 31.426 32.4063 33.0351C32.4063 34.171 32.7055 34.5496 33.902 34.5496C34.8991 34.5496 35.8963 34.6443 36.8934 34.5496C39.8847 34.455 43.2749 33.1298 44.3718 29.9115C45.3689 27.0718 43.3746 22.9069 40.2836 22.3389C38.0899 21.9603 35.8963 21.9603 33.7026 21.771C32.9049 21.6763 32.5061 22.2443 32.5061 22.9069C32.4063 24.7053 32.4063 26.4092 32.4063 28.2076ZM46.366 28.5863C46.7648 29.5328 47.1637 30.4794 47.6622 31.3313C49.6565 34.5496 54.0438 35.6855 57.434 33.887C58.132 33.5084 58.6306 32.0886 58.2317 31.5206C57.6334 30.574 57.0352 31.3313 56.4369 31.5206C56.2375 31.6153 56.038 31.7099 55.7389 31.8046C54.1435 32.3725 51.7504 31.8046 50.7533 30.6687C49.5568 29.3435 49.3573 27.545 50.155 26.1252C51.3516 24.1374 54.2432 23.4748 56.5366 24.6107C56.9354 24.8 57.8329 24.9893 57.9326 24.8C58.2317 24.4214 58.3314 23.7588 58.132 23.2855C58.0323 22.9069 57.5337 22.3389 57.1349 22.2443C52.4484 20.2565 46.5654 22.8122 46.366 28.5863ZM91.9343 22.055C91.9343 22.1496 91.8346 22.2443 91.8346 22.4336C92.1337 22.6229 92.5326 22.8122 92.6323 23.0962C92.8317 23.8534 92.9314 24.7053 92.8317 25.4626C92.8317 25.6519 92.1337 25.9359 91.7349 25.9359C89.6409 25.8412 87.4473 26.8824 86.7493 28.5863C85.8519 30.574 86.4501 32.9405 88.245 34.0763C89.0427 34.5496 90.2392 34.8336 91.1366 34.6443C92.1337 34.3603 93.0311 34.0763 94.128 34.5496C94.3274 34.6443 94.5268 34.6443 94.7262 34.6443C95.0254 34.5496 95.4242 34.3603 95.6236 34.171C95.7233 34.0763 95.3245 33.6977 95.2248 33.4137C95.0254 32.9405 94.5268 32.3725 94.5268 31.8992C94.5268 28.9649 94.5268 26.0305 94.6265 23.0015C94.6265 22.1496 94.2277 21.8657 93.43 21.8657C92.9314 21.771 92.4329 21.9603 91.9343 22.055ZM131.62 34.3603C131.52 33.9817 131.62 33.6977 131.52 33.6031C130.124 32.0886 130.523 30.3847 130.722 28.6809C130.822 28.2076 131.42 27.545 131.919 27.2611C132.617 26.9771 133.514 26.8824 134.212 27.6397C135.01 28.4916 135.309 31.8992 134.711 33.1298C134.412 33.6031 134.112 34.0763 134.91 34.3603C135.508 34.5496 136.107 34.5496 136.705 34.5496C137.503 34.455 137.702 33.9817 137.104 33.5084C136.406 32.9405 136.406 32.3725 136.406 31.6153C136.505 30.4794 136.406 29.4382 136.306 28.3023C136.007 26.2198 133.913 25.2733 132.018 26.1252C131.52 26.4092 130.722 26.1252 130.024 26.1252C129.625 26.1252 129.127 26.1252 128.828 26.3145C128.628 26.4092 128.728 26.9771 128.828 27.3557C128.927 29.0595 129.127 30.7634 129.127 32.4672C129.127 32.7511 128.728 33.0351 128.529 33.3191C128.329 33.5084 128.13 33.7924 127.731 34.2657C129.127 34.3603 130.323 34.3603 131.62 34.3603ZM120.851 34.6443C123.742 34.6443 126.235 32.7511 126.135 30.2901C126.036 27.545 124.44 26.0305 121.549 25.7466C119.156 25.5573 116.862 27.7344 116.763 30.1008C116.763 32.5618 118.657 34.6443 120.851 34.6443ZM141.491 34.7389C141.491 34.7389 141.491 34.8336 141.591 34.8336C142.289 34.5496 143.086 34.455 143.585 34.0763C145.28 32.6565 145.779 32.0886 143.784 30.3847C143.286 29.9114 142.588 29.6275 141.89 29.2489C141.192 28.8702 140.594 28.3023 141.092 27.6397C141.391 27.2611 142.189 27.1664 142.887 26.8824C142.987 26.8824 143.186 26.9771 143.386 26.9771C143.784 26.8824 144.084 26.7878 144.482 26.5985C144.183 26.3145 143.984 25.8412 143.685 25.7466C142.388 25.2733 141.292 26.0305 140.295 26.6931C138.998 27.6397 138.998 28.7756 140.295 29.7221C141.092 30.3847 142.089 30.858 142.887 31.5206C143.784 32.2779 143.685 32.8458 142.588 33.2244C142.189 33.4137 141.69 33.2244 141.292 33.2244C140.693 33.2244 140.195 33.2244 139.597 33.2244C139.597 33.2244 139.397 33.7924 139.497 33.7924C139.995 34.0763 140.594 34.2657 141.092 34.5496C141.292 34.7389 141.391 34.7389 141.491 34.7389ZM104.797 28.9649C104.697 28.9649 104.697 29.0595 104.598 29.0595C104.598 29.8168 104.697 30.574 104.598 31.3313C104.398 33.5084 105.495 34.7389 107.788 34.6443C108.187 34.6443 108.586 34.2657 108.985 34.0763C108.686 33.887 108.287 33.5084 107.888 33.4137C106.791 33.2244 106.193 32.7511 106.193 31.6153C106.193 30.7634 106.193 29.9115 106.093 29.0595C105.994 27.6397 106.193 27.3557 107.689 27.1664C107.988 27.0718 108.287 26.7878 108.586 26.5985C108.287 26.4092 107.888 26.3145 107.589 26.1252C107.19 25.9359 106.592 25.8412 106.293 25.5573C105.695 24.9893 105.196 24.9893 104.697 25.4626C104.199 25.9359 103.301 26.3145 103.9 27.2611C104.299 27.829 104.498 28.3969 104.797 28.9649ZM135.409 44.7725C135.608 44.6779 135.708 44.4886 135.907 44.3939C135.508 43.826 135.309 43.0687 134.81 42.6901C134.013 41.9328 134.013 41.2702 134.611 40.513C135.209 39.8504 135.309 39.1878 134.81 38.5252C134.212 37.7679 132.517 37.2 131.42 37.5786C130.523 37.8626 130.423 38.5252 130.423 39.2824C130.423 40.4183 130.323 41.4595 130.423 42.5954C130.423 43.258 129.924 44.2992 130.922 44.3939C131.919 44.4886 131.42 43.3527 131.62 42.7847C131.719 42.5008 131.919 42.1221 132.218 42.0275C132.417 41.9328 132.916 42.2168 133.115 42.4061C133.514 42.7847 133.614 43.258 134.013 43.7313C134.412 44.0153 134.91 44.3939 135.409 44.7725ZM128.429 44.5832C128.628 44.5832 128.728 44.4886 128.927 44.4886C128.927 44.0153 128.927 43.542 128.828 43.1634C128.13 41.5542 127.432 39.945 126.634 38.4305C126.435 38.0519 126.036 37.6733 125.637 37.5786C125.437 37.5786 124.939 38.0519 124.739 38.4305C124.041 39.945 123.244 41.4595 122.646 42.974C122.446 43.4473 122.646 43.9206 122.546 44.3939C122.945 44.2046 123.443 44.0153 123.742 43.7313C124.939 42.4061 126.734 42.4061 127.731 43.9206C127.93 44.1099 128.229 44.3939 128.429 44.5832ZM144.981 42.2168C144.682 41.8382 144.183 41.2702 143.585 40.7023C143.086 40.3237 142.488 40.1344 141.99 39.7557C141.79 39.5664 141.591 38.9985 141.691 38.8092C141.89 38.6199 142.388 38.5252 142.787 38.4305C142.987 38.4305 143.186 38.7145 143.386 38.7145C143.685 38.7145 143.984 38.5252 144.383 38.5252C144.283 38.2412 144.084 37.9573 143.884 37.7679C143.685 37.5786 143.485 37.5786 143.186 37.484C142.089 37.0107 140.793 37.3893 140.195 38.4305C139.696 39.2824 140.095 40.229 141.092 40.7969C141.69 41.1756 142.388 41.4595 142.987 41.9328C143.286 42.1221 143.386 42.5954 143.386 42.974C143.286 43.1634 142.787 43.542 142.588 43.4473C141.99 43.3527 141.491 43.0687 140.893 42.8794C140.693 42.7847 140.394 42.7847 140.095 42.7847C140.095 43.0687 139.896 43.3527 139.995 43.542C140.295 44.2992 141.89 44.9618 142.887 44.7725C143.984 44.5832 144.981 43.542 144.981 42.2168ZM116.962 41.0809C116.962 41.8382 116.962 42.6901 116.962 43.4473C116.962 43.7313 117.361 44.1099 117.56 44.3939C117.76 44.1099 118.159 43.826 118.159 43.542C118.059 42.3115 118.657 41.7435 119.953 41.8382C121.05 41.9328 121.748 41.1756 121.848 40.3237C121.948 39.6611 121.648 38.9038 121.25 38.3359C120.352 37.2947 118.956 37.3893 117.76 37.6733C116.563 37.9573 116.962 39.1878 116.962 40.0397C116.962 40.3237 116.962 40.7023 116.962 41.0809ZM113.971 28.3023C113.871 28.3023 113.871 28.3023 113.971 28.3023C113.971 27.829 113.971 27.4504 113.871 26.9771C113.771 26.5985 113.572 26.2198 113.273 26.1252C112.973 26.0305 112.375 26.1252 112.176 26.3145C111.976 26.5038 111.976 26.9771 111.976 27.3557C112.076 29.0595 112.276 30.6687 112.375 32.3725C112.375 32.5618 112.176 32.7511 112.076 32.8458C111.877 33.2244 111.578 33.6031 111.378 33.9817C111.877 34.171 112.475 34.3603 112.973 34.3603C113.372 34.455 113.871 34.455 114.369 34.3603C115.067 34.2656 115.167 33.9817 114.768 33.4137C114.369 32.7511 114.07 32.0886 113.971 31.426C113.871 30.4794 113.971 29.4382 113.971 28.3023ZM97.6179 33.7924C97.6179 33.9817 97.7176 34.0763 97.7176 34.2657C98.7147 34.3603 99.7118 34.455 100.809 34.455C101.108 34.455 101.507 34.2657 101.606 33.9817C101.706 33.7924 101.407 33.5084 101.207 33.2244C101.008 32.8458 100.51 32.3725 100.51 31.9939C100.41 30.574 100.51 29.0595 100.51 27.6397C100.51 27.2611 100.51 26.7878 100.31 26.5038C100.111 26.2198 99.5124 26.0305 99.2133 26.1252C98.9141 26.2198 98.615 26.7878 98.615 27.0718C98.7147 28.3023 98.9141 29.4382 99.0138 30.6687C99.1135 31.8992 99.313 33.1298 97.6179 33.7924ZM82.2623 29.8168C82.5614 29.7221 82.8605 29.8168 83.1597 29.7221C84.5556 29.6275 84.8548 29.0595 84.4559 27.829C84.0571 26.7878 82.5614 25.6519 81.4646 25.7466C81.1654 25.7466 80.966 26.1252 80.6669 26.3145C80.8663 26.5038 81.0657 26.6931 81.3648 26.8824C81.664 27.0718 82.0628 26.9771 82.2623 27.1664C82.5614 27.3557 82.8605 27.7344 82.8605 28.0183C82.8605 28.2076 82.362 28.4916 82.0628 28.5863C81.5643 28.6809 81.0657 28.5863 80.5672 28.6809C80.3677 28.6809 80.1683 28.9649 79.9689 29.1542C80.1683 29.2489 80.268 29.5328 80.4674 29.5328C81.0657 29.6275 81.664 29.7221 82.2623 29.8168ZM81.1654 34.9282C82.0628 34.6443 82.7608 34.5496 83.3591 34.171C83.6582 33.9817 83.8576 33.5084 84.1568 33.2244C83.7579 33.2244 83.3591 33.1298 82.9602 33.2244C81.664 33.6031 80.1683 33.3191 79.57 32.5618C79.2709 32.2779 78.872 32.1832 78.4732 31.9939C78.4732 32.4672 78.2738 33.2244 78.4732 33.4137C79.2709 33.9817 80.268 34.455 81.1654 34.9282ZM138.4 41.1756C138.4 40.3237 138.5 39.4718 138.4 38.6198C138.4 38.3359 137.901 38.0519 137.602 37.7679C137.403 38.0519 137.104 38.4305 137.104 38.7145C137.004 39.3771 137.203 40.0397 137.203 40.7023C137.203 41.7435 137.203 42.7847 137.303 43.7313C137.303 43.9206 137.802 44.2046 138.001 44.3939C138.101 44.1099 138.4 43.9206 138.4 43.6366C138.4 42.7847 138.4 41.9328 138.4 41.1756ZM80.5672 23.4748C80.8663 23.9481 81.0657 24.2321 81.2651 24.4214C81.7637 23.8534 82.362 23.1908 82.7608 22.6229C82.8605 22.5282 82.4617 22.1496 82.2623 21.8657C81.7637 22.4336 81.2651 22.9069 80.5672 23.4748ZM113.073 21.487C112.674 21.9603 112.375 22.2443 112.375 22.5282C112.375 22.7176 112.874 23.1908 113.073 23.1908C113.372 23.1908 113.871 22.8122 113.871 22.5282C113.871 22.3389 113.372 21.9603 113.073 21.487ZM99.6121 23.5695C100.011 23.0962 100.41 22.8122 100.41 22.5282C100.41 22.2443 100.011 21.9603 99.6121 21.8657C99.5124 21.8657 99.0138 22.2443 99.0138 22.5282C99.0138 22.7176 99.313 23.0015 99.6121 23.5695Z" fill="#1A130D"/>
<path d="M73.288 34.4554C72.3906 34.4554 71.7923 34.0768 71.5929 33.2249C71.194 31.7104 70.6955 30.1012 70.1969 28.5867C70.0972 28.2081 69.6983 27.9241 69.3992 27.6401C69.1001 28.0188 68.7012 28.3027 68.5018 28.6814C68.0032 30.1012 67.6044 31.5211 67.3053 33.0356C67.1058 34.0768 66.5076 34.5501 65.4107 34.5501C64.4136 34.5501 63.9151 34.0768 63.6159 33.1302C62.6188 29.9119 61.522 26.6936 60.5249 23.3806C60.3254 22.8127 59.9266 22.2447 60.7243 21.8661C61.4223 21.5821 62.8182 21.9608 63.0177 22.5287C63.6159 24.2325 64.1145 26.031 64.7128 27.8295C64.8125 28.2081 65.2113 28.5867 65.5104 28.8707C65.8096 28.5867 66.1087 28.3027 66.3081 27.9241C66.8067 26.2203 67.3053 24.5165 67.8038 22.8127C68.0032 21.8661 68.8009 21.7714 69.4989 21.7714C70.1969 21.7714 70.8949 21.8661 71.0943 22.718C71.4932 24.3272 71.9917 26.031 72.59 27.6401C72.6897 28.0188 73.0885 28.3974 73.3877 28.6814C73.6868 28.3027 74.0857 28.0188 74.2851 27.6401C74.7836 26.031 75.2822 24.5165 75.7808 22.9073C76.0799 22.0554 76.9773 21.5821 77.8747 21.8661C78.9715 22.2447 78.5727 22.9073 78.3733 23.5699C77.2764 26.7882 76.2793 29.9119 75.1825 33.1302C74.7836 33.9821 74.2851 34.4554 73.288 34.4554Z" fill="#FFF3E0"/>
<path d="M32.4063 28.2075C32.4063 26.5037 32.4063 24.7052 32.4063 23.0014C32.4063 22.2441 32.8051 21.7709 33.6028 21.8655C35.7965 21.9602 38.0898 21.9602 40.1838 22.4335C43.2749 23.0014 45.2691 27.1663 44.272 30.006C43.2749 33.1296 39.8847 34.4548 36.8933 34.5495C35.8962 34.5495 34.8991 34.5495 33.9019 34.5495C32.7054 34.5495 32.3066 34.1709 32.4063 33.035C32.4063 31.4258 32.4063 29.8167 32.4063 28.2075ZM35.1982 27.8289C35.1982 28.7754 35.0985 29.6273 35.2979 30.5739C35.3976 31.0472 35.6968 31.7098 36.0956 31.8044C37.5913 32.1831 39.087 31.8044 40.2835 30.8579C41.3803 29.8167 42.0783 28.6808 41.5798 27.1663C40.8818 25.0838 38.389 23.7586 36.1953 24.4212C35.7965 24.5159 35.4973 25.1785 35.3976 25.6518C35.0985 26.3144 35.1982 27.0716 35.1982 27.8289Z" fill="#FFF3E0"/>
<path d="M46.3662 28.5864C46.5656 22.8124 52.4486 20.2567 57.2348 22.1498C57.6336 22.3391 58.1322 22.8124 58.2319 23.191C58.3316 23.6643 58.2319 24.3269 58.0325 24.7055C57.9328 24.8948 57.0354 24.7055 56.6365 24.5162C54.2434 23.3803 51.3518 24.0429 50.255 26.0307C49.4573 27.4506 49.6567 29.249 50.8532 30.5742C51.8504 31.7101 54.3432 32.278 55.8388 31.7101C56.0383 31.6154 56.3374 31.5208 56.5368 31.4261C57.1351 31.1422 57.7334 30.4796 58.3316 31.4261C58.7305 31.9941 58.2319 33.4139 57.5339 33.7926C54.1437 35.591 49.7564 34.4551 47.7622 31.2368C47.1639 30.4796 46.7651 29.4384 46.3662 28.5864Z" fill="#FFF3E0"/>
<path d="M91.9342 22.0545C92.4328 21.9598 92.9313 21.7705 93.4299 21.7705C94.1279 21.7705 94.6264 22.0545 94.6264 22.9064C94.5267 25.8407 94.5267 28.7751 94.5267 31.8041C94.5267 32.2774 94.9256 32.8453 95.2247 33.3186C95.3244 33.6026 95.7233 33.9812 95.6236 34.0759C95.4241 34.2652 95.0253 34.4545 94.7262 34.5491C94.5267 34.6438 94.3273 34.5491 94.1279 34.4545C93.1308 33.9812 92.2334 34.2652 91.1365 34.5491C90.2391 34.7384 89.0426 34.4545 88.2449 33.9812C86.4501 32.8453 85.8518 30.4789 86.7492 28.4911C87.4472 26.882 89.6409 25.7461 91.7348 25.8407C92.1336 25.8407 92.8316 25.5568 92.8316 25.3675C92.8316 24.6102 92.7319 23.7583 92.6322 23.001C92.5325 22.7171 92.1336 22.5278 91.8345 22.3384C91.8345 22.2438 91.9342 22.1491 91.9342 22.0545ZM93.0311 29.8163C93.0311 29.627 93.0311 29.343 92.9313 29.1537C92.7319 28.5858 92.7319 27.7339 92.3331 27.3552C91.6351 26.7873 90.638 26.882 89.7406 27.3552C88.2449 28.2071 87.5469 30.1003 88.2449 31.8041C88.6437 32.94 89.7406 33.4133 91.0368 33.3186C92.3331 33.2239 92.9313 32.5613 92.9313 31.3308C93.0311 30.7629 93.0311 30.2896 93.0311 29.8163Z" fill="#FFF3E0"/>
<path d="M131.619 34.3607C130.323 34.3607 129.126 34.3607 127.73 34.3607C128.129 33.8875 128.329 33.6035 128.528 33.4142C128.728 33.1302 129.126 32.8462 129.126 32.5623C129.027 30.8585 128.927 29.1546 128.827 27.4508C128.827 27.0722 128.628 26.5043 128.827 26.4096C129.126 26.2203 129.625 26.2203 130.024 26.2203C130.722 26.2203 131.42 26.4096 132.018 26.2203C133.913 25.3684 136.106 26.3149 136.306 28.3974C136.405 29.4386 136.505 30.5745 136.405 31.7104C136.405 32.4676 136.405 33.0356 137.103 33.6035C137.702 34.0768 137.502 34.5501 136.705 34.6447C136.106 34.6447 135.408 34.6447 134.91 34.4554C134.112 34.2661 134.411 33.6982 134.71 33.2249C135.408 32.089 135.009 28.5867 134.212 27.7348C133.514 26.9775 132.716 26.9775 131.918 27.3562C131.42 27.6401 130.722 28.2081 130.722 28.776C130.522 30.4798 130.024 32.1836 131.52 33.6982C131.619 33.6982 131.619 33.9821 131.619 34.3607Z" fill="#FFF3E0"/>
<path d="M120.851 34.6446C118.558 34.6446 116.763 32.5621 116.763 30.1011C116.862 27.7346 119.156 25.5575 121.549 25.7469C124.441 26.0308 126.036 27.5453 126.136 30.2904C126.235 32.7514 123.842 34.7392 120.851 34.6446ZM124.441 30.1957C124.441 28.3972 123.045 26.9774 121.25 26.9774C119.854 26.9774 118.458 28.6812 118.458 30.2904C118.458 31.8995 119.854 33.5087 121.25 33.5087C123.244 33.5087 124.441 32.2782 124.441 30.1957Z" fill="#FFF3E0"/>
<path d="M141.491 34.739C141.391 34.739 141.192 34.739 141.092 34.739C140.594 34.5496 139.995 34.2657 139.497 33.9817C139.397 33.9817 139.497 33.4138 139.596 33.4138C140.195 33.4138 140.693 33.4138 141.292 33.4138C141.69 33.4138 142.189 33.6031 142.588 33.4138C143.685 33.0351 143.784 32.3725 142.887 31.7099C142.089 31.0474 141.092 30.5741 140.294 29.9115C138.998 28.9649 138.998 27.829 140.294 26.8825C141.292 26.2199 142.388 25.4626 143.685 25.9359C143.984 26.0306 144.283 26.5038 144.482 26.7878C144.084 26.8825 143.784 27.0718 143.386 27.1664C143.286 27.1664 143.086 27.0718 142.887 27.0718C142.289 27.2611 141.391 27.3557 141.092 27.829C140.594 28.4916 141.192 29.0596 141.89 29.4382C142.488 29.8168 143.186 30.1008 143.784 30.5741C145.679 32.2779 145.28 32.8458 143.585 34.2657C143.086 34.6443 142.189 34.739 141.591 35.0229C141.591 34.8336 141.491 34.739 141.491 34.739Z" fill="#FFF3E0"/>
<path d="M104.797 28.9654C104.498 28.3974 104.298 27.8295 103.999 27.2616C103.401 26.315 104.298 25.9364 104.797 25.4631C105.296 24.9898 105.794 24.9898 106.392 25.5577C106.692 25.8417 107.29 25.9364 107.689 26.1257C107.988 26.315 108.387 26.4096 108.686 26.599C108.387 26.7883 108.088 27.0722 107.788 27.1669C106.293 27.3562 106.093 27.6402 106.193 29.06C106.293 29.9119 106.293 30.7638 106.293 31.6158C106.293 32.7516 106.891 33.2249 107.988 33.4142C108.387 33.5089 108.686 33.7928 109.085 34.0768C108.686 34.2661 108.287 34.6448 107.888 34.6448C105.595 34.7394 104.498 33.5089 104.697 31.3318C104.797 30.5745 104.697 29.8173 104.697 29.06C104.697 29.06 104.697 28.9654 104.797 28.9654Z" fill="#FFF3E0"/>
<path d="M135.408 44.7722C134.91 44.3935 134.411 43.9203 133.913 43.5416C133.514 43.163 133.414 42.5951 133.015 42.2164C132.816 42.0271 132.317 41.7432 132.118 41.8378C131.819 41.9325 131.619 42.3111 131.52 42.5951C131.42 43.163 131.819 44.2989 130.822 44.2042C129.725 44.1096 130.323 43.0684 130.323 42.4058C130.223 41.2699 130.323 40.2287 130.323 39.0928C130.323 38.3355 130.423 37.6729 131.32 37.389C132.417 37.105 134.112 37.5783 134.71 38.3355C135.209 38.9981 135.209 39.6607 134.511 40.3233C133.813 41.0806 133.813 41.7432 134.71 42.5004C135.209 42.9737 135.408 43.6363 135.807 44.2042C135.707 44.4882 135.608 44.6775 135.408 44.7722ZM132.517 40.8913C133.015 40.2287 133.614 39.85 133.614 39.4714C133.614 39.0928 133.015 38.8088 132.616 38.4302C132.218 38.8088 131.719 39.0928 131.619 39.5661C131.619 39.85 132.118 40.2287 132.517 40.8913Z" fill="#FFF3E0"/>
<path d="M128.428 44.5836C128.229 44.2996 127.93 44.1103 127.73 43.8264C126.634 42.3119 124.939 42.3119 123.742 43.637C123.443 43.921 122.944 44.1103 122.545 44.2996C122.545 43.8264 122.446 43.2584 122.645 42.8798C123.243 41.3653 124.041 39.8508 124.739 38.3363C124.939 37.9577 125.337 37.4844 125.637 37.4844C126.035 37.579 126.534 37.9577 126.634 38.3363C127.431 39.8508 128.129 41.4599 128.827 43.0691C129.027 43.4477 128.927 44.0157 128.927 44.3943C128.728 44.5836 128.628 44.5836 128.428 44.5836ZM125.637 39.4722C125.138 40.2294 124.34 40.7974 125.138 41.6493C125.337 41.8386 126.235 41.8386 126.434 41.6493C126.933 40.7027 126.434 40.1348 125.637 39.4722Z" fill="#FFF3E0"/>
<path d="M144.981 42.217C144.981 43.5422 143.984 44.5834 142.987 44.7727C141.99 44.962 140.394 44.3941 140.095 43.5422C139.995 43.3529 140.095 43.0689 140.195 42.7849C140.494 42.7849 140.793 42.7849 140.992 42.8796C141.591 43.0689 142.089 43.3529 142.688 43.4475C142.987 43.4475 143.485 43.1636 143.485 42.9743C143.585 42.6903 143.386 42.1223 143.086 41.933C142.488 41.4597 141.79 41.1758 141.192 40.7971C140.195 40.1346 139.796 39.188 140.294 38.4307C140.893 37.3895 142.189 36.9162 143.286 37.4842C143.485 37.5788 143.784 37.6735 143.984 37.7681C144.183 37.9575 144.283 38.2414 144.482 38.5254C144.183 38.6201 143.884 38.7147 143.485 38.7147C143.286 38.7147 143.086 38.4307 142.887 38.4307C142.488 38.4307 141.99 38.5254 141.79 38.8094C141.69 38.9987 141.79 39.5666 142.089 39.7559C142.588 40.1346 143.186 40.3239 143.685 40.7025C144.183 41.2704 144.682 41.933 144.981 42.217Z" fill="#FFF3E0"/>
<path d="M116.962 41.0808C116.962 40.7022 116.962 40.3235 116.962 39.9449C117.062 39.093 116.663 37.8625 117.76 37.5785C118.956 37.2945 120.352 37.2945 121.25 38.2411C121.648 38.7144 121.947 39.5663 121.848 40.2289C121.748 41.0808 120.95 41.838 119.953 41.7434C118.557 41.6487 118.059 42.2167 118.158 43.4472C118.158 43.7312 117.76 44.0151 117.56 44.2991C117.361 44.0151 117.062 43.7312 116.962 43.3526C116.962 42.69 116.962 41.8381 116.962 41.0808ZM119.056 40.9861C119.255 40.9861 119.455 40.9861 119.554 40.9861C119.854 40.6075 120.651 40.0396 120.552 39.7556C120.352 39.2823 119.654 38.9037 119.255 38.4304C118.856 38.809 118.258 39.1877 118.258 39.4716C118.258 40.0396 118.757 40.5129 119.056 40.9861Z" fill="#FFF3E0"/>
<path d="M113.97 28.3024C113.97 29.3436 113.871 30.3848 113.97 31.4261C114.07 32.0887 114.369 32.7512 114.768 33.4138C115.067 33.9818 114.968 34.3604 114.369 34.3604C113.97 34.4551 113.472 34.4551 112.973 34.3604C112.475 34.2657 111.876 34.0764 111.378 33.9818C111.577 33.6032 111.876 33.2245 112.076 32.8459C112.176 32.6566 112.375 32.4673 112.375 32.3726C112.275 30.6688 112.076 29.0596 111.976 27.3558C111.976 26.9772 111.976 26.5039 112.176 26.3146C112.375 26.1253 112.973 25.936 113.272 26.1253C113.572 26.2199 113.771 26.6932 113.871 26.9772C113.97 27.4505 113.871 27.9238 113.97 28.3024C113.871 28.3024 113.871 28.3024 113.97 28.3024Z" fill="#FFF3E0"/>
<path d="M97.6182 33.7924C99.3133 33.1298 99.0141 31.8993 98.9144 30.6688C98.8147 29.4382 98.6153 28.3023 98.5156 27.0718C98.5156 26.7878 98.8147 26.2199 99.1138 26.1252C99.413 26.0306 100.011 26.3146 100.211 26.5039C100.41 26.7878 100.41 27.2611 100.41 27.6398C100.41 29.0596 100.31 30.5741 100.41 31.9939C100.41 32.3726 100.809 32.8459 101.108 33.2245C101.208 33.5085 101.607 33.7924 101.507 33.9817C101.407 34.171 101.008 34.455 100.709 34.455C99.7121 34.455 98.6153 34.3604 97.6182 34.2657C97.7179 34.0764 97.7179 33.9817 97.6182 33.7924Z" fill="#FFF3E0"/>
<path d="M82.2621 29.8165C81.6639 29.7218 81.0656 29.7218 80.4673 29.5325C80.2679 29.5325 80.0685 29.2485 79.9688 29.1539C80.1682 28.9645 80.3676 28.6806 80.567 28.6806C81.0656 28.5859 81.5641 28.6806 82.0627 28.5859C82.3618 28.4913 82.8604 28.2073 82.8604 28.018C82.8604 27.734 82.5613 27.3554 82.2621 27.1661C82.0627 26.9768 81.6639 26.9768 81.3647 26.8821C81.0656 26.7874 80.8662 26.5035 80.6667 26.3142C80.9659 26.1249 81.1653 25.7462 81.4644 25.7462C82.5613 25.6516 84.1566 26.6928 84.4558 27.8287C84.8546 29.0592 84.5555 29.6271 83.1595 29.7218C82.8604 29.7218 82.5613 29.7218 82.2621 29.8165Z" fill="#FFF3E0"/>
<path d="M81.165 34.9285C80.3673 34.4552 79.2705 34.0766 78.4728 33.414C78.1737 33.2247 78.4728 32.4674 78.4728 31.9941C78.8716 32.1835 79.3702 32.2781 79.5696 32.5621C80.2676 33.3193 81.6636 33.6033 82.9598 33.2247C83.3587 33.13 83.7575 33.2247 84.1564 33.2247C83.8572 33.6033 83.7575 34.0766 83.3587 34.1712C82.7604 34.4552 82.0624 34.6445 81.165 34.9285Z" fill="#FFF3E0"/>
<path d="M138.4 41.1752C138.4 42.0271 138.4 42.7844 138.4 43.6363C138.4 43.9202 138.101 44.1096 138.001 44.3935C137.702 44.2042 137.303 44.0149 137.303 43.7309C137.203 42.6897 137.303 41.6485 137.203 40.7019C137.203 40.0393 137.104 39.3767 137.104 38.7141C137.104 38.4302 137.403 38.0515 137.602 37.7676C137.901 38.0515 138.4 38.2409 138.4 38.6195C138.499 39.3767 138.4 40.2286 138.4 41.1752Z" fill="#FFF3E0"/>
<path d="M80.5674 23.4744C81.1657 22.9065 81.7639 22.4332 82.2625 21.8652C82.4619 22.1492 82.8608 22.5278 82.761 22.6225C82.3622 23.2851 81.7639 23.853 81.2654 24.421C81.1657 24.2316 80.9662 23.9477 80.5674 23.4744Z" fill="#FFF3E0"/>
<path d="M113.073 21.4873C113.472 21.9606 113.871 22.2446 113.771 22.5285C113.671 22.8125 113.273 23.0965 112.973 23.1911C112.774 23.1911 112.275 22.8125 112.275 22.5285C112.375 22.2446 112.674 21.9606 113.073 21.4873Z" fill="#FFF3E0"/>
<path d="M99.6119 23.569C99.3128 23.001 99.0137 22.7171 99.0137 22.4331C99.0137 22.2438 99.5122 21.7705 99.6119 21.7705C99.9111 21.8652 100.31 22.1491 100.41 22.4331C100.41 22.7171 100.011 23.001 99.6119 23.569Z" fill="#FFF3E0"/>
<path d="M35.1983 27.8294C35.1983 27.0721 35.0986 26.3149 35.1983 25.5576C35.2981 25.0844 35.5972 24.4218 35.996 24.3271C38.09 23.6645 40.6825 24.9897 41.3805 27.0721C41.879 28.5867 41.2808 29.7225 40.0842 30.7638C38.8877 31.805 37.4917 32.0889 35.8963 31.7103C35.5972 31.6157 35.1983 30.9531 35.0986 30.4798C35.0986 29.6279 35.1983 28.6813 35.1983 27.8294Z" fill="#1A130D"/>
<path d="M93.0311 29.8167C93.0311 30.29 93.0311 30.8579 93.0311 31.3312C93.1308 32.5617 92.5325 33.2243 91.1366 33.319C89.8403 33.4136 88.7435 32.9404 88.3446 31.8045C87.6467 30.1007 88.2449 28.3022 89.8403 27.3556C90.7377 26.8823 91.6351 26.693 92.4328 27.3556C92.8317 27.7343 92.8317 28.4915 93.0311 29.1541C93.0311 29.3434 93.0311 29.5327 93.0311 29.8167Z" fill="#1A130D"/>
<path d="M124.441 30.1959C124.441 32.2783 123.244 33.5088 121.25 33.5088C119.854 33.5088 118.458 31.8997 118.458 30.2905C118.458 28.6814 119.854 26.9775 121.25 26.9775C123.045 26.9775 124.441 28.3027 124.441 30.1959Z" fill="#1A130D"/>
<path d="M132.517 40.8917C132.118 40.2291 131.52 39.8505 131.619 39.5665C131.819 39.0933 132.317 38.8093 132.617 38.4307C132.916 38.8093 133.614 39.0933 133.614 39.4719C133.614 39.8505 133.115 40.2291 132.517 40.8917Z" fill="#1A130D"/>
<path d="M125.637 39.4717C126.435 40.1343 126.933 40.7969 126.335 41.5541C126.235 41.7434 125.238 41.8381 125.039 41.5541C124.341 40.7969 125.039 40.2289 125.637 39.4717Z" fill="#1A130D"/>
<path d="M119.056 40.9865C118.756 40.5132 118.258 40.0399 118.258 39.5666C118.258 39.188 118.856 38.8094 119.255 38.5254C119.753 38.9987 120.352 39.2826 120.551 39.8506C120.651 40.1345 119.953 40.6078 119.554 41.0811C119.355 40.9865 119.255 40.9865 119.056 40.9865Z" fill="#1A130D"/>
</g>
<defs>
<clipPath id="clip0_608_4198">
<rect width="173" height="62" fill="white"/>
</clipPath>
</defs>
</svg>
