<svg width="64" height="62" viewBox="0 0 64 62" fill="none" xmlns="http://www.w3.org/2000/svg">
<g clip-path="url(#clip0_608_4269)">
<path d="M0 62C0 41.3075 0 20.6925 0 0C21.359 0 42.641 0 64 0C64 20.6925 64 41.3075 64 62C42.641 62 21.359 62 0 62ZM10.3325 30.07C10.8723 42.47 20.3566 51.5375 32.5398 51.2275C44.3373 50.9175 53.5904 40.92 53.2048 29.14C52.8193 17.36 42.8723 8.1375 31.0747 8.525C18.5831 8.835 10.1012 19.7625 10.3325 30.07Z" fill="#1A130D"/>
<path d="M10.3327 30.0702C10.1014 19.7627 18.5833 8.83523 31.0749 8.52523C42.8725 8.21523 52.8195 17.3602 53.205 29.1402C53.6677 40.9202 44.4147 50.8402 32.6171 51.1502C20.3568 51.5377 10.8725 42.4702 10.3327 30.0702ZM32.2315 40.3002C33.3111 40.2227 34.3906 39.9127 34.9303 38.9052C35.4701 37.8977 35.4701 36.8902 34.6219 35.9602C34.3906 35.7277 34.5448 35.1077 34.6219 34.7202C34.699 34.1777 35.0074 33.5577 34.9303 33.0927C34.7761 32.2402 33.2339 31.3877 32.3086 31.4652C31.3062 31.5427 29.8412 32.5502 29.687 33.3252C29.6098 33.6352 29.8412 34.0227 29.9954 34.1777C30.0725 34.2552 30.6123 34.1002 30.7665 33.9452C30.9978 33.7127 31.0749 33.2477 31.3833 33.0927C31.7689 32.8602 32.3086 32.6277 32.7713 32.7827C33.0797 32.8602 33.5424 33.4027 33.5424 33.7127C33.5424 34.1002 33.0797 34.5652 32.7713 34.8752C32.54 35.1852 32.2315 35.3402 31.9231 35.5727C32.2315 35.8052 32.54 36.0377 32.8484 36.2702C33.2339 36.6577 33.8508 36.9677 33.9279 37.4327C34.005 37.8202 33.5424 38.5177 33.1568 38.6727C32.6942 38.9052 32.0773 38.9052 31.5376 38.6727C31.152 38.5177 30.9978 37.8977 30.6123 37.5877C30.3809 37.3552 29.9954 37.3552 29.6098 37.2777C29.5327 37.5877 29.3785 37.9752 29.4556 38.2077C29.9954 39.5252 30.8436 40.3002 32.2315 40.3002ZM20.1255 34.2552C19.6629 33.6352 19.6629 33.6352 18.5062 33.9452C16.9641 34.4102 16.3472 35.5727 16.5014 37.6652C16.6556 39.0602 17.658 40.1452 19.046 40.1452C20.0484 40.1452 20.9737 39.7577 21.9761 39.4477C22.1303 39.4477 22.2074 39.0602 22.2074 38.9052C22.2074 36.8902 22.2074 34.9527 22.2074 32.9377C22.2074 32.5502 21.9761 32.2402 21.899 31.9302C21.7448 31.9302 21.5906 32.0077 21.4364 32.0077C21.4364 32.3177 21.4364 32.7052 21.4364 33.0152C21.4364 33.3252 21.5135 33.7902 21.3592 33.9452C20.4339 34.7202 20.8966 35.4952 21.2821 36.2702C21.6677 36.9677 20.9737 38.9827 20.3568 39.3702C19.2773 39.9902 17.658 39.2152 17.2725 37.8977C16.8099 36.3477 17.5038 34.3327 20.1255 34.2552ZM23.7496 39.7577C23.9038 39.7577 24.058 39.7577 24.2123 39.7577C24.2894 39.3702 24.2123 38.9052 24.3665 38.5952C24.5978 38.0527 24.9833 37.6652 25.2918 37.2002C25.6773 37.4327 26.0629 37.6652 26.2942 37.9752C26.6797 38.4402 26.9882 38.9827 27.3737 39.4477C27.5279 39.6802 27.9135 39.6802 28.1448 39.8352C28.1448 39.5252 28.2219 39.1377 28.0677 38.9052C27.6821 38.2852 27.2195 37.6652 26.7568 37.1227C26.2942 36.5802 26.3713 36.1152 26.8339 35.6502C27.0653 35.4177 27.2966 35.3402 27.5279 35.1077C27.6821 34.8752 27.7592 34.5652 27.8364 34.3327C27.5279 34.4102 27.2195 34.4102 26.9882 34.5652C26.3713 35.0302 25.8315 35.5727 25.2147 36.0377C24.9833 36.1927 24.5978 36.1927 24.2894 36.2702C24.2123 35.9602 24.1352 35.6502 24.2123 35.3402C24.2123 34.4102 24.2894 33.4802 24.2894 32.5502C24.2894 32.3177 23.9809 32.1627 23.8267 32.0077C23.7496 32.2402 23.5183 32.3952 23.5183 32.6277C23.5183 34.6427 23.5183 36.7352 23.5183 38.7502C23.5954 38.9827 23.7496 39.3702 23.7496 39.7577Z" fill="#FFF3E0"/>
<path d="M32.2315 40.3001C30.8435 40.3001 29.9953 39.5251 29.4556 38.3626C29.3785 38.1301 29.5327 37.7426 29.6098 37.4326C29.9182 37.5101 30.3809 37.5101 30.6122 37.7426C30.9978 38.0526 31.152 38.6726 31.5375 38.8276C32.0002 38.9826 32.6941 38.9826 33.1568 38.8276C33.5423 38.5951 34.005 37.9751 33.9279 37.5876C33.8508 37.1226 33.2339 36.8126 32.8484 36.4251C32.5399 36.1926 32.2315 35.9601 31.9231 35.7276C32.2315 35.4951 32.5399 35.2626 32.7712 35.0301C33.0797 34.6426 33.4652 34.2551 33.5423 33.8676C33.5423 33.5576 33.0797 33.0151 32.7712 32.9376C32.3857 32.8601 31.8459 33.0151 31.3833 33.2476C31.152 33.4026 31.0749 33.8676 30.7664 34.1001C30.5351 34.2551 30.0725 34.4101 29.9953 34.3326C29.764 34.1001 29.6098 33.7126 29.6869 33.4801C29.8411 32.6276 31.3062 31.6201 32.3086 31.6201C33.2339 31.5426 34.699 32.3951 34.9303 33.2476C35.0074 33.7126 34.699 34.3326 34.6219 34.8751C34.5447 35.2626 34.3905 35.8826 34.6219 36.1151C35.47 37.0451 35.47 38.0526 34.9303 39.0602C34.3905 39.9127 33.311 40.2226 32.2315 40.3001Z" fill="#1A130D"/>
<path d="M20.1256 34.2547C17.5039 34.3322 16.81 36.3472 17.2726 37.8972C17.6582 39.2147 19.2774 40.0672 20.357 39.3697C20.9738 38.9822 21.6678 36.9672 21.2823 36.2697C20.8967 35.4947 20.4341 34.7197 21.3594 33.9447C21.5136 33.7897 21.4365 33.3247 21.4365 33.0147C21.4365 32.7047 21.4365 32.3172 21.4365 32.0072C21.5907 32.0072 21.7449 31.9297 21.8991 31.9297C22.0533 32.2397 22.2076 32.6272 22.2076 32.9372C22.2076 34.9522 22.2076 36.8897 22.2076 38.9047C22.2076 39.0597 22.0533 39.4472 21.9762 39.4472C21.0509 39.6797 20.0485 40.0672 19.0461 40.1447C17.6582 40.2222 16.5786 39.0597 16.5015 37.6647C16.2702 35.5722 16.9642 34.3322 18.5064 33.9447C19.663 33.6347 19.663 33.6347 20.1256 34.2547Z" fill="#1A130D"/>
<path d="M23.749 39.7572C23.6719 39.3697 23.5948 39.0597 23.5948 38.6722C23.5948 36.6572 23.5177 34.5647 23.5948 32.5497C23.5948 32.3172 23.8261 32.1622 23.9033 31.9297C24.0575 32.0847 24.3659 32.3172 24.3659 32.4722C24.3659 33.4022 24.2888 34.3322 24.2888 35.2622C24.2888 35.5722 24.3659 35.8822 24.3659 36.1922C24.6743 36.1147 25.0599 36.1147 25.2912 35.9597C25.9081 35.4947 26.4478 34.9522 27.0647 34.4872C27.296 34.3322 27.6045 34.3322 27.9129 34.2547C27.8358 34.4872 27.7587 34.7972 27.6045 35.0297C27.4502 35.2622 27.1418 35.3397 26.9105 35.5722C26.4478 36.0372 26.2936 36.5022 26.8334 37.0447C27.296 37.5872 27.7587 38.2072 28.1442 38.8272C28.2984 39.0597 28.2213 39.4472 28.2213 39.7572C27.99 39.6022 27.6045 39.6022 27.4502 39.3697C27.0647 38.9047 26.7563 38.3622 26.3707 37.8972C26.0623 37.5872 25.6767 37.3547 25.3683 37.1222C25.0599 37.5872 24.6743 38.0522 24.443 38.5172C24.2888 38.8272 24.3659 39.2922 24.2888 39.6797C24.0575 39.7572 23.9033 39.7572 23.749 39.7572Z" fill="#1A130D"/>
</g>
<defs>
<clipPath id="clip0_608_4269">
<rect width="64" height="62" fill="white"/>
</clipPath>
</defs>
</svg>
