<svg width="165" height="62" viewBox="0 0 165 62" fill="none" xmlns="http://www.w3.org/2000/svg">
<path d="M-4 62.7988C-4 41.2059 -4 19.5929 -4 -2C53.7843 -2 111.549 -2 169.333 -2C169.333 19.5929 169.333 41.1656 169.333 62.7988C111.469 62.7988 53.7443 62.7988 -4 62.7988ZM108.711 37.6238C111.189 31.4257 113.607 25.4087 116.024 19.3916C116.144 19.4118 116.264 19.4319 116.384 19.4721C116.444 19.7337 116.544 19.9954 116.584 20.257C117.083 24.6641 117.583 29.0712 118.042 33.4783C118.162 34.6053 118.302 35.7322 117.583 36.7786C117.243 37.2817 117.643 37.5031 118.102 37.5031C119.341 37.5232 120.56 37.5232 121.799 37.5232C122.338 37.5232 122.498 37.2415 122.278 36.7585C122.098 36.3359 121.779 35.9536 121.699 35.531C121.419 34.1022 121.119 32.6532 120.98 31.2043C120.46 25.952 119.201 20.7601 119.461 15.2461C118.422 15.2461 117.163 15.2663 115.924 15.2461C115.245 15.226 114.865 15.5279 114.626 16.1718C112.767 21.0015 110.889 25.8313 109.011 30.661C108.931 30.8824 108.731 31.0433 108.572 31.2446C108.392 31.0433 108.112 30.8824 108.012 30.661C107.093 28.3669 106.214 26.0526 105.295 23.7585C104.296 21.243 103.317 18.7276 102.258 16.2523C102.078 15.8498 101.578 15.3669 101.179 15.3266C99.9598 15.2059 98.721 15.2461 97.4822 15.3065C97.3223 15.3065 96.9827 15.8901 97.0626 15.9907C97.722 16.9768 97.4222 18.0232 97.2824 19.0294C96.643 23.517 95.9836 28.0046 95.3243 32.4721C95.1045 33.9412 94.9247 35.4505 93.9256 36.678C93.566 37.1207 93.7258 37.5031 94.3252 37.5232C95.4242 37.5635 96.5231 37.5433 97.6221 37.5232C98.1615 37.5232 98.3813 37.161 98.0217 36.7585C97.2624 35.9133 97.3823 34.9675 97.5221 33.9814C98.1815 29.3731 98.8609 24.7446 99.5402 20.1362C99.5802 19.8947 99.7001 19.6935 99.8599 19.2105C100.12 19.6734 100.26 19.9149 100.359 20.1563C102.218 24.7446 104.056 29.3328 105.934 33.9009C106.533 35.2492 107.213 36.5975 108.711 37.6238ZM139.622 37.9861C143.977 37.8251 146.974 36.356 149.392 33.5387C152.749 29.6347 152.969 22.9737 149.632 19.0697C146.315 15.2059 142.039 13.9985 137.164 15.1053C132.568 16.1316 129.491 19.0495 128.392 23.5774C126.434 31.6471 132.149 38.1269 139.622 37.9861ZM54.4037 15.3065C54.4836 15.6687 54.5436 15.8901 54.5835 16.0913C54.8033 17.0975 55.2229 18.0836 55.2429 19.0898C55.3028 23.9195 55.2829 28.7492 55.2029 33.5789C55.183 34.6254 54.8233 35.6718 54.5236 36.678C54.3837 37.2012 54.4237 37.4427 54.9632 37.4427C56.222 37.4628 57.5007 37.483 58.7595 37.483C59.319 37.483 59.4788 37.2415 59.259 36.6579C58.9593 35.8731 58.6396 35.048 58.5997 34.243C58.4998 31.9892 58.5597 29.7353 58.5597 27.5015C58.5597 26.8375 58.9194 26.6362 59.5587 26.6362C62.7956 26.6563 66.0525 26.6765 69.2894 26.6161C70.1885 26.596 70.5282 26.8978 70.5082 27.7833C70.4682 29.7755 70.5881 31.7678 70.4682 33.7601C70.4083 34.7663 70.0686 35.7724 69.7489 36.7384C69.5691 37.3019 69.7889 37.5031 70.2285 37.5232C71.4872 37.5433 72.746 37.5232 74.0248 37.483C74.5443 37.4628 74.7441 37.2616 74.5243 36.6579C74.2046 35.7523 73.9249 34.7864 73.9049 33.8406C73.845 29.4334 73.865 25.0263 73.865 20.6393C73.865 18.9489 73.6851 17.2384 74.6242 15.6889C74.6642 15.6285 74.6042 15.5077 74.5643 15.226C73.0857 15.226 71.6071 15.2059 70.1286 15.226C69.5891 15.2461 69.6091 15.5882 69.7889 15.9907C69.9887 16.4334 70.2484 16.8963 70.2884 17.3591C70.3883 19.3313 70.4482 21.3235 70.4482 23.3158C70.4482 23.5774 69.9687 24.0805 69.709 24.0805C66.2723 24.1207 62.8356 24.1207 59.3989 24.0402C59.0992 24.0402 58.5797 23.5371 58.5797 23.2554C58.5597 21.3638 58.5797 19.4721 58.7196 17.6006C58.7795 16.856 59.1591 16.1517 59.4189 15.3065C57.7405 15.3065 56.142 15.3065 54.4037 15.3065ZM19.5973 37.5031V37.483C21.4555 37.483 23.2937 37.5232 25.1519 37.4427C25.5715 37.4226 26.1509 37.1006 26.3507 36.7384C26.7703 36.0139 26.9901 35.1687 27.2299 34.3638C27.2898 34.1625 27.2299 33.8607 27.11 33.6796C27.0701 33.5991 26.6904 33.6796 26.5106 33.7601C23.9331 35.2693 21.1757 35.1889 18.3984 34.6858C18.0987 34.6254 17.6591 34.1022 17.6391 33.7802C17.5592 31.6873 17.5592 29.6145 17.6192 27.5217C17.6192 27.2198 18.0388 26.6563 18.2585 26.6563C19.4774 26.6563 20.7162 26.6966 21.915 26.8777C22.6143 26.9783 22.8941 26.8375 22.8941 26.1331C22.8941 25.8715 22.8741 25.6099 22.8941 25.3483C22.974 24.5433 22.6543 24.2214 21.8351 24.2616C20.7362 24.322 19.6372 24.2616 18.5183 24.2616C17.8589 24.2616 17.5592 23.9598 17.5592 23.3158C17.5592 21.7461 17.5392 20.1765 17.6192 18.6269C17.6391 18.305 18.0787 17.822 18.3984 17.7415C19.9569 17.3591 21.5354 17.339 23.1139 17.7616C23.6334 17.9025 24.1529 17.9628 24.6923 18.0635C24.7323 17.4799 24.7523 16.8963 24.7922 16.3127C24.7922 16.2523 24.7922 16.1919 24.7922 16.1115C24.7523 15.4675 24.4126 15.1858 23.7732 15.1858C20.5563 15.1858 17.3594 15.1858 14.1425 15.1858C13.4831 15.1858 13.3233 15.4474 13.5031 16.1115C13.8028 17.2183 14.1425 18.3653 14.1625 19.5124C14.2224 24.2012 14.2025 28.9102 14.1425 33.5991C14.1225 34.5449 13.8828 35.531 13.5831 36.4567C13.3033 37.3622 13.3033 37.483 14.2424 37.483C16.0207 37.5031 17.819 37.5031 19.5973 37.5031ZM41.7159 26.4149C41.676 26.4149 41.636 26.4149 41.5961 26.4149C41.5961 23.8793 41.5961 21.3235 41.5961 18.7879C41.5961 18.1842 41.676 17.6207 42.4153 17.6207C43.4742 17.6409 44.5532 17.6811 45.6122 17.822C46.2316 17.9025 47.0708 18.4659 47.3905 18.2446C47.83 17.9025 47.91 17.0573 48.1298 16.4133C48.4095 15.5681 48.1897 15.2663 47.2706 15.2663C42.7549 15.2461 38.2393 15.2461 33.7436 15.2864C33.364 15.2864 32.8445 15.6486 32.6247 15.9907C32.325 16.4737 32.2051 17.0774 32.0852 17.661C31.9653 18.2245 32.2051 18.3854 32.8045 18.2848C34.2631 18.0031 35.7217 17.8019 37.2003 17.6006C37.9196 17.5 38.2593 17.8622 38.2593 18.6269C38.2393 23.839 38.2593 29.0712 38.2193 34.2833C38.2193 35.0681 37.9196 35.8529 37.6598 36.6176C37.46 37.2012 37.52 37.5031 38.1793 37.5031C39.3382 37.5031 40.5171 37.5031 41.676 37.5031C42.4552 37.5031 42.5551 37.1811 42.2354 36.517C41.9957 36.0341 41.7759 35.4706 41.7759 34.9474C41.696 32.0898 41.7159 29.2523 41.7159 26.4149ZM82.7164 15.2663C82.9961 16.6347 83.3958 17.8019 83.4157 18.969C83.4957 23.8189 83.4757 28.6687 83.3958 33.5387C83.3758 34.6053 83.0161 35.6718 82.6765 36.7183C82.4367 37.4427 82.7364 37.5031 83.2759 37.5031C84.4747 37.5031 85.6736 37.5031 86.8724 37.5232C87.5318 37.5433 87.6317 37.2817 87.4319 36.678C87.1721 35.8932 86.8724 35.0681 86.8524 34.243C86.8125 28.9907 86.8125 23.7585 86.8524 18.5062C86.8524 17.7415 87.1921 16.9567 87.3919 16.1919C87.5118 15.8096 87.7116 15.3266 87.1122 15.2864C85.6536 15.226 84.195 15.2663 82.7164 15.2663ZM92.6668 47.4644C92.6868 47.7864 92.6868 48.3498 92.7867 48.8731C92.8267 49.0944 93.0664 49.4567 93.2263 49.4768C94.1054 49.5774 95.0046 49.7384 95.8438 49.1548C96.8628 48.4505 97.2224 47.5046 96.7629 46.1966C96.3833 45.1099 94.8447 44.4458 93.2862 44.8885C92.3471 45.1703 92.8267 46.1563 92.6868 46.8406C92.6469 46.9814 92.6668 47.1022 92.6668 47.4644ZM73.2855 47.2229C73.5852 46.096 72.3664 44.808 70.9278 44.6269C69.8089 44.4861 68.4102 45.774 68.4102 47.0217C68.4102 48.3297 69.1095 49.5774 70.9278 49.6579C72.1866 49.7384 73.1656 48.7322 73.2855 47.2229ZM113.906 49.6378C115.405 49.5975 116.544 48.531 116.464 47.2028C116.404 45.8947 115.005 44.5263 113.806 44.6068C112.747 44.6672 111.469 46.0758 111.509 47.1424C111.589 48.6517 112.807 49.8793 113.906 49.6378ZM80.3587 47.1424C80.2788 45.613 79.3397 44.6471 77.961 44.6873C76.6423 44.7276 75.5034 46.0356 75.5833 47.404C75.6832 48.6919 76.882 49.6981 78.2607 49.6378C79.5794 49.5774 80.4386 48.5511 80.3587 47.1424ZM44.5332 49.6579C46.0118 49.6176 47.0708 48.4907 47.0308 47.0015C46.9909 45.774 45.9119 44.7477 44.6731 44.7678C43.1545 44.7879 42.1355 45.8344 42.1955 47.2833C42.2354 48.5712 43.3544 49.6981 44.5332 49.6579ZM120.3 44.808C120.3 44.9288 120.3 45.0495 120.28 45.1502C120.58 45.1904 120.94 45.1502 121.199 45.291C121.719 45.5526 122.318 45.8142 121.899 46.6192C121.619 47.1625 120.58 47.6053 119.981 47.3034C119.321 46.9814 119.241 46.3978 119.501 45.7337C119.581 45.5325 119.521 45.2709 119.501 45.0294C119.501 45.0093 119.181 44.969 119.161 45.0093C119.041 45.2306 118.942 45.452 118.922 45.6935C118.882 46.0758 118.922 46.4783 118.922 46.8607C118.922 47.6455 118.922 48.4303 118.922 49.195C119.021 49.195 119.141 49.2152 119.241 49.2152C119.301 49.0341 119.401 48.8328 119.441 48.6517C119.601 47.8669 120.04 47.5851 120.74 47.9474C121.079 48.1285 121.339 48.5108 121.619 48.8127C121.819 49.0139 121.999 49.2353 122.178 49.4365C122.358 49.1347 122.398 48.8932 122.298 48.8127C121.539 48.1889 121.699 47.6858 122.358 47.0418C123.018 46.3978 122.938 45.5929 122.158 45.1703C121.619 44.8885 120.92 44.9087 120.3 44.808ZM109.171 48.7322C108.851 48.8127 108.691 48.8127 108.572 48.8932C107.792 49.356 107.113 49.2755 106.454 48.6316C105.774 47.9675 105.734 47.1827 106.014 46.3777C106.374 45.3514 107.473 44.969 108.452 45.452C108.651 45.5526 108.911 45.4721 109.291 45.4721C108.112 44.1641 106.414 44.8282 105.694 45.6935C104.855 46.7198 105.155 48.5108 106.314 49.2957C107.273 49.9396 108.591 49.7585 109.171 48.7322ZM49.948 45.3514C49.7882 45.3514 49.6483 45.3313 49.4884 45.3313C49.4884 46.1161 49.5084 46.8808 49.4884 47.6656C49.4485 49.1347 50.947 50.0402 52.1459 49.5372C53.4646 48.9737 54.064 46.6393 53.085 45.0898C53.025 45.6331 52.9651 45.9954 52.9451 46.3375C52.9052 46.9211 52.9851 47.5248 52.8652 48.0681C52.6454 49.0944 51.4266 49.6176 50.7872 48.9334C50.3476 48.4505 50.1478 47.7059 49.988 47.0418C49.8481 46.4984 49.948 45.9149 49.948 45.3514ZM102.517 49.5573C102.517 49.4365 102.537 49.3158 102.537 49.2152C102.078 49.1749 101.618 49.1145 101.159 49.1145C100.16 49.1145 99.8399 48.6316 100.2 47.7059C100.299 47.4443 100.379 47.082 100.279 46.8406C99.8399 45.7337 100.24 45.1904 101.438 45.2508C101.738 45.2709 102.058 45.2508 102.357 45.2508C102.357 45.13 102.357 45.0093 102.357 44.8885C101.578 44.8885 100.799 44.8483 100.04 44.9288C99.8599 44.9489 99.6002 45.4118 99.5802 45.6734C99.5402 46.7399 99.5402 47.8266 99.5802 48.8932C99.5802 49.1145 99.8199 49.517 99.9798 49.5372C100.839 49.5774 101.678 49.5573 102.517 49.5573ZM86.5527 49.6981C86.5927 49.3158 86.6127 49.2353 86.5927 49.195C85.9933 48.4102 85.5537 47.726 86.6326 46.8607C87.1721 46.418 86.8524 45.613 86.293 45.1703C85.7535 44.7477 85.194 44.8282 84.7345 44.969C85.2939 45.4118 85.7335 45.774 86.1931 46.1362C85.7335 46.6594 85.254 47.1827 84.7145 47.7864C85.174 48.2291 85.7935 48.8731 86.5527 49.6981ZM64.1943 45.0495C64.6738 45.7136 65.493 46.3576 65.553 47.0418C65.5929 47.7461 64.8936 48.5108 64.514 49.2554C65.553 49.1347 66.3122 47.9272 66.1124 46.7399C65.9126 45.6331 64.9136 44.8684 64.1943 45.0495ZM57.5407 49.1145C57.6805 49.1145 57.8004 49.1145 57.9403 49.1145C57.9403 48.3096 57.9803 47.5046 57.9203 46.6997C57.8604 45.8947 57.9603 45.2105 58.8794 44.8483C58.0602 44.8885 57.221 44.9288 56.142 44.969C58.3599 45.935 57.0412 47.8065 57.5407 49.1145ZM83.9552 47.6455C83.8953 47.6254 83.8353 47.6053 83.7754 47.5851C83.7754 46.9412 83.7554 46.2972 83.7754 45.6532C83.7754 45.4118 83.8353 45.1703 83.8353 44.9288C83.8353 44.8885 83.4757 44.808 83.4357 44.8684C83.2959 45.0697 83.156 45.291 83.136 45.5325C83.0761 46.2167 83.0561 46.8808 83.0761 47.565C83.0961 48.0882 83.196 48.6115 83.2759 49.3762C83.5756 48.5913 83.7754 48.1084 83.9552 47.6455ZM64.1144 49.2957C63.5949 49.1548 63.0554 49.1548 62.7756 48.8731C62.4759 48.5712 62.376 48.0279 62.2961 47.5851C62.2162 47.1827 62.2761 46.7601 62.2761 46.1563C62.0364 46.418 61.9564 46.4582 61.9564 46.5186C61.9364 47.1223 61.9165 47.7461 61.9364 48.3498C61.9564 49.5975 62.7756 50 64.1144 49.2957Z" fill="#1A130D"/>
<path d="M-4 62.7988C53.7244 62.7988 111.469 62.7988 169.333 62.7988C169.333 41.1656 169.333 19.5728 169.333 -2C169.393 -1.69814 169.513 -1.41641 169.513 -1.11455C169.513 14.582 169.513 30.2786 169.513 45.9752C169.513 51.6502 169.513 57.3251 169.513 63C111.968 63 54.4037 63 -3.14083 63C-3.40058 63 -3.70029 62.8793 -4 62.7988Z" fill="#FFF3E0"/>
<path d="M108.711 37.6244C107.212 36.598 106.553 35.2497 105.974 33.8813C104.075 29.3132 102.257 24.7049 100.399 20.1367C100.299 19.8953 100.139 19.6538 99.8994 19.1909C99.7396 19.6739 99.6197 19.8953 99.5798 20.1166C98.9004 24.725 98.2211 29.3333 97.5617 33.9618C97.4218 34.9479 97.3219 35.8937 98.0612 36.7389C98.4209 37.1414 98.1811 37.5036 97.6616 37.5036C96.5627 37.5237 95.4637 37.5237 94.3648 37.5036C93.7654 37.4835 93.5855 37.1011 93.9652 36.6584C94.9842 35.4309 95.144 33.9216 95.3638 32.4525C96.0432 27.9649 96.7025 23.4974 97.3219 19.0098C97.4618 18.0036 97.7815 16.9572 97.1021 15.9711C97.0422 15.8705 97.3619 15.307 97.5217 15.2869C98.7605 15.2265 99.9994 15.1863 101.218 15.307C101.618 15.3473 102.117 15.8302 102.297 16.2327C103.356 18.708 104.335 21.2436 105.334 23.7389C106.233 26.033 107.132 28.3473 108.052 30.6414C108.151 30.8829 108.411 31.0237 108.611 31.225C108.751 31.0237 108.971 30.8628 109.051 30.6414C110.929 25.8117 112.807 21.0021 114.665 16.1522C114.905 15.5083 115.285 15.2064 115.964 15.2265C117.203 15.2467 118.462 15.2265 119.501 15.2265C119.241 20.7405 120.48 25.9324 121.019 31.1847C121.159 32.6336 121.459 34.0826 121.738 35.5114C121.818 35.934 122.138 36.3163 122.318 36.7389C122.518 37.2219 122.378 37.5036 121.838 37.5036C120.599 37.5036 119.381 37.5237 118.142 37.4835C117.702 37.4835 117.283 37.2621 117.622 36.759C118.342 35.7126 118.202 34.5857 118.082 33.4587C117.602 29.0516 117.103 24.6445 116.623 20.2374C116.583 19.9758 116.503 19.7141 116.424 19.4525C116.304 19.4324 116.184 19.4123 116.064 19.372C113.606 25.4092 111.189 31.4463 108.711 37.6244Z" fill="#FFF3E0"/>
<path d="M139.622 37.9856C132.149 38.1264 126.434 31.6465 128.392 23.597C129.491 19.0691 132.568 16.1512 137.164 15.1249C142.039 14.0181 146.315 15.2255 149.632 19.0893C152.969 22.9933 152.749 29.6342 149.392 33.5583C146.975 36.3555 143.977 37.8246 139.622 37.9856ZM148.333 26.8772C148.333 23.8385 147.574 21.4438 145.676 19.4113C142.559 16.0707 136.305 15.9902 133.248 20.6187C130.99 24.0397 131.03 27.8029 132.968 31.3849C134.407 34.0614 136.744 35.6311 139.841 35.5908C144.957 35.5304 148.413 31.7673 148.333 26.8772Z" fill="#FFF3E0"/>
<path d="M54.4048 15.3062C56.1431 15.3062 57.7416 15.3062 59.4399 15.3062C59.1802 16.1514 58.8005 16.8558 58.7406 17.6004C58.6007 19.4719 58.5808 21.3836 58.6007 23.2552C58.6007 23.5369 59.1402 24.04 59.42 24.04C62.8566 24.1004 66.2933 24.1205 69.73 24.0802C69.9898 24.0802 70.4493 23.5771 70.4693 23.3155C70.4693 21.3233 70.4094 19.3511 70.3095 17.3589C70.2895 16.896 70.0097 16.4332 69.8099 15.9904C69.6301 15.588 69.6101 15.2459 70.1496 15.2257C71.6282 15.2056 73.1068 15.2257 74.5853 15.2257C74.6253 15.5075 74.6852 15.6282 74.6453 15.6886C73.7062 17.2381 73.886 18.9487 73.886 20.6391C73.886 25.0462 73.846 29.4533 73.926 33.8403C73.9459 34.7861 74.2257 35.7521 74.5454 36.6576C74.7652 37.2815 74.5653 37.4827 74.0459 37.4827C72.7871 37.523 71.5283 37.5431 70.2495 37.523C69.8099 37.523 69.5702 37.3217 69.77 36.7381C70.0897 35.7722 70.4293 34.766 70.4893 33.7598C70.5892 31.7675 70.4893 29.7753 70.5292 27.783C70.5492 26.8976 70.2096 26.5957 69.3104 26.6158C66.0735 26.6561 62.8167 26.6561 59.5798 26.636C58.9404 26.636 58.5808 26.8372 58.5808 27.5013C58.5808 29.7552 58.5208 32.009 58.6207 34.2428C58.6607 35.0477 58.9804 35.8728 59.2801 36.6576C59.4999 37.2412 59.34 37.4827 58.7806 37.4827C57.5218 37.5028 56.243 37.4827 54.9842 37.4425C54.4447 37.4425 54.3848 37.1808 54.5446 36.6778C54.8444 35.6514 55.204 34.605 55.224 33.5787C55.3039 28.749 55.3239 23.9192 55.264 19.0895C55.244 18.0833 54.8444 17.0973 54.6046 16.0911C54.5447 15.8898 54.4847 15.6685 54.4048 15.3062Z" fill="#FFF3E0"/>
<path d="M19.5974 37.5033C17.8191 37.5033 16.0208 37.5033 14.2425 37.5033C13.3234 37.5033 13.3035 37.3825 13.5832 36.477C13.8829 35.5513 14.1227 34.5853 14.1426 33.6194C14.2026 28.9305 14.2226 24.2215 14.1626 19.5327C14.1426 18.3856 13.803 17.2587 13.5033 16.1318C13.3234 15.4677 13.4833 15.2061 14.1426 15.2061C17.3595 15.2061 20.5565 15.2061 23.7734 15.2061C24.3928 15.2061 24.7524 15.5079 24.7924 16.1318C24.7924 16.1921 24.8124 16.2525 24.7924 16.333C24.7524 16.9166 24.7324 17.5002 24.6925 18.0838C24.173 17.9831 23.6335 17.9228 23.114 17.7819C21.5355 17.3593 19.957 17.3794 18.3985 17.7618C18.0789 17.8423 17.6193 18.3252 17.6193 18.6472C17.5394 20.2169 17.5594 21.7664 17.5594 23.3361C17.5594 23.98 17.879 24.2819 18.5184 24.2819C19.6174 24.2618 20.7163 24.3222 21.8352 24.2819C22.6544 24.2417 22.9741 24.5636 22.8942 25.3686C22.8742 25.6302 22.8942 25.8918 22.8942 26.1534C22.8942 26.8578 22.6145 26.9986 21.9152 26.898C20.7163 26.7169 19.4775 26.6565 18.2587 26.6766C18.0389 26.6766 17.6193 27.2401 17.6193 27.542C17.5594 29.6348 17.5594 31.7076 17.6393 33.8005C17.6593 34.1225 18.0789 34.6658 18.3985 34.7061C21.1759 35.2091 23.9532 35.2896 26.5107 33.7804C26.6905 33.6797 27.0502 33.6194 27.1101 33.6999C27.23 33.881 27.31 34.1828 27.23 34.3841C26.9703 35.189 26.7505 36.0342 26.3509 36.7587C26.1511 37.1209 25.5716 37.4429 25.152 37.463C23.3138 37.5435 21.4556 37.5033 19.5974 37.5033Z" fill="#FFF3E0"/>
<path d="M41.7163 26.4144C41.7163 29.2518 41.6963 32.0893 41.7363 34.9268C41.7363 35.45 41.976 36.0134 42.1958 36.4964C42.5155 37.1605 42.4156 37.4825 41.6364 37.4825C40.4775 37.4825 39.2986 37.4825 38.1397 37.4825C37.4604 37.4825 37.4204 37.1806 37.6202 36.597C37.88 35.8323 38.1797 35.0475 38.1797 34.2627C38.2396 29.0506 38.1997 23.8184 38.2196 18.6063C38.2196 17.8416 37.88 17.4794 37.1607 17.58C35.7021 17.7611 34.2235 17.9825 32.7649 18.2642C32.1655 18.385 31.9257 18.224 32.0456 17.6404C32.1655 17.0769 32.2854 16.4531 32.5851 15.9701C32.8049 15.628 33.3244 15.2658 33.704 15.2658C38.2196 15.2255 42.7353 15.2255 47.231 15.2456C48.1501 15.2456 48.3499 15.5475 48.0901 16.3927C47.8903 17.0367 47.8104 17.902 47.3508 18.224C47.0311 18.4655 46.192 17.8819 45.5726 17.8014C44.5136 17.6806 43.4346 17.6203 42.3756 17.6001C41.6164 17.6001 41.5364 18.1636 41.5564 18.7673C41.5764 21.3029 41.5564 23.8586 41.5564 26.3942C41.6364 26.4144 41.6763 26.4144 41.7163 26.4144Z" fill="#FFF3E0"/>
<path d="M82.717 15.2661C84.1756 15.2661 85.6542 15.2258 87.1328 15.2862C87.7322 15.3063 87.5124 15.7893 87.4125 16.1918C87.1927 16.9565 86.873 17.7212 86.873 18.506C86.8331 23.7583 86.8131 28.9905 86.873 34.2429C86.873 35.0478 87.1927 35.893 87.4525 36.6778C87.6523 37.2816 87.5723 37.5432 86.893 37.523C85.6942 37.5029 84.4953 37.5029 83.2965 37.5029C82.737 37.5029 82.4573 37.4224 82.697 36.7181C83.0367 35.6918 83.4163 34.6051 83.4163 33.5385C83.4963 28.6887 83.4963 23.8388 83.4363 18.9689C83.4164 17.8017 82.9968 16.6345 82.717 15.2661Z" fill="#FFF3E0"/>
<path d="M92.6671 47.4637C92.6671 47.1015 92.6471 46.9607 92.6671 46.8399C92.8069 46.1557 92.3274 45.1495 93.2665 44.8879C94.825 44.4452 96.3635 45.1093 96.7432 46.1959C97.2027 47.504 96.8431 48.4498 95.824 49.1541C94.9848 49.7377 94.0857 49.5768 93.2066 49.4761C93.0267 49.456 92.8069 49.0938 92.767 48.8724C92.6871 48.3492 92.6871 47.7857 92.6671 47.4637ZM94.2456 45.2501C94.0657 45.391 93.4863 45.6124 93.4463 45.9142C93.3065 46.7795 93.3464 47.7052 93.4263 48.5907C93.4463 48.7919 93.8659 49.0737 94.1457 49.134C95.1647 49.3554 96.3236 48.3291 96.4235 47.1418C96.4834 46.3569 95.3845 45.2501 94.2456 45.2501Z" fill="#FFF3E0"/>
<path d="M73.2844 47.2228C73.1646 48.7321 72.2055 49.7383 70.9467 49.6578C69.1284 49.5572 68.4091 48.3095 68.4291 47.0215C68.4291 45.7739 69.8078 44.4859 70.9467 44.6268C72.3453 44.8079 73.5642 46.0959 73.2844 47.2228ZM70.8668 49.1748C71.7859 49.1748 72.7849 48.1485 72.7849 47.2429C72.7849 46.438 71.686 45.0494 71.0266 45.0494C70.0675 45.0293 69.0485 46.116 69.0685 47.102C69.1284 48.39 69.8078 49.1748 70.8668 49.1748Z" fill="#FFF3E0"/>
<path d="M113.907 49.6384C112.808 49.8798 111.589 48.6523 111.509 47.143C111.449 46.0563 112.728 44.6476 113.807 44.6074C115.005 44.547 116.404 45.9154 116.464 47.2034C116.524 48.5315 115.405 49.5981 113.907 49.6384ZM113.927 49.1554C114.866 49.1755 115.785 48.2901 115.825 47.3241C115.865 46.2777 114.866 45.1105 113.927 45.0904C113.147 45.0702 112.088 46.2374 112.048 47.1631C112.028 48.0888 113.007 49.1353 113.927 49.1554Z" fill="#FFF3E0"/>
<path d="M80.3592 47.1419C80.4391 48.5505 79.5799 49.5769 78.2812 49.6372C76.9025 49.6976 75.7037 48.6914 75.6038 47.4035C75.5039 46.0552 76.6428 44.7471 77.9815 44.6868C79.3402 44.6465 80.2793 45.6125 80.3592 47.1419ZM78.1213 49.1542C79.1803 49.3354 79.8996 48.0072 79.9196 47.162C79.9396 46.2765 78.9006 45.1697 78.0015 45.1295C77.1623 45.0892 76.2431 46.196 76.2232 47.2425C76.2431 48.2688 77.1223 49.1542 78.1213 49.1542Z" fill="#FFF3E0"/>
<path d="M44.5332 49.6583C43.3544 49.6986 42.2355 48.5717 42.1955 47.3039C42.1555 45.8348 43.1546 44.8085 44.6731 44.7884C45.9119 44.7683 46.9909 45.7946 47.0308 47.0221C47.0708 48.4912 46.0118 49.6181 44.5332 49.6583ZM44.6132 49.1552C45.6322 49.1351 46.4914 48.2296 46.4714 47.1831C46.4514 46.2373 45.4324 45.05 44.6331 45.0701C43.8139 45.0902 42.7749 46.2775 42.7749 47.1831C42.7749 48.2497 43.6341 49.1754 44.6132 49.1552Z" fill="#FFF3E0"/>
<path d="M120.3 44.8076C120.92 44.9082 121.619 44.8881 122.138 45.1698C122.918 45.5924 122.998 46.3974 122.338 47.0414C121.699 47.6652 121.539 48.1884 122.278 48.8123C122.378 48.8928 122.338 49.1544 122.158 49.4361C121.978 49.2349 121.779 49.0135 121.599 48.8123C121.319 48.5104 121.059 48.128 120.72 47.9469C120.02 47.5847 119.581 47.8664 119.421 48.6513C119.381 48.8525 119.301 49.0336 119.221 49.2147C119.121 49.2147 119.001 49.1946 118.901 49.1946C118.901 48.4098 118.901 47.625 118.901 46.8602C118.901 46.4779 118.881 46.0754 118.901 45.6931C118.921 45.4516 119.041 45.2302 119.141 45.0089C119.161 44.9686 119.481 45.0089 119.481 45.029C119.501 45.2705 119.561 45.5321 119.481 45.7333C119.241 46.3974 119.321 46.981 119.96 47.303C120.56 47.6048 121.599 47.1621 121.879 46.6188C122.298 45.8339 121.699 45.5522 121.179 45.2906C120.92 45.1698 120.56 45.19 120.26 45.1497C120.3 45.029 120.3 44.9284 120.3 44.8076Z" fill="#FFF3E0"/>
<path d="M109.17 48.7325C108.59 49.7588 107.272 49.9399 106.313 49.2758C105.154 48.491 104.854 46.7 105.693 45.6737C106.412 44.8083 108.111 44.1443 109.29 45.4523C108.91 45.4523 108.63 45.5328 108.45 45.4322C107.491 44.9492 106.373 45.3316 106.013 46.3579C105.733 47.1628 105.773 47.9477 106.452 48.6117C107.112 49.2557 107.791 49.3362 108.57 48.8734C108.69 48.813 108.85 48.813 109.17 48.7325Z" fill="#FFF3E0"/>
<path d="M49.9475 45.3515C49.9475 45.9149 49.8476 46.4985 49.9675 47.0419C50.1273 47.7059 50.3271 48.4505 50.7667 48.9335C51.4061 49.6177 52.6249 49.0945 52.8447 48.0682C52.9646 47.5047 52.8847 46.901 52.9246 46.3375C52.9446 45.9753 53.0046 45.6332 53.0645 45.0898C54.0436 46.6394 53.4441 48.9737 52.1254 49.5372C50.9465 50.0403 49.448 49.1549 49.468 47.6657C49.488 46.8809 49.468 46.1162 49.468 45.3313C49.6278 45.3313 49.7877 45.3313 49.9475 45.3515Z" fill="#FFF3E0"/>
<path d="M102.517 49.5573C101.678 49.5573 100.819 49.5976 99.9799 49.5171C99.8201 49.4969 99.5803 49.1146 99.5803 48.8731C99.5404 47.8065 99.5204 46.7199 99.5803 45.6533C99.6003 45.3917 99.86 44.9288 100.04 44.9087C100.799 44.8282 101.598 44.8685 102.358 44.8685C102.358 44.9892 102.358 45.1099 102.358 45.2307C102.058 45.2307 101.738 45.2508 101.439 45.2307C100.24 45.1703 99.8401 45.7137 100.28 46.8205C100.38 47.062 100.32 47.4242 100.2 47.6858C99.8201 48.6115 100.16 49.0945 101.159 49.0945C101.618 49.0945 102.078 49.1548 102.537 49.1951C102.537 49.3158 102.537 49.4366 102.517 49.5573Z" fill="#FFF3E0"/>
<path d="M86.5516 49.6975C85.7923 48.8926 85.1729 48.2285 84.7134 47.7455C85.2529 47.1418 85.7124 46.6186 86.192 46.0954C85.7324 45.7331 85.2928 45.3709 84.7334 44.9282C85.1929 44.8074 85.7524 44.7068 86.2919 45.1294C86.8713 45.5923 87.191 46.3771 86.6315 46.8198C85.5726 47.6851 85.9922 48.3694 86.5916 49.1542C86.6116 49.2146 86.5916 49.295 86.5516 49.6975Z" fill="#FFF3E0"/>
<path d="M64.1943 45.0501C64.9136 44.8489 65.9127 45.6337 66.1125 46.7405C66.3123 47.9077 65.553 49.1151 64.514 49.256C64.8937 48.5114 65.593 47.7467 65.553 47.0424C65.4931 46.3581 64.6739 45.7142 64.1943 45.0501Z" fill="#FFF3E0"/>
<path d="M57.5417 49.1143C57.0422 47.8062 58.3609 45.9549 56.1431 44.9889C57.222 44.9487 58.0412 44.9084 58.8804 44.8682C57.9613 45.2304 57.8814 45.9146 57.9214 46.7196C57.9813 47.5245 57.9413 48.3295 57.9413 49.1344C57.8214 49.1143 57.6816 49.1143 57.5417 49.1143Z" fill="#FFF3E0"/>
<path d="M83.956 47.6458C83.7762 48.1287 83.5763 48.5916 83.2766 49.3764C83.1967 48.6117 83.0968 48.0885 83.0768 47.5653C83.0568 46.881 83.0768 46.1968 83.1368 45.5327C83.1567 45.3114 83.2966 45.0699 83.4365 44.8687C83.4764 44.8083 83.8361 44.9089 83.8361 44.929C83.8361 45.1705 83.7762 45.412 83.7762 45.6535C83.7762 46.2975 83.7762 46.9414 83.7762 47.5854C83.8361 47.5854 83.896 47.6055 83.956 47.6458Z" fill="#FFF3E0"/>
<path d="M64.1153 49.2952C62.7966 49.9995 61.9574 49.597 61.9175 48.3292C61.8975 47.7255 61.9175 47.1017 61.9374 46.498C61.9374 46.4577 62.0174 46.3974 62.2571 46.1357C62.2571 46.7395 62.1972 47.1621 62.2771 47.5645C62.357 48.0274 62.4569 48.5707 62.7566 48.8525C63.0364 49.1543 63.5958 49.1543 64.1153 49.2952Z" fill="#FFF3E0"/>
<path d="M148.333 26.8779C148.413 31.768 144.956 35.5311 139.841 35.6116C136.744 35.6519 134.426 34.0822 132.968 31.4057C131.029 27.8036 130.99 24.0605 133.247 20.6395C136.304 15.9909 142.558 16.0915 145.675 19.4321C147.594 21.4444 148.333 23.8392 148.333 26.8779Z" fill="#1A130D"/>
<path d="M94.2445 45.251C95.3634 45.2711 96.4623 46.3578 96.4024 47.1426C96.3025 48.3299 95.1636 49.3562 94.1246 49.1349C93.8448 49.0745 93.4252 48.8129 93.4053 48.5915C93.3253 47.7061 93.3054 46.8005 93.4253 45.9151C93.5052 45.6132 94.0846 45.3918 94.2445 45.251Z" fill="#1A130D"/>
<path d="M70.8678 49.1752C69.8088 49.1752 69.1295 48.3904 69.0895 47.1024C69.0495 46.1164 70.0885 45.0498 71.0476 45.0498C71.707 45.0498 72.8059 46.4383 72.8059 47.2433C72.7859 48.1489 71.7869 49.1551 70.8678 49.1752Z" fill="#1A130D"/>
<path d="M113.926 49.1551C113.007 49.135 112.028 48.0684 112.048 47.1629C112.088 46.2573 113.147 45.07 113.926 45.0901C114.865 45.1102 115.864 46.2774 115.824 47.3238C115.784 48.2898 114.865 49.1954 113.926 49.1551Z" fill="#1A130D"/>
<path d="M78.1209 49.1547C77.1218 49.1547 76.2427 48.2693 76.2427 47.243C76.2427 46.1965 77.1818 45.0897 78.021 45.13C78.9201 45.1903 79.9591 46.277 79.9391 47.1625C79.8992 48.0077 79.1798 49.3359 78.1209 49.1547Z" fill="#1A130D"/>
<path d="M44.6122 49.1547C43.6331 49.1749 42.7739 48.2492 42.7739 47.1826C42.7739 46.2971 43.8329 45.1098 44.6321 45.0696C45.4114 45.0495 46.4504 46.2368 46.4704 47.1826C46.4903 48.229 45.6312 49.1346 44.6122 49.1547Z" fill="#1A130D"/>
</svg>
