<svg width="137" height="61" viewBox="0 0 137 61" fill="none" xmlns="http://www.w3.org/2000/svg">
<g clip-path="url(#clip0_608_4831)">
<path d="M-7 63.8144C-7 41.5429 -7 19.2715 -7 -3C43.0904 -3 93.1994 -3 143.29 -3C143.29 19.2529 143.29 41.5058 143.29 63.8144C93.1065 63.8144 43.0533 63.8144 -7 63.8144ZM23.0765 39.4086C23.058 39.2601 23.0394 39.1302 23.0208 38.9817C22.6495 38.926 22.2596 38.7776 21.8883 38.7961C20.9786 38.8704 20.0874 39.056 19.1777 39.1302C18.8992 39.1488 18.4908 39.056 18.3237 38.8518C18.1937 38.7219 18.3237 38.295 18.4351 38.0352C18.695 37.4598 19.0292 36.9216 19.3077 36.3463C19.6047 35.7338 19.7718 34.9914 20.2174 34.4903C21.5541 32.9313 23.225 31.8177 25.1559 31.0939C26.7897 30.4814 26.7711 30.4629 26.9382 32.1704C26.9382 32.2632 26.9196 32.3745 26.9753 32.4302C27.1053 32.5787 27.2724 32.8385 27.3838 32.8199C27.588 32.8014 27.7922 32.6158 27.9407 32.4488C28.015 32.356 27.9779 32.1518 27.9964 32.0033C28.0893 31.1867 28.3678 31.0382 29.0361 31.4651C29.3703 31.6878 29.5745 32.1147 29.9087 32.356C30.2058 32.5787 30.5956 32.69 30.9484 32.8385C30.8556 32.4859 30.8741 32.0404 30.6699 31.7992C30.1686 31.2609 29.5003 30.8526 28.9619 30.3144C28.4792 29.8504 27.8665 29.3493 27.6994 28.774C27.031 26.3612 26.9382 26.2684 24.6732 27.3078C24.1348 27.549 23.6335 27.6418 23.2807 27.1593C22.4824 26.1014 21.647 25.062 21.0714 23.8928C20.4773 22.6679 21.1828 21.944 22.5567 22.2039C22.6681 22.2224 22.798 22.3338 22.8909 22.3152C23.1693 22.2967 23.6149 22.2967 23.6706 22.1668C23.7635 21.9069 23.7635 21.4429 23.5964 21.2573C22.7795 20.4222 21.9254 19.6427 21.0157 18.9003C19.8275 17.9166 18.7693 18.9188 17.7296 19.29C17.284 19.4571 16.857 19.9211 16.5971 20.3665C16.0587 21.2759 16.0215 22.3152 15.9658 23.3917C15.8916 25.3776 16.4857 27.1778 17.2469 28.9039C17.5996 29.7019 17.4511 29.9618 16.9127 30.3515C16.5971 30.5928 16.2815 30.8155 15.9658 31.0568C15.0375 31.8177 14.0536 32.523 13.181 33.3396C12.4755 33.9892 11.8442 34.1006 11.2687 33.3211C10.8603 32.7643 10.4518 32.1332 10.8603 31.3166C11.2501 30.5 11.4915 29.6091 11.8257 28.774C12.4383 27.2521 11.1944 25.2662 9.56065 25.2105C9.04081 25.192 8.78089 25.5446 9.11507 25.8601C9.80201 26.5654 9.9134 27.1593 9.52352 28.1429C9.24503 28.8482 9.2079 29.4792 8.31674 29.572C8.35388 29.7762 8.33531 29.9061 8.39101 29.9989C8.98511 30.8341 8.85515 31.4651 8.00113 32.059C7.42559 32.4673 7.66694 33.4881 8.40957 33.7294C9.44925 34.0634 10.5446 34.2119 11.6029 34.5274C12.0113 34.6388 12.6983 34.9543 12.6983 35.1956C12.7354 36.5504 13.608 37.3485 14.4991 38.1094C15.2418 38.7404 15.3717 39.3715 14.9447 40.2623C14.7776 40.615 14.8333 41.2274 15.0561 41.5615C15.6873 42.5452 16.4485 43.4546 17.1726 44.3825C17.5625 44.8651 18.0266 45.1249 18.695 44.5496C17.9152 43.5288 17.154 42.5637 16.43 41.5801C15.9101 40.8748 16.2815 40.0396 17.1169 39.9839C18.6579 39.9097 20.1988 39.8911 21.7212 39.7798C22.1854 39.8355 22.6309 39.5571 23.0765 39.4086ZM105.824 23.2061C105.954 23.169 106.065 23.1319 106.195 23.1133C106.437 23.3917 106.697 23.6515 106.882 23.9485C109.723 28.477 112.563 33.0241 115.423 37.5526C115.571 37.7939 115.924 38.0166 116.221 38.0909C118.096 38.4806 118.616 38.0909 118.634 36.1978C118.653 30.7042 118.653 25.2291 118.634 19.7355C118.634 19.4942 118.467 19.0859 118.319 19.0488C117.743 18.956 117.093 18.8632 116.555 19.0116C116.332 19.0673 116.165 19.754 116.165 20.1623C116.147 24.2825 116.184 28.4028 116.184 32.523C116.184 32.9127 116.072 33.2839 115.998 33.6737C115.905 33.6737 115.812 33.6922 115.72 33.6922C115.311 33.0427 114.903 32.3931 114.513 31.7435C112.211 28.013 109.816 24.3382 107.644 20.5335C106.827 19.1044 105.861 18.6404 104.376 18.8632C104.339 18.8632 104.32 18.8632 104.283 18.8632C103.596 18.826 103.392 19.1972 103.392 19.8283C103.392 25.6188 103.392 31.4094 103.373 37.2C103.373 37.8681 103.689 38.1651 104.32 38.0909C104.933 38.0166 105.861 38.4064 105.861 37.2371C105.861 33.5066 105.824 29.7762 105.824 26.0457C105.824 25.0992 105.824 24.1526 105.824 23.2061ZM76.4345 33.5994C76.3602 33.618 76.2674 33.6366 76.1931 33.6737C75.9332 33.3582 75.6547 33.0612 75.4319 32.7086C72.8699 28.5884 70.2521 24.5238 67.8014 20.3294C67.0217 18.9745 66.0562 18.7518 64.7195 18.8817C64.0511 18.9374 63.7541 19.2344 63.7541 19.9211C63.7726 25.656 63.7726 31.3909 63.7726 37.1258C63.7726 37.9238 64.144 38.1651 64.8495 38.0909C65.4993 38.0352 66.2976 38.3321 66.2976 37.1443C66.2605 32.8014 66.2605 28.477 66.2605 24.1341C66.2605 23.8186 66.3347 23.5216 66.3904 23.2061C66.4832 23.1875 66.5575 23.1504 66.6503 23.1319C67.1516 23.8928 67.69 24.6537 68.1727 25.4332C70.6791 29.4421 73.1483 33.4695 75.6919 37.4413C75.9146 37.7753 76.4716 37.9609 76.9172 38.0723C77.2885 38.1651 77.697 38.0723 78.0868 38.0909C78.8109 38.128 79.0523 37.7753 79.0523 37.1072C79.0337 32.7086 79.0337 28.31 79.0337 23.9114C79.0337 22.538 79.0708 21.1831 79.0151 19.8097C78.9966 19.5127 78.7923 19.0673 78.5324 18.956C77.4185 18.4363 76.5644 19.0116 76.5644 20.218C76.5644 24.3197 76.5644 28.4028 76.5644 32.5044C76.5459 32.8756 76.4716 33.2468 76.4345 33.5994ZM54.0628 18.6961C53.5058 18.9003 52.6703 18.956 52.429 19.3643C51.8534 20.3108 51.5564 21.4058 51.1851 22.4637C50.3496 24.7651 49.5327 27.0665 48.6787 29.3493C47.6761 32.0033 46.6365 34.6573 45.6339 37.3114C45.5596 37.497 45.5968 37.831 45.7267 37.9609C46.1723 38.4435 48.0475 38.0166 48.2702 37.4042C48.6973 36.2163 49.0871 35.01 49.5513 33.8407C49.7926 33.2468 49.9226 32.4488 50.7766 32.4302C52.8745 32.3931 54.9725 32.4116 57.0518 32.4859C57.3675 32.5044 57.8502 32.7643 57.9801 33.0427C58.4443 34.1748 58.8527 35.344 59.2055 36.5319C59.6696 38.0723 59.6325 38.0723 61.2291 38.1094C62.2131 38.128 62.4545 37.8125 62.1389 36.903C61.3777 34.7316 60.5979 32.5787 59.8181 30.4072C58.6856 27.2521 57.516 24.1155 56.3835 20.9418C55.6408 18.8632 55.6594 18.8632 54.0628 18.6961ZM34.2345 28.5141C34.2345 31.3723 34.2345 34.2119 34.2531 37.0701C34.2531 38.0352 34.4573 38.128 35.8126 38.128C36.5738 38.128 36.8152 37.7939 36.7966 37.0701C36.7595 34.9172 36.778 32.7643 36.778 30.6114C36.778 29.5535 36.8894 29.4235 37.9848 29.4235C40.287 29.4235 42.6077 29.4607 44.9098 29.4607C45.9867 29.4607 46.228 29.2565 46.228 28.3285C46.228 27.1778 46.0795 27.0479 44.8913 27.0479C42.5891 27.0479 40.2684 27.0479 37.9663 27.085C37.1122 27.1036 36.7409 26.7695 36.778 25.9158C36.8152 24.8208 36.7966 23.7258 36.778 22.6493C36.7595 21.2573 36.8523 21.1645 38.2633 21.1645C41.0296 21.1831 43.7959 21.1831 46.5622 21.2017C47.4534 21.2202 47.6204 20.7191 47.639 19.9767C47.6576 19.2715 47.4162 18.9003 46.655 18.9188C42.9419 18.9374 39.2473 18.9188 35.5341 18.9374C34.3831 18.9374 34.2717 19.1044 34.2717 20.2737C34.2345 22.9834 34.2345 25.7488 34.2345 28.5141ZM86.757 29.4607H86.7385C86.7385 31.9105 86.7199 34.3789 86.757 36.8288C86.757 37.2 86.9241 37.8681 87.1469 37.9053C87.7596 38.0537 88.4837 38.0909 89.0778 37.9238C89.3191 37.8496 89.4676 37.1072 89.4676 36.6803C89.4862 31.8549 89.4862 27.0294 89.4676 22.2224C89.4676 21.4058 89.7276 21.0717 90.5816 21.1274C91.9183 21.2017 93.2551 21.146 94.5918 21.1645C95.6872 21.1645 95.8357 20.9975 95.8914 19.9211C95.9471 18.956 95.3901 18.8632 94.6289 18.8632C90.1546 18.8817 85.6988 18.9003 81.2245 18.8632C80.3519 18.8632 80.1848 19.2715 80.1848 19.9767C80.1662 20.7006 80.3147 21.2202 81.2245 21.1831C82.7468 21.1274 84.2507 21.1645 85.7731 21.146C86.46 21.1274 86.7756 21.4058 86.757 22.1111C86.7385 24.5609 86.757 27.0108 86.757 29.4607ZM121.958 28.4585C121.958 31.2424 121.958 34.0263 121.958 36.8102C121.958 38.1094 121.995 38.128 123.276 38.0909C123.462 38.0909 123.647 38.0909 123.814 38.0723C124.353 38.0166 124.594 37.7382 124.594 37.1814C124.575 31.428 124.575 25.6745 124.557 19.9211C124.557 18.9931 124.334 18.8817 122.905 18.8446C122.125 18.826 121.921 19.1972 121.939 19.9211C121.976 22.7607 121.958 25.6188 121.958 28.4585ZM100.032 28.5884C100.05 28.5884 100.05 28.5884 100.069 28.5884C100.069 25.7488 100.069 22.8906 100.069 20.051C100.069 19.2343 99.7531 18.826 98.8619 18.8817C97.7108 18.9374 97.5437 19.0302 97.5252 20.0881C97.5252 20.9975 97.5437 21.9069 97.5437 22.8163C97.5437 27.6047 97.5438 32.3931 97.5066 37.1814C97.5066 38.1651 98.1564 38.1094 98.8062 38.1094C99.4746 38.128 100.05 38.1465 100.032 37.1443C99.9944 34.2862 100.032 31.428 100.032 28.5884ZM57.0704 43.9557C57.0333 45.7003 57.1075 45.7745 58.4628 45.756C59.8553 45.7374 60.0781 45.4961 59.9852 44.0856C59.9667 43.8072 59.9295 43.5474 59.9295 43.269C59.9481 42.508 59.5211 42.2111 58.8156 42.1554C57.2375 42.044 57.089 42.174 57.089 43.7701C57.089 43.8258 57.089 43.9 57.0704 43.9557ZM36.6295 45.6446C36.7038 45.4219 36.7966 45.292 36.7595 45.1992C36.4996 44.5496 36.5553 43.9928 36.8894 43.3432C37.1679 42.805 36.7595 42.2853 36.1839 42.2111C35.5713 42.1183 34.6987 41.8028 34.4573 42.6565C34.2531 43.4546 34.3645 44.3269 34.3831 45.1806C34.3831 45.3105 34.5687 45.459 34.7172 45.5332C34.7544 45.5704 34.9772 45.459 34.9957 45.3848C35.4784 43.9742 35.8498 44.828 36.2396 45.4404C36.2768 45.5147 36.4253 45.5332 36.6295 45.6446ZM80.1105 43.6031C80.0177 43.6402 79.9249 43.6773 79.832 43.733C79.5535 43.3247 79.2936 42.9163 78.978 42.5452C78.848 42.3781 78.551 42.1925 78.4025 42.2482C78.2354 42.3039 78.0497 42.5823 78.0311 42.7864C77.9754 43.4546 77.9569 44.1227 77.994 44.7909C78.0126 45.0321 78.2354 45.2548 78.3653 45.4961C78.4767 45.2734 78.5695 45.0693 78.6809 44.8465C78.7923 44.6238 78.9223 44.4197 79.0337 44.197C79.2194 44.364 79.4421 44.4939 79.6092 44.6795C79.7021 44.7909 79.7021 44.995 79.7949 45.0878C80.0177 45.2734 80.2776 45.3848 80.519 45.5332C80.6489 45.3105 80.8531 45.1064 80.8717 44.8837C80.946 44.3083 80.9645 43.733 80.946 43.1576C80.9274 42.8607 80.7603 42.5637 80.6489 42.2668C80.5375 42.2853 80.4447 42.3039 80.3333 42.3039C80.259 42.7308 80.1848 43.1762 80.1105 43.6031ZM91.9369 42.6751C91.9369 42.5266 91.9369 42.3967 91.9369 42.2482C91.3614 42.1925 90.8044 42.1368 90.2288 42.1183C89.6904 42.0997 89.4676 42.3781 89.4676 42.8978C89.4676 43.5659 89.3934 44.2341 89.4676 44.9022C89.5048 45.1992 89.7647 45.626 90.0061 45.6817C90.563 45.8116 91.1571 45.7745 91.7327 45.756C91.8812 45.756 92.0297 45.5332 92.1782 45.4033C92.0297 45.292 91.8998 45.1064 91.7327 45.0693C91.5099 45.0136 91.2314 45.0878 91.0086 45.0136C90.7858 44.9393 90.6187 44.7537 90.4145 44.6053C90.5816 44.4939 90.7487 44.364 90.9343 44.2526C91.0829 44.1598 91.25 44.0856 91.4913 43.9371C91.25 43.8072 91.1386 43.7701 91.0457 43.6958C90.8415 43.5474 90.6559 43.3989 90.4702 43.2319C90.6744 43.1019 90.8786 42.9349 91.1014 42.8607C91.3614 42.7679 91.6584 42.7308 91.9369 42.6751ZM46.1723 42.4152C46.0238 42.4338 45.8753 42.4524 45.7453 42.4709C45.7453 43.2504 45.671 44.0485 45.7824 44.828C45.8381 45.1435 46.2837 45.5332 46.6179 45.6632C47.2306 45.8673 47.9175 45.8488 48.2702 45.1435C48.6973 44.2897 48.5487 42.7864 47.8061 42.0812C47.769 42.7679 47.7504 43.269 47.6947 43.7515C47.639 44.2341 47.8618 44.9579 47.1377 44.9393C46.8592 44.9208 46.5808 44.1784 46.358 43.733C46.2837 43.6031 46.4137 43.3803 46.3765 43.1947C46.3394 42.9163 46.2466 42.6565 46.1723 42.4152ZM101.071 42.3039C101.034 42.3967 100.978 42.4895 100.941 42.5823C102.204 42.9906 101.925 43.9557 101.962 44.8465C101.962 45.1064 102.241 45.3476 102.389 45.5889C102.519 45.3476 102.761 45.1249 102.779 44.8837C102.835 43.9742 102.408 42.9349 103.596 42.3039C102.761 42.3039 101.925 42.3039 101.071 42.3039ZM115.051 42.638C114.457 42.0255 113.362 41.9698 112.582 42.4895C113.603 42.9906 113.473 43.9 113.455 44.7723C113.455 44.8651 113.417 44.9765 113.455 45.0321C113.547 45.1992 113.696 45.3291 113.807 45.4776C113.956 45.3476 114.179 45.2363 114.216 45.0878C114.29 44.8651 114.271 44.6053 114.234 44.364C114.049 43.6216 114.16 43.0091 115.051 42.638ZM69.4352 43.9C69.4352 43.5659 69.4909 43.2133 69.4166 42.8978C69.3609 42.6751 69.1381 42.4895 68.9896 42.2853C68.8411 42.4895 68.5812 42.6751 68.5626 42.8792C68.5255 43.603 68.5255 44.3269 68.5812 45.0507C68.5997 45.2363 68.8411 45.3848 68.9711 45.5704C69.1196 45.4033 69.3795 45.2548 69.3981 45.0693C69.4909 44.6795 69.4352 44.2898 69.4352 43.9ZM124.761 44.1042C124.705 44.0856 124.631 44.0485 124.557 44.0299C124.575 43.6773 124.631 43.3061 124.594 42.9535C124.575 42.805 124.353 42.6751 124.204 42.5452C124.093 42.6936 123.889 42.8421 123.87 43.0091C123.833 43.3618 123.889 43.733 123.944 44.0856C124.019 44.5496 124.13 44.995 124.241 45.459C124.427 44.995 124.594 44.5496 124.761 44.1042Z" fill="#1A130D"/>
<path d="M-7 63.8144C43.0533 63.8144 93.1065 63.8144 143.29 63.8144C143.29 41.5058 143.29 19.2529 143.29 -3C143.345 -2.72161 143.457 -2.46177 143.457 -2.18338C143.457 10.233 143.457 22.6307 143.457 35.0471C143.457 44.6981 143.457 54.349 143.457 64C93.5707 64 43.6845 64 -6.20167 64C-6.46159 64 -6.72151 63.8701 -7 63.8144Z" fill="#FFF3E0"/>
<path d="M23.0763 39.409C22.6307 39.576 22.2037 39.8359 21.7395 39.873C20.1986 39.9843 18.6576 40.0029 17.1352 40.0771C16.2998 40.1143 15.9284 40.968 16.4483 41.6733C17.1723 42.6755 17.9335 43.6406 18.7133 44.6428C18.0449 45.2181 17.5808 44.9583 17.1909 44.4758C16.4668 43.5478 15.7057 42.6384 15.0744 41.6547C14.8702 41.3206 14.7959 40.7082 14.963 40.3555C15.4086 39.4647 15.2601 38.8337 14.5174 38.2026C13.6263 37.4231 12.7537 36.6436 12.7166 35.2888C12.7166 35.0475 12.0296 34.732 11.6212 34.6206C10.5629 34.3237 9.46756 34.1566 8.42788 33.8226C7.68525 33.5813 7.46246 32.5605 8.01943 32.1522C8.87345 31.5583 9.00341 30.9273 8.40931 30.0921C8.35361 29.9993 8.37218 29.8694 8.33505 29.6652C9.2262 29.5724 9.26333 28.9228 9.54182 28.2361C9.9317 27.2525 9.82031 26.6586 9.13338 25.9533C8.81776 25.6192 9.05911 25.2852 9.57895 25.3037C11.2127 25.3594 12.4566 27.3638 11.844 28.8672C11.5098 29.7023 11.2684 30.5932 10.8786 31.4098C10.4887 32.2264 10.8786 32.8575 11.287 33.4143C11.8625 34.1938 12.4938 34.0824 13.1993 33.4328C14.0719 32.6162 15.0373 31.8924 15.9841 31.15C16.2998 30.9087 16.6154 30.6674 16.931 30.4447C17.4508 30.055 17.6179 29.7951 17.2652 28.9971C16.504 27.271 15.9099 25.4708 15.9841 23.4849C16.0213 22.4084 16.077 21.3877 16.6154 20.4597C16.8753 20.0143 17.3023 19.5317 17.7479 19.3832C18.8061 19.012 19.8458 18.0098 21.034 18.9935C21.9252 19.7359 22.7978 20.5339 23.6147 21.3505C23.7818 21.5176 23.8003 22.0001 23.6889 22.26C23.6332 22.3899 23.1877 22.3899 22.9092 22.4084C22.7978 22.427 22.6864 22.3156 22.575 22.2971C21.1825 22.0373 20.4771 22.7611 21.0897 23.986C21.6653 25.1553 22.5193 26.2132 23.299 27.2525C23.6518 27.735 24.1716 27.6422 24.6915 27.401C26.9565 26.3616 27.0493 26.473 27.7177 28.8672C27.8848 29.4611 28.4975 29.9436 28.9802 30.4076C29.5186 30.9273 30.1684 31.3356 30.6882 31.8924C30.911 32.1151 30.8924 32.5791 30.9667 32.9317C30.614 32.7832 30.2426 32.6719 29.927 32.4492C29.5928 32.2079 29.3886 31.781 29.0544 31.5583C28.3675 31.1129 28.1076 31.2799 28.0147 32.0965C27.9962 32.245 28.0333 32.4492 27.959 32.542C27.8105 32.709 27.6063 32.8946 27.4021 32.9132C27.2721 32.9317 27.105 32.6719 26.9936 32.5234C26.9379 32.4677 26.9751 32.3564 26.9565 32.2636C26.7894 30.5561 26.7894 30.5932 25.1742 31.1871C23.2433 31.9109 21.5724 33.0245 20.2357 34.5835C19.8087 35.0846 19.6416 35.827 19.326 36.4395C19.0475 36.9963 18.7133 37.553 18.4534 38.1284C18.342 38.3882 18.2306 38.7965 18.342 38.945C18.5091 39.1492 18.9175 39.242 19.196 39.2234C20.1057 39.1492 20.9969 38.9636 21.9066 38.8893C22.2779 38.8522 22.6492 39.0007 23.0391 39.0749C23.0391 39.112 23.0577 39.2605 23.0763 39.409Z" fill="#FFF3E0"/>
<path d="M105.823 23.2065C105.823 24.1531 105.823 25.0996 105.823 26.0461C105.841 29.7766 105.86 33.5071 105.86 37.2375C105.86 38.4068 104.932 38.017 104.319 38.0913C103.688 38.1841 103.372 37.8871 103.372 37.2004C103.391 31.4098 103.391 25.6193 103.391 19.8287C103.391 19.1977 103.613 18.8265 104.282 18.8636C104.319 18.8636 104.337 18.8636 104.375 18.8636C105.86 18.6409 106.825 19.1049 107.642 20.5339C109.814 24.3387 112.209 28.0134 114.512 31.7439C114.92 32.3935 115.31 33.0431 115.718 33.6927C115.811 33.6927 115.904 33.6741 115.997 33.6741C116.052 33.2844 116.182 32.9132 116.182 32.5234C116.182 28.4032 116.164 24.283 116.164 20.1628C116.164 19.7544 116.331 19.0863 116.554 19.0121C117.111 18.8636 117.742 18.9564 118.317 19.0492C118.466 19.0677 118.633 19.4946 118.633 19.7359C118.652 25.2295 118.652 30.7046 118.633 36.1982C118.633 38.0727 118.113 38.481 116.22 38.0913C115.923 38.0356 115.588 37.8129 115.421 37.5531C112.562 33.0245 109.74 28.4774 106.881 23.9489C106.695 23.652 106.417 23.3921 106.194 23.1137C106.083 23.1323 105.953 23.1694 105.823 23.2065Z" fill="#FFF3E0"/>
<path d="M76.4333 33.5995C76.4705 33.2283 76.5447 32.8757 76.5447 32.5045C76.5447 28.4029 76.5447 24.3198 76.5447 20.2181C76.5447 18.9932 77.3988 18.4364 78.5127 18.9561C78.7541 19.0674 78.9769 19.5128 78.9954 19.8098C79.0511 21.1646 79.014 22.538 79.014 23.9115C79.014 28.3101 79.014 32.7087 79.0326 37.1073C79.0326 37.794 78.7912 38.1466 78.0671 38.091C77.6773 38.0724 77.2502 38.1838 76.8975 38.0724C76.4519 37.9425 75.8949 37.7754 75.6722 37.4414C73.1286 33.4511 70.6594 29.4422 68.153 25.4333C67.6703 24.6538 67.1319 23.8929 66.6306 23.132C66.5378 23.1505 66.4635 23.1876 66.3707 23.2062C66.3336 23.5217 66.2408 23.8187 66.2408 24.1342C66.2408 28.4771 66.2222 32.8015 66.2779 37.1444C66.2965 38.3322 65.4796 38.0353 64.8298 38.091C64.1428 38.1466 63.7529 37.9054 63.7529 37.1259C63.7715 31.391 63.7529 25.6561 63.7344 19.9211C63.7344 19.2344 64.0314 18.9375 64.6998 18.8818C66.018 18.7519 66.9834 18.9746 67.7817 20.3295C70.2138 24.5239 72.8502 28.5885 75.4122 32.7087C75.635 33.0613 75.9135 33.3397 76.1734 33.6738C76.2663 33.6552 76.3591 33.6367 76.4333 33.5995Z" fill="#FFF3E0"/>
<path d="M54.062 18.6963C55.6586 18.8633 55.6401 18.8819 56.3827 20.9606C57.5152 24.1157 58.6663 27.2708 59.8174 30.4259C60.5971 32.5788 61.3583 34.7503 62.1381 36.9218C62.4537 37.8312 62.2309 38.1467 61.2283 38.1281C59.6317 38.091 59.6688 38.091 59.2047 36.5506C58.8519 35.3628 58.4621 34.1935 57.9793 33.0614C57.8679 32.783 57.3852 32.5046 57.0511 32.5046C54.9531 32.4489 52.8552 32.4304 50.7758 32.4489C49.9218 32.4675 49.7918 33.2655 49.5505 33.8594C49.0864 35.0287 48.6965 36.2351 48.2695 37.4229C48.0467 38.0168 46.153 38.4437 45.7259 37.9797C45.596 37.8498 45.5774 37.5157 45.6331 37.3301C46.6357 34.6761 47.6754 32.022 48.6779 29.368C49.5319 27.0852 50.3488 24.7653 51.1843 22.4824C51.5742 21.4431 51.8712 20.3295 52.4282 19.383C52.6881 18.9561 53.505 18.9004 54.062 18.6963ZM53.7464 30.129C54.3776 30.129 55.0274 30.129 55.6586 30.129C56.6612 30.1104 56.754 29.9991 56.457 29.0711C56.2713 28.4401 56.0299 27.809 55.8257 27.178C55.3616 25.7489 54.916 24.3013 54.4333 22.8722C54.359 22.668 54.1548 22.4824 53.9691 22.3711C53.9134 22.334 53.6164 22.5567 53.5607 22.7052C52.7624 24.8581 51.964 27.011 51.1843 29.1824C50.9429 29.8506 51.2214 30.1475 51.9083 30.129C52.521 30.129 53.1337 30.129 53.7464 30.129Z" fill="#FFF3E0"/>
<path d="M34.2354 28.5142C34.2354 25.7489 34.2354 23.0021 34.2354 20.2367C34.2354 19.0489 34.3653 18.9004 35.4978 18.9004C39.211 18.8818 42.9056 18.9004 46.6187 18.8818C47.3985 18.8818 47.6213 19.253 47.6027 19.9397C47.5841 20.6636 47.417 21.1647 46.5259 21.1647C43.7596 21.1275 40.9933 21.1275 38.227 21.1275C36.8346 21.1275 36.7417 21.2203 36.7417 22.6123C36.7603 23.7073 36.7789 24.8023 36.7417 25.8788C36.7046 26.7511 37.0945 27.0666 37.9299 27.048C40.2321 27.0109 42.5528 27.0295 44.855 27.0109C46.0432 27.0109 46.1917 27.1408 46.1917 28.2915C46.1917 29.2195 45.9504 29.4237 44.8735 29.4237C42.5714 29.4051 40.2507 29.3865 37.9485 29.3865C36.8531 29.3865 36.7417 29.5165 36.7417 30.5744C36.7417 32.7273 36.7232 34.8802 36.7603 37.0331C36.7789 37.7569 36.5375 38.091 35.7763 38.091C34.421 38.091 34.2168 38.0167 34.2168 37.0331C34.2354 34.212 34.2354 31.3539 34.2354 28.5142Z" fill="#FFF3E0"/>
<path d="M86.7565 29.4608C86.7565 27.0109 86.7379 24.5425 86.7565 22.0926C86.7565 21.3874 86.4409 21.109 85.7725 21.1276C84.2501 21.1461 82.7277 21.1276 81.2239 21.1647C80.2956 21.2018 80.1657 20.6821 80.1842 19.9583C80.2028 19.253 80.3699 18.8447 81.2239 18.8447C85.6797 18.8818 90.154 18.8633 94.6284 18.8447C95.4081 18.8447 95.9465 18.9375 95.8909 19.9026C95.8352 20.9605 95.6866 21.1461 94.5912 21.1461C93.2545 21.1461 91.9178 21.1832 90.581 21.109C89.727 21.0719 89.4485 21.4059 89.4671 22.204C89.4857 27.0295 89.5042 31.855 89.4671 36.6619C89.4671 37.0888 89.3186 37.8312 89.0772 37.9054C88.4645 38.0724 87.7591 38.0353 87.1464 37.8868C86.9422 37.8312 86.7751 37.1816 86.7565 36.8104C86.7194 34.3605 86.7379 31.8921 86.7379 29.4422C86.7379 29.4608 86.7565 29.4608 86.7565 29.4608Z" fill="#FFF3E0"/>
<path d="M121.958 28.4586C121.958 25.619 121.977 22.7608 121.939 19.9212C121.939 19.1974 122.144 18.8447 122.905 18.8447C124.334 18.8633 124.557 18.9746 124.557 19.9212C124.576 25.6746 124.576 31.4281 124.594 37.1816C124.594 37.7569 124.353 38.0353 123.815 38.0724C123.629 38.091 123.443 38.091 123.276 38.091C121.995 38.1095 121.958 38.1095 121.958 36.8104C121.958 34.0264 121.958 31.2425 121.958 28.4586Z" fill="#FFF3E0"/>
<path d="M100.031 28.5886C100.031 31.4282 99.9937 34.2864 100.049 37.126C100.068 38.1282 99.5109 38.1097 98.824 38.0911C98.1742 38.0726 97.5244 38.1468 97.5244 37.1631C97.543 32.3748 97.543 27.5864 97.5615 22.798C97.5615 21.8886 97.5244 20.9792 97.543 20.0698C97.543 19.0119 97.7101 18.9191 98.8797 18.8634C99.7709 18.8077 100.086 19.2161 100.086 20.0327C100.086 22.8723 100.086 25.7305 100.086 28.5701C100.068 28.5886 100.049 28.5886 100.031 28.5886Z" fill="#FFF3E0"/>
<path d="M57.0893 43.9555C57.0893 43.8998 57.0893 43.8441 57.0893 43.7699C57.0893 42.1552 57.2378 42.0439 58.8159 42.1552C59.54 42.2109 59.9484 42.5078 59.9299 43.2688C59.9299 43.5472 59.967 43.807 59.9856 44.0854C60.0784 45.4959 59.8742 45.7372 58.4632 45.7558C57.1079 45.7743 57.0522 45.6815 57.0893 43.9555ZM58.556 43.8441C58.2775 44.1782 58.1104 44.4009 57.9433 44.6236C58.1476 44.7721 58.3332 45.0319 58.5374 45.0319C58.7231 45.0319 59.0387 44.7536 59.0573 44.5865C59.0573 44.3824 58.7974 44.1782 58.556 43.8441Z" fill="#FFF3E0"/>
<path d="M36.6303 45.6448C36.4261 45.5335 36.2776 45.5149 36.2405 45.4407C35.8506 44.8282 35.4793 43.9745 34.9966 45.385C34.978 45.4592 34.7552 45.5706 34.7181 45.5335C34.5881 45.4407 34.4024 45.2922 34.3839 45.1808C34.3653 44.3456 34.2539 43.4548 34.4581 42.6567C34.6809 41.7844 35.5721 42.0999 36.1848 42.2113C36.7603 42.3041 37.1502 42.8052 36.8903 43.3434C36.5746 43.993 36.5004 44.5684 36.7603 45.1994C36.7789 45.2922 36.686 45.4221 36.6303 45.6448Z" fill="#FFF3E0"/>
<path d="M80.1114 43.6028C80.1857 43.1574 80.2599 42.7305 80.3527 42.2851C80.4641 42.2665 80.557 42.248 80.6684 42.248C80.7798 42.5449 80.9468 42.8419 80.9654 43.1388C81.0025 43.7142 80.9654 44.2895 80.8911 44.8649C80.854 45.0876 80.6498 45.3103 80.5384 45.5145C80.297 45.366 80.0371 45.2361 79.8143 45.069C79.7029 44.9762 79.7215 44.7721 79.6287 44.6607C79.4616 44.4751 79.2574 44.3452 79.0531 44.1782C78.9417 44.4009 78.8118 44.605 78.7004 44.8278C78.589 45.0505 78.4962 45.2546 78.3848 45.4773C78.2548 45.2361 78.032 45.0133 78.0135 44.7721C77.9763 44.1039 77.9949 43.4358 78.0506 42.7676C78.0692 42.5635 78.2548 42.2665 78.4219 42.2294C78.5704 42.1923 78.8489 42.3779 78.9974 42.5264C79.3131 42.8976 79.573 43.3244 79.8515 43.7142C79.9257 43.6956 80.0186 43.6585 80.1114 43.6028Z" fill="#FFF3E0"/>
<path d="M91.9368 42.6751C91.6583 42.7308 91.3613 42.7679 91.1014 42.8607C90.8786 42.9535 90.6744 43.102 90.4701 43.2319C90.6558 43.3804 90.8414 43.5474 91.0457 43.6959C91.1385 43.7701 91.2499 43.8073 91.4912 43.9372C91.2313 44.0671 91.0828 44.1599 90.9343 44.2527C90.7486 44.3641 90.5815 44.4754 90.4144 44.6053C90.6187 44.7538 90.7858 44.9394 91.0085 45.0136C91.2313 45.0879 91.5098 44.9951 91.7326 45.0693C91.8997 45.125 92.0297 45.292 92.1782 45.4034C92.0297 45.5333 91.8811 45.756 91.7326 45.756C91.1571 45.7746 90.563 45.8117 90.006 45.6818C89.7646 45.6261 89.5047 45.1807 89.4676 44.9023C89.3933 44.2527 89.4676 43.566 89.4676 42.8978C89.4676 42.3782 89.7089 42.0812 90.2288 42.1183C90.8043 42.1369 91.3613 42.2111 91.9368 42.2483C91.9368 42.3967 91.9368 42.5267 91.9368 42.6751Z" fill="#FFF3E0"/>
<path d="M46.172 42.4151C46.2463 42.675 46.3391 42.9162 46.3762 43.1761C46.4134 43.3431 46.2834 43.5658 46.3577 43.7143C46.5805 44.1597 46.859 44.9207 47.1374 44.9207C47.8615 44.9578 47.6573 44.2154 47.6944 43.7329C47.7501 43.2503 47.7687 42.7492 47.8058 42.0625C48.5484 42.7492 48.6784 44.2711 48.27 45.1248C47.9172 45.8301 47.2303 45.8672 46.6176 45.6445C46.2649 45.5331 45.8193 45.1434 45.7821 44.8093C45.6522 44.0484 45.745 43.2503 45.745 42.4522C45.875 42.4522 46.0235 42.4337 46.172 42.4151Z" fill="#FFF3E0"/>
<path d="M101.071 42.3037C101.907 42.3037 102.761 42.3037 103.596 42.3037C102.427 42.9347 102.854 43.9741 102.779 44.8835C102.761 45.1248 102.519 45.3475 102.39 45.5887C102.241 45.3475 101.963 45.0876 101.963 44.8464C101.925 43.9555 102.204 42.9904 100.941 42.5821C100.997 42.4893 101.034 42.3965 101.071 42.3037Z" fill="#FFF3E0"/>
<path d="M115.051 42.6379C114.16 43.0091 114.049 43.6216 114.234 44.3825C114.29 44.6053 114.29 44.8837 114.216 45.1064C114.16 45.2734 113.937 45.3662 113.807 45.4961C113.677 45.3476 113.547 45.2177 113.455 45.0507C113.417 44.9764 113.455 44.8651 113.455 44.7909C113.473 43.9186 113.603 43.0091 112.582 42.508C113.362 41.9698 114.457 42.0255 115.051 42.6379Z" fill="#FFF3E0"/>
<path d="M69.4345 43.8998C69.4345 44.2896 69.4902 44.6979 69.416 45.0691C69.3788 45.2547 69.1375 45.4032 68.9889 45.5702C68.859 45.4032 68.6176 45.2361 68.5991 45.0505C68.5434 44.3267 68.5248 43.6029 68.5805 42.8791C68.5991 42.6749 68.859 42.4893 69.0075 42.2852C69.156 42.4893 69.3788 42.6749 69.4345 42.8976C69.4902 43.2131 69.4345 43.5658 69.4345 43.8998Z" fill="#FFF3E0"/>
<path d="M124.76 44.1039C124.593 44.5494 124.426 44.9948 124.259 45.4402C124.166 44.9762 124.036 44.5308 123.962 44.0668C123.906 43.7142 123.869 43.343 123.888 42.9904C123.906 42.8233 124.092 42.6934 124.222 42.5264C124.352 42.6563 124.593 42.7862 124.612 42.9347C124.649 43.2873 124.593 43.6585 124.575 44.0111C124.63 44.0483 124.686 44.0668 124.76 44.1039Z" fill="#FFF3E0"/>
<path d="M53.7481 30.1292C53.1355 30.1292 52.5414 30.1106 51.9287 30.1292C51.2418 30.1478 50.9633 29.8508 51.2046 29.1827C51.9844 27.0297 52.7827 24.8583 53.581 22.7054C53.6367 22.5569 53.9338 22.3342 53.9895 22.3713C54.1752 22.4827 54.3794 22.6682 54.4536 22.8724C54.9363 24.3015 55.3819 25.7491 55.8461 27.1782C56.0503 27.8092 56.2731 28.4403 56.4773 29.0713C56.7558 29.9993 56.6815 30.1106 55.679 30.1292C55.0106 30.1478 54.3794 30.1292 53.7481 30.1292Z" fill="#1A130D"/>
<path d="M58.5551 43.8447C58.7779 44.1788 59.0563 44.383 59.0378 44.5685C59.0192 44.7356 58.7222 45.014 58.5179 45.014C58.3323 45.014 58.1281 44.7541 57.9238 44.6057C58.1095 44.4015 58.2951 44.1788 58.5551 43.8447Z" fill="#1A130D"/>
</g>
<defs>
<clipPath id="clip0_608_4831">
<rect width="137" height="61" fill="white"/>
</clipPath>
</defs>
</svg>
