<svg width="162" height="61" viewBox="0 0 162 61" fill="none" xmlns="http://www.w3.org/2000/svg">
<path d="M0 0C54.2295 0 108.459 0 162.689 0C162.689 20.6209 162.689 41.2419 162.689 61.8628C108.459 61.8628 54.2295 61.8628 0 61.8628C0 41.2419 0 20.6209 0 0ZM121.199 26.3154C121.371 26.3154 121.457 26.3154 121.629 26.3154C123.265 27.6959 124.814 29.1627 126.45 30.5431C127.827 31.6648 129.118 31.8373 130.237 30.8883C131.098 30.198 131.7 30.198 132.475 30.802C133.594 31.6648 134.799 31.6648 135.918 30.8883C136.951 30.198 137.64 29.2489 137.554 27.8685C137.554 27.3508 137.64 26.9194 137.64 26.0566C138.328 26.6605 138.845 27.0919 139.275 27.4371C142.116 30.198 141.169 29.5078 143.923 27.3508C144.354 27.0057 144.784 26.7468 145.301 26.488C145.387 27.0057 145.559 27.4371 145.559 27.9547C145.731 29.8529 147.281 31.5785 148.83 31.4922C150.465 31.4059 152.273 29.8529 152.187 27.8685C152.101 24.331 152.187 20.8798 152.187 17.3423C152.187 15.703 151.498 14.4951 150.035 13.8048C148.572 13.1146 147.453 13.7185 146.42 14.6676C145.129 15.8755 143.751 16.9972 142.546 18.2914C141.772 19.0679 141.255 18.9816 140.48 18.2914C139.103 16.9972 137.726 15.6167 136.262 14.4088C134.369 12.942 132.733 13.2008 131.442 15.2716C130.84 16.2207 130.409 16.0481 129.807 15.3579C128.515 13.9774 126.88 13.546 125.158 13.546C123.179 13.4597 121.199 13.546 119.305 13.546C116.12 13.546 115.259 14.3225 114.657 17.4286C114.657 17.5149 114.485 17.5149 114.312 17.7737C113.71 17.0835 113.107 16.3932 112.419 15.7893C109.492 13.3734 105.963 13.3734 102.434 13.8048C100.798 13.9774 99.1626 14.495 97.9575 15.7893C97.2689 16.4795 96.7524 16.1344 96.322 15.4441C95.5473 14.1499 94.2561 13.6322 92.7928 13.6322C89.6079 13.6322 86.509 13.546 83.3241 13.6322C82.2912 13.6322 81.1721 14.0636 80.2253 14.495C79.5367 14.8402 79.1063 14.8402 78.5037 14.4088C76.9543 13.2871 76.0935 13.3734 74.6302 14.495C73.5972 15.2716 72.6504 16.1344 71.7896 17.0835C71.101 17.7737 70.5845 18.0325 69.8098 17.1697C68.949 16.2207 67.916 15.3579 66.8831 14.6676C66.2805 14.2362 65.1615 13.546 64.7311 13.8048C62.6652 14.8402 60.8576 13.9774 58.7917 13.7185C55.2625 13.2871 51.6472 13.546 48.0319 13.6322C45.7938 13.6322 44.4166 15.1853 44.4166 17.4286C44.4166 19.4993 44.4166 21.6563 44.4166 23.727C44.4166 24.2447 44.3305 24.6761 44.2444 24.9349C42.7811 24.8487 41.576 24.6761 40.3709 24.6761C38.8215 24.5898 37.272 24.5898 35.8087 24.6761C34.6897 24.6761 34.2593 24.331 34.2593 23.2093C34.3454 21.1386 34.3454 19.0679 34.2593 16.9972C34.1732 15.1853 32.1073 13.0283 30.7301 13.7185C28.7503 14.6676 27.2869 13.9774 25.3932 13.7185C21.6918 13.2871 17.9904 13.546 14.203 13.6322C12.3953 13.6322 10.8459 14.9264 10.8459 16.7383C10.7598 20.7072 10.7598 24.6761 10.8459 28.645C10.8459 30.1117 12.5675 31.4922 13.9447 31.5785C15.2359 31.6648 16.8714 30.3706 17.2157 28.9901C17.474 27.9547 17.3018 26.5743 17.9044 26.0566C18.5069 25.5389 19.8842 25.884 20.9171 25.7977C23.1552 25.5389 24.4463 23.5545 23.7577 21.4837C23.6716 21.2249 23.6716 20.9661 23.5855 20.6209C24.8767 20.4484 25.9957 20.1895 27.373 20.017C27.373 22.5191 27.373 24.9349 27.373 27.2645C27.2869 29.6803 28.7503 31.4059 31.0744 31.4922C34.6036 31.5785 38.0468 31.5785 41.576 31.4922C42.6089 31.4059 43.6419 30.3706 44.6748 30.3706C45.7938 30.3706 46.8268 31.4059 47.9458 31.4059C51.475 31.5785 55.0042 31.4922 58.5335 31.4059C59.2221 31.4059 59.9968 31.1471 60.5133 30.7157C61.288 30.1117 61.8045 30.1117 62.4931 30.6294C63.8703 31.6648 65.0754 31.5785 66.4527 30.5431C67.4856 29.7666 68.4325 28.9038 69.3794 27.9547C70.2402 27.0057 70.8427 27.1782 71.6174 28.041C72.3921 28.9038 73.339 29.6803 74.1998 30.4569C75.6631 31.6648 76.7821 31.7511 78.3316 30.6294C78.9341 30.198 79.2784 30.1117 79.9671 30.5431C82.2912 32.1825 84.8735 31.0608 85.39 28.2136C85.8204 25.7977 85.8204 25.7977 88.2306 25.7977C88.4888 25.7977 88.8332 25.7977 89.0914 25.7977C90.899 25.6252 92.3624 23.6407 91.932 21.9151C91.8459 21.4837 91.8459 20.7072 91.8459 20.6209C92.5345 20.4484 93.3092 20.3621 94.084 20.4484C94.2561 20.4484 94.4283 21.3112 94.3422 21.8289C94.17 24.6761 95.1169 27.0919 97.1828 28.9901C100.454 32.0099 104.327 31.8373 108.287 31.1471C110.439 30.802 112.247 29.6803 113.452 27.8685C113.624 27.6096 114.054 27.5233 114.399 27.3508C114.829 30.1117 115.948 31.6648 117.669 31.4922C120.94 31.3197 121.543 29.0764 121.199 26.3154ZM16.8714 49.7836C17.0436 49.7836 17.2157 49.8699 17.3018 49.8699C17.3879 49.6973 17.6461 49.611 17.6461 49.4385C17.6461 47.6266 17.7322 45.8147 17.6461 44.0028C17.6461 43.744 17.2157 43.3989 17.0436 43.3989C16.7853 43.3989 16.3549 43.6577 16.1828 44.0028C15.7524 44.9519 15.4942 45.9873 15.1498 46.9364C14.9777 47.2815 14.5473 47.5403 14.203 47.8854C13.9447 47.5403 13.6865 47.2815 13.5143 46.9364C13.084 45.9873 12.8257 45.0382 12.3953 44.1754C12.2232 43.8303 11.7928 43.6577 11.5345 43.3989C11.2763 43.744 10.932 44.0891 10.8459 44.5205C10.7598 45.8147 10.7598 47.1952 10.7598 48.4894C10.7598 48.9208 10.932 49.3522 11.1041 49.7836C11.2763 49.7836 11.4485 49.7836 11.5345 49.7836C11.6206 48.5757 11.7067 47.3678 11.7928 46.1598C11.9649 46.1598 12.051 46.1598 12.2232 46.1598C12.6536 47.1089 12.9979 48.1443 13.4283 49.0934C13.6004 49.4385 13.9447 49.6973 14.203 49.9562C14.4612 49.6973 14.8055 49.3522 14.9777 49.0071C15.4081 48.058 15.8385 47.1089 16.1828 46.0736C16.3549 46.0736 16.5271 46.1598 16.6993 46.1598C16.8714 47.454 16.8714 48.5757 16.8714 49.7836ZM31.5909 46.505C31.6769 44.1754 28.8363 42.2772 26.6844 43.3126C26.3401 43.4851 25.9957 43.9165 25.9957 44.2617C25.9097 45.7284 25.9097 47.2815 25.9097 48.8345C25.9097 49.6973 26.4261 50.1287 27.373 50.215C29.525 50.3013 31.8491 49.4385 31.5909 46.505ZM49.6674 47.7129C49.4091 47.7992 49.1509 47.9717 48.9787 48.058C48.7205 47.6266 48.3762 47.1952 48.118 46.7638C47.5154 45.8147 46.9129 44.8656 46.2242 43.9166C46.0521 43.6577 45.7078 43.3989 45.4495 43.3989C45.1913 43.3989 44.847 43.8303 44.847 44.0891C44.7609 45.7284 44.7609 47.3678 44.7609 49.0071C44.7609 49.1796 45.0191 49.4385 45.1913 49.611C45.2774 49.611 45.3634 49.611 45.5356 49.5248C45.5356 48.2306 45.5356 46.9364 45.5356 45.297C46.1382 45.7284 46.5685 45.901 46.8268 46.3324C47.5154 47.3678 48.118 48.4031 48.8927 49.4385C49.0648 49.6973 49.5813 49.9562 49.8395 49.8699C50.0978 49.7836 50.2699 49.3522 50.356 49.0071C50.4421 48.3168 50.5282 47.5403 50.4421 46.8501C50.4421 45.7284 50.356 44.6068 50.2699 43.4852C50.0978 43.4852 49.8395 43.4852 49.6674 43.4852C49.6674 44.9519 49.6674 46.3324 49.6674 47.7129ZM37.186 49.9562C37.186 49.7836 37.186 49.5248 37.186 49.3522C36.5834 49.3522 35.8948 49.4385 35.2922 49.1796C34.7758 49.0071 34.1732 48.4894 34.0871 47.9717C33.915 47.1952 34.4315 46.7638 35.3783 46.9364C35.9809 47.0226 36.5834 46.8501 37.186 46.8501C37.186 46.6775 37.186 46.4187 37.186 46.2461C36.5834 46.1598 35.8948 46.2461 35.3783 46.0736C34.8618 45.901 34.5175 45.4696 34.0871 45.1245C34.5175 44.7794 34.7758 44.1754 35.2922 44.0028C35.8948 43.8303 36.5834 43.9166 37.272 43.9166C37.272 43.744 37.2721 43.4851 37.3581 43.3126C36.5834 43.2263 35.7226 43.0538 34.9479 43.0538C33.2264 43.0538 32.882 43.4852 33.0542 45.2108C33.1403 46.0736 32.9681 46.9364 33.1403 47.7992C33.2264 48.5757 33.3985 49.7836 33.8289 49.8699C34.7758 50.3013 36.067 50.6464 37.186 49.9562ZM24.1881 50.1287C24.3603 50.0424 24.4463 50.0424 24.6185 49.9562C24.6185 49.611 24.7906 49.1796 24.7046 48.9208C24.0159 47.1952 23.3273 45.4696 22.4665 43.8303C22.0361 43.0537 21.4336 43.3126 21.0893 44.0891C20.4867 45.5559 19.8842 47.1089 19.2816 48.5757C19.1095 49.0071 19.0234 49.3522 18.8512 49.8699C20.4006 49.8699 19.8842 47.7992 21.6918 47.9717C23.3273 48.1443 23.5855 49.1796 24.1881 50.1287ZM67.4857 50.0424C67.6578 49.9562 67.7439 49.9562 67.916 49.8699C67.83 49.3522 67.83 48.7482 67.5717 48.2306C67.0553 46.9364 66.5388 45.5559 65.9362 44.2617C65.7641 43.9165 65.4198 43.4852 65.0754 43.4852C64.7311 43.4852 64.3868 43.9165 64.2147 44.2617C63.526 45.8147 62.9235 47.454 62.3209 49.0071C62.2349 49.2659 62.407 49.611 62.407 49.8699C63.3539 49.1796 64.1286 48.4031 65.0754 48.1443C66.5388 47.5403 66.7109 49.2659 67.4857 50.0424ZM75.577 49.9562C75.8353 49.9562 76.0074 49.8699 76.2657 49.8699C76.61 48.7482 76.6961 47.454 77.2125 46.4187C78.5898 43.8303 78.6759 43.8303 78.4176 43.2263C77.9012 43.8303 77.4708 44.3479 77.1265 44.8656C76.3518 46.0736 76.0935 46.0736 75.3188 44.8656C75.0606 44.4342 74.8884 44.0028 74.5441 43.6577C74.3719 43.4851 74.0276 43.4851 73.8555 43.3989C73.7694 43.6577 73.5972 44.0028 73.6833 44.1754C74.8023 45.9873 76.0074 47.6266 75.577 49.9562ZM62.3209 43.8303C62.2349 43.5714 62.1488 43.3126 62.1488 43.14C60.7715 43.14 59.3943 43.14 58.017 43.14C57.8448 43.14 57.5866 43.4851 57.6727 43.6577C57.7588 43.8303 58.017 44.1754 58.1892 44.1754C59.3082 44.0028 59.3082 44.8656 59.3082 45.5559C59.3082 46.5912 59.2221 47.6266 59.3082 48.662C59.3082 49.0934 59.6525 49.4385 59.8247 49.7836C59.9968 49.4385 60.3411 49.0071 60.3411 48.662C60.4272 47.9717 60.3411 47.1952 60.3411 46.505C60.255 45.2108 60.169 43.9165 62.3209 43.8303ZM73.7694 49.6973C72.9947 49.5248 72.5643 49.3522 72.22 49.4385C70.4984 49.6973 70.2402 48.662 70.3262 47.2815C70.3262 46.7638 70.3262 46.2461 70.3262 45.7284C70.3262 45.0382 70.2402 44.3479 70.1541 43.6577C69.9819 43.6577 69.8098 43.6577 69.6376 43.6577C69.5515 44.0028 69.2933 44.348 69.2933 44.7794C69.2072 45.901 69.2933 47.0226 69.2933 48.058C69.2933 50.1287 71.187 51.0778 73.7694 49.6973ZM42.6089 43.6577C41.7481 44.5205 41.8342 48.9208 42.695 49.6973C43.3836 48.662 43.2976 44.5205 42.6089 43.6577ZM55.6068 49.8699C56.3815 48.7482 56.2954 44.5205 55.5207 43.6577C54.746 44.5205 54.746 48.662 55.6068 49.8699Z" fill="#1A130D"/>
<path d="M121.198 26.3154C121.543 29.1626 120.94 31.3196 117.841 31.5784C116.034 31.751 115.001 30.198 114.57 27.437C114.226 27.6096 113.796 27.6958 113.623 27.9547C112.332 29.7666 110.525 30.8882 108.459 31.2333C104.499 31.8373 100.626 32.0961 97.3546 29.0763C95.2887 27.0919 94.2557 24.7623 94.514 21.9151C94.514 21.4837 94.4279 20.6209 94.2557 20.5346C93.5671 20.4483 92.7924 20.5346 92.0177 20.7072C91.9316 20.7072 91.9316 21.57 92.1038 22.0014C92.5342 23.727 91.0708 25.7977 89.2632 25.884C89.0049 25.884 88.6606 25.884 88.4024 25.884C85.9922 25.884 85.9922 25.884 85.5618 28.2998C85.1314 31.147 82.463 32.355 80.1388 30.6294C79.4502 30.198 79.1059 30.2842 78.5033 30.7156C76.9539 31.8373 75.8349 31.751 74.3716 30.5431C73.4247 29.7666 72.5639 28.99 71.7892 28.1272C71.0145 27.2644 70.4119 27.1782 69.5512 28.041C68.6904 28.99 67.6574 29.7666 66.6245 30.6294C65.3333 31.6647 64.0421 31.751 62.6649 30.7156C61.8902 30.198 61.3737 30.198 60.6851 30.8019C60.1686 31.2333 59.3939 31.4059 58.7052 31.4922C55.176 31.5784 51.6468 31.6647 48.1176 31.4922C46.9986 31.4059 45.9656 30.4568 44.8466 30.4568C43.8136 30.4568 42.7807 31.4922 41.7478 31.5784C38.3046 31.751 34.7754 31.6647 31.2462 31.5784C28.922 31.4922 27.4587 29.7666 27.5448 27.3507C27.6309 24.9349 27.5448 22.6053 27.5448 20.1032C26.1675 20.362 24.9624 20.5346 23.7573 20.7072C23.8434 21.0523 23.8434 21.3111 23.9295 21.57C24.6181 23.727 23.3269 25.7114 21.0889 25.884C20.0559 25.9702 18.6787 25.6251 18.0761 26.1428C17.4736 26.6605 17.6457 28.041 17.3875 29.0763C17.0432 30.4568 15.4077 31.6647 14.1165 31.6647C12.6532 31.5784 11.0177 30.198 11.0177 28.7312C10.9316 24.7623 10.9316 20.7934 11.0177 16.8245C11.1038 15.0127 12.5671 13.8047 14.3748 13.7185C18.0761 13.6322 21.8636 13.3733 25.565 13.8047C27.3726 14.0636 28.922 14.6675 30.9018 13.8047C32.2791 13.1145 34.345 15.2715 34.4311 17.0834C34.5172 19.1541 34.5172 21.2248 34.4311 23.2956C34.4311 24.4172 34.8615 24.8486 35.9805 24.7623C37.5299 24.676 39.0793 24.676 40.5427 24.7623C41.7478 24.7623 42.9529 24.9349 44.4162 25.0212C44.4162 24.7623 44.5884 24.2446 44.5884 23.8132C44.5884 21.7425 44.5884 19.5855 44.5884 17.5148C44.5884 15.2715 45.9656 13.7185 48.2037 13.7185C51.819 13.6322 55.4343 13.3733 58.9635 13.8047C60.9433 14.0636 62.837 14.9264 64.9029 13.891C65.3333 13.6322 66.3662 14.3224 67.0549 14.7538C68.0878 15.5303 69.0347 16.3931 69.9816 17.2559C70.7563 18.0325 71.2727 17.8599 71.9614 17.1697C72.8221 16.2206 73.769 15.3578 74.802 14.5813C76.3514 13.3733 77.2122 13.3733 78.6755 14.495C79.3641 14.9264 79.7084 14.9264 80.3971 14.5813C81.3439 14.0636 82.463 13.7185 83.4959 13.7185C86.6808 13.6322 89.7796 13.7185 92.9645 13.7185C94.4279 13.7185 95.7191 14.2361 96.4938 15.5303C96.9242 16.2206 97.4406 16.5657 98.1293 15.8755C99.3344 14.5813 100.97 14.0636 102.605 13.891C106.135 13.5459 109.578 13.4596 112.59 15.8755C113.279 16.4794 113.882 17.1697 114.484 17.8599C114.742 17.6873 114.829 17.6011 114.829 17.5148C115.431 14.4087 116.292 13.7185 119.477 13.6322C121.457 13.6322 123.436 13.6322 125.33 13.6322C127.138 13.6322 128.773 14.0636 129.978 15.4441C130.581 16.1343 131.097 16.2206 131.614 15.3578C132.905 13.3733 134.627 13.0282 136.434 14.495C137.898 15.7029 139.275 16.9971 140.652 18.3776C141.341 19.0678 141.943 19.1541 142.718 18.3776C143.923 17.0834 145.3 15.9617 146.592 14.7538C147.624 13.8047 148.83 13.2008 150.207 13.891C151.756 14.5813 152.359 15.7892 152.359 17.4285C152.359 20.966 152.273 24.4172 152.359 27.9547C152.445 29.9391 150.637 31.4922 149.002 31.5784C147.366 31.6647 145.817 29.9391 145.731 28.041C145.731 27.5233 145.559 27.0919 145.473 26.5742C145.042 26.833 144.526 27.0919 144.095 27.437C141.341 29.594 142.288 30.2842 139.447 27.5233C139.017 27.0919 138.586 26.7468 137.812 26.1428C137.725 26.9193 137.639 27.437 137.725 27.9547C137.812 29.3352 137.123 30.2842 136.09 30.9745C134.971 31.751 133.766 31.8373 132.647 30.8882C131.872 30.2842 131.27 30.2842 130.409 30.9745C129.29 31.9236 127.999 31.751 126.621 30.6294C124.986 29.2489 123.436 27.7821 121.801 26.4016C121.457 26.3154 121.284 26.3154 121.198 26.3154ZM132.13 22.6053C132.216 22.6053 132.216 22.6053 132.13 22.6053C132.216 24.4172 132.13 26.2291 132.216 28.041C132.216 29.3352 133.077 30.198 134.196 30.198C135.401 30.1117 136.176 29.2489 136.262 28.041C136.262 27.0056 136.262 26.0565 136.348 25.0212C136.434 23.9858 136.951 23.727 137.725 24.4172C138.672 25.28 139.619 26.1428 140.566 27.0919C141.255 27.7821 141.857 27.7821 142.546 27.0919C143.407 26.2291 144.353 25.3663 145.3 24.5898C145.559 24.3309 146.161 24.0721 146.419 24.2446C146.678 24.3309 146.85 24.9349 146.936 25.28C147.022 26.2291 147.022 27.1782 147.022 28.1272C147.022 29.1626 147.538 29.8528 148.571 30.1117C149.949 30.4568 151.068 29.4214 151.068 27.6958C151.068 24.3309 151.154 20.966 150.982 17.6011C150.982 16.8245 150.465 15.7892 149.776 15.3578C149.002 14.7538 147.969 15.0989 147.194 15.8755C145.731 17.2559 144.095 18.6364 142.632 20.0169C141.943 20.7072 141.427 20.8797 140.652 20.1032C139.103 18.6364 137.553 17.0834 135.832 15.7892C135.229 15.3578 134.11 15.0989 133.422 15.3578C132.819 15.6166 132.389 16.652 132.302 17.4285C132.044 19.1541 132.13 20.8797 132.13 22.6053ZM105.102 30.1117C106.049 30.0254 106.995 30.0254 107.942 29.9391C111.127 29.4214 113.623 26.9193 114.14 23.8132C114.656 20.4483 113.193 17.5148 110.18 15.9617C107.684 14.6675 105.102 15.0989 102.433 15.1852C99.5065 15.3578 97.3546 16.9108 96.4077 19.4992C95.2887 22.4328 95.5469 25.4526 97.9571 27.8684C99.9369 29.9391 102.433 30.198 105.102 30.1117ZM53.4545 30.0254C55.2621 30.0254 57.0698 30.0254 58.8774 30.0254C60.0825 30.0254 60.9433 29.3352 61.0294 28.1272C61.1155 26.833 60.2547 26.2291 59.1356 26.0565C58.7913 25.9702 58.447 26.0565 58.1027 26.0565C55.7786 26.0565 53.5405 26.1428 51.2164 26.0565C50.786 26.0565 50.4417 25.6251 50.0113 25.3663C50.4417 25.1074 50.8721 24.676 51.3025 24.676C52.2494 24.5898 53.1962 24.676 54.1431 24.676C55.3482 24.676 56.2951 23.8132 56.2951 22.6916C56.2951 21.57 55.5203 20.7934 54.1431 20.7072C53.0241 20.7072 51.905 20.7071 50.8721 20.6209C50.5278 20.6209 50.1835 20.1895 49.9252 20.0169C50.2695 19.7581 50.5278 19.4129 50.8721 19.2404C51.1303 19.1541 51.5607 19.2404 51.905 19.2404C54.057 19.2404 56.209 19.2404 58.3609 19.2404C59.9964 19.2404 60.9433 18.4639 61.0294 17.2559C61.1155 16.048 60.1686 15.2715 58.3609 15.2715C55.0039 15.2715 51.6468 15.2715 48.3758 15.2715C46.3099 15.2715 45.7074 15.9617 45.7074 17.9462C45.7074 21.2248 45.7074 24.4172 45.7074 27.6958C45.7074 29.3352 46.4821 30.1117 48.0315 30.1117C49.7531 30.0254 51.6468 30.0254 53.4545 30.0254ZM116.034 22.6053C116.034 24.4172 115.948 26.2291 116.034 28.041C116.034 29.3352 116.808 30.1117 117.927 30.1117C119.132 30.1117 119.907 29.4214 119.993 28.2135C120.079 27.2644 119.993 26.3154 120.079 25.3663C120.079 24.9349 120.338 24.5035 120.51 24.0721C120.94 24.2446 121.457 24.3309 121.715 24.5898C123.436 26.0565 125.072 27.6096 126.707 29.0763C127.826 30.1117 129.118 30.2842 129.978 29.3352C130.925 28.3861 130.753 27.2644 129.462 26.1428C127.74 24.5035 127.654 24.5035 129.204 22.7779C130.495 21.3111 130.667 19.6718 129.978 17.9462C129.29 16.3069 128.085 15.1852 126.191 15.0989C123.522 15.0127 120.854 15.0127 118.186 15.0989C116.636 15.0989 116.034 15.7892 116.034 17.3422C116.034 19.1541 116.034 20.8797 116.034 22.6053ZM76.6096 30.3705C77.2982 29.7666 78.159 29.4214 78.3312 28.8175C78.5894 28.2135 78.4173 27.2644 77.9869 26.7468C76.9539 25.5388 75.7488 24.5898 74.5437 23.4681C73.8551 22.8642 73.8551 22.2602 74.5437 21.6562C75.4906 20.7072 76.4374 19.8443 77.4704 18.8953C78.6755 17.7736 78.9337 16.7383 78.159 15.7892C77.2982 14.7538 76.0071 14.7538 74.888 15.7029C73.8551 16.5657 72.9082 17.5148 71.9614 18.4639C70.6702 19.6718 70.498 19.6718 69.1208 18.4639C68.0878 17.5148 67.0549 16.4794 65.9359 15.6166C64.989 14.8401 63.9561 14.8401 63.0953 15.7029C62.2345 16.5657 62.4066 17.5148 63.1813 18.3776C63.4396 18.7227 63.7839 18.9815 64.0421 19.3267C64.9029 20.1032 65.6776 20.8797 66.5384 21.6562C67.141 22.2602 67.227 22.7779 66.5384 23.2956C65.5055 24.2446 64.3864 25.1937 63.4396 26.2291C62.6649 27.0919 62.0623 28.041 63.0092 29.1626C63.87 30.1117 64.989 30.198 66.1941 29.1626C67.3131 28.1272 68.4321 27.0919 69.5512 26.0565C70.2398 25.3663 70.8423 25.3663 71.531 26.0565C72.3057 26.9193 73.1665 27.6958 74.0272 28.4724C74.7159 29.1626 75.5767 29.6803 76.6096 30.3705ZM87.972 15.0989C86.7669 15.0989 85.4757 15.0989 84.2706 15.0989C80.4831 15.0989 80.2249 15.2715 80.1388 19.0678C80.1388 19.2404 80.1388 19.3267 80.1388 19.4992C80.1388 22.3465 80.1388 25.1074 80.1388 27.9547C80.1388 29.4214 80.9996 30.198 82.2908 30.1117C83.582 30.0254 84.0984 29.2489 84.1845 28.041C84.1845 27.5233 84.1845 27.0919 84.1845 26.5742C84.2706 25.28 84.8732 24.5035 86.2504 24.5898C87.1112 24.5898 87.972 24.676 88.8328 24.5898C89.8657 24.5035 90.8126 23.4681 90.8126 22.519C90.8126 21.3974 89.9518 20.6209 88.7467 20.6209C87.6277 20.6209 86.4226 20.6209 85.3036 20.5346C84.9592 20.5346 84.701 20.1032 84.3567 19.9306C84.701 19.6718 84.9592 19.3267 85.3896 19.1541C85.5618 19.0678 85.82 19.1541 86.0783 19.1541C88.4024 19.1541 90.6404 19.1541 92.8785 19.1541C94.3418 19.1541 95.4608 18.2913 95.3748 17.1697C95.3748 15.8755 94.6 15.2715 92.8785 15.1852C91.3291 15.0989 89.6075 15.0989 87.972 15.0989ZM19.7116 15.0989C17.8179 15.1852 16.0102 15.0989 14.1165 15.1852C12.7393 15.1852 12.1367 16.048 12.0506 17.2559C11.9645 20.7072 11.9645 24.2446 11.9645 27.6958C11.9645 29.0763 12.9114 29.9391 14.0304 29.9391C15.3216 29.9391 15.8381 29.3352 15.9242 27.7821C15.9242 27.3507 15.9242 26.9193 16.0102 26.4879C16.0963 25.1074 16.6989 24.5035 18.0761 24.5035C18.8508 24.5035 19.7116 24.5898 20.4863 24.5898C21.6054 24.5898 22.6383 23.5544 22.6383 22.519C22.6383 21.4837 21.8636 20.6209 20.6585 20.5346C19.6255 20.5346 18.6787 20.6209 17.6457 20.5346C17.1293 20.4483 16.6989 20.1032 16.2685 19.8443C16.6989 19.5855 17.2153 19.0678 17.6457 19.0678C19.9699 18.9815 22.294 19.0678 24.6181 18.9815C26.0814 18.9815 27.1144 18.205 27.2005 16.9971C27.2865 15.7892 26.2536 15.0127 24.7042 15.0127C23.1548 15.0989 21.4332 15.0989 19.7116 15.0989ZM36.497 30.0254C36.497 29.9391 36.497 29.9391 36.497 30.0254C38.4768 29.9391 40.4566 29.9391 42.5225 29.9391C43.5554 29.9391 44.158 29.1626 44.158 28.2998C44.158 27.6958 43.7276 26.833 43.125 26.4879C42.4364 26.0565 41.4895 26.0565 40.6287 26.0565C38.735 25.9702 36.8413 26.1428 34.9475 26.0565C33.3981 25.9702 32.9677 25.4526 32.8817 23.8995C32.8817 21.7425 32.8817 19.4992 32.8817 17.3422C32.8817 16.048 32.0209 15.1852 30.9018 15.0989C29.7828 15.0127 28.922 15.8755 28.922 17.2559C28.836 20.7934 28.836 24.4172 28.922 27.9547C28.922 29.3352 29.7828 30.0254 31.1601 30.0254C32.9677 30.0254 34.6893 30.0254 36.497 30.0254ZM57.7584 23.5544C57.5862 23.6407 57.5001 23.8132 57.328 23.8995C57.7584 24.1584 58.1027 24.4172 58.5331 24.5898C59.1356 24.7623 59.9104 24.5898 60.3407 24.9349C61.5458 26.1428 62.4066 25.5388 63.2674 24.5898C63.6978 24.0721 64.3004 23.727 64.7308 23.2093C64.9029 22.9504 64.989 22.3465 64.8168 22.1739C64.0421 21.3111 63.1813 20.5346 62.3206 19.8443C62.0623 19.6718 61.5458 19.7581 61.1155 19.8443C60.1686 20.1032 59.2217 20.2757 58.3609 20.6209C58.0166 20.7071 57.6723 21.1386 57.5862 21.4837C57.5862 22.0876 57.6723 22.8642 57.7584 23.5544ZM78.6755 20.4483C78.5033 20.362 78.3312 20.2757 78.159 20.1895C77.4704 21.0523 76.1792 21.8288 76.1792 22.6916C76.1792 23.4681 77.5565 24.2446 78.2451 25.0212C78.3312 24.9349 78.5033 24.8486 78.5894 24.7623C78.6755 23.2956 78.6755 21.8288 78.6755 20.4483Z" fill="#FFF3E0"/>
<path d="M16.8711 49.7838C16.8711 48.5759 16.8711 47.4542 16.8711 46.2463C16.6989 46.2463 16.5268 46.16 16.3546 46.16C15.9242 47.1091 15.5799 48.1445 15.1495 49.0936C14.9773 49.4387 14.633 49.6975 14.3748 50.0426C14.1166 49.7838 13.7722 49.525 13.6001 49.1798C13.1697 48.2308 12.7393 47.1954 12.395 46.2463C12.2228 46.2463 12.1367 46.2463 11.9646 46.2463C11.8785 47.4542 11.7924 48.6622 11.7063 49.8701C11.5342 49.8701 11.362 49.8701 11.276 49.8701C11.1899 49.4387 10.9316 49.0073 10.9316 48.5759C10.9316 47.2817 10.9316 45.9012 11.0177 44.607C11.0177 44.2619 11.4481 43.9168 11.7063 43.4854C11.9646 43.7442 12.395 43.9167 12.5671 44.2619C12.9975 45.1247 13.2558 46.16 13.6862 47.0228C13.8583 47.368 14.1166 47.6268 14.3748 47.9719C14.7191 47.6268 15.1495 47.4542 15.3217 47.0228C15.752 46.0738 16.0103 45.0384 16.3546 44.0893C16.4407 43.8305 16.8711 43.5716 17.2154 43.4854C17.3875 43.4854 17.8179 43.9167 17.8179 44.0893C17.904 45.9012 17.8179 47.7131 17.8179 49.525C17.8179 49.6975 17.5597 49.7838 17.4736 49.9564C17.1293 49.7838 16.9571 49.7838 16.8711 49.7838Z" fill="#FFF3E0"/>
<path d="M31.5913 46.5045C31.7635 49.438 29.5255 50.3008 27.3735 50.2145C26.4266 50.1282 25.9102 49.7831 25.9102 48.834C25.9102 47.281 25.9102 45.8142 25.9962 44.2612C25.9962 43.9161 26.3405 43.4847 26.6849 43.3121C28.8368 42.2768 31.6774 44.1749 31.5913 46.5045ZM30.6445 46.5045C30.6445 45.0377 29.6115 44.0024 28.0621 44.0886C26.6849 44.1749 27.1153 45.3828 27.1153 46.2456C27.1153 46.8496 26.857 47.5398 27.0292 48.0575C27.2013 48.5752 27.89 49.3517 28.2343 49.3517C29.8698 49.2654 30.7306 48.1438 30.6445 46.5045Z" fill="#FFF3E0"/>
<path d="M49.6672 47.7124C49.6672 46.332 49.6672 44.9515 49.6672 43.4847C49.8394 43.4847 50.0976 43.4847 50.2698 43.4847C50.3559 44.6064 50.4419 45.728 50.4419 46.8496C50.4419 47.5399 50.4419 48.3164 50.3559 49.0066C50.2698 49.3518 50.0976 49.7832 49.8394 49.8694C49.5811 49.9557 49.0647 49.6969 48.8925 49.438C48.2039 48.4027 47.6013 47.3673 46.8266 46.332C46.5684 45.9868 46.138 45.728 45.5355 45.2966C45.5355 46.9359 45.5355 48.2301 45.5355 49.5243C45.4494 49.5243 45.3633 49.5243 45.1911 49.6106C45.019 49.438 44.7607 49.1792 44.7607 49.0066C44.7607 47.3673 44.7607 45.728 44.8468 44.0887C44.8468 43.8298 45.1911 43.3984 45.4494 43.3984C45.7076 43.3984 46.0519 43.6573 46.2241 43.9161C46.9127 44.8652 47.4292 45.8143 48.1178 46.7634C48.376 47.1948 48.7204 47.6262 48.9786 48.0576C49.2368 47.9713 49.4951 47.885 49.6672 47.7124Z" fill="#FFF3E0"/>
<path d="M37.1864 49.9558C36.0674 50.5597 34.8623 50.3009 33.7432 49.9558C33.3129 49.8695 33.1407 48.6616 33.0546 47.8851C32.9685 47.0223 33.0546 46.1595 32.9685 45.2967C32.8825 43.4848 33.1407 43.1396 34.8623 43.1396C35.637 43.1396 36.4117 43.3122 37.2725 43.3985C37.2725 43.571 37.2725 43.8299 37.1864 44.0024C36.4978 44.0024 35.8091 43.8299 35.2066 44.0887C34.7762 44.2613 34.4319 44.779 34.0015 45.2104C34.4319 45.5555 34.7762 45.9869 35.2927 46.1595C35.8952 46.332 36.4978 46.332 37.1003 46.332C37.1003 46.5046 37.1003 46.7634 37.1003 46.936C36.4978 46.936 35.8952 47.1085 35.2927 47.0223C34.4319 46.8497 33.9154 47.2811 34.0015 48.0576C34.0876 48.489 34.6901 49.0067 35.2066 49.2655C35.7231 49.5244 36.4117 49.3518 37.1003 49.4381C37.1864 49.6107 37.1864 49.7832 37.1864 49.9558Z" fill="#FFF3E0"/>
<path d="M24.1883 50.1283C23.5857 49.1792 23.3275 48.1439 21.7781 47.9713C19.9704 47.7987 20.4008 49.8695 18.9375 49.8695C19.1097 49.3518 19.1957 48.9204 19.3679 48.5753C19.9704 47.1085 20.573 45.5555 21.1755 44.0887C21.5199 43.3985 22.1224 43.0533 22.5528 43.8299C23.4136 45.4692 24.1022 47.1948 24.7908 48.9204C24.8769 49.1792 24.7048 49.6106 24.7048 49.9558C24.4465 50.042 24.2744 50.042 24.1883 50.1283ZM22.1224 44.8652C21.8642 44.9515 21.5199 44.9515 21.2616 45.0378C21.3477 45.728 21.5199 46.4183 21.6059 47.1948C21.9503 47.1085 22.2946 47.0222 22.6389 46.9359C22.3806 46.2457 22.2085 45.5555 22.1224 44.8652Z" fill="#FFF3E0"/>
<path d="M67.4857 50.0426C66.711 49.3524 66.6249 47.6268 65.0755 48.1445C64.1286 48.4896 63.3539 49.2661 62.4071 49.8701C62.4071 49.6975 62.2349 49.2661 62.321 49.0073C62.9235 47.368 63.5261 45.8149 64.2147 44.2619C64.3869 43.9167 64.8173 43.4854 65.0755 43.4854C65.3337 43.4854 65.7641 43.9167 65.9363 44.2619C66.5388 45.5561 67.0553 46.8503 67.5718 48.2308C67.7439 48.7484 67.7439 49.3524 67.9161 49.8701C67.7439 49.8701 67.5718 49.9564 67.4857 50.0426ZM63.9565 46.16C64.4729 46.6777 64.7312 47.1954 65.0755 47.2817C65.2476 47.368 66.0224 46.6777 65.9363 46.5052C65.7641 45.9875 65.4198 45.5561 65.0755 45.0384C64.7312 45.3835 64.3869 45.7286 63.9565 46.16Z" fill="#FFF3E0"/>
<path d="M75.5775 49.9564C76.0079 47.5406 74.8028 45.9012 73.5977 44.1756C73.5116 44.0031 73.6838 43.658 73.7698 43.3991C74.0281 43.4854 74.3724 43.4854 74.4585 43.658C74.8028 44.0031 74.9749 44.4345 75.2332 44.8659C76.0079 46.0738 76.2661 46.0738 77.0408 44.8659C77.3851 44.2619 77.9016 43.7442 78.332 43.2266C78.5902 43.8305 78.5042 43.8305 77.1269 46.4189C76.6104 47.4543 76.4383 48.6622 76.18 49.8701C76.0079 49.9564 75.8357 49.9564 75.5775 49.9564Z" fill="#FFF3E0"/>
<path d="M62.3211 43.8299C60.2552 43.8299 60.2552 45.1241 60.3413 46.5046C60.3413 47.1948 60.4274 47.9713 60.3413 48.6616C60.3413 49.093 59.997 49.4381 59.8248 49.7832C59.6527 49.4381 59.3083 49.0067 59.3083 48.6616C59.2223 47.6262 59.3083 46.5909 59.3083 45.5555C59.3083 44.8652 59.3083 44.0024 58.1893 44.175C58.0172 44.175 57.7589 43.9162 57.6729 43.6573C57.6729 43.571 57.9311 43.1396 58.0172 43.1396C59.3944 43.1396 60.7717 43.1396 62.1489 43.1396C62.1489 43.3985 62.235 43.6573 62.3211 43.8299Z" fill="#FFF3E0"/>
<path d="M73.7691 49.6975C71.2728 51.078 69.293 50.1289 69.293 47.8856C69.293 46.764 69.293 45.6424 69.293 44.607C69.293 44.2619 69.4651 43.9168 69.6373 43.4854C69.8094 43.4854 69.9816 43.4854 70.1538 43.4854C70.2398 44.1756 70.2398 44.8658 70.3259 45.5561C70.3259 46.0738 70.412 46.5914 70.3259 47.1091C70.2398 48.4896 70.4981 49.525 72.2196 49.2661C72.564 49.3524 72.9083 49.525 73.7691 49.6975Z" fill="#FFF3E0"/>
<path d="M42.609 43.6572C43.3838 44.52 43.3838 48.6615 42.6951 49.6968C41.8343 48.834 41.7483 44.52 42.609 43.6572Z" fill="#FFF3E0"/>
<path d="M55.6069 49.8694C54.8322 48.6615 54.8322 44.52 55.5208 43.6572C56.2095 44.4337 56.2955 48.6615 55.6069 49.8694Z" fill="#FFF3E0"/>
<path d="M132.131 22.6049C132.131 20.8793 132.045 19.1537 132.217 17.4281C132.303 16.6516 132.733 15.6162 133.336 15.3574C134.025 15.0985 135.144 15.3574 135.746 15.7888C137.468 17.083 139.017 18.5497 140.567 20.1028C141.341 20.8793 141.858 20.793 142.546 20.0165C144.01 18.5497 145.559 17.2555 147.109 15.8751C147.883 15.0985 148.916 14.7534 149.691 15.3574C150.293 15.7888 150.81 16.8241 150.896 17.6007C150.982 20.9656 150.982 24.3305 150.982 27.6954C150.982 29.421 149.863 30.4564 148.486 30.1113C147.453 29.8524 146.936 29.2485 146.936 28.1268C146.936 27.1777 146.936 26.2287 146.85 25.2796C146.85 24.9345 146.592 24.3305 146.334 24.2442C146.076 24.1579 145.473 24.3305 145.215 24.5893C144.268 25.3659 143.321 26.2287 142.46 27.0915C141.772 27.7817 141.169 27.7817 140.481 27.0915C139.534 26.1424 138.673 25.2796 137.64 24.4168C136.865 23.7265 136.349 23.8991 136.263 25.0207C136.177 26.0561 136.177 27.0052 136.177 28.0406C136.177 29.2485 135.316 30.1113 134.111 30.1976C132.992 30.2838 132.131 29.3348 132.131 28.0406C132.217 26.2287 132.217 24.4168 132.131 22.6049C132.217 22.6049 132.217 22.6049 132.131 22.6049Z" fill="#1A130D"/>
<path d="M105.102 30.1117C102.433 30.198 99.937 29.9391 97.9572 27.8684C95.547 25.4526 95.2887 22.4328 96.4078 19.4993C97.4407 16.9109 99.5927 15.3578 102.433 15.1853C105.016 15.0127 107.684 14.6676 110.18 15.9618C113.193 17.5148 114.656 20.4483 114.14 23.8133C113.623 26.9193 111.127 29.4215 107.942 29.9391C106.995 30.1117 106.049 30.0254 105.102 30.1117ZM105.016 19.1541C104.413 19.1541 103.897 19.1541 103.294 19.3267C101.831 19.6718 101.056 20.7072 100.712 22.0877C100.453 23.3819 101.056 24.4172 102.003 25.1937C103.811 26.6605 107.426 25.9703 108.631 24.0721C108.889 23.727 109.061 23.2093 109.061 22.7779C109.32 20.6209 107.684 19.2404 105.016 19.1541Z" fill="#1A130D"/>
<path d="M53.4551 30.025C51.6474 30.025 49.8398 30.025 48.0321 30.025C46.4827 30.025 45.708 29.1622 45.708 27.6092C45.708 24.3305 45.708 21.1382 45.708 17.8595C45.708 15.7888 46.3106 15.1848 48.3764 15.1848C51.7335 15.0985 55.0906 15.0985 58.3616 15.1848C60.1692 15.1848 61.03 15.9613 61.03 17.1693C60.9439 18.3772 59.9971 19.1537 58.3616 19.1537C56.2096 19.1537 54.0576 19.1537 51.9057 19.1537C51.5614 19.1537 51.217 19.0674 50.8727 19.1537C50.5284 19.3263 50.1841 19.6714 49.9259 19.9302C50.2702 20.1891 50.5284 20.5342 50.8727 20.5342C51.9917 20.6205 53.0247 20.5342 54.1437 20.6205C55.521 20.6205 56.2957 21.4833 56.2957 22.6049C56.2957 23.7266 55.3488 24.5894 54.1437 24.5894C53.1969 24.5894 52.25 24.5031 51.3031 24.5894C50.8727 24.6756 50.4423 25.0208 50.0119 25.2796C50.4423 25.5384 50.7866 25.9698 51.217 25.9698C53.5412 26.0561 55.7792 25.9698 58.1033 25.9698C58.4476 25.9698 58.792 25.8836 59.1363 25.9698C60.2553 26.2287 61.1161 26.7464 61.03 28.0406C60.9439 29.2485 60.1692 29.9387 58.878 29.9387C57.0704 30.025 55.2627 29.9387 53.4551 30.025Z" fill="#1A130D"/>
<path d="M116.034 22.6049C116.034 20.8793 116.034 19.1537 116.034 17.4281C116.034 15.8751 116.637 15.1848 118.186 15.1848C120.855 15.0985 123.523 15.0985 126.192 15.1848C128.085 15.2711 129.29 16.3927 129.979 18.0321C130.668 19.7577 130.496 21.397 129.204 22.8638C127.741 24.5894 127.741 24.5894 129.463 26.2287C130.668 27.3503 130.84 28.472 129.979 29.421C129.118 30.3701 127.827 30.1976 126.708 29.1622C125.073 27.6092 123.437 26.1424 121.715 24.6756C121.371 24.4168 120.941 24.3305 120.51 24.158C120.338 24.5894 120.08 25.0208 120.08 25.4522C119.994 26.4012 120.08 27.3503 119.994 28.2994C119.908 29.5936 119.133 30.1976 117.928 30.1976C116.809 30.1976 116.034 29.421 116.034 28.1268C115.948 26.2287 115.948 24.4168 116.034 22.6049ZM122.748 20.5342C123.265 20.5342 123.781 20.6205 124.298 20.4479C124.642 20.3616 124.9 20.0165 125.245 19.7577C124.986 19.5851 124.728 19.1537 124.384 19.1537C123.351 19.0674 122.318 19.0674 121.285 19.0674C120.941 19.0674 120.596 19.4988 120.338 19.6714C120.596 19.9302 120.941 20.2754 121.199 20.3616C121.629 20.6205 122.232 20.5342 122.748 20.5342Z" fill="#1A130D"/>
<path d="M76.6103 30.3707C75.6635 29.6805 74.8027 29.2491 74.028 28.5589C73.1672 27.7823 72.3064 27.0058 71.5317 26.143C70.8431 25.4528 70.2405 25.4528 69.5519 26.143C68.4329 27.1784 67.3139 28.2137 66.1948 29.2491C65.0758 30.1982 63.8707 30.1982 63.0099 29.2491C62.0631 28.1275 62.6656 27.1784 63.4403 26.3156C64.4733 25.2802 65.5062 24.3311 66.5391 23.3821C67.2278 22.7781 67.1417 22.2604 66.5391 21.7427C65.6784 20.9662 64.8176 20.1897 64.0429 19.4132C63.6986 19.1543 63.4403 18.8092 63.1821 18.4641C62.4074 17.6013 62.3213 16.6522 63.096 15.7894C63.9568 14.9266 64.9897 14.9266 65.9366 15.7031C67.0556 16.5659 68.0886 17.6013 69.1215 18.5504C70.4988 19.7583 70.5848 19.7583 71.9621 18.5504C72.909 17.6013 73.8558 16.6522 74.8888 15.7894C76.0939 14.7541 77.3851 14.8403 78.1598 15.8757C78.9345 16.8248 78.6762 17.8601 77.4711 18.9818C76.4382 19.8446 75.4913 20.7937 74.5445 21.7427C73.8558 22.3467 73.8558 22.9507 74.5445 23.5546C75.6635 24.59 76.9547 25.6253 77.9876 26.8333C78.418 27.2647 78.5041 28.3 78.3319 28.904C78.0737 29.4217 77.299 29.7668 76.6103 30.3707Z" fill="#1A130D"/>
<path d="M87.9728 15.0989C89.6083 15.0989 91.3299 15.0989 92.9654 15.0989C94.687 15.0989 95.3756 15.7028 95.4617 17.0833C95.4617 18.2049 94.4287 19.0677 92.9654 19.0677C90.7274 19.0677 88.4032 19.0677 86.1652 19.0677C85.9069 19.0677 85.6487 18.9815 85.4766 19.0677C85.1322 19.2403 84.7879 19.5854 84.4436 19.8443C84.7879 20.1031 85.0462 20.4482 85.3905 20.4482C86.5095 20.5345 87.7146 20.5345 88.8336 20.5345C90.0387 20.5345 90.8134 21.3973 90.8995 22.4327C90.8995 23.3818 89.9526 24.4171 88.9197 24.5034C88.0589 24.5034 87.1981 24.5034 86.3373 24.5034C84.9601 24.5034 84.3575 25.1936 84.2715 26.4878C84.2715 27.0055 84.2715 27.4369 84.2715 27.9546C84.2715 29.1625 83.6689 29.939 82.3777 30.0253C81.0865 30.1116 80.2258 29.3351 80.2258 27.8683C80.1397 25.0211 80.2258 22.2601 80.2258 19.4129C80.2258 19.2403 80.2258 19.154 80.2258 18.9815C80.3118 15.1851 80.484 14.9263 84.3575 15.0126C85.4766 15.0989 86.7677 15.0126 87.9728 15.0989Z" fill="#1A130D"/>
<path d="M19.7116 15.0986C21.4332 15.0986 23.1548 15.0986 24.8764 15.0986C26.4258 15.0986 27.3726 15.8752 27.3726 17.0831C27.2866 18.291 26.3397 19.0675 24.7903 19.0675C22.4662 19.0675 20.142 19.0675 17.8179 19.1538C17.3014 19.1538 16.871 19.6715 16.4407 19.9303C16.871 20.1892 17.3875 20.5343 17.8179 20.6206C18.8509 20.7068 19.7977 20.6206 20.8307 20.6206C22.0358 20.7068 22.8965 21.4834 22.8105 22.605C22.8105 23.6404 21.6914 24.6757 20.6585 24.6757C19.8838 24.6757 19.023 24.5894 18.2483 24.5894C16.871 24.5894 16.2685 25.2797 16.1824 26.5739C16.1824 27.0053 16.0963 27.4367 16.0963 27.8681C16.0103 29.4211 15.4938 30.0251 14.2026 30.0251C12.9975 30.0251 12.1367 29.076 12.1367 27.7818C12.1367 24.3306 12.1367 20.7931 12.2228 17.3419C12.2228 16.0477 12.9114 15.2712 14.2887 15.2712C16.0103 15.0986 17.8179 15.0986 19.7116 15.0986Z" fill="#1A130D"/>
<path d="M36.4976 30.0251C34.7761 30.0251 32.9684 30.0251 31.2468 30.0251C29.7835 30.0251 29.0088 29.3348 29.0088 27.9544C29.0088 24.4169 29.0088 20.7931 29.0088 17.2556C29.0088 15.8752 29.8696 15.0986 30.9886 15.0986C32.1076 15.1849 32.9684 16.0477 32.9684 17.3419C32.9684 19.4989 32.9684 21.7422 32.9684 23.8992C32.9684 25.4522 33.4849 25.9699 35.0343 26.0562C36.928 26.1425 38.8218 26.0562 40.7155 26.0562C41.5763 26.0562 42.5231 26.1425 43.2118 26.4876C43.7282 26.7464 44.2447 27.6955 44.2447 28.2995C44.2447 29.1623 43.6422 29.9388 42.6092 29.9388C40.4572 29.9388 38.4774 29.9388 36.4976 30.0251C36.4976 29.9388 36.4976 29.9388 36.4976 30.0251Z" fill="#1A130D"/>
<path d="M57.7585 23.5545C57.6724 22.778 57.5864 22.0877 57.5864 21.3112C57.5864 20.9661 58.0168 20.621 58.3611 20.4484C59.2219 20.1033 60.1687 19.8445 61.1156 19.6719C61.4599 19.5856 62.0625 19.4993 62.3207 19.6719C63.1815 20.3621 64.0423 21.1387 64.817 22.0015C64.9891 22.174 64.903 22.778 64.7309 23.0368C64.3005 23.5545 63.6979 23.8996 63.2676 24.4173C62.4068 25.4527 61.546 25.9703 60.3409 24.7624C59.9966 24.4173 59.1358 24.5899 58.5332 24.4173C58.1028 24.331 57.7585 23.9859 57.3281 23.7271C57.5003 23.8133 57.5864 23.7271 57.7585 23.5545Z" fill="#1A130D"/>
<path d="M78.6758 20.4483C78.6758 21.9151 78.6758 23.2955 78.6758 24.7623C78.5898 24.8486 78.4176 24.9349 78.3315 25.0211C77.5568 24.2446 76.2656 23.4681 76.2656 22.6916C76.2656 21.8288 77.5568 21.0523 78.2454 20.1895C78.3315 20.2757 78.5037 20.362 78.6758 20.4483Z" fill="#1A130D"/>
<path d="M30.644 46.5048C30.644 48.1442 29.8693 49.2658 28.2338 49.3521C27.8034 49.3521 27.2009 48.5756 27.0287 48.0579C26.8566 47.5402 27.0287 46.85 27.1148 46.246C27.1148 45.3832 26.6844 44.2616 28.0617 44.089C29.6111 44.0027 30.644 45.0381 30.644 46.5048Z" fill="#1A130D"/>
<path d="M22.1226 44.8652C22.2948 45.5555 22.467 46.2457 22.553 46.936C22.2087 47.0222 21.8644 47.1085 21.5201 47.1948C21.434 46.5046 21.2619 45.8143 21.1758 45.0378C21.5201 45.0378 21.7783 44.9515 22.1226 44.8652Z" fill="#1A130D"/>
<path d="M63.9561 46.1597C64.4725 45.642 64.7308 45.3832 65.0751 45.0381C65.4194 45.5558 65.7637 45.9872 65.9359 46.5048C66.0219 46.6774 65.2472 47.3676 65.0751 47.2814C64.6447 47.1951 64.3864 46.6774 63.9561 46.1597Z" fill="#1A130D"/>
<path d="M105.016 19.1543C107.684 19.1543 109.32 20.6211 109.148 22.7781C109.148 23.2095 108.976 23.7271 108.717 24.0723C107.426 25.9704 103.897 26.5744 102.089 25.1939C101.142 24.4174 100.454 23.382 100.798 22.0878C101.142 20.7073 101.917 19.672 103.38 19.3269C103.897 19.1543 104.413 19.2406 105.016 19.1543ZM105.016 20.6211C104.586 20.6211 104.069 20.4485 103.725 20.6211C103.122 20.9662 102.434 21.4839 102.261 22.0878C102.089 22.6055 102.434 23.5546 102.778 23.986C103.639 24.9351 106.221 24.8488 107.082 23.8997C107.512 23.4683 107.857 22.6055 107.684 22.1741C107.426 21.5701 106.651 21.0525 106.049 20.6211C105.877 20.4485 105.446 20.6211 105.016 20.6211Z" fill="#FFF3E0"/>
<path d="M122.748 20.535C122.232 20.535 121.715 20.6213 121.199 20.535C120.854 20.4487 120.596 20.1036 120.338 19.8448C120.682 19.5859 120.94 19.2408 121.285 19.2408C122.318 19.1545 123.351 19.2408 124.384 19.3271C124.642 19.3271 124.9 19.7585 125.244 19.9311C124.986 20.1899 124.642 20.535 124.298 20.6213C123.781 20.6213 123.265 20.535 122.748 20.535Z" fill="#FFF3E0"/>
<path d="M105.016 20.6211C105.361 20.6211 105.877 20.4486 106.135 20.6211C106.738 21.0525 107.513 21.5702 107.771 22.1742C107.943 22.6056 107.513 23.4684 107.168 23.8998C106.307 24.8488 103.725 24.9351 102.864 23.986C102.434 23.5546 102.176 22.6056 102.348 22.0879C102.52 21.4839 103.295 20.9662 103.811 20.6211C104.069 20.4486 104.586 20.5348 105.016 20.6211Z" fill="#1A130D"/>
</svg>
