<svg width="127" height="62" viewBox="0 0 127 62" fill="none" xmlns="http://www.w3.org/2000/svg">
<path d="M-2.83838 -2C41.4701 -2 85.7786 -2 130.127 -2C130.127 19.61 130.127 41.2201 130.127 62.8301C85.8189 62.8301 41.5104 62.8301 -2.83838 62.8301C-2.83838 41.1396 -2.83838 19.5698 -2.83838 -2ZM51.737 31.1595C51.7571 36.9946 53.1864 41.0792 55.7833 44.7614C58.2997 48.363 61.7421 50.7575 65.8489 52.2665C69.0296 53.4336 72.3311 53.8963 75.7131 53.675C80.766 53.3531 85.2754 51.5824 89.2412 48.5039C92.8245 45.7272 95.4013 42.1657 96.8306 37.88C98.3203 33.3527 98.3404 28.7651 96.9111 24.2178C95.7234 20.435 93.6096 17.2357 90.59 14.6401C87.3086 11.8232 83.524 10.1531 79.2562 9.48913C76.2567 9.02635 73.2571 9.08671 70.318 9.77083C65.4261 10.9177 61.2389 13.3926 57.8568 17.1553C53.9313 21.5014 51.7169 26.5317 51.737 31.1595ZM14.7763 9.22756C14.7763 9.24768 14.7763 9.24768 14.7763 9.2678C11.9378 9.2678 9.09935 9.24768 6.281 9.28792C5.79786 9.28792 5.01274 9.00623 4.93222 9.73058C4.8517 10.4147 5.65694 10.2739 6.09982 10.4147C7.24729 10.7366 8.37463 11.0787 8.59608 12.4872C8.69673 13.1713 8.75712 13.8755 8.75712 14.5798C8.77726 20.2941 8.81752 26.0085 8.79739 31.7028C8.77726 36.391 8.69673 41.0792 8.63634 45.7674C8.61621 46.6729 8.57594 47.5984 8.49542 48.5039C8.31424 50.8782 7.58952 51.6428 5.21405 52.0452C4.89196 52.1056 4.61012 52.4275 4.32829 52.6287C4.65038 52.7897 4.97248 53.0915 5.29458 53.0915C8.33437 53.1317 11.3943 53.1317 14.4341 53.1519C15.4004 53.1519 16.3868 53.172 17.3531 53.1116C17.6349 53.0915 17.8966 52.8299 18.1785 52.6891C17.957 52.4879 17.7557 52.186 17.494 52.1056C16.8498 51.9245 16.1654 51.8641 15.5212 51.7031C14.0113 51.3208 13.2866 50.4556 13.2665 48.8862C13.2262 44.198 13.186 39.5098 13.1658 34.8216C13.1658 33.9966 13.186 33.1515 13.186 32.3265C13.2061 31.3205 13.3269 31.1998 14.3133 31.24C14.9575 31.2601 15.6017 31.3004 16.2459 31.3406C18.8025 31.5016 19.6682 32.2058 20.2922 34.6807C20.4935 35.4252 20.6949 36.1898 20.9767 36.9142C21.0572 37.1355 21.3994 37.2361 21.6209 37.3971C21.7618 37.1556 21.9631 36.9343 22.0235 36.6727C22.0839 36.391 22.0436 36.0892 22.0436 35.7874C22.0235 33.0308 22.0034 30.2943 21.9832 27.5377C21.9832 26.592 22.0235 25.6464 21.9832 24.7208C21.9631 24.3988 21.7417 24.0769 21.6008 23.755C21.3592 24.0165 21.017 24.258 20.8962 24.5799C20.6143 25.2439 20.4332 25.9683 20.252 26.6524C19.7286 28.5237 18.7824 29.3687 16.8498 29.5901C16.0244 29.6907 15.1789 29.7309 14.3536 29.7511C13.3671 29.7712 13.2262 29.6303 13.2262 28.6444C13.2866 22.9904 13.3671 17.3363 13.4275 11.6823C13.4275 11.0183 13.7094 10.7165 14.3536 10.7568C15.9037 10.8775 17.4739 10.9378 19.024 11.1994C20.8559 11.5214 22.1242 12.6481 22.7684 14.3987C23.2314 15.6864 23.6944 16.9943 24.1977 18.2619C24.2983 18.5034 24.6204 18.6442 24.8419 18.8253C24.9828 18.5839 25.2042 18.3424 25.2646 18.0808C25.325 17.7991 25.2646 17.4973 25.2445 17.1955C25.1036 14.9822 24.9626 12.789 24.8419 10.5757C24.7815 9.34828 24.6204 9.18732 23.4126 9.20744C20.4935 9.24768 17.6349 9.22756 14.7763 9.22756ZM99.8503 46.0089C99.8905 46.0089 99.9308 46.0089 99.9509 46.0089C99.9509 47.2363 99.8905 48.4838 99.9711 49.7112C99.9912 50.1337 100.233 50.7172 100.575 50.9385C103.212 52.6689 106.091 53.7756 109.292 53.7152C112.774 53.6549 115.875 52.6689 118.109 49.7916C121.411 45.5461 121.31 39.4897 117.626 35.2441C113.942 30.9986 109.976 26.9945 106.151 22.8696C104.803 21.4008 103.575 19.8314 103.091 17.8193C102.326 14.6602 104.178 11.7024 107.319 10.9177C111.808 9.79095 115.472 12.789 116.841 16.3705C117.103 17.0547 117.284 17.7589 117.566 18.4229C117.646 18.6241 117.948 18.7649 118.149 18.9259C118.27 18.6845 118.492 18.4229 118.472 18.2016C118.371 16.5717 118.19 14.9218 118.089 13.292C118.049 12.4469 117.666 11.8232 116.982 11.4409C115.935 10.8574 114.848 10.2537 113.721 9.85131C111.526 9.08671 109.272 9.10683 107.017 9.62998C104.823 10.133 103.031 11.2598 101.662 12.9902C99.0853 16.2297 99.1457 21.4008 101.481 24.4994C103.836 27.5981 106.514 30.4553 109.09 33.3728C111.325 35.888 113.721 38.2623 115.854 40.8579C118.472 44.0571 117.968 49.0069 113.862 51.341C110.016 53.5342 104.581 51.7031 102.628 47.4978C101.924 45.9686 101.461 44.3187 100.837 42.7493C100.716 42.4474 100.354 42.2261 100.092 41.9847C99.9509 42.3267 99.6892 42.6688 99.6691 43.0108C99.7094 44.0169 99.81 45.0028 99.8503 46.0089ZM37.464 53.514C37.464 53.4537 37.464 53.3933 37.464 53.3329C40.7253 53.3329 43.9865 53.3128 47.2478 53.3531C48.0731 53.3531 48.3952 53.0513 48.4757 52.2464C48.7978 49.349 49.1803 46.4717 49.5024 43.5943C49.5226 43.3328 49.2609 43.0511 49.1199 42.7694C48.8784 42.9706 48.5563 43.1517 48.4355 43.3931C48.0127 44.4193 47.6906 45.4656 47.288 46.4918C46.6841 48.021 46.0198 49.5301 44.4093 50.3148C41.7922 51.6025 39.0141 51.9245 36.1555 51.9245C35.5113 51.9245 35.2496 51.5824 35.2496 50.9587C35.2496 49.8721 35.1892 48.8057 35.1892 47.7192C35.2094 38.1214 35.2496 28.5438 35.2698 18.946C35.2698 17.2156 35.2899 15.5053 35.31 13.7749C35.3503 11.7829 35.8536 11.1391 37.7861 10.6964C38.3498 10.5757 38.9537 10.5555 39.5577 10.4952C39.9402 10.4549 40.4636 10.5354 40.4435 9.9318C40.4233 9.34828 39.92 9.38853 39.5376 9.38853C37.3634 9.3684 35.1691 9.34828 32.9949 9.32816C31.2435 9.32816 29.4921 9.30804 27.7407 9.36841C27.4388 9.36841 27.1368 9.67022 26.8147 9.81107C27.0965 10.0324 27.3381 10.3543 27.6401 10.4751C28.1434 10.6763 28.6869 10.7568 29.2103 10.8775C30.1565 11.0988 30.5993 11.7427 30.7604 12.6481C30.8208 13.0506 30.8409 13.453 30.8409 13.8554C30.8007 21.5417 30.7403 29.2078 30.7201 36.894C30.7 40.9585 30.7805 45.0229 30.8007 49.0874C30.8007 50.6166 30.0155 51.6227 28.5258 52.005C28.0628 52.1257 27.5596 52.1458 27.0965 52.3068C26.855 52.4074 26.6939 52.7092 26.4926 52.9305C26.6939 53.1116 26.8751 53.3329 27.0965 53.4537C27.2979 53.5543 27.5797 53.4939 27.8213 53.4939C31.0422 53.514 34.2632 53.514 37.464 53.514Z" fill="#1A130D"/>
<path d="M-2.83895 -2C-2.83895 19.5698 -2.83895 41.1396 -2.83895 62.8301C41.5098 62.8301 85.8183 62.8301 130.127 62.8301C130.107 62.8905 130.066 62.9911 130.046 62.9911C129.825 63.0112 129.624 62.9911 129.402 62.9911C85.2748 62.9911 41.1273 62.9911 -3 62.9911C-3 41.5621 -3 20.1533 -3 -1.27564C-3 -1.51709 -2.89934 -1.75855 -2.83895 -2Z" fill="#FFF3E0"/>
<path d="M51.736 31.1597C51.7158 26.5318 53.9303 21.5016 57.8558 17.1554C61.2378 13.4129 65.4251 10.9179 70.317 9.77097C73.236 9.08686 76.2556 9.02649 79.2552 9.48928C83.5028 10.1533 87.3076 11.8233 90.589 14.6403C93.6086 17.2359 95.7224 20.4351 96.9101 24.2179C98.3596 28.7653 98.3394 33.373 96.8296 37.8801C95.4003 42.1659 92.8235 45.7273 89.2402 48.504C85.2542 51.5826 80.7449 53.3532 75.7121 53.6751C72.3301 53.8965 69.0487 53.4337 65.8479 52.2667C61.7411 50.7576 58.2987 48.3632 55.7823 44.7615C53.1854 41.0794 51.7561 36.9948 51.736 31.1597ZM93.5281 32.7694C93.5684 29.4091 92.4813 24.6404 89.2402 20.4351C86.4822 16.8335 83.2009 13.9562 78.9129 12.2861C72.6723 9.85146 65.4855 11.5014 60.9963 16.4512C58.2383 19.4894 56.809 23.1314 56.346 27.1556C55.7219 32.6285 57.0305 37.6588 60.0904 42.186C62.7678 46.1297 66.3511 49.0272 70.8605 50.7375C77.8057 53.3935 84.9925 51.16 89.522 45.6468C92.2397 42.3872 93.3872 38.5039 93.5281 32.7694Z" fill="#FFF3E0"/>
<path d="M14.7765 9.22769C17.6351 9.22769 20.4937 9.22769 23.3523 9.22769C24.5803 9.22769 24.7212 9.36853 24.7816 10.5959C24.9024 12.8092 25.0433 15.0024 25.1843 17.2158C25.2044 17.5176 25.2648 17.8194 25.2044 18.1011C25.144 18.3627 24.9226 18.6041 24.7816 18.8456C24.5602 18.6645 24.2381 18.5236 24.1374 18.2822C23.6342 17.0145 23.1913 15.7067 22.7081 14.4189C22.0639 12.6483 20.7957 11.5215 18.9638 11.2197C17.4338 10.9581 15.8636 10.8977 14.2933 10.777C13.6693 10.7368 13.3874 11.0386 13.3673 11.7026C13.3069 17.3566 13.2264 23.0106 13.166 28.6646C13.1459 29.6506 13.3069 29.7914 14.2933 29.7713C15.1187 29.7512 15.9642 29.7109 16.7896 29.6103C18.7222 29.389 19.6683 28.5439 20.1918 26.6727C20.3931 25.9684 20.5742 25.2642 20.8359 24.6002C20.9567 24.2782 21.299 24.0569 21.5405 23.7752C21.6815 24.0972 21.9029 24.4191 21.923 24.741C21.9633 25.6867 21.923 26.6324 21.923 27.558C21.9432 30.3146 21.9633 33.051 21.9834 35.8076C21.9834 36.1094 22.0438 36.4113 21.9633 36.6929C21.9029 36.9545 21.7016 37.1759 21.5607 37.4173C21.3392 37.2563 20.997 37.1356 20.9165 36.9344C20.6346 36.21 20.4132 35.4656 20.232 34.701C19.608 32.2261 18.7423 31.5218 16.1857 31.3609C15.5415 31.3206 14.8973 31.3005 14.2531 31.2603C13.2667 31.22 13.1459 31.3407 13.1257 32.3468C13.1056 33.1718 13.1056 34.0168 13.1056 34.8418C13.1257 39.53 13.166 44.2182 13.2063 48.9064C13.2264 50.4558 13.931 51.3411 15.4609 51.7234C16.1051 51.8844 16.7896 51.9246 17.4338 52.1258C17.6955 52.2063 17.8968 52.5081 18.1183 52.7093C17.8364 52.8502 17.5747 53.1117 17.2929 53.1319C16.3266 53.1922 15.3603 53.1721 14.3739 53.1721C11.3341 53.1721 8.27415 53.1721 5.23436 53.1117C4.91226 53.1117 4.59016 52.8099 4.26807 52.649C4.57003 52.4477 4.83174 52.1258 5.15383 52.0654C7.50917 51.663 8.25402 50.8984 8.4352 48.5241C8.49559 47.6187 8.55599 46.6931 8.57612 45.7877C8.63651 41.0995 8.71704 36.4113 8.73717 31.723C8.7573 26.0087 8.71704 20.2943 8.6969 14.6C8.6969 13.8958 8.63651 13.1915 8.53586 12.5074C8.31441 11.0989 7.2072 10.7569 6.05973 10.435C5.65711 10.274 4.85187 10.4148 4.93239 9.73071C5.01292 8.98623 5.79803 9.28805 6.28117 9.28805C9.11966 9.24781 11.9581 9.26793 14.7765 9.26793C14.7765 9.24781 14.7765 9.24781 14.7765 9.22769Z" fill="#FFF3E0"/>
<path d="M99.849 46.0084C99.8087 45.0225 99.7081 44.0164 99.7282 43.0305C99.7282 42.6884 99.9899 42.3464 100.151 42.0043C100.413 42.2659 100.775 42.4671 100.896 42.7689C101.52 44.3383 101.983 45.9883 102.687 47.5175C104.64 51.7228 110.076 53.5337 113.921 51.3606C118.027 49.0266 118.531 44.0768 115.914 40.8775C113.78 38.2819 111.384 35.9076 109.15 33.3925C106.573 30.4749 103.875 27.6177 101.54 24.5191C99.2048 21.4204 99.1444 16.2695 101.721 13.0098C103.09 11.2794 104.902 10.1526 107.076 9.64962C109.331 9.12647 111.585 9.10635 113.78 9.87095C114.907 10.2734 115.974 10.8569 117.041 11.4605C117.725 11.8428 118.108 12.4666 118.148 13.3117C118.249 14.9415 118.43 16.5914 118.531 18.2212C118.551 18.4626 118.309 18.7041 118.209 18.9456C118.007 18.7846 117.705 18.6639 117.625 18.4425C117.343 17.7785 117.162 17.0743 116.9 16.3902C115.531 12.8086 111.867 9.81059 107.378 10.9374C104.238 11.7221 102.365 14.6799 103.151 17.8389C103.634 19.851 104.862 21.4204 106.21 22.8893C110.035 27.0141 114.001 31.0182 117.685 35.2637C121.369 39.5093 121.47 45.5657 118.168 49.8113C115.934 52.6886 112.813 53.6745 109.351 53.7349C106.15 53.7952 103.271 52.6685 100.634 50.9582C100.292 50.7368 100.05 50.1735 100.03 49.7308C99.9497 48.5034 100.01 47.2559 100.01 46.0285C99.9295 46.0084 99.8893 46.0084 99.849 46.0084Z" fill="#FFF3E0"/>
<path d="M37.464 53.5144C34.2632 53.5144 31.0422 53.5144 27.8413 53.5144C27.5998 53.5144 27.3381 53.5546 27.1166 53.4741C26.8751 53.3735 26.714 53.1321 26.5127 52.951C26.714 52.7297 26.8751 52.4278 27.1166 52.3272C27.5595 52.1663 28.0628 52.1462 28.5459 52.0254C30.0356 51.6632 30.8207 50.6371 30.8207 49.1079C30.8006 45.0434 30.7402 40.979 30.7402 36.9145C30.7604 29.2283 30.8207 21.5621 30.861 13.8759C30.861 13.4735 30.8409 13.071 30.7805 12.6686C30.6194 11.7833 30.1766 11.1193 29.2304 10.898C28.707 10.7772 28.1634 10.6967 27.6602 10.4955C27.3381 10.3748 27.0965 10.0529 26.8348 9.83154C27.1368 9.67057 27.4387 9.38887 27.7608 9.38887C29.5122 9.34863 31.2636 9.34863 33.015 9.34863C35.1892 9.34863 37.3835 9.36875 39.5576 9.409C39.9401 9.409 40.4635 9.36875 40.4635 9.95226C40.4837 10.5559 39.9603 10.4754 39.5778 10.5157C38.994 10.576 38.39 10.5961 37.8062 10.7169C35.8535 11.1595 35.3502 11.8034 35.3301 13.7954C35.31 15.5258 35.2898 17.2361 35.2898 18.9665C35.2496 28.5643 35.2295 38.1419 35.2093 47.7396C35.2093 48.8262 35.2697 49.8926 35.2697 50.9791C35.2697 51.6029 35.5113 51.9449 36.1756 51.9449C39.0342 51.9449 41.8324 51.623 44.4294 50.3353C46.0398 49.5304 46.7042 48.0415 47.3081 46.5123C47.7107 45.4861 48.0328 44.4197 48.4556 43.4136C48.5562 43.152 48.8985 42.9911 49.14 42.7899C49.2809 43.0715 49.5427 43.3532 49.5225 43.6148C49.2004 46.5122 48.8179 49.3896 48.4958 52.2669C48.4153 53.0717 48.0932 53.3735 47.2678 53.3735C44.0066 53.3333 40.7454 53.3534 37.4841 53.3534C37.464 53.4138 37.464 53.454 37.464 53.5144Z" fill="#FFF3E0"/>
<path d="M93.5292 32.7694C93.3883 38.5039 92.2207 42.3873 89.5433 45.667C85.0339 51.1802 77.8471 53.4136 70.8818 50.7577C66.3724 49.0273 62.7689 46.1499 60.1116 42.2062C57.0517 37.679 55.7432 32.6487 56.3672 27.1758C56.8303 23.1314 58.2394 19.5096 61.0175 16.4714C65.5068 11.5216 72.6936 9.89177 78.9342 12.3063C83.2221 13.9763 86.4833 16.8537 89.2614 20.4553C92.4824 24.6606 93.5896 29.4092 93.5292 32.7694Z" fill="#1A130D"/>
</svg>
