<svg width="147" height="60" viewBox="0 0 147 60" fill="none" xmlns="http://www.w3.org/2000/svg">
<path d="M51.886 34.0598C52.5504 33.4398 52.3428 33.0198 51.9275 32.5198C51.0139 31.3798 50.1834 30.1798 49.2491 29.0598C49.0207 28.7798 48.6262 28.5598 48.2733 28.4598C47.6504 28.2798 47.2559 28.5398 47.2559 29.1998C47.2559 30.0598 47.3182 30.9198 47.2559 31.7598C47.2144 32.5798 47.505 33.1198 48.294 33.4398C48.5017 33.5198 48.6678 33.7798 48.8339 33.9398C48.6055 34.0198 48.3771 34.1998 48.1487 34.1998C46.55 34.2398 44.972 34.2398 43.3733 34.2398C43.1864 34.2398 42.9995 34.1398 42.5428 34.0198C43.0618 33.7198 43.3317 33.5198 43.6432 33.3998C44.2453 33.1598 44.5567 32.7998 44.5567 32.1398C44.536 29.2998 44.536 26.4798 44.5775 23.6398C44.5775 22.8598 44.3283 22.3598 43.4978 22.1198C43.2072 22.0398 42.9788 21.7998 42.4805 21.4798C42.9995 21.3798 43.2279 21.2998 43.4356 21.2998C45.6364 21.2998 47.8372 21.2998 50.0589 21.2998C51.3877 21.2998 52.5711 21.6198 53.6093 22.4598C54.9589 23.5598 54.8758 26.4198 53.4017 27.1998C51.6576 28.1398 51.6991 28.2398 52.9449 29.8198C53.7339 30.8198 54.5021 31.8398 55.3741 32.7798C55.7894 33.2398 56.4122 33.5198 57.1805 34.0398C55.3326 34.0598 53.7339 34.0598 51.886 34.0598ZM47.2767 24.8998C47.2767 25.5398 47.2351 26.1998 47.2974 26.8398C47.3182 27.0798 47.5258 27.5198 47.6919 27.5398C48.6885 27.6398 49.7059 27.8598 50.5987 27.1598C51.5745 26.3798 51.8652 24.8598 51.3046 23.4998C50.8271 22.3598 49.872 21.9398 48.1902 22.0598C47.5881 22.0998 47.2974 22.3598 47.2974 22.9398C47.2767 23.5998 47.2767 24.2598 47.2767 24.8998Z" fill="#FFF3E0"/>
<path d="M110.79 34.06C110.873 33.82 110.873 33.72 110.915 33.7C112.451 33.3 112.513 32.22 112.472 30.94C112.389 28.58 112.513 26.22 112.451 23.86C112.43 23.36 111.932 22.86 111.6 22.38C111.413 22.12 111.102 21.92 110.707 21.58C111.102 21.44 111.309 21.3 111.517 21.3C112.493 21.28 113.468 21.28 114.444 21.34C114.777 21.36 115.171 21.54 115.399 21.76C116.957 23.3 118.452 24.9 119.988 26.46C120.922 27.42 121.877 28.4 122.832 29.34C122.957 29.46 123.227 29.6 123.372 29.54C123.518 29.48 123.642 29.22 123.642 29.04C123.621 27.06 123.621 25.08 123.518 23.1C123.497 22.8 123.165 22.48 122.895 22.24C122.625 22 122.272 21.86 121.94 21.66C121.96 21.58 121.981 21.48 122.002 21.4C123.393 21.4 124.805 21.4 126.196 21.4C126.217 21.46 126.258 21.54 126.279 21.6C125.988 21.78 125.739 22.08 125.428 22.14C124.556 22.28 124.41 22.82 124.41 23.54C124.431 26.74 124.41 29.92 124.41 33.12C124.41 33.32 124.452 33.54 124.41 33.74C124.348 33.98 124.224 34.3 124.037 34.36C123.871 34.42 123.518 34.26 123.352 34.1C121.607 32.34 119.863 30.54 118.119 28.76C116.832 27.44 115.524 26.1 114.216 24.8C114.071 24.66 113.884 24.58 113.489 24.32C113.489 25.06 113.489 25.62 113.489 26.18C113.489 28.1 113.531 30.02 113.489 31.94C113.468 32.7 113.718 33.18 114.486 33.4C114.693 33.46 114.839 33.66 115.026 33.78C115.005 33.86 114.984 33.94 114.963 34C113.614 34.06 112.243 34.06 110.79 34.06Z" fill="#FFF3E0"/>
<path d="M24.4174 25.2997C24.0229 24.7597 23.7115 24.2797 23.3585 23.8597C22.3619 22.6397 21.0954 21.9197 19.4551 21.8397C16.6937 21.7197 15.3026 23.8197 14.8873 25.7797C14.4098 28.0597 14.6797 30.2997 16.1538 32.2997C17.3996 33.9797 20.3064 34.0797 22.0297 33.2597C22.2788 33.1397 22.4034 32.7397 22.4865 32.4397C22.5695 32.1597 22.5072 31.8597 22.528 31.5597C22.6941 30.0197 22.528 28.6997 20.5971 28.3197C20.4932 28.2997 20.431 28.1797 20.161 27.9597C20.5348 27.8997 20.7424 27.8597 20.95 27.8397C22.5488 27.8197 24.1267 27.7797 25.7255 27.7997C26.0161 27.7997 26.286 27.9997 26.5767 28.1197C26.3691 28.2997 26.1822 28.5997 25.9538 28.6397C25.2271 28.7997 25.061 29.2797 25.0403 29.8797C25.0195 30.6797 25.0195 31.4797 25.0403 32.2797C25.061 32.9197 24.7704 33.3397 24.1475 33.5797C20.4933 35.0197 16.9013 35.1397 13.6208 32.7197C11.856 31.4197 11.15 29.5197 11.2331 27.3997C11.3784 23.9797 13.4339 22.1397 16.9013 21.2397C19.0399 20.6797 21.1992 20.7597 23.3377 21.3997C23.5661 21.4597 23.8153 21.5597 23.9814 21.6997C24.4382 22.1197 24.7704 24.5597 24.4174 25.2997Z" fill="#FFF3E0"/>
<path d="M102.069 21.0596C105.993 21.0996 109.004 23.9796 108.983 27.6596C108.962 31.5396 105.329 34.7196 100.761 34.4996C97.1276 34.3196 94.4285 31.7396 94.3039 28.0996C94.1586 23.7596 97.8959 21.0796 102.069 21.0596ZM96.484 25.8596C96.0895 27.9396 98.7471 31.2996 100.346 32.2596C101.093 32.6996 101.924 33.1796 102.754 33.2596C105.453 33.5196 107.301 31.4196 106.782 28.8396C106.284 26.2996 104.644 24.5196 102.567 23.0796C102.069 22.7396 101.405 22.5596 100.782 22.4396C98.498 21.9996 96.131 23.8596 96.484 25.8596Z" fill="#FFF3E0"/>
<path d="M37.2275 26.1598C37.2275 27.3798 37.2275 28.6198 37.2275 29.8398C37.1029 29.9198 36.9576 29.9998 36.833 30.0798C36.6877 29.8198 36.5631 29.5398 36.397 29.2998C35.7741 28.4998 34.2792 28.0398 33.3449 28.3998C33.158 28.4798 32.9504 28.7798 32.9504 28.9998C32.9089 30.2998 32.8881 31.5998 32.9296 32.8998C32.9296 33.0998 33.3241 33.4398 33.5525 33.4398C35.089 33.4798 36.6254 33.5198 38.1411 33.3998C38.5979 33.3598 39.0754 32.8198 39.4076 32.4198C39.6983 32.0398 39.8229 31.5398 40.0305 31.0598C40.4665 31.5598 40.5911 33.5798 40.2381 33.9398C40.0928 34.0798 39.8021 34.1598 39.5945 34.1598C36.0648 34.1798 32.5559 34.1798 29.0262 34.1798C28.8186 34.1798 28.5902 34.0798 28.3203 33.7998C28.5902 33.6598 28.8394 33.4998 29.1093 33.3798C29.836 33.0598 30.3551 32.6398 30.3343 31.7398C30.2928 28.8798 30.3343 25.9998 30.2928 23.1398C30.2928 22.8998 29.9606 22.5798 29.7114 22.4198C29.3169 22.1398 28.8394 21.9598 28.4034 21.7398C28.4241 21.6598 28.4241 21.5598 28.4449 21.4798C28.7148 21.4198 28.9847 21.2998 29.2339 21.2998C32.1822 21.2998 35.1097 21.3198 38.058 21.3398C39.3246 21.3598 39.3246 21.3598 39.4076 22.6598C39.4491 23.2598 39.5322 23.8398 39.5945 24.4398C39.4907 24.4798 39.3868 24.5198 39.283 24.5798C39.0546 24.3198 38.764 24.0798 38.5979 23.7798C37.9127 22.5198 36.8538 21.9198 35.3796 22.0598C35.3173 22.0598 35.2551 22.0598 35.1928 22.0598C32.4936 22.0198 32.9504 21.9598 32.9089 24.3998C32.8881 25.1998 32.9504 25.9998 32.9089 26.7998C32.8881 27.4398 33.158 27.6598 33.7809 27.6198C34.1546 27.5998 34.5284 27.5798 34.8813 27.6198C35.5457 27.6998 35.9818 27.4398 36.2932 26.8798C36.4593 26.5798 36.7707 26.3398 36.9991 26.0598C37.0614 26.0998 37.1445 26.1398 37.2275 26.1598Z" fill="#FFF3E0"/>
<path d="M83.4456 30.6399C83.7571 31.0799 84.0685 31.5199 84.3384 31.9799C85.4388 33.7199 87.785 34.2399 89.2799 32.8999C90.0066 32.2399 90.0482 31.1799 89.2384 30.6399C87.5982 29.5399 85.9579 28.4999 84.3177 27.3999C83.0719 26.5599 82.5943 25.3599 82.8227 23.9199C83.0511 22.4799 84.0685 21.7199 85.3973 21.3199C87.1206 20.7999 88.8024 21.1199 90.4427 21.7199C90.588 21.7799 90.7126 21.8799 90.8164 21.9799C91.2109 22.3399 91.4393 24.4399 91.0448 25.1599C90.6503 24.5399 90.3388 23.9799 89.9443 23.4799C89.2384 22.5799 88.3871 21.9599 87.1206 21.9599C86.1448 21.9599 85.5634 22.5199 85.335 23.2199C85.2104 23.6399 85.5634 24.3999 85.9579 24.7199C87.0376 25.5799 88.2833 26.2399 89.3838 27.0799C90.235 27.7199 91.1901 28.3599 91.7507 29.2199C93.2664 31.5399 91.2939 33.5399 89.5083 34.1799C87.7643 34.7999 86.0825 34.4999 84.3799 34.0799C83.7571 33.9199 83.4041 33.5799 83.3833 32.8799C83.3626 32.1799 83.2172 31.4799 83.1134 30.7599C83.2172 30.7199 83.321 30.6799 83.4456 30.6399Z" fill="#FFF3E0"/>
<path d="M81.6389 34.0796C79.7702 34.0796 77.86 34.0796 75.8668 34.0796C75.9914 33.8396 76.0122 33.7396 76.0744 33.6996C77.1749 32.9996 77.1749 32.9996 76.6558 31.8196C75.9083 30.1596 76.2405 30.3796 74.4134 30.3796C73.5206 30.3796 72.6278 30.2996 71.7558 30.3996C71.3821 30.4396 70.9876 30.7596 70.7177 31.0396C70.51 31.2596 70.4893 31.6396 70.3439 31.9396C69.8456 33.0596 69.8456 33.0596 70.9876 33.6596C71.0706 33.6996 71.1329 33.8396 71.3405 34.0996C69.991 34.0996 68.8075 34.0996 67.624 34.0996C67.6448 33.9196 67.624 33.8196 67.6448 33.8196C69.2227 33.2196 69.4511 31.6996 69.991 30.4596C71.1537 27.9196 72.088 25.2996 73.1469 22.7196C73.2715 22.4196 73.4583 22.1396 73.666 21.8996C73.9151 21.5996 74.2266 21.3596 74.5172 21.0996C74.7664 21.3796 75.1194 21.5996 75.2647 21.9196C75.9291 23.3796 76.5312 24.8596 77.1956 26.3196C78.13 28.3596 79.0228 30.4196 80.0609 32.4196C80.3516 33.0396 81.0367 33.4796 81.6389 34.0796ZM73.5414 29.5796C73.8736 29.5796 74.2058 29.5796 74.5588 29.5796C75.6384 29.5596 75.7007 29.4596 75.3062 28.5196C74.891 27.4796 74.4965 26.4196 74.0605 25.3796C73.9567 25.1396 73.7283 24.9596 73.5622 24.7596C73.3545 24.9596 73.0846 25.1196 72.9808 25.3596C72.6694 26.0596 72.441 26.7996 72.1503 27.4996C71.1744 29.7396 71.0706 29.5796 73.5414 29.5796Z" fill="#FFF3E0"/>
<path d="M66.316 21.4199C67.5617 21.4199 68.8075 21.4199 70.074 21.4199C70.074 21.5599 70.074 21.6199 70.0533 21.6199C67.9977 22.4999 67.9355 24.5799 67.188 26.1999C66.0253 28.6799 65.0287 31.2599 63.9283 33.7599C63.8037 34.0599 63.3884 34.4399 63.1185 34.4199C62.8486 34.4199 62.4956 33.9999 62.3503 33.6999C60.8969 30.5199 59.4435 27.3399 58.0316 24.1399C57.6164 23.1999 57.1181 22.3399 56.0384 21.9799C55.8723 21.9199 55.7478 21.7399 55.374 21.4199C57.741 21.4199 59.8172 21.4199 62.1634 21.4199C61.8105 21.6799 61.6859 21.8199 61.5198 21.8999C60.3571 22.3799 60.2948 22.4599 60.7931 23.5999C61.7274 25.8399 62.6825 28.0599 63.6583 30.2999C63.7206 30.4599 63.9075 30.6799 64.0528 30.6999C64.1774 30.7199 64.4058 30.4999 64.4889 30.3399C65.4647 28.0799 66.399 25.8199 67.3956 23.5799C67.7486 22.7799 67.7278 22.2399 66.752 21.9799C66.5859 21.9399 66.4405 21.7399 66.2952 21.6199C66.2744 21.5399 66.2952 21.4799 66.316 21.4199Z" fill="#FFF3E0"/>
<path d="M128.044 21.4404C130.162 21.4404 132.259 21.4404 134.377 21.4404C134.418 21.5204 134.46 21.6004 134.501 21.6804C134.086 21.9004 133.691 22.2204 133.255 22.3404C132.695 22.4804 132.529 22.7804 132.529 23.2804C132.529 25.6804 132.508 28.0604 132.508 30.4604C132.508 30.7204 132.55 31.0004 132.508 31.2604C132.28 32.4204 132.757 33.1204 133.92 33.4604C134.127 33.5204 134.294 33.7004 134.709 33.9804C134.169 34.1004 133.858 34.2004 133.567 34.2204C131.947 34.2404 130.328 34.2404 128.708 34.2004C128.48 34.2004 128.252 34.0204 128.023 33.9404C128.21 33.7804 128.355 33.5604 128.584 33.4604C129.996 32.8004 129.975 32.8004 129.954 31.2404C129.913 28.9004 129.933 26.5804 129.954 24.2404C129.975 23.2604 129.996 22.3204 128.646 22.1204C128.418 22.0804 128.231 21.8404 128.023 21.7004C128.002 21.6004 128.023 21.5204 128.044 21.4404Z" fill="#FFF3E0"/>
<path d="M76.4483 47.4398C75.7424 47.4198 74.9534 46.8798 74.3928 46.3798C73.6868 45.7798 73.8114 44.9598 74.4135 44.2598C74.5796 44.0598 74.725 43.6598 74.6212 43.4598C73.7907 41.8198 74.5174 40.5798 76.3652 40.5998C76.8843 40.5998 77.4657 40.7598 77.9432 40.9998C78.836 41.4398 79.0229 42.2998 78.5661 43.1798C78.4207 43.4798 78.2546 44.0198 78.4207 44.1598C79.1059 44.7998 79.2305 45.4798 78.7529 46.2198C78.2546 46.9798 77.4657 47.4798 76.4483 47.4398ZM76.386 46.3598C77.3618 46.3798 78.0263 45.9598 78.047 45.3398C78.0678 44.6598 77.3411 44.1598 76.3237 44.1598C75.4724 44.1598 74.8703 44.6398 74.8911 45.3198C74.9118 46.0198 75.4102 46.3598 76.386 46.3598ZM76.4275 43.4598C77.0919 43.4398 77.8809 42.8398 77.8809 42.3398C77.8602 41.8798 77.0504 41.3598 76.3237 41.3998C75.6801 41.4398 75.1818 41.6998 75.0987 42.3798C75.0364 42.9398 75.7424 43.4798 76.4275 43.4598Z" fill="#FFF3E0"/>
<path d="M70.0116 40.3398C70.6345 40.6998 71.3612 40.9798 71.8387 41.4798C72.3993 42.0598 72.2124 42.7798 71.7141 43.4198C71.5895 43.5798 71.6726 44.0198 71.8179 44.1998C72.4408 44.8998 72.5239 45.6198 71.984 46.3598C71.4442 47.1198 69.97 47.5598 69.098 47.2398C67.8523 46.7998 67.084 46.0798 67.3955 45.1798C67.7484 44.1998 67.8938 43.4398 67.5408 42.3798C67.2086 41.3998 68.4128 40.6198 69.8455 40.5598C69.9078 40.4998 69.9701 40.4198 70.0116 40.3398ZM69.7832 46.4398C70.7798 46.4398 71.4442 45.9798 71.4442 45.2998C71.4442 44.6798 70.759 44.1598 69.9701 44.1398C68.9942 44.1198 68.2467 44.6598 68.2675 45.3598C68.2675 45.9798 68.9112 46.4398 69.7832 46.4398ZM69.8247 43.4798C70.5929 43.4798 71.2989 42.9798 71.2366 42.3798C71.1535 41.7598 70.7175 41.3998 70.0323 41.3798C69.1603 41.3598 68.3713 41.8598 68.4751 42.3998C68.5997 43.0998 69.0773 43.4598 69.8247 43.4798Z" fill="#FFF3E0"/>
<path d="M82.2822 46.26C82.9051 46.26 83.5487 46.22 84.1508 46.28C84.4 46.3 84.6284 46.58 84.8568 46.76C84.6076 46.86 84.3585 47.06 84.1093 47.06C83.2165 47.1 82.3237 47.1 81.4517 47.04C81.1195 47.02 80.7873 46.78 80.4551 46.64C80.6627 46.34 80.7873 45.96 81.0572 45.74C81.8254 45.12 82.6975 44.62 83.4034 43.94C83.9017 43.46 84.5246 42.84 83.8602 42C83.2996 41.3 82.2199 41.26 81.6593 41.94C81.5763 42.04 81.5555 42.2 81.4724 42.24C81.1402 42.38 80.808 42.48 80.4551 42.6C80.4966 42.26 80.4551 41.86 80.6212 41.58C81.3271 40.5 83.0712 40.26 84.1924 41.04C85.1267 41.68 85.272 42.98 84.4623 44.04C84.1508 44.44 83.7564 44.78 83.3826 45.1C83.0089 45.42 82.5729 45.7 82.1576 46C82.2199 46.1 82.2614 46.18 82.2822 46.26Z" fill="#FFF3E0"/>
<path d="M65.133 43.84C65.133 44.66 65.1746 45.5 65.1123 46.32C65.0915 46.58 64.7801 46.8 64.614 47.04C64.4479 46.8 64.1572 46.56 64.1364 46.3C64.0949 45.36 64.1157 44.4 64.1572 43.46C64.178 42.9 64.1572 42.42 63.3267 42.56C63.1606 42.58 62.9737 42.4 62.8076 42.32C62.9114 42.12 62.9945 41.9 63.1606 41.76C63.5136 41.46 63.8873 41.16 64.261 40.92C64.4271 40.82 64.7178 40.7 64.8216 40.78C64.9877 40.9 65.1123 41.16 65.1123 41.36C65.133 42.18 65.1123 43.02 65.133 43.84Z" fill="#FFF3E0"/>
<path d="M47.2763 24.8998C47.2763 24.2598 47.2763 23.5998 47.2763 22.9598C47.2763 22.3798 47.5462 22.1198 48.1691 22.0798C49.8508 21.9398 50.8059 22.3798 51.2835 23.5198C51.8441 24.8798 51.5534 26.4198 50.5775 27.1798C49.6847 27.8798 48.6674 27.6598 47.6708 27.5598C47.5047 27.5398 47.297 27.1198 47.2763 26.8598C47.2347 26.1998 47.2763 25.5398 47.2763 24.8998Z" fill="#1A130D"/>
<path d="M96.4847 25.8602C96.1318 23.8602 98.4987 22.0002 100.762 22.4402C101.385 22.5602 102.049 22.7402 102.547 23.0802C104.624 24.5202 106.264 26.3202 106.762 28.8402C107.281 31.4202 105.433 33.5202 102.734 33.2602C101.904 33.1802 101.073 32.7002 100.326 32.2602C98.7479 31.3002 96.0903 27.9402 96.4847 25.8602Z" fill="#1A130D"/>
<path d="M73.5414 29.5798C71.0707 29.5798 71.1745 29.7398 72.1503 27.4998C72.4618 26.7998 72.6694 26.0598 72.9808 25.3598C73.0847 25.1198 73.3546 24.9598 73.5622 24.7598C73.7283 24.9598 73.9567 25.1598 74.0605 25.3798C74.4965 26.4198 74.8702 27.4798 75.3063 28.5198C75.68 29.4598 75.6177 29.5598 74.5588 29.5798C74.2058 29.5798 73.8736 29.5798 73.5414 29.5798Z" fill="#1A130D"/>
<path d="M76.3855 46.3602C75.3889 46.3402 74.8906 46.0002 74.8906 45.3202C74.8906 44.6402 75.4927 44.1602 76.3233 44.1602C77.3406 44.1602 78.0673 44.6602 78.0466 45.3402C78.0466 45.9802 77.3821 46.3802 76.3855 46.3602Z" fill="#1A130D"/>
<path d="M76.4274 43.4596C75.7422 43.4796 75.0363 42.9196 75.0986 42.3796C75.1609 41.6996 75.6799 41.4396 76.3236 41.3996C77.0503 41.3596 77.8808 41.8796 77.8808 42.3396C77.8808 42.8396 77.0918 43.4596 76.4274 43.4596Z" fill="#1A130D"/>
<path d="M69.7839 46.4402C68.9119 46.4402 68.2682 45.9802 68.2475 45.3602C68.2267 44.6602 68.9949 44.1202 69.95 44.1402C70.7598 44.1602 71.4242 44.6802 71.4242 45.3002C71.4449 45.9802 70.7805 46.4402 69.7839 46.4402Z" fill="#1A130D"/>
<path d="M69.8249 43.48C69.0774 43.48 68.5999 43.1 68.4545 42.42C68.3507 41.88 69.1397 41.38 70.0117 41.4C70.6761 41.42 71.1329 41.76 71.216 42.4C71.299 42.98 70.5931 43.48 69.8249 43.48Z" fill="#1A130D"/>
</svg>
