<svg width="111" height="62" viewBox="0 0 111 62" fill="none" xmlns="http://www.w3.org/2000/svg">
<g clip-path="url(#clip0_608_4863)">
<path d="M-5 64.465C-5 41.9767 -5 19.5071 -5 -3C35.2832 -3 75.5851 -3 115.868 -3C115.868 19.4696 115.868 41.9392 115.868 64.465C75.5287 64.465 35.2644 64.465 -5 64.465ZM37.2964 44.9165C37.2776 43.7743 37.2776 42.6133 37.2776 41.4711C37.2776 38.213 37.2776 34.9549 37.2964 31.6968C37.2964 31.2287 37.1647 30.9291 36.6567 30.9291C36.2239 30.9291 35.7912 30.9478 35.3396 30.9478C30.9557 30.9478 26.5718 30.9478 22.1878 30.9291C21.5858 30.9291 21.3976 31.1538 21.4164 31.6968C21.4352 33.1386 21.4541 34.5804 21.4164 36.041C21.3976 36.6589 21.6422 36.8274 22.2255 36.8274C24.8031 36.8087 27.3996 36.8087 29.9773 36.8087C31.4261 36.8087 31.4637 36.8087 31.4825 38.2317C31.5013 43.0253 31.5013 47.8188 31.5201 52.6123C31.5201 53.0242 31.3696 53.3238 30.8804 53.3426C27.2679 53.5298 23.8812 52.7434 20.8708 50.7586C16.2046 47.669 13.119 43.381 11.8207 37.9509C10.3343 31.6407 11.7266 25.8735 15.8848 20.874C19.6666 16.3051 24.5962 13.9084 30.5606 13.7586C32.5738 13.7024 34.5682 13.7211 36.5814 13.7211C36.9577 13.7211 37.2776 13.7024 37.2776 13.1968C37.2588 11.6802 37.2588 10.1635 37.2776 8.66548C37.2776 8.15991 37.0894 7.89776 36.5438 7.91649C34.4741 7.93521 32.3856 7.91649 30.316 7.93521C25.6498 7.99139 21.3412 9.30212 17.4276 11.7925C13.3447 14.3765 10.2026 17.878 8.11414 22.2409C5.96921 26.7348 5.06609 31.4347 5.64936 36.4155C6.27025 41.7333 8.30229 46.4706 11.8019 50.5151C14.643 53.8107 18.1238 56.2823 22.2443 57.7054C23.9 58.2859 25.6686 58.7915 27.3996 58.9038C30.41 59.091 33.4393 58.9412 36.4685 58.96C37.0706 58.96 37.2776 58.7353 37.2776 58.1548C37.2964 53.7358 37.2964 49.3168 37.2964 44.9165ZM39.8364 33.3633C39.8364 41.6022 39.8552 49.8411 39.8364 58.0612C39.8364 58.6229 39.9493 58.9225 40.589 58.9038C45.067 58.8851 49.545 58.9038 54.023 58.9038C54.4934 58.9038 54.7004 58.7166 54.6816 58.2484C54.6627 56.8815 54.6439 55.4959 54.6627 54.129C54.6815 53.5111 54.4934 53.3426 53.8725 53.3613C51.4077 53.3987 48.9429 53.38 46.4593 53.3987C45.8949 53.3987 45.6503 53.1928 45.6691 52.631C45.6879 52.088 45.6879 51.5263 45.6879 50.9833C45.6879 42.1265 45.6879 33.2697 45.6879 24.4129C45.6879 23.5703 45.8008 23.458 46.6475 23.458C47.7576 23.458 48.8677 23.458 49.9778 23.4767C50.467 23.4767 50.6927 23.3456 50.6927 22.8026C50.6739 21.3046 50.6739 19.8254 50.6927 18.3274C50.6927 17.8031 50.5046 17.5784 49.9401 17.5971C48.7924 17.6346 47.6259 17.6159 46.4782 17.6346C45.9325 17.6346 45.6691 17.3912 45.6879 16.8482C45.7067 16.0617 45.7256 15.294 45.6879 14.5076C45.6691 13.8709 45.9702 13.6837 46.5722 13.6837C49.037 13.7024 51.5018 13.6837 53.9854 13.7024C54.5498 13.7024 54.7192 13.4777 54.7192 12.9722C54.7004 11.624 54.7004 10.2571 54.7004 8.9089C54.7004 7.93521 54.6439 7.89777 53.7032 7.89777C49.4133 7.89777 45.1235 7.89777 40.8336 7.89777C39.8929 7.89777 39.8552 7.93521 39.8552 8.85272C39.8364 17.0354 39.8364 25.1994 39.8364 33.3633ZM85.1244 10.8188C85.1244 10.0886 85.0868 9.35829 85.1244 8.6093C85.1432 8.04756 84.8986 7.86032 84.3906 7.87904C83.4499 7.89776 82.4903 7.86032 81.5495 7.93521C79.0471 8.10374 76.8081 9.02125 74.9454 10.6316C71.8974 13.253 71.1448 16.6796 71.8597 20.4995C72.3301 23.046 73.7036 25.2181 75.0019 27.4089C76.9022 30.6295 78.8966 33.794 80.7593 37.0334C81.7189 38.7373 82.2645 40.6098 82.4715 42.5759C82.8666 46.3021 80.082 50.4964 77.0527 51.8446C75.604 52.4812 74.0047 52.8183 72.443 53.2302C71.9162 53.3613 71.7092 53.5485 71.7092 54.0916C71.7281 55.4397 71.7092 56.8066 71.6904 58.1548C71.6904 58.6604 71.8786 58.9038 72.4242 58.9038C75.5663 58.8663 78.4639 57.9488 81.1168 56.3385C83.5439 54.8593 85.2561 52.7434 86.5732 50.253C87.608 48.2682 88.2477 46.1897 88.3418 43.9428C88.4735 40.4413 87.4387 37.2019 85.8394 34.1872C84.0331 30.7606 81.9823 27.4651 80.0255 24.1321C78.953 22.297 77.8994 20.4808 77.6548 18.3274C77.3538 15.7434 78.9342 13.8709 81.5307 13.796C82.4715 13.7773 83.431 13.7586 84.3718 13.796C84.9739 13.8148 85.162 13.5713 85.1432 13.0283C85.1056 12.2981 85.1244 11.5678 85.1244 10.8188ZM70.2605 10.8937C70.2417 10.8937 70.2417 10.8937 70.2605 10.8937C70.2417 10.1073 70.2417 9.33957 70.2417 8.55313C70.2605 8.12246 70.0535 7.91649 69.6396 7.89777C66.8361 7.78542 64.1079 8.08501 61.6431 9.58298C59.3477 10.9686 57.7672 12.8598 57.1275 15.4813C56.2808 18.8704 57.0711 22.0162 58.7456 24.9372C60.2885 27.6149 61.9818 30.2176 63.5999 32.8578C65.1804 35.4418 66.7044 38.0632 67.4006 41.0592C68.2849 44.9539 66.8926 48.0997 64.0327 50.6837C62.2452 52.294 60.0062 52.9493 57.6543 53.2489C57.0899 53.3238 56.8453 53.5298 56.8641 54.1103C56.9017 55.3461 56.8641 56.5819 56.8829 57.8178C56.8829 58.8851 56.9394 58.9787 58.0306 58.9038C62.6968 58.5668 66.7985 56.9564 69.7901 53.2302C71.9915 50.4964 73.4402 47.3881 73.5155 43.793C73.5907 40.0293 72.3678 36.584 70.618 33.3633C68.6424 29.7307 66.441 26.248 64.3525 22.6715C63.4118 21.0425 62.7532 19.3198 62.8097 17.3912C62.8661 15.6123 63.9198 14.2454 65.7072 13.9646C66.949 13.7586 68.2284 13.796 69.489 13.7586C70.0347 13.7399 70.2981 13.5713 70.2605 12.9909C70.2228 12.3168 70.2605 11.6053 70.2605 10.8937ZM95.849 33.457C95.8678 33.457 95.8678 33.457 95.8867 33.457C95.8867 29.3375 95.8867 25.1994 95.8867 21.0799C95.8867 16.9792 95.8867 12.8785 95.9055 8.7591C95.9055 8.23481 95.849 7.86032 95.1717 7.87904C93.7982 7.91649 92.4059 7.91649 91.0324 7.89777C90.2233 7.89777 90.1104 7.99139 90.1104 8.77783C90.0916 25.2368 90.0916 41.7145 90.0728 58.1735C90.0728 58.7727 90.3174 58.9225 90.863 58.9225C91.9543 58.9038 93.0268 58.9038 94.118 58.9038C95.8678 58.9225 95.8678 58.9225 95.8678 57.1811C95.849 49.2793 95.849 41.3775 95.849 33.457ZM97.8811 10.6503C97.8622 12.4666 99.3298 13.9458 101.211 13.9458C103.093 13.9458 104.485 12.4291 104.466 10.6316C104.448 9.00252 103.112 7.52327 101.287 7.41092C99.518 7.29857 97.8999 8.87145 97.8811 10.6503Z" fill="#1A130D"/>
<path d="M-5 64.465C35.2643 64.465 75.5287 64.465 115.868 64.465C115.868 41.958 115.868 19.4883 115.868 -3C115.906 -2.81275 116 -2.62551 116 -2.45698C116 1.26923 116 4.97671 116 8.70293C116 27.334 116 45.965 116 64.5961C75.8674 64.5961 35.7347 64.5961 -4.39792 64.5961C-4.58607 64.5961 -4.79303 64.5025 -5 64.465Z" fill="#FFF3E0"/>
<path d="M37.2959 44.9162C37.2959 49.3165 37.2959 53.7168 37.2959 58.1358C37.2959 58.735 37.0889 58.9409 36.4869 58.9409C33.4576 58.9222 30.4284 59.072 27.418 58.8848C25.6682 58.7724 23.9184 58.2669 22.2626 57.6864C18.1233 56.2633 14.6425 53.7917 11.8202 50.4961C8.32062 46.4329 6.30741 41.7142 5.66769 36.3964C5.08442 31.4157 5.98755 26.7158 8.13247 22.2218C10.221 17.8403 13.3443 14.3575 17.446 11.7735C21.3595 9.30181 25.6682 7.99108 30.3343 7.91619C32.404 7.89746 34.4924 7.91619 36.5621 7.89746C37.1077 7.89746 37.2959 8.14088 37.2959 8.64645C37.2771 10.1631 37.2959 11.6798 37.2959 13.1778C37.2959 13.6834 36.9949 13.7021 36.5997 13.7021C34.5865 13.7021 32.5921 13.6834 30.5789 13.7396C24.6145 13.8894 19.685 16.2861 15.9031 20.8549C11.7638 25.8544 10.3527 31.6216 11.839 37.9319C13.1185 43.362 16.223 47.65 20.8891 50.7395C23.8995 52.7243 27.2863 53.5108 30.8988 53.3235C31.388 53.3048 31.5385 53.0052 31.5385 52.5933C31.5385 47.7998 31.5385 43.0062 31.5008 38.2127C31.5008 36.7896 31.4632 36.7896 29.9956 36.7896C27.418 36.7896 24.8215 36.7709 22.2438 36.8084C21.6605 36.8084 21.4159 36.6398 21.4348 36.0219C21.4724 34.5801 21.4536 33.1383 21.4348 31.6778C21.4348 31.1348 21.6229 30.9101 22.2062 30.9101C26.5901 30.9288 30.974 30.9288 35.3579 30.9288C35.7907 30.9288 36.2234 30.9101 36.675 30.9101C37.183 30.9101 37.3147 31.2097 37.3147 31.6778C37.2959 34.9359 37.2959 38.194 37.2959 41.4521C37.2771 42.6317 37.2771 43.7739 37.2959 44.9162Z" fill="#FFF3E0"/>
<path d="M39.8362 33.3629C39.8362 25.1989 39.8362 17.0349 39.8362 8.87097C39.8362 7.95347 39.8926 7.91602 40.8146 7.91602C45.1044 7.91602 49.3943 7.91602 53.6841 7.91602C54.6437 7.91602 54.6813 7.95347 54.6813 8.92715C54.6813 10.2753 54.6813 11.6422 54.7001 12.9904C54.7001 13.496 54.5308 13.7394 53.9663 13.7207C51.5016 13.7019 49.0368 13.7207 46.5532 13.7019C45.9511 13.7019 45.6501 13.8892 45.6689 14.5258C45.6877 15.3123 45.6877 16.08 45.6689 16.8664C45.6501 17.4282 45.9135 17.6716 46.4591 17.6529C47.6068 17.6341 48.7734 17.6529 49.9211 17.6154C50.4667 17.5967 50.6737 17.8214 50.6737 18.3457C50.6549 19.8436 50.6549 21.3229 50.6737 22.8209C50.6737 23.3452 50.4479 23.495 49.9587 23.495C48.8486 23.4762 47.7385 23.4762 46.6285 23.4762C45.8006 23.4762 45.6877 23.5886 45.6689 24.4312C45.6689 33.288 45.6689 42.1447 45.6689 51.0015C45.6689 51.5445 45.6689 52.1063 45.6501 52.6493C45.6313 53.211 45.8758 53.417 46.4403 53.417C48.9051 53.3983 51.3699 53.417 53.8535 53.3795C54.4555 53.3795 54.6625 53.5481 54.6437 54.1473C54.6061 55.5142 54.6437 56.8998 54.6625 58.2667C54.6625 58.7348 54.4744 58.9221 54.004 58.9221C49.526 58.9033 45.048 58.9033 40.57 58.9221C39.9303 58.9221 39.8174 58.6412 39.8174 58.0794C39.855 49.8406 39.8362 41.6017 39.8362 33.3629Z" fill="#FFF3E0"/>
<path d="M85.1247 10.819C85.1247 11.5492 85.1058 12.2795 85.1247 13.0285C85.1435 13.5715 84.9553 13.8149 84.3532 13.7962C83.4125 13.7587 82.4529 13.7775 81.5122 13.7962C78.9157 13.8711 77.354 15.7436 77.6362 18.3276C77.8808 20.4996 78.9345 22.3159 80.0069 24.1322C81.9637 27.4839 84.0146 30.7795 85.8208 34.1874C87.4201 37.202 88.4549 40.4414 88.3232 43.9429C88.248 46.1899 87.6083 48.2683 86.5546 50.2531C85.2564 52.7248 83.5254 54.8594 81.0982 56.3387C78.4265 57.9677 75.5478 58.8665 72.4056 58.9039C71.86 58.9039 71.6718 58.6605 71.6718 58.155C71.6907 56.8068 71.7095 55.4399 71.6907 54.0917C71.6907 53.5487 71.8976 53.3614 72.4245 53.2304C73.9861 52.8184 75.5854 52.5001 77.0342 51.8447C80.0634 50.4966 82.848 46.3022 82.4529 42.576C82.2459 40.6099 81.7003 38.7187 80.7407 37.0335C78.8969 33.7942 76.9025 30.6297 74.9833 27.409C73.6851 25.2182 72.3116 23.0462 71.8412 20.4996C71.1262 16.6798 71.8788 13.2532 74.9269 10.6317C76.7896 9.0214 79.0474 8.10389 81.531 7.93537C82.4717 7.86047 83.4313 7.89792 84.3721 7.87919C84.8801 7.86047 85.1435 8.04771 85.1058 8.60945C85.1058 9.35844 85.1247 10.0887 85.1247 10.819Z" fill="#FFF3E0"/>
<path d="M70.2609 10.8939C70.2609 11.6054 70.2421 12.3169 70.2609 13.0285C70.2797 13.6089 70.0351 13.7775 69.4895 13.7962C68.2289 13.8336 66.9494 13.7962 65.7076 14.0022C63.939 14.3018 62.8666 15.6687 62.8101 17.4288C62.7349 19.3574 63.3934 21.0801 64.353 22.7091C66.4226 26.2855 68.6428 29.7683 70.6184 33.4009C72.3682 36.6216 73.61 40.0669 73.5159 43.8306C73.4407 47.4257 72.0107 50.5153 69.7905 53.2678C66.7989 56.994 62.6972 58.6043 58.0311 58.9414C56.9398 59.0163 56.8834 58.9227 56.8834 57.8554C56.8834 56.6195 56.9022 55.3837 56.8645 54.1479C56.8457 53.5674 57.0903 53.3614 57.6548 53.2865C59.9878 52.9682 62.2457 52.3316 64.0331 50.7213C66.8742 48.1372 68.2853 44.9915 67.401 41.0968C66.7237 38.1008 65.1996 35.4794 63.6003 32.8954C61.9822 30.2552 60.2889 27.6524 58.746 24.9748C57.0715 22.035 56.2813 18.908 57.128 15.5189C57.7677 12.8974 59.3669 11.0062 61.6436 9.62058C64.1084 8.12261 66.8365 7.82301 69.64 7.93536C70.0727 7.95408 70.2609 8.16006 70.2421 8.59072C70.2233 9.33971 70.2421 10.1074 70.2609 10.8939C70.2421 10.8939 70.2421 10.8939 70.2609 10.8939Z" fill="#FFF3E0"/>
<path d="M95.8497 33.4573C95.8497 41.3778 95.8497 49.2797 95.8497 57.2002C95.8497 58.9416 95.8497 58.9416 94.0999 58.9229C93.0087 58.9229 91.9362 58.9041 90.8449 58.9416C90.2993 58.9603 90.0547 58.7918 90.0547 58.1926C90.0735 41.7336 90.0735 25.2559 90.0923 8.79689C90.0923 7.99173 90.2052 7.8981 91.0143 7.91683C92.3878 7.91683 93.7801 7.91683 95.1536 7.8981C95.8309 7.87938 95.8874 8.2726 95.8874 8.77816C95.8686 12.8789 95.8686 16.9796 95.8686 21.099C95.8686 25.2184 95.8686 29.3566 95.8686 33.476C95.8686 33.4573 95.8686 33.4573 95.8497 33.4573Z" fill="#FFF3E0"/>
<path d="M97.881 10.6503C97.8999 8.89014 99.518 7.29854 101.287 7.41089C103.112 7.52323 104.448 9.00248 104.466 10.6315C104.485 12.4291 103.093 13.9271 101.211 13.9458C99.311 13.9458 97.8622 12.4665 97.881 10.6503ZM101.174 7.97263C99.6685 8.01008 98.3702 9.30208 98.4079 10.7439C98.4455 12.1857 99.7626 13.4402 101.211 13.4028C102.698 13.3841 103.958 12.0359 103.921 10.5566C103.864 9.22718 102.528 7.93518 101.174 7.97263Z" fill="#FFF3E0"/>
<path d="M101.174 7.97286C102.51 7.95414 103.865 9.22741 103.903 10.5569C103.959 12.0361 102.68 13.3843 101.193 13.403C99.7445 13.4217 98.4275 12.1859 98.3899 10.7441C98.371 9.30231 99.6693 8.01031 101.174 7.97286ZM101.814 10.9501C102.04 10.7441 102.209 10.6318 102.341 10.4632C102.68 10.0513 102.642 9.35849 102.209 9.20869C101.588 9.00272 100.873 9.00272 100.215 8.96527C100.121 8.96527 99.9327 9.22741 99.9327 9.37721C99.8951 10.276 99.8951 11.1561 99.9139 12.0548C99.9139 12.1485 100.064 12.2421 100.158 12.3357C100.253 12.2421 100.384 12.1485 100.441 12.0174C100.497 11.905 100.422 11.7365 100.46 11.6054C100.535 11.3808 100.61 11.0437 100.761 11.0063C100.93 10.9501 101.269 11.0812 101.4 11.2497C101.664 11.5305 101.814 11.905 102.059 12.2046C102.134 12.2983 102.36 12.2795 102.51 12.317C102.51 12.1672 102.567 11.9987 102.51 11.8863C102.303 11.5867 102.078 11.3059 101.814 10.9501Z" fill="#1A130D"/>
<path d="M101.813 10.9496C102.077 11.3053 102.303 11.5862 102.491 11.8858C102.547 11.9982 102.491 12.1667 102.491 12.3165C102.34 12.279 102.114 12.2978 102.039 12.2041C101.795 11.9045 101.644 11.53 101.381 11.2492C101.23 11.0994 100.91 10.9496 100.741 11.0057C100.59 11.0619 100.515 11.399 100.44 11.6049C100.402 11.736 100.477 11.8858 100.421 12.0169C100.365 12.148 100.233 12.2229 100.139 12.3352C100.064 12.2416 99.8942 12.148 99.8942 12.0543C99.8754 11.1555 99.8754 10.2755 99.913 9.3767C99.913 9.2269 100.101 8.94603 100.195 8.96476C100.873 9.00221 101.569 9.02093 102.19 9.20818C102.641 9.35798 102.66 10.0508 102.321 10.4627C102.208 10.6313 102.039 10.7623 101.813 10.9496ZM101.023 9.15201C100.741 9.50777 100.44 9.69502 100.421 9.91972C100.365 10.3878 100.76 10.4627 101.117 10.444C101.475 10.4253 101.983 10.4253 101.907 9.93844C101.851 9.69502 101.418 9.48905 101.023 9.15201Z" fill="#FFF3E0"/>
<path d="M101.023 9.15234C101.418 9.48939 101.87 9.67663 101.907 9.93878C101.983 10.4443 101.475 10.4256 101.117 10.4443C100.76 10.4631 100.346 10.3882 100.421 9.92006C100.44 9.69536 100.741 9.50811 101.023 9.15234Z" fill="#1A130D"/>
</g>
<defs>
<clipPath id="clip0_608_4863">
<rect width="111" height="62" fill="white"/>
</clipPath>
</defs>
</svg>
