<svg width="143" height="60" viewBox="0 0 143 60" fill="none" xmlns="http://www.w3.org/2000/svg">
<g clip-path="url(#clip0_608_5287)">
<path d="M142.5 60C95 60 47.5 60 0 60C0 40 0 20 0 0C47.5 0 95 0 142.5 0C142.5 20 142.5 40 142.5 60ZM121.2 33.1C122.3 33.9 122.7 34 124.9 33.6C127.4 33.1 129.3 31.8 130.2 29.4C131.7 25 130 20.5 125.9 18C123.4 16.5 120.9 15 118.3 13.5C116.9 12.6 115.9 10.5 116.2 9.2C116.3 8.7 116.3 8.1 116.4 7.6C115.8 7.8 115.3 7.9 114.7 8.2C114.4 8.3 114.2 8.6 114 8.9C112.3 11.2 112.5 13.8 114.4 16.1C117.1 19.4 120.2 22.3 123.5 25C126.5 27.5 125.8 31.4 122.1 32.8C121.8 32.8 121.6 32.9 121.2 33.1ZM77.3 39.1C77.5 39.1 77.7 39.2 77.8 39.2C77.8 39.8 77.9 40.5 77.9 41.1C77.9 43.5 77.9 45.9 77.9 48.3C77.9 49 78.1 49.7 79 49.6C79.8 49.5 80 48.9 80 48.1C80 43.9 80 39.7 80 35.5C80 34.5 79.5 34.1 78.7 34C77.5 33.8 76.7 34.4 76 36.1C74.8 39.1 73.5 42 72.3 44.9C72.2 45.2 71.8 45.5 71.5 45.7C71.2 45.4 70.8 45.2 70.7 44.9C69.4 42 68.2 39.1 67 36.2C66.7 35.6 66.4 34.8 65.9 34.4C65.4 34 64.5 33.9 63.8 34C63.5 34 63 34.8 63 35.2C62.9 39.5 63 43.9 63 48.2C63 49 63.5 49.6 64.2 49.4C64.6 49.3 65.1 48.5 65.1 48.1C65.2 45.6 65.1 43.1 65.1 40.6C65.1 40 65.3 39.5 65.4 38.9C65.5 38.9 65.7 38.9 65.8 38.9C66 39.2 66.2 39.5 66.4 39.8C67.6 42.6 68.7 45.4 70 48.1C70.3 48.7 71 49.4 71.5 49.4C72 49.4 72.7 48.7 73 48.2C74.2 45.6 75.3 42.9 76.4 40.3C76.7 40.1 77 39.6 77.3 39.1ZM25.7 25.9C25.7 25.1 25.8 24.3 25.7 23.5C25.7 22.4 25.2 21.7 24 21.7C22.5 21.7 20.9 21.7 19.4 21.8C19 21.8 18.6 22.4 18.2 22.7C18.6 23 19 23.6 19.4 23.7C20.3 23.9 21.2 23.7 22.1 23.7C23.4 23.7 23.6 24 23.1 25.2C22.1 27.6 18.3 28.6 15.9 27C13.8 25.5 12.8 22.7 13.4 19.9C14.4 15.7 18.6 14.2 22.1 16.8C22.7 17.2 23 18 23.6 18.4C23.9 18.6 24.6 18.6 25 18.5C25.2 18.4 25.4 17.7 25.3 17.4C24.3 14.9 20.2 13 17.5 13.7C12.6 15 10.2 18.8 11.2 23.8C12.4 29.4 18.5 31.2 22.1 28.7C22.8 28.3 23.3 28.2 23.8 28.9C24 29.2 24.6 29.5 24.8 29.4C25.1 29.2 25.4 28.7 25.4 28.3C25.8 27.5 25.7 26.7 25.7 25.9ZM83.8 41.9C83.7 44 83.7 46.1 83.8 48.3C83.8 48.8 84.4 49.6 84.7 49.6C86.6 49.7 88.6 49.7 90.5 49.5C92 49.3 93.3 48.4 93.7 46.9C94.2 45.2 94.2 43.6 92.5 42.4C91.8 41.9 91.8 41.4 92.4 40.8C93.5 39.7 93.8 38.3 93.2 36.9C92.5 35.3 91.3 34.3 89.5 34.2C88.1 34.1 86.8 34.1 85.4 34.1C84.2 34 83.7 34.6 83.8 35.7C83.8 37.8 83.8 39.8 83.8 41.9ZM52.3 50C56.4 50.2 60.4 47.2 60.4 42.1C60.4 37.4 57.9 34.3 53.1 33.9C48.4 33.5 45 36.8 44.8 41.7C44.5 46.1 48 50.1 52.3 50ZM42.8 41.5C42.4 36.4 39.2 33.6 34.1 34C29.8 34.3 26.8 38.3 27.4 43.3C27.8 47.1 31.2 50.5 36.2 50C39.9 49.6 43.5 45.9 42.8 41.5ZM41.7 29.7C46.5 29.5 49.3 26.7 49.4 21.9C49.5 17 46.8 13.7 41.7 13.5C37.5 13.4 34 16.4 33.9 21.4C33.7 26.3 36.9 29.6 41.7 29.7ZM88.9 21.4C88.5 26.3 92.2 29.5 96.2 29.6C101.1 29.7 104.1 26.1 104.3 22.1C104.5 16.4 100.8 13.6 96.6 13.4C93 13.2 88.5 16.4 88.9 21.4ZM69.5 25.1C70.2 25.1 70.8 25.2 71.5 25.1C72.7 25 73.4 25.4 73.7 26.6C73.9 27.3 74 28 74.4 28.6C74.7 29 75.5 29.4 76 29.3C76.8 29.1 76.6 28.4 76.4 27.8C74.7 23.7 73.1 19.7 71.4 15.6C71 14.7 70.7 13.9 69.5 13.9C68.4 13.9 67.9 14.6 67.6 15.5C66 19.6 64.3 23.7 62.6 27.8C62.3 28.5 62.3 29.1 63 29.4C63.9 29.7 64.5 29.2 64.7 28.4C65.3 25.7 66.6 24.2 69.5 25.1ZM11.2 41.6C11.2 47.7 15.9 51.3 21.4 49.7C23.2 49.2 24.6 48 25.3 46.3C25.5 45.9 25.1 45.3 25 44.8C24.5 45 24 45.1 23.5 45.4C23.4 45.5 23.3 45.7 23.3 45.8C21.7 48.7 17.4 49 15.2 46.5C13.4 44.4 13.2 42.1 13.9 39.6C14.4 37.6 16.6 35.9 18.6 35.8C20.7 35.8 22.5 36.4 23.5 38.5C23.7 38.8 24.5 39 25 39C25.2 39 25.6 38.1 25.5 37.9C24.9 37 24.3 35.9 23.4 35.3C20.6 33.4 17.6 33.5 14.7 35.2C12.2 36.7 11.3 39.1 11.2 41.6ZM114.1 50.3C115.3 49.8 116.6 49.5 117.6 48.9C120.3 47.2 120 43.3 117.2 41.9C116.1 41.3 114.8 41.1 113.5 40.8C111.9 40.4 110.9 39.3 111.1 38.1C111.4 36.6 112.8 35.7 114.5 35.8C115.7 35.9 116.4 36.8 117.2 37.6C117.5 37.9 118.3 37.8 118.8 37.9C118.8 37.4 118.9 36.8 118.7 36.3C117.8 34.7 116.3 34.1 114.6 33.9C111.6 33.6 108.9 35.7 108.9 38.5C108.9 40.6 110.3 42.2 112.7 42.8C113.6 43 114.5 43.1 115.4 43.4C116.7 43.9 117.4 45 117.2 46.1C117 47.1 115.8 48 114.5 48.1C112.7 48.2 111.4 47.6 110.6 45.9C110.3 45.3 109.7 44.8 109.1 45.3C108.7 45.6 108.7 46.4 108.6 46.9C108.6 47.1 108.8 47.4 109 47.7C110.3 49.1 111.9 50 114.1 50.3ZM96.8 42.3C96.9 44.3 96.9 46.2 96.9 48.2C96.9 49.2 97.3 49.6 98.2 49.6C100.5 49.7 102.9 49.7 105.2 49.6C105.6 49.6 105.9 48.9 106.3 48.5C105.9 48.2 105.5 47.7 105.1 47.7C104.1 47.6 103 47.6 102 47.7C98.3 47.8 99.1 47.5 99 44.3V44.2C99 43.4 99.4 43 100.2 43C101.6 43 103 43 104.4 42.9C104.8 42.9 105.2 42.4 105.7 42.2C105.3 41.8 105.1 41.1 104.6 40.9C104 40.7 103.2 40.9 102.5 40.9C99.4 41.2 99.1 40.9 99 37.9V37.8C98.9 36.4 99.3 36 100.7 36C102.1 36 103.5 36.1 104.9 36C105.3 36 106 35.5 106.1 35.1C106.3 34.3 105.5 34.1 104.9 34.1C102.6 34.1 100.3 34.1 98 34.1C97.1 34.1 96.8 34.6 96.8 35.5C96.8 37.8 96.8 40 96.8 42.3ZM52.1 21.6C52.1 23.7 52.2 25.8 52.1 27.8C52.1 28.7 52.3 29.4 53.3 29.4C54.3 29.3 54.3 28.5 54.3 27.7C54.3 26.7 54.2 25.8 54.2 24.8C54.2 23.2 54.4 23 56 23C56.6 23 57.2 23 57.7 23C60.3 23 62.4 21.2 62.5 18.9C62.6 16 60.9 14.1 58.1 13.9C56.5 13.8 54.9 13.9 53.4 13.9C52.4 13.9 52 14.4 52 15.4C52.1 17.4 52.1 19.5 52.1 21.6ZM112.2 16.7C109.5 17.3 106.8 20 106.5 22.7C106.2 25.9 107.5 27.9 110.1 29.1C112.8 30.3 117.1 30.1 118.5 27.8C115.3 28.4 113.1 27.3 111.8 24.5C110.7 21.8 110.8 19.2 112.2 16.7ZM83.1 22.6C83.1 20.9 83.1 19.1 83 17.4C82.9 16.1 83.5 15.8 84.6 15.8C85.3 15.8 86.1 15.9 86.8 15.8C87.5 15.8 88.3 15.4 88 14.6C87.9 14.2 87.1 13.8 86.6 13.8C84 13.7 81.4 13.8 78.7 13.8C78 13.8 77.3 13.7 76.6 13.8C76.2 13.9 75.7 14.4 75.7 14.7C75.7 15 76.2 15.5 76.6 15.6C77.2 15.8 77.8 15.7 78.5 15.7C80.9 15.8 81 15.9 81 18.3C81 21.4 81 24.5 81 27.7C81 28.5 80.9 29.3 82 29.3C83.1 29.3 83 28.4 83 27.7C83.1 26 83.1 24.3 83.1 22.6ZM31 21.6C31 19.6 31 17.5 31 15.5C31 14.6 30.9 13.9 29.8 13.9C28.6 13.9 28.9 14.8 28.9 15.5C28.9 15.8 29 16.1 29 16.4C29 20.4 29 24.4 29 28.4C29 29.4 29.6 29.6 30.3 29.2C30.7 29 31 28.3 31 27.8C31 25.8 31 23.7 31 21.6ZM128.9 13.5C127.7 13.5 126.6 14.6 126.5 16C126.4 17.4 127.8 18.8 129.5 18.8C130.7 18.8 131.8 17.6 131.8 16.3C131.8 14.8 130.5 13.5 128.9 13.5ZM122.6 10.7C122.5 9.2 122.1 8.2 121 7.7C120.3 7.4 119.8 7.6 120 8.3C120.4 9.6 120.5 10.8 120.2 12.1C120.1 12.3 120.4 12.7 120.6 12.9C120.8 13 121.2 12.9 121.4 12.7C121.9 12 122.3 11.2 122.6 10.7Z" fill="#1A130D"/>
<path d="M121.2 33.1C121.5 32.9 121.8 32.8 122.1 32.7C125.8 31.3 126.5 27.4 123.5 24.9C120.2 22.2 117.1 19.3 114.4 16C112.5 13.7 112.3 11.1 114 8.8C114.2 8.5 114.4 8.3 114.7 8.1C115.2 7.9 115.8 7.7 116.4 7.5C116.3 8 116.4 8.6 116.2 9.1C115.9 10.5 116.9 12.6 118.3 13.4C120.8 14.9 123.3 16.4 125.9 17.9C130 20.3 131.7 24.8 130.2 29.3C129.4 31.7 127.4 33 124.9 33.5C122.7 34 122.3 33.9 121.2 33.1Z" fill="#FFF3E0"/>
<path d="M77.3 39.0996C77 39.5996 76.7 40.0996 76.4 40.5996C75.3 43.1996 74.2 45.8996 73 48.4996C72.7 48.9996 72 49.6996 71.5 49.6996C70.9 49.5996 70.2 48.9996 70 48.3996C68.7 45.5996 67.6 42.7996 66.4 40.0996C66.3 39.7996 66 39.4996 65.8 39.1996C65.7 39.1996 65.5 39.1996 65.4 39.1996C65.3 39.7996 65.1 40.2996 65.1 40.8996C65.1 43.3996 65.2 45.8996 65.1 48.3996C65.1 48.8996 64.6 49.5996 64.2 49.6996C63.5 49.8996 63 49.2996 63 48.4996C63 44.1996 63 39.7996 63 35.4996C63 35.0996 63.5 34.3996 63.8 34.2996C64.5 34.1996 65.3 34.2996 65.9 34.6996C66.4 35.0996 66.7 35.7996 67 36.4996C68.2 39.3996 69.4 42.2996 70.7 45.1996C70.8 45.4996 71.2 45.7996 71.5 45.9996C71.8 45.6996 72.1 45.4996 72.3 45.1996C73.6 42.2996 74.8 39.2996 76 36.3996C76.7 34.6996 77.4 34.0996 78.7 34.2996C79.6 34.3996 80 34.7996 80 35.7996C80 39.9996 80 44.1996 80 48.3996C80 49.0996 79.9 49.7996 79 49.8996C78.1 49.9996 77.9 49.2996 77.9 48.5996C77.9 46.1996 77.9 43.7996 77.9 41.3996C77.9 40.7996 77.8 40.0996 77.8 39.4996C77.7 39.1996 77.5 39.0996 77.3 39.0996Z" fill="#FFF3E0"/>
<path d="M25.6999 25.9004C25.6999 26.7004 25.7999 27.5004 25.6999 28.3004C25.6999 28.7004 25.3999 29.2004 25.0999 29.4004C24.8999 29.5004 24.2999 29.2004 24.0999 28.9004C23.5999 28.2004 23.0999 28.2004 22.3999 28.7004C18.7999 31.2004 12.5999 29.4004 11.4999 23.8004C10.4999 18.8004 12.8999 15.0004 17.7999 13.7004C20.4999 13.0004 24.4999 14.9004 25.5999 17.4004C25.6999 17.7004 25.4999 18.4004 25.2999 18.5004C24.8999 18.7004 24.1999 18.7004 23.8999 18.4004C23.2999 18.0004 22.9999 17.3004 22.3999 16.8004C18.8999 14.2004 14.7999 15.7004 13.6999 19.9004C12.9999 22.6004 13.9999 25.5004 16.1999 27.0004C18.5999 28.6004 22.3999 27.7004 23.3999 25.2004C23.8999 24.0004 23.6999 23.7004 22.3999 23.7004C21.4999 23.7004 20.4999 23.8004 19.6999 23.7004C19.2999 23.6004 18.8999 23.1004 18.4999 22.7004C18.8999 22.4004 19.2999 21.9004 19.6999 21.8004C21.1999 21.7004 22.7999 21.7004 24.2999 21.7004C25.3999 21.7004 25.8999 22.4004 25.9999 23.5004C25.6999 24.3004 25.6999 25.1004 25.6999 25.9004Z" fill="#FFF3E0"/>
<path d="M83.7998 41.8999C83.7998 39.8999 83.7998 37.7999 83.7998 35.7999C83.7998 34.5999 84.1998 34.0999 85.3998 34.1999C86.7998 34.2999 88.0998 34.2999 89.4998 34.2999C91.2998 34.3999 92.5998 35.3999 93.1998 36.9999C93.7998 38.3999 93.4998 39.7999 92.3998 40.8999C91.7998 41.4999 91.8998 41.9999 92.4998 42.4999C94.1998 43.6999 94.1998 45.2999 93.6998 46.9999C93.2998 48.4999 91.8998 49.3999 90.4998 49.5999C88.5998 49.7999 86.5998 49.7999 84.6998 49.6999C84.3998 49.6999 83.7998 48.7999 83.7998 48.3999C83.6998 46.0999 83.7998 43.9999 83.7998 41.8999ZM88.1998 42.6999C85.9998 42.7999 85.9998 42.7999 85.8998 44.9999V45.0999C85.3998 47.6999 86.1998 47.9999 88.9998 47.7999C89.4998 47.7999 89.9998 47.4999 90.4998 47.2999C91.6998 46.7999 92.1998 45.4999 91.5998 44.2999C91.0998 43.0999 89.9998 42.5999 88.1998 42.6999ZM85.8998 38.3999C85.8998 40.5999 86.0998 40.9999 87.3998 40.9999C89.7998 40.9999 91.3998 39.9999 91.3998 38.3999C91.3998 36.7999 90.1998 35.9999 87.7998 35.9999C86.0998 35.9999 85.8998 36.1999 85.8998 38.3999Z" fill="#FFF3E0"/>
<path d="M52.3002 50C48.0002 50.1 44.5002 46.1 44.8002 41.7C45.0002 36.8 48.4002 33.5 53.1002 33.9C57.9002 34.3 60.4002 37.4 60.4002 42.1C60.4002 47.2 56.4002 50.2 52.3002 50ZM58.2002 42C58.2002 38.9 56.6002 36.6 54.0002 36C51.4002 35.3 49.1002 36.4 47.7002 38.8C46.5002 40.9 46.9002 44.6 48.5002 46.3C50.1002 48 52.4002 48.6 54.5002 47.8C56.8002 46.8 58.2002 44.7 58.2002 42Z" fill="#FFF3E0"/>
<path d="M42.8001 41.4996C43.5001 45.8996 39.9001 49.5996 36.2001 49.9996C31.1001 50.5996 27.8001 47.0996 27.4001 43.2996C26.8001 38.2996 29.8001 34.3996 34.1001 33.9996C39.2001 33.5996 42.4001 36.3996 42.8001 41.4996ZM40.8001 41.8996C40.8001 38.3996 38.4001 35.7996 35.1001 35.7996C32.1001 35.7996 29.5001 38.2996 29.5001 41.4996C29.5001 45.4996 31.7001 48.0996 35.2001 48.0996C38.3001 48.0996 40.8001 45.5996 40.8001 41.8996Z" fill="#FFF3E0"/>
<path d="M41.6998 29.7004C36.8998 29.6004 33.7998 26.3004 33.8998 21.4004C33.9998 16.5004 37.4998 13.4004 41.6998 13.5004C46.7998 13.7004 49.5998 17.0004 49.3998 21.9004C49.1998 26.6004 46.3998 29.4004 41.6998 29.7004ZM47.2998 21.3004C47.2998 18.0004 44.6998 15.4004 41.4998 15.5004C38.7998 15.6004 35.8998 17.9004 35.9998 21.8004C36.0998 25.4004 38.9998 27.8004 41.7998 27.8004C44.9998 27.8004 47.2998 25.0004 47.2998 21.3004Z" fill="#FFF3E0"/>
<path d="M88.8998 21.4005C88.4998 16.4005 92.8998 13.2005 96.6998 13.4005C100.9 13.6005 104.6 16.5005 104.4 22.1005C104.2 26.1005 101.2 29.7005 96.2998 29.6005C92.1998 29.5005 88.4998 26.4005 88.8998 21.4005ZM90.8998 21.6005C90.7998 24.8005 93.2998 27.6005 96.2998 27.7005C99.5998 27.7005 102.1 25.2005 102.2 21.9005C102.3 18.2005 100.1 15.6005 96.6998 15.5005C93.2998 15.4005 90.9998 17.8005 90.8998 21.6005Z" fill="#FFF3E0"/>
<path d="M69.4998 25.0998C66.5998 24.1998 65.3998 25.7998 64.6998 28.2998C64.4998 29.0998 63.8998 29.5998 62.9998 29.2998C62.1998 28.9998 62.2998 28.3998 62.5998 27.6998C64.2998 23.5998 65.9998 19.4998 67.5998 15.3998C67.9998 14.4998 68.3998 13.7998 69.4998 13.7998C70.6998 13.7998 70.9998 14.5998 71.3998 15.4998C72.9998 19.5998 74.6998 23.6998 76.3998 27.6998C76.6998 28.2998 76.7998 29.0998 75.9998 29.1998C75.4998 29.2998 74.6998 28.8998 74.3998 28.4998C73.9998 27.9998 73.7998 27.1998 73.6998 26.4998C73.3998 25.2998 72.6998 24.8998 71.4998 24.9998C70.7998 25.0998 70.0998 25.0998 69.4998 25.0998ZM70.5998 23.0998C71.5998 23.1998 72.0998 22.6998 71.6998 21.7998C71.1998 20.4998 70.6998 19.1998 70.0998 17.8998C69.9998 17.5998 69.5998 17.2998 69.2998 17.1998C69.1998 17.1998 68.7998 17.5998 68.6998 17.7998C68.1998 19.0998 67.5998 20.3998 67.1998 21.6998C66.8998 22.5998 67.3998 22.9998 68.1998 22.9998C68.9998 23.0998 69.7998 23.0998 70.5998 23.0998Z" fill="#FFF3E0"/>
<path d="M11.2002 41.6004C11.2002 39.1004 12.2002 36.7004 14.7002 35.2004C17.6002 33.5004 20.6002 33.4004 23.4002 35.3004C24.3002 35.9004 24.9002 36.9004 25.5002 37.9004C25.6002 38.1004 25.2002 39.0004 25.0002 39.0004C24.5002 39.0004 23.6002 38.9004 23.5002 38.5004C22.4002 36.5004 20.7002 35.8004 18.6002 35.8004C16.6002 35.8004 14.4002 37.6004 13.9002 39.6004C13.2002 42.1004 13.4002 44.4004 15.2002 46.5004C17.4002 49.0004 21.7002 48.6004 23.3002 45.8004C23.4002 45.7004 23.4002 45.4004 23.5002 45.4004C24.0002 45.2004 24.5002 45.0004 25.0002 44.8004C25.1002 45.3004 25.5002 45.9004 25.3002 46.3004C24.6002 48.0004 23.3002 49.2004 21.4002 49.7004C15.9002 51.3004 11.2002 47.7004 11.2002 41.6004Z" fill="#FFF3E0"/>
<path d="M114.1 50.2999C111.9 50.0999 110.3 49.1999 109.1 47.5999C108.9 47.3999 108.7 47.0999 108.7 46.7999C108.8 46.1999 108.8 45.4999 109.2 45.1999C109.8 44.6999 110.4 45.1999 110.7 45.7999C111.5 47.4999 112.8 48.1999 114.6 47.9999C115.9 47.8999 117.1 46.9999 117.3 45.9999C117.5 44.8999 116.8 43.7999 115.5 43.2999C114.6 42.9999 113.7 42.8999 112.8 42.6999C110.3 42.0999 109 40.4999 109 38.3999C109 35.6999 111.7 33.4999 114.7 33.7999C116.4 33.9999 117.9 34.5999 118.8 36.1999C119 36.5999 118.9 37.1999 118.9 37.7999C118.4 37.6999 117.6 37.7999 117.3 37.4999C116.5 36.6999 115.8 35.7999 114.6 35.6999C112.9 35.4999 111.5 36.4999 111.2 37.9999C111 39.0999 112 40.1999 113.6 40.6999C114.8 40.9999 116.1 41.2999 117.3 41.7999C120.1 43.1999 120.4 47.0999 117.7 48.7999C116.5 49.4999 115.3 49.7999 114.1 50.2999Z" fill="#FFF3E0"/>
<path d="M96.7998 42.3C96.7998 40 96.7998 37.7 96.7998 35.4C96.7998 34.5 97.0998 34 97.9998 34C100.3 34 102.6 34 104.9 34C105.6 34 106.3 34.1 106.1 35C106 35.4 105.3 35.8 104.9 35.9C103.5 36 102.1 35.9 100.7 35.9C99.2998 35.9 98.8998 36.3 98.9998 37.7V37.8C99.0998 40.8 99.3998 41 102.5 40.8C103.2 40.7 104 40.6 104.6 40.8C105 40.9 105.3 41.6 105.7 42.1C105.3 42.3 104.9 42.8 104.4 42.8C103 42.9 101.6 42.9 100.2 42.9C99.3998 42.9 98.9998 43.3 98.9998 44.1V44.2C99.0998 47.5 98.2998 47.7 102 47.6C103 47.6 104.1 47.5 105.1 47.6C105.5 47.6 105.9 48.1 106.3 48.4C105.9 48.8 105.6 49.4 105.2 49.5C102.9 49.6 100.5 49.6 98.1998 49.5C97.2998 49.5 96.8998 49.1 96.8998 48.1C96.8998 46.2 96.8998 44.3 96.7998 42.3Z" fill="#FFF3E0"/>
<path d="M52.1001 21.6004C52.1001 19.5004 52.1001 17.4004 52.1001 15.4004C52.1001 14.4004 52.5001 13.9004 53.5001 13.9004C55.1001 13.9004 56.7001 13.9004 58.2001 13.9004C61.0001 14.1004 62.7001 16.0004 62.6001 18.9004C62.5001 21.2004 60.4001 23.0004 57.8001 23.0004C57.2001 23.0004 56.6001 23.0004 56.1001 23.0004C54.5001 23.0004 54.3001 23.2004 54.3001 24.8004C54.3001 25.8004 54.4001 26.7004 54.4001 27.7004C54.4001 28.5004 54.4001 29.3004 53.4001 29.4004C52.3001 29.5004 52.1001 28.8004 52.2001 27.8004C52.2001 25.7004 52.1001 23.6004 52.1001 21.6004ZM54.3001 17.8004C54.1001 20.9004 54.5001 21.2004 57.2001 21.1004C57.6001 21.1004 57.9001 21.0004 58.3001 21.0004C59.5001 20.8004 60.5001 19.5004 60.5001 18.3004C60.4001 17.0004 59.5001 16.0004 58.2001 15.8004C57.4001 15.7004 56.5001 15.7004 55.7001 15.7004C54.7001 15.7004 54.2001 16.1004 54.3001 17.1004C54.3001 17.5004 54.3001 17.8004 54.3001 17.8004Z" fill="#FFF3E0"/>
<path d="M112.2 16.7002C110.7 19.3002 110.6 21.8002 111.9 24.4002C113.2 27.2002 115.4 28.4002 118.6 27.7002C117.1 30.0002 112.9 30.3002 110.2 29.0002C107.5 27.8002 106.3 25.8002 106.6 22.6002C106.8 20.0002 109.6 17.2002 112.2 16.7002Z" fill="#FFF3E0"/>
<path d="M83.0998 22.6003C83.0998 24.3003 83.0998 26.0003 83.0998 27.7003C83.0998 28.5003 83.1998 29.3003 82.0998 29.3003C80.9998 29.3003 81.0998 28.5003 81.0998 27.7003C81.0998 24.6003 81.0998 21.5003 81.0998 18.3003C81.0998 15.9003 80.9998 15.8003 78.5998 15.7003C77.9998 15.7003 77.2998 15.8003 76.6998 15.6003C76.2998 15.5003 75.7998 15.0003 75.7998 14.7003C75.7998 14.4003 76.2998 13.9003 76.6998 13.8003C77.3998 13.7003 78.0998 13.8003 78.7998 13.8003C81.3998 13.8003 83.9998 13.7003 86.6998 13.8003C87.1998 13.8003 87.9998 14.2003 88.0998 14.6003C88.2998 15.4003 87.5998 15.7003 86.8998 15.8003C86.1998 15.8003 85.3998 15.8003 84.6998 15.8003C83.5998 15.8003 82.9998 16.1003 83.0998 17.4003C83.0998 19.1003 82.9998 20.8003 83.0998 22.6003Z" fill="#FFF3E0"/>
<path d="M31 21.6004C31 23.7004 31 25.8004 31 27.8004C31 28.3004 30.6 29.0004 30.3 29.2004C29.6 29.6004 29 29.4004 29 28.4004C29 24.4004 29 20.4004 29 16.4004C29 16.1004 29 15.8004 28.9 15.5004C28.8 14.8004 28.6 13.9004 29.8 13.9004C30.9 13.9004 31 14.6004 31 15.5004C31 17.5004 31 19.6004 31 21.6004Z" fill="#FFF3E0"/>
<path d="M128.9 13.5C130.5 13.6 131.8 14.8 131.8 16.3C131.8 17.6 130.7 18.8 129.5 18.8C127.8 18.8 126.4 17.4 126.5 16C126.6 14.6 127.7 13.4 128.9 13.5Z" fill="#FFF3E0"/>
<path d="M122.6 10.6997C122.3 11.1997 121.9 11.9997 121.4 12.6997C121.3 12.8997 120.8 12.9997 120.6 12.8997C120.4 12.7997 120.2 12.2997 120.2 12.0997C120.5 10.7997 120.4 9.59967 120 8.29967C119.8 7.59967 120.3 7.29967 121 7.69967C122.1 8.19967 122.5 9.09967 122.6 10.6997Z" fill="#FFF3E0"/>
<path d="M88.2 42.6999C90 42.5999 91.1 43.0999 91.7 44.2999C92.2 45.4999 91.8 46.7999 90.6 47.2999C90.1 47.4999 89.6 47.7999 89.1 47.7999C86.3 47.8999 85.5 47.6999 86 45.0999V44.9999C86 42.7999 86 42.7999 88.2 42.6999Z" fill="#1A130D"/>
<path d="M85.8999 38.4C85.8999 36.2 86.0999 36 87.7999 36C90.1999 36 91.3999 36.8 91.3999 38.4C91.3999 40 89.8999 41 87.3999 41C86.0999 41 85.8999 40.6 85.8999 38.4Z" fill="#1A130D"/>
<path d="M58.2002 41.9996C58.2002 44.6996 56.8002 46.7996 54.5002 47.6996C52.4002 48.4996 50.1002 47.9996 48.5002 46.1996C46.9002 44.4996 46.5002 40.7996 47.7002 38.6996C49.1002 36.1996 51.4002 35.1996 54.0002 35.8996C56.6002 36.6996 58.2002 38.8996 58.2002 41.9996Z" fill="#1A130D"/>
<path d="M40.8 41.8998C40.8 45.5998 38.3 48.0998 35.2 48.0998C31.7 48.0998 29.5 45.4998 29.5 41.4998C29.5 38.3998 32.1 35.7998 35.1 35.7998C38.4 35.7998 40.8 38.3998 40.8 41.8998Z" fill="#1A130D"/>
<path d="M47.3 21.2999C47.3 24.9999 45 27.7999 41.7 27.7999C39 27.7999 36 25.3999 35.9 21.7999C35.8 17.8999 38.7 15.5999 41.4 15.4999C44.7 15.3999 47.3 17.9999 47.3 21.2999Z" fill="#1A130D"/>
<path d="M90.8999 21.6005C90.9999 17.7005 93.2999 15.3005 96.6999 15.4005C99.9999 15.5005 102.2 18.1005 102.2 21.8005C102.1 25.1005 99.5999 27.6005 96.2999 27.6005C93.3999 27.7005 90.8999 24.8005 90.8999 21.6005Z" fill="#1A130D"/>
<path d="M70.5998 23.0998C69.7998 23.0998 68.9998 23.0998 68.1998 23.0998C67.3998 23.0998 66.8998 22.6998 67.1998 21.7998C67.6998 20.4998 68.1998 19.1998 68.6998 17.8998C68.7998 17.5998 69.1998 17.1998 69.2998 17.2998C69.5998 17.3998 69.8998 17.6998 70.0998 17.9998C70.6998 19.2998 71.1998 20.5998 71.6998 21.8998C71.9998 22.6998 71.5998 23.0998 70.5998 23.0998Z" fill="#1A130D"/>
<path d="M54.2999 17.8001C54.2999 17.8001 54.2999 17.5001 54.2999 17.1001C54.1999 16.1001 54.6999 15.6001 55.6999 15.7001C56.4999 15.7001 57.3999 15.7001 58.1999 15.8001C59.4999 15.9001 60.4999 16.9001 60.4999 18.3001C60.5999 19.5001 59.5999 20.7001 58.2999 21.0001C57.8999 21.1001 57.5999 21.1001 57.1999 21.1001C54.4999 21.3001 54.0999 20.9001 54.2999 17.8001Z" fill="#1A130D"/>
</g>
<defs>
<clipPath id="clip0_608_5287">
<rect width="142.5" height="60" fill="white"/>
</clipPath>
</defs>
</svg>
