<svg width="211" height="61" viewBox="0 0 211 61" fill="none" xmlns="http://www.w3.org/2000/svg">
<path d="M0 61C0 40.7417 0 20.3708 0 0C70.2961 0 140.592 0 210.888 0C210.888 20.3708 210.888 40.7417 210.888 61C140.592 61 70.2961 61 0 61ZM34.367 40.9668C34.367 40.8542 34.367 40.8542 34.367 40.9668C37.3797 40.8542 40.3924 40.9668 43.4051 40.8542C43.8514 40.8542 44.6325 40.4041 44.6325 40.0664C44.744 38.8284 44.6325 37.5904 44.5209 36.3524C44.5209 36.1273 43.8514 35.9022 43.5167 35.9022C41.0619 35.9022 38.6071 36.0148 36.1523 36.0148C34.5902 36.0148 34.1438 35.5646 34.1438 33.9889C34.1438 31.6255 34.1438 29.262 34.1438 26.786C34.1438 25.548 34.7017 24.9852 35.9291 24.9852C37.826 24.9852 39.7229 24.9852 41.6198 24.9852C44.744 24.9852 44.744 24.9852 44.744 21.9465C44.744 20.1458 44.5209 19.9207 42.7356 19.9207C36.9334 19.9207 31.2427 19.9207 25.4405 19.8081C24.2131 19.8081 23.7668 20.3708 23.7668 21.6089C23.7668 27.4613 23.7668 33.2011 23.7668 39.0535C23.7668 40.5166 24.1015 40.8542 25.5521 40.8542C28.6764 40.9668 31.5775 40.9668 34.367 40.9668ZM55.3443 30.3875C55.3443 29.3745 55.3443 28.4742 55.3443 27.4613C55.3443 25.548 55.1211 25.2103 53.2242 25.0978C50.9926 25.0978 48.6494 25.2103 46.4178 25.2103C45.302 25.2103 44.9672 25.7731 44.9672 26.786C44.9672 29.262 44.9672 31.738 44.9672 34.214C44.9672 35.3395 45.5251 35.6771 46.5294 35.6771C48.9841 35.6771 51.4389 35.6771 53.8937 35.6771C55.0095 35.6771 55.4558 35.1144 55.3443 33.9889C55.3443 32.8635 55.3443 31.6255 55.3443 30.3875ZM111.023 37.8155C115.263 37.928 118.499 34.7768 118.611 30.2749C118.722 26.786 115.263 23.072 111.693 22.9594C107.006 22.8469 103.882 25.7731 103.547 29.9373C103.213 34.4391 106.672 37.7029 111.023 37.8155ZM80.1153 30.6125C79.7805 30.6125 79.3342 30.3875 78.9995 30.5C78.5531 30.7251 78.1068 31.0627 77.6605 31.4004C78.1068 31.6255 78.5531 32.1882 78.9995 32.1882C80.0037 32.1882 80.6732 32.4133 80.8963 33.5387C81.0079 34.7768 80.45 35.452 79.3342 35.9022C77.7721 36.4649 76.4331 35.9022 74.9825 35.3395C72.5278 34.3266 71.0772 30.9502 72.193 28.5867C73.6436 25.3229 76.8794 23.9723 80.2269 25.3229C80.6732 25.4354 81.2311 25.0978 81.789 25.0978C81.5658 24.6476 81.3427 23.9723 81.0079 23.7472C80.3384 23.4096 79.5574 23.297 78.8879 23.1845C75.7636 22.7343 73.0857 23.8598 71.1888 26.4483C69.5151 28.8118 69.5151 31.4004 70.854 33.9889C72.5278 37.1402 75.4289 38.2657 78.6647 37.928C82.2353 37.5904 83.128 36.9151 82.9048 33.4262C82.6816 30.8376 82.6816 30.7251 80.1153 30.6125ZM170.942 30.5C170.942 32.4133 170.942 34.3266 171.054 36.2399C171.054 36.69 171.723 37.1402 172.058 37.4779C172.393 37.0277 172.951 36.69 172.951 36.2399C173.062 35.2269 172.839 34.214 172.951 33.2011C173.062 32.5258 173.509 31.6255 173.955 31.4004C174.401 31.1753 175.406 31.738 175.74 32.1882C176.856 33.6513 177.86 35.2269 178.976 36.69C179.311 37.1402 180.204 37.1402 180.873 37.3653C180.762 36.8026 180.762 36.1273 180.538 35.6771C179.98 34.6642 179.311 33.5387 178.53 32.7509C177.302 31.6255 177.637 30.8376 178.641 29.8247C180.204 28.1365 179.869 25.8856 178.195 24.4225C176.521 22.9594 174.625 23.4096 172.728 23.297C171.277 23.1845 170.831 23.8598 170.831 25.3229C170.942 27.0111 170.942 28.8118 170.942 30.5ZM160.342 37.7029C161.235 37.7029 162.127 37.8155 163.02 37.7029C163.578 37.5904 163.913 37.1402 164.471 36.9151C164.024 36.5775 163.578 36.0148 163.02 36.0148C162.016 35.9022 160.9 36.0148 159.784 36.0148C158.222 36.0148 158.222 34.7768 158.111 33.6513C157.999 32.5258 158.222 31.5129 159.673 31.5129C160.231 31.5129 160.9 31.6255 161.458 31.4004C161.904 31.2878 162.351 30.9502 162.685 30.6125C162.239 30.2749 161.904 29.8247 161.458 29.7122C160.9 29.5996 160.231 29.5996 159.673 29.5996C158.668 29.5996 158.111 29.1494 158.111 28.024C158.111 27.5738 158.111 27.1236 158.111 26.786C157.887 25.548 158.557 25.2103 159.673 25.0978C160.454 25.0978 161.235 25.2103 162.016 25.0978C162.574 24.9852 163.02 24.5351 163.466 24.1974C162.909 23.8598 162.462 23.297 161.904 23.297C160.454 23.1845 158.892 23.4096 157.441 23.4096C156.437 23.4096 155.99 23.9723 155.99 24.9852C155.99 28.6993 156.102 32.5258 156.102 36.2399C156.102 37.2528 156.66 37.7029 157.776 37.7029C158.668 37.5904 159.449 37.7029 160.342 37.7029ZM128.765 37.928C130.885 37.928 132.67 36.8026 133.228 35.2269C133.897 33.2011 133.34 31.4004 131.443 30.1624C130.438 29.4871 129.323 28.9244 128.318 28.4742C127.426 28.024 126.979 27.3487 127.314 26.3358C127.649 25.3229 128.318 24.7601 129.434 24.8727C129.992 24.8727 130.55 25.0978 131.108 25.0978C131.554 25.0978 131.889 24.7601 132.335 24.5351C132.112 24.1974 131.777 23.5221 131.554 23.5221C130.438 23.297 129.099 23.072 127.984 23.4096C126.756 23.7472 125.752 24.6476 125.417 26.1107C125.194 27.4613 125.082 28.8118 126.533 29.7122C127.76 30.5 128.988 31.1753 130.215 31.8506C131.108 32.4133 131.554 33.2011 131.331 34.214C131.108 34.8893 130.55 35.6771 130.104 35.7897C128.988 36.0148 127.76 35.7897 126.645 35.7897C126.087 35.7897 125.64 35.9022 125.082 35.9022C125.417 36.4649 125.64 37.2528 126.198 37.4779C126.979 37.8155 127.872 37.8155 128.765 37.928ZM143.382 31.1753C143.493 32.8635 143.382 34.5517 143.493 36.2399C143.493 36.69 144.051 37.0277 144.274 37.4779C144.609 37.0277 145.056 36.69 145.279 36.2399C145.39 36.0148 145.279 35.5646 145.279 35.2269C145.279 32.7509 145.279 30.1624 145.279 27.6863C145.279 24.9852 145.279 24.9852 148.068 25.0978C148.291 25.0978 148.515 25.2103 148.626 25.0978C149.072 24.8727 149.407 24.5351 149.854 24.31C149.519 23.9723 149.184 23.6347 148.849 23.4096C148.626 23.297 148.291 23.297 148.068 23.297C145.613 23.297 143.27 23.297 140.815 23.297C140.481 23.297 140.146 23.297 139.811 23.4096C139.476 23.6347 139.03 23.9723 139.03 24.1974C139.03 24.5351 139.476 24.9852 139.811 24.9852C140.369 25.0978 140.927 24.9852 141.485 24.9852C143.047 24.9852 143.493 25.4354 143.493 26.8985C143.382 28.3616 143.382 29.8247 143.382 31.1753ZM90.046 30.3875C90.046 32.1882 90.1576 33.9889 90.046 35.6771C90.046 36.8026 90.6039 37.4779 91.6081 37.5904C93.3934 37.703 95.1787 37.703 97.0756 37.5904C97.5219 37.5904 97.8567 37.0277 98.303 36.69C97.8567 36.3524 97.4104 35.9022 96.964 35.7897C95.9598 35.6771 95.0672 35.9022 94.0629 35.7897C92.5008 35.6771 92.166 35.3395 92.166 33.7638C92.166 30.9502 92.2776 28.024 92.2776 25.2103C92.2776 24.5351 92.2776 23.5221 91.1618 23.5221C90.046 23.5221 90.046 24.4225 90.046 25.3229C90.046 27.0111 90.046 28.6993 90.046 30.3875Z" fill="#1A130D"/>
<path d="M34.3668 40.967C31.4657 40.967 28.5646 40.967 25.775 40.967C24.2129 40.967 23.9897 40.6294 23.9897 39.1663C23.9897 33.3139 23.9897 27.574 23.9897 21.7216C23.9897 20.4836 24.4361 19.9209 25.6635 19.9209C31.4657 19.9209 37.1563 19.9209 42.9585 20.0334C44.7438 20.0334 44.967 20.2585 44.967 22.0593C44.8554 25.098 44.8554 25.098 41.8427 25.098C39.9459 25.098 38.049 25.098 36.1521 25.098C34.9247 25.098 34.3668 25.5482 34.3668 26.8988C34.3668 29.2622 34.3668 31.6257 34.3668 34.1017C34.3668 35.6774 34.8131 36.1275 36.3753 36.1275C38.83 36.1275 41.2848 36.015 43.7396 36.015C44.0744 36.015 44.7438 36.2401 44.7438 36.4652C44.8554 37.7032 44.967 38.9412 44.8554 40.1792C44.8554 40.5168 44.0744 40.967 43.628 40.967C40.3922 40.8545 37.3795 40.8545 34.3668 40.967C34.3668 40.8545 34.3668 40.8545 34.3668 40.967Z" fill="#FFF3E0"/>
<path d="M55.3443 30.3873C55.3443 31.6253 55.3443 32.8633 55.3443 33.9888C55.3443 35.1143 55.0096 35.677 53.8938 35.677C51.439 35.677 48.9842 35.677 46.5294 35.677C45.5252 35.677 44.9673 35.3394 44.9673 34.2139C44.9673 31.7379 44.9673 29.2619 44.9673 26.7858C44.9673 25.7729 45.302 25.2102 46.4178 25.2102C48.6495 25.2102 50.9927 25.0977 53.2243 25.0977C55.1212 25.0977 55.3443 25.4353 55.3443 27.4611C55.3443 28.474 55.3443 29.487 55.3443 30.3873Z" fill="#FFF3E0"/>
<path d="M111.023 37.8152C106.672 37.7026 103.324 34.3262 103.659 29.9369C103.994 25.8853 107.118 22.8465 111.804 22.9591C115.375 23.0716 118.834 26.7856 118.722 30.2746C118.388 34.7764 115.263 38.0403 111.023 37.8152ZM111.023 36.127C114.036 36.127 116.602 33.4259 116.491 30.2746C116.379 27.4609 114.036 24.9849 111.135 24.8724C108.345 24.8724 105.667 27.2358 105.667 30.3871C105.556 33.4259 108.01 36.0144 111.023 36.127Z" fill="#FFF3E0"/>
<path d="M80.1151 30.6122C82.6814 30.6122 82.6814 30.8373 82.793 33.3133C83.0162 36.6897 82.1235 37.365 78.5529 37.8151C75.3171 38.1528 72.416 37.1399 70.7422 33.876C69.4033 31.2875 69.4033 28.5864 71.077 26.3354C72.8623 23.8594 75.5402 22.6214 78.7761 23.0716C79.5572 23.1841 80.3382 23.2967 80.8961 23.6343C81.3425 23.8594 81.454 24.5347 81.6772 24.9849C81.1193 25.0974 80.5614 25.4351 80.1151 25.21C76.7676 23.972 73.4202 25.21 72.0812 28.4738C71.077 30.9498 72.416 34.3262 74.8707 35.2266C76.2097 35.7893 77.6603 36.352 79.2224 35.7893C80.3382 35.3391 80.8961 34.6639 80.7846 33.4258C80.673 32.3004 79.8919 32.0753 78.8877 32.0753C78.4413 32.0753 77.995 31.6251 77.5487 31.2875C77.995 30.9498 78.4413 30.6122 78.8877 30.3871C79.334 30.3871 79.8919 30.6122 80.1151 30.6122Z" fill="#FFF3E0"/>
<path d="M170.942 30.5C170.942 28.8118 170.942 27.011 170.942 25.3228C170.942 23.8597 171.389 23.297 172.839 23.297C174.625 23.4096 176.633 22.8468 178.307 24.4225C179.98 25.8856 180.315 28.1365 178.753 29.8247C177.749 30.9501 177.414 31.6254 178.641 32.7509C179.534 33.5387 180.092 34.6642 180.65 35.6771C180.873 36.1273 180.873 36.8025 180.985 37.3653C180.315 37.1402 179.423 37.1402 179.088 36.69C177.86 35.2269 176.968 33.6512 175.852 32.1882C175.517 31.738 174.513 31.1752 174.067 31.4003C173.509 31.6254 173.174 32.5258 173.062 33.2011C172.951 34.214 173.174 35.2269 173.062 36.2398C172.951 36.69 172.393 37.1402 172.17 37.4778C171.835 37.0276 171.166 36.69 171.166 36.2398C170.942 34.3265 170.942 32.4132 170.942 30.5ZM174.625 29.487C176.633 29.3745 177.637 28.5867 177.526 27.2361C177.414 25.8856 176.075 24.9852 174.29 24.9852C173.062 24.9852 172.728 25.773 172.839 28.0239C173.062 29.3745 173.62 29.7121 174.625 29.487Z" fill="#FFF3E0"/>
<path d="M160.342 37.7025C159.561 37.7025 158.668 37.7025 157.887 37.7025C156.883 37.7025 156.325 37.2523 156.214 36.2394C156.102 32.5254 156.102 28.6988 156.102 24.9848C156.102 24.0844 156.548 23.5217 157.553 23.4092C159.003 23.2966 160.565 23.1841 162.016 23.2966C162.574 23.2966 163.02 23.8593 163.578 24.197C163.132 24.5346 162.574 24.9848 162.127 25.0974C161.346 25.2099 160.565 25.0974 159.784 25.0974C158.78 25.2099 158.111 25.5475 158.222 26.7855C158.334 27.2357 158.222 27.5734 158.222 28.0236C158.222 29.0365 158.668 29.5992 159.784 29.5992C160.342 29.5992 161.012 29.4867 161.57 29.7117C162.016 29.8243 162.351 30.2745 162.797 30.6121C162.351 30.8372 162.016 31.2874 161.57 31.3999C161.012 31.5125 160.342 31.3999 159.784 31.5125C158.334 31.625 158.222 32.5254 158.222 33.6509C158.334 34.7763 158.222 36.0143 159.896 36.0143C161.012 36.0143 162.016 35.9018 163.132 36.0143C163.69 36.1269 164.136 36.5771 164.582 36.9147C164.136 37.2523 163.69 37.7025 163.132 37.7025C162.127 37.8151 161.235 37.7025 160.342 37.7025Z" fill="#FFF3E0"/>
<path d="M128.764 37.9285C127.872 37.8159 126.868 37.8159 126.087 37.3657C125.64 37.1407 125.305 36.3528 124.971 35.7901C125.529 35.7901 125.975 35.6776 126.533 35.6776C127.76 35.6776 128.876 35.9026 129.992 35.6776C130.55 35.565 131.108 34.6646 131.219 34.1019C131.442 33.089 130.996 32.3012 130.103 31.7384C128.876 31.0632 127.649 30.2753 126.421 29.6001C124.971 28.6997 125.082 27.3491 125.305 25.9986C125.64 24.5355 126.533 23.6351 127.872 23.2975C128.988 23.0724 130.215 23.2975 131.442 23.41C131.777 23.41 132 24.0853 132.223 24.4229C131.777 24.648 131.442 24.8731 130.996 24.9857C130.438 24.9857 129.88 24.7606 129.322 24.7606C128.207 24.648 127.537 25.2108 127.202 26.2237C126.868 27.2366 127.314 27.9119 128.207 28.3621C129.322 28.9248 130.327 29.375 131.331 30.0503C133.228 31.4008 133.786 33.089 133.116 35.1148C132.781 36.803 130.885 37.9285 128.764 37.9285Z" fill="#FFF3E0"/>
<path d="M143.382 31.1749C143.382 29.8243 143.382 28.3612 143.382 27.0107C143.382 25.435 142.935 24.9848 141.373 25.0974C140.815 25.0974 140.257 25.2099 139.7 25.0974C139.365 24.9848 139.03 24.5346 138.918 24.3095C138.918 24.0845 139.365 23.6343 139.7 23.5217C139.923 23.4092 140.369 23.4092 140.704 23.4092C143.159 23.4092 145.502 23.4092 147.957 23.4092C148.18 23.4092 148.626 23.4092 148.738 23.5217C149.072 23.7468 149.407 24.197 149.742 24.4221C149.407 24.6472 148.961 24.9848 148.514 25.2099C148.403 25.3225 148.18 25.2099 147.957 25.2099C145.279 25.0974 145.167 25.0974 145.167 27.7985C145.167 30.2745 145.167 32.8631 145.167 35.3391C145.167 35.6767 145.279 36.0143 145.167 36.352C144.944 36.8022 144.498 37.2524 144.163 37.59C143.828 37.1398 143.382 36.8022 143.382 36.352C143.382 34.5512 143.382 32.8631 143.382 31.1749Z" fill="#FFF3E0"/>
<path d="M90.0459 30.3878C90.0459 28.6996 90.0459 27.0114 90.0459 25.3232C90.0459 24.5354 90.0459 23.635 91.1617 23.5225C92.1659 23.5225 92.2775 24.4228 92.2775 25.2107C92.2775 28.0243 92.2775 30.9505 92.1659 33.7642C92.1659 35.3398 92.5007 35.79 94.0628 35.79C95.0671 35.79 96.0713 35.6774 96.9639 35.79C97.4103 35.9025 97.8566 36.3527 98.3029 36.6904C97.8566 37.028 97.5218 37.5907 97.0755 37.5907C95.2902 37.7033 93.5049 37.7033 91.608 37.5907C90.6038 37.4782 90.0459 36.8029 90.0459 35.6774C90.1575 33.8767 90.1575 32.076 90.0459 30.3878Z" fill="#FFF3E0"/>
<path d="M111.023 36.1276C108.01 36.1276 105.556 33.539 105.556 30.3878C105.556 27.1239 108.345 24.7605 111.023 24.873C113.924 24.873 116.267 27.4616 116.379 30.2752C116.602 33.314 114.036 36.1276 111.023 36.1276Z" fill="#1A130D"/>
<path d="M174.625 29.4867C173.62 29.8243 172.951 29.3742 172.951 28.1362C172.839 25.8852 173.174 25.0974 174.401 25.0974C176.075 24.9849 177.526 25.9978 177.637 27.3483C177.637 28.5863 176.633 29.3742 174.625 29.4867Z" fill="#1A130D"/>
</svg>
