<svg width="153" height="61" viewBox="0 0 153 61" fill="none" xmlns="http://www.w3.org/2000/svg">
<path d="M0 60.8C0 40.5 0 20.3 0 0C50.8 0 101.7 0 152.5 0C152.5 20.2 152.5 40.5 152.5 60.7C101.7 60.7 50.8 60.7 0 60.8ZM115.7 30C115.9 30 116 30 116.2 30.1C116.3 30.6 116.4 31.2 116.4 31.7C116.4 33.7 116.4 35.7 116.3 37.7C116.3 38.6 116.6 39 117.5 39.1C119.2 39.3 119.7 38.9 119.7 37.2C119.7 33.3 119.7 29.4 119.7 25.5C119.7 22.4 119.7 22.4 116.6 22.5C115.4 22.5 114.7 23 114.4 24.2C113.7 26.7 113 29.2 112.3 31.7C112.2 32 111.9 32.3 111.7 32.6C111.4 32.3 111.1 32.1 111 31.8C110.3 29.7 109.7 27.6 109.1 25.5C108.2 22.4 108.2 22.4 105 22.5H104.9C104 22.5 103.6 22.9 103.6 23.8C103.6 28.4 103.6 33.1 103.6 37.7C103.6 38.8 104.2 39.4 105.4 39.3C106.4 39.2 107.1 38.8 107 37.7C106.9 35.9 106.9 34.1 106.9 32.2C106.9 31.5 107 30.9 107.1 30.2C107.2 30.2 107.4 30.2 107.5 30.2C107.7 30.6 108 30.9 108.1 31.3C108.8 33.5 109.4 35.7 110.1 37.8C110.3 38.3 110.7 38.9 111.2 39.1C112.4 39.6 113.3 39 113.7 37.8C114.3 35.8 114.8 33.7 115.4 31.7C115.3 31.1 115.5 30.6 115.7 30ZM37.6 30V30.1C37.1 30.1 36.5 30.1 36 30.1C34.9 30 34.2 30.3 34.2 31.6C34.2 32.9 34.8 33.1 35.9 33.1C36.3 33.1 37 33.5 37.2 33.9C37.5 34.7 37.8 35.7 36.9 36.3C35.5 37.1 32.3 37 31.2 35.4C29.5 32.9 29.3 29 31.2 26.4C32.6 24.5 35.7 24.5 37 26.6C37.8 27.8 38.8 28.2 40.1 27.7C40.5 27.5 40.9 26.7 40.8 26.4C40.2 24.7 39.2 23.1 37.2 22.7C35.9 22.4 34.6 22.1 33.3 22.2C31 22.5 28.9 23.2 27.5 25.4C25.9 28.1 25.8 31 26.5 33.9C27.1 36.3 28.4 38.2 30.9 39C33.9 40 36.9 39.6 39.9 38.9C40.7 38.7 41 38.1 40.9 37.3C40.8 36 40.8 34.6 40.8 33.3C40.8 32.4 41 31.1 40.5 30.7C39.8 30 38.5 30.1 37.6 30ZM100.6 28.7C100.6 27.1 100.6 25.5 100.6 23.9C100.6 22.6 100.3 22.5 98.6 22.4C97.5 22.4 97 22.8 97 23.9C97 25.2 97.1 26.5 97.1 27.8C97.1 29.8 97.1 31.8 96.9 33.8C96.8 36 94.3 37.7 92 36.3C90.7 35.5 90.3 34.4 90.3 33.1C90.2 30.1 90.3 27.1 90.3 24.1C90.3 22.7 90 22.5 88.4 22.5C87.2 22.5 86.8 23 86.8 24.2C86.8 27.3 86.6 30.4 86.8 33.5C86.9 34.8 87.5 36.2 88.2 37.2C89.7 39.3 92.1 39.6 94.6 39.4C97.7 39.2 100.6 36.8 100.5 33.2C100.6 31.7 100.6 30.2 100.6 28.7ZM77.9 22.2C77.5 22.2 77.1 22.2 76.7 22.3C74.2 22.6 72.3 24.3 72.2 26.7C72.1 28.8 72.9 30.3 75.7 31.4C77.2 32 78.6 32.5 80.1 33.2C81.4 33.8 81.7 35.6 80.7 36.3C79 37.4 76.9 36.9 75.6 35.4C75.1 34.8 74.3 34.3 73.6 34.1C72.9 33.9 72 34.3 72.2 35.2C72.4 36.1 72.7 37.1 73.3 37.8C75.5 40.1 79.7 40.5 82.4 38.7C84.6 37.3 85.3 34.8 84.2 32.7C83.5 31.2 82.2 30.5 80.7 30C79.2 29.5 77.8 28.9 76.4 28.2C75.8 27.9 75.3 27.3 75.9 26.6C76.6 25.7 78.2 25.2 79.2 25.8C79.9 26.2 80.5 26.8 81 27.4C81.6 28.1 83.1 28.6 83.7 27.9C84 27.6 84 26.6 83.8 26C82.6 23.1 80.7 22.1 77.9 22.2ZM58.8 30.7H58.7C58.7 32.9 58.7 35.1 58.7 37.3C58.7 38.7 59.1 39.1 60.5 39.2C61.6 39.2 62 38.7 62.1 37.3C62.1 36.2 62.1 35.1 62.1 34.1C62.1 33.1 62.5 32.6 63.5 32.6C63.9 32.6 64.4 32.5 64.7 32.6C66.1 33 67.1 32.3 68.1 31.6C70.9 29.7 70.6 24.2 67.1 23C64.6 22.1 62.1 22.6 59.6 22.5C59.3 22.5 58.8 23.2 58.8 23.6C58.7 26 58.8 28.4 58.8 30.7ZM48 35.1C48 36.1 48.1 36.8 48 37.5C47.9 38.7 48.5 39.1 49.6 39.2C51.2 39.2 51.5 38.9 51.4 37.3C51.1 34.1 51.6 31.1 53.5 28.4C54.5 27.1 55.2 25.5 55.9 24.1C56.5 23 56.2 22.5 54.9 22.5C53.6 22.5 52.7 23.1 52.2 24.2C51.7 25.2 51.2 26.1 50.7 27C50.2 27.9 49.6 27.9 49.2 27C48.8 26.3 48.4 25.6 48.1 24.9C47.2 22.7 46.3 22.2 43.9 22.4C43 22.5 42.9 23 43.2 23.7C43.7 24.7 44.3 25.6 44.8 26.6C46.4 29.3 48.5 31.9 48 35.1ZM125.3 34.4C122.7 34.5 122.7 34.5 122.8 37.6C122.8 39.1 123.2 39.3 125.7 39.2C127.4 39.1 127.6 38.9 127.5 36.6C127.5 34.5 127.2 34.3 125.3 34.4Z" fill="#1A130D"/>
<path d="M115.7 29.9996C115.5 30.4996 115.3 30.9996 115.1 31.4996C114.5 33.4996 114 35.5996 113.4 37.5996C113 38.7996 112.1 39.3996 110.9 38.8996C110.4 38.6996 110 38.0996 109.8 37.5996C109.1 35.3996 108.5 33.1996 107.8 31.0996C107.7 30.6996 107.4 30.2996 107.2 29.9996C107.1 29.9996 106.9 29.9996 106.8 29.9996C106.7 30.6996 106.6 31.2996 106.6 31.9996C106.6 33.7996 106.7 35.5996 106.7 37.4996C106.8 38.6996 106.1 39.0996 105.1 39.0996C103.9 39.1996 103.3 38.6996 103.3 37.4996C103.3 32.8996 103.3 28.1996 103.3 23.5996C103.3 22.6996 103.8 22.2996 104.6 22.2996H104.7C107.9 22.1996 107.9 22.1996 108.8 25.2996C109.4 27.3996 110.1 29.4996 110.7 31.5996C110.8 31.8996 111.2 32.1996 111.4 32.3996C111.6 32.0996 111.9 31.8996 112 31.4996C112.7 28.9996 113.5 26.4996 114.1 23.9996C114.4 22.7996 115 22.2996 116.3 22.2996C119.4 22.1996 119.4 22.1996 119.4 25.2996C119.4 29.1996 119.4 33.0996 119.4 36.9996C119.4 38.7996 118.9 39.0996 117.2 38.8996C116.3 38.7996 116 38.3996 116 37.4996C116.1 35.4996 116.1 33.4996 116.1 31.4996C116.1 30.9996 115.9 30.3996 115.9 29.8996C116 30.0996 115.9 30.0996 115.7 29.9996Z" fill="#FFF3E0"/>
<path d="M37.6004 30.0001C38.6004 30.1001 39.8004 30.0001 40.4004 30.5001C40.9004 30.9001 40.7004 32.2001 40.7004 33.1001C40.8004 34.4001 40.8004 35.8001 40.8004 37.1001C40.8004 37.9001 40.6004 38.5001 39.8004 38.7001C36.8004 39.4001 33.9004 39.8001 30.8004 38.8001C28.3004 38.0001 26.9004 36.1001 26.4004 33.7001C25.7004 30.8001 25.8004 27.9001 27.4004 25.2001C28.7004 23.0001 30.9004 22.3001 33.2004 22.0001C34.5004 21.9001 35.8004 22.2001 37.1004 22.5001C39.1004 22.9001 40.1004 24.5001 40.7004 26.2001C40.8004 26.5001 40.4004 27.3001 40.0004 27.5001C38.7004 28.1001 37.7004 27.6001 36.9004 26.4001C35.6004 24.4001 32.5004 24.3001 31.1004 26.2001C29.2004 28.8001 29.5004 32.7001 31.1004 35.2001C32.2004 36.8001 35.4004 37.0001 36.8004 36.1001C37.7004 35.5001 37.4004 34.5001 37.1004 33.7001C37.0004 33.3001 36.3004 32.9001 35.8004 32.9001C34.7004 32.9001 34.0004 32.7001 34.1004 31.4001C34.1004 30.1001 34.8004 29.9001 35.9004 29.9001C36.4004 29.9001 37.0004 29.9001 37.5004 29.9001C37.6004 30.1001 37.6004 30.0001 37.6004 30.0001Z" fill="#FFF3E0"/>
<path d="M100.6 28.7002C100.6 30.2002 100.6 31.7002 100.6 33.2002C100.7 36.7002 97.8004 39.1002 94.7004 39.4002C92.2004 39.6002 89.9004 39.3002 88.3004 37.2002C87.5004 36.2002 86.9004 34.8002 86.9004 33.5002C86.7004 30.4002 86.9004 27.3002 86.9004 24.2002C86.9004 23.0002 87.3004 22.5002 88.5004 22.5002C90.0004 22.5002 90.4004 22.7002 90.4004 24.1002C90.4004 27.1002 90.4004 30.1002 90.4004 33.1002C90.4004 34.4002 90.8004 35.6002 92.1004 36.3002C94.4004 37.7002 96.8004 36.0002 97.0004 33.8002C97.1004 31.8002 97.1004 29.8002 97.2004 27.8002C97.2004 26.5002 97.1004 25.2002 97.1004 23.9002C97.1004 22.8002 97.6004 22.3002 98.7004 22.4002C100.4 22.4002 100.7 22.6002 100.7 23.9002C100.6 25.5002 100.6 27.1002 100.6 28.7002Z" fill="#FFF3E0"/>
<path d="M77.9 22.2004C80.7 22.0004 82.6 23.1004 83.6 25.6004C83.8 26.1004 83.8 27.1004 83.5 27.5004C82.8 28.2004 81.3 27.7004 80.8 27.0004C80.3 26.4004 79.7 25.8004 79 25.4004C78 24.8004 76.4 25.3004 75.7 26.2004C75.2 26.9004 75.6 27.6004 76.2 27.8004C77.6 28.5004 79.1 29.1004 80.5 29.6004C82 30.1004 83.3 30.8004 84 32.3004C85.1 34.5004 84.4 37.0004 82.2 38.3004C79.5 40.0004 75.3 39.7004 73.1 37.4004C72.5 36.8004 72.1 35.7004 72 34.8004C71.8 33.9004 72.7 33.5004 73.4 33.7004C74.1 33.9004 74.9 34.4004 75.4 35.0004C76.7 36.6004 78.8 37.0004 80.5 35.9004C81.5 35.3004 81.2 33.4004 79.9 32.8004C78.5 32.1004 77 31.6004 75.5 31.0004C72.7 30.0004 71.9 28.4004 72 26.3004C72.2 23.9004 74.1 22.2004 76.5 21.9004C77.1 22.2004 77.5 22.2004 77.9 22.2004Z" fill="#FFF3E0"/>
<path d="M58.8002 30.6997C58.8002 28.2997 58.8002 25.9997 58.8002 23.5997C58.8002 23.1997 59.3002 22.4997 59.6002 22.4997C62.1002 22.4997 64.6002 22.0997 67.1002 22.9997C70.6002 24.1997 70.9002 29.6997 68.1002 31.5997C67.1002 32.2997 66.1002 32.9997 64.7002 32.5997C64.3002 32.4997 63.9002 32.5997 63.5002 32.5997C62.5002 32.5997 62.1002 33.0997 62.1002 34.0997C62.1002 35.1997 62.1002 36.2997 62.1002 37.2997C62.1002 38.6997 61.6002 39.1997 60.5002 39.1997C59.1002 39.1997 58.7002 38.7997 58.7002 37.2997C58.7002 35.0997 58.7002 32.8997 58.7002 30.6997C58.7002 30.6997 58.7002 30.6997 58.8002 30.6997ZM62.0002 27.5997C62.0002 29.4997 62.2002 29.9997 63.3002 29.9997C65.1002 29.9997 66.1002 29.0997 66.1002 27.6997C66.1002 26.0997 65.3002 25.3997 63.6002 25.3997C62.2002 25.3997 62.0002 25.6997 62.0002 27.5997Z" fill="#FFF3E0"/>
<path d="M48.0002 35.0997C48.5002 31.8997 46.4002 29.3997 44.9002 26.5997C44.4002 25.5997 43.8002 24.6997 43.3002 23.6997C42.9002 22.9997 43.0002 22.4997 44.0002 22.3997C46.4002 22.1997 47.3002 22.6997 48.2002 24.8997C48.5002 25.5997 48.9002 26.2997 49.3002 26.9997C49.8002 27.7997 50.4002 27.7997 50.8002 26.9997C51.3002 26.0997 51.8002 25.0997 52.3002 24.1997C52.9002 23.0997 53.7002 22.3997 55.0002 22.4997C56.3002 22.4997 56.6002 22.9997 56.0002 24.0997C55.2002 25.5997 54.5002 27.0997 53.6002 28.3997C51.6002 31.0997 51.2002 34.0997 51.5002 37.2997C51.6002 38.8997 51.2002 39.1997 49.7002 39.1997C48.6002 39.1997 48.0002 38.7997 48.1002 37.4997C48.1002 36.7997 48.0002 36.0997 48.0002 35.0997Z" fill="#FFF3E0"/>
<path d="M125.3 34.3996C127.2 34.2996 127.4 34.5996 127.5 36.5996C127.6 38.8996 127.4 39.0996 125.7 39.1996C123.2 39.2996 122.8 39.0996 122.8 37.5996C122.7 34.3996 122.7 34.3996 125.3 34.3996Z" fill="#FFF3E0"/>
<path d="M62 27.6004C62 25.7004 62.2 25.4004 63.6 25.4004C65.3 25.4004 66.2 26.1004 66.1 27.7004C66.1 29.1004 65 30.0004 63.3 30.0004C62.3 30.0004 62 29.6004 62 27.6004Z" fill="#1A130D"/>
</svg>
