<svg width="144" height="62" viewBox="0 0 144 62" fill="none" xmlns="http://www.w3.org/2000/svg">
<g clip-path="url(#clip0_608_4625)">
<rect width="144" height="62" fill="white"/>
<g clip-path="url(#clip1_608_4625)">
<path d="M-4 63.702C-4 41.8014 -4 19.9007 -4 -2C46.9176 -2 97.8105 -2 148.728 -2C148.728 19.8758 148.728 41.7517 148.728 63.702C97.6869 63.702 46.8435 63.702 -4 63.702ZM63.2063 28.6411C63.2063 30.0068 63.2063 31.3973 63.2063 32.763C63.2063 34.1287 63.1816 35.5192 63.2557 36.8849C63.3052 37.5305 63.5276 38.6727 63.7501 38.6727C64.6646 38.7472 65.7275 38.6975 66.4937 38.2506C67.1611 37.8533 67.5318 37.8284 68.1003 38.2257C71.2889 40.4357 76.0098 38.6727 77.5176 35.2212C78.6546 32.6637 78.5805 30.0564 77.8884 27.4244C76.6772 22.8059 71.6102 20.9187 67.952 23.4018C67.0128 24.0474 66.642 23.7991 66.642 22.5824C66.6173 21.4402 66.6914 20.298 66.642 19.1806C66.6173 18.8081 66.4195 18.2867 66.1477 18.1625C64.9859 17.6411 63.231 18.9571 63.231 20.2731C63.2063 23.0542 63.2063 25.8601 63.2063 28.6411ZM95.9814 30.851H96.0061C96.0061 28.7156 95.9814 26.5801 96.0061 24.4695C96.0309 23.0293 95.5118 22.3093 94.1771 22.8307C92.4716 23.4763 91.0874 23.1535 89.5797 22.5079C89.5055 22.4831 89.3819 22.4831 89.3078 22.4831C82.5352 21.5892 78.3333 27.2506 80.3107 33.8307C81.6207 38.2257 86.8607 40.4853 90.8897 38.6479C91.7795 38.2506 92.4221 38.1264 93.3614 38.6479C94.9186 39.5169 95.9567 38.772 95.9814 36.9842C96.0061 34.9233 95.9814 32.8871 95.9814 30.851ZM111.553 28.8894C111.578 28.8894 111.578 28.8894 111.553 28.8894C111.553 31.7201 111.627 34.5756 111.529 37.4063C111.454 39.3183 112.764 38.772 113.753 38.8465C114.865 38.9458 115.038 38.3002 115.038 37.3318C115.014 34.5508 115.014 31.7449 115.088 28.9391C115.137 26.7043 116.645 25.2393 118.721 25.2641C121.069 25.2889 122.528 26.6795 122.577 29.0384C122.627 31.8194 122.651 34.6253 122.627 37.4312C122.627 38.4492 122.948 38.921 124.011 38.8713C125.049 38.8217 126.038 38.9707 126.013 37.4312C125.963 34.4018 126.013 31.3725 125.939 28.3431C125.865 25.4628 124.505 23.526 121.984 22.7314C120.081 22.1354 118.128 22.1851 116.398 23.3025C115.36 23.9729 115.038 23.526 115.014 22.5327C114.989 21.4402 115.088 20.3476 115.014 19.2799C114.989 18.9075 114.717 18.3115 114.421 18.2122C113.111 17.7901 111.578 19.0068 111.553 20.4221C111.553 23.2032 111.553 26.0587 111.553 28.8894ZM20.2477 23.5756C20.2477 22.2099 20.2724 20.7449 20.2229 19.3047C20.2229 18.9323 20.0499 18.4108 19.8027 18.2619C18.8388 17.7156 16.8367 18.9819 16.8614 20.0745C16.8861 25.8104 16.9108 31.5215 16.8614 37.2573C16.8614 38.2506 16.8367 38.921 18.0973 38.921C20.0746 38.8962 20.2477 38.772 20.2724 37.2077C20.2724 34.5011 20.2724 31.8194 20.3218 29.1129C20.3465 26.8284 21.879 25.2641 24.0047 25.2889C26.3528 25.2889 27.7864 26.6795 27.8111 29.1129C27.8606 31.8691 27.8853 34.6005 27.8359 37.3567C27.8111 38.5237 28.2066 38.921 29.3931 38.9458C30.5795 38.9458 31.3457 38.7472 31.321 37.3815C31.2963 34.4515 31.3457 31.4966 31.2469 28.5666C31.1233 24.7427 28.701 22.3589 24.8945 22.4831C23.4115 22.4831 21.9531 23.1287 20.2477 23.5756ZM49.4141 30.8759C49.4388 25.9842 46.2008 22.4086 41.6775 22.3341C36.7835 22.2596 33.4467 25.5869 33.3973 30.5779C33.3478 35.693 36.5116 39.1196 41.3315 39.1693C46.0278 39.2686 49.3893 35.7923 49.4141 30.8759ZM100.702 30.8262C100.678 32.2415 100.628 33.6817 100.702 35.0971C100.875 38.623 104.657 40.5847 107.623 38.5982C108.118 38.2754 108.118 37.2325 108.365 36.5124C107.895 36.4131 107.401 36.1896 106.931 36.2393C104.805 36.5124 104.113 35.9413 104.113 33.7314C104.113 32.0677 104.064 30.4041 104.113 28.7652C104.212 25.7856 103.397 25.4131 107.203 25.6614C108.365 25.7359 108.538 25.0406 108.563 24.1467C108.587 23.228 108.34 22.5327 107.203 22.6569C106.783 22.7066 106.363 22.6817 105.918 22.6817C104.212 22.6817 104.113 22.5824 104.113 20.8194C104.113 20.1986 104.163 19.5779 104.089 18.9819C104.039 18.6591 103.817 18.2122 103.545 18.1129C102.309 17.6907 100.702 18.9819 100.702 20.3228C100.702 20.6456 100.678 20.9932 100.702 21.316C100.826 22.2844 100.381 22.781 99.4171 22.7066C98.3048 22.6072 98.033 23.2032 98.0082 24.1467C97.9835 25.1648 98.3543 25.6614 99.4171 25.5869C100.381 25.5373 100.777 25.9842 100.727 26.9774C100.653 28.2686 100.702 29.535 100.702 30.8262ZM52.4296 31C52.4296 32.4154 52.3307 33.8555 52.4543 35.2461C52.7262 38.6479 56.3843 40.4853 59.2763 38.623C59.7953 38.2754 59.9189 37.2822 60.2155 36.5869C59.6964 36.4628 59.1527 36.1648 58.6583 36.2393C56.7551 36.5373 55.8653 35.8917 55.8406 33.93C55.8158 32.1422 55.8406 30.3296 55.8406 28.5418C55.8653 25.6614 55.099 25.4876 58.8066 25.6117C60.0425 25.6614 60.3638 25.14 60.3885 24.0474C60.4132 22.7314 59.6717 22.6569 58.6336 22.6817C55.2473 22.7066 55.8653 22.5576 55.8406 19.9503C55.8406 19.702 55.8405 19.4786 55.8653 19.2303C55.9147 18.237 55.4204 18.0135 54.5305 18.1874C52.6767 18.5598 52.4543 18.7833 52.4543 20.6953C52.4543 21.7133 52.5532 22.8059 50.996 22.6569C49.859 22.5576 49.8095 23.3025 49.8343 24.1219C49.8343 24.9413 49.9084 25.6862 51.0454 25.5621C52.2318 25.4379 52.5037 26.1084 52.479 27.1264C52.4048 28.4424 52.4296 29.7336 52.4296 31ZM92.4963 47.6117C92.4716 47.6117 92.4469 47.6117 92.4221 47.6117C92.4221 48.2325 92.3727 48.8533 92.4469 49.4492C92.4716 49.6975 92.7929 49.921 92.9906 50.1693C93.2378 49.921 93.6333 49.7224 93.658 49.4492C93.7816 48.7043 93.6333 47.9097 93.831 47.1896C93.9793 46.6433 94.4737 46.2212 94.8197 45.7494C95.2646 46.2212 95.8826 46.6185 96.0803 47.1896C96.3027 47.8104 96.0803 48.5801 96.1544 49.3002C96.1792 49.623 96.451 49.921 96.6241 50.219C96.8712 49.9458 97.242 49.6975 97.3162 49.3747C97.4397 48.8284 97.415 48.2573 97.3903 47.6862C97.3409 46.7675 97.3409 45.8488 98.552 45.8488C99.689 45.8239 99.7137 46.7178 99.7137 47.5621C99.7137 48.1332 99.6149 48.7043 99.7385 49.2506C99.8126 49.623 100.159 49.9458 100.381 50.2935C100.604 49.9707 100.974 49.6479 100.999 49.3251C101.048 48.4808 101.024 47.6117 100.9 46.7923C100.628 44.9052 99.4418 44.2844 97.6128 44.9549C97.1926 45.1038 96.6735 45.0542 96.1792 45.0542C95.2152 45.0294 94.2512 44.8555 93.312 44.9797C91.6806 45.228 92.7435 46.5689 92.4716 47.3634C92.4716 47.4131 92.4963 47.5124 92.4963 47.6117ZM105.226 47.5621C105.399 47.5373 105.572 47.5124 105.745 47.4876C105.992 48.0835 106.19 48.6795 106.486 49.2257C106.709 49.5982 107.104 49.8465 107.401 50.1445C107.673 49.7968 108.043 49.4989 108.216 49.1264C108.563 48.2573 108.859 47.3883 109.082 46.4695C109.205 45.9729 109.082 45.4266 109.057 44.9052C108.736 45.2777 108.365 45.6005 108.093 45.9977C107.747 46.5192 107.524 47.0655 107.228 47.6117C107.079 47.5621 106.931 47.4876 106.783 47.4379C106.709 46.991 106.709 46.4944 106.511 46.0722C106.313 45.6501 105.967 45.3025 105.671 44.9052C105.349 45.2777 104.979 45.6005 104.756 45.9977C104.459 46.5192 104.262 47.0903 104.039 47.6614C103.916 47.6366 103.767 47.6117 103.644 47.5869C103.471 46.8668 103.347 46.1467 103.075 45.4763C102.976 45.228 102.532 45.1287 102.235 44.9549C102.185 45.2528 102.012 45.5508 102.087 45.8239C102.408 47.0406 102.779 48.2822 103.199 49.474C103.298 49.772 103.669 49.9955 103.916 50.2438C104.188 49.9458 104.583 49.7224 104.731 49.3747C104.954 48.8284 105.053 48.1829 105.226 47.5621ZM51.4903 46.7675C51.3914 49.921 51.4162 49.8465 53.5913 50.3928C54.7283 50.6908 55.8158 50.4176 56.1619 49.5237C56.5821 48.4312 56.7057 47.0158 56.3843 45.9233C56.2113 45.3025 54.8519 45.0542 54.0115 44.6321C53.6407 44.4334 53.2452 44.2844 52.8745 44.0858C52.5779 43.9368 52.306 43.7382 52.0341 43.5892C51.8611 43.8871 51.5397 44.1851 51.515 44.5079C51.4409 45.2528 51.4903 46.0226 51.4903 46.7675ZM29.0964 47.4876C29.0717 45.0045 28.7257 44.6321 26.3528 44.6072C24.8945 44.5824 23.4856 46.0474 23.5351 47.5621C23.5598 49.0768 24.8698 50.5418 26.1798 50.5418C28.9729 50.5169 29.1212 50.3431 29.0964 47.4876ZM41.0349 47.5621C40.9113 44.9797 40.3922 44.4831 38.0194 44.6321C36.5858 44.7314 35.3994 46.1219 35.4488 47.6862C35.4982 49.3002 36.833 50.5666 38.3901 50.4921C40.8372 50.3431 41.1338 50.0203 41.0349 47.5621ZM63.1569 48.009C63.1816 45.3521 62.5142 44.6072 60.2155 44.6569C58.8066 44.6817 57.2989 46.2212 57.3236 47.6117C57.3483 48.8533 58.9302 50.4921 60.1414 50.5418C62.4648 50.6411 63.1569 50.07 63.1569 48.009ZM115.335 47.5869C115.286 44.8307 115.113 44.6569 112.517 44.6569C111.133 44.6569 109.848 46.1467 109.848 47.7607C109.848 49.2009 111.207 50.6411 112.493 50.5666C115.236 50.4176 115.384 50.2438 115.335 47.5869ZM69.8305 43.0181C69.3115 43.6637 68.8913 43.9368 68.8913 44.2348C68.8418 45.9729 68.8418 47.7111 68.916 49.4492C68.916 49.6975 69.3609 49.921 69.6081 50.1693C69.7811 49.921 70.1024 49.6975 70.1271 49.4244C70.2013 48.6795 70.0036 47.8601 70.226 47.1648C70.399 46.6185 70.9181 45.8984 71.4372 45.7743C72.327 45.5508 72.6236 46.3454 72.673 47.1151C72.7225 47.9097 72.673 48.7291 72.7719 49.5237C72.7966 49.772 73.1674 49.9707 73.3651 50.1941C73.5628 49.9707 73.9583 49.772 73.9583 49.5485C73.983 48.3815 74.1561 47.0903 73.7853 46.0474C73.5381 45.4018 72.327 44.6072 71.6349 44.7066C70.4485 44.9052 70.0777 44.5079 69.8305 43.0181ZM122.132 48.1332C123.17 48.0587 123.986 48.0339 124.802 47.9345C126.087 47.7856 126.384 47.1151 125.766 45.9977C125.049 44.781 123.64 44.2596 122.503 44.8059C121.02 45.5011 120.427 47.3386 121.094 48.9526C121.638 50.219 123.146 50.9142 124.382 50.3928C124.777 50.219 125.049 49.7968 125.395 49.474C124.11 49.2257 122.874 50.0203 122.132 48.1332ZM85.1305 47.6614C85.1058 46.2461 83.5981 44.7314 82.2139 44.7314C80.805 44.7314 79.4703 46.2461 79.495 47.8104C79.5197 49.3996 80.805 50.6908 82.3622 50.7156C83.7464 50.7156 85.1553 49.1761 85.1305 47.6614ZM91.3346 47.5124C91.3346 45.9481 90.074 44.5824 88.6651 44.6072C87.1573 44.6321 85.8473 45.9481 85.8473 47.4131C85.8226 49.0519 87.1821 50.5418 88.6651 50.5666C90.1234 50.5914 91.3346 49.2257 91.3346 47.5124ZM42.1966 47.6614C42.2213 47.6614 42.2213 47.6614 42.246 47.6614C42.1966 48.1828 42.073 48.7043 42.1472 49.2009C42.1966 49.5485 42.5426 49.8465 42.7651 50.1693C42.9876 49.8713 43.3583 49.5982 43.4325 49.2754C43.5313 48.6298 43.3336 47.9097 43.5066 47.3138C43.6796 46.7178 44.1987 46.2461 44.5695 45.7246C45.0391 46.2212 45.657 46.6433 45.9536 47.2145C46.1761 47.6614 45.9289 48.3318 46.0278 48.9029C46.1019 49.3499 46.3985 49.772 46.5716 50.1941C46.794 49.7472 47.1153 49.3251 47.2389 48.8533C47.3378 48.4063 47.2637 47.9097 47.2389 47.4379C47.1648 45.6253 46.2997 44.5824 44.9155 44.6569C42.1966 44.8059 42.1225 44.8804 42.1966 47.3883C42.1966 47.4628 42.1966 47.5621 42.1966 47.6614ZM65.1343 43.5643C64.8624 44.1354 64.2691 44.781 64.2691 45.4515C64.2444 46.544 64.4916 47.6862 64.7882 48.754C64.9365 49.3251 65.332 49.921 65.8016 50.2935C66.0488 50.4921 66.642 50.2686 67.0869 50.2438C66.8892 49.8962 66.7903 49.4492 66.5184 49.2257C65.505 48.4063 65.7028 46.395 66.8645 45.7494C67.0622 45.6501 67.1858 44.9052 67.0622 44.8059C66.5431 44.3589 65.9252 44.061 65.1343 43.5643ZM20.6431 43.4154C19.9758 44.2844 18.9871 44.8804 19.9263 46.1219C20.1982 46.4695 20.0252 47.14 20.0746 47.6614C20.1241 48.2573 20.1241 48.9029 20.2971 49.474C20.6926 50.5914 21.4341 50.7156 22.3981 49.8713C20.8409 47.6614 20.8656 46.991 22.6205 45.1535C22.0026 44.6072 21.3847 44.0858 20.6431 43.4154ZM75.4166 47.7607C75.4166 48.2822 75.3425 48.8285 75.4414 49.3002C75.5155 49.623 75.8863 49.8962 76.1087 50.1941C76.3312 49.8713 76.5784 49.5734 76.7514 49.2506C76.8255 49.1016 76.7267 48.8781 76.7267 48.7043C76.7514 47.3883 76.3312 45.8239 78.4569 45.6749C78.6052 45.6749 78.9018 45.3025 78.8523 45.2032C78.7535 44.9797 78.5557 44.7314 78.3333 44.6817C76.5784 44.2348 75.4166 45.1287 75.4166 46.9413C75.4166 47.1896 75.4166 47.4876 75.4166 47.7607ZM116.695 47.6117H116.67C116.67 48.1332 116.596 48.6546 116.695 49.1761C116.769 49.5485 117.041 49.8713 117.214 50.1941C117.461 49.8465 117.757 49.5485 117.906 49.1512C118.005 48.8781 117.906 48.5056 117.881 48.158C117.807 46.8917 117.807 45.7246 119.537 45.6501C119.71 45.6501 119.932 45.3025 119.982 45.0542C120.007 44.9549 119.71 44.7066 119.512 44.6321C117.906 44.1603 116.67 45.079 116.67 46.7178C116.695 47.0406 116.695 47.3386 116.695 47.6117ZM31.6423 46.9165C31.6176 46.9165 31.6176 46.9165 31.5929 46.9165C31.5929 46.1219 31.6423 45.3025 31.5682 44.5079C31.5435 44.1851 31.1974 43.8871 30.9997 43.5643C30.7278 43.912 30.2582 44.2348 30.2334 44.5824C30.1593 46.1467 30.2087 47.7111 30.2829 49.2506C30.3076 49.5734 30.6784 49.8962 30.9008 50.1941C31.148 49.8465 31.5435 49.5237 31.5929 49.1512C31.7165 48.4312 31.6423 47.6614 31.6423 46.9165ZM17.7759 44.9052C17.5535 44.9549 17.331 44.9797 17.1086 45.0294C17.1086 46.6185 17.0838 48.2077 17.1333 49.7968C17.1333 49.9458 17.6771 50.2438 17.7265 50.219C17.9737 49.9955 18.295 49.6975 18.3197 49.4244C18.3939 48.307 18.4186 47.1896 18.3444 46.0722C18.295 45.6501 17.9737 45.2777 17.7759 44.9052ZM33.8916 45.0542C33.6939 45.079 33.4961 45.079 33.3231 45.1038C33.3231 46.6682 33.2984 48.2077 33.3478 49.772C33.3478 49.921 33.768 50.1941 33.8174 50.1693C34.0399 49.9955 34.3859 49.7472 34.3859 49.5237C34.4354 48.2573 34.4107 46.9661 34.3612 45.6998C34.3365 45.4515 34.0399 45.2528 33.8916 45.0542Z" fill="#1A130D"/>
<path d="M-4 63.702C46.8435 63.702 97.6869 63.702 148.728 63.702C148.728 41.7517 148.728 19.8758 148.728 -2C148.827 -1.57788 149 -1.15576 149 -0.708804C149.025 20.8691 149 42.4221 149 64C98.4284 64 47.8569 64 -2.7147 64C-3.15961 63.9752 -3.57981 63.8014 -4 63.702Z" fill="#FFF3E0"/>
<path d="M63.2064 28.6408C63.2064 25.8349 63.2064 23.0539 63.2064 20.248C63.2064 18.932 64.9861 17.6159 66.1231 18.1374C66.3949 18.2615 66.5927 18.8078 66.6174 19.1555C66.6668 20.2977 66.6174 21.415 66.6174 22.5573C66.6421 23.774 66.9882 24.0223 67.9274 23.3767C71.6103 20.8936 76.6526 22.7807 77.8638 27.3992C78.5558 30.0313 78.6053 32.6385 77.493 35.1961C75.9605 38.6476 71.2395 40.4105 68.0757 38.2006C67.5072 37.8033 67.1365 37.853 66.4691 38.2254C65.7029 38.6724 64.64 38.6972 63.7255 38.6476C63.503 38.6227 63.2806 37.4805 63.2311 36.8597C63.157 35.4941 63.1817 34.1035 63.1817 32.7378C63.1817 31.397 63.2064 30.0313 63.2064 28.6408ZM66.5927 30.8259C66.2961 33.0358 66.5185 34.8733 69.015 35.8913C71.5609 36.9342 74.1067 35.9162 74.5269 33.1848C74.7494 31.7198 74.7247 30.1803 74.5022 28.7153C74.1315 26.3067 72.5001 25.0403 70.4239 25.2886C67.8285 25.6114 66.5927 26.9771 66.5927 29.5595C66.5927 29.9816 66.5927 30.4038 66.5927 30.8259Z" fill="#FFF3E0"/>
<path d="M95.9818 30.8513C95.9818 32.8874 96.0065 34.9235 95.9818 36.9597C95.9571 38.7723 94.9189 39.4924 93.3617 38.6233C92.4225 38.1019 91.7798 38.226 90.89 38.6233C86.8611 40.4608 81.6458 38.2012 80.311 33.8062C78.3336 27.226 82.5603 21.5646 89.3081 22.4585C89.407 22.4585 89.5059 22.4585 89.58 22.4834C91.063 23.129 92.4719 23.4518 94.1774 22.8062C95.5122 22.3095 96.0065 23.0048 96.0065 24.445C95.9818 26.5804 96.0065 28.7159 96.0065 30.8265C96.0065 30.8513 96.0065 30.8513 95.9818 30.8513ZM83.4501 30.8265C83.4501 31.1989 83.4007 31.5962 83.4501 31.9687C83.6973 34.0048 85.0815 35.6436 86.96 36.1154C88.5419 36.5375 90.2968 35.8423 91.2855 34.4518C92.8674 32.2418 92.8427 29.2373 91.2361 27.0274C89.7777 24.9913 86.6634 24.7678 84.9084 26.5556C83.722 27.7475 83.376 29.2125 83.4501 30.8265Z" fill="#FFF3E0"/>
<path d="M111.553 28.8889C111.553 26.0582 111.529 23.2027 111.553 20.372C111.553 18.9566 113.086 17.7399 114.421 18.1621C114.717 18.2614 114.989 18.8325 115.014 19.2298C115.088 20.3223 114.989 21.4149 115.014 22.4826C115.039 23.4758 115.335 23.9476 116.398 23.2524C118.153 22.135 120.081 22.0853 121.984 22.6813C124.505 23.4758 125.865 25.4126 125.939 28.293C126.013 31.3223 125.964 34.3517 126.013 37.381C126.038 38.9205 125.024 38.7964 124.011 38.8212C122.948 38.8709 122.602 38.4239 122.627 37.381C122.651 34.6 122.651 31.7941 122.577 28.9883C122.528 26.6293 121.07 25.2388 118.721 25.214C116.645 25.1892 115.137 26.6542 115.088 28.8889C115.014 31.67 115.014 34.4758 115.039 37.2817C115.063 38.2501 114.89 38.8957 113.753 38.7964C112.789 38.6971 111.479 39.2433 111.529 37.3562C111.652 34.5752 111.578 31.7196 111.553 28.8889C111.578 28.8889 111.578 28.8889 111.553 28.8889Z" fill="#FFF3E0"/>
<path d="M20.2476 23.5754C21.9531 23.1532 23.4114 22.5076 24.8945 22.458C28.7009 22.3338 31.1232 24.7176 31.2468 28.5415C31.3457 31.4715 31.2963 34.4264 31.321 37.3564C31.321 38.7221 30.5795 38.9207 29.393 38.9207C28.2066 38.9207 27.8111 38.4986 27.8358 37.3316C27.8853 34.5754 27.8606 31.844 27.8111 29.0878C27.7864 26.6544 26.3528 25.2638 24.0047 25.2638C21.879 25.2638 20.3465 26.8282 20.3218 29.0878C20.2723 31.7943 20.2723 34.476 20.2723 37.1826C20.2723 38.7221 20.0746 38.8462 18.0972 38.8959C16.8366 38.9207 16.8614 38.2503 16.8614 37.2322C16.9108 31.4963 16.8861 25.7853 16.8614 20.0494C16.8614 18.9568 18.8387 17.6905 19.8027 18.2368C20.0746 18.3857 20.2229 18.932 20.2229 19.2796C20.2723 20.7447 20.2476 22.1848 20.2476 23.5754Z" fill="#FFF3E0"/>
<path d="M49.4139 30.8756C49.3891 35.7921 46.0276 39.2435 41.3313 39.1939C36.5114 39.1442 33.3476 35.6927 33.3971 30.6025C33.4465 25.5866 36.7833 22.2842 41.6773 22.3587C46.2006 22.4083 49.4386 26.0088 49.4139 30.8756ZM36.8822 30.9004C36.9069 31.2232 36.9069 31.7447 37.0058 32.2661C37.3765 34.3271 38.9584 35.9411 40.7875 36.1397C42.7402 36.3632 44.5446 35.3948 45.3108 33.6566C46.1017 31.8688 46.077 30.0313 45.4838 28.2435C44.6187 25.6611 41.5043 24.5686 39.2056 25.9839C37.426 27.0517 36.8575 28.7401 36.8822 30.9004Z" fill="#FFF3E0"/>
<path d="M100.702 30.826C100.702 29.5348 100.653 28.2684 100.727 26.9772C100.776 26.0088 100.381 25.5371 99.4169 25.5867C98.354 25.6612 97.9833 25.1398 98.008 24.1465C98.0327 23.203 98.3046 22.607 99.4169 22.7064C100.381 22.8057 100.801 22.3091 100.702 21.3158C100.653 20.993 100.702 20.6454 100.702 20.3226C100.702 18.9818 102.309 17.6906 103.545 18.1127C103.792 18.212 104.039 18.659 104.088 18.9818C104.187 19.5777 104.113 20.1985 104.113 20.8192C104.113 22.5822 104.212 22.7064 105.918 22.6815C106.338 22.6815 106.783 22.7064 107.203 22.6567C108.34 22.5325 108.587 23.203 108.562 24.1465C108.538 25.0404 108.365 25.7357 107.203 25.6612C103.421 25.3881 104.212 25.7605 104.113 28.765C104.064 30.4287 104.113 32.0924 104.113 33.7312C104.113 35.9163 104.805 36.5122 106.931 36.2391C107.401 36.1894 107.895 36.4129 108.365 36.5122C108.142 37.2323 108.117 38.2752 107.623 38.598C104.657 40.5596 100.875 38.598 100.702 35.0969C100.628 33.6815 100.677 32.2413 100.702 30.826Z" fill="#FFF3E0"/>
<path d="M52.4299 31.0002C52.4299 29.7338 52.4052 28.4426 52.4299 27.1763C52.4546 26.1582 52.1827 25.4878 50.9963 25.6119C49.8593 25.7361 49.8099 24.9663 49.7852 24.1718C49.7852 23.3524 49.8099 22.6074 50.9469 22.7068C52.5041 22.8557 52.4052 21.7632 52.4052 20.7451C52.4052 18.8332 52.6276 18.5849 54.4814 18.2372C55.3713 18.0634 55.8656 18.2869 55.8162 19.2801C55.7915 19.5036 55.7915 19.7519 55.7915 20.0002C55.8162 22.6074 55.1735 22.7564 58.5845 22.7316C59.6226 22.7316 60.3642 22.8061 60.3394 24.0973C60.3147 25.1898 59.9934 25.7113 58.7575 25.6616C55.0747 25.5375 55.8162 25.7113 55.7915 28.5916C55.7667 30.3794 55.7667 32.1921 55.7915 33.9799C55.8162 35.9167 56.706 36.5871 58.6092 36.2891C59.1036 36.2147 59.6474 36.5126 60.1664 36.6368C59.8698 37.332 59.7709 38.3501 59.2272 38.6729C56.3352 40.5352 52.6771 38.6977 52.4052 35.2959C52.331 33.8557 52.4299 32.4156 52.4299 31.0002Z" fill="#FFF3E0"/>
<path d="M92.4961 47.6122C92.4961 47.5129 92.4714 47.4135 92.4961 47.339C92.768 46.5196 91.7051 45.1788 93.3365 44.9553C94.2757 44.8311 95.2397 45.005 96.2037 45.0298C96.6733 45.0298 97.1924 45.0794 97.6373 44.9305C99.4417 44.26 100.653 44.8808 100.925 46.7679C101.048 47.6122 101.073 48.4564 101.024 49.3007C100.999 49.6483 100.628 49.9463 100.406 50.2691C100.183 49.9214 99.8371 49.5986 99.763 49.2262C99.6641 48.6799 99.7383 48.1088 99.7383 47.5377C99.763 46.6934 99.7135 45.7995 98.5766 45.8244C97.3654 45.8492 97.3654 46.7679 97.4148 47.6618C97.4396 48.2329 97.489 48.8041 97.3407 49.3503C97.2665 49.6731 96.8958 49.9214 96.6486 50.1946C96.4756 49.8966 96.2037 49.5986 96.179 49.2758C96.1048 48.5806 96.3273 47.8108 96.1048 47.1652C95.9071 46.6189 95.2644 46.1968 94.8442 45.725C94.4982 46.1968 93.9791 46.6438 93.8555 47.1652C93.6578 47.8853 93.8061 48.6799 93.6825 49.4248C93.6331 49.698 93.2376 49.9214 93.0152 50.1449C92.8174 49.8966 92.5208 49.6731 92.4714 49.4248C92.3972 48.8289 92.4467 48.2081 92.4467 47.5873C92.4714 47.6122 92.4714 47.6122 92.4961 47.6122Z" fill="#FFF3E0"/>
<path d="M105.226 47.5622C105.053 48.1829 104.954 48.8037 104.707 49.3748C104.559 49.7224 104.188 49.9459 103.891 50.2439C103.644 49.9956 103.273 49.7721 103.174 49.4741C102.754 48.2823 102.383 47.0407 102.062 45.824C101.988 45.5757 102.161 45.2529 102.21 44.9549C102.507 45.1288 102.952 45.2281 103.051 45.4764C103.323 46.1468 103.446 46.8917 103.619 47.587C103.743 47.6118 103.891 47.6367 104.015 47.6615C104.262 47.1152 104.435 46.5193 104.732 45.9978C104.954 45.6005 105.325 45.2529 105.646 44.9053C105.943 45.2777 106.289 45.6502 106.487 46.0723C106.66 46.4944 106.66 46.9662 106.758 47.438C106.907 47.4877 107.055 47.5622 107.203 47.6118C107.475 47.0655 107.722 46.4944 108.068 45.9978C108.34 45.6005 108.711 45.2529 109.032 44.9053C109.057 45.4267 109.156 45.973 109.057 46.4696C108.859 47.3635 108.538 48.2574 108.192 49.1265C108.044 49.5238 107.673 49.8218 107.376 50.1446C107.055 49.8466 106.66 49.5983 106.462 49.2258C106.141 48.6795 105.943 48.0588 105.72 47.4877C105.572 47.5125 105.399 47.5373 105.226 47.5622Z" fill="#FFF3E0"/>
<path d="M51.4907 46.7672C51.4907 46.0223 51.4413 45.2525 51.5154 44.5076C51.5401 44.1848 51.8615 43.8868 52.0345 43.5889C52.3064 43.7627 52.5783 43.9365 52.8749 44.0855C53.2456 44.2841 53.6411 44.4579 54.0119 44.6318C54.8275 45.0539 56.187 45.3022 56.3847 45.923C56.706 47.0155 56.5825 48.4309 56.1623 49.5234C55.8162 50.3925 54.7534 50.6904 53.5917 50.3925C51.4165 49.8462 51.3918 49.9207 51.4907 46.7672ZM55.569 47.7108C55.5938 46.7424 55.396 45.7988 54.2837 45.6995C53.0973 45.6002 52.8749 46.5685 52.8007 47.5121C52.7266 48.4805 53.0973 49.2751 54.086 49.3496C55.1241 49.4489 55.5443 48.6792 55.569 47.7108Z" fill="#FFF3E0"/>
<path d="M29.0966 47.4871C29.1213 50.3426 28.9483 50.5165 26.2046 50.5413C24.8946 50.5661 23.5846 49.0763 23.5599 47.5616C23.5352 46.0469 24.9193 44.5819 26.3777 44.6068C28.7258 44.6316 29.0966 45.0289 29.0966 47.4871ZM28.1573 47.2636C27.5888 46.767 27.0945 45.9228 26.4765 45.8235C25.4878 45.6496 24.8452 46.4194 24.8699 47.4871C24.8946 48.4803 25.216 49.3743 26.353 49.3743C27.3416 49.3494 27.8607 48.6045 28.1573 47.2636Z" fill="#FFF3E0"/>
<path d="M41.0349 47.5623C41.1337 50.0206 40.8618 50.3434 38.3901 50.4924C36.8329 50.5917 35.4982 49.3005 35.4488 47.6865C35.3993 46.1222 36.5858 44.7316 38.0194 44.6323C40.3922 44.4833 40.9113 44.9799 41.0349 47.5623ZM39.9967 47.91C39.5765 46.6933 39.3541 45.7497 38.1924 45.7745C37.1542 45.7994 36.7588 46.5939 36.7341 47.5127C36.7093 48.5307 37.2284 49.4246 38.2665 49.3005C38.8845 49.226 39.4282 48.4066 39.9967 47.91Z" fill="#FFF3E0"/>
<path d="M63.1568 48.0087C63.1568 50.0697 62.4647 50.6408 60.1413 50.5415C58.9302 50.4918 57.3483 48.853 57.3235 47.6114C57.2988 46.1961 58.8066 44.6814 60.2155 44.6566C62.5142 44.6069 63.1815 45.3519 63.1568 48.0087ZM61.8715 47.4376C61.6985 46.6927 61.4513 45.8236 60.2649 45.8236C59.1773 45.8485 58.683 46.7175 58.8313 47.5618C58.9549 48.257 59.647 49.2503 60.2155 49.3248C61.1547 49.4737 61.8221 48.704 61.8715 47.4376Z" fill="#FFF3E0"/>
<path d="M115.335 47.5873C115.384 50.2441 115.236 50.418 112.517 50.5669C111.232 50.6414 109.872 49.2012 109.872 47.7611C109.872 46.1471 111.133 44.6572 112.542 44.6572C115.112 44.6572 115.285 44.831 115.335 47.5873ZM114.074 47.6369C114.247 46.5195 113.654 45.8491 112.64 45.7746C111.528 45.7001 111.133 46.5692 111.058 47.5376C110.96 48.5556 111.602 49.2757 112.467 49.3006C113.357 49.3254 114.222 48.8536 114.074 47.6369Z" fill="#FFF3E0"/>
<path d="M69.8302 43.0176C70.0773 44.5074 70.4481 44.8799 71.6345 44.7309C72.3019 44.6316 73.5378 45.4262 73.7849 46.0718C74.1804 47.1146 73.9827 48.381 73.9579 49.5729C73.9579 49.7964 73.5625 49.995 73.3647 50.2185C73.167 49.995 72.7962 49.7964 72.7715 49.5481C72.6726 48.7535 72.7468 47.9341 72.6726 47.1395C72.6232 46.3697 72.3266 45.5751 71.4368 45.7986C70.9424 45.9228 70.3987 46.6429 70.2256 47.1891C70.0032 47.8844 70.2009 48.679 70.1268 49.4487C70.102 49.697 69.7807 49.9453 69.6077 50.1936C69.3605 49.9702 68.9156 49.7219 68.9156 49.4736C68.8415 47.7354 68.8415 45.9973 68.8909 44.2591C68.8909 43.9611 69.3111 43.6632 69.8302 43.0176Z" fill="#FFF3E0"/>
<path d="M122.133 48.1335C122.874 49.9958 124.11 49.226 125.395 49.4743C125.074 49.7971 124.777 50.2192 124.382 50.3931C123.146 50.9393 121.614 50.2441 121.095 48.9529C120.402 47.3141 121.02 45.5014 122.503 44.8062C123.64 44.2599 125.049 44.7813 125.766 45.998C126.409 47.1154 126.087 47.7858 124.802 47.9348C123.986 48.0341 123.146 48.059 122.133 48.1335ZM122.38 47.2396C123.171 47.0161 123.863 46.8423 124.555 46.6436C124.283 46.3208 124.085 45.7497 123.764 45.7001C122.924 45.5511 122.306 45.8739 122.38 47.2396Z" fill="#FFF3E0"/>
<path d="M85.131 47.6615C85.1557 49.1761 83.7468 50.7156 82.3627 50.7156C80.8055 50.7156 79.5202 49.3996 79.4955 47.8105C79.4707 46.2461 80.8055 44.7314 82.2144 44.7314C83.5985 44.7314 85.1063 46.2461 85.131 47.6615ZM84.0187 48.0836C83.7963 46.8172 82.9806 45.675 82.2885 45.973C81.6459 46.2461 80.8055 47.1152 80.8302 47.6863C80.8549 48.3567 81.7447 48.9775 82.2638 49.6231C82.8323 49.1016 83.4255 48.605 84.0187 48.0836Z" fill="#FFF3E0"/>
<path d="M91.3343 47.512C91.3343 49.2253 90.1231 50.591 88.6648 50.5661C87.157 50.5413 85.8223 49.0515 85.847 47.4126C85.8717 45.9476 87.1817 44.6316 88.6648 44.6068C90.0737 44.5819 91.3343 45.9476 91.3343 47.512ZM87.1076 47.3382C87.0829 48.6542 87.7502 49.4984 88.6401 49.3494C89.258 49.2501 90.0737 48.1824 90.1231 47.4871C90.1725 46.9409 89.258 45.9228 88.6401 45.7987C87.5772 45.6 87.157 46.5684 87.1076 47.3382Z" fill="#FFF3E0"/>
<path d="M42.1966 47.6616C42.1966 47.5623 42.1966 47.4629 42.1966 47.3884C42.1224 44.8805 42.1966 44.806 44.9155 44.6571C46.2997 44.5826 47.1895 45.6255 47.2389 47.4381C47.2636 47.9099 47.3625 48.4065 47.2389 48.8534C47.1153 49.3252 46.794 49.7474 46.5715 50.1943C46.3738 49.7722 46.1019 49.3501 46.0278 48.9031C45.9289 48.3568 46.1761 47.6864 45.9536 47.2146C45.657 46.6435 45.0391 46.2214 44.5694 45.7248C44.1987 46.2462 43.6796 46.7428 43.5066 47.3139C43.3089 47.9099 43.5313 48.63 43.4324 49.2756C43.383 49.5984 43.0123 49.8715 42.7651 50.1695C42.5426 49.8467 42.1966 49.5487 42.1471 49.2011C42.073 48.7045 42.1966 48.1582 42.246 47.6616C42.246 47.6616 42.2213 47.6616 42.1966 47.6616Z" fill="#FFF3E0"/>
<path d="M65.134 43.5645C65.925 44.0611 66.5182 44.359 67.0125 44.806C67.1361 44.9301 67.0125 45.6502 66.8148 45.7496C65.6778 46.3952 65.4801 48.3816 66.4688 49.2259C66.7406 49.4493 66.8642 49.8963 67.0372 50.2439C66.5923 50.2687 65.9991 50.4922 65.752 50.2936C65.307 49.9211 64.8868 49.3252 64.7385 48.7541C64.4419 47.6863 64.1948 46.5441 64.2195 45.4516C64.2936 44.7812 64.8621 44.1107 65.134 43.5645Z" fill="#FFF3E0"/>
<path d="M20.6435 43.415C21.385 44.0606 22.0029 44.6069 22.6208 45.1532C20.8659 46.9907 20.8412 47.6363 22.3984 49.871C21.4344 50.7153 20.6929 50.6159 20.2974 49.4737C20.0997 48.9026 20.1244 48.2819 20.075 47.6611C20.0255 47.1396 20.1986 46.4692 19.9267 46.1216C18.9874 44.8801 19.9761 44.2841 20.6435 43.415Z" fill="#FFF3E0"/>
<path d="M75.4163 47.7607C75.4163 47.4876 75.4163 47.1896 75.4163 46.9165C75.4163 45.1287 76.5781 44.21 78.333 44.6569C78.5554 44.7066 78.7532 44.9797 78.8521 45.1784C78.9015 45.2777 78.6049 45.6253 78.4566 45.6501C76.3309 45.7991 76.7511 47.3635 76.7264 48.6795C76.7264 48.8781 76.8252 49.1016 76.7511 49.2258C76.5781 49.5734 76.3309 49.8714 76.1084 50.1693C75.8613 49.8714 75.5152 49.5982 75.4411 49.2754C75.3422 48.8285 75.4163 48.2822 75.4163 47.7607Z" fill="#FFF3E0"/>
<path d="M116.695 47.6122C116.695 47.339 116.695 47.0411 116.695 46.7679C116.695 45.1291 117.931 44.2104 119.537 44.6821C119.735 44.7318 120.032 45.0049 120.007 45.1043C119.933 45.3277 119.735 45.6754 119.562 45.7002C117.807 45.7747 117.807 46.9417 117.906 48.2081C117.931 48.5309 118.029 48.9034 117.931 49.2013C117.782 49.5738 117.461 49.8966 117.238 50.2442C117.065 49.8966 116.769 49.5738 116.719 49.2262C116.621 48.7295 116.695 48.1833 116.695 47.6618C116.67 47.6122 116.67 47.6122 116.695 47.6122Z" fill="#FFF3E0"/>
<path d="M31.6425 46.9162C31.6425 47.6611 31.7167 48.4309 31.6178 49.1758C31.5684 49.5482 31.1729 49.871 30.9257 50.2187C30.7033 49.8959 30.3325 49.5979 30.3078 49.2751C30.2336 47.7108 30.1842 46.1464 30.2584 44.6069C30.2831 44.2593 30.7527 43.9365 31.0246 43.5889C31.2223 43.9117 31.5437 44.2096 31.5931 44.5324C31.6672 45.327 31.6178 46.1464 31.6178 46.941C31.5931 46.9162 31.6178 46.9162 31.6425 46.9162Z" fill="#FFF3E0"/>
<path d="M17.7764 44.9053C17.9741 45.2777 18.2955 45.6502 18.3202 46.0475C18.3943 47.1649 18.3696 48.2822 18.2954 49.3996C18.2707 49.6728 17.9494 49.9707 17.7022 50.1942C17.6528 50.2439 17.1337 49.9211 17.109 49.7721C17.0596 48.1829 17.0843 46.5938 17.0843 45.0046C17.3315 44.9798 17.5539 44.9301 17.7764 44.9053Z" fill="#FFF3E0"/>
<path d="M33.892 45.0537C34.0403 45.2524 34.337 45.4758 34.337 45.6745C34.3864 46.9408 34.4111 48.232 34.3617 49.4984C34.3617 49.7219 34.0156 49.9702 33.7932 50.144C33.7437 50.1688 33.3235 49.8957 33.3235 49.7467C33.2988 48.1824 33.2988 46.6429 33.2988 45.0785C33.4966 45.0785 33.6943 45.0537 33.892 45.0537Z" fill="#FFF3E0"/>
<path d="M66.5922 30.8263C66.5922 30.4041 66.5922 29.982 66.5922 29.5599C66.5922 27.0023 67.828 25.6118 70.4234 25.289C72.4996 25.0407 74.1309 26.2823 74.5017 28.7157C74.7242 30.1807 74.7489 31.745 74.5264 33.1852C74.1062 35.8917 71.5603 36.9346 69.0145 35.8917C66.518 34.8737 66.2956 33.0362 66.5922 30.8263Z" fill="#1A130D"/>
<path d="M83.4497 30.8266C83.3756 29.2126 83.7463 27.7476 84.9328 26.5557C86.7124 24.7927 89.8021 25.0162 91.2604 27.0275C92.867 29.2374 92.8917 32.2419 91.3098 34.4519C90.3211 35.8424 88.5662 36.5128 86.9843 36.1155C85.1058 35.6189 83.6969 33.9801 83.4745 31.9688C83.4003 31.5963 83.4497 31.199 83.4497 30.8266Z" fill="#1A130D"/>
<path d="M36.8826 30.9002C36.8579 28.74 37.4264 27.0515 39.1813 25.9837C41.5047 24.5684 44.5944 25.6858 45.4595 28.2433C46.0774 30.0312 46.0774 31.8686 45.2865 33.6564C44.5202 35.3946 42.7406 36.363 40.7632 36.1395C38.9341 35.9409 37.3522 34.3269 36.9815 32.2659C36.9073 31.7445 36.9073 31.223 36.8826 30.9002Z" fill="#1A130D"/>
<path d="M55.5682 47.7107C55.5435 48.7039 55.1233 49.4489 54.0852 49.3495C53.0965 49.2502 52.701 48.4805 52.7999 47.5121C52.874 46.5685 53.1212 45.6001 54.2829 45.6994C55.3952 45.7987 55.5929 46.7175 55.5682 47.7107Z" fill="#1A130D"/>
<path d="M28.1575 47.2642C27.8856 48.605 27.3419 49.35 26.3285 49.3748C25.2162 49.3996 24.8701 48.4809 24.8454 47.4877C24.8207 46.3951 25.4633 45.6502 26.452 45.824C27.0947 45.9233 27.589 46.7676 28.1575 47.2642Z" fill="#1A130D"/>
<path d="M39.9969 47.9094C39.4284 48.406 38.8846 49.2254 38.2667 49.2999C37.2286 49.424 36.7095 48.5301 36.7342 47.5121C36.759 46.5933 37.1544 45.7739 38.1926 45.7739C39.379 45.7491 39.5767 46.6927 39.9969 47.9094Z" fill="#1A130D"/>
<path d="M61.8716 47.4377C61.8222 48.7041 61.1301 49.4987 60.2156 49.3249C59.6471 49.2256 58.955 48.2323 58.8314 47.5619C58.6831 46.7425 59.1775 45.8486 60.265 45.8237C61.4514 45.7989 61.6986 46.6928 61.8716 47.4377Z" fill="#1A130D"/>
<path d="M114.074 47.6363C114.223 48.8282 113.358 49.3248 112.468 49.3C111.603 49.2751 110.96 48.555 111.059 47.537C111.133 46.5686 111.529 45.6995 112.641 45.774C113.679 45.8485 114.247 46.5189 114.074 47.6363Z" fill="#1A130D"/>
<path d="M122.379 47.2397C122.28 45.8492 122.923 45.5264 123.763 45.7002C124.085 45.7498 124.282 46.3209 124.554 46.6437C123.862 46.8424 123.17 47.041 122.379 47.2397Z" fill="#1A130D"/>
<path d="M84.0182 48.0834C83.425 48.5801 82.8565 49.1015 82.2632 49.5981C81.7442 48.9525 80.8791 48.3317 80.8296 47.6613C80.8049 47.0902 81.6206 46.2211 82.288 45.948C82.9553 45.6749 83.7957 46.8171 84.0182 48.0834Z" fill="#1A130D"/>
<path d="M87.108 47.3382C87.1821 46.5685 87.5776 45.6001 88.6404 45.7987C89.2584 45.9229 90.1729 46.9161 90.1235 47.4872C90.074 48.1825 89.2584 49.2502 88.6404 49.3495C87.7506 49.4985 87.0585 48.6543 87.108 47.3382Z" fill="#1A130D"/>
</g>
</g>
<defs>
<clipPath id="clip0_608_4625">
<rect width="144" height="62" fill="white"/>
</clipPath>
<clipPath id="clip1_608_4625">
<rect width="153" height="66" fill="white" transform="translate(-4 -2)"/>
</clipPath>
</defs>
</svg>
