<svg width="214" height="62" viewBox="0 0 214 62" fill="none" xmlns="http://www.w3.org/2000/svg">
<path d="M0 62C0 41.3958 0 20.6979 0 0C72.2338 0 144.568 0 216.901 0C216.901 20.6979 216.901 41.3021 216.901 62C144.568 62 72.3338 62 0 62ZM176.683 29.8761C176.683 29.9698 176.683 30.1571 176.683 30.2508C175.882 30.6254 175.082 31.0937 174.281 31.3746C172.18 32.2175 170.079 32.9668 168.079 33.9033C167.478 34.1843 167.178 34.9335 166.778 35.4018C167.278 35.6828 167.778 36.1511 168.379 36.3384C170.079 36.713 171.78 36.994 173.481 37.1813C176.482 37.5559 179.584 37.6495 182.585 38.0242C185.187 38.3988 188.088 38.1178 190.389 39.8036C190.589 39.9909 191.189 39.71 191.59 39.6163C191.489 39.2417 191.389 38.7734 191.089 38.4924C190.889 38.2115 190.389 38.1178 189.989 38.0242C188.488 37.7432 186.887 37.3686 185.287 37.1813C180.784 36.6193 176.282 36.0574 171.78 35.4955C171.18 35.4018 170.58 35.1208 169.579 34.8399C170.28 34.3716 170.58 34.0906 170.98 33.997C172.781 33.2477 174.682 32.5921 176.482 31.8429C177.783 31.3746 178.984 30.8127 180.184 30.2508C180.484 30.0634 180.885 29.5015 180.784 29.3142C180.584 28.9396 180.084 28.565 179.684 28.565C177.283 28.3776 174.782 28.0967 172.381 28.284C170.18 28.3776 168.079 28.4713 165.878 27.8157C161.375 26.5045 156.773 26.8792 152.171 27.6284C151.571 27.7221 150.971 28.284 150.37 28.7523C149.87 29.1269 149.67 29.8761 149.17 30.0634C147.469 30.719 146.168 31.7492 145.268 33.2477C144.668 34.1843 143.867 34.3716 142.867 34.4653C142.166 34.4653 141.466 34.4653 140.766 34.4653C140.366 34.4653 140.065 34.1843 139.765 33.997C139.965 33.716 140.165 33.3414 140.466 33.1541C140.666 32.9668 140.966 32.9668 141.166 32.8731C143.467 31.7492 145.468 30.3444 146.969 28.3776C147.569 27.6284 147.369 26.6918 146.568 26.4109C145.668 26.1299 144.668 25.7553 143.767 25.9426C141.366 26.5045 139.065 27.2538 136.764 28.003C136.164 28.1903 135.763 28.6586 135.263 28.9396C134.563 29.4079 133.863 29.8761 133.162 30.3444C131.662 31.281 130.061 32.2175 128.46 33.2477C128.06 33.5287 127.96 34.0906 127.76 34.5589C128.26 34.6526 128.86 34.8399 129.36 34.6526C130.161 34.3716 130.961 33.9033 131.762 33.435C134.963 31.4683 138.065 29.5015 141.266 27.6284C141.766 27.3474 142.367 27.1601 142.867 27.1601C143.367 27.1601 144.167 27.4411 144.367 27.7221C144.568 28.0967 144.267 28.8459 143.867 29.1269C142.867 29.9698 141.866 30.8127 140.666 31.281C139.065 32.0302 137.264 32.3112 135.663 32.9668C135.163 33.1541 134.763 33.6224 134.263 33.997C134.663 34.2779 134.963 34.8399 135.363 34.9335C137.064 35.2145 138.665 35.5891 140.366 35.6828C142.467 35.7764 144.668 35.2145 146.769 35.4955C150.57 35.9637 153.872 34.9335 157.073 33.1541C157.474 32.9668 157.474 32.1239 157.674 31.5619C157.173 31.4683 156.673 31.1873 156.073 31.1873C154.672 31.281 153.172 31.4683 151.771 31.5619C151.371 31.5619 150.971 31.3746 150.37 31.281C150.77 30.719 151.371 30.3444 151.371 29.9698C151.371 28.565 152.371 28.4713 153.472 28.284C157.073 27.7221 160.575 28.0967 164.177 28.6586C164.577 28.7523 165.177 29.0332 165.377 29.3142C165.477 29.5952 165.077 30.1571 164.677 30.4381C162.776 31.6556 160.875 32.8731 158.974 34.0906C158.474 34.4653 157.674 34.7462 158.174 35.4955C158.674 36.2447 159.374 35.9637 159.975 35.5891C161.075 34.9335 162.076 34.1843 163.176 33.5287C164.977 32.4048 166.578 31.0937 168.579 30.4381C170.68 29.7825 173.081 29.7825 175.382 29.5015C175.682 29.5952 176.182 29.7825 176.683 29.8761ZM117.255 30.8127C117.355 30.9063 117.355 31.0937 117.455 31.1873C116.955 31.7492 116.354 32.3112 115.954 32.9668C115.654 33.5287 115.254 34.1843 115.354 34.7462C115.454 35.1208 116.354 35.4955 116.955 35.5891C117.755 35.6828 118.655 35.5891 119.356 35.3082C120.756 34.8399 122.257 34.4653 123.458 33.716C126.059 32.2175 128.56 30.5317 130.961 28.8459C131.261 28.6586 131.161 28.0967 131.261 27.7221C130.861 27.7221 130.361 27.5347 129.961 27.6284C129.46 27.8157 129.06 28.284 128.66 28.6586C126.159 31.1873 123.058 32.6858 119.556 33.716C119.156 33.8097 118.555 33.6224 118.055 33.6224C118.255 33.1541 118.355 32.5921 118.655 32.3112C119.956 31.1873 121.357 30.1571 122.657 29.0332C122.957 28.8459 123.058 28.4713 123.258 28.1903C122.857 28.0967 122.557 27.9094 122.157 27.8157C121.957 27.8157 121.657 27.9094 121.457 28.003C118.455 28.9396 115.454 29.8761 112.353 30.8127C112.052 30.9063 111.552 30.8127 111.352 30.6254C111.252 30.4381 111.252 29.8761 111.452 29.6888C112.052 29.0332 112.753 28.3776 113.453 27.8157C114.253 27.1601 115.254 26.5982 116.054 25.9426C116.254 25.7553 116.354 25.3807 116.454 25.0997C116.154 25.006 115.754 24.8187 115.454 25.006C114.754 25.287 114.153 25.7553 113.553 26.1299C112.753 26.5982 112.052 27.1601 111.352 27.6284C109.951 28.3776 108.351 29.0332 107.05 29.8761C105.95 30.6254 105.049 31.3746 103.648 30.8127C103.048 30.6254 102.148 30.9063 102.448 31.6556C102.948 32.7795 102.348 33.2477 101.547 33.9033C101.047 34.2779 100.647 34.5589 100.247 35.0272C100.047 35.2145 100.047 35.5891 100.047 35.9637C100.347 35.9637 100.847 36.1511 101.047 36.0574C101.547 35.8701 102.048 35.4955 102.448 35.1208C103.248 34.4653 103.949 33.716 104.749 33.1541C105.049 32.9668 105.549 33.0604 106.05 33.0604C106.05 33.435 106.05 33.8097 105.849 34.0906C105.549 34.6526 104.949 35.2145 104.749 35.7764C104.649 36.2447 104.849 36.8066 104.949 37.2749C105.449 37.0876 106.15 37.0876 106.55 36.713C106.95 36.2447 107.15 35.4955 107.45 34.9335C108.05 33.8097 108.751 32.7795 110.252 32.4985C111.752 32.2175 113.253 31.8429 114.754 31.5619C115.754 31.1873 116.454 31 117.255 30.8127ZM97.8457 29.7825C97.9458 29.9698 97.9458 30.0634 98.0458 30.2508C97.1454 30.8127 96.245 31.4683 95.4446 32.0302C93.6438 33.435 91.8429 34.8399 90.1421 36.432C89.842 36.713 90.0421 37.4622 90.0421 37.9305C90.6424 37.7432 91.3427 37.6495 91.7429 37.2749C92.5432 36.5257 93.1435 35.4955 93.9439 34.8399C95.7447 33.3414 97.6456 32.0302 99.5465 30.6254C100.647 29.7825 101.748 28.9396 102.748 28.0967C103.048 27.9094 103.048 27.4411 103.148 27.0665C102.748 26.9728 102.448 26.8792 102.048 26.8792C101.848 26.8792 101.648 27.0665 101.447 27.0665C98.5461 27.9094 95.5446 28.6586 92.6433 29.4079C92.2431 29.5015 91.8429 29.2205 91.4427 29.1269C91.6428 28.7523 91.6428 28.3776 91.943 28.003C92.3432 27.4411 92.9434 27.0665 93.3436 26.5045C93.5437 26.2236 93.4437 25.7553 93.5437 25.3807C93.1435 25.3807 92.5432 25.1934 92.2431 25.3807C90.3422 26.5045 88.5414 27.5347 86.8406 28.8459C84.8397 30.3444 83.0388 32.0302 81.238 33.8097C80.8378 34.1843 80.8378 34.7462 80.7377 35.3082C81.238 35.3082 81.9383 35.4018 82.3385 35.2145C83.9392 34.2779 85.54 33.2477 87.1407 32.3112C87.841 31.8429 88.6414 31.4683 89.4418 31.281C91.8429 30.719 94.244 30.3444 96.5451 29.8761C97.0453 29.6888 97.4455 29.7825 97.8457 29.7825ZM33.9159 32.4048C34.1159 32.4985 34.216 32.5921 34.4161 32.6858C34.316 33.1541 34.1159 33.5287 34.0159 33.997C33.9158 34.5589 33.9158 35.0272 33.8158 35.5891C34.4161 35.6828 35.1164 35.9637 35.6166 35.6828C37.1173 35.0272 38.518 34.2779 39.9187 33.435C42.2197 32.0302 44.5208 30.5317 46.7218 29.0332C47.5222 28.4713 48.3226 27.9094 49.0229 27.2538C49.223 27.0665 49.4231 26.5982 49.323 26.4109C49.323 26.2236 48.7228 26.0363 48.5227 26.1299C48.0224 26.2236 47.5222 26.5045 47.122 26.7855C44.0206 28.9396 41.0192 31.0937 37.9177 33.2477C37.6176 33.435 37.2174 33.3414 36.8172 33.435C36.8172 33.0604 36.7172 32.6858 36.8172 32.4048C36.9173 32.1239 37.1173 31.8429 37.3174 31.5619C38.2179 30.0634 39.1183 28.565 39.9187 27.0665C40.0187 26.8792 39.9187 26.4109 39.8186 26.2236C39.7186 26.1299 39.2183 26.1299 39.0182 26.2236C38.2179 26.6918 37.5175 27.2538 36.7172 27.8157C34.4161 29.6888 32.2151 31.6556 29.914 33.435C28.9135 34.2779 27.713 34.8399 26.7125 35.5891C26.4123 35.7764 26.4123 36.432 26.3123 36.8066C26.7125 36.8066 27.3128 36.9003 27.6129 36.713C28.7134 36.0574 29.7139 35.4018 30.8144 34.6526C31.8149 33.997 32.8153 33.1541 33.9159 32.4048ZM60.5283 25.006C60.4282 24.8187 60.4282 24.7251 60.3282 24.5378C59.928 24.5378 59.5278 24.4441 59.2277 24.5378C58.3273 24.9124 57.4268 25.1934 56.7265 25.7553C53.3249 28.284 50.0234 30.8127 46.6218 33.3414C46.3216 33.6224 46.2216 34.1843 46.1216 34.5589C46.6218 34.6526 47.122 34.9335 47.6223 34.8399C48.0224 34.8399 48.3226 34.5589 48.7228 34.3716C49.9233 33.716 51.1239 33.0604 52.4245 32.4048C52.7246 32.2175 53.1248 32.4048 53.525 32.4048C53.425 32.6858 53.425 33.0604 53.2249 33.3414C52.7246 33.9033 52.1244 34.4653 51.7242 35.0272C51.0238 36.1511 51.7242 37.4622 53.0248 37.0876C55.1258 36.6193 57.0266 35.6828 59.0276 34.9335C59.2277 34.8399 59.2277 34.3716 59.3277 34.0906C59.0276 34.0906 58.7274 33.997 58.4273 34.0906C57.5269 34.4653 56.6265 34.8399 55.726 35.1208C55.4259 35.2145 54.9257 35.0272 54.6255 34.7462C54.5255 34.5589 54.6255 34.0906 54.8256 33.8097C55.4259 33.0604 56.0262 32.4048 56.6265 31.7492C57.3268 31.0937 58.1272 30.4381 58.8275 29.7825C59.1276 29.5015 59.1276 29.0332 59.2277 28.6586C58.8275 28.565 58.4273 28.4713 58.0271 28.4713C57.727 28.4713 57.5269 28.7523 57.2267 28.8459C56.1262 29.4079 55.0257 29.9698 53.9252 30.4381C53.7251 30.5317 53.3249 30.3444 53.0248 30.3444C53.1248 30.1571 53.0248 29.7825 53.2249 29.6888C55.3259 28.3776 56.8266 26.3172 59.3277 25.568C59.6279 25.6616 60.0281 25.287 60.5283 25.006ZM62.6293 36.713C62.7293 36.6193 62.7293 36.6193 62.8294 36.5257C63.4296 36.432 64.0299 36.432 64.5302 36.1511C66.2309 35.3082 68.0318 34.4653 69.5325 33.435C71.3333 32.2175 72.6339 30.5317 73.4343 28.565C73.6344 28.003 73.7345 26.9728 73.4343 26.5982C73.1342 26.2236 72.0337 26.3172 71.4334 26.5045C70.633 26.6918 69.9327 27.2538 69.1323 27.6284C66.0309 28.7523 63.4296 30.4381 61.2286 32.7795C60.4282 33.6224 59.928 34.5589 60.6283 35.4955C61.0285 35.9637 61.9289 36.2447 62.6293 36.713ZM33.4156 25.568C33.4156 25.4743 33.3156 25.287 33.3156 25.1934C32.9154 25.287 32.5152 25.287 32.2151 25.4743C31.2146 26.2236 30.1141 26.8792 29.2137 27.8157C27.4128 29.5015 25.8121 31.281 24.1113 33.0604C23.3109 33.9033 22.5105 34.6526 21.8102 35.4955C21.6101 35.7764 21.7101 36.1511 21.6101 36.5257C22.0103 36.432 22.5105 36.5257 22.7106 36.3384C23.4109 35.7764 24.0112 35.0272 24.7115 34.3716C26.7125 32.2175 28.6134 30.0634 30.7144 28.003C31.4147 27.0665 32.5152 26.3172 33.4156 25.568Z" fill="#1A130D"/>
<path d="M176.683 29.8756C176.182 29.782 175.682 29.501 175.182 29.5947C172.881 29.782 170.58 29.782 168.379 30.5312C166.478 31.1868 164.777 32.5917 162.976 33.6219C161.876 34.2775 160.875 35.0267 159.775 35.6823C159.174 36.0569 158.474 36.3379 157.974 35.5886C157.474 34.7457 158.274 34.4648 158.774 34.1838C160.675 32.9663 162.576 31.7488 164.477 30.5312C164.777 30.3439 165.277 29.6883 165.177 29.4074C165.077 29.1264 164.477 28.7518 163.977 28.7518C160.475 28.1898 156.873 27.7216 153.272 28.3772C152.271 28.5645 151.171 28.6581 151.171 30.063C151.171 30.4376 150.67 30.8122 150.17 31.3741C150.77 31.4678 151.171 31.6551 151.571 31.6551C152.971 31.5614 154.472 31.3741 155.873 31.2805C156.373 31.2805 156.873 31.5614 157.474 31.6551C157.273 32.217 157.273 32.9663 156.873 33.2473C153.672 35.0267 150.37 36.0569 146.568 35.5886C144.467 35.3077 142.266 35.776 140.165 35.776C138.465 35.6823 136.764 35.4013 135.163 35.0267C134.763 34.9331 134.463 34.3711 134.063 34.0902C134.563 33.7155 134.863 33.2473 135.463 33.0599C137.164 32.498 138.865 32.1234 140.466 31.3741C141.666 30.8122 142.667 29.9693 143.667 29.2201C144.067 28.9391 144.367 28.1898 144.167 27.8152C143.967 27.4406 143.267 27.2533 142.667 27.2533C142.166 27.2533 141.466 27.4406 141.066 27.7216C137.864 29.5947 134.763 31.5614 131.561 33.5282C130.761 33.9965 129.961 34.4648 129.16 34.7457C128.66 34.9331 128.06 34.6521 127.56 34.6521C127.76 34.1838 127.86 33.6219 128.26 33.3409C129.761 32.3107 131.361 31.3741 132.962 30.4376C133.662 29.9693 134.363 29.501 135.063 29.0327C135.563 28.6581 136.064 28.2835 136.564 28.0962C138.865 27.3469 141.166 26.5977 143.567 26.0358C144.367 25.8485 145.468 26.2231 146.368 26.504C147.169 26.785 147.369 27.7216 146.769 28.4708C145.268 30.4376 143.167 31.8424 140.966 32.9663C140.766 33.0599 140.466 33.0599 140.266 33.2473C139.965 33.5282 139.765 33.8092 139.565 34.0902C139.865 34.2775 140.266 34.5584 140.566 34.5584C141.266 34.6521 141.966 34.6521 142.667 34.5584C143.667 34.5584 144.467 34.2775 145.068 33.3409C145.968 31.9361 147.169 30.8122 148.97 30.1566C149.47 29.9693 149.67 29.2201 150.17 28.8454C150.67 28.3772 151.271 27.8152 151.971 27.7216C156.573 26.9723 161.275 26.5977 165.677 27.9089C167.978 28.5645 169.979 28.5645 172.18 28.3772C174.582 28.1898 177.083 28.4708 179.484 28.6581C179.884 28.6581 180.384 29.0327 180.584 29.4074C180.684 29.5947 180.284 30.2503 179.984 30.3439C178.784 30.9059 177.483 31.4678 176.282 31.9361C174.481 32.6853 172.581 33.3409 170.78 34.0902C170.38 34.2775 170.079 34.4648 169.379 34.9331C170.38 35.214 170.98 35.495 171.58 35.5886C176.082 36.1506 180.584 36.6189 185.086 37.2744C186.687 37.4618 188.188 37.8364 189.789 38.1173C190.189 38.211 190.689 38.3047 190.889 38.5856C191.189 38.8666 191.189 39.3349 191.389 39.7095C190.989 39.8031 190.389 40.0841 190.189 39.8968C187.888 38.211 185.086 38.492 182.385 38.1173C179.384 37.7427 176.282 37.5554 173.281 37.2744C171.58 37.0871 169.779 36.8062 168.179 36.4315C167.578 36.3379 167.078 35.8696 166.578 35.495C166.978 34.9331 167.278 34.1838 167.878 33.9965C169.879 33.0599 171.98 32.3107 174.081 31.4678C174.882 31.0932 175.682 30.7186 176.482 30.3439C176.582 30.1566 176.683 30.063 176.683 29.8756ZM153.472 33.3409C153.472 33.1536 153.372 32.9663 153.372 32.779C151.971 32.8726 150.57 32.8726 149.17 32.9663C148.87 32.9663 148.569 33.4346 148.269 33.7155C148.569 33.9028 148.97 34.1838 149.27 34.1838C150.67 33.9028 152.071 33.6219 153.472 33.3409Z" fill="#FFF3E0"/>
<path d="M117.255 30.8132C116.554 31.0005 115.754 31.1878 115.054 31.3751C113.553 31.6561 112.052 32.0307 110.551 32.3116C109.051 32.5926 108.45 33.7165 107.75 34.7467C107.45 35.3086 107.25 36.0579 106.85 36.5261C106.55 36.9008 105.849 36.9008 105.249 37.0881C105.149 36.6198 104.849 35.9642 105.049 35.5896C105.249 35.0277 105.849 34.4657 106.149 33.9038C106.349 33.6228 106.249 33.2482 106.349 32.8736C105.949 32.8736 105.349 32.7799 105.049 32.9672C104.249 33.5292 103.548 34.2784 102.748 34.934C102.348 35.3086 101.847 35.6832 101.347 35.8706C101.047 35.9642 100.647 35.8706 100.347 35.7769C100.447 35.4959 100.447 35.1213 100.547 34.8403C100.947 34.3721 101.347 34.0911 101.847 33.7165C102.648 33.1545 103.248 32.6863 102.748 31.4687C102.448 30.7195 103.348 30.4385 103.948 30.6258C105.449 31.1878 106.349 30.4385 107.35 29.6893C108.651 28.7527 110.251 28.1908 111.652 27.4415C112.452 26.9733 113.153 26.505 113.853 25.9431C114.453 25.5684 115.054 25.1002 115.754 24.8192C115.954 24.7255 116.354 24.9128 116.754 24.9128C116.654 25.1938 116.554 25.5684 116.354 25.7557C115.454 26.4113 114.553 26.9733 113.753 27.6289C113.053 28.1908 112.352 28.8464 111.752 29.502C111.552 29.6893 111.452 30.2512 111.652 30.4385C111.752 30.6258 112.352 30.7195 112.652 30.6258C115.654 29.6893 118.755 28.7527 121.757 27.8162C121.957 27.7225 122.257 27.6289 122.457 27.6289C122.857 27.7225 123.157 27.9098 123.558 28.0035C123.357 28.2844 123.257 28.5654 122.957 28.8464C121.657 29.9702 120.256 31.0005 118.955 32.1243C118.655 32.4053 118.555 32.9672 118.355 33.4355C118.855 33.4355 119.356 33.6228 119.856 33.5292C123.357 32.499 126.459 31.0941 128.96 28.4718C129.36 28.0971 129.76 27.6289 130.261 27.4415C130.561 27.2542 131.061 27.4415 131.561 27.5352C131.461 27.9098 131.461 28.4718 131.261 28.6591C128.76 30.3449 126.359 32.0307 123.758 33.5292C122.557 34.2784 121.056 34.653 119.656 35.1213C118.855 35.4023 118.055 35.4959 117.255 35.4023C116.654 35.3086 115.754 35.0277 115.654 34.5594C115.554 34.0911 115.954 33.3419 116.254 32.7799C116.654 32.1243 117.255 31.5624 117.755 31.0005C117.355 31.0941 117.355 30.9068 117.255 30.8132Z" fill="#FFF3E0"/>
<path d="M97.8458 29.7828C97.4457 29.7828 97.0455 29.6892 96.6453 29.7828C94.2442 30.2511 91.843 30.6257 89.542 31.1877C88.7416 31.375 87.9412 31.8432 87.2409 32.2179C85.6401 33.1544 84.0394 34.1846 82.4386 35.1212C82.0385 35.3085 81.4382 35.2148 80.8379 35.2148C81.038 34.7466 81.038 34.091 81.3381 33.7164C83.139 32.0306 84.9398 30.3448 86.9407 28.7526C88.6415 27.4414 90.5424 26.4112 92.3433 25.2874C92.6434 25.1 93.1436 25.2874 93.6439 25.2874C93.5438 25.662 93.6439 26.1303 93.4438 26.4112C93.0436 26.9732 92.4433 27.3478 92.0431 27.9097C91.843 28.1907 91.743 28.659 91.5429 29.0336C91.9431 29.1272 92.4433 29.4082 92.7434 29.3145C95.7449 28.5653 98.6462 27.7224 101.548 26.9732C101.748 26.8795 101.948 26.7858 102.148 26.7858C102.548 26.7858 102.848 26.8795 103.248 26.9732C103.148 27.3478 103.048 27.7224 102.848 28.0034C101.848 28.8463 100.747 29.6892 99.6467 30.5321C97.7458 31.9369 95.8449 33.2481 94.0441 34.7466C93.1436 35.4022 92.6434 36.4324 91.843 37.1816C91.4428 37.5562 90.7425 37.5562 90.1422 37.8372C90.1422 37.2753 89.9421 36.6197 90.2423 36.3387C91.9431 34.8402 93.7439 33.4354 95.5448 31.9369C96.3451 31.2813 97.2456 30.7194 98.146 30.1574C97.9459 30.0638 97.9459 29.9701 97.8458 29.7828Z" fill="#FFF3E0"/>
<path d="M33.916 32.4052C32.8155 33.1544 31.815 33.9973 30.7145 34.7466C29.714 35.4958 28.6135 36.1514 27.513 36.807C27.2129 36.9943 26.6126 36.9007 26.2124 36.9007C26.3124 36.526 26.3124 35.8705 26.6126 35.6831C27.6131 34.9339 28.8136 34.372 29.8141 33.5291C32.1152 31.656 34.3162 29.7828 36.6173 27.9097C37.3176 27.3478 38.118 26.7859 38.9183 26.3176C39.1184 26.2239 39.6187 26.2239 39.7187 26.3176C39.9188 26.5049 40.0189 26.9732 39.8188 27.1605C39.0184 28.659 38.118 30.1575 37.2175 31.656C37.0175 31.9369 36.8174 32.1242 36.7173 32.4989C36.6173 32.8735 36.7173 33.2481 36.7173 33.5291C37.1175 33.4354 37.5177 33.5291 37.8178 33.3418C40.9193 31.1877 43.9207 29.0336 47.0221 26.8795C47.4223 26.5986 47.9225 26.3176 48.4228 26.2239C48.6229 26.1303 49.2232 26.4112 49.2232 26.5049C49.3232 26.7859 49.1231 27.1605 48.923 27.3478C48.2227 28.0034 47.4223 28.5653 46.6219 29.1273C44.3209 30.6257 42.1198 32.1242 39.8188 33.5291C38.4181 34.372 37.0175 35.1212 35.5167 35.7768C35.0165 35.9641 34.3162 35.6831 33.7159 35.6831C33.816 35.1212 33.816 34.6529 33.916 34.091C34.016 33.6227 34.2161 33.1544 34.3162 32.7798C34.2161 32.5925 34.016 32.4989 33.916 32.4052Z" fill="#FFF3E0"/>
<path d="M60.5282 25.0063C60.028 25.2872 59.6278 25.6619 59.1276 25.8492C56.6264 26.5984 55.1257 28.6588 53.0247 29.97C52.9247 30.0637 52.9247 30.3446 52.8246 30.6256C53.1248 30.7193 53.5249 30.8129 53.725 30.7193C54.8255 30.251 55.9261 29.6891 57.0266 29.1271C57.3267 29.0335 57.5268 28.7525 57.8269 28.7525C58.2271 28.7525 58.6273 28.8462 59.0275 28.9398C58.9275 29.3144 58.9275 29.7827 58.6273 30.0637C57.927 30.8129 57.1266 31.3749 56.4263 32.0304C55.726 32.686 55.1257 33.3416 54.6255 34.0909C54.4254 34.3718 54.3253 34.8401 54.4254 35.0274C54.6255 35.3084 55.2257 35.4957 55.5259 35.402C56.4263 35.1211 57.3267 34.6528 58.2271 34.3718C58.5273 34.2782 58.8274 34.3718 59.1276 34.3718C59.0275 34.6528 59.0275 35.1211 58.8274 35.2147C56.8265 35.964 54.9256 36.9005 52.8246 37.3688C51.524 37.6498 50.8237 36.3386 51.524 35.3084C51.9242 34.6528 52.5245 34.1845 53.0247 33.6226C53.2248 33.3416 53.2248 32.967 53.3248 32.686C52.9247 32.686 52.5245 32.5924 52.2243 32.686C51.0238 33.3416 49.8232 33.9972 48.5226 34.6528C48.1224 34.8401 47.8223 35.1211 47.4221 35.1211C46.9219 35.1211 46.4216 34.9338 45.9214 34.8401C46.1215 34.3718 46.1215 33.8099 46.4216 33.6226C49.7232 31.0002 53.1248 28.4715 56.5263 26.0365C57.2267 25.4746 58.2271 25.1936 59.0275 24.819C59.3277 24.7253 59.7278 24.819 60.128 24.819C60.4282 24.7253 60.4282 24.819 60.5282 25.0063Z" fill="#FFF3E0"/>
<path d="M62.6293 36.7129C61.929 36.2447 61.0285 35.9637 60.5283 35.4018C59.828 34.4652 60.3282 33.5286 61.1286 32.6857C63.3296 30.3444 65.9308 28.6586 69.0323 27.5347C69.8327 27.2537 70.533 26.6918 71.3334 26.4108C71.9336 26.2235 73.0342 26.2235 73.3343 26.5045C73.7345 26.8791 73.6344 27.8157 73.3343 28.4712C72.5339 30.438 71.1333 32.1238 69.4325 33.3413C67.9318 34.4652 66.1309 35.2144 64.4301 36.0573C63.9299 36.3383 63.3296 36.3383 62.7293 36.432C62.8294 36.6193 62.7293 36.6193 62.6293 36.7129ZM64.13 34.9335C65.2305 34.3715 66.331 34.0906 67.1314 33.435C68.5321 32.2175 69.7326 30.8126 71.0332 29.4078C71.2333 29.2205 71.0332 28.7522 71.0332 28.4712C70.7331 28.5649 70.4329 28.5649 70.1328 28.7522C69.7326 28.9395 69.4325 29.2205 69.0323 29.2205C66.331 29.5015 64.7303 31.1873 63.2296 32.9667C63.0295 33.2477 62.9294 33.8096 63.0295 34.0906C63.2296 34.4652 63.7298 34.6525 64.13 34.9335Z" fill="#FFF3E0"/>
<path d="M33.4158 25.568C32.5154 26.4109 31.4149 27.0665 30.6145 28.003C28.6136 30.0635 26.6126 32.3112 24.6117 34.3716C24.0114 35.0272 23.4111 35.6828 22.6108 36.3384C22.4107 36.5257 21.9104 36.432 21.5103 36.5257C21.6103 36.1511 21.5103 35.6828 21.7103 35.4955C22.4107 34.6526 23.211 33.9033 24.0114 33.0604C25.7122 31.281 27.413 29.5015 29.1138 27.8157C30.0142 26.9728 31.0147 26.2236 32.1152 25.4743C32.4153 25.287 32.8155 25.287 33.2157 25.1934C33.3158 25.287 33.4158 25.3807 33.4158 25.568Z" fill="#FFF3E0"/>
<path d="M153.472 33.3412C152.071 33.6222 150.671 33.9968 149.27 34.1841C148.97 34.2778 148.57 33.9032 148.27 33.7159C148.57 33.4349 148.87 33.0603 149.17 32.9666C150.571 32.873 151.971 32.7793 153.372 32.7793C153.372 32.9666 153.472 33.1539 153.472 33.3412Z" fill="#1A130D"/>
<path d="M64.1301 34.934C63.7299 34.653 63.1296 34.4657 63.0296 34.1848C62.9295 33.9038 62.9295 33.3419 63.2297 33.0609C64.7304 31.2814 66.3311 29.502 69.0324 29.3147C69.4326 29.3147 69.7327 28.9401 70.1329 28.8464C70.433 28.7527 70.7332 28.6591 71.0333 28.5654C71.0333 28.8464 71.2334 29.3147 71.0333 29.502C69.7327 30.9068 68.5321 32.3117 67.1315 33.5292C66.3311 34.0911 65.2306 34.3721 64.1301 34.934Z" fill="#1A130D"/>
</svg>
