<svg width="128" height="62" viewBox="0 0 128 62" fill="none" xmlns="http://www.w3.org/2000/svg">
<path d="M-3 62.6344C-3 41.7562 -3 20.8781 -3 0C41.9528 0 86.9055 0 131.858 0C131.858 20.8781 131.858 41.728 131.858 62.6344C86.8488 62.6344 41.9244 62.6344 -3 62.6344ZM64.4291 39.0158C64.3725 39.0158 64.2874 38.9876 64.2307 38.9876C64.2024 38.705 64.1174 38.4225 64.1174 38.14C64.1174 36.9817 64.174 35.8234 64.174 34.665C64.174 33.7327 64.0607 33.648 63.1253 33.648C60.5461 33.648 57.9385 33.6762 55.3592 33.6762C54.3389 33.6762 54.2822 33.648 54.2822 32.6591C54.2822 25.0877 54.2822 17.5162 54.3105 9.9164C54.3105 9.18185 54.0554 8.95584 53.3752 8.95584C51.2778 8.98409 49.1803 8.98409 47.0829 8.95584C46.3177 8.92759 46.0909 9.23836 46.1193 9.97291C46.1476 11.9505 46.1476 13.9282 46.1476 15.934C46.1476 23.8163 46.1476 31.6986 46.1193 39.6091C46.1193 40.3154 46.3743 40.5414 47.0829 40.5414C55.2459 40.5132 63.4088 40.5132 71.5434 40.5414C72.2803 40.5414 72.6771 40.2589 72.9322 39.6091C73.414 38.3095 73.9242 37.0099 74.5194 35.7386C74.6611 35.4278 75.143 35.0888 75.4831 35.0606C78.8276 35.0041 82.1438 35.0041 85.4883 35.0323C85.7718 35.0323 86.1969 35.3713 86.3387 35.6538C86.9055 36.9534 87.4157 38.2813 87.8409 39.6374C88.0393 40.3437 88.4077 40.5132 89.0596 40.5132C91.3838 40.5132 93.708 40.5132 96.0605 40.5414C96.684 40.5414 96.8257 40.2872 96.6273 39.7221C96.0321 38.1965 95.4652 36.6427 94.87 35.0888C93.4812 31.4161 92.0924 27.7716 90.7036 24.0988C89.5131 20.9064 88.3227 17.7422 87.1323 14.5497C86.5371 12.9394 85.9135 11.329 85.2899 9.71864C85.0915 9.21011 84.8081 8.95584 84.1845 8.95584C81.8887 8.98409 79.5646 9.0406 77.2687 8.95584C76.3334 8.92759 75.9366 9.29486 75.6532 10.1142C73.9242 14.6345 72.1669 19.1548 70.4096 23.6751C68.5389 28.5626 66.6966 33.4502 64.826 38.3378C64.7409 38.5638 64.5709 38.7898 64.4291 39.0158ZM108.645 41.3325C110.771 41.4737 112.953 41.0782 115.051 40.2024C117.148 39.3266 118.877 38.027 119.982 35.9364C121.173 33.6762 121.371 31.2748 121.201 28.8169C121.059 26.8958 120.237 25.3137 118.82 24.0423C117.233 22.6015 115.277 21.8952 113.265 21.2454C111.819 20.7934 110.346 20.3131 109.013 19.635C107.341 18.7875 107.341 16.7251 108.928 15.6798C110.487 14.6627 112.131 14.8322 113.775 15.3973C114.569 15.6798 115.277 16.1883 116.043 16.5556C116.383 16.7251 116.751 17.0641 117.063 16.4426C117.942 14.691 118.82 12.9676 119.699 11.216C119.897 10.7922 119.784 10.5379 119.359 10.3684C118.622 10.0859 117.885 9.74689 117.148 9.46437C114.597 8.50381 111.961 8.02353 109.24 8.16479C106.463 8.30605 103.968 9.26661 102.041 11.3007C99.6317 13.8434 98.9515 16.9229 99.3483 20.3131C99.5751 22.3755 100.34 24.2118 102.183 25.3137C103.458 26.0765 104.847 26.6415 106.264 27.15C108.05 27.7998 110.005 28.0258 111.621 29.1559C112.5 29.7775 113.038 30.5968 112.811 31.7268C112.613 32.7722 111.99 33.5632 111.026 33.987C109.637 34.5803 108.191 34.5238 106.746 34.213C104.932 33.8175 103.458 32.7722 102.013 31.6421C101.616 31.3313 101.417 31.3313 101.162 31.7833C100.199 33.5915 99.2066 35.3996 98.2996 37.2642C98.1862 37.462 98.3279 37.9988 98.5264 38.14C101.531 40.0894 104.819 41.276 108.645 41.3325ZM36.4541 28.1671C36.4541 24.3249 36.4541 20.4826 36.4258 16.6403C36.4258 16.0753 36.6525 15.8775 37.2194 15.8775C38.9483 15.9058 40.6773 15.8775 42.4063 15.9058C43.0015 15.9058 43.2566 15.7363 43.2566 15.1147C43.2282 13.3349 43.2566 11.555 43.2566 9.77514C43.2566 9.18185 43.0298 8.95584 42.4063 8.95584C35.6889 8.98409 28.9431 8.98409 22.2257 8.95584C21.6021 8.95584 21.4321 9.18185 21.4604 9.77514C21.4888 11.4703 21.4888 13.1654 21.4604 14.8605C21.4604 15.708 21.5455 15.8493 22.4241 15.8493C24.0964 15.8493 25.797 15.8493 27.4692 15.8493C27.9794 15.8493 28.2912 15.9623 28.2912 16.5838C28.2629 24.2401 28.2629 31.8963 28.2345 39.5243C28.2345 40.2306 28.4896 40.4567 29.1982 40.4567C31.2389 40.4284 33.2797 40.4284 35.3204 40.4284C36.3974 40.4284 36.4258 40.4284 36.4258 39.3548C36.4541 35.6821 36.4541 31.9246 36.4541 28.1671ZM18.6828 24.7486C18.6828 19.8046 18.6544 14.8605 18.6828 9.9164C18.6828 9.26661 18.4844 8.98409 17.8041 8.98409C15.65 9.01234 13.4959 9.01234 11.3701 8.98409C10.7182 8.98409 10.5198 9.23836 10.5198 9.8599C10.5482 12.2613 10.5198 14.6627 10.5198 17.0359C10.5198 24.5509 10.5198 32.0659 10.5198 39.6091C10.5198 40.1459 10.5765 40.5132 11.2568 40.5132C13.4959 40.4849 15.7067 40.4849 17.9458 40.5132C18.5127 40.5132 18.7111 40.2872 18.7111 39.7221C18.6544 34.7215 18.6828 29.7492 18.6828 24.7486ZM40.9324 49.7515C40.9891 49.7515 41.0741 49.7515 41.1308 49.7515C41.2158 50.034 41.3575 50.2883 41.3859 50.5708C41.5843 51.7009 41.726 52.8027 41.9244 53.9328C42.0378 54.6108 42.4629 54.8934 43.1148 54.6391C43.3132 54.5543 43.455 54.0176 43.4266 53.7068C43.1148 51.6161 42.6897 49.5538 42.4063 47.4631C42.2929 46.6721 41.9244 46.5026 41.2158 46.5026C40.4222 46.5026 40.2522 47.0676 40.0537 47.6326C39.6853 48.678 39.3168 49.7233 38.92 50.7403C38.8633 50.9099 38.6649 51.0229 38.5515 51.1641C38.4382 51.0229 38.2681 50.8816 38.1831 50.7121C37.7012 49.5255 37.2194 48.3389 36.7659 47.1241C36.5108 46.4178 35.8873 46.3896 35.3487 46.5026C35.0653 46.5591 34.6968 46.9263 34.6401 47.2089C34.2717 49.4125 33.9599 51.6444 33.6198 53.848C33.5347 54.3848 33.7332 54.5826 34.2717 54.6108C34.8952 54.6391 35.1787 54.4131 35.2637 53.7915C35.3771 52.8027 35.5471 51.8139 35.7172 50.8251C35.7739 50.5426 35.9156 50.2883 36.0857 49.8363C36.3124 50.1753 36.3974 50.2883 36.4541 50.4296C36.9076 51.5879 37.3044 52.7462 37.7863 53.8763C37.928 54.1871 38.2398 54.5261 38.5515 54.5826C38.75 54.6108 39.1184 54.2153 39.2601 53.9328C39.6003 53.2265 39.827 52.492 40.1104 51.7857C40.3939 51.1359 40.649 50.4578 40.9324 49.7515ZM110.062 51.3336C109.977 51.3619 109.892 51.3901 109.807 51.4184C109.609 51.1924 109.41 50.9664 109.24 50.7403C108.305 49.4973 107.37 48.2259 106.406 46.9828C105.981 46.4178 105.329 46.4178 104.79 46.6438C104.564 46.7286 104.393 47.2936 104.393 47.6609C104.365 49.7515 104.393 51.8422 104.393 53.9328C104.393 54.4413 104.507 54.7521 105.074 54.7239C105.584 54.6956 106.066 54.6956 106.066 53.9611C106.037 52.6897 106.066 51.4466 106.066 50.1753C106.066 50.0058 106.094 49.808 106.122 49.6385C106.236 49.5538 106.377 49.469 106.491 49.3843C106.633 49.6668 106.746 49.9493 106.916 50.2036C107.88 51.5596 108.872 52.9157 109.864 54.2718C110.261 54.8369 110.884 54.8651 111.394 54.6956C111.621 54.6108 111.791 54.0458 111.819 53.6785C111.876 51.5314 111.848 49.4125 111.848 47.2654C111.848 46.6721 111.479 46.5873 111.026 46.6156C110.544 46.6156 110.034 46.6156 110.062 47.2936C110.062 48.0847 110.09 48.904 110.09 49.695C110.062 50.1753 110.062 50.7686 110.062 51.3336ZM51.4478 49.6668C51.5329 49.6385 51.5895 49.6103 51.6746 49.582C52.1564 50.2036 52.6383 50.7968 53.0917 51.4184C53.8003 52.3789 54.4522 53.3678 55.2459 54.2436C55.5293 54.5543 56.1528 54.5826 56.6347 54.6108C56.7481 54.6108 56.9748 53.9893 56.9748 53.6785C57.0032 51.5596 56.9748 49.4408 57.0031 47.3501C57.0031 46.7003 56.7197 46.5308 56.1812 46.5308C55.6427 46.5308 55.3592 46.7568 55.3876 47.3219C55.4159 48.4519 55.4159 49.582 55.4159 50.7121C55.4159 50.9381 55.3876 51.1924 55.3592 51.4184C55.3025 51.4466 55.2175 51.4749 55.1608 51.5031C54.9624 51.3054 54.764 51.1076 54.594 50.8816C53.6019 49.582 52.6099 48.2542 51.6179 46.9263C51.1927 46.3896 50.5692 46.4178 50.059 46.6156C49.8322 46.7003 49.6905 47.2089 49.6622 47.5479C49.6338 49.6668 49.6338 51.7857 49.6055 53.8763C49.6055 54.4413 49.8322 54.6956 50.3708 54.6673C50.9093 54.6673 51.3628 54.6391 51.3345 53.9045C51.3061 52.7462 51.3345 51.5879 51.3345 50.4296C51.3628 50.1753 51.4195 49.921 51.4478 49.6668ZM74.9162 49.582C75.0013 49.5538 75.0863 49.5255 75.1997 49.469C75.3697 49.6385 75.5681 49.808 75.6815 49.9775C76.7019 51.3901 77.7506 52.8027 78.7709 54.2436C79.1394 54.7521 79.7063 54.7239 80.1598 54.5826C80.3865 54.4978 80.6133 54.0176 80.6416 53.6785C80.6983 51.5596 80.67 49.4408 80.6983 47.3501C80.6983 46.7286 80.4432 46.5026 79.8763 46.5026C79.3378 46.5026 78.9977 46.6721 79.026 47.3219C79.0544 48.4519 79.0544 49.582 79.026 50.7121C79.026 50.9664 78.941 51.1924 78.8276 51.6444C78.1757 50.7686 77.6372 50.0623 77.127 49.3843C76.5318 48.5649 75.9649 47.7456 75.3414 46.9546C74.8879 46.3896 74.236 46.4178 73.6408 46.5873C73.4707 46.6438 73.3007 47.0111 73.3007 47.2654C73.2723 49.3843 73.3007 51.4749 73.3007 53.5938C73.3007 53.735 73.3007 53.9045 73.3007 54.0458C73.3573 54.7239 73.8675 54.6673 74.3494 54.6673C74.8029 54.6391 75.0296 54.4413 74.9729 53.9328C74.9162 53.1135 74.9446 52.2942 74.9446 51.4749C74.9162 50.8533 74.9162 50.2036 74.9162 49.582ZM101.417 50.147C100.964 50.1188 100.539 50.1188 100.085 50.147C99.5467 50.147 99.405 50.5143 99.405 50.9664C99.405 51.4466 99.6034 51.6727 100.114 51.5879C100.454 51.5314 100.794 51.5879 101.106 51.6161C101.616 51.6444 101.729 51.9834 101.417 52.2942C100.964 52.6897 100.454 53.1417 99.9152 53.2548C98.5547 53.5655 97.506 52.8027 96.9108 51.5031C96.4006 50.3448 96.9958 48.8192 97.7894 48.3389C98.8948 47.6326 100.482 47.7456 101.446 48.678C101.786 49.017 102.013 49.1582 102.381 48.7627C102.693 48.3954 102.92 48.1129 102.494 47.6609C101.162 46.2483 98.583 46.107 97.1092 47.0393C94.4449 48.7062 94.3032 51.9552 96.7407 53.9328C98.7814 55.5997 102.154 54.8086 103.203 52.4355C103.912 50.7968 103.543 50.2036 101.814 50.2036C101.672 50.1753 101.559 50.147 101.417 50.147ZM116.893 54.7804C119.274 54.8369 121.201 52.9722 121.229 50.5991C121.258 48.3107 119.302 46.3048 116.921 46.3613C114.455 46.4178 112.755 47.9434 112.641 50.4296C112.5 52.8027 114.455 54.7239 116.893 54.7804ZM22.4524 54.6673C23.3594 54.6391 23.4728 54.5261 23.2177 53.9045C22.2824 51.6727 21.347 49.4408 20.4117 47.2089C20.2133 46.7003 19.9015 46.5026 19.3347 46.5026C18.8245 46.5308 18.3993 46.5873 18.1726 47.1806C17.2656 49.4408 16.3303 51.7009 15.3949 53.9611C15.1965 54.4413 15.3949 54.6391 15.8484 54.6673C16.5287 54.7239 17.0672 54.5826 17.2372 53.7915C17.379 53.0852 17.8041 52.831 18.541 52.944C19.0512 53.0287 19.5898 53.0005 20.0999 52.944C20.8085 52.8592 21.2337 53.057 21.3754 53.8198C21.5171 54.3566 21.8005 54.8086 22.4524 54.6673ZM89.6548 50.6273H89.6832C89.6832 51.7574 89.6832 52.8875 89.6832 54.0176C89.6832 54.5261 89.9099 54.6956 90.3918 54.6673C91.4121 54.6391 92.4042 54.6391 93.4245 54.6673C93.9914 54.6956 94.3032 54.5261 94.3315 53.9045C94.3315 53.283 94.0481 53.0852 93.4812 53.1135C93.1694 53.1417 92.8577 53.1135 92.5459 53.1135C91.4405 53.1135 91.4121 53.057 91.4405 51.9834C91.4405 51.3901 91.6389 51.1076 92.2624 51.1359C92.6876 51.1641 93.0844 51.0794 93.5096 51.1359C94.1048 51.2206 94.3315 50.9381 94.3315 50.4013C94.3315 49.8928 94.0764 49.6668 93.5379 49.695C93.1694 49.7233 92.801 49.6668 92.4608 49.7233C91.7523 49.808 91.4688 49.4973 91.4688 48.8192C91.4688 48.0847 91.7806 47.8587 92.4608 47.9434C92.801 47.9717 93.1411 47.9434 93.4812 47.9717C94.0764 48.0282 94.3315 47.7174 94.3315 47.1524C94.3315 46.5873 93.9347 46.5026 93.4812 46.5026C92.4608 46.5026 91.4688 46.5026 90.4485 46.5026C89.8532 46.5026 89.6265 46.7568 89.6548 47.3501C89.6832 48.4519 89.6548 49.5538 89.6548 50.6273ZM44.362 50.6556C44.3903 51.7574 44.3903 52.8592 44.3903 53.9611C44.3903 54.4131 44.5037 54.6673 45.0422 54.6673C46.1193 54.6391 47.1963 54.6674 48.3017 54.6956C48.7552 54.6956 49.0103 54.5543 48.9819 54.0741C48.9819 53.622 49.0103 53.1418 48.3584 53.1418C47.8482 53.1418 47.338 53.1417 46.7995 53.17C46.1476 53.1982 46.0059 52.8027 46.0342 52.2659C46.0626 51.7574 46.0059 51.1641 46.7995 51.1641C47.3097 51.1641 47.8199 51.1641 48.3584 51.1641C48.9253 51.1924 49.0386 50.7686 48.9536 50.4013C48.8969 50.1753 48.6135 49.8645 48.3867 49.808C47.9616 49.695 47.5081 49.7515 47.0829 49.7798C46.4027 49.808 46.0909 49.5538 46.0909 48.8475C46.0909 48.1412 46.431 47.9434 47.0546 47.9999C47.4797 48.0282 47.8765 47.9999 48.3017 47.9999C48.8686 48.0282 48.9819 47.6609 49.0103 47.2089C49.0386 46.7003 48.7552 46.5308 48.2734 46.5308C47.253 46.5308 46.261 46.5591 45.2406 46.5308C44.617 46.5308 44.362 46.7851 44.362 47.4066C44.362 48.4802 44.362 49.582 44.362 50.6556ZM10.3498 50.5991C10.3498 51.7009 10.3498 52.8027 10.3498 53.9045C10.3498 54.3848 10.4348 54.6673 11.03 54.6391C11.9087 54.6108 12.022 54.5826 12.022 53.622C12.022 53.0005 11.7953 52.2094 12.1071 51.8422C12.4189 51.4749 13.2408 51.5031 13.836 51.3901C15.0548 51.1641 15.8201 50.2318 15.8201 49.017C15.8201 47.5761 15.1398 46.7568 13.7793 46.5873C12.9007 46.5026 12.022 46.5308 11.1434 46.5026C10.5198 46.4743 10.3214 46.7568 10.3498 47.3501C10.3781 48.4519 10.3498 49.5255 10.3498 50.5991ZM25.9954 51.5596C25.882 51.5596 25.797 51.5879 25.6836 51.5879C25.4569 51.0229 25.2301 50.4861 25.0034 49.921C24.6349 48.9605 24.2948 47.9999 23.9263 47.0393C23.7279 46.5591 22.9626 46.3048 22.4808 46.5591C22.3391 46.6438 22.1974 47.0393 22.254 47.2089C23.1327 49.4973 24.068 51.8139 25.0317 54.0741C25.1451 54.3283 25.5986 54.5826 25.9104 54.6108C26.1371 54.6391 26.5339 54.3283 26.6189 54.1023C27.5826 51.8139 28.4896 49.469 29.3683 47.1524C29.4249 46.9828 29.3399 46.6721 29.1982 46.5591C28.773 46.22 27.8377 46.5591 27.6393 47.0676C27.1575 48.3107 26.704 49.582 26.2505 50.8251C26.1938 51.1076 26.0804 51.3336 25.9954 51.5596ZM59.5824 51.3054C59.5541 52.1247 59.5824 52.944 59.5541 53.7633C59.5257 54.2436 59.4974 54.6391 60.1776 54.6673C61.2263 54.6673 61.3114 54.6108 61.3114 53.8198C61.3114 52.1812 61.3397 50.5426 61.3114 48.8757C61.3114 48.1977 61.4531 47.8304 62.2184 47.9434C62.7285 48.0282 62.8986 47.7174 62.9269 47.2654C62.9553 46.7568 62.7285 46.5026 62.19 46.5026C61.0279 46.5308 59.8658 46.5026 58.7038 46.5308C58.2503 46.5308 57.8535 46.5873 57.8818 47.1806C57.9101 47.7456 58.1085 48.0564 58.7321 47.9434C59.3273 47.8587 59.5824 48.1412 59.5541 48.7345C59.5541 49.6103 59.5824 50.4578 59.5824 51.3054ZM84.553 50.5991C84.5814 50.5991 84.5814 50.5991 84.6097 50.5991C84.6097 51.7009 84.638 52.8027 84.6097 53.9045C84.5814 54.5261 84.8364 54.7239 85.46 54.6673C86.3103 54.6108 87.1606 54.5543 88.0109 54.6673C88.7762 54.7521 88.8329 54.3848 88.8612 53.8198C88.8896 53.2265 88.5778 53.057 88.0393 53.1418C87.6991 53.17 87.359 53.1135 87.0472 53.1418C86.452 53.17 86.282 52.9157 86.3103 52.3507C86.3387 50.6556 86.3103 48.9605 86.367 47.2654C86.367 46.6438 86.0269 46.5308 85.545 46.5308C85.0349 46.5308 84.638 46.6156 84.638 47.2936C84.553 48.3954 84.553 49.4973 84.553 50.5991ZM64.1174 50.5708C64.089 51.7009 64.1174 52.831 64.089 53.9611C64.089 54.4413 64.2307 54.7239 64.7693 54.6673C65.2511 54.6108 65.8463 54.7804 65.8463 53.9611C65.818 51.7292 65.8463 49.4973 65.8463 47.2371C65.8463 46.5591 65.4212 46.5026 64.911 46.5026C64.4008 46.5026 64.089 46.6438 64.089 47.2654C64.1457 48.3672 64.1174 49.469 64.1174 50.5708ZM32.3727 50.6838C32.3727 49.5255 32.3727 48.3672 32.3727 47.2089C32.3727 46.5873 31.9759 46.5591 31.4657 46.5591C30.9555 46.5591 30.6721 46.7003 30.7004 47.2654C30.7004 49.469 30.7287 51.7009 30.7004 53.9045C30.7004 54.5261 30.9271 54.7239 31.5224 54.6956C32.0609 54.6956 32.401 54.6108 32.3727 53.9328C32.3443 52.831 32.3727 51.7574 32.3727 50.6838ZM71.9685 50.5991C71.9685 49.5538 71.9118 48.4802 71.9685 47.4349C72.0252 46.7568 71.7134 46.5591 71.1182 46.5308C70.523 46.5026 70.2112 46.7003 70.2396 47.3784C70.2679 49.5538 70.2679 51.7009 70.2396 53.8763C70.2396 54.4696 70.438 54.6673 71.0048 54.6673C71.5717 54.6673 72.0252 54.6391 71.9968 53.848C71.9402 52.7462 71.9685 51.6727 71.9685 50.5991Z" fill="#1A130D"/>
<path d="M-3 62.6344C41.9244 62.6344 86.8488 62.6344 131.858 62.6344C131.858 41.728 131.858 20.8499 131.858 0C131.915 0.197763 132 0.423778 132 0.621541C132 9.18185 132 17.7422 132 26.3025C132 38.479 132 50.6273 132 62.8039C87.2173 62.8039 42.4629 62.8039 -2.31976 62.8039C-2.5465 62.7756 -2.77325 62.6909 -3 62.6344Z" fill="#FFF3E0"/>
<path d="M64.429 39.0154C64.5707 38.7894 64.7125 38.5634 64.8258 38.3091C66.6965 33.4216 68.5388 28.534 70.4095 23.6464C72.1385 19.1261 73.9241 14.6058 75.653 10.0855C75.9648 9.29447 76.3333 8.89894 77.2686 8.92719C79.5645 9.01195 81.8886 8.9837 84.1844 8.92719C84.7797 8.92719 85.0914 9.18146 85.2898 9.68999C85.9134 11.3004 86.5086 12.9107 87.1322 14.5211C88.3226 17.7135 89.513 20.8777 90.7034 24.0702C92.0923 27.7429 93.4811 31.3874 94.8699 35.0602C95.4651 36.614 96.032 38.1396 96.6272 39.6935C96.854 40.2585 96.7123 40.5128 96.0604 40.5128C93.7362 40.4845 91.412 40.4845 89.0595 40.4845C88.4076 40.4845 88.0675 40.315 87.8407 39.6087C87.4439 38.2526 86.9054 36.9248 86.3385 35.6252C86.2252 35.3427 85.8 35.0037 85.4882 35.0037C82.1437 34.9754 78.8275 34.9754 75.483 35.0319C75.1429 35.0319 74.661 35.3709 74.5193 35.71C73.9241 36.9813 73.4423 38.2809 72.9321 39.5805C72.677 40.2303 72.3085 40.5128 71.5432 40.5128C63.3803 40.4845 55.2174 40.4845 47.0828 40.5128C46.3742 40.5128 46.1191 40.2585 46.1191 39.5805C46.1475 31.6982 46.1475 23.8159 46.1475 15.9054C46.1475 13.9278 46.1758 11.9501 46.1191 9.94426C46.1191 9.20971 46.3175 8.92719 47.0828 8.92719C49.1802 8.95545 51.2777 8.95545 53.3751 8.92719C54.0553 8.92719 54.3104 9.15321 54.3104 9.88776C54.2821 17.4593 54.2821 25.0308 54.2821 32.6305C54.2821 33.6193 54.3387 33.6476 55.3591 33.6476C57.9384 33.6193 60.546 33.6193 63.1252 33.6193C64.0606 33.6193 64.1739 33.7323 64.1739 34.6364C64.1739 35.7947 64.1173 36.953 64.1173 38.1114C64.1173 38.3939 64.1739 38.6764 64.2306 38.9589C64.2873 38.9872 64.3723 39.0154 64.429 39.0154ZM80.6415 18.9566C80.5565 18.9566 80.4998 18.9566 80.4148 18.9566C80.3014 19.2109 80.188 19.4369 80.103 19.6912C79.7345 20.793 79.3661 21.8948 78.9692 22.9684C78.374 24.6635 77.8072 26.3868 77.2119 28.082C77.0419 28.6187 77.2686 28.873 77.8072 28.873C79.5928 28.873 81.3784 28.873 83.1641 28.8448C83.6743 28.8448 83.8727 28.647 83.6743 28.1102C82.8806 25.7936 82.1437 23.4769 81.3501 21.1603C81.1517 20.4257 80.8683 19.6912 80.6415 18.9566Z" fill="#FFF3E0"/>
<path d="M108.644 41.3326C104.818 41.2478 101.53 40.0612 98.4975 38.1119C98.2991 37.9989 98.1574 37.4621 98.2708 37.2361C99.2061 35.3997 100.17 33.5916 101.133 31.7552C101.36 31.3032 101.587 31.3314 101.984 31.6139C103.401 32.7158 104.875 33.7893 106.717 34.1849C108.163 34.4956 109.608 34.5521 110.997 33.9588C111.989 33.5351 112.584 32.744 112.783 31.6987C113.009 30.5686 112.471 29.7493 111.592 29.1278C109.977 27.9977 108.049 27.7717 106.235 27.1219C104.846 26.6134 103.429 26.0483 102.154 25.2855C100.312 24.1837 99.5462 22.3473 99.3195 20.285C98.951 16.8947 99.6313 13.8153 102.012 11.2726C103.939 9.23847 106.434 8.27791 109.211 8.13665C111.932 7.99539 114.568 8.44742 117.119 9.43624C117.856 9.71875 118.593 10.0295 119.33 10.3403C119.755 10.5098 119.897 10.7641 119.67 11.1878C118.791 12.9395 117.884 14.6628 117.034 16.4144C116.722 17.036 116.354 16.6687 116.014 16.5275C115.249 16.1602 114.54 15.6516 113.746 15.3691C112.131 14.8041 110.487 14.6063 108.9 15.6516C107.341 16.6687 107.312 18.7593 108.985 19.6069C110.345 20.2849 111.791 20.737 113.236 21.2173C115.249 21.8671 117.204 22.5733 118.791 24.0142C120.209 25.3138 121.059 26.8959 121.172 28.7888C121.342 31.2467 121.116 33.6763 119.954 35.9082C118.876 37.9706 117.119 39.2985 115.022 40.1743C112.953 41.0783 110.742 41.5021 108.644 41.3326Z" fill="#FFF3E0"/>
<path d="M36.4537 28.1675C36.4537 31.925 36.4537 35.6825 36.4537 39.44C36.4537 40.4853 36.4253 40.5136 35.3483 40.5136C33.3075 40.5136 31.2668 40.4853 29.2261 40.5418C28.5175 40.5418 28.2624 40.3158 28.2624 39.6095C28.2907 31.9533 28.2907 24.297 28.3191 16.669C28.3191 16.0475 28.0073 15.9345 27.4971 15.9345C25.8249 15.9345 24.1242 15.9345 22.452 15.9345C21.5733 15.9345 21.4883 15.7932 21.4883 14.9457C21.5166 13.2505 21.5166 11.5554 21.4883 9.86032C21.46 9.26703 21.63 9.04102 22.2536 9.04102C28.971 9.04102 35.7167 9.04102 42.4341 9.04102C43.0293 9.04102 43.2844 9.29528 43.2844 9.86032C43.2844 11.6402 43.2561 13.4201 43.2844 15.1999C43.2844 15.8215 43.0293 15.991 42.4341 15.991C40.7052 15.9627 38.9762 15.991 37.2473 15.9627C36.6804 15.9627 36.4537 16.1322 36.4537 16.7255C36.4537 20.483 36.4253 24.3253 36.4537 28.1675Z" fill="#FFF3E0"/>
<path d="M18.6825 24.748C18.6825 29.7486 18.6825 34.7491 18.6825 39.7497C18.6825 40.3147 18.4841 40.5408 17.9172 40.5408C15.6781 40.5408 13.4673 40.5408 11.2281 40.5408C10.5479 40.5408 10.4912 40.1452 10.4912 39.6367C10.4912 32.1217 10.4912 24.6067 10.4912 17.0635C10.4912 14.6621 10.5196 12.2607 10.4912 9.8875C10.4912 9.26596 10.6896 8.98344 11.3415 9.01169C13.4956 9.03994 15.6497 9.03994 17.7755 9.01169C18.4557 9.01169 18.6541 9.29421 18.6541 9.944C18.6541 14.8598 18.6541 19.8039 18.6825 24.748Z" fill="#FFF3E0"/>
<path d="M40.9319 49.7511C40.6485 50.4574 40.3934 51.1354 40.1099 51.8417C39.8265 52.548 39.5998 53.3108 39.2596 53.9889C39.1179 54.2714 38.7494 54.6669 38.551 54.6386C38.2676 54.5821 37.9275 54.2431 37.7858 53.9323C37.3039 52.8023 36.8788 51.6157 36.4536 50.4856C36.3969 50.3444 36.3119 50.2314 36.0852 49.8923C35.9151 50.3444 35.745 50.5986 35.7167 50.8811C35.5466 51.87 35.4049 52.8588 35.2632 53.8476C35.1782 54.4409 34.8947 54.6669 34.2712 54.6669C33.7043 54.6386 33.5342 54.4409 33.6193 53.9041C33.9594 51.7005 34.2428 49.4686 34.6396 47.2649C34.6963 46.9824 35.0648 46.6151 35.3482 46.5586C35.8868 46.4456 36.482 46.4456 36.7654 47.1802C37.2189 48.395 37.7007 49.5816 38.1826 50.7681C38.2393 50.9376 38.4093 51.0507 38.551 51.2202C38.6928 51.0789 38.8628 50.9659 38.9195 50.7964C39.3163 49.7511 39.6848 48.734 40.0532 47.6887C40.2517 47.1236 40.4501 46.5586 41.2153 46.5586C41.8956 46.5586 42.2924 46.6999 42.4058 47.5192C42.6892 49.6098 43.1143 51.6722 43.4261 53.7628C43.4828 54.0736 43.3127 54.6386 43.1143 54.6951C42.4341 54.9494 42.0089 54.6386 41.9239 53.9889C41.7255 52.8588 41.5838 51.757 41.3854 50.6269C41.3287 50.3444 41.2153 50.0618 41.1303 49.8076C41.0736 49.7511 40.9886 49.7511 40.9319 49.7511Z" fill="#FFF3E0"/>
<path d="M110.063 51.3339C110.063 50.7689 110.063 50.1756 110.063 49.6106C110.063 48.8195 110.035 48.0002 110.035 47.2092C110.035 46.5029 110.517 46.5311 110.998 46.5311C111.452 46.5311 111.82 46.5876 111.82 47.1809C111.792 49.3281 111.82 51.4469 111.792 53.5941C111.792 53.9331 111.622 54.5264 111.367 54.6112C110.857 54.7807 110.233 54.7524 109.836 54.1874C108.844 52.8313 107.881 51.4752 106.889 50.1191C106.719 49.8648 106.605 49.5823 106.464 49.2998C106.35 49.3846 106.208 49.4693 106.095 49.5541C106.067 49.7236 106.038 49.9213 106.038 50.0909C106.038 51.3622 106.01 52.6053 106.038 53.8766C106.038 54.6111 105.557 54.6394 105.046 54.6394C104.479 54.6677 104.366 54.3569 104.366 53.8484C104.366 51.7577 104.338 49.6671 104.366 47.5764C104.366 47.2374 104.536 46.6724 104.763 46.5594C105.301 46.3334 105.953 46.3616 106.379 46.8984C107.342 48.1415 108.249 49.4128 109.213 50.6559C109.383 50.8819 109.61 51.1079 109.78 51.3339C109.893 51.3904 109.978 51.3622 110.063 51.3339Z" fill="#FFF3E0"/>
<path d="M51.4472 49.6667C51.4188 49.9209 51.3622 50.1752 51.3622 50.4295C51.3622 51.5878 51.3338 52.7461 51.3622 53.9045C51.3905 54.639 50.9087 54.6673 50.3985 54.6673C49.8316 54.6673 49.6049 54.4412 49.6332 53.8762C49.6616 51.7573 49.6332 49.6384 49.6899 47.5478C49.6899 47.237 49.86 46.7002 50.0867 46.6155C50.5969 46.4177 51.2488 46.3612 51.6456 46.9262C52.6376 48.2258 53.6296 49.5537 54.6217 50.8815C54.7917 51.1075 54.9901 51.3053 55.1885 51.503C55.2452 51.4748 55.3302 51.4465 55.3869 51.4183C55.4153 51.1923 55.4436 50.938 55.4436 50.712C55.4436 49.5819 55.4436 48.4518 55.4153 47.3218C55.4153 46.7567 55.6704 46.5307 56.2089 46.5307C56.7474 46.5307 57.0592 46.7285 57.0309 47.35C57.0025 49.4689 57.0309 51.5878 57.0025 53.6784C57.0025 54.0175 56.7758 54.6108 56.6624 54.6108C56.1806 54.6108 55.557 54.5542 55.2736 54.2435C54.4799 53.3677 53.828 52.3506 53.1195 51.4183C52.666 50.7968 52.1841 50.1752 51.7023 49.5819C51.5889 49.6102 51.5039 49.6384 51.4472 49.6667Z" fill="#FFF3E0"/>
<path d="M74.9163 49.5815C74.9163 50.203 74.9163 50.8528 74.9163 51.4743C74.9163 52.2936 74.8879 53.1129 74.9446 53.9322C74.973 54.469 74.7746 54.6385 74.3211 54.6668C73.8392 54.695 73.3574 54.7233 73.2724 54.0453C73.244 53.904 73.2724 53.7345 73.2724 53.5932C73.2724 51.4743 73.244 49.3837 73.2724 47.2648C73.2724 47.0388 73.4424 46.6433 73.6125 46.5868C74.2077 46.4172 74.8879 46.389 75.3131 46.954C75.9366 47.7451 76.5035 48.5644 77.0987 49.3837C77.6089 50.09 78.1474 50.768 78.7993 51.6438C78.8844 51.1918 78.9694 50.9658 78.9977 50.7115C79.0261 49.5815 79.0261 48.4514 78.9977 47.3213C78.9694 46.6998 79.3095 46.502 79.848 46.502C80.4149 46.502 80.6984 46.728 80.67 47.3496C80.6417 49.4685 80.67 51.5873 80.6133 53.678C80.6133 53.9887 80.3866 54.4973 80.1315 54.582C79.678 54.7515 79.1111 54.7798 78.7427 54.243C77.7223 52.8304 76.7019 51.3896 75.6532 49.977C75.5115 49.7792 75.3131 49.638 75.1714 49.4685C75.0863 49.525 75.0013 49.5532 74.9163 49.5815Z" fill="#FFF3E0"/>
<path d="M101.418 50.1468C101.56 50.1468 101.674 50.1468 101.815 50.1468C103.544 50.1185 103.913 50.7401 103.204 52.3787C102.155 54.7518 98.7826 55.5429 96.7418 53.876C94.3326 51.8984 94.4744 48.6494 97.1103 46.9826C98.5842 46.0503 101.163 46.1915 102.496 47.6041C102.921 48.0844 102.694 48.3669 102.382 48.7059C102.014 49.1297 101.759 48.9602 101.447 48.6212C100.483 47.6889 98.8959 47.5759 97.7905 48.2821C97.0253 48.7624 96.4017 50.288 96.9119 51.4464C97.5071 52.7459 98.5558 53.5087 99.9163 53.198C100.455 53.085 100.993 52.6329 101.418 52.2374C101.73 51.9549 101.617 51.6159 101.107 51.5594C100.767 51.5311 100.426 51.4746 100.115 51.5311C99.6045 51.6159 99.4061 51.3899 99.4061 50.9096C99.4061 50.4293 99.5478 50.0903 100.086 50.0903C100.54 50.1468 100.993 50.1468 101.418 50.1468Z" fill="#FFF3E0"/>
<path d="M116.892 54.7806C114.426 54.7241 112.498 52.8029 112.64 50.4298C112.782 47.9719 114.454 46.418 116.92 46.3615C119.301 46.305 121.257 48.3109 121.228 50.5993C121.2 52.9725 119.273 54.8371 116.892 54.7806ZM119.528 50.5993C119.584 48.9042 118.167 47.8589 116.892 47.8589C115.389 47.8871 114.199 49.1019 114.199 50.5993C114.199 52.0684 115.503 53.368 116.892 53.3397C118.479 53.3397 119.584 52.1814 119.528 50.5993Z" fill="#FFF3E0"/>
<path d="M22.4532 54.6672C21.8013 54.8085 21.5179 54.3564 21.4045 53.8479C21.2345 53.1134 20.8376 52.9156 20.1291 52.9721C19.6189 53.0286 19.0803 53.0568 18.5702 52.9721C17.8332 52.8591 17.4364 53.1134 17.2664 53.8197C17.0963 54.5825 16.5578 54.752 15.8775 54.6955C15.3957 54.6672 15.2256 54.4412 15.424 53.9892C16.3594 51.729 17.2947 49.4689 18.2017 47.2087C18.4285 46.6154 18.8536 46.5589 19.3638 46.5307C19.9023 46.5024 20.2141 46.7284 20.4408 47.237C21.3762 49.4689 22.3115 51.7008 23.2468 53.9327C23.4736 54.5259 23.3602 54.639 22.4532 54.6672ZM19.4772 48.9321C19.3638 48.9321 19.2788 48.9038 19.1654 48.9038C18.8819 49.6384 18.5702 50.3447 18.3434 51.0792C18.3151 51.1922 18.7402 51.616 18.7969 51.5878C19.2788 51.3617 19.959 52.0115 20.2708 51.1922C20.2708 51.164 20.2708 51.1357 20.2708 51.1075C20.0157 50.4012 19.7606 49.6666 19.4772 48.9321Z" fill="#FFF3E0"/>
<path d="M89.6547 50.6278C89.6547 49.5542 89.683 48.4524 89.6547 47.3788C89.6263 46.7855 89.8531 46.5312 90.4483 46.5312C91.4687 46.5312 92.4607 46.5312 93.4811 46.5312C93.9346 46.5312 94.3314 46.616 94.3314 47.181C94.3314 47.7461 94.0763 48.0568 93.4811 48.0003C93.1409 47.9721 92.8008 48.0286 92.4607 47.9721C91.7804 47.8873 91.4403 48.1416 91.4687 48.8479C91.4687 49.5542 91.7521 49.8367 92.4607 49.752C92.8292 49.7237 93.1976 49.752 93.5377 49.7237C94.0763 49.6672 94.3314 49.8932 94.3314 50.43C94.3314 50.9668 94.0763 51.2211 93.5094 51.1646C93.1126 51.1081 92.6874 51.1646 92.2623 51.1646C91.6671 51.1363 91.4403 51.4471 91.4403 52.0121C91.4403 53.0857 91.4687 53.1422 92.5457 53.1422C92.8575 53.1422 93.1693 53.1422 93.4811 53.1422C94.0479 53.1139 94.3597 53.3117 94.3314 53.9332C94.3314 54.5548 93.9912 54.696 93.4244 54.696C92.404 54.6678 91.412 54.6678 90.3916 54.696C89.9098 54.696 89.6547 54.5548 89.683 54.0462C89.7114 52.9162 89.683 51.7861 89.683 50.656C89.6547 50.6278 89.6547 50.6278 89.6547 50.6278Z" fill="#FFF3E0"/>
<path d="M44.3623 50.656C44.3623 49.5825 44.3906 48.4806 44.3623 47.4071C44.3339 46.7573 44.6174 46.5312 45.2409 46.5312C46.2613 46.5312 47.2533 46.5312 48.2737 46.5312C48.7272 46.5312 49.0106 46.7008 49.0106 47.2093C49.0106 47.6613 48.8972 48.0286 48.302 48.0003C47.8769 47.9721 47.4801 48.0286 47.0549 48.0003C46.4314 47.9721 46.0912 48.1416 46.0912 48.8479C46.0912 49.5542 46.403 49.8367 47.0833 49.7802C47.5084 49.752 47.9902 49.7237 48.3871 49.8085C48.6138 49.865 48.9256 50.1757 48.9539 50.4018C49.0106 50.769 48.9256 51.1928 48.3587 51.1646C47.8485 51.1363 47.3383 51.1646 46.7998 51.1646C46.0345 51.1646 46.0629 51.7578 46.0345 52.2664C46.0062 52.8032 46.1479 53.1987 46.7998 53.1704C47.31 53.1704 47.8202 53.1422 48.3587 53.1422C49.0106 53.1422 48.9823 53.6225 48.9823 54.0745C48.9823 54.5548 48.7272 54.696 48.302 54.696C47.225 54.6678 46.1196 54.6395 45.0425 54.6678C44.504 54.6678 44.3623 54.4418 44.3906 53.9615C44.3906 52.8597 44.3623 51.7578 44.3623 50.656Z" fill="#FFF3E0"/>
<path d="M10.3497 50.5994C10.3497 49.5259 10.378 48.4523 10.3497 47.3505C10.3497 46.7572 10.5481 46.4747 11.1433 46.5029C12.0219 46.5312 12.9006 46.4746 13.7792 46.5877C15.1681 46.7289 15.82 47.5765 15.82 49.0173C15.82 50.2604 15.0547 51.1645 13.8359 51.3905C13.2407 51.5035 12.3904 51.447 12.107 51.8425C11.7952 52.2098 12.0219 53.0291 12.0219 53.6224C12.0219 54.5829 11.9369 54.6394 11.0299 54.6394C10.4347 54.6394 10.3213 54.3852 10.3497 53.9049C10.3497 52.8313 10.3497 51.7012 10.3497 50.5994ZM11.9936 48.9891C11.9369 49.8649 12.0503 50.0344 12.6738 50.0626C13.6092 50.1191 14.176 49.7236 14.176 49.0173C14.2044 48.311 13.6942 47.9437 12.8155 47.8307C11.7668 47.7177 12.0503 48.4523 11.9936 48.9891Z" fill="#FFF3E0"/>
<path d="M25.9943 51.5591C26.1077 51.333 26.2211 51.107 26.3061 50.881C26.7596 49.6379 27.2414 48.3666 27.6949 47.1235C27.8933 46.5867 28.8003 46.276 29.2538 46.615C29.3955 46.728 29.4806 47.0388 29.4239 47.2083C28.5169 49.5249 27.6099 51.8416 26.6746 54.1582C26.5612 54.4125 26.1927 54.695 25.966 54.6668C25.6542 54.6385 25.2007 54.4125 25.0873 54.13C24.1236 51.8698 23.2167 49.5532 22.3097 47.2648C22.253 47.0953 22.3664 46.6997 22.5364 46.615C23.0183 46.3607 23.7835 46.615 23.9819 47.0953C24.3787 48.0558 24.6905 49.0164 25.059 49.977C25.2857 50.542 25.5125 51.0788 25.7392 51.6438C25.7676 51.5873 25.8809 51.5873 25.9943 51.5591Z" fill="#FFF3E0"/>
<path d="M59.5828 51.3058C59.5828 50.4583 59.5544 49.6107 59.5828 48.7631C59.6111 48.1699 59.356 47.8873 58.7608 47.9721C58.1373 48.0569 57.9105 47.7461 57.9105 47.2093C57.8822 46.616 58.3073 46.5595 58.7325 46.5595C59.8946 46.5595 61.0567 46.5595 62.2187 46.5312C62.7573 46.5312 62.9557 46.7855 62.9557 47.294C62.9557 47.7461 62.7573 48.0569 62.2471 47.9721C61.4818 47.8591 61.3117 48.2264 61.3401 48.9044C61.3684 50.543 61.3401 52.1816 61.3401 53.8485C61.3401 54.6395 61.2551 54.696 60.2063 54.696C59.5544 54.696 59.5828 54.2723 59.5828 53.792C59.5828 52.9727 59.5544 52.1251 59.5828 51.3058Z" fill="#FFF3E0"/>
<path d="M84.5528 50.5995C84.5528 49.4977 84.5811 48.3959 84.5528 47.294C84.5244 46.616 84.9496 46.5312 85.4598 46.5312C85.9416 46.5312 86.3101 46.6443 86.2817 47.2658C86.2534 48.9609 86.2817 50.656 86.225 52.3511C86.225 52.9162 86.3667 53.1704 86.962 53.1422C87.3021 53.1139 87.6422 53.1987 87.954 53.1422C88.4925 53.0857 88.8043 53.2269 88.7759 53.8202C88.7476 54.357 88.6909 54.7525 87.9256 54.6678C87.0753 54.583 86.225 54.6113 85.3747 54.6678C84.7512 54.696 84.5244 54.5265 84.5244 53.905C84.5528 52.8032 84.5244 51.7013 84.5244 50.5995C84.5811 50.5995 84.5528 50.5995 84.5528 50.5995Z" fill="#FFF3E0"/>
<path d="M64.1181 50.5702C64.1181 49.4684 64.1464 48.3666 64.1181 47.2648C64.0897 46.6432 64.4298 46.502 64.94 46.502C65.4502 46.502 65.8754 46.5867 65.8754 47.2365C65.8754 49.4684 65.847 51.7003 65.8754 53.9604C65.8754 54.808 65.2801 54.6385 64.7983 54.6667C64.2881 54.7232 64.1181 54.4407 64.1181 53.9604C64.1181 52.8304 64.0897 51.7003 64.1181 50.5702Z" fill="#FFF3E0"/>
<path d="M32.3725 50.6834C32.3725 51.7569 32.3441 52.8588 32.3725 53.9323C32.4008 54.6104 32.0607 54.6669 31.5222 54.6951C30.9269 54.7234 30.7002 54.4974 30.7002 53.9041C30.7285 51.7004 30.7285 49.4685 30.7002 47.2649C30.7002 46.6999 30.9836 46.5586 31.4655 46.5586C31.9473 46.5586 32.3725 46.5868 32.3725 47.2084C32.3725 48.3385 32.3725 49.4968 32.3725 50.6834Z" fill="#FFF3E0"/>
<path d="M71.9692 50.5992C71.9692 51.6728 71.9409 52.7746 71.9692 53.8481C71.9976 54.6392 71.5441 54.6674 70.9772 54.6674C70.4103 54.6674 70.2119 54.4697 70.2119 53.8764C70.2403 51.701 70.2403 49.5539 70.2119 47.3785C70.2119 46.7004 70.4954 46.5027 71.0906 46.5309C71.6858 46.5592 71.9692 46.7569 71.9409 47.435C71.9125 48.4803 71.9692 49.5256 71.9692 50.5992Z" fill="#FFF3E0"/>
<path d="M80.6423 18.957C80.8974 19.6916 81.1524 20.4261 81.4075 21.1607C82.1728 23.4773 82.9381 25.794 83.7317 28.1106C83.9018 28.6474 83.7317 28.8452 83.2215 28.8452C81.4359 28.8734 79.6502 28.8734 77.8646 28.8734C77.3261 28.8734 77.0993 28.5909 77.2694 28.0824C77.8363 26.3873 78.4315 24.6639 79.0267 22.9688C79.3952 21.867 79.7636 20.7651 80.1604 19.6916C80.2455 19.4373 80.3588 19.2113 80.4722 18.957C80.4722 18.957 80.5572 18.957 80.6423 18.957Z" fill="#1A130D"/>
<path d="M119.528 50.5988C119.556 52.1527 118.451 53.3393 116.92 53.3393C115.503 53.3675 114.228 52.0679 114.228 50.5988C114.228 49.1015 115.418 47.8867 116.92 47.8584C118.167 47.8584 119.613 48.932 119.528 50.5988Z" fill="#1A130D"/>
<path d="M19.4769 48.9316C19.732 49.6662 20.0154 50.4007 20.2705 51.1353C20.2705 51.1635 20.2705 51.1918 20.2705 51.22C19.9587 52.0111 19.2785 51.3613 18.7966 51.6156C18.74 51.6438 18.3148 51.2483 18.3432 51.107C18.5699 50.3725 18.8817 49.6379 19.1651 48.9316C19.2785 48.9316 19.3919 48.9316 19.4769 48.9316Z" fill="#1A130D"/>
<path d="M11.9943 48.9883C12.051 48.4515 11.7676 47.717 12.8163 47.83C13.6949 47.943 14.2051 48.3103 14.1768 49.0166C14.1484 49.7229 13.5816 50.1184 12.6746 50.0619C12.051 50.0336 11.9377 49.8641 11.9943 48.9883Z" fill="#1A130D"/>
</svg>
