<svg width="269" height="61" viewBox="0 0 269 61" fill="none" xmlns="http://www.w3.org/2000/svg">
<g clip-path="url(#clip0_608_5317)">
<path d="M0 61C0 40.779 0 20.3895 0 0C89.5545 0 179.277 0 268.832 0C268.832 20.3895 268.832 40.779 268.832 61C179.277 61 89.7228 61 0 61ZM81.9794 25.6133C81.6427 26.1188 81.306 26.4558 81.1377 26.7928C80.9693 29.3204 80.9693 32.0166 80.801 34.5442C80.801 35.0497 80.6327 35.7238 80.6327 36.2293C79.9593 36.0608 79.286 36.0608 78.781 35.8923C78.4443 35.7238 78.1076 35.2182 77.771 34.8812C74.7409 31.8481 71.7109 28.8149 68.6809 25.9503C66.8292 24.2652 65.1458 24.7707 64.9775 27.2983C64.8091 30.6685 64.9775 34.2072 64.9775 37.5773C64.9775 37.9144 65.3141 38.2514 65.8191 39.0939C66.3242 37.9144 66.8292 37.2403 66.8292 36.5663C66.8292 34.5442 66.6608 32.6906 66.6608 30.6685C66.6608 29.826 66.9975 28.9834 67.3342 27.9724C68.1758 28.3094 69.1859 28.6464 69.8592 29.1519C73.0576 32.1851 76.0876 35.3867 79.286 38.4199C80.296 39.4309 81.306 39.768 82.316 38.5884C83.326 37.4088 83.326 27.2983 81.9794 25.6133ZM95.2778 39.4309V39.2624C96.2879 39.2624 97.4662 39.5994 98.4762 39.4309C100.328 39.0939 102.348 38.7569 103.526 37.5773C105.546 35.8923 105.21 28.9834 103.695 26.7928C102.516 25.1077 101.001 24.7707 98.9812 24.9392C95.6145 25.1077 92.4162 24.9392 89.0494 25.2762C88.3761 25.2762 87.1978 26.2873 87.0294 26.9613C86.6927 29.826 86.3561 32.8591 86.5244 35.8923C86.6927 37.5773 87.8711 39.0939 89.8911 39.2624C91.5745 39.2624 93.4262 39.2624 95.2778 39.4309ZM107.903 32.0166C107.903 33.8702 107.903 35.7238 107.903 37.4088C107.903 37.7459 108.576 38.2514 108.913 38.5884C109.25 38.2514 109.586 37.7459 109.755 37.4088C109.923 37.0718 109.755 36.5663 109.755 36.2293C109.923 34.2072 111.438 33.0276 113.458 33.1961C114.131 33.1961 114.805 33.1961 115.478 33.1961C119.686 32.8591 121.033 33.7017 122.212 37.4088C122.38 37.9144 122.885 38.0829 123.222 38.5884C123.558 38.0829 123.895 37.7459 124.063 37.2403C124.232 36.9033 124.063 36.3978 123.895 36.0608C123.053 34.3757 123.222 32.6906 123.895 30.837C124.905 27.9724 124.063 26.1188 121.202 25.7818C117.498 25.2762 113.795 25.2762 110.091 25.2762C108.576 25.2762 107.735 26.4558 107.903 27.9724C107.903 29.1519 107.903 30.5 107.903 32.0166ZM144.768 32.0166C144.768 33.7017 144.6 35.5552 144.937 37.2403C145.105 38.0829 146.115 39.0939 146.788 39.2624C149.819 39.4309 152.849 39.2624 155.879 39.2624C160.592 39.2624 162.275 36.5663 162.275 32.6906C162.275 27.8039 161.602 25.4447 157.394 25.1077C153.69 24.9392 150.155 24.9392 146.452 25.1077C145.947 25.1077 144.937 26.1188 144.768 26.7928C144.6 28.4779 144.768 30.3315 144.768 32.0166ZM179.951 38.7569C180.119 38.5884 180.456 38.5884 180.624 38.4199C180.624 37.9144 180.624 37.2403 180.456 36.7348C178.267 33.0276 176.079 29.4889 173.722 25.7818C172.88 24.4337 171.365 24.6022 170.524 25.7818C168.167 29.3204 166.147 33.0276 163.959 36.7348C163.79 37.0718 164.127 37.9144 164.127 38.4199C164.632 38.2514 165.305 38.0829 165.474 37.7459C166.315 36.2293 167.494 36.0608 169.009 36.0608C171.029 36.0608 173.049 36.2293 175.069 35.8923C176.752 35.5552 177.762 36.3978 178.772 37.2403C179.277 37.7459 179.614 38.2514 179.951 38.7569ZM140.223 38.7569C140.223 38.5884 140.223 38.4199 140.223 38.2514C139.887 38.0829 139.382 37.7459 139.045 37.7459C136.857 37.7459 134.668 37.7459 132.48 37.7459C130.628 37.7459 129.45 36.7348 129.45 35.2182C129.45 33.8702 130.797 32.5221 132.48 32.5221C134.332 32.5221 136.183 32.6906 137.867 32.6906C138.54 32.6906 139.382 32.3536 140.055 32.1851C140.055 32.0166 140.055 31.6796 140.055 31.511C139.55 31.3425 139.213 30.837 138.708 30.837C136.688 30.837 134.668 30.6685 132.648 30.837C130.965 31.0055 129.787 30.5 129.618 28.8149C129.45 27.1298 130.628 25.9503 132.312 25.9503C134.163 25.9503 136.015 25.9503 138.035 25.9503C138.708 25.9503 139.213 25.7818 139.718 25.6133C139.718 25.4447 139.718 25.1077 139.55 24.9392C138.372 24.9392 137.193 24.9392 136.015 24.9392C134.332 24.9392 132.648 25.2762 130.965 25.1077C127.935 24.9392 127.598 24.9392 127.598 27.9724C127.43 30.837 127.598 33.8702 127.43 36.7348C127.43 38.2514 128.272 38.9254 129.618 38.9254C132.648 39.0939 135.678 39.0939 138.708 39.0939C139.213 39.2624 139.718 38.9254 140.223 38.7569ZM62.7891 38.5884C62.4524 37.5773 62.2841 36.9033 61.7791 36.2293C59.7591 32.8591 57.739 29.4889 55.719 26.2873C54.5407 24.4337 53.194 24.4337 52.0156 26.2873C49.8273 29.826 47.8073 33.1961 45.7872 36.7348C45.4506 37.2403 45.4506 38.0829 45.2822 38.7569C45.9556 38.4199 46.7972 38.2514 47.1339 37.7459C48.3123 36.2293 49.659 35.2182 51.679 36.0608C52.0156 36.2293 52.5207 36.0608 52.8573 36.0608C55.8874 36.0608 59.0857 35.0497 61.4424 38.2514C61.6108 38.5884 62.1158 38.4199 62.7891 38.5884ZM186.684 25.7818C184.327 24.7707 183.654 25.1077 183.486 27.2983C183.317 30.163 183.486 32.8591 183.317 35.7238C183.149 38.4199 183.991 39.4309 186.684 39.4309C189.209 39.4309 191.566 39.2624 194.091 39.0939C194.764 39.0939 195.437 38.9254 196.111 38.9254C196.111 38.7569 196.111 38.4199 196.111 38.2514C195.269 38.0829 194.427 37.9144 193.586 37.9144C191.902 37.9144 190.051 38.0829 188.367 38.0829C186.011 38.0829 185.001 37.2403 185.001 35.0497C185.001 32.8591 186.684 32.6906 188.199 32.6906C189.882 32.5221 191.566 32.8591 193.249 32.8591C194.091 32.8591 194.932 32.5221 195.774 32.3536C195.774 32.1851 195.774 31.8481 195.774 31.6796C195.269 31.511 194.764 31.174 194.427 31.174C192.239 31.174 190.051 31.3425 188.031 31.3425C187.189 31.3425 186.011 30.6685 185.506 29.9945C185.169 29.4889 185.506 28.3094 185.842 27.4668C185.842 26.6243 186.347 26.2873 186.684 25.7818ZM33.4987 25.4448C33.1621 25.6133 32.9937 25.6133 32.6571 25.7818C32.8254 26.6243 32.8254 27.6354 33.1621 28.4779C35.0138 31.8481 37.0338 35.2182 38.8855 38.4199C39.5588 39.5994 41.0738 39.768 41.7472 38.4199C43.7672 34.8812 45.7872 31.174 47.8073 27.4668C48.1439 26.9613 47.8073 26.2873 47.8073 25.6133C47.3023 25.9503 46.6289 26.2873 46.2922 26.6243C44.7772 29.3204 43.4305 32.0166 41.9155 34.7127C41.5788 35.3867 40.9055 35.8923 40.2322 36.0608C39.8955 36.0608 39.0538 35.3867 38.7171 34.8812C37.2021 32.3536 35.8554 29.6575 34.5088 27.1298C34.3404 26.4558 33.8354 25.9503 33.4987 25.4448ZM201.834 25.7818C201.498 25.7818 201.329 25.7818 200.993 25.7818C200.824 26.4558 200.487 27.1298 200.487 27.9724C200.487 31.174 200.487 34.2072 200.656 37.4088C200.656 38.0829 202.003 39.0939 202.676 39.0939C205.369 39.2624 207.894 39.2624 210.588 39.0939C211.093 39.0939 211.429 38.7569 211.934 38.5884C211.934 38.4199 211.934 38.2514 211.934 38.0829C211.429 38.0829 210.924 37.9144 210.419 37.9144C208.736 37.9144 207.053 37.9144 205.369 38.0829C203.181 38.0829 202.003 37.0718 202.171 34.7127C202.171 32.6906 202.339 30.5 202.339 28.4779C202.339 27.4668 202.003 26.6243 201.834 25.7818ZM217.153 25.9503C216.816 25.9503 216.648 25.9503 216.311 25.9503C216.143 26.6243 215.638 27.1298 215.638 27.8039C215.638 31.174 215.638 34.3757 215.974 37.5773C215.974 38.0829 216.648 39.0939 217.153 39.0939C220.183 39.2624 223.213 39.2624 226.411 39.2624C226.748 39.2624 226.916 38.7569 227.253 38.5884C226.916 38.4199 226.748 37.9144 226.411 37.9144C224.559 37.9144 222.708 37.7459 220.856 37.9144C218.836 38.2514 217.994 37.4088 217.826 35.7238C217.658 33.7017 217.658 31.511 217.658 29.4889C217.321 28.1409 217.153 27.1298 217.153 25.9503ZM28.7854 25.7818C27.4387 27.6354 27.4387 36.9033 28.7854 38.0829C29.9637 36.5663 30.132 27.6354 28.7854 25.7818ZM231.798 25.7818C230.62 27.6354 230.788 37.2403 231.966 38.4199C233.145 36.7348 233.145 27.2983 231.798 25.7818Z" fill="#1A130D"/>
<path d="M81.9794 25.6137C83.1578 27.2988 83.1578 37.4093 82.1477 38.5888C81.1377 39.7684 80.1277 39.4314 79.1177 38.4203C75.9193 35.3872 72.8893 32.1855 69.6909 29.1524C69.0176 28.4783 68.0076 28.3098 67.1659 27.9728C66.9976 28.8154 66.4925 29.6579 66.4925 30.669C66.4925 32.6911 66.8292 34.5446 66.6609 36.5667C66.6609 37.2408 66.1559 37.9148 65.6509 39.0944C65.1459 38.2518 64.8092 37.9148 64.8092 37.5778C64.8092 34.2076 64.6409 30.669 64.8092 27.2988C64.9775 24.7712 66.6609 24.2656 68.5126 25.9507C71.7109 28.8154 74.5726 31.8485 77.6027 34.8817C77.9394 35.2187 78.276 35.7242 78.6127 35.8927C79.1177 36.2297 79.9594 36.2297 80.4644 36.2297C80.4644 35.7242 80.6327 35.0502 80.6327 34.5446C80.8011 32.017 80.8011 29.3209 80.9694 26.7933C81.3061 26.4562 81.6427 26.1192 81.9794 25.6137Z" fill="#FFF3E0"/>
<path d="M95.2777 39.4305C93.426 39.4305 91.5743 39.4305 89.891 39.0935C88.0393 38.925 86.6926 37.4084 86.5243 35.7234C86.3559 32.6902 86.6926 29.8256 87.0293 26.7924C87.0293 26.1184 88.376 25.1073 89.0493 25.1073C92.416 24.9388 95.6144 24.9388 98.9811 24.7703C101.001 24.6018 102.516 24.9388 103.694 26.6239C105.209 28.8145 105.546 35.7234 103.526 37.4084C102.179 38.4195 100.159 38.7565 98.4761 39.262C97.4661 39.4305 96.4561 39.0935 95.2777 39.0935C95.2777 39.262 95.2777 39.4305 95.2777 39.4305ZM95.1094 37.914C103.526 38.925 103.694 34.3753 102.516 29.1515C102.516 28.8145 102.348 28.646 102.348 28.309C102.011 26.4554 100.664 25.9499 99.1494 25.9499C96.4561 25.7814 93.7627 25.7814 91.0693 26.1184C90.2276 26.1184 88.881 27.1294 88.7126 27.8035C88.376 30.1626 88.2076 32.6902 88.376 35.0493C88.5443 37.0714 90.2276 38.0825 92.2477 37.914C93.2577 37.914 94.2677 37.914 95.1094 37.914Z" fill="#FFF3E0"/>
<path d="M107.903 32.0163C107.903 30.6682 107.903 29.1516 107.903 27.8036C107.903 26.1185 108.576 25.1074 110.091 25.1074C113.795 25.1074 117.498 25.1074 121.201 25.6129C124.063 25.95 125.073 27.8036 123.895 30.6682C123.221 32.5218 123.053 34.2069 123.895 35.892C124.063 36.229 124.063 36.7345 124.063 37.0715C123.895 37.577 123.558 37.9141 123.221 38.4196C122.885 38.0826 122.38 37.7455 122.211 37.24C121.033 33.3643 119.686 32.5218 115.478 33.0273C114.805 33.0273 114.131 33.1958 113.458 33.0273C111.438 32.8588 109.923 34.0384 109.755 36.0605C109.755 36.3975 109.923 36.903 109.755 37.24C109.586 37.7455 109.25 38.0826 108.913 38.4196C108.576 38.0826 107.903 37.577 107.903 37.24C107.735 35.5549 107.903 33.7013 107.903 32.0163ZM117.33 32.0163C118.003 31.8478 118.676 32.0163 119.181 31.8478C120.696 31.6792 122.043 31.1737 122.211 29.4886C122.38 27.8036 121.538 26.4555 119.686 26.287C117.161 26.1185 114.636 25.95 111.943 25.95C110.091 26.1185 109.586 27.8036 109.923 29.3201C110.091 30.3312 110.933 31.6792 111.775 31.8478C113.458 32.3533 115.478 32.0163 117.33 32.0163Z" fill="#FFF3E0"/>
<path d="M144.769 32.0167C144.769 30.3316 144.6 28.478 144.769 26.7929C144.937 26.1189 145.779 25.1078 146.452 25.1078C150.155 24.9393 153.69 24.9393 157.394 25.1078C161.602 25.2763 162.276 27.804 162.276 32.6907C162.276 36.5664 160.424 39.2625 155.879 39.2625C152.849 39.2625 149.819 39.431 146.789 39.2625C146.115 39.2625 144.937 38.083 144.937 37.2404C144.6 35.5553 144.769 33.7017 144.769 32.0167ZM152.849 37.9145C154.027 37.9145 155.205 38.083 156.384 37.9145C157.225 37.7459 158.236 37.5774 158.741 36.9034C160.592 35.2183 160.929 29.8261 159.414 27.804C158.909 27.1299 158.067 26.4559 157.225 26.4559C154.869 26.1189 152.344 26.1189 149.987 25.9504C147.799 25.9504 146.452 27.1299 146.284 29.3205C146.284 31.1741 146.284 33.0277 146.452 34.7128C146.62 37.0719 147.462 37.7459 149.819 37.7459C150.997 37.9145 151.839 37.9145 152.849 37.9145Z" fill="#FFF3E0"/>
<path d="M179.951 38.7571C179.614 38.2516 179.277 37.7461 178.772 37.4091C177.762 36.398 176.752 35.724 175.069 36.061C173.049 36.398 171.029 36.2295 169.009 36.2295C167.494 36.2295 166.315 36.398 165.474 37.9146C165.305 38.2516 164.632 38.4201 164.127 38.5886C164.127 38.0831 163.79 37.2406 163.959 36.9036C166.147 33.1964 168.167 29.4892 170.524 25.9505C171.366 24.771 172.712 24.4339 173.722 25.9505C176.079 29.4892 178.267 33.1964 180.456 36.9036C180.792 37.4091 180.624 38.0831 180.624 38.5886C180.456 38.5886 180.119 38.5886 179.951 38.7571ZM173.722 34.7129C173.722 34.8815 173.722 34.8815 173.722 35.05C174.396 34.8815 175.742 34.8815 175.911 34.3759C176.247 33.7019 175.911 32.6908 175.574 31.8483C175.069 30.8373 174.396 29.8262 173.722 28.8152C172.881 27.4671 171.534 27.4671 170.692 28.8152C169.85 30.1632 169.009 31.5113 168.504 33.0279C168.335 33.3649 169.009 34.5444 169.345 34.5444C170.692 34.8815 172.207 34.7129 173.722 34.7129Z" fill="#FFF3E0"/>
<path d="M140.223 38.7566C139.718 38.9251 139.382 39.2621 138.877 39.2621C135.847 39.2621 132.817 39.2621 129.786 39.0936C128.44 39.0936 127.598 38.4196 127.598 36.903C127.598 34.0384 127.598 31.0052 127.766 28.1406C127.935 25.2759 128.271 25.1074 131.133 25.2759C132.817 25.4444 134.5 25.1074 136.183 25.1074C137.362 25.1074 138.54 25.1074 139.718 25.1074C139.718 25.2759 139.718 25.6129 139.887 25.7815C139.382 25.95 138.708 26.1185 138.203 26.1185C136.352 26.1185 134.5 26.1185 132.48 26.1185C130.797 26.1185 129.45 27.298 129.786 28.9831C129.955 30.6682 131.133 31.1737 132.817 31.0052C134.837 30.8367 136.857 30.8367 138.877 31.0052C139.382 31.0052 139.718 31.3422 140.223 31.6792C140.223 31.8478 140.223 32.1848 140.223 32.3533C139.55 32.5218 138.708 32.6903 138.035 32.8588C136.183 32.8588 134.332 32.6903 132.648 32.6903C130.965 32.6903 129.618 33.8699 129.618 35.3864C129.618 36.903 130.797 38.0826 132.648 37.9141C134.837 37.9141 137.025 37.9141 139.213 37.9141C139.55 37.9141 140.055 38.2511 140.392 38.4196C140.223 38.4196 140.223 38.5881 140.223 38.7566Z" fill="#FFF3E0"/>
<path d="M62.7891 38.5882C61.9474 38.4197 61.6108 38.4197 61.4424 38.2512C59.2541 35.0495 56.0557 36.0606 52.8573 36.0606C52.5206 36.0606 52.0156 36.2291 51.679 36.0606C49.6589 35.218 48.3123 36.2291 47.1339 37.7456C46.7972 38.2512 45.9556 38.4197 45.2822 38.7567C45.4506 38.0827 45.4506 37.2401 45.7872 36.7346C47.8073 33.1959 49.8273 29.8258 52.0156 26.2871C53.194 24.265 54.5407 24.265 55.719 26.2871C57.739 29.6572 59.7591 32.8589 61.7791 36.2291C62.2841 36.9031 62.4524 37.5771 62.7891 38.5882ZM52.0156 34.7125C53.194 34.7125 54.5407 34.881 55.719 34.881C56.3924 34.881 57.4024 34.544 57.5707 34.207C57.9074 33.5329 57.739 32.5219 57.4024 31.8479C56.729 30.6683 55.8874 29.6572 55.214 28.6462C54.204 27.2981 53.194 27.2981 52.3523 28.8147C51.679 29.9943 51.0056 31.1738 50.5006 32.5219C49.6589 34.0385 50.3323 34.881 52.0156 34.7125Z" fill="#FFF3E0"/>
<path d="M186.684 25.7818C186.347 26.2873 185.842 26.6243 185.674 27.1299C185.506 27.9724 185.001 29.152 185.337 29.6575C185.842 30.3315 187.021 30.8371 187.862 31.0056C190.051 31.1741 192.239 30.8371 194.259 30.8371C194.764 30.8371 195.269 31.1741 195.606 31.3426C195.606 31.5111 195.606 31.8481 195.606 32.0166C194.764 32.1851 193.922 32.5221 193.081 32.5221C191.397 32.5221 189.714 32.3536 188.031 32.3536C186.516 32.5221 184.832 32.5221 184.832 34.7127C184.832 36.9034 185.842 37.7459 188.199 37.7459C189.882 37.7459 191.734 37.5774 193.417 37.5774C194.259 37.5774 195.101 37.7459 195.942 37.9144C195.942 38.0829 195.942 38.4199 195.942 38.5884C195.269 38.5884 194.596 38.7569 193.922 38.7569C191.397 38.9255 189.041 38.9255 186.516 39.094C183.654 39.094 182.812 38.0829 183.149 35.3868C183.317 32.6906 183.317 29.826 183.317 26.9614C183.486 25.1078 184.327 24.7708 186.684 25.7818Z" fill="#FFF3E0"/>
<path d="M33.4985 25.4443C34.0035 25.9499 34.5085 26.6239 34.8452 27.1294C36.1919 29.657 37.5386 32.3532 39.0536 34.8808C39.3903 35.3863 40.0636 36.2289 40.5686 36.0604C41.2419 35.8918 41.9153 35.2178 42.252 34.7123C43.767 32.0162 45.1137 29.32 46.6287 26.6239C46.9653 26.1184 47.6387 25.9499 48.1437 25.6128C48.1437 26.2869 48.4804 26.9609 48.1437 27.4664C46.1237 31.1736 44.1036 34.8808 42.0836 38.4195C41.4103 39.599 39.8953 39.599 39.2219 38.4195C37.2019 35.0493 35.3502 31.8476 33.4985 28.4775C33.1618 27.8035 33.1618 26.7924 32.9935 25.7814C32.8252 25.6128 33.1618 25.4443 33.4985 25.4443Z" fill="#FFF3E0"/>
<path d="M201.834 25.7818C202.002 26.6243 202.339 27.4669 202.339 28.3094C202.339 30.3315 202.339 32.5221 202.171 34.5442C202.171 36.7348 203.181 37.9144 205.369 37.9144C207.052 37.9144 208.736 37.9144 210.419 37.7459C210.924 37.7459 211.429 37.9144 211.934 37.9144C211.934 38.0829 211.934 38.2514 211.934 38.4199C211.429 38.5884 211.093 38.9254 210.588 38.9254C207.894 38.9254 205.201 39.0939 202.676 38.9254C201.834 38.9254 200.656 37.9144 200.656 37.2404C200.319 34.0387 200.487 31.0055 200.487 27.8039C200.487 27.1299 200.824 26.4558 200.992 25.6133C201.329 25.7818 201.666 25.7818 201.834 25.7818Z" fill="#FFF3E0"/>
<path d="M217.153 25.9502C217.321 27.1298 217.489 28.3093 217.489 29.4889C217.658 31.511 217.489 33.7016 217.658 35.7237C217.826 37.4088 218.668 38.2513 220.688 37.9143C222.539 37.5773 224.391 37.7458 226.243 37.9143C226.579 37.9143 226.748 38.4198 227.084 38.5883C226.748 38.7568 226.579 39.2623 226.243 39.2623C223.213 39.2623 220.183 39.2624 216.984 39.0938C216.479 39.0938 215.806 38.0828 215.806 37.5773C215.638 34.3756 215.638 31.0054 215.469 27.8038C215.469 27.1298 215.806 26.6242 216.143 25.9502C216.479 25.9502 216.816 25.9502 217.153 25.9502Z" fill="#FFF3E0"/>
<path d="M28.7854 25.7822C29.9638 27.4673 29.9638 36.3982 28.7854 38.0833C27.4387 36.9038 27.4387 27.6358 28.7854 25.7822Z" fill="#FFF3E0"/>
<path d="M231.798 25.7822C233.145 27.2988 233.313 36.7353 231.966 38.4203C230.788 37.2408 230.451 27.6358 231.798 25.7822Z" fill="#FFF3E0"/>
<path d="M95.1094 37.9144C94.2677 37.9144 93.2577 37.9144 92.0794 37.9144C89.891 37.9144 88.376 37.0719 88.2076 35.0498C88.0393 32.6907 88.2076 30.163 88.5443 27.8039C88.7126 27.1299 90.0593 26.1188 90.901 26.1188C93.5944 25.7818 96.2877 25.9503 98.9811 25.9503C100.496 25.9503 101.843 26.6244 102.179 28.3094C102.179 28.6465 102.348 28.815 102.348 29.152C103.863 34.3757 103.694 39.094 95.1094 37.9144Z" fill="#1A130D"/>
<path d="M117.33 32.0165C115.478 32.0165 113.458 32.3535 111.775 31.848C110.933 31.6795 110.091 30.3314 109.923 29.3204C109.755 27.8038 110.091 26.1187 111.943 25.9502C114.468 25.7817 116.993 26.1187 119.687 26.2872C121.538 26.4557 122.38 27.8038 122.212 29.4889C122.043 31.174 120.697 31.6795 119.182 31.848C118.677 32.0165 118.003 32.0165 117.33 32.0165Z" fill="#1A130D"/>
<path d="M152.848 37.9142C151.838 37.9142 150.828 37.9142 149.987 37.9142C147.63 37.9142 146.788 37.2402 146.62 34.8811C146.452 33.0275 146.452 31.1739 146.452 29.4888C146.452 27.2982 147.798 25.9501 150.155 26.1187C152.68 26.1187 155.037 26.2872 157.393 26.6242C158.235 26.7927 159.077 27.2982 159.582 27.9722C161.097 29.9943 160.592 35.2181 158.908 37.0717C158.403 37.5772 157.393 37.9142 156.552 38.0827C155.205 38.0827 154.027 37.9142 152.848 37.9142Z" fill="#1A130D"/>
<path d="M173.722 34.713C172.207 34.713 170.86 34.8815 169.345 34.713C169.009 34.713 168.335 33.5334 168.504 33.1964C169.177 31.6798 170.019 30.3318 170.692 28.9837C171.534 27.6356 172.712 27.6356 173.722 28.9837C174.395 29.9948 175.069 31.0058 175.574 32.0169C175.91 32.8594 176.247 33.8704 175.91 34.5445C175.742 35.05 174.564 35.05 173.722 35.2185C173.722 34.8815 173.722 34.8815 173.722 34.713Z" fill="#1A130D"/>
<path d="M52.0157 34.713C50.3323 34.8815 49.8273 34.039 50.3323 32.3539C50.8373 31.0058 51.5107 29.8263 52.184 28.6467C53.0257 27.1302 54.0357 27.1302 55.0457 28.4782C55.8874 29.4893 56.7291 30.5003 57.2341 31.6799C57.5708 32.3539 57.7391 33.365 57.4024 34.039C57.2341 34.5445 56.2241 34.713 55.5507 34.713C54.5407 35.05 53.194 34.8815 52.0157 34.713Z" fill="#1A130D"/>
</g>
<defs>
<clipPath id="clip0_608_5317">
<rect width="269" height="61" fill="white"/>
</clipPath>
</defs>
</svg>
