<svg width="164" height="62" viewBox="0 0 164 62" fill="none" xmlns="http://www.w3.org/2000/svg">
<path d="M0 62.7654C0 41.8436 0 20.9218 0 0C54.5769 0 109.154 0 163.731 0C163.731 20.9218 163.731 41.8436 163.731 62.7654C109.154 62.7654 54.5769 62.7654 0 62.7654ZM23.8615 29.7243C23.8615 32.9136 23.8615 35.9753 23.8615 39.1646C23.8615 40.823 24.3692 41.3333 26.0192 41.3333C28.05 41.3333 28.5577 40.9506 28.5577 39.1646C28.5577 37.5062 28.4308 35.7202 28.5577 34.0617C28.5577 33.5514 28.9385 33.0412 29.0654 32.5309C29.4462 32.9136 30.0808 33.1687 30.3346 33.5514C31.2231 34.9547 32.2385 36.4856 33 38.0165C34.1423 40.4403 35.6654 41.7161 38.4577 41.0782C38.8385 40.9506 39.6 40.9506 39.7269 40.6955C39.8538 40.3128 39.7269 39.6749 39.4731 39.2922C37.8231 36.4856 36.1731 33.8066 34.2692 31.1276C33.3808 29.7243 33.5077 28.7037 34.3962 27.5556C36.0462 25.1317 37.8231 22.7078 39.4731 20.284C39.9808 19.5185 40.1077 18.7531 38.9654 18.3704C37.1885 17.7325 34.9039 18.3704 33.8885 20.0288C32.6192 21.9424 31.4769 23.856 30.3346 25.7696C30.0808 26.1523 29.5731 26.535 29.1923 26.9177C28.9385 26.4074 28.5577 25.7695 28.5577 25.2593C28.5577 23.7284 28.5577 22.07 28.6846 20.5391C28.6846 18.7531 28.3038 18.3704 26.4 18.2428C24.75 18.2428 23.9885 18.7531 23.9885 20.4115C23.8615 23.4733 23.8615 26.6626 23.8615 29.7243ZM87.9577 33.1687C87.9577 31.3827 87.9577 29.5967 87.9577 27.8107C87.9577 25.642 86.6885 24.6214 84.6577 25.5144C83.1346 26.1523 81.9923 26.0247 80.5962 25.3868C78.3115 24.3663 76.0269 24.749 73.9962 26.1523C71.0769 28.1934 69.6808 32.2757 70.6962 35.8477C71.9654 40.6955 77.2962 43.3745 81.4846 40.9506C82.6269 40.3128 83.2615 40.1852 84.4039 40.823C86.3077 42.0988 87.9577 40.9506 88.0846 38.6543C87.9577 36.8683 87.9577 35.0823 87.9577 33.1687ZM57.75 33.4239C57.8769 33.4239 57.8769 33.4239 57.75 33.4239C57.75 31.6379 57.75 29.8519 57.75 28.0658C57.75 25.5144 56.4808 24.4938 54.1962 25.5144C52.9269 26.1523 51.9115 25.8971 50.7692 25.3868C48.1038 24.2387 45.4385 24.6214 43.2808 26.4074C40.4885 28.7037 39.7269 31.893 40.3615 35.3375C41.25 40.5679 46.3269 43.2469 51.15 40.9506C52.1654 40.4403 53.0539 40.3128 54.1962 40.9506C56.2269 42.0988 57.75 41.0782 57.75 38.6543C57.75 36.9959 57.75 35.2099 57.75 33.4239ZM124.004 41.8436C126.669 41.9712 128.827 40.6955 130.731 38.7819C131.238 38.144 131.619 37.3786 130.731 36.9959C129.462 36.4856 128.065 35.7202 126.669 37.1235C125.019 38.6543 121.719 38.0165 120.45 36.1029C119.815 35.2099 120.196 34.3169 121.338 34.3169C124.258 34.3169 127.177 34.3169 130.223 34.4444C131.492 34.4444 132.127 34.0617 132.127 32.6584C132.127 31.893 132 31.1276 131.746 30.3621C129.842 24.1111 121.338 23.6008 117.912 27.0453C115.373 29.7243 114.612 33.1687 116.008 36.8683C117.404 40.0576 120.323 41.9712 124.004 41.8436ZM95.1923 24.4938C95.1923 23.856 95.1923 23.0905 95.1923 22.4527C95.1923 21.8148 95.3192 21.0494 95.3192 20.4115C95.3192 19.9012 95.0654 19.2634 94.8115 19.0082C93.2885 17.9877 90.8769 19.3909 90.8769 21.177C90.8769 23.3457 90.8769 25.642 90.8769 27.8107C90.8769 31.6379 90.8769 35.465 90.8769 39.2922C90.8769 41.0782 91.3846 41.3333 93.7962 41.2058C95.3192 41.0782 95.4462 40.1852 95.3192 39.037C95.3192 38.6543 95.1923 38.144 95.1923 37.7613C95.3192 37.251 95.5731 36.7407 95.7 36.2305C96.0808 36.4856 96.5885 36.7407 96.9692 37.1235C97.35 37.6337 97.7308 38.2716 97.9846 38.9095C99.2538 41.0782 100.523 41.7161 102.935 41.3333C104.077 41.2058 104.458 40.4403 103.823 39.5473C102.808 38.0165 101.792 36.2305 100.65 34.8272C99.3808 33.2963 99.7615 32.1482 100.777 30.8724C101.665 29.7243 102.681 28.4486 103.442 27.1728C103.696 26.7901 103.696 25.7695 103.442 25.3868C102.554 24.4938 99.5077 25.2593 98.7462 26.4074C98.1115 27.3004 97.6039 28.1934 96.8423 28.9589C96.5885 29.3416 95.9539 29.4691 95.5731 29.5967C95.4462 29.214 95.1923 28.7037 95.1923 28.321C95.1923 27.1728 95.1923 25.8971 95.1923 24.4938ZM112.2 35.0823C112.2 33.9342 112.2 32.786 112.2 31.6379C112.073 30.3621 112.454 29.3416 113.596 28.5761C114.738 27.6831 114.612 26.535 113.596 25.5144C112.962 24.8765 112.454 24.1111 112.327 23.3457C112.2 22.4527 112.581 21.4321 111.185 21.3045C110.042 21.177 108.265 22.1975 107.885 22.963C107.631 23.856 107.25 24.749 106.742 25.5144C105.981 26.7901 105.854 27.9383 106.996 29.0864C107.504 29.5967 107.885 30.4897 107.885 31.2551C108.012 33.9342 107.885 36.6132 107.758 39.1646C107.758 40.6955 108.519 41.2058 109.915 41.0782C111.819 41.0782 112.2 40.6955 112.327 39.1646C112.2 37.8889 112.2 36.4856 112.2 35.0823ZM142.788 27.3004C142.788 25.1317 141.9 24.2387 140.504 25.1317C139.362 25.7696 138.473 25.8971 137.204 25.3868C134.792 24.6214 134.031 25.2593 134.031 27.8107C134.031 31.6379 133.904 35.465 133.904 39.1646C133.904 40.4403 134.412 41.2058 135.808 41.2058C137.712 41.2058 138.473 40.823 138.473 39.2922C138.473 37.1235 138.473 35.0823 138.473 32.9136C138.473 31 139.488 29.7243 141.392 29.214C142.535 29.0864 143.042 28.4486 142.788 27.3004ZM60.9231 33.1687C60.9231 35.0823 60.7962 37.1235 60.9231 39.037C60.9231 40.9506 61.3038 41.2058 63.2077 41.2058C64.9846 41.2058 65.2385 40.823 65.2385 39.037C65.2385 37.5062 65.2385 35.9753 65.2385 34.4444C65.2385 31.893 65.6192 29.7243 68.6654 29.214C69.6808 29.0864 70.3154 26.9177 69.6808 25.8971C69.4269 25.3868 68.1577 24.8765 67.9038 25.1317C66.3808 26.1523 65.1115 25.8971 63.5885 25.3868C61.9385 24.8765 61.1769 25.5144 61.1769 27.1728C60.9231 29.214 60.9231 31.1276 60.9231 33.1687Z" fill="#1A130D"/>
<path d="M23.8613 29.7244C23.8613 26.6627 23.8613 23.6009 23.8613 20.5392C23.8613 18.8808 24.4959 18.2429 26.2728 18.3705C28.0498 18.3705 28.5575 18.8808 28.5575 20.6668C28.5575 22.1976 28.4305 23.8561 28.4305 25.3869C28.4305 25.8972 28.8113 26.5351 29.0651 27.0454C29.4459 26.6627 29.9536 26.4075 30.2074 25.8972C31.4767 23.9836 32.4921 21.9425 33.7613 20.1565C34.7767 18.6256 37.0613 17.8602 38.8382 18.498C39.9805 18.8808 39.8536 19.6462 39.3459 20.4116C37.6959 22.8355 36.0459 25.2594 34.269 27.6832C33.3805 28.8314 33.2536 29.9795 34.1421 31.2553C35.919 33.9343 37.569 36.7408 39.3459 39.4199C39.5998 39.8026 39.7267 40.4404 39.5998 40.8232C39.4728 41.0783 38.8382 41.2059 38.3305 41.2059C35.5382 41.8437 34.0151 40.568 32.8728 38.1441C32.1113 36.6133 31.2228 35.0824 30.2074 33.6791C29.9536 33.2964 29.319 33.0413 28.9382 32.6585C28.6844 33.1688 28.4305 33.6791 28.4305 34.1894C28.4305 35.8478 28.4305 37.6339 28.4305 39.2923C28.4305 41.0783 27.9228 41.461 25.8921 41.461C24.2421 41.461 23.7344 40.8232 23.7344 39.2923C23.8613 35.9754 23.8613 32.7861 23.8613 29.7244Z" fill="#FFF3E0"/>
<path d="M87.9575 33.1684C87.9575 35.082 87.9575 36.868 87.9575 38.7816C87.9575 41.0779 86.3075 42.226 84.2767 40.9503C83.1344 40.1849 82.3729 40.44 81.3575 41.0779C77.169 43.3742 71.8382 40.8227 70.569 35.975C69.6806 32.2754 70.9498 28.1931 73.869 26.2795C75.8998 24.8762 78.1844 24.6211 80.469 25.5141C81.8652 26.1519 83.1344 26.2795 84.5306 25.6417C86.5613 24.7487 87.8306 25.7692 87.8306 27.938C87.9575 29.5964 87.9575 31.3824 87.9575 33.1684ZM79.1998 38.1437C81.4844 38.2713 83.5152 35.975 83.769 33.296C83.8959 30.9997 81.7382 28.5758 79.5806 28.4482C77.2959 28.3207 75.2652 30.3618 75.1382 33.0408C74.8844 35.8474 76.7883 38.1437 79.1998 38.1437Z" fill="#FFF3E0"/>
<path d="M57.7502 33.4241C57.7502 35.2101 57.7502 36.8686 57.7502 38.6546C57.7502 40.9509 56.2271 42.099 54.1964 40.9509C53.0541 40.313 52.2925 40.4406 51.1502 40.9509C46.3271 43.2472 41.2502 40.6957 40.3618 35.3377C39.7271 31.8933 40.4887 28.704 43.281 26.4077C45.4387 24.6217 48.1041 24.2389 50.7695 25.3871C51.9118 25.8974 52.9272 26.025 54.1964 25.5147C56.481 24.4941 57.8771 25.5147 57.7502 28.0661C57.7502 29.8521 57.8771 31.6381 57.7502 33.4241C57.8771 33.4241 57.8771 33.4241 57.7502 33.4241ZM44.931 33.4241C44.931 35.848 46.8348 38.2719 48.8656 38.2719C51.531 38.2719 53.5618 36.2307 53.5618 33.5517C53.5618 30.7451 51.6579 28.4488 49.3733 28.4488C46.9618 28.4488 44.931 30.7451 44.931 33.4241Z" fill="#FFF3E0"/>
<path d="M124.004 41.8434C120.323 41.971 117.404 40.185 116.135 36.8681C114.612 33.2961 115.373 29.7241 118.039 27.0451C121.465 23.4731 129.969 24.1109 131.873 30.3619C132.127 31.1274 132.127 31.8928 132.254 32.6582C132.381 33.934 131.619 34.4443 130.35 34.4443C127.431 34.4443 124.512 34.3167 121.465 34.3167C120.45 34.3167 119.942 35.2097 120.577 36.1027C121.846 38.0163 125.019 38.6541 126.796 37.1233C128.319 35.72 129.589 36.4854 130.858 36.9957C131.873 37.3784 131.492 38.2714 130.858 38.7817C128.827 40.6953 126.669 41.8434 124.004 41.8434ZM124.131 31.5101C124.765 31.6377 125.527 31.6377 126.162 31.6377C127.177 31.5101 127.431 30.9998 126.923 30.1068C125.781 28.0657 121.592 28.0657 120.45 30.2344C120.323 30.4895 120.196 31.1274 120.45 31.3825C120.577 31.6377 121.212 31.7652 121.465 31.7652C122.354 31.7652 123.242 31.6377 124.131 31.5101Z" fill="#FFF3E0"/>
<path d="M95.1923 24.4941C95.1923 25.7698 95.1923 27.1731 95.1923 28.4488C95.1923 28.8315 95.4462 29.3418 95.5731 29.7245C95.9539 29.4694 96.5885 29.3418 96.8423 29.0867C97.477 28.3212 98.1116 27.4282 98.7462 26.5352C99.5077 25.3871 102.427 24.6216 103.442 25.5146C103.696 25.7698 103.696 26.7904 103.442 27.3007C102.681 28.5764 101.665 29.8521 100.777 31.0002C99.7616 32.276 99.3808 33.4241 100.65 34.955C101.919 36.3583 102.808 38.0167 103.823 39.6751C104.458 40.5681 104.077 41.3336 102.935 41.4611C100.523 41.7163 99.2539 41.0784 97.9846 39.0373C97.6039 38.3994 97.35 37.7616 96.9693 37.2513C96.7154 36.8686 96.2077 36.6134 95.7 36.3583C95.4462 36.8686 95.1923 37.3788 95.1923 37.8891C95.0654 38.2718 95.1923 38.7821 95.3193 39.1649C95.4462 40.313 95.1923 41.3336 93.7962 41.3336C91.3846 41.4611 90.877 41.206 90.877 39.42C90.877 35.5928 90.877 31.7657 90.877 27.9385C90.877 25.7698 90.877 23.4735 90.877 21.3048C90.877 19.5188 93.4154 18.243 94.8116 19.136C95.1923 19.3912 95.3193 20.029 95.3193 20.5393C95.4462 21.1772 95.3193 21.9426 95.1923 22.5805C95.1923 23.0908 95.1923 23.8562 95.1923 24.4941Z" fill="#FFF3E0"/>
<path d="M112.2 35.0826C112.2 36.4859 112.2 37.8892 112.2 39.1649C112.2 40.8233 111.692 41.0785 109.788 41.0785C108.392 41.0785 107.631 40.6958 107.631 39.1649C107.757 36.4859 107.757 33.8069 107.757 31.2554C107.757 30.49 107.377 29.597 106.869 29.0867C105.727 27.9386 105.854 26.7904 106.615 25.5147C107.123 24.7493 107.504 23.8563 107.757 22.9633C108.011 22.1978 109.788 21.1773 111.057 21.3048C112.454 21.4324 111.946 22.453 112.2 23.346C112.327 24.1114 112.961 24.8768 113.469 25.5147C114.484 26.5353 114.738 27.811 113.469 28.5764C112.327 29.3419 111.946 30.3624 112.073 31.6382C112.327 32.7863 112.2 33.9345 112.2 35.0826Z" fill="#FFF3E0"/>
<path d="M142.788 27.3003C143.042 28.4484 142.535 29.0863 141.265 29.3414C139.361 29.7241 138.473 31.1274 138.346 33.041C138.346 35.2097 138.346 37.2509 138.346 39.4196C138.346 40.9505 137.585 41.3332 135.681 41.3332C134.285 41.3332 133.777 40.5677 133.777 39.292C133.777 35.4649 133.904 31.6377 133.904 27.9381C133.904 25.5142 134.665 24.7488 137.077 25.5142C138.346 25.897 139.235 25.897 140.377 25.2591C141.9 24.2385 142.788 25.1315 142.788 27.3003Z" fill="#FFF3E0"/>
<path d="M60.9233 33.1684C60.9233 31.1272 60.9233 29.0861 60.9233 27.1725C60.9233 25.5141 61.8117 24.8762 63.3348 25.3865C64.8579 25.8968 66.254 26.1519 67.6502 25.1313C67.904 24.8762 69.1733 25.3865 69.4271 25.8968C70.0617 26.9173 69.4271 28.9585 68.4117 29.2136C65.3656 29.8515 64.9848 32.0202 64.9848 34.4441C64.9848 35.975 64.9848 37.5058 64.9848 39.0367C64.9848 40.8227 64.731 41.2054 62.954 41.2054C61.0502 41.2054 60.6694 40.9503 60.6694 39.0367C60.7964 37.1231 60.9233 35.2095 60.9233 33.1684Z" fill="#FFF3E0"/>
<path d="M79.1998 38.1445C76.7882 38.0169 75.0113 35.8482 75.1382 33.0416C75.2652 30.3626 77.2959 28.3215 79.5805 28.449C81.7382 28.5766 83.8959 31.0005 83.769 33.2968C83.5152 35.9758 81.3575 38.2721 79.1998 38.1445Z" fill="#1A130D"/>
<path d="M44.9307 33.4236C44.9307 30.7445 46.9614 28.4482 49.373 28.4482C51.6576 28.4482 53.5614 30.7445 53.5614 33.5511C53.5614 36.2301 51.5307 38.2713 48.8653 38.2713C46.8345 38.2713 44.9307 35.8474 44.9307 33.4236Z" fill="#1A130D"/>
<path d="M124.131 31.5102C123.242 31.6378 122.354 31.6377 121.465 31.6377C121.085 31.6377 120.577 31.5102 120.45 31.255C120.323 30.9999 120.323 30.4896 120.45 30.1069C121.592 28.0657 125.781 27.9382 126.923 29.9793C127.431 30.8723 127.177 31.3826 126.161 31.5102C125.527 31.6378 124.892 31.6378 124.131 31.5102Z" fill="#1A130D"/>
</svg>
