<svg width="98" height="62" viewBox="0 0 98 62" fill="none" xmlns="http://www.w3.org/2000/svg">
<path d="M-2 62.909C-2 41.2799 -2 19.6508 -2 -2C32.2133 -2 66.4266 -2 100.662 -2C100.662 19.6291 100.662 41.2582 100.662 62.909C66.3835 62.909 32.1917 62.909 -2 62.909ZM39.6773 15.9665C39.6988 18.6539 39.6988 21.3629 39.6988 24.0503C39.6988 24.6138 39.8067 24.7221 40.3676 24.7221C42.3091 24.7221 44.2505 24.7438 46.192 24.7005C47.4432 24.6788 48.716 24.7005 49.9456 24.5271C51.8439 24.267 53.9148 23.2267 54.3247 20.7778C54.562 19.369 54.3678 18.047 53.3108 16.9851C52.8794 16.5516 52.3401 16.2482 51.8223 15.9014C51.4125 15.6197 51.3909 15.4463 51.7792 15.1863C52.5989 14.6228 53.0951 13.8426 53.3324 12.889C53.656 11.4369 53.3755 10.0932 52.3832 8.98794C51.434 7.92599 50.1613 7.44919 48.8022 7.40585C45.9547 7.31916 43.0856 7.34083 40.2381 7.34083C39.8714 7.34083 39.7204 7.51421 39.7204 7.88264C39.6773 10.57 39.6773 13.2791 39.6773 15.9665ZM65.6716 25.0472C67.8073 25.0472 69.6409 24.5271 71.2804 23.4001C73.7611 21.688 75.077 19.2607 75.1202 16.2699C75.1633 12.5422 73.5454 9.68145 70.137 8.01268C67.5052 6.71233 64.7872 6.69066 62.1122 7.86097C59.6314 8.94459 57.9272 10.8084 57.1722 13.4308C56.223 16.7467 56.8702 19.7158 59.2216 22.2732C60.9689 24.1803 63.2771 24.9172 65.6716 25.0472ZM78.507 16.0532C78.507 18.7405 78.507 21.4496 78.4854 24.137C78.4854 24.5488 78.658 24.7221 79.0247 24.7221C79.9092 24.7438 80.8152 24.7438 81.6997 24.7221C82.0664 24.7221 82.2821 24.5704 82.2821 24.137C82.2606 22.7283 82.2605 21.2979 82.2605 19.8892C82.2605 19.304 82.39 19.1957 82.9509 19.1957C83.4254 19.1957 83.9216 19.239 84.3962 19.174C85.0433 19.109 85.4101 19.3907 85.7337 19.9109C86.6828 21.3846 87.6967 22.8366 88.6459 24.3104C88.8832 24.6571 89.1636 24.7655 89.5519 24.7655C90.4364 24.7438 91.2992 24.7655 92.1837 24.7438C92.4857 24.7438 92.7877 24.6355 93.0897 24.5921C92.9603 24.332 92.874 24.0503 92.7014 23.7902C91.7091 22.2948 90.7168 20.8211 89.7029 19.3474C89.2283 18.6755 89.2283 18.5888 89.9618 18.1987C91.6875 17.2668 92.6367 15.8148 92.8309 13.8642C92.9819 12.2171 92.6799 10.6567 91.5581 9.35637C90.5442 8.18606 89.1852 7.55755 87.6967 7.49254C84.7845 7.3625 81.8938 7.40585 78.9816 7.38417C78.5933 7.38417 78.4639 7.6009 78.4639 7.991C78.507 10.6567 78.507 13.3441 78.507 16.0532ZM35.0608 24.7221C35.4923 24.7221 35.9237 24.7221 36.3552 24.7221C36.8729 24.7221 36.9808 24.5921 36.7866 24.0936C36.4846 23.2918 36.161 22.4899 35.8374 21.688C35.1903 20.1709 34.5 18.6755 33.8528 17.1368C32.5153 14.0376 31.221 10.9168 29.8835 7.81762C29.7757 7.55755 29.4305 7.25414 29.1932 7.23247C28.3088 7.16745 27.4027 7.21079 26.5183 7.23247C26.3457 7.23247 26.1084 7.40585 26.0006 7.57923C25.828 7.81762 25.7417 8.09937 25.6338 8.35943C24.8357 10.2883 24.0159 12.1955 23.2178 14.1243C21.8156 17.4185 20.435 20.7344 19.0328 24.0286C18.8171 24.5704 18.9033 24.7005 19.4858 24.7005C20.3702 24.7005 21.2763 24.6571 22.1607 24.6788C22.5275 24.6788 22.7 24.5488 22.8295 24.202C23.1962 23.2267 23.5845 22.2515 24.0159 21.2979C24.1022 21.0812 24.4474 20.8428 24.6631 20.8428C26.7772 20.7994 28.8912 20.7994 31.0053 20.8428C31.221 20.8428 31.5662 21.0378 31.6524 21.2545C32.0839 22.1865 32.4722 23.1401 32.8173 24.1153C32.9683 24.5488 33.2488 24.7221 33.6586 24.7221C34.1332 24.7221 34.5863 24.7221 35.0608 24.7221ZM57.6252 39.2644C57.6252 41.7784 57.6252 44.314 57.6252 46.828C57.6252 47.9117 57.4095 47.9984 58.7901 47.9767C59.4804 47.955 59.5667 47.89 59.5667 47.1965C59.5667 44.9425 59.5667 42.7103 59.5667 40.4563C59.5667 38.5492 59.5236 36.6203 59.5236 34.7131C59.5236 34.5614 59.653 34.3881 59.7393 34.2363C59.8903 34.3447 60.106 34.4097 60.2139 34.5614C61.5298 36.2519 62.8241 37.9423 64.14 39.6328C66.1246 42.1901 68.1524 44.7041 70.1155 47.2832C70.5469 47.8466 71.0215 48.0417 71.6902 47.9984C72.057 47.9767 72.2727 47.825 72.2511 47.4349C72.2511 46.9798 72.2511 46.5463 72.2511 46.0912C72.2511 41.3232 72.2511 36.5553 72.2511 31.7874C72.2511 30.5954 72.2295 30.5954 71.0646 30.6171C70.3959 30.6387 70.3743 30.6604 70.3743 31.3322C70.3743 35.45 70.3743 39.5461 70.3743 43.6639C70.3743 43.8156 70.2665 43.9673 70.2233 44.119C70.0939 44.0323 69.9213 43.9673 69.8135 43.8589C69.2526 43.1654 68.6917 42.4719 68.1524 41.7567C65.4559 38.3108 62.7594 34.8865 60.106 31.3973C59.6099 30.7471 59.0706 30.5304 58.3155 30.5954C57.6468 30.6604 57.6252 30.6604 57.6252 31.3322C57.6252 33.9763 57.6252 36.6203 57.6252 39.2644ZM4.92464 15.9881C4.90307 15.9881 4.90307 15.9881 4.92464 15.9881C4.92464 18.6755 4.92464 21.3412 4.90307 24.0286C4.90307 24.6138 4.98935 24.7221 5.59337 24.7221C8.20359 24.7221 10.8138 24.7221 13.4456 24.7221C14.5026 24.7221 15.5812 24.7221 16.6383 24.7221C17.2207 24.7221 17.3286 24.5921 17.3286 24.0069C17.3286 23.3134 17.3286 22.6199 17.3286 21.9264C17.3286 21.3196 17.2423 21.2112 16.5951 21.2112C14.2438 21.2112 11.8708 21.2112 9.51949 21.2112C8.80761 21.2112 8.72132 21.1245 8.72132 20.4093C8.72132 16.2699 8.72132 12.1088 8.72132 7.96933C8.72132 7.53588 8.57032 7.34083 8.11731 7.34083C7.276 7.34083 6.43468 7.34083 5.59337 7.34083C4.94621 7.34083 4.88149 7.40585 4.88149 8.05602C4.90307 10.7001 4.92464 13.3441 4.92464 15.9881ZM85.2591 48.2584C90.1559 48.4752 94.1683 44.7692 94.384 39.6978C94.5998 34.7348 91.1482 30.5737 86.0788 30.3353C81.0094 30.0752 76.9754 33.8246 76.7812 38.9826C76.5871 43.989 80.1681 48.1501 85.2591 48.2584ZM49.32 38.7225C48.4571 38.7225 47.5942 38.7225 46.7313 38.7225C45.7606 38.7225 45.6959 38.7876 45.739 39.7412C45.7606 40.348 45.8469 40.4347 46.494 40.4347C47.7668 40.4347 49.0395 40.4347 50.3123 40.4347C50.8947 40.4347 51.0026 40.5647 51.0026 41.1499C51.0026 42.0384 50.9595 42.9487 51.0242 43.8372C51.0889 44.6175 50.7222 45.0726 50.0966 45.3977C48.1982 46.3946 46.2352 46.8064 44.1211 46.2646C42.4385 45.8311 41.101 44.8992 40.2597 43.4038C39.0085 41.1932 38.8575 38.8526 39.6988 36.4686C40.2381 34.9515 41.1657 33.7379 42.5895 32.9793C45.135 31.6357 47.6374 31.8741 50.0319 33.3911C51.1536 34.1063 50.8947 34.2147 51.8439 33.1311C52.1675 32.741 52.1675 32.5026 51.7361 32.1991C50.5927 31.3539 49.32 30.7904 47.9178 30.5087C43.0209 29.5118 38.6202 32.2642 37.4338 37.1188C37.0023 38.8959 37.1102 40.6514 37.6495 42.4285C38.4908 45.1376 40.2597 46.9798 42.8915 47.825C46.3215 48.9086 49.5573 48.2584 52.4048 46.0262C52.6205 45.8528 52.8362 45.4844 52.8362 45.2026C52.8794 43.2521 52.8578 41.3016 52.8578 39.3511C52.8578 38.9393 52.6637 38.7225 52.2106 38.7442C51.2399 38.7225 50.2691 38.7225 49.32 38.7225ZM20.9958 39.2644C20.9958 41.9517 20.9958 44.6175 20.9958 47.3048C20.9958 47.8033 21.1684 47.9767 21.643 47.9767C22.5706 47.955 23.4982 47.9767 24.4258 47.9767C27.2086 47.9767 29.9914 47.9767 32.7958 47.9767C33.0331 47.9767 33.4645 47.89 33.4861 47.7816C33.5724 47.3482 33.5939 46.8931 33.5076 46.4813C33.4861 46.3513 33.0331 46.2212 32.7526 46.2212C30.164 46.1995 27.5969 46.2212 25.0082 46.2212C24.4689 46.2212 23.9512 46.2212 23.4119 46.1995C23.0883 46.1995 22.8942 46.0262 22.8942 45.6794C22.8942 44.0106 22.8942 42.3635 22.8942 40.6947C22.8942 40.283 23.1099 40.0879 23.4982 40.1096C23.6708 40.1096 23.8434 40.1096 24.0159 40.1096C26.5614 40.1096 29.1069 40.1096 31.6524 40.1096C31.9545 40.1096 32.2349 40.1096 32.3428 39.7195C32.6016 38.7225 32.3212 38.3108 31.3073 38.3108C31.2641 38.3108 31.1994 38.3108 31.1563 38.3108C28.6755 38.3108 26.1947 38.3324 23.7139 38.3324C23.002 38.3324 22.8726 38.2024 22.8726 37.4872C22.8726 36.1219 22.8726 34.7565 22.8726 33.3911C22.8726 32.4375 22.9158 32.3942 23.8434 32.3942C26.2594 32.3942 28.6539 32.3942 31.07 32.3942C31.6524 32.3942 32.2349 32.3942 32.8173 32.3725C32.9899 32.3725 33.3135 32.2858 33.3135 32.1991C33.3782 31.744 33.3998 31.2672 33.3135 30.8338C33.2919 30.7037 32.8173 30.6171 32.5585 30.6171C28.8696 30.6171 25.2024 30.6171 21.5136 30.6171C21.0821 30.6171 20.9527 30.7688 20.9527 31.2022C21.0174 33.8896 20.9958 36.577 20.9958 39.2644ZM5.29136 39.2644C5.29136 41.8434 5.29136 44.4007 5.29136 46.9798C5.29136 47.9333 5.31293 47.9767 6.26211 47.9767C9.45477 47.9767 12.669 47.9767 15.8617 47.9767C17.0266 47.9767 17.0266 47.9984 17.005 46.8064C16.9834 46.3079 16.8109 46.1562 16.3147 46.1562C13.6182 46.1779 10.9217 46.1779 8.20359 46.1779C7.29757 46.1779 7.29757 46.1779 7.27599 45.246C7.27599 45.0942 7.27599 44.9425 7.27599 44.7692C7.27599 40.3913 7.27599 36.0352 7.29757 31.6573C7.29757 30.5737 7.29757 30.5737 6.21896 30.5954C5.29136 30.617 5.29136 30.617 5.29136 31.5706C5.31293 34.1497 5.29136 36.707 5.29136 39.2644ZM16.9187 56.5156C16.9187 56.8624 16.8756 57.2092 16.9187 57.5559C16.9403 57.7293 17.1129 57.8593 17.2207 58.011C17.3502 57.8593 17.5659 57.7293 17.5875 57.5559C17.6306 57.1441 17.5875 56.7324 17.609 56.3206C17.6306 55.9088 17.8463 55.6054 18.2562 55.6054C18.6876 55.5837 18.8386 55.9088 18.8602 56.2989C18.8818 56.7107 18.8386 57.1225 18.9033 57.5342C18.9249 57.7076 19.1406 57.8593 19.2485 58.011C19.3564 57.8593 19.5505 57.7293 19.5721 57.5559C19.6152 57.1658 19.5937 56.754 19.6152 56.3639C19.6368 55.9521 19.7662 55.5837 20.2624 55.5837C20.7585 55.5837 20.8017 55.9955 20.8448 56.3639C20.8664 56.7757 20.8233 57.1875 20.888 57.5993C20.9095 57.751 21.1468 57.8593 21.2763 57.9894C21.3841 57.8593 21.5567 57.7293 21.5783 57.5776C21.5999 57.0358 21.5999 56.4723 21.5567 55.9305C21.4704 55.0636 20.8017 54.6735 20.0035 55.0636C19.6368 55.237 19.3564 55.2586 18.9896 55.0636C18.7739 54.9552 18.4719 54.9986 18.1915 55.0202C18.0405 55.0202 17.8895 55.1286 17.7385 55.1069C16.9834 55.0636 16.9834 55.0419 16.9619 55.8004C16.9187 56.0388 16.9187 56.2772 16.9187 56.5156ZM73.2434 55.9305C73.2434 55.4537 73.2434 54.9552 73.2434 54.4784C73.2434 54.175 73.2218 53.8499 72.8767 53.8499C72.51 53.8499 72.4668 54.175 72.4884 54.5001C72.5531 55.0853 72.4884 55.1286 71.9059 54.9986C71.1725 54.8252 70.6979 55.0202 70.3096 55.6054C69.9213 56.1905 70.0076 57.0791 70.5038 57.6859C70.8489 58.0977 71.4098 58.2061 72.0785 57.9894C72.2511 57.946 72.4452 57.9243 72.5963 57.9677C73.0061 58.0544 73.2218 57.946 73.2218 57.4909C73.265 56.9708 73.2434 56.4506 73.2434 55.9305ZM4.85992 56.0388C4.85992 56.494 4.83835 56.9274 4.85992 57.3825C4.85992 57.6643 4.79521 57.9894 5.1835 58.0327C5.59337 58.0761 5.5718 57.7076 5.5718 57.4475C5.5718 56.9708 5.76595 56.7324 6.26211 56.7757C6.39154 56.7974 6.4994 56.7757 6.62883 56.754C7.51329 56.624 8.07416 56.0388 8.03102 55.2586C7.98787 54.5218 7.44857 54.045 6.56412 53.98C6.17582 53.9583 5.76595 53.98 5.37765 53.9583C5.01093 53.9366 4.88149 54.1317 4.88149 54.4568C4.85992 54.9986 4.85992 55.5187 4.85992 56.0388ZM35.1471 56.9924C35.1471 57.4476 35.1471 57.9243 35.1256 58.3795C35.1256 58.6612 35.1471 58.9213 35.4923 58.9213C35.8159 58.9213 35.859 58.7046 35.8159 58.4228C35.7511 58.011 35.9453 57.9027 36.3336 57.9894C37.1965 58.2061 37.5416 58.0544 38.0378 57.2742C38.4045 56.7107 38.3614 56.0605 37.9083 55.4537C37.5201 54.9335 37.0455 54.8035 36.3552 54.9986C36.161 55.0636 35.9021 55.1069 35.7296 55.0419C35.2981 54.9119 35.1471 55.0853 35.1256 55.4754C35.1471 55.9955 35.1471 56.494 35.1471 56.9924ZM53.8501 56.5373C53.7854 57.1658 54.1306 57.5993 54.6051 57.9027C55.1229 58.2278 55.7053 58.1627 56.223 57.9027C56.3309 57.8377 56.3956 57.6426 56.4603 57.5126C56.3093 57.4692 56.1583 57.3825 56.0073 57.3825C55.8779 57.3825 55.7485 57.4909 55.619 57.4692C55.3602 57.4475 55.1013 57.3825 54.8424 57.2742C54.7561 57.2308 54.713 57.0358 54.7346 56.9057C54.7346 56.8407 54.9287 56.7757 55.015 56.7757C55.4033 56.754 55.8132 56.7324 56.2015 56.754C56.6113 56.754 56.7839 56.5373 56.7192 56.1689C56.6976 55.9305 56.5898 55.6921 56.4603 55.5187C56.072 54.9552 55.4249 54.7818 54.7561 54.9986C54.26 55.1936 53.8717 55.8438 53.8501 56.5373ZM77.4931 56.7974C77.4931 56.7757 77.4931 56.7757 77.4931 56.7974C77.7088 56.7757 77.9461 56.7757 78.1618 56.7757C78.4639 56.7757 78.6149 56.624 78.5717 56.3206C78.5286 55.7788 78.2697 55.367 77.7951 55.1069C77.3205 54.8469 76.8244 54.8685 76.3714 55.1719C75.6379 55.6704 75.4006 56.5807 75.8105 57.3609C76.1556 58.011 77.0401 58.3144 77.8383 58.011C77.9893 57.946 78.0971 57.7076 78.2266 57.5559C78.0324 57.5126 77.8383 57.4692 77.6441 57.4475C77.3421 57.4259 77.0185 57.4476 76.7165 57.3825C76.6302 57.3609 76.5008 57.1441 76.5224 57.0141C76.5224 56.9274 76.7381 56.8407 76.8675 56.7974C77.0832 56.754 77.2774 56.7974 77.4931 56.7974ZM40.6911 56.7757C40.8206 56.7757 40.9716 56.7757 41.101 56.7757C41.6619 56.7757 41.8776 56.494 41.7266 55.9521C41.4677 55.0202 40.3244 54.6085 39.5263 55.1503C38.9007 55.5837 38.6634 56.6457 39.0301 57.3175C39.3968 57.9894 40.3891 58.3144 41.101 57.946C41.252 57.8593 41.3167 57.6426 41.4246 57.4909C41.252 57.4476 41.0794 57.4042 40.8853 57.3825C40.5401 57.3392 40.195 57.3392 39.8714 57.2958C39.7851 57.2742 39.6988 57.0574 39.7204 56.9491C39.742 56.8624 39.9146 56.7757 40.0224 56.754C40.2381 56.754 40.4754 56.7757 40.6911 56.7757ZM68.3897 56.7757C68.6054 56.7974 68.8211 56.8624 68.9937 56.7757C69.1879 56.689 69.4683 56.4723 69.4683 56.3206C69.4683 55.8004 69.231 55.3237 68.7348 55.1069C68.2818 54.8902 67.7641 54.8035 67.3111 55.1286C66.4914 55.7138 66.3404 56.4073 66.7502 57.2958C67.0738 58.0327 67.9798 58.3361 68.778 57.9894C68.9506 57.9243 69.0584 57.686 69.2094 57.5342C69.0153 57.4909 68.8211 57.4259 68.627 57.4259C68.325 57.4042 68.023 57.4692 67.721 57.4259C67.5915 57.4042 67.5268 57.1441 67.4405 56.9924C67.57 56.9274 67.721 56.8191 67.8504 56.7757C68.0445 56.754 68.2171 56.7757 68.3897 56.7757ZM24.1454 56.7757C24.3395 56.7757 24.5121 56.7757 24.7062 56.7757C25.0514 56.7757 25.1593 56.5807 25.1593 56.2772C25.1377 55.5837 24.5121 54.9552 23.8218 54.9335C23.1315 54.9119 22.6569 55.1936 22.398 55.8004C22.0744 56.5373 22.2039 57.1875 22.7647 57.7293C23.153 58.0977 23.9944 58.2278 24.4905 57.946C24.6415 57.8593 24.7062 57.6426 24.8141 57.4909C24.6415 57.4692 24.4474 57.4259 24.2748 57.4042C23.9512 57.3825 23.6061 57.4042 23.2825 57.3392C23.1962 57.3175 23.0883 57.1225 23.1099 57.0141C23.1315 56.9057 23.2825 56.7757 23.3688 56.7757C23.6276 56.754 23.9081 56.7757 24.1454 56.7757ZM86.0788 56.7757C86.2082 56.7757 86.3161 56.7757 86.4455 56.7757C87.0711 56.754 87.2221 56.5373 87.0495 55.9305C86.7691 54.9986 85.6042 54.6085 84.8276 55.1936C84.2452 55.6271 84.0079 56.559 84.3099 57.1441C84.7413 57.9894 85.5179 58.3361 86.3592 58.011C86.5534 57.946 86.6613 57.7076 86.8123 57.5342C86.5965 57.5126 86.4024 57.4692 86.1867 57.4475C85.8847 57.4259 85.5826 57.4476 85.3022 57.3825C85.1944 57.3609 85.0649 57.1441 85.0865 57.0358C85.0865 56.9491 85.2806 56.819 85.4101 56.7974C85.6258 56.754 85.8631 56.7757 86.0788 56.7757ZM11.1374 56.9274C11.159 56.9274 11.159 56.9274 11.1805 56.9274C11.1374 56.559 11.1158 56.2122 11.0727 55.8438C11.008 55.3453 10.706 55.0636 10.2314 54.9986C9.90779 54.9552 9.54106 54.9552 9.21748 55.0202C9.06648 55.0419 8.93704 55.2586 8.80761 55.3887C8.98019 55.4537 9.17434 55.562 9.36849 55.6054C9.64892 55.6704 9.92936 55.6704 10.2098 55.7354C10.2745 55.7571 10.3824 55.9305 10.3608 56.0172C10.3392 56.1039 10.1882 56.1905 10.1019 56.1905C9.88622 56.2122 9.64892 56.1689 9.4332 56.2122C8.80761 56.2989 8.33303 56.7974 8.39774 57.2958C8.48403 57.8593 9.08805 58.2278 9.75678 58.0977C10.0156 58.0544 10.3177 57.9677 10.555 58.011C11.008 58.0977 11.159 57.9243 11.159 57.5126C11.1374 57.3175 11.1374 57.1225 11.1374 56.9274ZM48.1767 56.4723C48.1767 56.819 48.1335 57.1658 48.1982 57.5126C48.2198 57.6859 48.414 57.8377 48.5434 57.9894C48.6728 57.816 48.867 57.6643 48.8885 57.4692C48.9533 57.0791 48.8885 56.689 48.9317 56.2772C48.9533 55.8871 49.0827 55.562 49.5788 55.562C50.0534 55.562 50.1829 55.8655 50.2044 56.2772C50.226 56.689 50.1829 57.1008 50.2476 57.5126C50.2691 57.6859 50.4202 57.8377 50.528 57.9894C50.679 57.8593 50.9595 57.7076 50.9595 57.5776C50.981 56.9708 50.981 56.3423 50.8732 55.7354C50.7437 55.0636 50.2691 54.8252 49.6004 54.9552C49.32 54.9986 49.018 55.0419 48.7375 55.0202C48.3708 54.9986 48.2198 55.1286 48.2198 55.4754C48.1767 55.8221 48.1767 56.1472 48.1767 56.4723ZM59.7824 56.6023C59.804 56.6023 59.804 56.6023 59.8256 56.6023C59.8256 56.8841 59.8256 57.1441 59.8256 57.4259C59.8256 57.686 59.8256 58.011 60.1923 57.9894C60.559 57.9677 60.5806 57.6643 60.5806 57.3825C60.5806 57.0141 60.559 56.6673 60.5806 56.2989C60.6237 55.9088 60.8179 55.6054 61.2493 55.5837C61.7024 55.562 61.8318 55.9088 61.8534 56.2772C61.8749 56.7107 61.8318 57.1441 61.8965 57.5559C61.9181 57.7076 62.1554 57.8593 62.2848 57.9894C62.3927 57.8377 62.5868 57.7076 62.5868 57.5342C62.63 57.0358 62.6084 56.5373 62.5868 56.0388C62.5437 55.1936 61.9612 54.7818 61.1415 54.9552C60.8826 55.0202 60.6022 55.0419 60.3433 55.0202C60.0197 54.9769 59.8903 55.1286 59.8687 55.4103C59.8256 55.8221 59.804 56.2122 59.7824 56.6023ZM90.1991 56.6023C90.1775 56.6023 90.1775 56.6023 90.1559 56.6023C90.1559 56.9057 90.1128 57.2092 90.1775 57.4692C90.2206 57.6643 90.4148 57.816 90.5227 57.9894C90.6521 57.816 90.8678 57.6643 90.8894 57.4692C90.9541 57.0791 90.8894 56.6673 90.9325 56.2772C90.9757 55.9088 91.0835 55.5404 91.5797 55.562C92.0758 55.5837 92.2053 55.9305 92.2268 56.3423C92.2484 56.7107 92.1837 57.0791 92.2268 57.4259C92.27 57.6426 92.4641 57.816 92.5936 58.011C92.7014 57.8377 92.8956 57.6643 92.9172 57.4692C92.9603 57.0141 92.9387 56.5373 92.8956 56.0822C92.8309 55.1719 92.3994 54.8469 91.4934 54.9986C91.2561 55.0419 90.9757 55.1069 90.7384 55.0636C90.3285 54.9769 90.1991 55.1719 90.1775 55.5187C90.1991 55.8655 90.1991 56.2339 90.1991 56.6023ZM25.8927 56.494C25.8927 56.8624 25.8711 57.2308 25.9143 57.5776C25.9358 57.7293 26.1084 57.881 26.2163 58.011C26.3241 57.8593 26.5183 57.7293 26.5399 57.5776C26.583 57.1441 26.5399 56.7107 26.583 56.2989C26.6262 55.9088 26.7987 55.5837 27.2517 55.5837C27.7263 55.5837 27.8989 55.9088 27.9205 56.3423C27.942 56.754 27.8773 57.1658 27.9205 57.5776C27.942 57.751 28.1146 57.881 28.2225 58.0327C28.3735 57.881 28.6108 57.751 28.6324 57.5993C28.6755 57.0358 28.6755 56.4506 28.6108 55.9088C28.5245 55.1503 27.9636 54.8469 27.2302 54.9986C26.9713 55.0636 26.6909 55.0636 26.432 55.0419C26.0868 54.9986 25.9143 55.1286 25.8927 55.4754C25.8927 55.8004 25.8927 56.1472 25.8927 56.494ZM80.1249 58.1194C80.9015 58.1194 81.3114 57.8377 81.3977 57.3825C81.5055 56.8407 81.3114 56.5373 80.6426 56.2772C80.3622 56.1689 79.866 56.1905 79.9955 55.7354C80.1033 55.3453 80.5132 55.5837 80.7936 55.6054C80.9231 55.6271 81.0741 55.497 81.2035 55.432C81.1172 55.302 81.0525 55.1069 80.9231 55.0636C80.6642 54.9769 80.3838 54.9335 80.1249 54.9552C79.6719 54.9986 79.3052 55.2153 79.2189 55.7138C79.1326 56.1905 79.3915 56.4723 79.7798 56.6457C79.9739 56.7324 80.1896 56.754 80.3406 56.8624C80.4701 56.9491 80.5779 57.1008 80.6858 57.2308C80.5348 57.3175 80.4053 57.4692 80.2328 57.4909C80.0602 57.5126 79.8661 57.3825 79.6935 57.3825C79.5425 57.3825 79.3699 57.4692 79.2189 57.5126C79.3052 57.6643 79.3699 57.8593 79.4993 57.946C79.715 58.0544 79.9955 58.076 80.1249 58.1194ZM51.9733 56.6023C51.9302 56.624 51.8871 56.624 51.8439 56.6457C51.8655 56.9274 51.8655 57.2092 51.9302 57.4692C52.0596 57.9677 52.5126 58.2278 53.0088 58.0544C53.1382 58.011 53.2245 57.8593 53.3324 57.7726C53.2461 57.6643 53.1598 57.5126 53.0519 57.4692C52.4048 57.2742 52.6205 56.7324 52.5774 56.2989C52.5558 55.9305 52.5989 55.6054 53.0735 55.5404C53.1598 55.5187 53.2892 55.3887 53.2892 55.302C53.2892 55.2153 53.203 55.0419 53.1167 55.0419C52.7499 54.9769 52.6205 54.7385 52.5342 54.4134C52.5126 54.305 52.3185 54.175 52.2106 54.1533C52.1244 54.1317 51.9949 54.2834 51.9302 54.3917C51.8008 54.5868 51.6929 54.8035 51.6282 55.0419C51.585 55.1719 51.585 55.3453 51.6066 55.4754C51.7145 55.8655 51.8655 56.2339 51.9733 56.6023ZM29.6894 56.6457C29.6462 56.6673 29.6031 56.6673 29.56 56.689C29.5815 56.9274 29.56 57.1658 29.6031 57.4042C29.6894 57.9243 30.164 58.2278 30.6817 58.0544C30.8111 58.011 30.8974 57.8593 31.0269 57.7726C30.9406 57.6643 30.8543 57.5126 30.7464 57.4692C30.4013 57.3609 30.2934 57.1225 30.2934 56.7974C30.2934 56.5807 30.2934 56.3423 30.2934 56.1255C30.2934 55.8221 30.3797 55.5837 30.7248 55.5404C30.8327 55.5187 30.919 55.3887 31.0269 55.302C30.9406 55.1936 30.8543 55.0853 30.7464 54.9769C30.5954 54.8035 30.466 54.6518 30.2934 54.4784C30.164 54.3484 30.0561 54.1967 29.9051 54.1533C29.8404 54.1317 29.6678 54.3267 29.5815 54.4568C29.4737 54.6301 29.3874 54.8252 29.3227 55.0202C29.2795 55.1503 29.2579 55.3237 29.3011 55.4537C29.4305 55.8655 29.56 56.2556 29.6894 56.6457ZM11.6767 55.367C12.0434 56.2339 12.367 57.0574 12.7769 57.8593C12.9495 58.1844 13.3377 58.1411 13.5103 57.7726C13.8555 57.0358 14.1791 56.2989 14.4595 55.5404C14.5026 55.4103 14.3732 55.1936 14.3301 55.0202C14.1791 55.1069 13.9418 55.1719 13.8555 55.302C13.6829 55.6054 13.5966 55.9738 13.4456 56.2989C13.3593 56.4723 13.2299 56.6023 13.122 56.7757C13.0142 56.624 12.9063 56.494 12.82 56.3423C12.6474 55.9738 12.518 55.5837 12.3023 55.2153C12.2376 55.1069 12.0219 55.0636 11.8708 55.0636C11.8277 55.0636 11.763 55.2586 11.6767 55.367ZM82.3468 56.624C82.3253 56.6457 82.2821 56.6457 82.2605 56.6673C82.2605 56.8841 82.239 57.1225 82.2605 57.3392C82.3253 57.9243 82.9077 58.2928 83.4254 58.0544C83.5549 58.011 83.6627 57.8593 83.7059 57.7293C83.7274 57.6643 83.5549 57.4909 83.447 57.4909C82.843 57.3825 82.9077 56.9274 82.9293 56.5373C82.9509 56.1472 82.8214 55.6704 83.447 55.562C83.5549 55.5404 83.6843 55.3887 83.6843 55.302C83.6843 55.2153 83.5549 55.0419 83.447 55.0202C83.1019 54.9552 82.9724 54.7602 82.8861 54.4351C82.8646 54.3267 82.692 54.175 82.5841 54.175C82.4763 54.175 82.3468 54.3267 82.2821 54.4568C82.1743 54.6518 82.0664 54.8469 82.0017 55.0636C81.9585 55.1936 81.9154 55.367 81.9585 55.497C82.0664 55.8438 82.2174 56.2339 82.3468 56.624ZM87.8477 56.5156C87.8477 56.8624 87.8261 57.2092 87.8693 57.5559C87.8909 57.7293 88.0634 57.8593 88.1713 58.011C88.3007 57.8593 88.4517 57.7293 88.538 57.5559C88.5812 57.4692 88.538 57.3175 88.538 57.2092C88.538 56.559 88.6027 55.9738 89.3362 55.6921C89.444 55.6487 89.4656 55.3453 89.5303 55.1719C89.3578 55.1503 89.1636 55.1069 88.991 55.1069C88.8185 55.1069 88.6243 55.1719 88.4733 55.1286C88.0203 54.9986 87.8693 55.0853 87.8261 55.5404C87.8261 55.8655 87.8477 56.1905 87.8477 56.5156ZM57.4742 56.494C57.4958 56.494 57.4958 56.494 57.4742 56.494C57.4742 56.8624 57.4527 57.2525 57.4958 57.6209C57.5174 57.751 57.7115 57.881 57.841 58.011C57.9488 57.881 58.1214 57.7726 58.1645 57.6209C58.2292 57.4259 58.1645 57.2092 58.1645 57.0141C58.1645 56.4506 58.3155 55.9738 58.898 55.7138C59.049 55.6487 59.0921 55.367 59.1784 55.1936C58.9843 55.1719 58.7901 55.1286 58.596 55.1069C58.4234 55.0853 58.2292 55.1503 58.0782 55.1069C57.6684 54.9986 57.4958 55.0853 57.4742 55.5187C57.4742 55.8438 57.4742 56.1689 57.4742 56.494ZM42.4385 56.494C42.4385 56.8841 42.4169 57.2525 42.4816 57.6209C42.5032 57.7726 42.6973 57.881 42.8052 58.011C42.9131 57.8593 43.0425 57.7293 43.1504 57.5776C43.1935 57.5342 43.1504 57.4476 43.1504 57.3825C43.1504 56.6673 43.1288 55.9521 43.9917 55.6271C44.0995 55.5837 44.0995 55.302 44.1427 55.1286C43.9701 55.1069 43.7975 55.0853 43.625 55.0853C43.4524 55.0853 43.2367 55.1719 43.0856 55.1069C42.6758 54.9552 42.4601 55.0636 42.4169 55.497C42.4169 55.8221 42.4385 56.1472 42.4385 56.494ZM31.825 56.4723C31.825 56.8624 31.7819 57.2742 31.825 57.6643C31.8466 57.7943 32.0407 57.9027 32.1702 58.0327C32.278 57.9243 32.4722 57.7943 32.4722 57.6859C32.4938 56.9057 32.4938 56.1255 32.4722 55.367C32.4722 55.237 32.2565 55.1286 32.127 54.9986C32.0192 55.1286 31.8466 55.237 31.825 55.367C31.8035 55.7138 31.825 56.1039 31.825 56.4723ZM94.5135 56.559C94.5135 56.1689 94.5351 55.8004 94.4919 55.432C94.4703 55.2803 94.2978 55.1719 94.1899 55.0419C94.0605 55.1719 93.8448 55.302 93.8232 55.4537C93.78 56.1905 93.78 56.9274 93.8232 57.6859C93.8232 57.816 94.0605 57.946 94.1899 58.0761C94.2978 57.946 94.4703 57.816 94.4919 57.6643C94.5351 57.2742 94.5135 56.9057 94.5135 56.559ZM15.3224 56.5807C15.3008 56.5807 15.3008 56.5807 15.3224 56.5807C15.3008 56.9274 15.2792 57.2742 15.3224 57.5993C15.344 57.751 15.5165 57.881 15.6028 58.011C15.7323 57.881 15.9695 57.751 15.9695 57.6209C16.0127 56.8841 15.9911 56.1472 15.9695 55.4103C15.9695 55.2586 15.7754 55.1286 15.6675 54.9986C15.5597 55.1503 15.3655 55.2803 15.344 55.432C15.2792 55.8221 15.3224 56.1905 15.3224 56.5807ZM47.2706 56.5156C47.2706 56.1472 47.2922 55.7788 47.2491 55.432C47.2275 55.2803 47.0333 55.1286 46.9255 54.9769C46.8176 55.1286 46.6235 55.2803 46.6235 55.432C46.5803 56.1472 46.6019 56.8841 46.6235 57.5993C46.6235 57.7293 46.8176 57.8593 46.9255 58.011C47.0333 57.881 47.2491 57.751 47.2706 57.5993C47.3138 57.2525 47.2706 56.8841 47.2706 56.5156ZM64.1184 56.559C64.14 56.559 64.14 56.559 64.1184 56.559C64.1184 56.1906 64.1616 55.8004 64.0969 55.432C64.0753 55.2803 63.8811 55.1503 63.7517 55.0202C63.6438 55.1503 63.4497 55.2803 63.4497 55.432C63.4281 56.1689 63.4281 56.9057 63.4497 57.6426C63.4497 57.7726 63.6654 57.9027 63.7733 58.0327C63.8811 57.9027 64.0753 57.7943 64.0969 57.6643C64.1616 57.2958 64.1184 56.9274 64.1184 56.559ZM64.3341 54.1967C64.0753 54.0233 63.9459 53.8283 63.8164 53.8499C63.687 53.8716 63.5144 54.045 63.4713 54.175C63.4497 54.24 63.6438 54.4784 63.7733 54.4784C63.9027 54.4784 64.0537 54.3484 64.3341 54.1967ZM47.4864 54.1533C47.2059 54.0016 47.0765 53.8499 46.9255 53.8716C46.796 53.8716 46.7098 54.0667 46.5803 54.175C46.6882 54.2834 46.796 54.5001 46.9255 54.5001C47.0765 54.5001 47.2275 54.3267 47.4864 54.1533ZM32.1486 53.6982C31.9976 53.9149 31.825 54.045 31.825 54.1967C31.825 54.305 32.0407 54.5001 32.127 54.4784C32.278 54.4351 32.429 54.2834 32.4722 54.1533C32.5153 54.045 32.3212 53.9149 32.1486 53.6982ZM16.1637 54.1317C15.9048 54.0016 15.7538 53.8716 15.6028 53.8716C15.495 53.8716 15.4087 54.045 15.3008 54.1533C15.4302 54.2617 15.5381 54.4351 15.6675 54.4568C15.7754 54.4784 15.9264 54.305 16.1637 54.1317ZM94.1683 54.6518C94.3193 54.4351 94.4919 54.305 94.4703 54.1967C94.4488 54.045 94.2762 53.9366 94.1683 53.8066C94.0389 53.9149 93.8448 54.0233 93.8232 54.1533C93.8232 54.2834 93.9958 54.4134 94.1683 54.6518Z" fill="#1A130D"/>
<path d="M-2 62.909C32.1917 62.909 66.3835 62.909 100.662 62.909C100.662 41.2582 100.662 19.6291 100.662 -2C100.705 -1.97833 100.769 -1.95666 100.769 -1.95666C100.769 -1.82662 100.769 -1.67491 100.769 -1.54488C100.769 19.9759 100.769 41.4966 100.769 62.9957C66.6639 62.9957 32.58 62.9957 -1.52541 62.9957C-1.69799 63.0174 -1.849 62.9523 -2 62.909Z" fill="#FFF3E0"/>
<path d="M39.6778 15.9665C39.6778 13.2791 39.6778 10.57 39.6778 7.88263C39.6778 7.5142 39.8288 7.34082 40.1956 7.34082C43.0431 7.36249 45.9122 7.31915 48.7597 7.40584C50.1187 7.44918 51.3915 7.92598 52.3406 8.98793C53.3329 10.1149 53.635 11.4369 53.2898 12.889C53.0741 13.8642 52.5564 14.6228 51.7366 15.1862C51.3483 15.468 51.3699 15.6414 51.7798 15.9014C52.2975 16.2482 52.8368 16.5516 53.2682 16.9851C54.3253 18.0253 54.5194 19.3474 54.2821 20.7777C53.8938 23.2051 51.8229 24.267 49.903 24.5271C48.6734 24.7005 47.4006 24.6788 46.1494 24.7005C44.208 24.7221 42.2665 24.7005 40.325 24.7221C39.7641 24.7221 39.6562 24.6138 39.6562 24.0503C39.6994 21.3629 39.6994 18.6755 39.6778 15.9665ZM46.1063 21.3629C46.1926 21.3629 46.2789 21.3629 46.3652 21.3629C47.3143 21.2979 48.2851 21.3196 49.2343 21.1678C50.054 21.0378 50.5286 20.431 50.6149 19.6291C50.7012 18.9573 50.3129 18.1987 49.6226 17.917C49.0832 17.7003 48.4577 17.5919 47.8752 17.5702C46.5809 17.5052 45.3081 17.5485 44.0138 17.5269C43.5824 17.5269 43.4098 17.7436 43.4098 18.1337C43.4098 19.0223 43.4098 19.8892 43.4098 20.7777C43.4098 21.2112 43.6255 21.3846 44.057 21.3629C44.7473 21.3412 45.4376 21.3629 46.1063 21.3629ZM45.8043 10.7001C45.8043 10.7217 45.8043 10.7217 45.8043 10.7434C45.1787 10.7434 44.5747 10.7434 43.9491 10.7434C43.6039 10.7434 43.4314 10.8951 43.4314 11.2419C43.4314 12.1304 43.4098 13.0407 43.4529 13.9292C43.4529 14.1026 43.7334 14.3844 43.8844 14.3844C45.2434 14.3844 46.6025 14.3844 47.9399 14.2977C48.3498 14.276 48.8028 14.0159 49.1264 13.7559C49.6441 13.3224 49.752 12.7156 49.5794 12.0654C49.3853 11.3719 48.8675 10.9818 48.2204 10.8951C47.4222 10.7434 46.6025 10.7434 45.8043 10.7001Z" fill="#FFF3E0"/>
<path d="M65.6711 25.047C63.2766 24.917 60.99 24.1801 59.2211 22.2513C56.8913 19.7156 56.2441 16.7248 57.1717 13.4089C57.9268 10.7865 59.631 8.92271 62.1117 7.83909C64.7867 6.66878 67.5048 6.69045 70.1366 7.9908C73.5234 9.68125 75.1628 12.5203 75.1197 16.248C75.0766 19.2388 73.7607 21.6661 71.2799 23.3782C69.6404 24.5269 67.8068 25.047 65.6711 25.047ZM71.1504 15.7062C71.2583 13.6473 69.4678 11.155 66.9655 10.6999C65.0671 10.3531 63.4492 10.8082 62.1549 12.2386C60.7527 13.799 60.4507 15.6412 60.99 17.6567C61.8313 20.9076 65.4338 22.4897 68.4108 20.9076C70.2444 19.9106 71.0642 18.2419 71.1504 15.7062Z" fill="#FFF3E0"/>
<path d="M78.5078 16.053C78.5078 13.3656 78.5078 10.6565 78.5078 7.96913C78.5078 7.57903 78.6157 7.3623 79.0255 7.3623C81.9378 7.38398 84.85 7.34063 87.7407 7.47067C89.2291 7.53568 90.5882 8.16419 91.6021 9.3345C92.7238 10.6132 93.0258 12.1736 92.8748 13.8424C92.6807 15.7929 91.7315 17.2449 90.0057 18.1769C89.2938 18.567 89.2938 18.6537 89.7469 19.3255C90.7607 20.7992 91.7531 22.2946 92.7454 23.7684C92.918 24.0068 93.0042 24.2885 93.1337 24.5702C92.8317 24.6353 92.5297 24.7219 92.2277 24.7219C91.3432 24.7436 90.4803 24.7219 89.5959 24.7436C89.2076 24.7436 88.9271 24.6569 88.6898 24.2885C87.7407 22.8148 86.7268 21.3627 85.7776 19.889C85.454 19.3905 85.0657 19.0871 84.4401 19.1521C83.9655 19.2171 83.4694 19.1521 82.9948 19.1738C82.4124 19.1738 82.3045 19.2822 82.3045 19.8673C82.3045 21.276 82.2829 22.7064 82.3261 24.1151C82.3261 24.5702 82.1103 24.7003 81.7436 24.7003C80.8592 24.7003 79.9531 24.7003 79.0687 24.7003C78.702 24.7003 78.5294 24.5269 78.5294 24.1151C78.5078 21.4277 78.5078 18.7403 78.5078 16.053ZM82.3045 13.2789C82.3045 13.9074 82.3045 14.5576 82.3045 15.1861C82.3045 15.5545 82.4771 15.7495 82.8222 15.7495C84.2244 15.7279 85.605 15.7495 87.0072 15.6845C88.0211 15.6195 88.7761 14.861 88.9703 13.864C89.2076 12.7587 88.8408 11.7185 87.9564 11.2633C87.4818 11.0249 86.9209 10.8732 86.3816 10.8516C85.2167 10.7866 84.0518 10.8516 82.8654 10.8299C82.4339 10.8299 82.2829 11.0249 82.2829 11.4367C82.3045 12.0436 82.3045 12.6721 82.3045 13.2789Z" fill="#FFF3E0"/>
<path d="M35.0599 24.7221C34.5853 24.7221 34.1323 24.7221 33.6577 24.7221C33.2478 24.7221 32.9674 24.5704 32.8164 24.1153C32.4712 23.14 32.0829 22.1864 31.6515 21.2545C31.5652 21.0595 31.2416 20.8644 31.0043 20.8427C28.8902 20.8211 26.7762 20.8211 24.6621 20.8427C24.4464 20.8427 24.1012 21.0811 24.0149 21.2979C23.5835 22.2515 23.1952 23.2267 22.8285 24.202C22.699 24.5487 22.5265 24.7004 22.1597 24.6788C21.2753 24.6571 20.3693 24.7004 19.4848 24.7004C18.9024 24.7004 18.8161 24.5487 19.0318 24.0286C20.434 20.7344 21.8146 17.4402 23.2168 14.1243C24.0365 12.1954 24.8347 10.2883 25.6329 8.35941C25.7407 8.09934 25.827 7.79593 25.9996 7.5792C26.1074 7.42749 26.3447 7.25411 26.5173 7.23244C27.4018 7.1891 28.3078 7.16742 29.1922 7.23244C29.4511 7.25411 29.7747 7.55753 29.8826 7.8176C31.22 10.9168 32.5143 14.0376 33.8302 17.1584C34.4774 18.6755 35.1461 20.1926 35.8149 21.7096C36.16 22.4899 36.462 23.3134 36.764 24.1153C36.9582 24.6138 36.8503 24.7438 36.3326 24.7438C35.9227 24.7221 35.4913 24.7221 35.0599 24.7221ZM27.9411 12.1304C27.8763 12.1304 27.8116 12.1521 27.7469 12.1521C27.6606 12.3255 27.5743 12.4772 27.5096 12.6506C26.9487 14.0159 26.4094 15.3813 25.8486 16.7466C25.6113 17.3101 25.6544 17.3968 26.2584 17.4185C27.3802 17.4402 28.4804 17.4402 29.6021 17.4402C30.012 17.4402 30.0983 17.2668 29.9257 16.855C29.5158 15.8581 29.106 14.8611 28.6745 13.8642C28.4372 13.2791 28.1784 12.7156 27.9411 12.1304Z" fill="#FFF3E0"/>
<path d="M57.6245 39.2643C57.6245 36.6202 57.6245 33.9762 57.6245 31.3322C57.6245 30.6603 57.6461 30.6603 58.3148 30.5953C59.0699 30.5086 59.6092 30.7253 60.1053 31.3972C62.7587 34.8648 65.4552 38.3107 68.1517 41.7566C68.691 42.4718 69.2519 43.1653 69.8128 43.8588C69.899 43.9672 70.0716 44.0322 70.2226 44.1189C70.2873 43.9672 70.3736 43.8155 70.3736 43.6638C70.3736 39.546 70.3736 35.4499 70.3736 31.3322C70.3736 30.6603 70.3952 30.6387 71.0639 30.617C72.2288 30.5953 72.2504 30.5953 72.2504 31.7873C72.2504 36.5552 72.2504 41.3232 72.2504 46.0911C72.2504 46.5462 72.2288 46.9797 72.2504 47.4348C72.2504 47.8249 72.0563 47.9766 71.6895 47.9983C71.0208 48.0416 70.5462 47.8466 70.1148 47.2831C68.1517 44.7041 66.1239 42.1901 64.1393 39.6327C62.8234 37.9423 61.5291 36.2518 60.2132 34.5614C60.1053 34.4097 59.8896 34.3446 59.7386 34.2363C59.6739 34.388 59.5229 34.5614 59.5229 34.7131C59.5229 36.6202 59.5444 38.5491 59.566 40.4563C59.566 42.7102 59.566 44.9425 59.566 47.1964C59.566 47.8899 59.5013 47.9549 58.7894 47.9766C57.4088 47.9983 57.6245 47.9116 57.6245 46.828C57.6245 44.314 57.6245 41.8 57.6245 39.2643Z" fill="#FFF3E0"/>
<path d="M4.92438 15.9881C4.92438 13.3441 4.92438 10.7001 4.92438 8.05601C4.92438 7.42751 4.9891 7.34082 5.63626 7.34082C6.47757 7.34082 7.31888 7.34082 8.16019 7.34082C8.61321 7.34082 8.76421 7.53587 8.76421 7.96932C8.74264 12.1088 8.76421 16.2699 8.76421 20.4093C8.76421 21.1245 8.8505 21.2112 9.56238 21.2112C11.9137 21.2112 14.2867 21.2112 16.638 21.2112C17.2852 21.2112 17.3715 21.2979 17.3715 21.9264C17.3715 22.6199 17.3715 23.3134 17.3715 24.0069C17.3715 24.5921 17.2636 24.7005 16.6812 24.7221C15.6241 24.7221 14.5455 24.7221 13.4885 24.7221C10.8783 24.7221 8.26806 24.7221 5.63626 24.7221C5.03224 24.7221 4.94595 24.6354 4.94595 24.0286C4.90281 21.3412 4.90281 18.6755 4.92438 15.9881C4.90281 15.9881 4.90281 15.9881 4.92438 15.9881Z" fill="#FFF3E0"/>
<path d="M85.2597 48.2591C80.1687 48.1291 76.6093 43.9896 76.8035 38.9833C76.9976 33.8253 81.0316 30.0759 86.101 30.336C91.1705 30.5961 94.6004 34.7355 94.4063 39.6985C94.1474 44.7698 90.135 48.4758 85.2597 48.2591ZM85.7775 46.482C87.2228 46.4169 88.776 45.9618 90.0487 44.7915C91.8824 43.0794 92.5295 40.9121 92.3138 38.4632C92.0334 35.494 89.8546 32.7416 86.6835 32.2432C82.8652 31.6363 79.3921 34.1937 78.896 38.0514C78.6371 40.0669 78.9607 41.9741 80.1256 43.6212C81.3983 45.485 83.2535 46.3953 85.7775 46.482Z" fill="#FFF3E0"/>
<path d="M49.3194 38.7228C50.2902 38.7228 51.2393 38.7445 52.2101 38.7228C52.6631 38.7011 52.8573 38.9179 52.8573 39.3296C52.8573 41.2802 52.8788 43.2307 52.8357 45.1812C52.8357 45.4629 52.6415 45.8314 52.4042 46.0047C49.5351 48.237 46.3209 48.9089 42.8909 47.8036C40.2592 46.9583 38.4902 45.1378 37.6489 42.4071C37.1096 40.63 37.0018 38.8745 37.4332 37.0974C38.5981 32.2427 43.0204 29.512 47.9172 30.4873C49.341 30.769 50.5922 31.3542 51.7355 32.1777C52.1669 32.4811 52.1669 32.7412 51.8434 33.1096C50.8942 34.1933 51.1746 34.0849 50.0313 33.3697C47.6368 31.8526 45.1344 31.6142 42.5889 32.9579C41.1652 33.7165 40.2376 34.9301 39.6983 36.4472C38.857 38.8312 39.0295 41.1935 40.2592 43.3824C41.1005 44.8778 42.4379 45.8097 44.1206 46.2431C46.2346 46.785 48.1977 46.3732 50.096 45.3762C50.7216 45.0512 51.0883 44.596 51.0236 43.8158C50.9589 42.9273 51.002 42.017 51.002 41.1284C51.002 40.5433 50.8726 40.4349 50.3117 40.4133C49.039 40.4133 47.7662 40.4133 46.4935 40.4133C45.8679 40.4133 45.76 40.3266 45.7385 39.7197C45.7169 38.7661 45.7816 38.7011 46.7308 38.7011C47.5937 38.7228 48.4565 38.7228 49.3194 38.7228Z" fill="#FFF3E0"/>
<path d="M20.9951 39.2647C20.9951 36.5773 20.9951 33.8682 20.9951 31.1809C20.9951 30.7474 21.1245 30.5957 21.556 30.5957C25.2448 30.5957 28.9121 30.5957 32.6009 30.5957C32.8598 30.5957 33.3343 30.6824 33.3559 30.8124C33.4422 31.2459 33.3991 31.7227 33.3559 32.1778C33.3559 32.2645 33.0323 32.3512 32.8598 32.3512C32.2773 32.3728 31.6949 32.3728 31.1124 32.3728C28.6964 32.3728 26.3018 32.3728 23.8858 32.3728C22.9582 32.3728 22.915 32.4162 22.915 33.3698C22.915 34.7351 22.915 36.1005 22.915 37.4659C22.915 38.1811 23.0445 38.3111 23.7563 38.3111C26.2371 38.3111 28.7179 38.3111 31.1987 38.2894C31.2419 38.2894 31.3066 38.2894 31.3497 38.2894C32.3636 38.2894 32.644 38.6795 32.3852 39.6981C32.2773 40.0882 31.9969 40.0882 31.6949 40.0882C29.1494 40.0882 26.6039 40.0882 24.0584 40.0882C23.8858 40.0882 23.7132 40.0882 23.5406 40.0882C23.1308 40.0666 22.9366 40.2616 22.9366 40.6734C22.9366 42.3422 22.9366 43.9893 22.9366 45.6581C22.9366 46.0048 23.1092 46.1565 23.4543 46.1782C23.9936 46.1782 24.5114 46.1999 25.0507 46.1999C27.6393 46.1999 30.2064 46.1999 32.795 46.1999C33.0539 46.1999 33.5069 46.3299 33.5501 46.4599C33.6364 46.8717 33.6148 47.3485 33.5285 47.7603C33.5069 47.8687 33.0755 47.9553 32.8382 47.9553C30.0554 47.977 27.2726 47.9553 24.4682 47.9553C23.5406 47.9553 22.613 47.9337 21.6854 47.9553C21.1893 47.977 21.0167 47.782 21.0383 47.2835C21.0167 44.6395 20.9951 41.9521 20.9951 39.2647Z" fill="#FFF3E0"/>
<path d="M5.29199 39.2647C5.29199 36.7073 5.29199 34.15 5.29199 31.5926C5.29199 30.639 5.29199 30.639 6.21959 30.6173C7.2982 30.5957 7.2982 30.5957 7.2982 31.6793C7.2982 36.0571 7.2982 40.4133 7.27662 44.7911C7.27662 44.9428 7.27662 45.0945 7.27662 45.2679C7.2982 46.1782 7.2982 46.1998 8.20422 46.1998C10.9007 46.1998 13.5972 46.1998 16.3153 46.1782C16.7899 46.1782 16.9841 46.3299 17.0056 46.8283C17.0272 48.0203 17.0488 47.9987 15.8623 47.9987C12.6696 47.977 9.4554 47.9987 6.26274 47.9987C5.31356 47.9987 5.29199 47.9553 5.29199 47.0017C5.29199 44.401 5.29199 41.822 5.29199 39.2647Z" fill="#FFF3E0"/>
<path d="M16.9191 56.5156C16.9191 56.2772 16.9191 56.0388 16.9191 55.8004C16.9407 55.0419 16.9407 55.0419 17.6957 55.1069C17.8467 55.1069 17.9977 55.0202 18.1487 55.0202C18.4076 55.0202 18.7312 54.9552 18.9469 55.0635C19.3136 55.2586 19.5941 55.2369 19.9608 55.0635C20.759 54.6734 21.4493 55.0635 21.514 55.9304C21.5571 56.4722 21.5571 57.0357 21.5355 57.5775C21.5355 57.7076 21.3414 57.8593 21.2335 57.9893C21.1041 57.8593 20.8668 57.7509 20.8452 57.5992C20.7805 57.1874 20.8237 56.7756 20.8021 56.3639C20.7805 55.9954 20.7374 55.5837 20.2196 55.5837C19.7235 55.5837 19.5941 55.9521 19.5725 56.3639C19.5509 56.754 19.5941 57.1658 19.5293 57.5559C19.5078 57.7076 19.3136 57.8593 19.2058 58.011C19.0763 57.8593 18.8822 57.7076 18.8606 57.5342C18.7959 57.1224 18.839 56.7106 18.8175 56.2989C18.7959 55.9088 18.6449 55.5837 18.2134 55.6053C17.8036 55.627 17.5663 55.9088 17.5663 56.3205C17.5447 56.7323 17.5879 57.1441 17.5447 57.5559C17.5231 57.7292 17.3074 57.8593 17.178 58.011C17.0701 57.8593 16.8975 57.7076 16.876 57.5559C16.876 57.2091 16.9191 56.8623 16.9191 56.5156Z" fill="#FFF3E0"/>
<path d="M73.243 55.9302C73.243 56.4503 73.2646 56.9704 73.243 57.4906C73.2214 57.9457 73.0273 58.0541 72.6174 57.9674C72.4449 57.924 72.2507 57.9457 72.0997 57.989C71.4525 58.2058 70.8701 58.0974 70.5249 57.6856C70.0288 57.0788 69.9425 56.2119 70.3308 55.6051C70.7191 54.9982 71.2152 54.8249 71.9271 54.9982C72.5096 55.1283 72.5743 55.0849 72.5096 54.4998C72.488 54.1747 72.5311 53.8496 72.8979 53.8496C73.243 53.8496 73.2646 54.1747 73.2646 54.4781C73.243 54.9549 73.243 55.4534 73.243 55.9302ZM72.4664 56.5153C72.4449 55.8651 72.1428 55.5184 71.6035 55.5401C71.1074 55.5617 70.7838 55.9518 70.7838 56.537C70.7838 57.0571 71.2152 57.4906 71.6683 57.4689C72.1644 57.4689 72.488 57.0571 72.4664 56.5153Z" fill="#FFF3E0"/>
<path d="M4.86058 56.039C4.86058 55.5189 4.86058 54.9988 4.86058 54.4786C4.86058 54.1535 4.99001 53.9585 5.35674 53.9802C5.74503 54.0018 6.1549 53.9802 6.5432 54.0018C7.44923 54.0452 7.98853 54.522 8.0101 55.2805C8.05325 56.0607 7.49237 56.6675 6.60792 56.7759C6.50006 56.7976 6.37062 56.7976 6.24119 56.7976C5.74503 56.7542 5.55088 56.971 5.55088 57.4694C5.55088 57.7295 5.59403 58.0979 5.16259 58.0546C4.77429 58.0112 4.83901 57.6861 4.83901 57.4044C4.83901 56.9276 4.86058 56.4725 4.86058 56.039ZM5.57246 55.3672C5.57246 55.9307 5.76661 56.1257 6.30591 56.1041C6.82364 56.1041 7.27665 55.7573 7.27665 55.3889C7.27665 54.9554 6.84521 54.6087 6.24119 54.6087C5.76661 54.6087 5.55088 54.8471 5.57246 55.3672Z" fill="#FFF3E0"/>
<path d="M35.1474 56.9929C35.1474 56.4944 35.1474 55.9959 35.1474 55.4975C35.1474 55.1073 35.32 54.934 35.7514 55.064C35.9456 55.129 36.1829 55.064 36.377 55.0207C37.0673 54.8256 37.5419 54.9556 37.9302 55.4758C38.3832 56.0826 38.4264 56.7328 38.0596 57.2963C37.5635 58.0765 37.2183 58.2282 36.3554 58.0115C35.9671 57.9031 35.773 58.0331 35.8377 58.4449C35.8809 58.7266 35.8377 58.9434 35.5141 58.9434C35.1474 58.9434 35.1258 58.6833 35.1474 58.4016C35.1474 57.9248 35.1474 57.4697 35.1474 56.9929ZM35.8809 56.4727C35.8809 57.0795 36.1829 57.4696 36.679 57.4913C37.1105 57.513 37.6066 57.0145 37.6282 56.5594C37.6498 56.0609 37.1752 55.5625 36.7006 55.5408C36.226 55.5408 35.8809 55.9309 35.8809 56.4727Z" fill="#FFF3E0"/>
<path d="M53.8496 56.5371C53.8712 55.8435 54.2595 55.1934 54.7772 55.02C55.4459 54.8033 56.0931 54.9766 56.4814 55.5401C56.6108 55.7352 56.6971 55.9736 56.7403 56.1903C56.7834 56.5587 56.6324 56.7755 56.2225 56.7755C55.8342 56.7755 55.4244 56.7755 55.0361 56.7971C54.9282 56.7971 54.7556 56.8838 54.7556 56.9272C54.7341 57.0355 54.7988 57.2523 54.8635 57.2956C55.1008 57.404 55.3596 57.4473 55.6401 57.4906C55.7695 57.5123 55.8989 57.3823 56.0284 57.404C56.1794 57.404 56.3304 57.4907 56.4814 57.534C56.3951 57.664 56.352 57.8591 56.2441 57.9241C55.7048 58.1842 55.1439 58.2492 54.6262 57.9241C54.13 57.599 53.7849 57.1656 53.8496 56.5371ZM55.2949 56.4504C55.5754 56.2553 55.7695 56.1253 55.9637 55.9953C55.7479 55.8435 55.5322 55.5835 55.3165 55.5835C55.1223 55.5835 54.9066 55.8435 54.6909 55.9953C54.8635 56.1036 55.0576 56.2553 55.2949 56.4504Z" fill="#FFF3E0"/>
<path d="M77.4926 56.7974C77.2769 56.7974 77.0828 56.7757 76.867 56.7974C76.7376 56.8191 76.5219 56.9274 76.5219 57.0141C76.5003 57.1442 76.6297 57.3609 76.716 57.3826C77.018 57.4476 77.3416 57.4042 77.6436 57.4476C77.8378 57.4692 78.0319 57.5126 78.2261 57.5559C78.0966 57.7076 78.0104 57.946 77.8378 58.0111C77.0396 58.3145 76.1552 58.0111 75.81 57.3609C75.4001 56.5807 75.6159 55.6704 76.3709 55.172C76.8239 54.8686 77.3201 54.8686 77.7946 55.107C78.2692 55.367 78.5065 55.7788 78.5712 56.3206C78.5928 56.624 78.4634 56.7757 78.1614 56.7757C77.9456 56.7757 77.7084 56.7757 77.4926 56.7974C77.4926 56.7757 77.4926 56.7757 77.4926 56.7974ZM77.1043 56.4506C77.3632 56.2556 77.5573 56.1256 77.7299 55.9955C77.5358 55.8438 77.3201 55.5837 77.1475 55.5837C76.9318 55.5837 76.716 55.8438 76.4787 55.9955C76.6729 56.1256 76.8455 56.2556 77.1043 56.4506Z" fill="#FFF3E0"/>
<path d="M40.6909 56.7754C40.4752 56.7754 40.2379 56.7537 40.0222 56.7754C39.9143 56.7971 39.7417 56.8837 39.7201 56.9704C39.6986 57.0788 39.8064 57.2955 39.8712 57.3172C40.1947 57.3822 40.5399 57.3822 40.885 57.4039C41.0576 57.4256 41.2302 57.4689 41.4243 57.5122C41.3165 57.664 41.2518 57.9024 41.1008 57.9674C40.3889 58.3358 39.4181 58.0107 39.0298 57.3389C38.6415 56.667 38.9004 55.5834 39.526 55.1716C40.3242 54.6298 41.4675 55.0416 41.7263 55.9735C41.8774 56.5153 41.6832 56.7971 41.1008 56.7971C40.9713 56.7971 40.8203 56.7971 40.6909 56.7754ZM40.2379 56.4286C40.5183 56.2336 40.734 56.0819 40.9498 55.9518C40.7125 55.8218 40.4967 55.5617 40.281 55.5834C40.0653 55.6051 39.8712 55.8651 39.6554 56.0385C39.8064 56.1469 39.979 56.2769 40.2379 56.4286Z" fill="#FFF3E0"/>
<path d="M68.3903 56.7759C68.2177 56.7759 68.0451 56.7542 67.8725 56.7759C67.7215 56.8193 67.5921 56.9059 67.4627 56.9926C67.549 57.1443 67.6353 57.4044 67.7431 57.4261C68.0236 57.4911 68.3471 57.4261 68.6491 57.4261C68.8433 57.4261 69.0374 57.4911 69.2316 57.5344C69.0806 57.6862 68.9727 57.9029 68.8002 57.9896C68.002 58.3363 67.096 58.0329 66.7724 57.296C66.3625 56.4075 66.5135 55.714 67.3332 55.1288C67.7863 54.8037 68.304 54.8904 68.757 55.1071C69.2532 55.3455 69.4905 55.8006 69.4905 56.3208C69.4905 56.4725 69.21 56.6892 69.0159 56.7759C68.8433 56.8626 68.606 56.7976 68.3903 56.7759ZM68.0667 56.4291C68.3256 56.2558 68.6707 56.1257 68.6923 55.9957C68.7139 55.6273 68.3687 55.5623 68.0667 55.5623C67.7431 55.5406 67.4411 55.6706 67.4627 56.0174C67.4627 56.1474 67.8078 56.2558 68.0667 56.4291Z" fill="#FFF3E0"/>
<path d="M24.1453 56.776C23.8864 56.776 23.6276 56.7543 23.3687 56.7977C23.2609 56.8193 23.1099 56.9494 23.1099 57.0361C23.0883 57.1444 23.1961 57.3395 23.2824 57.3611C23.606 57.4045 23.9296 57.4045 24.2747 57.4262C24.4473 57.4478 24.6415 57.4912 24.814 57.5129C24.7062 57.6646 24.6415 57.903 24.4905 57.968C23.9727 58.2497 23.1314 58.1197 22.7647 57.7513C22.2038 57.2094 22.0744 56.5593 22.398 55.8224C22.6568 55.1939 23.1314 54.9122 23.8217 54.9555C24.512 54.9772 25.1376 55.6057 25.1592 56.2992C25.1808 56.6026 25.0513 56.7977 24.7062 56.7977C24.5336 56.776 24.3395 56.776 24.1453 56.776ZM23.7139 56.4292C23.9727 56.2559 24.1669 56.1258 24.3826 56.0175C24.1669 55.8657 23.9512 55.6057 23.7354 55.584C23.5197 55.584 23.304 55.8441 23.0883 55.9958C23.2609 56.1258 23.455 56.2559 23.7139 56.4292Z" fill="#FFF3E0"/>
<path d="M86.0801 56.7755C85.8643 56.7755 85.627 56.7538 85.4113 56.7971C85.2819 56.8188 85.0877 56.9488 85.0877 57.0355C85.0662 57.1439 85.1956 57.3606 85.3035 57.3823C85.5839 57.4473 85.8859 57.4256 86.1879 57.4473C86.4036 57.469 86.5978 57.5123 86.8135 57.534C86.6625 57.6857 86.5331 57.9241 86.3605 58.0108C85.5192 58.3359 84.7426 57.9891 84.3112 57.1439C84.0091 56.5587 84.268 55.6268 84.8289 55.1934C85.6055 54.6082 86.7704 54.9983 87.0508 55.9302C87.2234 56.5371 87.0724 56.7538 86.4468 56.7755C86.3174 56.7755 86.2095 56.7755 86.0801 56.7755ZM85.6702 56.4287C85.9291 56.2553 86.1448 56.147 86.3389 56.0169C86.1016 55.8652 85.8643 55.6052 85.627 55.5835C85.4329 55.5618 85.2172 55.8652 85.023 56.0169C85.2172 56.1253 85.4113 56.2553 85.6702 56.4287Z" fill="#FFF3E0"/>
<path d="M11.1376 56.927C11.1376 57.1221 11.1376 57.3171 11.1376 57.4905C11.1376 57.9023 10.965 58.0757 10.5336 57.989C10.2747 57.9456 9.99426 58.0106 9.73539 58.0757C9.08823 58.184 8.48421 57.8373 8.37635 57.2738C8.29006 56.7753 8.76465 56.2768 9.41181 56.1902C9.62753 56.1685 9.86483 56.2118 10.0805 56.1685C10.1884 56.1468 10.3394 56.0601 10.3394 55.9951C10.361 55.9084 10.2747 55.735 10.1884 55.7134C9.90797 55.6483 9.62753 55.6483 9.3471 55.5833C9.15295 55.54 8.98037 55.4316 8.78622 55.3666C8.91565 55.2366 9.04509 55.0415 9.19609 54.9982C9.51967 54.9332 9.8864 54.9332 10.21 54.9765C10.6846 55.0415 10.9866 55.3233 11.0513 55.8217C11.0944 56.1902 11.116 56.5369 11.1592 56.9053C11.1592 56.927 11.1592 56.927 11.1376 56.927ZM9.75696 57.7506C10.0374 57.4472 10.3178 57.2738 10.3826 57.0354C10.4473 56.6669 10.0805 56.6019 9.82168 56.6236C9.4981 56.6236 9.1098 56.732 9.15295 57.1437C9.17452 57.3388 9.47653 57.4905 9.75696 57.7506Z" fill="#FFF3E0"/>
<path d="M48.1778 56.4717C48.1778 56.1466 48.1778 55.8216 48.1778 55.4965C48.1778 55.1497 48.3504 55.0197 48.6956 55.0413C48.976 55.063 49.278 55.0197 49.5584 54.9763C50.2272 54.868 50.7018 55.1064 50.8312 55.7565C50.939 56.3634 50.939 56.9919 50.9175 57.5987C50.9175 57.7504 50.637 57.8804 50.486 58.0105C50.3997 57.8588 50.2272 57.7071 50.2056 57.5337C50.1625 57.1219 50.184 56.7101 50.1625 56.2983C50.1409 55.8866 50.0114 55.5832 49.5369 55.5832C49.0623 55.5832 48.9328 55.9082 48.8897 56.2983C48.8681 56.6885 48.9113 57.1002 48.8466 57.4903C48.825 57.6854 48.6308 57.8371 48.5014 58.0105C48.3935 57.8588 48.1994 57.7071 48.1563 57.5337C48.1562 57.1652 48.1778 56.8185 48.1778 56.4717Z" fill="#FFF3E0"/>
<path d="M59.7832 56.6025C59.8048 56.2124 59.8048 55.8223 59.8479 55.4105C59.8695 55.1288 59.9989 54.9771 60.3225 55.0204C60.5814 55.0421 60.8618 55.0204 61.1207 54.9554C61.9404 54.7604 62.5229 55.1938 62.566 56.039C62.5876 56.5375 62.6091 57.036 62.566 57.5345C62.566 57.6862 62.3719 57.8379 62.264 57.9896C62.1346 57.8379 61.8973 57.7078 61.8757 57.5561C61.811 57.1443 61.8541 56.6892 61.8326 56.2774C61.811 55.909 61.6815 55.5839 61.2285 55.5839C60.7971 55.6056 60.6029 55.909 60.5598 56.2991C60.5382 56.6676 60.5598 57.0143 60.5598 57.3827C60.5598 57.6645 60.5598 57.9896 60.1715 57.9896C59.8048 58.0112 59.8048 57.6862 59.8048 57.4261C59.8048 57.1443 59.8048 56.8843 59.8048 56.6025C59.8263 56.6025 59.8048 56.6025 59.7832 56.6025Z" fill="#FFF3E0"/>
<path d="M90.1997 56.6024C90.1997 56.234 90.1782 55.8872 90.1997 55.5188C90.2213 55.172 90.3507 54.977 90.7606 55.0637C90.9979 55.107 91.2568 55.042 91.5156 54.9987C92.4216 54.847 92.8531 55.172 92.9178 56.0823C92.9394 56.5374 92.9825 57.0142 92.9394 57.4693C92.9178 57.6644 92.7237 57.8378 92.6158 58.0111C92.4864 57.8161 92.2706 57.6427 92.2491 57.426C92.1844 57.0792 92.2491 56.7108 92.2491 56.3424C92.2275 55.9306 92.0981 55.5838 91.6019 55.5622C91.1058 55.5405 90.9979 55.9089 90.9547 56.2773C90.9116 56.6674 90.9763 57.0792 90.9116 57.4693C90.89 57.6644 90.6743 57.8161 90.5449 57.9895C90.4154 57.8161 90.2429 57.6644 90.1997 57.4693C90.135 57.1876 90.1781 56.8842 90.1781 56.6024H90.1997Z" fill="#FFF3E0"/>
<path d="M25.892 56.4935C25.892 56.1467 25.892 55.8 25.892 55.4532C25.892 55.1064 26.0646 54.9764 26.4313 55.0198C26.6902 55.0414 26.9706 55.0414 27.2295 54.9764C27.9629 54.8247 28.5022 55.1281 28.6101 55.8866C28.6748 56.4501 28.6748 57.0136 28.6317 57.5771C28.6317 57.7288 28.3728 57.8805 28.2218 58.0105C28.1139 57.8588 27.9414 57.7071 27.9198 57.5554C27.8766 57.1436 27.9198 56.7319 27.9198 56.3201C27.8982 55.8866 27.7256 55.5616 27.2511 55.5616C26.8196 55.5616 26.6255 55.8866 26.5823 56.2768C26.5392 56.7102 26.6039 57.1436 26.5392 57.5554C26.5176 57.7071 26.3235 57.8588 26.2156 57.9889C26.1077 57.8372 25.9352 57.7071 25.9136 57.5554C25.8489 57.2303 25.892 56.8619 25.892 56.4935Z" fill="#FFF3E0"/>
<path d="M80.1258 58.1191C79.9964 58.0758 79.7375 58.0541 79.5002 57.9241C79.3708 57.859 79.3061 57.6423 79.2198 57.4906C79.3708 57.4473 79.5434 57.3606 79.6944 57.3606C79.8669 57.3606 80.0611 57.4906 80.2337 57.4689C80.3847 57.4473 80.5357 57.2956 80.6867 57.2089C80.5788 57.0788 80.4925 56.9271 80.3415 56.8404C80.169 56.7321 79.9532 56.7104 79.7807 56.6237C79.3708 56.4503 79.1335 56.1686 79.2198 55.6918C79.3061 55.1933 79.6728 54.9766 80.1258 54.9333C80.3847 54.9116 80.6867 54.9549 80.924 55.0416C81.0534 55.085 81.1181 55.28 81.2044 55.41C81.075 55.4751 80.924 55.6051 80.7945 55.5834C80.4925 55.5618 80.1042 55.3234 79.9964 55.7135C79.8669 56.1686 80.3631 56.1469 80.6435 56.2553C81.3123 56.5153 81.5064 56.8188 81.3986 57.3606C81.3123 57.8374 80.8808 58.0974 80.1258 58.1191Z" fill="#FFF3E0"/>
<path d="M51.9723 56.6025C51.8428 56.2124 51.7134 55.844 51.6055 55.4539C51.5624 55.3238 51.584 55.1504 51.6271 55.0204C51.6918 54.8037 51.7997 54.587 51.9291 54.3702C51.9938 54.2619 52.1233 54.1318 52.2096 54.1318C52.339 54.1535 52.5116 54.2835 52.5331 54.3919C52.6194 54.717 52.7489 54.9554 53.1156 55.0204C53.2019 55.0421 53.2882 55.1938 53.2882 55.2805C53.2666 55.3672 53.1587 55.4972 53.0725 55.5189C52.5979 55.5839 52.5547 55.909 52.5763 56.2774C52.6194 56.7109 52.4037 57.2527 53.0509 57.4477C53.1587 57.4911 53.245 57.6428 53.3313 57.7511C53.2235 57.8595 53.1372 57.9895 53.0077 58.0329C52.5331 58.2063 52.0586 57.9462 51.9291 57.4477C51.8644 57.1876 51.8644 56.9059 51.8428 56.6242C51.886 56.6458 51.9291 56.6242 51.9723 56.6025Z" fill="#FFF3E0"/>
<path d="M29.6881 56.6454C29.5587 56.2553 29.4292 55.8652 29.3214 55.4534C29.2782 55.3233 29.2998 55.15 29.3429 55.0199C29.4077 54.8249 29.4939 54.6298 29.6018 54.4564C29.6881 54.3264 29.8391 54.1314 29.9254 54.153C30.0764 54.1964 30.1843 54.3698 30.3137 54.4781C30.4647 54.6298 30.6157 54.8032 30.7667 54.9766C30.853 55.0849 30.9608 55.1933 31.0471 55.3017C30.9393 55.3884 30.853 55.5184 30.7451 55.5401C30.4 55.6051 30.3137 55.8218 30.3137 56.1252C30.3137 56.3419 30.3137 56.5803 30.3137 56.7971C30.3137 57.1222 30.4215 57.3606 30.7667 57.4689C30.8746 57.5123 30.9608 57.664 31.0471 57.7723C30.9393 57.859 30.8314 58.0107 30.702 58.0541C30.1843 58.2275 29.7097 57.924 29.6234 57.4039C29.5802 57.1655 29.6018 56.9271 29.5802 56.6887C29.6018 56.667 29.6449 56.667 29.6881 56.6454Z" fill="#FFF3E0"/>
<path d="M11.6758 55.3673C11.7405 55.2589 11.8052 55.0638 11.8915 55.0638C12.0425 55.0638 12.2582 55.1072 12.3229 55.2156C12.5171 55.584 12.6465 55.9741 12.8407 56.3425C12.9054 56.4942 13.0348 56.6459 13.1427 56.776C13.2505 56.6243 13.4015 56.4726 13.4663 56.2992C13.6173 55.9741 13.7036 55.6057 13.8761 55.3022C13.9624 55.1722 14.1781 55.1072 14.3507 55.0205C14.3939 55.1939 14.5449 55.4106 14.4802 55.5406C14.1997 56.2992 13.8761 57.036 13.531 57.7729C13.3584 58.1197 12.9701 58.1847 12.7975 57.8596C12.3877 57.0577 12.0641 56.2125 11.6758 55.3673Z" fill="#FFF3E0"/>
<path d="M82.3466 56.6242C82.2172 56.2341 82.0662 55.844 81.9583 55.4539C81.9152 55.3238 81.9583 55.1504 82.0014 55.0204C82.0662 54.8037 82.174 54.6086 82.2819 54.4136C82.3466 54.3052 82.476 54.1318 82.5839 54.1318C82.6918 54.1318 82.8643 54.2835 82.8859 54.3919C82.9506 54.717 83.1016 54.912 83.4468 54.9771C83.5546 54.9987 83.6841 55.1504 83.6841 55.2588C83.6841 55.3455 83.5331 55.4972 83.4468 55.5189C82.8428 55.6056 82.9506 56.104 82.929 56.4941C82.9075 56.8842 82.8428 57.361 83.4468 57.4477C83.5546 57.4694 83.7272 57.6428 83.7056 57.6861C83.6625 57.8162 83.5546 57.9679 83.4252 58.0112C82.8859 58.2496 82.3035 57.8812 82.2603 57.296C82.2387 57.0793 82.2603 56.8409 82.2603 56.6242C82.2819 56.6458 82.3035 56.6458 82.3466 56.6242Z" fill="#FFF3E0"/>
<path d="M87.8477 56.516C87.8477 56.1909 87.8261 55.8658 87.8477 55.5407C87.8693 55.0639 88.0418 54.9989 88.4949 55.129C88.6459 55.1723 88.84 55.0856 89.0126 55.1073C89.1852 55.1073 89.3793 55.1506 89.5519 55.1723C89.4872 55.3457 89.4656 55.6491 89.3577 55.6924C88.6459 55.9742 88.5596 56.5593 88.5596 57.2095C88.5596 57.3395 88.6027 57.4696 88.5596 57.5563C88.4733 57.7296 88.3223 57.8597 88.1929 58.0114C88.085 57.8597 87.9124 57.708 87.8908 57.5563C87.8046 57.2095 87.8477 56.8627 87.8477 56.516Z" fill="#FFF3E0"/>
<path d="M57.4744 56.4938C57.4744 56.1687 57.4529 55.8437 57.4744 55.5186C57.496 55.0851 57.6686 54.9984 58.0784 55.1068C58.2295 55.1501 58.4236 55.0851 58.5962 55.1068C58.7903 55.1285 58.9845 55.1718 59.1786 55.1935C59.0923 55.3669 59.0492 55.6486 58.8982 55.7136C58.3157 55.9954 58.1647 56.4505 58.1647 57.014C58.1647 57.2307 58.2079 57.4474 58.1647 57.6208C58.1216 57.7725 57.949 57.8809 57.8412 58.0109C57.7333 57.8809 57.5176 57.7725 57.496 57.6208C57.4529 57.2524 57.496 56.8623 57.4744 56.4938C57.496 56.4938 57.496 56.4938 57.4744 56.4938Z" fill="#FFF3E0"/>
<path d="M42.4383 56.4937C42.4383 56.1686 42.4167 55.8435 42.4383 55.5184C42.4599 55.085 42.6972 54.9766 43.107 55.1283C43.258 55.1933 43.4738 55.1066 43.6463 55.1066C43.8189 55.1066 43.9915 55.1283 44.1641 55.15C44.1209 55.3234 44.0993 55.6268 44.0131 55.6485C43.1502 55.9735 43.1717 56.6887 43.1717 57.4039C43.1717 57.4689 43.1933 57.5556 43.1717 57.599C43.0639 57.7507 42.9345 57.8807 42.8266 58.0324C42.7187 57.9024 42.5246 57.7724 42.503 57.6423C42.4383 57.2522 42.4383 56.8621 42.4383 56.4937Z" fill="#FFF3E0"/>
<path d="M31.8256 56.472C31.8256 56.1035 31.804 55.7134 31.8472 55.345C31.8688 55.215 32.0413 55.1066 32.1492 54.9766C32.2571 55.1066 32.4728 55.215 32.4943 55.345C32.5159 56.1252 32.5159 56.9054 32.4943 57.6639C32.4943 57.794 32.3002 57.9023 32.1923 58.0107C32.0845 57.8807 31.8688 57.7723 31.8472 57.6423C31.7825 57.2738 31.8256 56.8621 31.8256 56.472Z" fill="#FFF3E0"/>
<path d="M94.5137 56.5593C94.5137 56.9277 94.5352 57.2961 94.4921 57.6429C94.4705 57.7946 94.298 57.9029 94.1901 58.0547C94.0607 57.9246 93.8234 57.7946 93.8234 57.6645C93.7802 56.9277 93.7802 56.1908 93.8234 55.4323C93.8234 55.2806 94.0607 55.1505 94.1901 55.0205C94.298 55.1505 94.4705 55.2806 94.4921 55.4106C94.5352 55.8007 94.5137 56.1691 94.5137 56.5593Z" fill="#FFF3E0"/>
<path d="M15.3218 56.5809C15.3218 56.2125 15.2786 55.8224 15.3434 55.454C15.3649 55.3022 15.5591 55.1505 15.6669 55.0205C15.7748 55.1505 15.9689 55.2806 15.9689 55.4323C16.0121 56.1691 16.0121 56.906 15.9689 57.6429C15.9689 57.7729 15.7317 57.9029 15.6022 58.033C15.4944 57.9029 15.3218 57.7729 15.3218 57.6212C15.2786 57.2744 15.3002 56.9277 15.3218 56.5809C15.3002 56.5809 15.3002 56.5809 15.3218 56.5809Z" fill="#FFF3E0"/>
<path d="M47.2699 56.5153C47.2699 56.8837 47.313 57.2522 47.2483 57.5989C47.2267 57.7506 47.0326 57.8807 46.9031 58.0107C46.7953 57.8807 46.6011 57.7506 46.6011 57.5989C46.5796 56.8837 46.5796 56.1469 46.6011 55.4317C46.6011 55.28 46.7953 55.1283 46.9031 54.9766C47.011 55.1283 47.2052 55.2583 47.2267 55.4317C47.313 55.8001 47.2699 56.1685 47.2699 56.5153Z" fill="#FFF3E0"/>
<path d="M64.1181 56.5594C64.1181 56.9279 64.1397 57.2963 64.0965 57.6431C64.0749 57.7731 63.8808 57.9031 63.7729 58.0115C63.6651 57.8815 63.4494 57.7514 63.4494 57.6214C63.4062 56.8845 63.4062 56.1477 63.4494 55.4108C63.4494 55.2808 63.6435 55.1507 63.7514 54.999C63.8808 55.1291 64.0749 55.2591 64.0965 55.4108C64.1612 55.8009 64.1397 56.191 64.1181 56.5594C64.1397 56.5594 64.1397 56.5594 64.1181 56.5594Z" fill="#FFF3E0"/>
<path d="M64.3341 54.1972C64.0537 54.3489 63.9027 54.5006 63.7732 54.479C63.6654 54.479 63.4497 54.2406 63.4712 54.1756C63.5144 54.0238 63.687 53.8505 63.8164 53.8505C63.9458 53.8288 64.0752 54.0022 64.3341 54.1972Z" fill="#FFF3E0"/>
<path d="M47.486 54.1539C47.2272 54.3273 47.0761 54.5007 46.9467 54.5007C46.8173 54.479 46.7094 54.284 46.6016 54.1756C46.7094 54.0673 46.8173 53.8939 46.9467 53.8722C47.0761 53.8505 47.2056 54.0022 47.486 54.1539Z" fill="#FFF3E0"/>
<path d="M32.1476 53.6982C32.3202 53.915 32.5143 54.0667 32.4927 54.1534C32.4496 54.2834 32.277 54.4568 32.1476 54.4785C32.0613 54.5001 31.8456 54.2834 31.8456 54.1967C31.824 54.045 31.9966 53.915 32.1476 53.6982Z" fill="#FFF3E0"/>
<path d="M16.1637 54.1321C15.9264 54.3055 15.7754 54.4789 15.6675 54.4572C15.5381 54.4356 15.4086 54.2622 15.3008 54.1538C15.4086 54.0455 15.5165 53.8721 15.6028 53.8721C15.7538 53.8721 15.8832 54.0021 16.1637 54.1321Z" fill="#FFF3E0"/>
<path d="M94.1682 54.6519C93.9956 54.4135 93.823 54.2834 93.8446 54.1534C93.8446 54.0234 94.0603 53.9367 94.1898 53.8066C94.2976 53.9367 94.4702 54.045 94.4918 54.1967C94.4918 54.3051 94.3192 54.4351 94.1682 54.6519Z" fill="#FFF3E0"/>
<path d="M46.1063 21.3624C45.4376 21.3624 44.7688 21.3407 44.1001 21.3624C43.6687 21.3841 43.4529 21.2107 43.4529 20.7772C43.4529 19.8887 43.4314 19.0218 43.4529 18.1332C43.4529 17.7431 43.6255 17.5264 44.057 17.5264C45.3513 17.548 46.6456 17.5047 47.9184 17.5697C48.5008 17.5914 49.1264 17.6997 49.6657 17.9165C50.356 18.1982 50.7227 18.9568 50.658 19.6286C50.5717 20.4088 50.0971 21.0373 49.2774 21.1673C48.3282 21.2974 47.3575 21.2974 46.4083 21.3624C46.2789 21.3624 46.1926 21.3624 46.1063 21.3624Z" fill="#1A130D"/>
<path d="M45.8031 10.7002C46.6013 10.7435 47.421 10.7435 48.2192 10.8519C48.8879 10.9386 49.3841 11.3287 49.5782 12.0222C49.7508 12.6724 49.6429 13.3009 49.1252 13.7127C48.8016 13.9727 48.3486 14.2328 47.9387 14.2545C46.5797 14.3412 45.2207 14.3412 43.8832 14.3412C43.7322 14.3412 43.4733 14.0594 43.4518 13.886C43.4086 12.9975 43.4086 12.0872 43.4302 11.1987C43.4302 10.8736 43.6028 10.7002 43.9479 10.7002C44.5735 10.7219 45.1775 10.7002 45.8031 10.7002Z" fill="#1A130D"/>
<path d="M71.1503 15.7062C71.064 18.2418 70.2443 19.9106 68.4106 20.8859C65.4337 22.468 61.8312 20.8859 60.9898 17.635C60.4721 15.6195 60.7525 13.7773 62.1547 12.2169C63.4491 10.7865 65.067 10.3314 66.9653 10.6782C69.4677 11.1549 71.2582 13.6473 71.1503 15.7062Z" fill="#1A130D"/>
<path d="M82.3027 13.2786C82.3027 12.6501 82.3027 12.0432 82.3027 11.4147C82.3027 11.0246 82.4537 10.8079 82.8852 10.8079C84.0501 10.8296 85.2365 10.7646 86.4014 10.8296C86.9407 10.8513 87.5016 11.003 87.9762 11.2414C88.8607 11.6965 89.2274 12.7368 88.9901 13.8421C88.7744 14.839 88.0193 15.6192 87.027 15.6625C85.6464 15.7492 84.2442 15.7276 82.842 15.7276C82.4753 15.7276 82.3243 15.5325 82.3243 15.1641C82.3027 14.5572 82.3027 13.9287 82.3027 13.2786Z" fill="#1A130D"/>
<path d="M27.9425 12.1309C28.1798 12.716 28.4386 13.2795 28.6759 13.8647C29.0858 14.8616 29.4957 15.8585 29.9271 16.8555C30.0997 17.2672 30.0134 17.4406 29.6035 17.4406C28.4818 17.4406 27.3816 17.4406 26.2598 17.4189C25.6558 17.4189 25.6127 17.3106 25.85 16.7471C26.4109 15.3817 26.9717 14.0164 27.511 12.651C27.5757 12.4776 27.6836 12.3259 27.7483 12.1525C27.813 12.1525 27.8778 12.1525 27.9425 12.1309Z" fill="#1A130D"/>
<path d="M85.7757 46.4811C83.2517 46.3944 81.4181 45.4625 80.1238 43.6204C78.9589 41.9516 78.6353 40.0661 78.8942 38.0505C79.3903 34.1928 82.8634 31.6355 86.6817 32.2423C89.8528 32.7408 92.0316 35.4932 92.312 38.4623C92.5493 40.9113 91.8806 43.0785 90.047 44.7907C88.7742 45.9827 87.221 46.4161 85.7757 46.4811Z" fill="#1A130D"/>
<path d="M72.4677 56.5153C72.4893 57.0354 72.1441 57.4472 71.6911 57.4689C71.2165 57.4906 70.8066 57.0571 70.8066 56.537C70.8066 55.9518 71.1302 55.5617 71.6264 55.54C72.1657 55.54 72.4461 55.8651 72.4677 56.5153Z" fill="#1A130D"/>
<path d="M5.57227 55.3669C5.57227 54.8468 5.76641 54.6301 6.26257 54.6084C6.86659 54.6084 7.29803 54.9335 7.29803 55.3886C7.29803 55.7787 6.84502 56.1038 6.32729 56.1038C5.74484 56.1038 5.57227 55.9304 5.57227 55.3669Z" fill="#1A130D"/>
<path d="M35.88 56.472C35.88 55.9301 36.2251 55.54 36.6997 55.54C37.1527 55.54 37.6273 56.0602 37.6273 56.5586C37.6058 57.0138 37.1096 57.5122 36.6782 57.4906C36.1604 57.4472 35.8584 57.0571 35.88 56.472Z" fill="#1A130D"/>
<path d="M55.2954 56.4501C55.0366 56.255 54.864 56.1033 54.6914 55.9733C54.9071 55.8216 55.1013 55.5615 55.317 55.5615C55.5327 55.5832 55.7484 55.8216 55.9642 55.9733C55.77 56.125 55.5759 56.255 55.2954 56.4501Z" fill="#1A130D"/>
<path d="M77.1061 56.4509C76.8472 56.2558 76.653 56.1258 76.4805 55.9958C76.6962 55.8441 76.9119 55.6057 77.1492 55.584C77.3434 55.584 77.5375 55.8441 77.7317 55.9958C77.5591 56.1258 77.3649 56.2558 77.1061 56.4509Z" fill="#1A130D"/>
<path d="M40.2387 56.4287C39.9798 56.2553 39.8288 56.147 39.6562 56.0169C39.872 55.8652 40.0661 55.5835 40.2818 55.5618C40.4976 55.5401 40.7349 55.8002 40.9506 55.9302C40.7349 56.1036 40.5191 56.2553 40.2387 56.4287Z" fill="#1A130D"/>
<path d="M68.067 56.4288C67.8082 56.2554 67.463 56.147 67.463 56.017C67.4414 55.6702 67.7434 55.5402 68.067 55.5619C68.369 55.5835 68.7142 55.6269 68.6926 55.9953C68.671 56.1254 68.3259 56.2554 68.067 56.4288Z" fill="#1A130D"/>
<path d="M23.7145 56.4292C23.4557 56.2558 23.2615 56.1258 23.0674 55.9958C23.2831 55.8441 23.4988 55.584 23.7145 55.584C23.9303 55.584 24.146 55.8657 24.3617 56.0174C24.1676 56.1258 23.9734 56.2558 23.7145 56.4292Z" fill="#1A130D"/>
<path d="M85.6677 56.4292C85.4088 56.2558 85.2147 56.1258 85.0205 56.0174C85.2147 55.8657 85.4304 55.584 85.6245 55.584C85.8618 55.6057 86.0991 55.8657 86.3364 56.0174C86.1423 56.1258 85.9265 56.2558 85.6677 56.4292Z" fill="#1A130D"/>
<path d="M9.75788 57.751C9.47744 57.4693 9.17543 57.3392 9.15386 57.1442C9.11072 56.7324 9.47744 56.624 9.8226 56.624C10.103 56.624 10.4698 56.6674 10.3835 57.0358C10.3403 57.2742 10.0383 57.4476 9.75788 57.751Z" fill="#1A130D"/>
</svg>
