<svg width="103" height="62" viewBox="0 0 103 62" fill="none" xmlns="http://www.w3.org/2000/svg">
<path d="M0 62C0 41.3333 0 20.6667 0 0C34.3402 0 68.6598 0 103 0C103 20.6667 103 41.3333 103 62C68.6598 62 34.3402 62 0 62ZM11.2278 39.1427C11.3715 37.8613 11.4125 36.5593 11.6999 35.3193C12.4388 32.0953 16.154 30.8553 18.8224 32.86C19.9103 33.6867 20.5056 34.7407 20.7108 36.1047C20.7519 36.3113 21.1008 36.4767 21.3061 36.6627C21.4498 36.456 21.6961 36.2287 21.6961 36.022C21.7371 34.9267 21.7166 33.8107 21.6756 32.7153C21.655 32.3433 21.5524 31.7233 21.3677 31.6613C20.7724 31.5167 20.8956 32.1573 20.7108 32.488C20.7108 32.5087 20.6903 32.5293 20.6903 32.55C20.5672 32.9427 20.4235 32.9633 20.054 32.736C19.274 32.2607 18.4735 31.7233 17.6114 31.4547C14.0809 30.2973 9.91411 32.55 8.74412 36.1047C8.04623 38.254 8.10781 40.3827 8.74412 42.4907C9.48306 44.888 10.9815 46.686 13.4035 47.43C16.154 48.2773 18.7403 47.7813 21.1008 46.1487C21.5524 45.8387 22.0861 45.322 22.1682 44.8467C22.3324 43.896 22.2298 42.8833 22.1887 41.8913C22.1887 41.6847 21.9219 41.3127 21.7782 41.3127C20.4851 41.2713 19.1714 41.2713 17.8782 41.3127C17.7346 41.3127 17.5909 41.5813 17.4472 41.726C17.5909 41.85 17.7346 42.036 17.8988 42.0567C18.2477 42.098 18.6172 42.0773 18.9866 42.0567C19.4382 42.0567 19.664 42.2427 19.623 42.718C19.6024 43.2553 19.623 43.772 19.6024 44.3093C19.5819 45.1773 19.1714 45.9007 18.4735 46.3347C16.6467 47.4507 13.5062 47.244 12.2951 44.6813C11.4741 42.9247 11.433 41.044 11.2278 39.1427ZM56.6521 38.75C56.4878 38.6467 56.3647 38.6053 56.3031 38.5227C54.8868 36.6627 51.1921 37.5927 50.1248 39.4527C49.1395 41.1473 49.119 42.8627 49.6116 44.64C50.0426 46.128 50.9869 47.1613 52.5468 47.5127C53.9837 47.8227 55.3179 47.7193 56.3236 46.438C56.4057 46.3347 56.5289 46.2933 56.7547 46.1487C56.7752 46.4587 56.7342 46.7067 56.7957 46.8927C56.8778 47.12 57.0626 47.4507 57.2268 47.4507C58.2736 47.492 59.3204 47.4713 60.3673 47.43C60.4904 47.43 60.6136 47.2233 60.7367 47.0993C60.6341 46.9753 60.5315 46.8307 60.3878 46.7273C60.2852 46.6653 60.121 46.686 59.9773 46.6653C59.0126 46.624 58.9305 46.562 58.9305 45.5907C58.9305 42.7387 58.951 39.8867 58.951 37.0347C58.951 35.4847 58.951 33.9553 58.9715 32.4053C58.9715 31.868 58.7868 31.62 58.1915 31.682C57.4526 31.744 56.6931 31.682 55.9336 31.682C55.5436 31.682 54.9484 31.4753 54.9484 32.0747C54.9484 32.6533 55.5642 32.4467 55.9336 32.4467C56.4673 32.426 56.7136 32.5707 56.7136 33.1907C56.6931 34.844 56.7342 36.4973 56.7547 38.1507C56.7547 38.3367 56.6931 38.502 56.6521 38.75ZM19.0893 20.088C19.0893 22.2167 19.0893 24.366 19.1098 26.4947C19.1098 27.1147 18.884 27.3007 18.2888 27.28C18.063 27.2593 17.8167 27.4867 17.5703 27.6107C17.7961 27.7347 18.0219 27.9827 18.2477 27.9827C21.7371 28.0033 25.2266 28.0033 28.7365 28.0033C29.1676 28.0033 29.3729 27.838 29.3729 27.404C29.3729 25.978 29.3934 24.552 29.3523 23.126C29.3523 22.94 29.106 22.7747 28.9623 22.6093C28.8392 22.7953 28.6134 22.9607 28.5929 23.1467C28.4902 23.6633 28.5108 24.2007 28.4081 24.7173C28.2029 25.7507 27.6897 26.6393 26.6224 26.846C25.2882 27.094 23.9129 27.1353 22.5582 27.28C21.9219 27.342 21.7166 27.1147 21.7166 26.474C21.7371 22.258 21.7371 18.0627 21.7166 13.8467C21.7166 13.206 21.8193 12.8133 22.5787 12.8753C22.7429 12.896 22.9482 12.586 23.1329 12.4413C22.9482 12.338 22.7429 12.1313 22.5582 12.1313C21.1214 12.09 19.6845 12.09 18.2477 12.1107C18.0014 12.1107 17.7756 12.338 17.5293 12.462C17.7756 12.6067 18.0219 12.8753 18.2477 12.8547C18.9456 12.8133 19.1098 13.1233 19.1098 13.764C19.0893 15.8513 19.0893 17.9593 19.0893 20.088ZM76.5213 39.184C76.4597 38.936 76.3982 38.7707 76.4187 38.626C76.5008 37.9233 76.2134 37.6753 75.495 37.7373C74.715 37.7993 73.935 37.7167 73.1756 37.758C72.9293 37.7787 72.724 37.9853 72.4777 38.1093C72.7035 38.254 72.9087 38.3987 73.1345 38.5227C73.1961 38.564 73.3193 38.5433 73.4014 38.5227C73.935 38.4813 74.1403 38.688 74.1198 39.246C74.0992 41.2507 74.1198 43.2553 74.1198 45.26C74.1198 46.5 74.0992 46.4793 72.9293 46.7273C72.765 46.7687 72.6214 46.996 72.4777 47.12C72.6419 47.2233 72.8061 47.4093 72.9908 47.43C73.4424 47.4713 73.894 47.4507 74.3661 47.4507C75.4334 47.4507 76.5213 47.4713 77.5887 47.43C77.7734 47.43 77.9376 47.182 78.1018 47.0373C77.9171 46.9133 77.7529 46.7893 77.5476 46.686C77.5066 46.6653 77.4039 46.686 77.3424 46.686C76.7471 46.748 76.4803 46.5207 76.5008 45.8593C76.5419 44.4953 76.5419 43.152 76.5008 41.788C76.4803 40.7133 76.8908 39.8247 77.5476 39.0187C77.9787 38.502 78.9434 38.192 79.4771 38.4193C80.1134 38.6673 80.3187 39.2253 80.3597 39.866C80.3802 40.4653 80.4213 41.0647 80.4213 41.664C80.4418 42.966 80.4213 44.2887 80.5034 45.5907C80.6265 47.5333 82.5971 47.8847 83.9107 47.3887C84.0339 47.3473 84.116 47.182 84.2186 47.0787C84.0955 46.9753 83.9723 46.7687 83.8491 46.7687C83.0281 46.7067 82.8434 46.1487 82.8434 45.4667C82.8228 43.896 82.8434 42.346 82.7613 40.7753C82.7202 40.1347 82.6381 39.3907 82.3097 38.874C81.3655 37.3447 79.0255 37.0347 77.5887 38.1507C77.2808 38.44 76.9524 38.7707 76.5213 39.184ZM68.5161 19.778C68.5161 19.344 68.5777 19.096 68.4956 18.91C68.4135 18.6827 68.2083 18.3727 68.044 18.352C66.9972 18.29 65.9504 18.29 64.9035 18.3107C64.7804 18.3107 64.5546 18.5587 64.5751 18.6413C64.6162 18.8067 64.7599 18.972 64.9241 19.0547C65.0472 19.1167 65.232 19.0547 65.3962 19.0547C66.012 18.9927 66.2583 19.22 66.2377 19.8813C66.1967 21.948 66.2172 24.0147 66.2172 26.0813C66.2172 27.1767 66.2172 27.156 65.1293 27.2593C64.9446 27.28 64.7599 27.4867 64.5751 27.6107C64.7599 27.7347 64.9241 27.962 65.1088 27.9827C66.5456 28.0033 67.9825 28.0033 69.4193 28.0033C69.5835 28.0033 69.7477 28.024 69.8914 27.962C70.0145 27.9 70.1377 27.7553 70.1582 27.6313C70.1788 27.5487 70.0351 27.3833 69.9324 27.342C69.7682 27.28 69.563 27.2593 69.3988 27.28C68.783 27.342 68.5982 27.032 68.6188 26.4533C68.6393 25.0273 68.5572 23.6013 68.6598 22.1753C68.7214 21.4313 68.9882 20.646 69.3782 20.0053C69.9324 19.0753 70.8766 18.7033 71.5745 18.972C72.5393 19.344 72.4982 20.2327 72.5598 21.0593C72.5598 21.1007 72.5598 21.142 72.5598 21.204C72.5803 22.754 72.5598 24.2833 72.6008 25.8333C72.6419 27.9 74.4687 28.4993 76.0082 27.962C76.1519 27.9207 76.234 27.714 76.3366 27.59C76.2134 27.5073 76.0903 27.3627 75.9671 27.342C75.2077 27.3007 75.0229 26.784 74.9613 26.164C74.9203 25.7713 74.9203 25.3787 74.9203 24.986C74.8998 23.6427 74.9408 22.32 74.8792 20.9767C74.8177 19.3027 73.894 18.2693 72.2519 18.0627C71.0614 17.918 69.994 18.2073 69.173 19.1993C69.0498 19.3853 68.8651 19.4887 68.5161 19.778ZM67.7362 46.3553C67.8798 46.4793 67.9619 46.5207 68.044 46.624C68.8446 47.7607 69.994 47.6367 71.1435 47.492C71.3077 47.4713 71.4309 47.244 71.554 47.12C71.4309 47.0167 71.3282 46.8307 71.2051 46.81C70.1788 46.6033 69.994 46.4173 69.9735 45.384C69.953 43.772 69.9735 42.16 69.9324 40.548C69.8914 39.122 69.2756 38.1507 68.0646 37.7993C66.4841 37.3447 64.9035 37.3447 63.4257 38.2333C62.7278 38.6673 62.2762 39.2667 62.153 40.0933C62.0709 40.7133 62.3583 41.2093 62.892 41.4367C63.4051 41.6433 63.9799 41.664 64.3493 41.0647C64.6983 40.5067 64.493 40.0727 64.103 39.6593C63.7951 39.3287 63.8772 39.06 64.2057 38.7913C64.9241 38.192 65.7451 38.2127 66.5456 38.4607C67.2846 38.688 67.5514 39.3493 67.6335 40.0727C67.6746 40.3207 67.6951 40.5687 67.7156 40.8167C67.7772 41.6227 67.613 41.788 66.8125 41.8293C65.4783 41.8913 64.1851 42.0153 62.9741 42.718C61.9683 43.2967 61.4552 44.144 61.5373 45.3013C61.6194 46.4587 62.2557 47.182 63.3025 47.5333C64.9856 48.05 66.4635 47.678 67.7362 46.3553ZM89.6375 37.4687C86.9896 37.4067 84.8139 39.556 84.7523 42.284C84.6907 45.2393 86.8049 47.5953 89.5759 47.6367C92.1827 47.678 94.3996 45.4047 94.4611 42.6147C94.5433 39.7007 92.4906 37.5307 89.6375 37.4687ZM39.5538 42.5113C39.5743 39.7213 37.5628 37.5513 34.8944 37.51C32.0207 37.4687 29.9065 39.5353 29.845 42.4287C29.7834 45.3013 32.0207 47.6573 34.8123 47.6573C37.378 47.678 39.5333 45.3427 39.5538 42.5113ZM53.84 22.9607C53.7989 25.8953 55.9131 28.21 58.6636 28.2513C61.2499 28.2927 63.5283 25.916 63.5488 23.1467C63.5694 20.274 61.5167 18.104 58.7252 18.0627C56.0363 18.0627 53.881 20.212 53.84 22.9607ZM82.946 22.7953C82.946 22.816 82.946 22.816 82.946 22.7953C83.8286 22.816 84.7318 22.7953 85.6144 22.816C86.1481 22.816 86.2712 22.5267 86.2302 22.0513C85.9018 18.91 82.4944 17.112 79.7029 18.5587C76.7061 20.1087 76.1108 24.1593 78.4303 26.66C80.4829 28.8713 84.1981 28.8713 85.6965 25.9987C85.8196 25.7507 85.9018 25.1927 85.7991 25.1307C85.3681 24.8827 85.286 25.3373 85.1012 25.6267C84.8755 25.978 84.6291 26.3707 84.3007 26.6393C82.5765 28.1687 80.4213 27.5073 79.8671 25.2753C79.7234 24.6967 79.7029 24.0973 79.6208 23.498C79.5592 22.9813 79.785 22.7747 80.2776 22.7953C81.1602 22.816 82.0634 22.7953 82.946 22.7953ZM38.5891 26.5153C38.6096 26.5153 38.6096 26.5153 38.6301 26.5153C38.6301 26.8873 38.6096 27.2593 38.6507 27.6107C38.6712 27.776 38.7943 27.9207 38.8764 28.086C38.9996 27.9827 39.1843 27.9 39.2459 27.776C39.4512 27.4453 39.6359 27.404 39.9643 27.6313C41.9143 29.016 44.5622 28.1687 45.219 25.8747C45.6501 24.3453 45.3627 22.5473 43.3922 22.0307C42.6943 21.8447 41.9554 21.762 41.2575 21.6173C40.6212 21.4727 40.1285 21.0593 40.0875 20.4393C40.067 20.0467 40.3338 19.4887 40.6417 19.1993C41.5038 18.3933 43.5564 18.972 43.9874 20.0673C44.0696 20.274 44.1311 20.522 44.2543 20.6873C44.3364 20.8113 44.5417 20.832 44.7059 20.894C44.7674 20.7493 44.8701 20.6047 44.8701 20.4807C44.8701 19.8813 44.8495 19.282 44.829 18.7033C44.829 18.5587 44.7469 18.352 44.6443 18.3107C44.5622 18.2693 44.3364 18.3727 44.2543 18.476C44.0285 18.7653 43.8643 18.7447 43.5564 18.5587C43.2075 18.352 42.8175 18.2073 42.4275 18.1247C40.7238 17.7113 38.938 18.7653 38.5891 20.3773C38.2607 21.9273 38.897 23.622 40.9496 23.9527C41.6064 24.056 42.2427 24.2627 42.8585 24.4693C43.4743 24.676 43.8438 25.11 43.8643 25.792C43.8643 26.5153 43.5153 27.032 42.879 27.3007C42.058 27.652 41.2164 27.5487 40.5391 27.0113C40.0259 26.598 39.718 25.9573 39.3075 25.42C39.2049 25.2753 39.0407 25.172 38.897 25.048C38.8149 25.1927 38.6917 25.3373 38.6712 25.5027C38.5686 25.8127 38.5891 26.164 38.5891 26.5153ZM46.5327 38.3367C46.4301 38.6467 46.2864 38.874 46.3274 39.06C46.4095 39.4733 46.4711 39.99 46.7379 40.2173C47.0048 40.4447 47.559 40.5273 47.9285 40.424C48.6263 40.238 48.9137 39.2047 48.5648 38.5227C47.9079 37.262 45.958 37.2 44.9522 38.44C44.7059 38.75 44.4595 39.0393 44.2132 39.3493C44.1517 39.3287 44.0901 39.2873 44.049 39.2667C44.0696 39.0187 44.049 38.7913 44.0901 38.5433C44.1722 37.9853 43.9669 37.7373 43.3922 37.7373C42.6532 37.758 41.9348 37.696 41.1959 37.7373C40.9906 37.758 40.8059 38.006 40.6006 38.13C40.7854 38.254 40.9701 38.5227 41.1548 38.502C41.8117 38.4607 41.9348 38.812 41.9348 39.3493C41.9143 41.4573 41.9143 43.586 41.9143 45.694C41.9143 46.314 41.8938 46.81 41.0522 46.7067C40.9085 46.686 40.7443 46.9547 40.6006 47.0993C40.7648 47.2233 40.9291 47.4713 41.0933 47.4713C42.3659 47.5127 43.6385 47.5333 44.9316 47.492C45.1164 47.492 45.2806 47.244 45.4653 47.0993C45.2806 46.9753 45.0959 46.7067 44.9316 46.7273C44.2748 46.81 44.1927 46.4587 44.1927 45.942C44.1927 44.7227 44.0901 43.5033 44.2132 42.284C44.3159 41.3333 44.6032 40.362 44.9727 39.4733C45.1985 38.8947 45.6911 38.378 46.5327 38.3367ZM48.1132 22.6507C48.1542 22.6507 48.1953 22.6507 48.2364 22.6507C48.2364 23.8907 48.1337 25.1513 48.2774 26.3707C48.339 26.908 48.7495 27.59 49.2011 27.8587C50.2684 28.5407 51.4795 28.3547 52.6289 27.9207C52.7316 27.8793 52.8547 27.714 52.8342 27.6313C52.8137 27.5487 52.67 27.4247 52.5674 27.404C52.4032 27.3627 52.1979 27.3833 52.0132 27.404C50.8432 27.4867 50.5763 27.28 50.5558 26.102C50.5147 23.9733 50.5353 21.824 50.5353 19.6953C50.5353 19.3027 50.6995 19.096 51.11 19.096C51.4384 19.096 51.7668 19.1167 52.0747 19.0547C52.2184 19.0133 52.3416 18.8067 52.4647 18.6827C52.3416 18.5793 52.2184 18.3933 52.0747 18.3727C51.7668 18.3107 51.4384 18.3313 51.11 18.352C50.6995 18.3727 50.5147 18.2487 50.5353 17.794C50.5763 17.174 50.5969 16.554 50.5763 15.934C50.5763 15.686 50.4326 15.4587 50.3505 15.2313C50.2274 15.4173 50.0426 15.5827 49.9811 15.7893C49.509 17.112 48.7906 18.166 47.2306 18.3313C47.0458 18.352 46.9022 18.5793 46.7379 18.724C46.9227 18.848 47.1074 19.1167 47.2921 19.096C47.9695 19.0547 48.1748 19.3233 48.1337 19.9847C48.0721 20.8527 48.1132 21.7413 48.1132 22.6507ZM27.6897 42.16C27.6897 40.8993 27.6897 39.6387 27.6897 38.3573C27.6897 37.9853 27.6076 37.696 27.1971 37.696C26.1708 37.6753 25.1445 37.6753 24.1182 37.7167C23.954 37.7167 23.8103 37.9647 23.6461 38.1093C23.7898 38.254 23.9334 38.4193 24.0976 38.5227C24.1798 38.5847 24.3234 38.5227 24.4261 38.5227C25.2882 38.502 25.3703 38.5847 25.3703 39.432C25.3703 41.4367 25.3703 43.4413 25.3703 45.4253C25.3703 46.5827 25.3703 46.562 24.2413 46.6653C24.0361 46.686 23.8513 46.934 23.6461 47.058C23.8513 47.182 24.0566 47.43 24.2619 47.43C25.1445 47.4713 26.0476 47.4507 26.9303 47.4507C27.5871 47.4507 28.2644 47.4507 28.9213 47.4093C29.0855 47.3887 29.2292 47.1613 29.3729 47.0167C29.2087 46.8927 29.065 46.748 28.8802 46.624C28.8187 46.5827 28.6955 46.624 28.6134 46.6447C27.7923 46.686 27.6897 46.5827 27.6692 45.7973C27.6897 44.5987 27.6897 43.3793 27.6897 42.16ZM35.1202 22.7747C35.1202 21.5347 35.0996 20.2947 35.1407 19.0547C35.1612 18.476 34.9149 18.2693 34.3607 18.29C33.5602 18.3107 32.7597 18.2487 31.9591 18.3107C31.6513 18.3313 31.3639 18.5587 31.056 18.6827C31.3639 18.8067 31.6513 19.0133 31.9591 19.034C32.5339 19.0753 32.7597 19.2613 32.7597 19.8813C32.7391 22.01 32.7597 24.1593 32.7391 26.288C32.7391 27.1973 32.657 27.2387 31.7744 27.2593C31.5281 27.2593 31.2818 27.466 31.0355 27.59C31.2613 27.714 31.487 27.962 31.7128 27.962C33.1702 28.0033 34.6275 28.0033 36.0849 27.962C36.3312 27.962 36.557 27.7347 36.8033 27.6313C36.5775 27.5073 36.3517 27.3627 36.1054 27.2387C36.0438 27.218 35.9617 27.2387 35.9002 27.2387C35.3049 27.342 35.0791 27.0733 35.0791 26.474C35.1407 25.2547 35.1202 24.0147 35.1202 22.7747ZM33.9297 14.818C34.6275 14.818 35.3049 14.136 35.2844 13.454C35.2639 12.834 34.607 12.214 33.9707 12.214C33.3139 12.2347 32.5955 12.896 32.5955 13.4953C32.5955 14.1153 33.2728 14.818 33.9297 14.818ZM26.4787 31.682C25.7808 31.682 25.2061 32.2607 25.2266 32.9427C25.2471 33.6453 25.8218 34.2653 26.4582 34.2653C27.2176 34.2653 27.8334 33.6453 27.8334 32.86C27.8334 32.2607 27.1766 31.682 26.4787 31.682ZM92.2443 31.186C91.3206 31.186 90.5201 31.93 90.5407 32.798C90.5612 33.5213 91.4438 34.3273 92.2238 34.348C92.9833 34.3687 93.8454 33.4593 93.8248 32.6327C93.8043 31.8473 93.0859 31.186 92.2443 31.186Z" fill="#1A130D"/>
<path d="M11.2274 39.1426C11.4121 41.0439 11.4532 42.9246 12.2948 44.6812C13.5058 47.2439 16.6668 47.4506 18.4731 46.3346C19.171 45.9006 19.5815 45.1772 19.6021 44.3092C19.6226 43.7719 19.6021 43.2552 19.6226 42.7179C19.6431 42.2426 19.4379 42.0359 18.9863 42.0566C18.6168 42.0566 18.2473 42.0979 17.8984 42.0566C17.7342 42.0359 17.5905 41.8499 17.4468 41.7259C17.5905 41.5812 17.7342 41.3126 17.8779 41.3126C19.171 41.2712 20.4847 41.2712 21.7778 41.3126C21.9215 41.3126 22.1884 41.6846 22.1884 41.8912C22.2294 42.8832 22.332 43.8959 22.1678 44.8466C22.0857 45.3426 21.552 45.8386 21.1005 46.1486C18.74 47.7606 16.1537 48.2772 13.4032 47.4299C10.9606 46.6859 9.46217 44.8879 8.74375 42.4906C8.10744 40.3826 8.04587 38.2539 8.74375 36.1046C9.91374 32.5499 14.0805 30.3179 17.611 31.4546C18.4731 31.7439 19.2736 32.2606 20.0536 32.7359C20.4231 32.9632 20.5873 32.9426 20.6899 32.5499C20.6899 32.5292 20.6899 32.5086 20.7105 32.4879C20.8747 32.1572 20.7515 31.5166 21.3673 31.6612C21.552 31.7026 21.6547 32.3432 21.6752 32.7152C21.7163 33.8106 21.7163 34.9266 21.6957 36.0219C21.6957 36.2492 21.4289 36.4559 21.3057 36.6626C21.1005 36.4766 20.731 36.3112 20.7105 36.1046C20.5052 34.7612 19.91 33.6866 18.8221 32.8599C16.1537 30.8552 12.4385 32.0952 11.6995 35.3192C11.4121 36.5592 11.3916 37.8612 11.2274 39.1426Z" fill="#FFF3E0"/>
<path d="M56.6524 38.7497C56.6935 38.5224 56.7551 38.3364 56.7551 38.1711C56.7551 36.5177 56.6935 34.8644 56.714 33.2111C56.714 32.5911 56.4677 32.4671 55.934 32.4671C55.5645 32.4671 54.9488 32.6944 54.9488 32.0951C54.9488 31.4957 55.544 31.7024 55.934 31.7024C56.6935 31.7024 57.4529 31.7644 58.1919 31.7024C58.7871 31.6611 58.9719 31.8884 58.9719 32.4257C58.9513 33.9757 58.9719 35.5051 58.9514 37.0551C58.9514 39.9071 58.9308 42.7591 58.9308 45.6111C58.9308 46.5617 58.9924 46.6444 59.9777 46.6857C60.1213 46.6857 60.265 46.6857 60.3882 46.7477C60.5319 46.8304 60.614 46.9957 60.7371 47.1197C60.614 47.2231 60.4908 47.4297 60.3677 47.4504C59.3208 47.4917 58.274 47.5124 57.2272 47.4711C57.0629 47.4711 56.8782 47.1197 56.7961 46.9131C56.714 46.7271 56.7551 46.4997 56.7551 46.1691C56.5293 46.3137 56.4061 46.3551 56.324 46.4584C55.3182 47.7397 54.0046 47.8431 52.5472 47.5331C50.9872 47.2024 50.043 46.1484 49.612 44.6604C49.0988 42.8831 49.1399 41.1677 50.1251 39.4731C51.213 37.6337 54.8872 36.6831 56.3035 38.5431C56.3651 38.6051 56.4882 38.6464 56.6524 38.7497ZM56.7345 42.3044C56.7961 41.2711 56.6524 40.1551 55.8724 39.2044C55.3388 38.5224 54.6819 38.1504 53.7993 38.3364C52.9372 38.5017 52.424 39.0804 52.2393 39.8864C51.8493 41.6637 51.8493 43.4411 52.2804 45.1977C52.4856 46.0451 52.9988 46.6651 53.8814 46.7891C54.764 46.9131 55.4209 46.4791 55.9135 45.7764C56.6114 44.7844 56.7551 43.6271 56.7345 42.3044Z" fill="#FFF3E0"/>
<path d="M19.0893 20.0877C19.0893 17.9797 19.0688 15.8511 19.0893 13.7431C19.0893 13.1024 18.9251 12.7924 18.2272 12.8337C18.0014 12.8544 17.7346 12.5857 17.5088 12.4411C17.7551 12.3171 17.9809 12.0897 18.2272 12.0897C19.664 12.0691 21.1009 12.0691 22.5377 12.1104C22.7429 12.1104 22.9277 12.3171 23.1124 12.4204C22.9277 12.5651 22.7224 12.8751 22.5582 12.8544C21.7987 12.7924 21.6961 13.1851 21.6961 13.8257C21.7166 18.0417 21.7166 22.2371 21.6961 26.4531C21.6961 27.0937 21.9014 27.3417 22.5377 27.2591C23.8924 27.1144 25.2677 27.0731 26.6019 26.8251C27.6692 26.6184 28.2029 25.7504 28.3876 24.6964C28.4903 24.1797 28.4697 23.6424 28.5724 23.1257C28.6134 22.9191 28.8187 22.7744 28.9418 22.5884C29.0855 22.7537 29.3318 22.9397 29.3318 23.1051C29.3729 24.5311 29.3524 25.9571 29.3524 27.3831C29.3524 27.8171 29.1471 27.9824 28.716 27.9824C25.2266 27.9824 21.7372 27.9824 18.2272 27.9617C18.0014 27.9617 17.7756 27.7137 17.5498 27.5897C17.7962 27.4657 18.0425 27.2384 18.2683 27.2591C18.8635 27.3004 19.1098 27.0937 19.0893 26.4737C19.0893 24.3657 19.1098 22.2164 19.0893 20.0877Z" fill="#FFF3E0"/>
<path d="M76.5211 39.1844C76.9522 38.7918 77.2601 38.4404 77.6296 38.1718C79.0664 37.0558 81.4064 37.3864 82.3506 38.8951C82.679 39.4324 82.7611 40.1558 82.8021 40.7964C82.8842 42.3671 82.8432 43.9171 82.8842 45.4878C82.8842 46.1698 83.069 46.7278 83.89 46.7898C84.0132 46.7898 84.1363 46.9964 84.2595 47.0998C84.1569 47.2031 84.0748 47.3684 83.9516 47.4098C82.6379 47.9058 80.6674 47.5544 80.5443 45.6118C80.4622 44.3098 80.4827 42.9871 80.4622 41.6851C80.4416 41.0858 80.4211 40.4864 80.4006 39.8871C80.3801 39.2464 80.1543 38.7091 79.518 38.4404C78.9843 38.2338 78.0196 38.5438 77.5885 39.0398C76.9111 39.8251 76.5006 40.7138 76.5417 41.8091C76.5827 43.1731 76.5827 44.5164 76.5417 45.8804C76.5211 46.5418 76.788 46.7691 77.3832 46.7071C77.4448 46.7071 77.5269 46.6658 77.5885 46.7071C77.7732 46.8104 77.958 46.9551 78.1427 47.0584C77.9785 47.2031 77.7938 47.4304 77.6296 47.4511C76.5622 47.4924 75.4743 47.4718 74.407 47.4718C73.9554 47.4718 73.4833 47.4924 73.0317 47.4511C72.847 47.4304 72.6828 47.2444 72.5186 47.1411C72.6622 46.9964 72.8059 46.7898 72.9701 46.7484C74.1401 46.5004 74.1606 46.5004 74.1606 45.2811C74.1606 43.2764 74.1401 41.2718 74.1606 39.2671C74.1606 38.7091 73.9554 38.5024 73.4422 38.5438C73.3601 38.5438 73.237 38.5851 73.1754 38.5438C72.9496 38.4198 72.7443 38.2751 72.5186 38.1304C72.7443 38.0064 72.9701 37.7791 73.2164 37.7791C73.9964 37.7378 74.7764 37.8204 75.5359 37.7584C76.2338 37.6964 76.5211 37.9444 76.4596 38.6471C76.398 38.7711 76.4801 38.9158 76.5211 39.1844Z" fill="#FFF3E0"/>
<path d="M68.5165 19.778C68.845 19.5094 69.0297 19.3854 69.1734 19.2407C69.9739 18.2694 71.0618 17.9594 72.2523 18.104C73.8944 18.3107 74.8181 19.344 74.8796 21.018C74.9207 22.3407 74.9002 23.684 74.9207 25.0274C74.9207 25.42 74.9207 25.8127 74.9617 26.2054C75.0233 26.8047 75.2081 27.342 75.9675 27.3834C76.0907 27.3834 76.2138 27.5487 76.337 27.6314C76.2344 27.7554 76.1522 27.962 76.0086 28.0034C74.4691 28.5407 72.6423 27.9414 72.6012 25.8747C72.5602 24.3454 72.5807 22.7954 72.5602 21.2454C72.5602 21.204 72.5602 21.1627 72.5602 21.1007C72.4986 20.274 72.5397 19.3854 71.5749 19.0134C70.877 18.7447 69.9328 19.1167 69.3786 20.0467C68.9886 20.6874 68.7218 21.4727 68.6602 22.2167C68.5576 23.6427 68.6397 25.0687 68.6192 26.4947C68.6192 27.0734 68.7834 27.3834 69.3992 27.3214C69.5839 27.3007 69.7686 27.3214 69.9328 27.3834C70.0355 27.4247 70.1792 27.59 70.1586 27.6727C70.1381 27.7967 70.0149 27.9414 69.8918 28.0034C69.7481 28.0654 69.5839 28.0447 69.4197 28.0447C67.9829 28.0447 66.546 28.0654 65.1092 28.024C64.9245 28.024 64.7603 27.7967 64.5755 27.652C64.7603 27.528 64.9245 27.3007 65.1297 27.3007C66.2381 27.218 66.2381 27.2387 66.2176 26.1227C66.2176 24.056 66.1971 21.9894 66.2381 19.9227C66.2587 19.2614 66.0124 19.034 65.3966 19.096C65.2324 19.1167 65.0476 19.158 64.9245 19.096C64.7808 19.0134 64.6166 18.848 64.5755 18.6827C64.555 18.6 64.7808 18.352 64.9039 18.352C65.9508 18.3314 66.9976 18.3314 68.0444 18.3934C68.2086 18.3934 68.3934 18.724 68.496 18.9514C68.5781 19.096 68.5165 19.3234 68.5165 19.778Z" fill="#FFF3E0"/>
<path d="M67.7357 46.3555C66.4631 47.6988 64.9852 48.0501 63.3226 47.4921C62.2758 47.1408 61.6395 46.4175 61.5574 45.2601C61.4753 44.0821 61.9884 43.2555 62.9942 42.6768C64.1847 41.9741 65.4984 41.8708 66.8326 41.7881C67.6331 41.7468 67.7973 41.5608 67.7357 40.7755C67.7152 40.5275 67.6947 40.2795 67.6536 40.0315C67.551 39.3081 67.3047 38.6468 66.5657 38.4195C65.7652 38.1921 64.9442 38.1508 64.2257 38.7501C63.9179 39.0188 63.8152 39.2875 64.1231 39.6181C64.5131 40.0315 64.7389 40.4655 64.3694 41.0235C64 41.6021 63.4252 41.6021 62.9121 41.3955C62.3784 41.1681 62.091 40.6928 62.1731 40.0521C62.2758 39.2255 62.7273 38.6055 63.4458 38.1921C64.9236 37.3035 66.5042 37.3035 68.0847 37.7581C69.2957 38.1095 69.9115 39.0601 69.9525 40.5068C69.9936 42.1188 69.9731 43.7308 69.9936 45.3428C70.0141 46.3761 70.1988 46.5828 71.2252 46.7688C71.3483 46.7895 71.4715 46.9755 71.5741 47.0788C71.4304 47.2028 71.3073 47.4301 71.1636 47.4508C70.0141 47.6161 68.8647 47.7195 68.0641 46.5828C67.9615 46.5208 67.8589 46.4588 67.7357 46.3555ZM67.8178 43.9168C67.7768 43.8961 67.7357 43.8961 67.6947 43.8755C67.6947 43.7101 67.6947 43.5448 67.6947 43.4001C67.6947 42.5321 67.592 42.3875 66.7505 42.5528C66.0936 42.6768 65.4163 42.8835 64.8415 43.1935C64.4721 43.4001 64.1436 43.8548 63.9794 44.2681C63.651 45.0741 64.1436 46.3141 64.8415 46.6861C65.5189 47.0581 66.7094 46.7275 67.161 45.9215C67.5099 45.3015 67.6126 44.5781 67.8178 43.9168Z" fill="#FFF3E0"/>
<path d="M89.6375 37.4691C92.4906 37.5311 94.5432 39.7218 94.4817 42.6151C94.4201 45.4051 92.1827 47.6784 89.5965 47.6371C86.8049 47.5751 84.6907 45.2398 84.7728 42.2844C84.8139 39.5358 86.9896 37.4071 89.6375 37.4691ZM91.9364 42.2431C91.9159 42.2431 91.8954 42.2431 91.8749 42.2431C91.8749 41.7678 91.9159 41.2718 91.8543 40.7964C91.7927 40.2591 91.7106 39.6804 91.4849 39.2051C91.0333 38.2958 90.1507 38.1718 89.2475 38.2751C88.3033 38.3578 87.6259 38.9158 87.5644 39.8044C87.4617 41.5611 87.4207 43.3384 87.5644 45.0744C87.667 46.2731 88.6728 46.8931 89.8222 46.8104C90.8691 46.7484 91.6491 45.9631 91.7722 44.7644C91.8543 43.9584 91.8954 43.0904 91.9364 42.2431Z" fill="#FFF3E0"/>
<path d="M39.5538 42.5115C39.5333 45.3429 37.3781 47.6782 34.8328 47.6782C32.0413 47.6782 29.8039 45.3222 29.8655 42.4495C29.9271 39.5562 32.0413 37.4895 34.9149 37.5309C37.5628 37.5515 39.5949 39.7215 39.5538 42.5115ZM37.0907 42.6355C36.9881 41.6642 36.9881 40.7342 36.8033 39.8455C36.5775 38.7915 35.9002 38.3162 34.8328 38.2955C33.6628 38.2749 32.8828 38.7295 32.6776 39.8042C32.3286 41.6022 32.3081 43.4209 32.6776 45.2189C32.9034 46.2729 33.6218 46.8515 34.5249 46.8722C35.736 46.9135 36.4749 46.4795 36.7828 45.3015C36.9881 44.4335 36.9881 43.5035 37.0907 42.6355Z" fill="#FFF3E0"/>
<path d="M53.84 22.9605C53.8605 20.2118 56.0158 18.0625 58.7252 18.0832C61.5168 18.1038 63.5694 20.2738 63.5488 23.1672C63.5283 25.9365 61.2499 28.3132 58.6636 28.2718C55.9337 28.2098 53.8195 25.8952 53.84 22.9605ZM61.0447 23.1465C61.0241 23.1465 60.9831 23.1465 60.9626 23.1465C60.9626 22.5678 60.9831 21.9892 60.9626 21.4312C60.9626 21.1418 60.901 20.8318 60.8394 20.5425C60.6752 19.6745 59.8952 18.9718 59.0331 18.9098C57.8221 18.8272 56.9805 19.2405 56.7136 20.1912C56.2005 22.0718 56.2415 23.9732 56.6521 25.8538C56.8779 26.9905 57.6373 27.4865 58.7868 27.4658C59.8541 27.4452 60.5931 26.8665 60.7983 25.7712C60.942 24.8825 60.9626 24.0145 61.0447 23.1465Z" fill="#FFF3E0"/>
<path d="M82.9459 22.7949C82.0633 22.7949 81.1601 22.7949 80.2775 22.7949C79.7849 22.7949 79.5386 23.0016 79.6207 23.4976C79.7028 24.0969 79.7233 24.6962 79.867 25.2749C80.4212 27.5069 82.5764 28.1889 84.3006 26.6389C84.6085 26.3496 84.8548 25.9776 85.1012 25.6262C85.2859 25.3369 85.368 24.8822 85.799 25.1302C85.9017 25.1922 85.8401 25.7502 85.6964 25.9982C84.2185 28.8709 80.4828 28.8709 78.4302 26.6596C76.0902 24.1589 76.706 20.1082 79.7028 18.5582C82.4943 17.1116 85.9017 18.9302 86.2301 22.0509C86.2711 22.5262 86.148 22.8156 85.6143 22.8156C84.7317 22.8156 83.8285 22.8156 82.9459 22.7949C82.9459 22.8156 82.9459 22.8156 82.9459 22.7949ZM81.7143 22.0302C81.8991 22.0096 82.0838 22.0096 82.2685 22.0096C83.7875 22.0096 83.7875 22.0096 83.5822 20.4802C83.4591 19.6536 82.9459 19.0749 82.1864 18.9096C81.3449 18.7236 80.5444 19.0336 80.1749 19.8189C79.9286 20.3356 79.8259 20.9349 79.7438 21.5136C79.7233 21.6582 80.0723 21.9682 80.298 22.0096C80.7496 22.0922 81.2422 22.0302 81.7143 22.0302Z" fill="#FFF3E0"/>
<path d="M38.5886 26.5151C38.5886 26.1637 38.5681 25.8331 38.6092 25.4817C38.6297 25.3164 38.7528 25.1717 38.835 25.0271C38.9786 25.1511 39.1428 25.2544 39.2455 25.3991C39.656 25.9364 39.9639 26.5771 40.477 26.9904C41.1339 27.5277 41.996 27.6311 42.817 27.2797C43.4533 27.0111 43.8228 26.4944 43.8023 25.7711C43.8023 25.0684 43.4123 24.6551 42.7965 24.4484C42.1602 24.2417 41.5239 24.0351 40.8876 23.9317C38.835 23.6011 38.1986 21.9271 38.5271 20.3564C38.876 18.7444 40.6618 17.6904 42.3654 18.1037C42.7554 18.2071 43.166 18.3311 43.4944 18.5377C43.7817 18.7237 43.9665 18.7444 44.1923 18.4551C44.2744 18.3517 44.4796 18.2484 44.5823 18.2897C44.6849 18.3311 44.767 18.5377 44.767 18.6824C44.8081 19.2817 44.8286 19.8811 44.8081 20.4597C44.8081 20.6044 44.7054 20.7491 44.6438 20.8731C44.5002 20.8111 44.2744 20.7697 44.1923 20.6664C44.0691 20.4804 44.0075 20.2531 43.9254 20.0464C43.4739 18.9304 41.4418 18.3724 40.5797 19.1784C40.2718 19.4677 40.0049 20.0051 40.0255 20.4184C40.0665 21.0384 40.5591 21.4724 41.1955 21.5964C41.9139 21.7411 42.6323 21.8237 43.3302 22.0097C45.3212 22.5264 45.6086 24.3451 45.157 25.8537C44.5002 28.1477 41.8523 28.9951 39.9023 27.6104C39.5739 27.3831 39.3892 27.4037 39.1839 27.7551C39.1018 27.8791 38.9376 27.9617 38.8144 28.0651C38.7323 27.8997 38.6092 27.7551 38.5886 27.5897C38.5476 27.2177 38.5681 26.8457 38.5681 26.4944C38.6092 26.5151 38.5886 26.5151 38.5886 26.5151Z" fill="#FFF3E0"/>
<path d="M46.5326 38.3367C45.6705 38.378 45.1984 38.8947 44.9726 39.4734C44.6032 40.362 44.3158 41.3334 44.2132 42.284C44.09 43.4827 44.1927 44.7227 44.1927 45.942C44.1927 46.438 44.2748 46.81 44.9316 46.7274C45.0958 46.7067 45.2805 46.9547 45.4653 47.0994C45.2805 47.244 45.1163 47.492 44.9316 47.492C43.659 47.5127 42.3864 47.5127 41.0932 47.4714C40.929 47.4714 40.7648 47.2234 40.6006 47.0994C40.7648 46.9547 40.929 46.7067 41.0522 46.7067C41.8937 46.81 41.9143 46.3347 41.9143 45.694C41.8937 43.586 41.9143 41.4574 41.9348 39.3494C41.9348 38.812 41.8116 38.4607 41.1548 38.502C40.9701 38.502 40.7853 38.254 40.6006 38.13C40.7853 37.9854 40.9906 37.7374 41.1958 37.7374C41.9143 37.696 42.6532 37.758 43.3921 37.7374C43.9669 37.7167 44.1927 37.9647 44.09 38.5434C44.049 38.7707 44.049 39.0187 44.049 39.2667C44.1106 39.2874 44.1721 39.3287 44.2132 39.3494C44.4595 39.0394 44.7058 38.75 44.9521 38.44C45.9579 37.2207 47.9079 37.262 48.5647 38.5227C48.9137 39.2047 48.6263 40.238 47.9284 40.424C47.5589 40.5274 47.0047 40.4447 46.7379 40.2174C46.4711 39.99 46.4095 39.4734 46.3274 39.06C46.3068 38.874 46.4505 38.6467 46.5326 38.3367Z" fill="#FFF3E0"/>
<path d="M48.1135 22.6509C48.1135 21.7623 48.0725 20.8529 48.1341 19.9643C48.1751 19.3029 47.9698 19.0343 47.2925 19.0756C47.1283 19.0963 46.923 18.8276 46.7383 18.7036C46.9025 18.5796 47.0462 18.3316 47.2309 18.3109C48.7909 18.1456 49.4888 17.1123 49.9814 15.7689C50.0635 15.5623 50.2277 15.3969 50.3509 15.2109C50.433 15.4383 50.5767 15.6863 50.5767 15.9136C50.5972 16.5336 50.5767 17.1536 50.5356 17.7736C50.5151 18.2076 50.6998 18.3523 51.1103 18.3316C51.4182 18.3109 51.7467 18.3109 52.0751 18.3523C52.2188 18.3729 52.3419 18.5589 52.4651 18.6623C52.3419 18.7863 52.2188 19.0136 52.0751 19.0343C51.7672 19.0963 51.4388 19.0756 51.1103 19.0756C50.6998 19.0756 50.5356 19.2823 50.5356 19.6749C50.5356 21.8036 50.5151 23.9529 50.5561 26.0816C50.5767 27.2803 50.864 27.4869 52.0135 27.3836C52.1982 27.3629 52.383 27.3423 52.5677 27.3836C52.6703 27.4043 52.8345 27.5283 52.8345 27.6109C52.8551 27.6936 52.7319 27.8589 52.6293 27.9003C51.4798 28.3343 50.2688 28.4996 49.2014 27.8383C48.7498 27.5489 48.3393 26.8876 48.2777 26.3503C48.1341 25.1309 48.2367 23.8703 48.2367 22.6303C48.1956 22.6509 48.1546 22.6509 48.1135 22.6509Z" fill="#FFF3E0"/>
<path d="M27.6901 42.1604C27.6901 43.3797 27.6901 44.5991 27.6901 45.8184C27.6901 46.6244 27.8133 46.7071 28.6343 46.6657C28.7164 46.6657 28.8396 46.6037 28.9011 46.6451C29.0654 46.7484 29.2296 46.8931 29.3938 47.0377C29.2501 47.1824 29.1064 47.4304 28.9422 47.4304C28.2854 47.4924 27.6285 47.4717 26.9512 47.4717C26.0685 47.4717 25.1654 47.4924 24.2828 47.4511C24.0775 47.4304 23.8723 47.2031 23.667 47.0791C23.8723 46.9344 24.057 46.7071 24.2622 46.6864C25.3707 46.5624 25.3912 46.5831 25.3912 45.4464C25.3912 43.4417 25.3912 41.4371 25.3912 39.4531C25.3912 38.6057 25.2886 38.5024 24.447 38.5437C24.3238 38.5437 24.1801 38.6057 24.1186 38.5437C23.9544 38.4404 23.8107 38.2751 23.667 38.1304C23.8312 38.0064 23.9749 37.7584 24.1391 37.7377C25.1654 37.6964 26.1917 37.7171 27.218 37.7171C27.6285 37.7171 27.7312 38.0064 27.7106 38.3784C27.6901 39.6391 27.6901 40.8997 27.6901 42.1604Z" fill="#FFF3E0"/>
<path d="M35.1198 22.7745C35.1198 24.0145 35.1403 25.2545 35.1198 26.4945C35.0993 27.0938 35.3456 27.3625 35.9409 27.2591C36.0024 27.2385 36.0845 27.2178 36.1461 27.2591C36.3719 27.3831 36.5977 27.5071 36.844 27.6518C36.5977 27.7758 36.3719 27.9825 36.1256 27.9825C34.6682 28.0238 33.2109 28.0238 31.7535 27.9825C31.5277 27.9825 31.302 27.7345 31.0762 27.6105C31.3225 27.4865 31.5688 27.2798 31.8151 27.2798C32.7183 27.2591 32.7798 27.2178 32.7798 26.3085C32.7798 24.1798 32.7593 22.0305 32.8004 19.9018C32.8004 19.2818 32.5746 19.0958 31.9998 19.0545C31.692 19.0338 31.4046 18.8271 31.0967 18.7031C31.4046 18.5791 31.692 18.3518 31.9998 18.3311C32.8004 18.2691 33.6009 18.3311 34.4014 18.3105C34.9351 18.2898 35.1814 18.4965 35.1814 19.0751C35.1198 20.2945 35.1403 21.5345 35.1198 22.7745Z" fill="#FFF3E0"/>
<path d="M33.9299 14.8184C33.2936 14.8184 32.5957 14.1364 32.5957 13.4957C32.5957 12.8964 33.3141 12.2144 33.971 12.2144C34.6073 12.1937 35.2846 12.8344 35.2846 13.4544C35.2846 14.1157 34.6073 14.8184 33.9299 14.8184Z" fill="#FFF3E0"/>
<path d="M26.4782 31.6816C27.1761 31.6816 27.8329 32.2396 27.8329 32.8596C27.8329 33.645 27.2172 34.2856 26.4577 34.265C25.8214 34.265 25.2672 33.645 25.2261 32.9423C25.2056 32.281 25.7803 31.7023 26.4782 31.6816Z" fill="#FFF3E0"/>
<path d="M92.2441 31.1855C93.1062 31.1855 93.8041 31.8262 93.8246 32.6322C93.8451 33.4382 92.983 34.3475 92.2236 34.3475C91.4436 34.3269 90.561 33.5209 90.5404 32.7975C90.5199 31.9502 91.3204 31.2062 92.2441 31.1855ZM93.4141 32.7562C93.4141 32.1362 92.9215 31.5989 92.3672 31.5782C91.5667 31.5575 91.033 31.9915 91.0125 32.6942C90.992 33.2109 91.7104 34.0582 92.162 34.0582C92.552 34.0375 93.4141 33.1695 93.4141 32.7562Z" fill="#FFF3E0"/>
<path d="M56.7341 42.3051C56.7751 43.6484 56.6109 44.7851 55.913 45.7977C55.4204 46.4797 54.7636 46.9344 53.8809 46.8104C52.9983 46.6864 52.5057 46.0664 52.2799 45.2191C51.8488 43.4417 51.8283 41.6644 52.2388 39.9077C52.4236 39.1017 52.9367 38.5231 53.7988 38.3577C54.702 38.1717 55.3383 38.5644 55.872 39.2257C56.6314 40.1557 56.7956 41.2511 56.7341 42.3051Z" fill="#1A130D"/>
<path d="M67.8185 43.9166C67.6132 44.5779 67.49 45.3012 67.1616 45.9006C66.7101 46.7272 65.5195 47.0372 64.8422 46.6652C64.1443 46.2932 63.6517 45.0739 63.9801 44.2472C64.1443 43.8339 64.4727 43.3792 64.8422 43.1726C65.4169 42.8419 66.0943 42.6559 66.7511 42.5319C67.5927 42.3872 67.6953 42.5112 67.6953 43.3792C67.6953 43.5446 67.6953 43.7099 67.6953 43.8546C67.7364 43.8959 67.7774 43.9166 67.8185 43.9166Z" fill="#1A130D"/>
<path d="M91.9364 42.2428C91.8748 43.0901 91.8543 43.9375 91.7722 44.7848C91.6491 45.9835 90.8896 46.7688 89.8222 46.8308C88.6728 46.8928 87.667 46.2935 87.5644 45.0948C87.4002 43.3588 87.4412 41.5815 87.5644 39.8248C87.6259 38.9361 88.3033 38.3781 89.2475 38.2955C90.1506 38.2128 91.0333 38.3161 91.4848 39.2255C91.7106 39.7008 91.7927 40.2795 91.8543 40.8168C91.9159 41.2921 91.8748 41.7881 91.8748 42.2635C91.8954 42.2428 91.9159 42.2428 91.9364 42.2428Z" fill="#1A130D"/>
<path d="M37.0908 42.6356C36.9882 43.5036 36.9882 44.4336 36.7624 45.3016C36.4545 46.4796 35.7361 46.9136 34.5045 46.8723C33.6219 46.8309 32.8829 46.2729 32.6572 45.2189C32.2877 43.4209 32.3082 41.6023 32.6572 39.8043C32.8624 38.7296 33.6424 38.2749 34.8124 38.2956C35.9003 38.3163 36.5776 38.7709 36.7829 39.8456C36.9882 40.7343 36.9882 41.6643 37.0908 42.6356Z" fill="#1A130D"/>
<path d="M61.0444 23.1465C60.9623 24.0145 60.9418 24.8825 60.7981 25.7505C60.6133 26.8665 59.8744 27.4452 58.7865 27.4452C57.6165 27.4659 56.8776 26.9492 56.6518 25.8332C56.2618 23.9525 56.2208 22.0305 56.7134 20.1705C56.9802 19.2199 57.8218 18.8065 59.0328 18.8892C59.8744 18.9512 60.6749 19.6745 60.8391 20.5219C60.9007 20.8112 60.9418 21.1212 60.9623 21.4105C60.9828 21.9892 60.9623 22.5679 60.9623 23.1259C60.9828 23.1465 61.0239 23.1465 61.0444 23.1465Z" fill="#1A130D"/>
<path d="M81.7147 22.0305C81.2426 22.0305 80.7499 22.0925 80.2778 22.0099C80.0726 21.9685 79.7236 21.6585 79.7236 21.5139C79.7852 20.9352 79.9084 20.3359 80.1547 19.8192C80.5242 19.0339 81.3041 18.7239 82.1662 18.9099C82.9257 19.0752 83.4594 19.6539 83.562 20.4805C83.7673 22.0099 83.7673 22.0099 82.2483 22.0099C82.0841 22.0099 81.8994 22.0099 81.7147 22.0305Z" fill="#1A130D"/>
<path d="M93.4143 32.7563C93.4143 33.1696 92.5522 34.0376 92.1622 34.0376C91.7311 34.0583 91.0127 33.211 91.0127 32.6736C91.0332 31.9916 91.5464 31.5576 92.3674 31.5576C92.9216 31.599 93.4143 32.1363 93.4143 32.7563ZM92.8806 32.1156C92.4906 32.3843 91.8337 31.6816 91.7722 32.5703C91.7516 32.777 91.9774 33.1696 92.0801 33.1696C92.6548 33.1696 92.86 32.7563 92.8806 32.1156Z" fill="#1A130D"/>
<path d="M92.8802 32.1163C92.8597 32.757 92.6545 33.1703 92.0592 33.1703C91.9566 33.1703 91.7308 32.7777 91.7513 32.571C91.8334 31.6823 92.4903 32.385 92.8802 32.1163Z" fill="#FFF3E0"/>
</svg>
