<svg width="124" height="61" viewBox="0 0 124 61" fill="none" xmlns="http://www.w3.org/2000/svg">
<path d="M0 61.4004C0 40.8004 0 20.1004 0 -0.599609C41.2 -0.599609 82.5 -0.599609 123.8 -0.599609C123.8 20.0004 123.8 40.7004 123.8 61.4004C82.5 61.4004 41.3 61.4004 0 61.4004ZM69.6 23.4004C69.6 24.0004 69.6 24.6004 69.6 25.3004C69.6 26.0004 69.6 26.6004 69.6 27.3004C69.6 29.4004 70.5 30.2004 72.6 29.7004C73.3 29.5004 73.8 29.2004 73.8 28.3004C73.7 27.4004 73.6 26.4004 73.6 25.5004C73.6 25.1004 73.9 24.8004 74 24.4004C74.3 24.6004 74.8 24.6004 75 24.9004C76.3 26.2004 77.6 27.6004 78.9 28.9004C79.6 29.6004 81.7 30.0004 82.5 29.6004C83.6 29.1004 83.3 28.1004 83.3 27.2004C83.3 24.5004 83.3 21.9004 83.2 19.2004C83.2 17.8004 82.9 17.5004 81.5 17.6004C81.1 17.6004 80.7 17.6004 80.3 17.6004C79.4 17.7004 78.9 18.1004 79 19.0004C79.1 20.0004 79.2 21.0004 79.2 22.0004C79.2 22.3004 78.9 22.7004 78.7 22.9004C78.6 23.0004 78.1 22.7004 77.9 22.5004C76.7 21.4004 75.5 20.3004 74.5 19.0004C73.5 17.7004 72.3 17.4004 70.8 17.6004C69.9 17.7004 69.5 18.1004 69.5 19.0004C69.6 20.5004 69.6 22.0004 69.6 23.4004ZM94 29.9004C94 29.8004 94 29.7004 94.1 29.6004C94.3 29.6004 94.4 29.6004 94.6 29.6004C98.1 29.8004 98.5 29.4004 98.5 26.0004C98.5 25.1004 98.5 24.2004 97.2 24.2004C95.7 24.1004 95.3 24.3004 95.1 25.6004C95 26.5004 94.4 26.8004 93.6 26.7004C92.1 26.5004 90.8 25.0004 90.9 23.5004C91 21.0004 93.8 19.5004 96.3 20.5004C96.8 20.7004 97.7 20.7004 97.8 20.5004C98 20.0004 98.2 19.2004 97.9 18.7004C97.7 18.2004 97 17.8004 96.4 17.8004C95.1 17.6004 93.8 17.5004 92.6 17.6004C89.8 17.8004 87.2 20.2004 86.8 22.6004C86.4 25.2004 87.2 27.9004 90.2 29.1004C91.5 29.5004 92.8 29.7004 94 29.9004ZM45.6 17.6004C43.5 17.5004 43.3 17.8004 44.1 19.5004C45.5 22.5004 47 25.5004 48.4 28.4004C48.8 29.3004 49.5 29.6004 50.4 29.6004C51.4 29.6004 52.3 29.3004 52.7 28.3004C54.1 25.2004 55.6 22.2004 56.9 19.1004C57.1 18.7004 56.9 17.9004 56.6 17.7004C55.4 16.9004 53.4 17.6004 52.8 18.8004C52.2 20.0004 51.7 21.3004 51.1 22.5004C51 22.8004 50.6 23.2004 50.3 23.2004C50 23.2004 49.6 22.9004 49.5 22.6004C49 21.6004 48.4 20.5004 48 19.5004C47.7 18.2004 47 17.3004 45.6 17.6004ZM23.3 23.7004C23.3 25.2004 23.3 26.6004 23.3 28.1004C23.3 29.3004 23.7 29.8004 24.9 29.7004C26.8 29.7004 28.6 29.7004 30.5 29.7004C31.5 29.7004 32.3 29.6004 32.2 28.3004C32.2 27.2004 31.7 26.7004 30.5 26.6004C30.1 26.6004 29.7 26.6004 29.3 26.6004C27.8 26.6004 27.5 26.2004 27.5 24.8004C27.5 22.9004 27.5 21.0004 27.5 19.1004C27.5 18.3004 27.3 17.7004 26.5 17.7004C25.4 17.7004 24.2 17.3004 23.4 18.4004C23.3 18.5004 23.3 18.8004 23.3 19.0004C23.3 20.5004 23.3 22.1004 23.3 23.7004ZM23.9 33.9004C23.9 34.0004 23.9 34.2004 23.8 34.3004C24.1 34.4004 24.5 34.6004 24.8 34.6004C26.1 34.6004 27.4 34.5004 28.8 34.5004C31.9 34.5004 34.9 34.6004 38 34.6004C44.2 34.6004 50.5 34.5004 56.7 34.5004C61.3 34.5004 65.9 34.6004 70.5 34.6004C74.2 34.6004 78 34.5004 81.7 34.5004C86.6 34.5004 91.4 34.6004 96.3 34.6004C96.7 34.6004 97.2 34.4004 97.6 34.3004C97.6 34.2004 97.6 34.0004 97.5 33.9004C73 33.9004 48.5 33.9004 23.9 33.9004ZM65 23.6004C65 22.1004 65 20.6004 65 19.1004C65 18.1004 64.6 17.7004 63.7 17.6004C63.3 17.6004 63 17.6004 62.6 17.5004C60.9 17.4004 60.7 17.7004 60.8 19.3004C60.8 19.8004 60.8 20.4004 60.8 20.9004C60.8 23.1004 60.8 25.4004 60.7 27.6004C60.7 29.2004 61.2 29.7004 62.8 29.5004C63 29.5004 63.3 29.5004 63.5 29.5004C64.5 29.5004 64.9 29.1004 64.9 28.1004C65 26.7004 65 25.1004 65 23.6004ZM40.1 23.6004C40.1 22.0004 40.1 20.5004 40.1 18.9004C40.1 18.0004 39.6 17.6004 38.8 17.6004C38.4 17.6004 38 17.6004 37.6 17.6004C36.2 17.6004 35.9 17.9004 35.9 19.3004C35.9 22.2004 35.9 25.1004 35.8 28.0004C35.8 29.0004 36.2 29.6004 37.2 29.7004C37.8 29.8004 38.4 29.8004 38.9 29.7004C39.7 29.6004 40.1 29.2004 40.1 28.3004C40.1 26.7004 40.1 25.2004 40.1 23.6004ZM80.8 40.8004C80.9 40.8004 81 40.9004 81.1 40.9004C81.1 41.1004 81 41.4004 81 41.6004C81.2 42.2004 81.3 43.1004 81.7 43.2004C82.6 43.4004 82.3 42.5004 82.5 42.0004C82.6 41.8004 82.8 41.4004 83 41.4004C83.3 41.4004 83.6 41.6004 83.8 41.8004C84.1 42.2004 84.3 42.7004 84.7 43.0004C85.4 43.6004 86.1 43.3004 86.2 42.4004C86.3 41.6004 86.4 40.8004 86.3 39.9004C86.3 39.6004 85.9 39.2004 85.7 38.9004C85.4 39.1004 85.1 39.3004 84.9 39.6004C84.5 40.5004 84.1 40.5004 83.5 39.9004C83 39.4004 82.3 39.0004 81.8 38.5004C81.4 39.4004 81.1 40.1004 80.8 40.8004ZM23.2 41.0004C23.2 43.3004 23.5 43.7004 24.6 43.7004C26.9 43.6004 28.2 42.6004 28.2 40.8004C28.2 39.4004 26.8 38.6004 24.4 38.7004C22.6 38.7004 23.4 40.1004 23.2 41.0004ZM70.4 42.9004C69.8 41.5004 69.4 40.5004 68.9 39.5004C68.3 38.3004 67.3 38.2004 66.6 39.4004C66.1 40.3004 65.7 41.3004 65.4 42.2004C65.3 42.4004 65.3 42.9004 65.5 43.0004C65.7 43.1004 66.2 43.2004 66.4 43.1004C67.3 42.2004 68.2 42.4004 69.2 43.1004C69.4 43.2004 69.9 43.0004 70.4 42.9004ZM51.5 38.6004C51.4 38.7004 51.2 38.7004 51.1 38.8004C51 39.1004 50.9 39.4004 51 39.6004C51.5 40.8004 52.1 41.9004 52.7 43.0004C52.8 43.1004 53.7 43.0004 53.8 42.8004C54.3 41.9004 54.8 41.0004 55.2 40.0004C55.3 39.7004 55.1 39.3004 55 38.9004C54.7 39.1004 54.4 39.2004 54.1 39.4004C54 39.5004 53.9 39.8004 53.8 39.9004C53.4 40.6004 53 40.6004 52.5 39.9004C52.3 39.4004 51.9 39.0004 51.5 38.6004ZM40.3 41.1004C40.2 41.1004 40.2 41.1004 40.3 41.1004C40.2 40.6004 40.3 40.1004 40.2 39.6004C40.1 39.3004 39.8 39.1004 39.5 38.8004C39.3 39.1004 38.9 39.3004 38.9 39.6004C38.8 40.6004 38.8 41.6004 38.9 42.5004C38.9 42.7004 39.3 43.1004 39.5 43.1004C39.7 43.1004 40.1 42.8004 40.1 42.5004C40.2 42.1004 40.2 41.6004 40.3 41.1004ZM97 41.1004C97 41.6004 96.9 42.1004 97 42.6004C97 42.8004 97.4 43.2004 97.6 43.2004C97.8 43.2004 98.2 42.9004 98.2 42.6004C98.3 42.1004 98.3 41.5004 98.3 41.0004C98.3 40.3004 98.7 39.1004 97.6 39.1004C96.5 39.1004 97 40.3004 97 41.1004Z" fill="#1A130D"/>
<path d="M69.5996 23.4004C69.5996 21.9004 69.5996 20.5004 69.5996 19.0004C69.5996 18.1004 69.9996 17.7004 70.8996 17.6004C72.3996 17.4004 73.5996 17.7004 74.5996 19.0004C75.5996 20.3004 76.7996 21.3004 77.9996 22.5004C78.1996 22.7004 78.6996 23.0004 78.7996 22.9004C79.0996 22.7004 79.2996 22.3004 79.2996 22.0004C79.2996 21.0004 79.1996 20.0004 79.0996 19.0004C78.9996 18.0004 79.4996 17.6004 80.3996 17.6004C80.7996 17.6004 81.1996 17.6004 81.5996 17.6004C82.9996 17.6004 83.2996 17.9004 83.2996 19.2004C83.2996 21.9004 83.3996 24.5004 83.3996 27.2004C83.3996 28.1004 83.6996 29.1004 82.5996 29.6004C81.7996 30.0004 79.5996 29.6004 78.9996 28.9004C77.6996 27.6004 76.3996 26.2004 75.0996 24.9004C74.7996 24.6004 74.3996 24.6004 74.0996 24.4004C73.8996 24.8004 73.6996 25.1004 73.6996 25.5004C73.6996 26.4004 73.7996 27.4004 73.8996 28.3004C73.9996 29.1004 73.4996 29.5004 72.6996 29.7004C70.5996 30.2004 69.5996 29.5004 69.6996 27.3004C69.6996 26.6004 69.6996 26.0004 69.6996 25.3004C69.5996 24.7004 69.5996 24.0004 69.5996 23.4004Z" fill="#FFF3E0"/>
<path d="M94.0005 29.9008C92.8005 29.6008 91.5005 29.5008 90.3005 29.1008C87.3005 28.0008 86.5005 25.2008 86.9005 22.6008C87.2005 20.1008 89.9005 17.8008 92.7005 17.6008C94.0005 17.5008 95.3005 17.6008 96.5005 17.8008C97.1005 17.9008 97.8005 18.3008 98.0005 18.7008C98.2005 19.2008 98.1005 20.0008 97.9005 20.5008C97.8005 20.7008 96.8005 20.7008 96.4005 20.5008C94.0005 19.5008 91.1005 21.1008 91.0005 23.5008C90.9005 25.0008 92.2005 26.6008 93.7005 26.7008C94.5005 26.8008 95.0005 26.5008 95.2005 25.6008C95.4005 24.2008 95.8005 24.1008 97.3005 24.2008C98.6005 24.3008 98.6005 25.1008 98.6005 26.0008C98.6005 29.4008 98.1005 29.8008 94.7005 29.6008C94.5005 29.6008 94.4005 29.6008 94.2005 29.6008C94.0005 29.8008 94.0005 29.9008 94.0005 29.9008Z" fill="#FFF3E0"/>
<path d="M45.5996 17.6001C46.9996 17.3001 47.6996 18.2001 48.1996 19.5001C48.5996 20.6001 49.0996 21.6001 49.6996 22.6001C49.7996 22.9001 50.1996 23.2001 50.4996 23.2001C50.7996 23.2001 51.0996 22.8001 51.2996 22.5001C51.8996 21.3001 52.3996 20.0001 52.9996 18.8001C53.5996 17.5001 55.5996 16.9001 56.7996 17.7001C57.0996 17.9001 57.1996 18.7001 57.0996 19.1001C55.6996 22.2001 54.2996 25.3001 52.8996 28.3001C52.3996 29.3001 51.5996 29.6001 50.5996 29.6001C49.6996 29.6001 48.9996 29.3001 48.5996 28.4001C47.1996 25.4001 45.6996 22.4001 44.2996 19.5001C43.2996 17.8001 43.4996 17.5001 45.5996 17.6001Z" fill="#FFF3E0"/>
<path d="M23.2998 23.7C23.2998 22.1 23.2998 20.5 23.2998 19C23.2998 18.8 23.2998 18.5 23.3998 18.4C24.1998 17.2 25.3998 17.7 26.4998 17.7C27.2998 17.7 27.4998 18.4 27.4998 19.1C27.4998 21 27.4998 22.9 27.4998 24.8C27.4998 26.3 27.7998 26.6 29.2998 26.6C29.6998 26.6 30.0998 26.6 30.4998 26.6C31.6998 26.6 32.1998 27.1 32.1998 28.3C32.1998 29.6 31.4998 29.7 30.4998 29.7C28.5998 29.7 26.7998 29.7 24.8998 29.7C23.6998 29.7 23.2998 29.3 23.2998 28.1C23.2998 26.6 23.2998 25.1 23.2998 23.7Z" fill="#FFF3E0"/>
<path d="M23.9004 33.9004C48.5004 33.9004 73.0004 33.9004 97.6004 33.9004C97.6004 34.0004 97.6004 34.2004 97.7004 34.3004C97.3004 34.4004 96.8004 34.6004 96.4004 34.6004C91.5004 34.6004 86.7004 34.5004 81.8004 34.5004C78.1004 34.5004 74.3004 34.6004 70.6004 34.6004C66.0004 34.6004 61.4004 34.5004 56.8004 34.5004C50.6004 34.5004 44.3004 34.6004 38.1004 34.6004C35.0004 34.6004 32.0004 34.5004 28.9004 34.5004C27.6004 34.5004 26.3004 34.6004 24.9004 34.6004C24.6004 34.6004 24.2004 34.4004 23.9004 34.3004C23.9004 34.2004 23.9004 34.1004 23.9004 33.9004Z" fill="#FFF3E0"/>
<path d="M64.9998 23.6003C64.9998 25.1003 64.9998 26.7003 64.9998 28.2003C64.9998 29.2003 64.5998 29.6003 63.5998 29.6003C63.3998 29.6003 63.0998 29.6003 62.8998 29.6003C61.2998 29.7003 60.7998 29.3003 60.7998 27.7003C60.7998 25.5003 60.7998 23.2003 60.8998 21.0003C60.8998 20.5003 60.8998 19.9003 60.8998 19.4003C60.7998 17.8003 61.0998 17.5003 62.6998 17.6003C63.0998 17.6003 63.4998 17.6003 63.7998 17.7003C64.5998 17.8003 65.0998 18.2003 65.0998 19.2003C64.9998 20.6003 65.0998 22.1003 64.9998 23.6003Z" fill="#FFF3E0"/>
<path d="M40.0998 23.6C40.0998 25.1 40.0998 26.7 40.0998 28.2C40.0998 29.1 39.6998 29.5 38.8998 29.6C38.2998 29.7 37.6998 29.6 37.1998 29.6C36.1998 29.5 35.7998 29 35.7998 27.9C35.8998 25 35.8998 22.1 35.8998 19.2C35.8998 17.8 36.1998 17.5 37.5998 17.5C37.9998 17.5 38.3998 17.5 38.7998 17.5C39.5998 17.6 40.0998 17.9 40.0998 18.8C40.0998 20.5 40.0998 22.1 40.0998 23.6Z" fill="#FFF3E0"/>
<path d="M80.7998 40.8002C81.0998 40.1002 81.3998 39.4002 81.6998 38.7002C82.2998 39.2002 82.8998 39.6002 83.3998 40.1002C84.0998 40.7002 84.3998 40.7002 84.7998 39.8002C84.8998 39.5002 85.2998 39.3002 85.5998 39.1002C85.7998 39.4002 86.1998 39.8002 86.1998 40.1002C86.1998 40.9002 86.1998 41.7002 86.0998 42.6002C85.9998 43.5002 85.2998 43.8002 84.5998 43.2002C84.1998 42.9002 83.9998 42.4002 83.6998 42.0002C83.4998 41.8002 83.1998 41.6002 82.8998 41.6002C82.7998 41.6002 82.5998 42.0002 82.3998 42.2002C82.1998 42.7002 82.4998 43.6002 81.5998 43.4002C81.1998 43.3002 81.0998 42.4002 80.8998 41.8002C80.7998 41.6002 80.8998 41.3002 80.9998 41.1002C80.9998 40.9002 80.8998 40.8002 80.7998 40.8002Z" fill="#FFF3E0"/>
<path d="M23.2 41.0004C23.4 40.2004 22.6 38.7004 24.4 38.6004C26.8 38.5004 28.2 39.4004 28.2 40.7004C28.2 42.5004 27 43.5004 24.6 43.6004C23.5 43.7004 23.3 43.3004 23.2 41.0004ZM24.3 40.9004C24.8 41.6004 25.1 42.1004 25.5 42.6004C25.9 42.0004 26.6 41.6004 26.7 40.9004C26.9 40.1004 26.2 39.5004 25.4 39.6004C25 39.6004 24.7 40.3004 24.3 40.9004Z" fill="#FFF3E0"/>
<path d="M70.3998 42.9008C69.8998 43.0008 69.3998 43.2008 69.1998 43.0008C68.1998 42.3008 67.3998 42.1008 66.3998 43.0008C66.1998 43.1008 65.6998 43.1008 65.4998 42.9008C65.3998 42.8008 65.2998 42.3008 65.3998 42.1008C65.7998 41.1008 66.0998 40.1008 66.5998 39.3008C67.2998 38.1008 68.2998 38.2008 68.8998 39.4008C69.3998 40.5008 69.7998 41.5008 70.3998 42.9008Z" fill="#FFF3E0"/>
<path d="M51.4997 38.6006C51.7997 39.0006 52.1997 39.4006 52.4997 39.9006C52.9997 40.6006 53.2997 40.6006 53.7997 39.9006C53.8997 39.7006 53.8997 39.5006 54.0997 39.4006C54.3997 39.2006 54.6997 39.1006 54.9997 38.9006C55.0997 39.3006 55.2997 39.7006 55.1997 40.0006C54.7997 41.0006 54.3997 41.9006 53.7997 42.8006C53.6997 43.0006 52.7997 43.1006 52.6997 43.0006C52.0997 41.9006 51.4997 40.7006 50.9997 39.6006C50.8997 39.4006 51.0997 39.1006 51.0997 38.8006C51.2997 38.7006 51.3997 38.6006 51.4997 38.6006Z" fill="#FFF3E0"/>
<path d="M40.2998 41.1004C40.2998 41.6004 40.2998 42.1004 40.1998 42.6004C40.0998 42.8004 39.7998 43.2004 39.5998 43.2004C39.3998 43.2004 38.9998 42.8004 38.9998 42.6004C38.8998 41.6004 38.8998 40.6004 38.9998 39.7004C38.9998 39.4004 39.3998 39.2004 39.5998 38.9004C39.7998 39.2004 40.1998 39.4004 40.2998 39.7004C40.2998 40.1004 40.1998 40.7004 40.2998 41.1004C40.1998 41.1004 40.1998 41.1004 40.2998 41.1004Z" fill="#FFF3E0"/>
<path d="M96.9996 41.1006C96.9996 40.4006 96.3996 39.1006 97.6996 39.1006C98.7996 39.1006 98.3996 40.3006 98.3996 41.0006C98.3996 41.5006 98.3996 42.1006 98.2996 42.6006C98.1996 42.8006 97.8996 43.2006 97.6996 43.2006C97.4996 43.2006 97.1996 42.8006 97.0996 42.6006C96.9996 42.1006 96.9996 41.6006 96.9996 41.1006Z" fill="#FFF3E0"/>
<path d="M24.2998 40.9008C24.7998 40.3008 25.0998 39.6007 25.3998 39.6007C26.0998 39.5007 26.8998 40.1008 26.6998 40.9008C26.4998 41.5008 25.8998 42.0007 25.4998 42.6007C25.0998 42.1007 24.6998 41.6008 24.2998 40.9008Z" fill="#1A130D"/>
</svg>
