<svg width="173" height="61" viewBox="0 0 173 61" fill="none" xmlns="http://www.w3.org/2000/svg">
<path d="M0 60.2C0 40.2 0 20.1 0 0C57.4 0 114.8 0 172.2 0C172.2 20.1 172.2 40.2 172.2 60.2C114.8 60.2 57.4 60.2 0 60.2ZM49.1 31.4C49 30.9 48.8 30.1 48.5 29.3C47.4 26.8 45.2 25.5 42.9 24.5C39.6 23.1 36 22.6 32.4 23C28.4 23.4 24.7 24.4 21.7 27.2C19.9 28.9 19.1 31.7 20.1 34C21.2 36.5 23.4 38 25.8 39.1C26.1 39.3 26.8 38.9 27.2 38.6C27.6 38.3 27.7 37.8 27.9 37.3C29.8 33.2 31.7 29.1 33.6 25C33.8 24.7 34.1 24.3 34.4 24.3C34.6 24.3 35 24.7 35.1 25C37 29 38.8 33 40.7 37C42 39.8 42 39.8 44.7 38.3C47 36.8 48.9 34.9 49.1 31.4ZM92 27.4C92.4 27.8 92.6 28 92.8 28.1C94.1 30 95.5 31.8 96.8 33.7C97.6 34.8 98 34.8 98.8 33.7C100.1 31.8 101.4 29.9 102.7 28.1C102.8 27.9 103.1 27.8 103.4 27.7C103.5 27.9 103.7 28.1 103.7 28.3C103.8 28.6 103.7 28.9 103.7 29.2C103.7 32.2 103.6 35.1 103.7 38.1C103.7 38.6 104.3 39.1 104.5 39.5C104.8 39 105.3 38.6 105.3 38.1C105.3 33.9 105.3 29.6 105.2 25.4C105.2 24.9 104.8 24.4 104.5 23.9C104 24.2 103.4 24.3 103.1 24.7C101.6 26.8 100.1 28.9 98.6 31C97.8 32.2 97.3 32.2 96.5 31C95.1 29 93.8 26.9 92.4 25C92 24.5 91.3 24.3 90.7 24C90.5 24.6 90.1 25.2 90.1 25.8C90 29.9 90 34 90.1 38.2C90.1 38.7 90.6 39.2 90.9 39.7C91.2 39.2 91.7 38.8 91.8 38.3C91.8 35.2 91.7 32.1 91.7 29.1C91.8 28.4 91.9 28 92 27.4ZM120.9 27.5C121 27.4 121.1 27.4 121.3 27.3C121.6 27.6 122 27.8 122.3 28.2C123 29 123.6 29.8 124.3 30.6C126.4 33.3 128.5 36 130.7 38.7C131 39 131.6 39.4 131.9 39.3C132.2 39.2 132.6 38.6 132.6 38.1C132.7 33.8 132.7 29.5 132.6 25.2C132.6 24.7 132.1 24.2 131.8 23.7C131.5 24.2 130.9 24.7 130.9 25.1C130.9 28 130.9 31 130.9 34C130.9 34.4 130.6 34.9 130.5 35.3C130.1 35.1 129.7 34.9 129.4 34.6C126.7 31.2 124 27.8 121.3 24.5C121 24.1 120.3 24 119.8 23.7C119.6 24.2 119.1 24.8 119.1 25.3C119 29.5 119 33.6 119.1 37.8C119.1 38.3 119.6 39.3 120 39.3C120.9 39.4 120.9 38.5 120.9 37.9C120.9 34.9 120.9 31.9 120.9 28.9C120.8 28.5 120.9 28 120.9 27.5ZM33.8 40.8C35.4 40.7 36.8 40.6 38.3 40.4C39.5 40.3 39.8 39.7 39.3 38.6C37.9 35.4 36.4 32.2 35 29.1C34.9 28.8 34.5 28.5 34.2 28.4C34 28.4 33.7 28.8 33.6 29C32.1 32.2 30.6 35.4 29.2 38.6C28.8 39.5 29.1 40.2 30.1 40.3C31.3 40.6 32.6 40.7 33.8 40.8ZM73.2 29.4C73.2 28.1 73.3 26.7 73.2 25.4C73.1 24.8 72.7 24.3 72.4 23.8C72.1 24.3 71.5 24.8 71.5 25.3C71.4 28.2 71.4 31.1 71.6 34C71.9 37.6 74.6 39.9 78.2 39.7C82.3 39.5 84.4 37.3 84.8 33.6C85.1 30.8 84.9 27.9 84.8 25.1C84.8 24.6 84.3 24.2 84 23.7C83.7 24.2 83.4 24.6 83.1 25.1C83 25.2 83.1 25.3 83.1 25.5C83.1 28 83.2 30.6 83.1 33.1C83 34.2 82.7 35.4 82.1 36.3C81.1 37.9 78.4 38.6 76.5 37.9C74.8 37.3 73.4 35.4 73.3 33.4C73.2 32.1 73.2 30.7 73.2 29.4ZM137.9 39.4C138.2 39 138.7 38.6 139 38C140.4 35.1 141.7 32.1 143 29.2C143.1 28.9 143.5 28.5 143.7 28.5C144 28.6 144.4 28.9 144.5 29.2C145.9 32.2 147.2 35.2 148.5 38.2C148.6 38.5 148.8 38.9 149.1 39C149.4 39.2 149.9 39.2 150.3 39.2C150.4 38.8 150.6 38.4 150.4 38.1C148.4 33.8 146.4 29.6 144.4 25.4C144.3 25.1 144 24.9 143.7 24.6C143.4 24.9 143.1 25.1 142.9 25.4C141.7 27.9 140.5 30.5 139.3 33.1C138.5 34.8 137.8 36.4 137 38.1C136.8 38.7 136.8 39.2 137.9 39.4ZM58.3 31.6C58.3 33.7 58.3 35.8 58.3 37.8C58.3 39.1 58.6 39.4 59.9 39.4C62.4 39.4 65 39.4 67.5 39.3C68 39.3 68.5 38.8 68.9 38.5C68.4 38.2 67.9 37.8 67.4 37.7C65.5 37.6 63.6 37.7 61.7 37.7C60.2 37.7 59.9 37.5 59.9 36C59.9 32.4 59.9 28.8 59.9 25.3C59.9 24.7 59.4 23.7 59.1 23.7C58 23.7 58.2 24.7 58.2 25.4C58.3 27.6 58.3 29.6 58.3 31.6ZM113.1 31.6C113.1 29.4 113.2 27.2 113.1 25C113.1 24.6 112.6 24.2 112.3 23.8C112 24.2 111.7 24.6 111.4 25C111.3 25.1 111.4 25.3 111.4 25.5C111.4 29.3 111.4 33.1 111.4 36.9C111.4 37.5 111.3 38.1 111.4 38.6C111.5 38.9 111.9 39.2 112.1 39.5C112.4 39.2 112.7 39 112.9 38.7C113 38.4 113 38 113 37.6C113.1 35.5 113.1 33.6 113.1 31.6Z" fill="#1A130D"/>
<path d="M49.1001 31.3995C48.9001 34.8995 47.1001 36.7995 44.6001 38.1995C42.0001 39.6995 41.9001 39.6995 40.6001 36.8995C38.8001 32.8995 36.9001 28.8995 35.0001 24.8995C34.9001 24.5995 34.5001 24.0995 34.3001 24.1995C34.0001 24.2995 33.6001 24.5995 33.5001 24.8995C31.6001 28.9995 29.7001 33.0995 27.8001 37.1995C27.6001 37.6995 27.4001 38.1995 27.1001 38.4995C26.7001 38.7995 26.0001 39.0995 25.7001 38.9995C23.3001 37.9995 21.1001 36.4995 20.0001 33.9995C19.0001 31.7995 19.8001 28.8995 21.6001 27.1995C24.6001 24.3995 28.3001 23.3995 32.3001 22.9995C35.9001 22.5995 39.5001 23.0995 42.8001 24.4995C45.1001 25.4995 47.4001 26.7995 48.4001 29.2995C48.8001 30.0995 49.0001 30.9995 49.1001 31.3995Z" fill="#FFF3E0"/>
<path d="M91.9996 27.3996C91.8996 28.0996 91.6996 28.4996 91.6996 28.7996C91.6996 31.8996 91.7996 34.9996 91.7996 37.9996C91.7996 38.4996 91.1996 38.8996 90.8996 39.3996C90.5996 38.8996 90.0996 38.3996 90.0996 37.8996C90.0996 33.7996 90.0996 29.6996 90.0996 25.4996C90.0996 24.8996 90.4996 24.2996 90.6996 23.6996C91.2996 23.9996 92.0996 24.1996 92.3996 24.6996C93.8996 26.6996 95.1996 28.6996 96.4996 30.6996C97.2996 31.8996 97.6996 31.8996 98.5996 30.6996C100.1 28.5996 101.5 26.4996 103.1 24.3996C103.4 23.9996 104 23.8996 104.5 23.5996C104.7 24.0996 105.2 24.5996 105.2 25.0996C105.3 29.2996 105.3 33.5996 105.3 37.7996C105.3 38.2996 104.8 38.7996 104.5 39.1996C104.2 38.6996 103.7 38.2996 103.7 37.7996C103.6 34.7996 103.7 31.8996 103.7 28.8996C103.7 28.5996 103.7 28.2996 103.7 27.9996C103.7 27.7996 103.5 27.5996 103.4 27.3996C103.2 27.4996 102.9 27.5996 102.7 27.7996C101.4 29.6996 99.9996 31.4996 98.7996 33.3996C97.9996 34.4996 97.5996 34.5996 96.7996 33.3996C95.4996 31.4996 94.0996 29.6996 92.7996 27.7996C92.6996 27.8996 92.4996 27.7996 91.9996 27.3996Z" fill="#FFF3E0"/>
<path d="M120.9 27.5002C120.9 28.0002 120.8 28.5002 120.8 28.9002C120.8 31.9002 120.8 34.9002 120.8 37.9002C120.8 38.6002 120.8 39.4002 119.9 39.3002C119.5 39.3002 119 38.3002 119 37.8002C118.9 33.6002 119 29.5002 119 25.3002C119 24.8002 119.4 24.2002 119.7 23.7002C120.2 24.0002 120.9 24.1002 121.2 24.5002C123.9 27.8002 126.6 31.2002 129.3 34.6002C129.6 34.9002 130 35.1002 130.4 35.3002C130.5 34.9002 130.8 34.4002 130.8 34.0002C130.8 31.0002 130.7 28.1002 130.8 25.1002C130.8 24.6002 131.4 24.1002 131.7 23.7002C132 24.2002 132.5 24.7002 132.5 25.2002C132.5 29.5002 132.5 33.8002 132.5 38.1002C132.5 38.5002 132.1 39.1002 131.8 39.3002C131.5 39.4002 130.9 39.1002 130.6 38.7002C128.4 36.0002 126.3 33.3002 124.2 30.6002C123.6 29.8002 122.9 29.0002 122.2 28.2002C121.9 27.9002 121.6 27.6002 121.2 27.3002C121.1 27.4002 121 27.5002 120.9 27.5002Z" fill="#FFF3E0"/>
<path d="M33.8004 40.8C32.6004 40.7 31.3004 40.6 30.0004 40.4C29.1004 40.3 28.7004 39.6 29.1004 38.7C30.6004 35.5 32.0004 32.3 33.5004 29.1C33.6004 28.8 34.0004 28.4 34.1004 28.5C34.4004 28.6 34.7004 28.9 34.9004 29.2C36.4004 32.4 37.8004 35.5 39.2004 38.7C39.7004 39.8 39.3004 40.4 38.2004 40.5C36.8004 40.6 35.4004 40.7 33.8004 40.8Z" fill="#FFF3E0"/>
<path d="M73.1997 29.4002C73.1997 30.7002 73.1997 32.1002 73.1997 33.4002C73.1997 35.4002 74.5997 37.3002 76.3997 37.9002C78.2997 38.6002 80.9997 37.9002 81.9997 36.3002C82.5997 35.4002 82.8997 34.2002 82.9997 33.1002C83.0997 30.6002 82.9997 28.0002 82.9997 25.5002C82.9997 25.4002 82.9997 25.2002 82.9997 25.1002C83.2997 24.6002 83.5997 24.2002 83.8997 23.7002C84.1997 24.2002 84.6997 24.6002 84.6997 25.1002C84.7997 27.9002 84.9997 30.8002 84.6997 33.6002C84.2997 37.3002 82.1997 39.5002 78.0997 39.7002C74.4997 39.9002 71.7997 37.6002 71.4997 34.0002C71.2997 31.1002 71.2997 28.2002 71.3997 25.3002C71.3997 24.8002 71.9997 24.3002 72.2997 23.8002C72.5997 24.3002 72.9997 24.9002 73.0997 25.4002C73.2997 26.7002 73.1997 28.1002 73.1997 29.4002Z" fill="#FFF3E0"/>
<path d="M137.9 39.4C136.8 39.1 136.8 38.6 137.1 38C137.9 36.4 138.7 34.7 139.4 33C140.6 30.4 141.7 27.9 143 25.3C143.2 25 143.5 24.7 143.8 24.5C144 24.8 144.3 25 144.5 25.3C146.5 29.5 148.5 33.8 150.5 38C150.6 38.3 150.4 38.7 150.4 39.1C150 39 149.5 39 149.2 38.9C148.9 38.8 148.8 38.4 148.6 38.1C147.3 35.1 145.9 32.1 144.6 29.1C144.5 28.8 144.1 28.5 143.8 28.4C143.6 28.4 143.2 28.8 143.1 29.1C141.7 32 140.5 35 139.1 37.9C138.7 38.6 138.2 39 137.9 39.4Z" fill="#FFF3E0"/>
<path d="M58.3004 31.5998C58.3004 29.5998 58.3004 27.4998 58.3004 25.4998C58.3004 24.7998 58.1004 23.7998 59.2004 23.7998C59.5004 23.7998 60.0004 24.8998 60.0004 25.3998C60.1004 28.9998 60.0004 32.5998 60.0004 36.0998C60.0004 37.5998 60.2004 37.7998 61.8004 37.7998C63.7004 37.7998 65.6004 37.6998 67.5004 37.7998C68.0004 37.7998 68.5004 38.2998 69.0004 38.5998C68.5004 38.8998 68.1004 39.3998 67.6004 39.3998C65.1004 39.4998 62.5004 39.3998 60.0004 39.4998C58.7004 39.4998 58.4004 39.1998 58.4004 37.8998C58.3004 35.7998 58.3004 33.6998 58.3004 31.5998Z" fill="#FFF3E0"/>
<path d="M113.1 31.6002C113.1 33.6002 113.1 35.5002 113.1 37.5002C113.1 37.9002 113.1 38.3002 113 38.6002C112.8 38.9002 112.5 39.2002 112.2 39.4002C111.9 39.1002 111.5 38.9002 111.5 38.5002C111.4 37.9002 111.5 37.3002 111.5 36.8002C111.5 33.0002 111.5 29.2002 111.5 25.4002C111.5 25.2002 111.4 25.0002 111.5 24.9002C111.8 24.5002 112.1 24.1002 112.4 23.7002C112.7 24.1002 113.2 24.5002 113.2 24.9002C113.1 27.2002 113.1 29.4002 113.1 31.6002Z" fill="#FFF3E0"/>
</svg>
