<svg width="151" height="61" viewBox="0 0 151 61" fill="none" xmlns="http://www.w3.org/2000/svg">
<g clip-path="url(#clip0_608_4397)">
<path d="M151 61C100.673 61 50.3468 61 0 61C0 40.6667 0 20.3333 0 0C50.3266 0 100.653 0 151 0C151 20.3333 151 40.6667 151 61ZM28.1278 22.082C28.3504 22.3667 28.5933 22.6717 28.8563 22.997C28.5528 23.0987 28.3302 23.1597 28.0267 23.2613C28.3302 23.6273 28.5528 23.973 28.8563 24.2373C28.998 24.3593 29.2813 24.339 29.5039 24.3797C29.5039 24.1357 29.5241 23.8713 29.4634 23.6477C29.4229 23.4647 29.2206 23.302 29.2206 23.1393C29.3015 22.2447 29.0385 22.0007 28.1076 22.1023C27.8041 21.777 27.541 21.228 27.2172 21.2077C26.1852 21.106 25.3151 20.7807 24.627 19.9877C24.1414 19.4387 23.5343 19.4793 22.9272 19.764C22.2797 20.069 20.5596 20.0893 19.9121 19.8047C18.9205 19.337 17.848 19.7233 17.4838 20.6993C17.4231 20.8823 17.5445 21.1467 17.585 21.3907C17.7873 21.3093 17.9897 21.2483 18.1718 21.1467C18.5968 20.923 19.0015 20.618 19.4669 20.4757C19.6895 20.3943 20.0133 20.5977 20.2966 20.679C20.0942 20.9027 19.8716 21.1263 19.6693 21.35C19.6085 21.411 19.5276 21.472 19.305 21.6957C20.7822 21.6957 22.0369 21.6957 23.3724 21.6957C23.2712 21.594 23.2105 21.472 23.1498 21.4517C22.6035 21.3703 22.0571 21.3297 21.5107 21.228C21.2477 21.167 21.0048 20.984 20.8025 20.801C20.762 20.7603 20.9239 20.3333 21.0048 20.313C22.0166 20.2723 23.0486 20.2927 24.0604 20.2927C24.1414 20.2927 24.2628 20.3943 24.3033 20.4757C24.7687 21.228 25.4972 21.533 26.2864 21.7567C26.4078 21.7973 26.5292 21.8583 26.6102 21.96C26.8732 22.2853 26.6304 24.278 26.3876 24.6237C26.0233 25.1117 25.7198 25.6607 25.396 26.1893C25.4365 26.2097 25.4567 26.2503 25.4972 26.2707C25.7603 26.108 26.0233 25.925 26.4483 25.6607C26.5292 26.169 26.5494 26.535 26.6506 26.901C26.7113 27.1043 26.853 27.2873 26.9542 27.4703C27.1161 27.3483 27.3184 27.2263 27.4398 27.0637C27.541 26.9417 27.5612 26.7383 27.6017 26.596C26.7923 26.0877 26.7923 26.0877 26.9542 25.7623C27.2779 25.8843 27.5815 26.0063 27.9053 26.108C27.9457 25.7827 28.1076 25.4167 28.0267 25.1117C27.9457 24.7253 27.7029 24.3797 27.4803 24.0137C27.0351 23.18 27.3386 22.204 28.1278 22.082ZM37.1935 22.8953C37.0721 22.9563 36.9304 23.0173 36.809 23.0783C36.8293 23.5257 36.8697 23.973 36.8697 24.4C36.8697 27.084 36.8697 29.768 36.8495 32.452C36.8495 33.0823 37.153 33.245 37.7399 33.2247C38.3065 33.2043 38.7921 33.2043 38.7719 32.4317C38.7517 31.659 38.7517 30.866 38.7517 30.0933C38.7517 29.2597 38.7517 28.426 38.7517 27.5923C38.8326 27.572 38.9136 27.5517 38.9945 27.511C39.1969 27.6737 39.4195 27.8363 39.6218 28.0193C40.2491 28.67 40.8967 29.3207 41.4835 29.9917C41.8882 30.4593 42.212 30.439 42.637 29.9917C43.2643 29.3003 43.9118 28.6293 44.5594 27.9583C44.701 27.816 44.9034 27.7143 45.0855 27.5923C45.1664 27.816 45.3283 28.0397 45.3283 28.2837C45.3486 29.6053 45.3283 30.9473 45.3283 32.269C45.3283 33.1433 45.4497 33.184 46.4211 33.2247C47.19 33.2653 47.3519 32.8587 47.3317 32.208C47.2912 31.0693 47.271 29.9307 47.271 28.7717C47.271 27.084 47.3114 25.3963 47.3114 23.6883C47.3114 23.485 47.19 23.2817 47.1091 23.058C46.927 23.1597 46.6841 23.2207 46.5425 23.3833C45.2069 24.7863 43.8713 26.2097 42.5358 27.633C42.212 27.9787 41.9692 27.999 41.6454 27.6533C40.7348 26.657 39.7837 25.7013 38.8529 24.705C38.266 24.1357 37.7399 23.5053 37.1935 22.8953ZM66.0296 33.1433C65.9082 32.818 65.807 32.5537 65.6856 32.3097C65.2607 31.476 64.8357 30.6423 64.3703 29.829C64.0263 29.2393 64.0465 28.8327 64.6333 28.3853C65.6249 27.6127 66.0701 26.0673 65.7261 25.0913C65.2809 23.851 64.1274 23.058 62.7109 23.0173C61.4765 22.997 60.2219 23.0173 58.9875 22.9767C58.4209 22.9563 58.1579 23.2003 58.1781 23.7493C58.1983 26.657 58.2186 29.5647 58.2186 32.4927C58.2186 33.3873 58.7852 33.2043 59.3113 33.245C59.9386 33.2857 60.1612 33.001 60.141 32.4317C60.1207 31.5777 60.1005 30.7237 60.141 29.8697C60.141 29.646 60.2219 29.3207 60.3838 29.1987C60.8897 28.8327 61.8003 29.097 62.1241 29.6663C62.5288 30.4187 62.9133 31.1913 63.318 31.9437C64.1072 33.4483 64.1679 33.4687 66.0296 33.1433ZM124.532 22.9157C124.451 22.9563 124.39 22.997 124.309 23.058C124.289 23.363 124.248 23.6477 124.248 23.9527C124.248 26.108 124.248 28.2837 124.248 30.439C124.248 31.11 124.228 31.8013 124.289 32.4723C124.37 33.2653 125.017 33.0417 125.503 33.062C125.968 33.0823 126.272 32.8993 126.272 32.33C126.231 30.8457 126.231 29.3613 126.231 27.877C126.231 27.694 126.353 27.511 126.413 27.3483C126.575 27.4093 126.757 27.45 126.879 27.5517C128.316 28.914 129.732 30.2763 131.149 31.6387C131.675 32.147 132.201 32.6553 132.747 33.184C132.828 33.1637 132.909 33.1433 133.01 33.123C133.01 32.6553 133.01 32.1877 133.01 31.72C133.01 29.036 133.01 26.352 133.01 23.668C133.01 22.692 132.322 23.0173 131.796 22.9563C131.189 22.8953 131.108 23.241 131.108 23.729C131.128 25.193 131.128 26.6367 131.128 28.1007C131.128 28.3447 131.047 28.5683 130.967 28.9953C128.72 26.901 126.616 24.9083 124.532 22.9157ZM76.2892 28.1007C76.2892 29.5037 76.3094 30.9067 76.2892 32.3097C76.2892 32.8993 76.4511 33.2653 77.1189 33.245C77.7259 33.2247 78.2723 33.245 78.2318 32.3503C78.1711 31.4963 78.2116 30.6423 78.2116 29.768C78.2116 29.3207 78.333 28.975 78.8389 28.9547C80.0328 28.9343 81.2267 28.9547 82.4207 28.975C82.8861 28.975 83.1087 29.219 83.0884 29.7273C83.048 30.5407 83.0682 31.3337 83.048 32.147C83.0277 32.7367 83.0682 33.245 83.8776 33.245C84.8085 33.245 85.0109 33.1637 85.0109 32.208C85.0109 29.4223 84.9704 26.6367 84.9704 23.851C84.9704 23.0783 84.5859 22.9563 83.9384 22.9767C83.2503 22.997 83.0277 23.302 83.0277 23.9527C83.048 24.8067 83.048 25.6607 83.048 26.535C83.048 27.023 82.8456 27.2263 82.3397 27.2263C81.247 27.206 80.1542 27.1857 79.0817 27.2467C78.3533 27.2873 78.1711 26.9417 78.1914 26.3317C78.2116 25.498 78.1711 24.6643 78.2318 23.8307C78.3128 22.936 77.7057 23.058 77.1796 23.0173C76.6332 22.997 76.2892 23.1393 76.3094 23.79C76.3094 25.2337 76.2892 26.657 76.2892 28.1007ZM110.953 26.718C110.913 26.718 110.893 26.718 110.852 26.6977C110.852 25.7623 110.832 24.827 110.852 23.8917C110.872 23.2817 110.65 22.9563 110.002 22.9767C108.97 22.997 108.849 23.0987 108.849 23.8713C108.849 25.742 108.828 27.6127 108.768 29.5037C108.727 30.561 107.817 31.3743 106.785 31.4557C105.186 31.5777 104.194 30.6627 104.134 28.914C104.073 27.2467 104.134 25.5793 104.093 23.912C104.093 23.607 103.952 23.0783 103.79 23.058C103.324 22.9767 102.839 23.058 102.353 23.119C102.272 23.1393 102.171 23.3833 102.171 23.5257C102.171 25.559 102.11 27.5923 102.232 29.6257C102.373 31.6997 103.871 33.0213 106.117 33.306C108.06 33.55 109.941 32.513 110.468 30.6627C110.832 29.402 110.812 28.0397 110.953 26.718ZM133.84 28.0193C133.82 29.4427 133.82 30.8863 133.82 32.3097C133.82 32.7367 133.901 33.0823 134.447 33.0823C136.268 33.062 138.069 33.062 139.891 33.062C140.518 33.062 140.68 32.757 140.659 32.1877C140.639 31.598 140.437 31.3133 139.83 31.354C139.061 31.3947 138.272 31.3947 137.503 31.3947C135.641 31.415 135.58 31.3337 135.742 29.4833C135.783 29.036 135.965 28.8327 136.41 28.8327C137.219 28.853 138.029 28.792 138.818 28.853C139.526 28.914 139.688 28.5277 139.688 27.9583C139.688 27.389 139.526 26.9823 138.838 27.0433C138.312 27.084 137.806 27.0433 137.28 27.0433C135.722 27.0433 135.722 27.0433 135.742 25.4573C135.742 24.9083 135.924 24.644 136.511 24.6643C137.543 24.6847 138.595 24.6643 139.627 24.6847C140.133 24.6847 140.579 24.6643 140.579 23.973C140.599 23.302 140.356 22.936 139.627 22.9563C137.988 22.9767 136.369 22.997 134.73 22.9767C134.063 22.9563 133.8 23.18 133.82 23.8713C133.86 25.254 133.84 26.6367 133.84 28.0193ZM71.0684 22.7937C70.6636 22.9157 69.7935 22.997 69.0852 23.3833C67.1224 24.4407 66.0499 26.1487 66.1308 28.4057C66.2117 30.622 67.4866 32.1267 69.4495 33.001C71.554 33.9363 73.4359 33.3873 75.156 32.0047C75.2774 31.903 75.3584 31.6793 75.3179 31.537C75.1965 30.866 73.9621 30.3983 73.4359 30.8253C72.5456 31.5167 71.5945 31.8623 70.4815 31.476C68.1341 30.6627 67.6283 28.365 68.4984 26.5147C69.1662 25.0913 71.2302 23.8713 73.0312 25.1523C73.9621 25.8233 73.9621 25.7827 74.8525 25.0507C75.2572 24.705 75.2572 24.461 74.8727 24.1153C73.9014 23.241 72.7682 22.814 71.0684 22.7937ZM116.903 22.7733C114.717 22.8547 113.078 23.7493 112.086 25.5997C111.075 27.511 111.216 29.402 112.511 31.171C114.312 33.6517 118.157 33.9973 120.322 31.842C120.464 31.6997 120.545 31.3337 120.464 31.2117C119.857 30.2967 119.23 30.2153 118.36 30.8863C116.761 32.147 114.818 31.3947 113.908 29.9713C112.673 28.06 113.766 25.376 115.931 24.705C116.7 24.461 117.489 24.583 118.157 25.071C119.169 25.803 119.149 25.803 120.1 25.01C120.525 24.6643 120.403 24.4407 120.08 24.1357C119.189 23.2207 118.056 22.8547 116.903 22.7733ZM52.8763 22.875C52.6537 23.18 52.4918 23.3427 52.4109 23.5053C50.9944 26.474 49.5779 29.463 48.1816 32.452C48.1006 32.6553 48.0804 33.0213 48.2221 33.1433C48.6065 33.5297 50.0433 33.184 50.1647 32.635C50.4885 31.1507 51.4396 30.866 52.7347 31.049C53.0584 31.0897 53.4024 31.0897 53.7464 31.049C54.5154 30.9677 54.9808 31.2727 55.1427 32.0453C55.3248 32.9603 55.851 33.3263 56.8021 33.245C57.571 33.184 57.6722 33.1027 57.3484 32.391C56.3366 30.2153 55.3451 28.0397 54.3333 25.8843C53.8881 24.9287 53.4024 23.9933 52.8763 22.875ZM98.3463 22.7937C95.6144 22.814 93.9349 23.9527 93.004 26.108C92.1744 28.0193 92.5386 29.8087 93.8944 31.415C95.7763 33.6517 99.2974 33.8957 101.402 31.903C101.827 31.5167 101.786 31.3133 101.361 30.927C100.673 30.3373 100.107 30.1747 99.4795 30.9473C99.3783 31.0693 99.2164 31.11 99.0748 31.171C97.7595 31.8013 96.5655 31.476 95.574 30.5C94.6027 29.5443 94.3598 28.3243 94.7443 27.0433C95.149 25.7623 96.0192 24.9083 97.3547 24.6237C98.2856 24.4203 99.0748 24.7863 99.8033 25.376C100.269 25.742 100.876 25.5387 101.361 24.888C101.726 24.3797 101.361 24.1153 101.017 23.8713C100.107 23.241 99.1557 22.753 98.3463 22.7937ZM87.7832 28.121C87.7629 28.121 87.7629 28.121 87.7832 28.121C87.7629 26.7383 87.7427 25.3557 87.7832 23.973C87.8034 23.241 87.5808 22.9767 86.8523 22.997C85.881 23.0173 85.7596 23.0783 85.7596 23.9527C85.7596 26.7383 85.8001 29.524 85.7798 32.3097C85.7798 33.0823 86.1036 33.2043 86.7714 33.2043C87.4392 33.2043 87.8034 33.0823 87.7832 32.3097C87.7629 30.9473 87.7832 29.524 87.7832 28.121ZM123.459 28.121C123.439 28.121 123.439 28.121 123.419 28.121C123.419 26.6977 123.398 25.254 123.419 23.8307C123.419 23.302 123.317 22.936 122.71 22.997C122.164 23.0377 121.415 22.7733 121.415 23.7697C121.415 26.657 121.415 29.5443 121.435 32.452C121.435 33.428 122.225 33.0417 122.73 33.1027C123.236 33.1637 123.459 32.8993 123.459 32.3707C123.459 30.927 123.459 29.524 123.459 28.121ZM18.9408 40.199C17.0386 37.6573 18.3337 34.831 18.0706 32.1063C18.5158 32.1673 18.7991 32.2893 19.0419 32.2283C19.4871 32.1267 19.8919 31.8827 20.3168 31.7403C20.762 31.5777 20.8227 31.2727 20.5192 30.988C20.418 30.8863 20.074 30.9067 19.8716 30.988C19.2241 31.232 18.6372 31.6183 17.8683 31.354C17.7873 31.3133 17.4231 31.659 17.4231 31.842C17.3624 32.5943 17.4028 33.3467 17.3826 34.099C17.3826 34.4243 17.3219 34.7497 17.2814 35.075C17.2005 35.9087 16.9172 36.783 17.0791 37.5557C17.3826 38.9993 17.929 40.382 18.4349 41.7647C18.4956 41.9273 19.0217 42.1307 19.1431 42.029C19.386 41.846 19.5276 41.5003 19.7097 41.2157C19.0622 40.9717 19.3455 40.4633 19.5276 39.833C19.1634 40.0567 18.9812 40.1787 18.9408 40.199ZM17.6659 29.8493C16.8565 29.0767 16.9172 28.4057 17.1802 27.5923C17.3624 27.0637 17.0993 26.474 16.4113 26.2707C16.047 26.169 15.6221 26.0267 15.3995 25.742C14.8734 25.1117 14.5293 25.4573 14.1449 25.8437C13.9627 26.0267 13.6997 26.23 13.6794 26.4537C13.639 26.901 13.7401 27.3687 13.7806 27.8363C14.0842 27.7957 14.3877 27.7753 14.6912 27.7143C15.1162 27.6127 15.5209 27.4703 15.9661 27.389C16.3708 27.3077 16.472 27.5313 16.3708 27.8973C16.2696 28.304 16.1482 28.6903 16.1077 29.1173C16.0673 29.4223 16.1482 29.7477 16.1887 30.073C16.4315 30.012 16.6946 29.951 16.9374 29.9103C17.0791 29.89 17.2207 29.89 17.6659 29.8493ZM88.9568 39.345C88.8557 39.3653 88.7545 39.3857 88.6533 39.3857C88.451 38.9383 88.2688 38.4707 88.0462 38.0233C87.9653 37.8607 87.7629 37.759 87.6213 37.6167C87.4999 37.759 87.3177 37.9013 87.2773 38.064C87.1154 38.7757 86.994 39.4873 86.913 40.199C86.8928 40.382 87.0547 40.565 87.1356 40.748C87.2773 40.6057 87.4796 40.4633 87.5606 40.2803C87.682 40.016 87.7225 39.7313 87.7832 39.4467C88.0867 39.6907 88.1879 39.955 88.3295 40.1787C88.451 40.3617 88.6331 40.4837 88.795 40.6463C88.9164 40.504 89.0783 40.3617 89.1794 40.199C89.3616 39.955 89.5032 39.6703 89.6651 39.4263C89.7258 39.4467 89.8068 39.467 89.8675 39.4873C89.9079 39.7517 89.9079 40.0567 90.0091 40.3007C90.0698 40.4837 90.2722 40.6057 90.4138 40.748C90.4948 40.565 90.6567 40.3617 90.6364 40.1787C90.5555 39.467 90.4341 38.735 90.2924 38.0437C90.2722 37.9013 90.1103 37.7793 90.0091 37.637C89.8675 37.759 89.6449 37.8403 89.5639 37.9827C89.3009 38.43 89.139 38.8977 88.9568 39.345ZM98.7915 39.1213C98.7915 38.308 97.7595 37.271 96.95 37.2913C96.0596 37.3117 95.149 38.2063 95.1288 39.101C95.1086 39.9347 96.0799 40.931 96.9095 40.9513C97.7797 40.992 98.7915 39.9957 98.7915 39.1213ZM53.5036 39.1213C53.4227 39.1417 53.362 39.162 53.281 39.1823C52.8561 38.7147 52.4311 38.247 51.9657 37.7997C51.6824 37.515 51.3181 37.393 51.2777 37.9623C51.217 38.796 51.2372 39.6297 51.2574 40.4633C51.2574 40.5853 51.4598 40.809 51.5812 40.809C51.7026 40.809 51.905 40.626 51.9455 40.4837C52.0062 40.2193 51.9657 39.9143 52.0062 39.6297C52.0264 39.467 52.1478 39.3247 52.2288 39.1823C52.3704 39.2637 52.5525 39.3247 52.6537 39.4467C52.9573 39.772 53.2203 40.1177 53.5239 40.443C53.6453 40.565 53.8476 40.6463 54.0095 40.7277C54.0905 40.5447 54.2321 40.382 54.2523 40.199C54.2928 39.5077 54.3131 38.796 54.2523 38.1047C54.2321 37.881 53.9893 37.698 53.8476 37.4947C53.7262 37.698 53.5643 37.9013 53.5239 38.1047C53.4631 38.43 53.5036 38.7757 53.5036 39.1213ZM19.6693 26.657C18.9205 27.7753 19.4467 29.3207 20.5394 29.524C21.3893 29.6867 22.2797 29.707 23.1498 29.6867C23.9997 29.6663 24.7889 28.06 24.3235 27.1857C23.7974 28.2837 23.0486 29.1783 21.8345 29.036C20.6608 28.8733 19.993 27.938 19.6693 26.657ZM68.1341 39.162C68.1949 39.1213 68.2758 39.0807 68.3365 39.04C68.9436 39.6297 69.5507 40.2397 70.1577 40.8293C70.2387 40.809 70.3399 40.7887 70.4208 40.748C70.4208 39.8533 70.441 38.979 70.4006 38.0843C70.4006 37.9013 70.1982 37.7183 70.097 37.5353C69.9554 37.7183 69.7328 37.9013 69.6923 38.1047C69.6316 38.43 69.6721 38.7757 69.6721 39.345C68.9233 38.6333 68.3365 38.064 67.7294 37.515C67.6485 37.5557 67.5473 37.5963 67.4664 37.637C67.4664 38.5723 67.4461 39.528 67.4866 40.4633C67.4866 40.5853 67.7092 40.687 67.8306 40.809C67.9318 40.6667 68.0937 40.5447 68.0937 40.4023C68.1544 39.9753 68.1341 39.5687 68.1341 39.162ZM12.8093 29.1173C12.4248 28.365 12.1415 27.7143 11.7368 27.1043C11.6356 26.9417 11.1904 26.84 10.9678 26.901C9.83463 27.267 8.72166 27.6737 7.62892 28.1007C7.4468 28.182 7.32538 28.487 7.20397 28.6903C7.20397 28.7107 7.38609 28.914 7.46703 28.8937C7.7301 28.853 8.03364 28.8123 8.21576 28.6497C8.43835 28.4667 8.55977 28.1413 8.70142 27.9177C9.93581 28.8937 10.725 28.6497 11.2714 27.4093C11.7368 28.121 11.5344 29.1377 12.8093 29.1173ZM40.7955 38.674C40.8562 38.6943 40.9169 38.735 40.9979 38.7553C40.9979 39.04 40.9776 39.3247 40.9979 39.6093C41.1193 40.7683 42.293 41.2563 43.2238 40.5853C44.1749 39.894 43.7095 38.8773 43.7904 38.003C43.8106 37.8607 43.5678 37.6777 43.4464 37.515C43.3452 37.698 43.1631 37.8607 43.1226 38.064C43.0821 38.4707 43.2036 38.918 43.0821 39.3043C42.981 39.6297 42.637 39.894 42.4144 40.199C42.1918 39.9347 41.9489 39.6703 41.7668 39.3653C41.6859 39.2027 41.7668 38.9587 41.7263 38.7553C41.6252 38.3487 41.5038 37.942 41.4026 37.5353C41.2002 37.9013 40.9979 38.2877 40.7955 38.674ZM84.2217 38.552C84.2217 38.4503 84.2217 38.3487 84.2217 38.247C84.5454 38.2063 84.849 38.1657 85.1727 38.0843C85.3346 38.0437 85.4965 37.9623 85.5977 37.8607C85.6382 37.82 85.537 37.5353 85.4965 37.5353C84.9704 37.4947 84.4443 37.4133 83.9181 37.4947C83.736 37.515 83.5336 37.942 83.5134 38.2063C83.4527 38.8773 83.4325 39.5687 83.5336 40.2193C83.5741 40.4837 83.9181 40.7683 84.1812 40.9107C84.4038 41.0327 84.7478 41.0123 85.0109 40.9717C85.2335 40.931 85.4156 40.7683 85.6179 40.6667C85.4156 40.5243 85.2132 40.3617 85.0109 40.2397C84.768 40.0973 84.5252 40.016 84.2621 39.894C84.4847 39.7517 84.7276 39.6297 84.9501 39.4873C85.0918 39.3857 85.2335 39.2433 85.3751 39.1213C85.2335 38.9993 85.0918 38.857 84.9299 38.796C84.7276 38.674 84.4645 38.613 84.2217 38.552ZM63.9656 39.589C63.8644 40.7073 64.7548 41.358 65.807 40.9107C65.9082 40.87 66.0499 40.7277 66.0296 40.6463C66.0296 40.5243 65.9284 40.321 65.8273 40.2803C65.6451 40.2193 65.4023 40.3007 65.2202 40.2193C65.0178 40.138 64.8357 39.955 64.6536 39.8127C64.8357 39.6907 65.0381 39.5687 65.2202 39.4467C65.4225 39.345 65.6249 39.2433 65.8273 39.1417C65.6451 38.9993 65.463 38.8773 65.2809 38.735C65.0785 38.613 64.8762 38.5113 64.6941 38.3893C64.9166 38.2673 65.1392 38.1453 65.3618 38.0437C65.4428 38.003 65.5844 38.1047 65.6654 38.0437C65.8273 37.942 65.9487 37.7997 66.0903 37.698C65.9689 37.576 65.8475 37.3727 65.7261 37.3727C64.3298 37.271 63.7632 37.2913 63.9656 38.8163C63.9858 39.0807 63.9656 39.3043 63.9656 39.589ZM74.6299 40.7683C74.9132 40.809 74.9941 40.8293 75.0751 40.809C75.156 40.7887 75.2369 40.7683 75.2774 40.7073C75.9452 40.0567 76.613 39.9753 77.301 40.6667C77.3819 40.748 77.6652 40.7683 77.7057 40.7277C77.7867 40.5853 77.8474 40.3617 77.7867 40.2397C77.4224 39.4467 77.0582 38.6333 76.6332 37.8607C76.5725 37.7387 76.0868 37.6777 76.0666 37.7387C75.5607 38.7147 75.1155 39.6907 74.6299 40.7683ZM91.8708 39.2027C91.8708 39.5483 91.8303 39.894 91.8911 40.2193C91.9315 40.4227 92.1136 40.6057 92.2553 40.7887C92.3767 40.626 92.6195 40.4633 92.6195 40.2803C92.6398 39.7923 92.8624 39.6297 93.3278 39.5687C93.9551 39.5077 94.2991 39.0807 94.2789 38.4503C94.2586 37.759 93.5909 37.3117 92.7612 37.3523C92.1136 37.393 91.8303 37.698 91.8708 38.3487C91.8911 38.6333 91.8708 38.918 91.8708 39.2027ZM55.7093 39.101C55.7093 39.3043 55.7093 39.5077 55.7093 39.7313C55.7093 40.7683 55.851 40.9513 56.8223 40.931C57.1461 40.931 57.4698 40.7073 57.8139 40.5853C57.5103 40.4633 57.2068 40.382 56.9032 40.2397C56.7211 40.138 56.5795 39.9753 56.4176 39.833C56.5795 39.711 56.7211 39.5687 56.9032 39.467C57.1056 39.3247 57.3282 39.223 57.5508 39.101C57.3282 38.9993 57.0854 38.8977 56.8628 38.7757C56.7009 38.6943 56.5795 38.552 56.4378 38.4503C56.5795 38.3283 56.7009 38.1657 56.8628 38.0843C56.9842 38.0233 57.1865 38.125 57.308 38.0843C57.4698 38.0233 57.6115 37.881 57.7734 37.7793C57.6317 37.6573 57.5306 37.454 57.3687 37.4133C56.2355 37.149 55.7498 37.5353 55.7296 38.674C55.7093 38.796 55.7093 38.9587 55.7093 39.101ZM38.7112 40.199C37.9827 40.1787 37.5173 39.5687 37.6994 38.8977C37.8815 38.2063 38.2255 38.0233 39.0552 38.1453C39.2576 38.1657 39.5004 38.0437 39.723 37.9827C39.5611 37.82 39.4397 37.576 39.2373 37.4947C38.61 37.1693 37.8208 37.4133 37.3149 38.0233C36.809 38.6333 36.7483 39.4873 37.1733 40.138C37.5982 40.7887 38.5088 41.175 39.1362 40.8903C39.379 40.7887 39.5611 40.504 39.7635 40.3007C39.5004 40.26 39.2373 40.199 38.954 40.1583C38.8731 40.138 38.7719 40.1787 38.7112 40.199ZM44.9641 39.101C44.9034 40.2193 46.158 41.2563 47.1496 40.87C47.3924 40.7683 47.5745 40.504 47.7971 40.3007C47.534 40.2397 47.2507 40.0973 47.0079 40.138C46.1378 40.2803 45.5307 39.6093 45.814 38.7757C46.0568 38.0843 46.5627 37.9217 47.2507 38.125C47.4126 38.1657 47.6555 38.0233 47.8578 37.9623C47.7364 37.7997 47.6352 37.5557 47.4531 37.4743C46.3199 36.9457 45.0248 37.7997 44.9641 39.101ZM61.2944 38.4503C61.2944 38.369 61.3147 38.2877 61.3147 38.2063C61.4968 38.1657 61.6789 38.125 61.8408 38.0843C62.0634 38.0233 62.286 37.942 62.5086 37.8607C62.3062 37.698 62.1241 37.4743 61.8813 37.393C61.6587 37.332 61.3147 37.332 61.1528 37.454C60.8897 37.6573 60.5255 38.0437 60.5862 38.2673C60.6873 38.6537 61.0516 38.979 61.3147 39.3247C61.4968 39.5687 61.6991 39.7923 61.9015 40.016C61.6384 40.0363 61.3754 40.0567 61.1123 40.0973C60.9707 40.1177 60.7683 40.138 60.7278 40.2193C60.6874 40.321 60.7278 40.5243 60.8088 40.626C61.173 41.0937 62.0027 41.0327 62.4681 40.5447C62.9335 40.0567 62.8931 39.589 62.3467 39.162C62.0229 38.918 61.6587 38.6943 61.2944 38.4503ZM73.0717 40.931C73.0515 40.931 73.2538 40.9513 73.3955 40.8903C73.5371 40.8293 73.6788 40.6667 73.7192 40.5243C73.7395 40.4633 73.5371 40.2397 73.4359 40.2397C72.4039 40.199 72.7075 39.7517 73.0919 39.223C73.2741 38.979 73.355 38.6537 73.5169 38.3893C73.9621 37.637 73.8204 37.393 72.9503 37.3523C72.7479 37.332 72.5253 37.2913 72.323 37.3523C72.1408 37.4133 71.979 37.576 71.7968 37.6777C71.9385 37.7997 72.0599 38.003 72.2016 38.0233C72.8086 38.1047 72.7884 38.3893 72.5456 38.8367C72.3027 39.2637 72.0599 39.6907 71.8171 40.1177C71.554 40.565 71.6754 40.809 72.1813 40.87C72.4039 40.8903 72.6265 40.9107 73.0717 40.931ZM25.6388 38.918C25.4567 39.101 25.3151 39.2027 25.2746 39.3247C25.0318 40.138 24.5259 40.3007 23.7367 40.0973C23.0891 39.9347 22.482 40.199 21.7536 40.626C22.7451 40.5447 23.4938 40.504 24.2628 40.443C24.2021 40.5243 24.1616 40.6057 24.1009 40.687C24.3033 41.114 24.4449 41.5817 24.7282 41.9273C24.8496 42.0697 25.2746 41.9883 25.6793 42.0087C25.0722 40.8497 26.3673 39.9753 25.6388 38.918ZM27.8243 28.731C26.8732 29.5037 27.966 30.317 27.8445 31.1303C27.7838 31.476 28.6135 31.9437 29.0182 32.3503C29.1194 32.2893 29.2003 32.2487 29.3015 32.1877C29.2408 31.842 29.2003 31.476 29.1396 31.1303C29.0789 30.7643 28.9373 30.4187 28.9373 30.073C28.917 29.4427 28.5123 28.914 27.8243 28.731ZM32.6809 33.123C33.0856 31.4963 32.3571 29.341 31.0418 28.5277C31.0418 28.9547 30.9609 29.3003 31.062 29.6053C31.3454 30.6627 32.3167 31.415 32.3369 32.6147C32.3167 32.7773 32.5393 32.9197 32.6809 33.123ZM81.6922 39.3857C81.6719 38.8367 81.4493 38.2063 82.2183 37.942C82.1171 37.7387 82.0362 37.4133 81.8945 37.393C81.4898 37.332 81.0649 37.3523 80.6601 37.393C80.2554 37.4337 80.134 37.7793 80.4578 37.9623C81.0042 38.2877 80.9435 38.7757 80.9435 39.2637C80.9435 39.528 80.8827 39.7923 80.9435 40.0363C81.0042 40.3007 81.166 40.5447 81.2875 40.7887C81.4291 40.5447 81.591 40.321 81.6719 40.077C81.7529 39.8737 81.6922 39.6093 81.6922 39.3857ZM21.9559 30.9677C21.9559 31.049 21.9761 31.1303 21.9761 31.2117C22.0773 31.232 22.1583 31.293 22.2594 31.293C23.251 31.3133 24.2223 31.3133 24.9913 32.086C25.0925 32.1877 25.2746 32.2283 25.4162 32.208C25.5377 32.1877 25.6995 32.086 25.7603 31.9843C25.8007 31.903 25.74 31.72 25.6591 31.6387C25.2746 31.293 24.9103 30.9473 24.4854 30.6423C23.5141 29.8697 22.8261 30.927 21.9559 30.9677ZM33.7129 28.426C33.3082 27.9177 33.0047 27.511 32.6607 27.1247C32.6202 27.084 32.3774 27.206 32.2357 27.2873C32.0536 27.389 31.912 27.511 31.7298 27.6127C31.6691 27.389 31.6287 27.1653 31.5477 26.9417C31.4668 26.7383 31.3656 26.5553 31.2644 26.3723C31.0418 26.7587 30.7585 27.145 30.6371 27.5517C30.5966 27.6533 31.0013 28.0397 31.2644 28.0803C31.9727 28.243 32.7416 28.304 33.7129 28.426ZM29.1599 25.0507C28.917 25.6607 28.6337 26.23 28.4516 26.8197C28.4112 26.9823 28.5933 27.389 28.7349 27.4093C28.998 27.4703 29.3825 27.4093 29.5646 27.2467C30.0907 26.718 29.9086 25.7013 29.1599 25.0507ZM49.1529 39.1823H49.1327C49.1327 39.5687 49.0922 39.955 49.1529 40.3413C49.1731 40.5243 49.416 40.6667 49.5576 40.8293C49.6588 40.6667 49.8207 40.5243 49.8207 40.3617C49.8612 39.589 49.8814 38.8163 49.8409 38.0437C49.8409 37.8607 49.6183 37.698 49.4969 37.515C49.3755 37.6573 49.1731 37.7997 49.1529 37.942C49.1327 38.3487 49.1529 38.7553 49.1529 39.1823ZM26.1245 37.4133C27.1161 35.9493 27.3386 35.7053 26.1245 34.6073C26.1245 35.5833 26.1245 36.4983 26.1245 37.4133ZM18.0099 22.8953C16.2089 22.4277 15.7435 22.6513 15.4197 24.034C16.2494 23.668 17.0588 23.3223 18.0099 22.8953ZM25.6591 24.217C25.74 24.0543 25.8817 23.8917 25.8614 23.8103C25.5984 23.302 25.3151 22.814 25.0115 22.3463C24.9711 22.2853 24.6675 22.3057 24.6068 22.387C24.5259 22.509 24.4652 22.753 24.5461 22.8547C24.8699 23.302 25.2341 23.7087 25.6591 24.217ZM11.3726 29.0767C11.2916 28.9953 11.2107 28.9343 11.15 28.853C10.8869 29.1173 10.5834 29.341 10.4012 29.6663C10.3405 29.768 10.5429 30.0527 10.6036 30.256C10.7655 30.1543 10.9881 30.0933 11.069 29.951C11.2107 29.6867 11.2714 29.3613 11.3726 29.0767ZM22.6237 24.4813C22.8261 25.6403 23.1094 25.8233 23.9795 25.4777C23.5545 25.1727 23.1701 24.888 22.6237 24.4813ZM13.8009 30.3577C13.639 30.3577 13.4568 30.3373 13.295 30.3373C13.3152 30.683 13.3354 31.0287 13.3759 31.3947C13.3759 31.415 13.6794 31.4353 13.6794 31.415C13.7199 31.0693 13.7604 30.7033 13.8009 30.3577ZM33.1666 33.6313C33.0452 33.6923 32.9237 33.7737 32.8023 33.8347C32.9237 34.099 33.0654 34.3633 33.1868 34.6277C33.3285 34.5463 33.5915 34.404 33.5713 34.404C33.4701 34.1193 33.3082 33.8753 33.1666 33.6313ZM26.3673 32.574C26.2257 32.635 26.084 32.6757 25.9626 32.7367C26.1043 33.0823 26.2257 33.4077 26.3673 33.7533C26.4887 33.7127 26.6102 33.672 26.7316 33.611C26.6102 33.2653 26.4887 32.9197 26.3673 32.574Z" fill="#1A130D"/>
<path d="M37.1931 22.8955C37.7394 23.5055 38.2858 24.1155 38.8524 24.7255C39.7833 25.7218 40.7141 26.6775 41.645 27.6738C41.9687 28.0398 42.2116 27.9992 42.5353 27.6535C43.8507 26.2302 45.1862 24.8068 46.542 23.4038C46.6837 23.2615 46.9063 23.2005 47.1086 23.0785C47.1694 23.2818 47.311 23.4852 47.311 23.7088C47.311 25.3965 47.2705 27.0842 47.2705 28.7922C47.2705 29.9308 47.2908 31.0898 47.3312 32.2285C47.3515 32.8792 47.2098 33.2655 46.4206 33.2452C45.4493 33.2045 45.3279 33.1435 45.3279 32.2895C45.3279 30.9678 45.3481 29.6258 45.3279 28.3042C45.3279 28.0805 45.166 27.8568 45.0851 27.6128C44.9029 27.7348 44.7006 27.8365 44.5589 27.9788C43.9114 28.6498 43.2436 29.3208 42.6365 30.0122C42.2318 30.4595 41.908 30.4798 41.4831 30.0122C40.876 29.3412 40.2487 28.6905 39.6214 28.0398C39.4393 27.8568 39.2167 27.6942 38.9941 27.5315C38.9131 27.5518 38.8322 27.5722 38.7512 27.6128C38.7512 28.4465 38.7512 29.2802 38.7512 30.1138C38.7512 30.8865 38.7512 31.6795 38.7715 32.4522C38.7917 33.2248 38.306 33.2248 37.7394 33.2452C37.1526 33.2655 36.8491 33.1028 36.8491 32.4725C36.8693 29.7885 36.8693 27.1045 36.8693 24.4205C36.8693 23.9732 36.8288 23.5258 36.8086 23.0988C36.93 23.0378 37.0514 22.9565 37.1931 22.8955Z" fill="#FFF3E0"/>
<path d="M66.0292 33.1434C64.1675 33.4688 64.1068 33.4484 63.3176 31.9438C62.9129 31.1914 62.5284 30.4188 62.1237 29.6664C61.8202 29.0971 60.9096 28.8328 60.3834 29.1988C60.2216 29.3208 60.1406 29.6258 60.1406 29.8698C60.1204 30.7238 60.1406 31.5778 60.1406 32.4318C60.1406 33.0011 59.9383 33.2858 59.3109 33.2451C58.7646 33.2044 58.2182 33.3874 58.2182 32.4928C58.2384 29.5851 58.198 26.6774 58.1777 23.7494C58.1777 23.2004 58.4206 22.9564 58.9872 22.9768C60.2216 23.0174 61.4762 22.9768 62.7106 23.0174C64.1271 23.0378 65.2805 23.8511 65.7257 25.0914C66.0697 26.0674 65.6245 27.6128 64.633 28.3854C64.0461 28.8328 64.0259 29.2394 64.3699 29.8291C64.8353 30.6424 65.2603 31.4761 65.6852 32.3098C65.8067 32.5538 65.8876 32.8181 66.0292 33.1434ZM61.7392 27.3281C61.9618 27.3078 62.3463 27.3078 62.7308 27.2468C63.3784 27.1654 63.8438 26.8198 63.9045 26.1081C63.9652 25.3964 63.5605 24.9491 62.9129 24.8271C62.3463 24.7051 61.7392 24.7661 61.1524 24.6848C60.4037 24.5831 60.1406 24.8881 60.1406 25.6404C60.1001 27.2061 60.0597 27.2061 61.7392 27.3281Z" fill="#FFF3E0"/>
<path d="M124.532 22.916C126.636 24.9087 128.72 26.9013 130.967 29.016C131.048 28.589 131.129 28.345 131.129 28.1214C131.129 26.6574 131.129 25.2137 131.108 23.7497C131.108 23.282 131.189 22.916 131.796 22.977C132.322 23.0177 133.01 22.7127 133.01 23.6887C133.01 26.3727 133.01 29.0567 133.01 31.7407C133.01 32.2084 133.01 32.676 133.01 33.1437C132.93 33.164 132.849 33.1844 132.747 33.2047C132.221 32.6964 131.695 32.188 131.149 31.6593C129.732 30.297 128.316 28.9144 126.879 27.5724C126.758 27.4707 126.575 27.43 126.414 27.369C126.353 27.552 126.231 27.735 126.231 27.8977C126.231 29.382 126.231 30.8664 126.272 32.3507C126.292 32.92 125.989 33.103 125.503 33.0827C125.017 33.0623 124.37 33.286 124.289 32.493C124.228 31.822 124.248 31.1307 124.248 30.4597C124.248 28.3043 124.248 26.1287 124.248 23.9733C124.248 23.6683 124.289 23.3837 124.309 23.0787C124.37 22.9973 124.451 22.9567 124.532 22.916Z" fill="#FFF3E0"/>
<path d="M76.2893 28.1006C76.2893 26.6773 76.3095 25.2336 76.2893 23.8103C76.2691 23.1596 76.6131 22.9969 77.1594 23.0376C77.7058 23.0579 78.2926 22.9359 78.2117 23.8509C78.151 24.6846 78.1915 25.5183 78.1712 26.3519C78.151 26.9619 78.3331 27.3076 79.0616 27.2669C80.1544 27.2059 81.2471 27.2263 82.3196 27.2466C82.8255 27.2669 83.0278 27.0433 83.0278 26.5553C83.0278 25.7013 83.0278 24.8473 83.0076 23.9729C82.9874 23.3426 83.2302 23.0173 83.9182 22.9969C84.5658 22.9766 84.9502 23.1189 84.9502 23.8713C84.9502 26.6569 85.011 29.4426 84.9907 32.2283C84.9907 33.1636 84.7884 33.2653 83.8575 33.2653C83.0481 33.2653 83.0076 32.7569 83.0278 32.1673C83.0481 31.3539 83.0278 30.5609 83.0683 29.7476C83.0885 29.2393 82.866 28.9953 82.4005 28.9953C81.2066 28.9749 80.0127 28.9749 78.8188 28.9749C78.3129 28.9749 78.1915 29.3409 78.1915 29.7883C78.1915 30.6423 78.1712 31.5166 78.2117 32.3706C78.2724 33.2449 77.7058 33.2449 77.0987 33.2653C76.431 33.2856 76.2488 32.9196 76.2691 32.3299C76.3095 30.9066 76.2893 29.5036 76.2893 28.1006Z" fill="#FFF3E0"/>
<path d="M110.953 26.7177C110.811 28.0191 110.831 29.3814 110.467 30.6421C109.941 32.4924 108.039 33.5294 106.116 33.2854C103.87 33.0211 102.373 31.6791 102.231 29.6051C102.11 27.5717 102.17 25.5384 102.17 23.5051C102.17 23.3627 102.272 23.1187 102.353 23.0984C102.838 23.0374 103.324 22.9357 103.789 23.0374C103.951 23.0577 104.093 23.5864 104.093 23.8914C104.133 25.5587 104.073 27.2261 104.133 28.8934C104.194 30.6421 105.206 31.5571 106.784 31.4351C107.816 31.3537 108.727 30.5404 108.767 29.4831C108.848 27.6124 108.848 25.7417 108.848 23.8507C108.848 23.0781 108.97 22.9764 110.002 22.9561C110.649 22.9561 110.872 23.2611 110.852 23.8711C110.831 24.8064 110.852 25.7417 110.852 26.6771C110.892 26.7177 110.912 26.7177 110.953 26.7177Z" fill="#FFF3E0"/>
<path d="M133.84 28.0189C133.84 26.6362 133.86 25.2535 133.819 23.8709C133.799 23.1795 134.062 22.9559 134.73 22.9762C136.369 22.9965 137.988 22.9762 139.627 22.9559C140.335 22.9355 140.578 23.3015 140.578 23.9725C140.558 24.6639 140.133 24.6842 139.627 24.6842C138.595 24.6639 137.543 24.7045 136.511 24.6639C135.924 24.6435 135.742 24.9079 135.742 25.4569C135.722 27.0429 135.722 27.0429 137.28 27.0429C137.806 27.0429 138.312 27.0632 138.838 27.0429C139.526 27.0022 139.688 27.4089 139.688 27.9579C139.688 28.5272 139.506 28.8932 138.818 28.8525C138.008 28.7915 137.219 28.8322 136.41 28.8322C135.944 28.8322 135.782 29.0355 135.742 29.4829C135.58 31.3332 135.641 31.4145 137.502 31.3942C138.271 31.3942 139.061 31.3942 139.829 31.3535C140.457 31.3129 140.659 31.5975 140.659 32.1872C140.679 32.7565 140.518 33.0819 139.89 33.0616C138.069 33.0616 136.268 33.0615 134.447 33.0819C133.88 33.0819 133.819 32.7362 133.819 32.3092C133.819 30.8859 133.819 29.4422 133.84 28.0189Z" fill="#FFF3E0"/>
<path d="M71.0688 22.7939C72.7888 22.8143 73.9018 23.2616 74.8731 24.1156C75.2576 24.4613 75.2576 24.7053 74.8529 25.0509C73.9625 25.7829 73.9625 25.8033 73.0317 25.1526C71.2307 23.8716 69.1868 25.0916 68.4988 26.5149C67.6287 28.3653 68.1143 30.6629 70.4819 31.4763C71.6151 31.8626 72.5662 31.5169 73.4364 30.8256C73.9625 30.3986 75.1969 30.8663 75.3183 31.5373C75.3385 31.6796 75.2576 31.9236 75.1564 32.0049C73.4364 33.3876 71.5544 33.9366 69.4499 33.0013C67.487 32.1269 66.2122 30.6019 66.1312 28.4059C66.0503 26.1489 67.1228 24.4409 69.0857 23.3836C69.7939 22.9973 70.6641 22.8956 71.0688 22.7939Z" fill="#FFF3E0"/>
<path d="M116.902 22.7734C118.056 22.8751 119.189 23.2411 120.12 24.1154C120.444 24.4204 120.545 24.6441 120.14 24.9898C119.189 25.7624 119.229 25.7828 118.197 25.0508C117.53 24.5628 116.74 24.4408 115.971 24.6848C113.786 25.3761 112.713 28.0398 113.948 29.9511C114.858 31.3744 116.801 32.1268 118.4 30.8661C119.27 30.1951 119.897 30.2764 120.504 31.1914C120.585 31.3134 120.504 31.6998 120.363 31.8218C118.197 33.9771 114.332 33.6314 112.552 31.1508C111.256 29.3818 111.115 27.4704 112.127 25.5794C113.078 23.7494 114.717 22.8548 116.902 22.7734Z" fill="#FFF3E0"/>
<path d="M52.8761 22.875C53.4225 23.9933 53.8879 24.9287 54.3331 25.8843C55.3449 28.06 56.3365 30.2153 57.3483 32.391C57.672 33.1027 57.5709 33.184 56.8019 33.245C55.8508 33.3263 55.3247 32.94 55.1425 32.0453C54.9807 31.2727 54.5152 30.9677 53.7463 31.049C53.4225 31.0897 53.0583 31.0897 52.7345 31.049C51.4394 30.866 50.4883 31.171 50.1645 32.635C50.0431 33.184 48.6064 33.5297 48.2219 33.1433C48.1005 33.0213 48.1005 32.635 48.1814 32.452C49.5777 29.463 50.9942 26.474 52.4107 23.5053C52.4916 23.3427 52.6333 23.18 52.8761 22.875ZM52.7547 29.3003C53.8879 29.3003 53.9486 29.2393 53.4832 28.182C53.382 27.9177 53.2808 27.6533 53.1392 27.4093C53.0583 27.267 52.9166 27.0637 52.7952 27.0637C52.6738 27.0637 52.5119 27.2467 52.4309 27.389C52.2893 27.6533 52.2083 27.9583 52.0667 28.243C51.662 29.1987 51.7227 29.3003 52.7547 29.3003Z" fill="#FFF3E0"/>
<path d="M98.3467 22.7936C99.1561 22.7732 100.107 23.2612 100.998 23.9119C101.342 24.1559 101.706 24.4202 101.342 24.9286C100.856 25.5792 100.249 25.7826 99.7834 25.4166C99.0549 24.8472 98.286 24.4812 97.3349 24.6642C95.9993 24.9489 95.1292 25.8029 94.7245 27.0839C94.3197 28.3649 94.5626 29.5849 95.5541 30.5406C96.5457 31.4962 97.7194 31.8419 99.0549 31.2116C99.1966 31.1506 99.3585 31.0896 99.4597 30.9879C100.087 30.2152 100.654 30.3779 101.342 30.9676C101.767 31.3539 101.807 31.5573 101.382 31.9436C99.2775 33.9159 95.7565 33.6922 93.8746 31.4556C92.539 29.8492 92.1545 28.0599 92.9842 26.1486C93.9353 23.9526 95.6148 22.7936 98.3467 22.7936Z" fill="#FFF3E0"/>
<path d="M87.7834 28.1205C87.7834 29.5235 87.7631 30.9265 87.7834 32.3499C87.8036 33.1225 87.4393 33.2445 86.7716 33.2445C86.1038 33.2445 85.7598 33.1022 85.78 32.3499C85.8002 29.5642 85.7598 26.7785 85.7598 23.9929C85.7598 23.1185 85.8812 23.0575 86.8525 23.0372C87.581 23.0169 87.8036 23.2812 87.7834 24.0132C87.7226 25.3552 87.7631 26.7379 87.7834 28.1205C87.7631 28.1205 87.7631 28.1205 87.7834 28.1205Z" fill="#FFF3E0"/>
<path d="M123.459 28.1207C123.459 29.5237 123.439 30.9267 123.459 32.35C123.479 32.899 123.257 33.1634 122.73 33.082C122.245 33.021 121.456 33.387 121.435 32.4314C121.415 29.544 121.415 26.6567 121.415 23.749C121.415 22.7527 122.164 23.0374 122.71 22.9764C123.317 22.9154 123.439 23.2814 123.418 23.81C123.398 25.2334 123.418 26.677 123.418 28.1004C123.439 28.1207 123.459 28.1207 123.459 28.1207Z" fill="#FFF3E0"/>
<path d="M28.1281 22.1024C27.3187 22.2041 27.0152 23.2004 27.5211 24.0138C27.7234 24.3594 27.9663 24.7254 28.0674 25.1118C28.1281 25.4168 27.9865 25.7624 27.946 26.1081C27.6425 25.9861 27.3187 25.8844 26.9949 25.7624C26.8331 26.1081 26.8331 26.1081 27.6425 26.5961C27.5818 26.7384 27.5818 26.9418 27.4806 27.0638C27.3592 27.2264 27.1568 27.3281 26.9949 27.4704C26.8938 27.2874 26.7319 27.1044 26.6914 26.9011C26.5902 26.5351 26.57 26.1691 26.489 25.6608C26.0641 25.9251 25.801 26.1081 25.538 26.2708C25.4975 26.2504 25.4773 26.2098 25.4368 26.1894C25.7606 25.6608 26.0641 25.1321 26.4283 24.6238C26.6914 24.2781 26.914 22.2854 26.6509 21.9601C26.57 21.8584 26.4486 21.7974 26.3272 21.7568C25.538 21.5128 24.8095 21.2281 24.344 20.4758C24.3036 20.3944 24.1822 20.2928 24.1012 20.2928C23.0894 20.2724 22.0574 20.2724 21.0456 20.3131C20.9647 20.3131 20.8028 20.7401 20.8432 20.8011C21.0456 20.9841 21.2884 21.1671 21.5515 21.2281C22.0979 21.3501 22.6442 21.3704 23.1906 21.4518C23.2715 21.4721 23.312 21.5941 23.4132 21.6958C22.0776 21.6958 20.8028 21.6958 19.3458 21.6958C19.5886 21.4721 19.6493 21.4111 19.71 21.3501C19.9124 21.1264 20.135 20.9028 20.3373 20.6791C20.054 20.5978 19.7303 20.3944 19.5077 20.4758C19.0422 20.6181 18.6375 20.9231 18.2126 21.1468C18.0305 21.2484 17.8281 21.3094 17.6257 21.3908C17.5853 21.1671 17.4436 20.9028 17.5246 20.6994C17.8888 19.7234 18.9613 19.3371 19.9529 19.8048C20.6004 20.1098 22.3205 20.0894 22.968 19.7641C23.5751 19.4794 24.1822 19.4184 24.6678 19.9878C25.3558 20.7808 26.226 21.1061 27.258 21.2078C27.5413 21.2281 27.8246 21.7974 28.1281 22.1024Z" fill="#FFF3E0"/>
<path d="M18.9411 40.1986C18.9816 40.1783 19.1637 40.0563 19.5279 39.8123C19.3458 40.4629 19.0827 40.9509 19.7101 41.1949C19.5279 41.4796 19.4065 41.8456 19.1434 42.0083C19.022 42.0896 18.4959 41.9066 18.4352 41.7439C17.9293 40.3613 17.3829 38.9786 17.0794 37.5349C16.9175 36.7623 17.2008 35.8879 17.2817 35.0543C17.3222 34.7289 17.3829 34.4036 17.3829 34.0783C17.4032 33.3259 17.3627 32.5736 17.4234 31.8213C17.4436 31.6383 17.7876 31.3129 17.8686 31.3333C18.6173 31.5976 19.2244 31.2113 19.8719 30.9673C20.0541 30.8859 20.3981 30.8656 20.5195 30.9673C20.8028 31.2723 20.7623 31.5569 20.3171 31.7196C19.8922 31.8823 19.4875 32.1059 19.0423 32.2076C18.7994 32.2686 18.5161 32.1466 18.0709 32.0856C18.334 34.8306 17.0389 37.6569 18.9411 40.1986Z" fill="#FFF3E0"/>
<path d="M17.6658 29.8497C17.2206 29.8904 17.0789 29.8904 16.9373 29.9107C16.6944 29.9514 16.4314 30.0124 16.1885 30.0734C16.1683 29.748 16.0874 29.443 16.1076 29.1177C16.1481 28.711 16.2695 28.3044 16.3707 27.8977C16.4718 27.5317 16.3707 27.308 15.966 27.3894C15.541 27.4707 15.116 27.6131 14.6911 27.7147C14.3876 27.7757 14.084 27.796 13.7805 27.8367C13.74 27.369 13.6388 26.9014 13.6793 26.4541C13.6995 26.2507 13.9626 26.027 14.1447 25.844C14.5292 25.478 14.8732 25.112 15.3993 25.7424C15.6219 26.0067 16.0469 26.149 16.4111 26.271C17.1194 26.4744 17.3622 27.064 17.1801 27.5927C16.917 28.406 16.8563 29.0974 17.6658 29.8497Z" fill="#FFF3E0"/>
<path d="M88.9564 39.3449C89.1385 38.8976 89.3207 38.4502 89.5433 38.0232C89.6242 37.8606 89.8266 37.7792 89.9884 37.6776C90.0896 37.8199 90.2515 37.9419 90.2718 38.0842C90.4134 38.7959 90.5348 39.5076 90.6158 40.2192C90.636 40.4022 90.4741 40.6056 90.3932 40.7886C90.2515 40.6462 90.0492 40.5242 89.9884 40.3412C89.8873 40.0972 89.8873 39.8126 89.8468 39.5279C89.7861 39.5076 89.7051 39.4872 89.6444 39.4669C89.4826 39.7312 89.3409 39.9956 89.1588 40.2396C89.0576 40.4022 88.8957 40.5446 88.7743 40.6869C88.6124 40.5242 88.4303 40.4022 88.3089 40.2192C88.1672 39.9956 88.066 39.7312 87.7625 39.4872C87.7018 39.7719 87.6613 40.0566 87.5399 40.3209C87.459 40.5039 87.2566 40.6259 87.115 40.7886C87.034 40.6056 86.8721 40.4022 86.8924 40.2396C86.9733 39.5279 87.115 38.7959 87.2566 38.1046C87.2971 37.9419 87.4792 37.7996 87.6006 37.6572C87.7423 37.7792 87.9446 37.9012 88.0256 38.0639C88.2482 38.5112 88.4303 38.9789 88.6326 39.4262C88.7541 39.3652 88.8552 39.3449 88.9564 39.3449Z" fill="#FFF3E0"/>
<path d="M98.7919 39.1215C98.7919 39.9958 97.7801 40.9922 96.91 40.9718C96.0803 40.9515 95.109 39.9348 95.1292 39.1215C95.1495 38.2268 96.0601 37.3322 96.9504 37.3118C97.7599 37.2915 98.7919 38.3082 98.7919 39.1215ZM96.9302 38.0438C96.4041 38.0438 95.8982 38.5725 95.8982 39.1215C95.8982 39.7315 96.3838 40.2195 96.9909 40.1992C97.5373 40.1788 98.0229 39.6908 98.0229 39.1418C98.0229 38.5725 97.4968 38.0438 96.9302 38.0438Z" fill="#FFF3E0"/>
<path d="M53.5037 39.1218C53.5037 38.7761 53.4632 38.4305 53.524 38.1051C53.5644 37.8815 53.7263 37.6985 53.8477 37.4951C53.9894 37.6985 54.2322 37.9018 54.2524 38.1051C54.2929 38.7965 54.2727 39.5081 54.2524 40.1995C54.2524 40.3825 54.0906 40.5451 54.0096 40.7281C53.8477 40.6265 53.6454 40.5655 53.524 40.4435C53.2204 40.1385 52.9574 39.7725 52.6538 39.4471C52.5324 39.3251 52.3705 39.2641 52.2289 39.1828C52.1479 39.3251 52.0467 39.4675 52.0063 39.6301C51.9658 39.9148 52.0063 40.1995 51.9456 40.4841C51.9051 40.6265 51.723 40.7891 51.5813 40.8095C51.4801 40.8095 51.2778 40.5858 51.2575 40.4638C51.2373 39.6301 51.2171 38.7965 51.2778 37.9628C51.3182 37.3935 51.6825 37.5155 51.9658 37.8001C52.411 38.2475 52.8359 38.7151 53.2811 39.1828C53.3621 39.1625 53.443 39.1421 53.5037 39.1218Z" fill="#FFF3E0"/>
<path d="M19.6695 26.6572C19.973 27.9382 20.6408 28.8736 21.8347 29.0159C23.0489 29.1582 23.7976 28.2839 24.3238 27.1656C24.8094 28.0399 24 29.6462 23.1501 29.6666C22.2799 29.6869 21.3896 29.6666 20.5397 29.5039C19.4469 29.3209 18.941 27.7756 19.6695 26.6572Z" fill="#FFF3E0"/>
<path d="M68.1339 39.1625C68.1339 39.5691 68.1541 39.9758 68.1136 40.3825C68.0934 40.5248 67.9315 40.6468 67.8506 40.7891C67.7292 40.6875 67.5268 40.5655 67.5066 40.4435C67.4863 39.5081 67.4863 38.5525 67.4863 37.6171C67.5673 37.5765 67.6684 37.5358 67.7494 37.4951C68.3362 38.0645 68.9231 38.6135 69.692 39.3251C69.692 38.7558 69.6516 38.4101 69.7123 38.0848C69.7527 37.8815 69.9753 37.6985 70.117 37.5155C70.2182 37.6985 70.4003 37.8815 70.4205 38.0645C70.461 38.9591 70.4408 39.8335 70.4408 40.7281C70.3598 40.7485 70.2586 40.7688 70.1777 40.8095C69.5706 40.2198 68.9635 39.6098 68.3565 39.0201C68.2755 39.0811 68.1946 39.1218 68.1339 39.1625Z" fill="#FFF3E0"/>
<path d="M12.8094 29.1169C11.5548 29.1169 11.7369 28.1003 11.2715 27.4293C10.7251 28.6696 9.93594 28.9136 8.70156 27.9376C8.5599 28.1613 8.43849 28.4663 8.21589 28.6696C8.03377 28.8323 7.73023 28.8729 7.46717 28.9136C7.38622 28.9339 7.2041 28.7306 7.2041 28.7103C7.32552 28.5069 7.4267 28.2019 7.62906 28.1206C8.72179 27.6733 9.83476 27.2666 10.968 26.9209C11.1906 26.8396 11.6358 26.9413 11.7369 27.1243C12.1214 27.7139 12.425 28.3849 12.8094 29.1169Z" fill="#FFF3E0"/>
<path d="M40.7959 38.6745C40.9983 38.2881 41.2006 37.9018 41.3827 37.5155C41.5042 37.9221 41.6256 38.3288 41.7065 38.7355C41.747 38.9388 41.666 39.1828 41.747 39.3455C41.9089 39.6505 42.1719 39.8945 42.3945 40.1791C42.6171 39.8945 42.9611 39.6301 43.0623 39.2845C43.1837 38.8981 43.0623 38.4508 43.1028 38.0441C43.123 37.8611 43.3051 37.6781 43.4266 37.4951C43.548 37.6578 43.7908 37.8408 43.7706 37.9831C43.6896 38.8575 44.1551 39.8741 43.204 40.5655C42.2731 41.2365 41.0994 40.7281 40.978 39.5895C40.9375 39.3048 40.978 39.0201 40.978 38.7355C40.9375 38.7355 40.8768 38.7151 40.7959 38.6745Z" fill="#FFF3E0"/>
<path d="M84.222 38.5519C84.4648 38.6333 84.7077 38.6739 84.9505 38.7756C85.1124 38.8569 85.254 38.9993 85.3957 39.1009C85.254 39.2229 85.1326 39.3653 84.9707 39.4669C84.7481 39.6093 84.5255 39.7313 84.2827 39.8736C84.5255 39.9956 84.7886 40.0769 85.0314 40.2193C85.254 40.3413 85.4362 40.5039 85.6385 40.6463C85.4362 40.7479 85.2338 40.9106 85.0314 40.9513C84.7481 40.9919 84.4244 41.0123 84.2018 40.8903C83.9387 40.7479 83.5947 40.4633 83.5542 40.1989C83.453 39.5483 83.4733 38.8569 83.534 38.1859C83.5542 37.9216 83.7768 37.4946 83.9387 37.4743C84.4446 37.3929 84.991 37.4743 85.5171 37.5149C85.5576 37.5149 85.6588 37.7996 85.6183 37.8403C85.4969 37.9419 85.335 38.0436 85.1933 38.0639C84.8898 38.1453 84.566 38.1656 84.2422 38.2266C84.222 38.3283 84.222 38.4299 84.222 38.5519Z" fill="#FFF3E0"/>
<path d="M63.9656 39.5889C63.9656 39.3042 63.9858 39.0602 63.9656 38.8366C63.7632 37.2912 64.3298 37.2709 65.7261 37.3929C65.8475 37.3929 65.9689 37.5962 66.0903 37.7182C65.9487 37.8402 65.8273 37.9826 65.6654 38.0639C65.5845 38.1046 65.4428 38.0232 65.3619 38.0639C65.1393 38.1656 64.9167 38.2875 64.6941 38.4095C64.8964 38.5315 65.0988 38.6332 65.2809 38.7552C65.463 38.8772 65.6452 39.0196 65.8273 39.1619C65.6249 39.2636 65.4226 39.3652 65.2202 39.4669C65.0178 39.5686 64.8357 39.7109 64.6536 39.8329C64.8357 39.9752 65.0178 40.1582 65.2202 40.2395C65.4023 40.3209 65.6452 40.2396 65.8273 40.3006C65.9285 40.3412 66.0296 40.5242 66.0296 40.6666C66.0296 40.7479 65.9082 40.8902 65.807 40.9309C64.7548 41.3782 63.8644 40.7072 63.9656 39.5889Z" fill="#FFF3E0"/>
<path d="M74.6299 40.7687C75.1358 39.6911 75.581 38.7151 76.0666 37.7594C76.0869 37.7187 76.5725 37.7594 76.6332 37.8814C77.0582 38.6541 77.4427 39.4471 77.7867 40.2604C77.8474 40.3824 77.7664 40.6061 77.7057 40.7484C77.6855 40.7891 77.382 40.7687 77.301 40.6874C76.5928 39.9961 75.9452 40.0774 75.2774 40.7281C75.2167 40.7687 75.1358 40.8094 75.0751 40.8297C74.9941 40.8297 74.9132 40.8094 74.6299 40.7687Z" fill="#FFF3E0"/>
<path d="M91.8706 39.2025C91.8706 38.9178 91.8909 38.6332 91.8706 38.3485C91.8302 37.6978 92.1135 37.3928 92.761 37.3522C93.5907 37.3115 94.2585 37.7588 94.2787 38.4502C94.2989 39.0805 93.9549 39.5075 93.3276 39.5685C92.842 39.6092 92.6396 39.7922 92.6194 40.2802C92.6194 40.4428 92.3765 40.6055 92.2551 40.7885C92.1337 40.6055 91.9313 40.4225 91.8909 40.2192C91.8302 39.8938 91.8706 39.5482 91.8706 39.2025ZM93.0443 37.9215C92.8622 38.2062 92.6598 38.3892 92.6598 38.5518C92.6801 38.6942 92.9431 38.9585 93.0646 38.9382C93.2264 38.9178 93.4693 38.6738 93.4895 38.5315C93.5097 38.3688 93.2669 38.2062 93.0443 37.9215Z" fill="#FFF3E0"/>
<path d="M55.7095 39.101C55.7095 38.9384 55.7095 38.796 55.7095 38.6334C55.7297 37.4947 56.2154 37.088 57.3486 37.3727C57.5105 37.4134 57.6117 37.6167 57.7533 37.7387C57.6117 37.8404 57.47 37.9827 57.2879 38.0437C57.1462 38.0844 56.9641 37.9827 56.8427 38.0437C56.6808 38.1251 56.5594 38.2877 56.4177 38.4097C56.5594 38.5317 56.701 38.6537 56.8427 38.735C57.0653 38.857 57.3081 38.9587 57.5307 39.0604C57.3081 39.1824 57.1058 39.3044 56.8832 39.4264C56.7213 39.528 56.5594 39.6704 56.3975 39.7924C56.5594 39.9347 56.701 40.0974 56.8832 40.199C57.1665 40.3414 57.4902 40.443 57.7938 40.5447C57.47 40.6667 57.1462 40.8904 56.8022 40.8904C55.8107 40.9107 55.669 40.7277 55.6893 39.6907C55.7095 39.528 55.7095 39.3044 55.7095 39.101Z" fill="#FFF3E0"/>
<path d="M38.7109 40.1985C38.7514 40.1985 38.8526 40.1375 38.9537 40.1579C39.2168 40.1985 39.4799 40.2392 39.7632 40.3002C39.5608 40.5035 39.3787 40.7882 39.1359 40.8899C38.5086 41.1745 37.5979 40.7882 37.173 40.1375C36.748 39.4869 36.8087 38.6329 37.3146 38.0229C37.8205 37.4129 38.6097 37.1689 39.237 37.4942C39.4394 37.5959 39.5608 37.8195 39.7227 37.9822C39.5001 38.0432 39.2573 38.1855 39.0549 38.1449C38.2253 38.0229 37.8812 38.2059 37.6991 38.8972C37.5372 39.5479 37.9824 40.1579 38.7109 40.1985Z" fill="#FFF3E0"/>
<path d="M44.964 39.1015C45.0247 37.8001 46.3198 36.9461 47.4328 37.5155C47.5947 37.5968 47.6959 37.8408 47.8375 38.0035C47.6352 38.0645 47.4126 38.2068 47.2305 38.1661C46.5424 37.9628 46.0568 38.1051 45.7937 38.8168C45.5104 39.6301 46.1377 40.3011 46.9876 40.1791C47.2305 40.1385 47.5138 40.2808 47.7768 40.3418C47.5745 40.5451 47.3923 40.8095 47.1293 40.9111C46.158 41.2568 44.9033 40.2198 44.964 39.1015Z" fill="#FFF3E0"/>
<path d="M61.294 38.4501C61.6583 38.6941 62.0225 38.9177 62.3665 39.1821C62.9331 39.6294 62.9534 40.0767 62.488 40.5647C62.0225 41.0527 61.1929 41.0934 60.8286 40.6461C60.7477 40.5444 60.687 40.3411 60.7477 40.2394C60.7881 40.1581 60.9905 40.1377 61.1322 40.1174C61.3952 40.0767 61.6583 40.0564 61.9213 40.0361C61.719 39.8124 61.5166 39.5684 61.3345 39.3447C61.0714 38.9991 60.7072 38.6737 60.606 38.2874C60.5453 38.0637 60.9298 37.6774 61.1726 37.4741C61.3345 37.3521 61.6785 37.3317 61.9011 37.4131C62.1439 37.4944 62.3261 37.7181 62.5284 37.8807C62.3058 37.9621 62.0832 38.0231 61.8606 38.1044C61.6785 38.1451 61.5166 38.1857 61.3345 38.2264C61.3143 38.2874 61.294 38.3687 61.294 38.4501Z" fill="#FFF3E0"/>
<path d="M73.0713 40.9312C72.6463 40.8905 72.4035 40.8905 72.1809 40.8702C71.675 40.8092 71.5536 40.5652 71.8166 40.1179C72.0595 39.6909 72.3023 39.2639 72.5451 38.8369C72.8082 38.4099 72.8284 38.1049 72.2011 38.0235C72.0595 38.0032 71.938 37.7999 71.7964 37.6779C71.9785 37.5559 72.1202 37.3932 72.3225 37.3525C72.5047 37.2915 72.7272 37.3322 72.9498 37.3525C73.8402 37.3932 73.9616 37.6575 73.5164 38.3895C73.3546 38.6539 73.2736 38.9792 73.0915 39.2232C72.707 39.7519 72.4035 40.1992 73.4355 40.2399C73.5367 40.2399 73.739 40.4635 73.7188 40.5245C73.6783 40.6669 73.5367 40.8295 73.395 40.8905C73.2534 40.9719 73.051 40.9312 73.0713 40.9312Z" fill="#FFF3E0"/>
<path d="M25.6392 38.918C26.3677 39.9753 25.0726 40.8496 25.6797 41.9883C25.2749 41.968 24.85 42.0696 24.7286 41.907C24.4453 41.5613 24.3036 41.0936 24.1013 40.6666C24.162 40.5853 24.2024 40.504 24.2632 40.4226C23.4942 40.4836 22.7252 40.5446 21.7539 40.6056C22.4824 40.199 23.1097 39.9143 23.737 40.077C24.5465 40.2803 25.0321 40.1176 25.2749 39.3043C25.3154 39.2026 25.4571 39.101 25.6392 38.918Z" fill="#FFF3E0"/>
<path d="M27.8246 28.7314C28.5126 28.9144 28.9173 29.4634 28.9173 30.0734C28.9173 30.4394 29.059 30.7851 29.1197 31.1308C29.1804 31.4764 29.2411 31.8424 29.2816 32.1881C29.1804 32.2491 29.0994 32.2898 28.9983 32.3508C28.5733 31.9441 27.7639 31.4561 27.8246 31.1308C27.9662 30.2971 26.8735 29.5041 27.8246 28.7314Z" fill="#FFF3E0"/>
<path d="M32.6812 33.1227C32.5395 32.9397 32.3169 32.777 32.3169 32.6143C32.3169 31.435 31.3456 30.6623 31.0421 29.605C30.9611 29.3 31.0219 28.9543 31.0219 28.5273C32.3574 29.3407 33.0859 31.4757 32.6812 33.1227Z" fill="#FFF3E0"/>
<path d="M81.6921 39.3857C81.6921 39.6297 81.7528 39.8737 81.6719 40.077C81.591 40.321 81.4088 40.5447 81.2874 40.7887C81.166 40.5447 81.0041 40.3007 80.9434 40.0363C80.8827 39.7923 80.9434 39.528 80.9434 39.2637C80.9434 38.7757 80.9839 38.308 80.4577 37.9623C80.134 37.759 80.2554 37.4337 80.6601 37.393C81.0648 37.3523 81.4898 37.332 81.8945 37.393C82.0361 37.4133 82.0968 37.759 82.2183 37.942C81.4493 38.2063 81.6921 38.8367 81.6921 39.3857Z" fill="#FFF3E0"/>
<path d="M21.9561 30.9677C22.8262 30.9474 23.5142 29.8901 24.526 30.6221C24.9307 30.9271 25.3152 31.2727 25.6997 31.6184C25.7806 31.6997 25.8413 31.8827 25.8009 31.9641C25.7402 32.0861 25.5783 32.1877 25.4569 32.1877C25.3152 32.2081 25.1128 32.1674 25.0319 32.0657C24.2629 31.2931 23.2714 31.2931 22.3001 31.2727C22.1989 31.2727 22.1179 31.2321 22.0168 31.1914C21.9561 31.1101 21.9561 31.0287 21.9561 30.9677Z" fill="#FFF3E0"/>
<path d="M33.713 28.4259C32.7417 28.3039 31.9727 28.2429 31.2443 28.1006C31.0014 28.0396 30.5967 27.6736 30.6169 27.5719C30.7384 27.1449 31.0217 26.7789 31.2443 26.3926C31.3454 26.5756 31.4668 26.7586 31.5276 26.9619C31.6085 27.1856 31.649 27.4092 31.7097 27.6329C31.8716 27.5312 32.0335 27.4092 32.2156 27.3076C32.3572 27.2262 32.6001 27.1042 32.6405 27.1449C33.0048 27.5109 33.3083 27.9176 33.713 28.4259Z" fill="#FFF3E0"/>
<path d="M29.1598 25.0508C29.9085 25.7014 30.0906 26.7384 29.5645 27.2468C29.3823 27.4094 28.9979 27.4704 28.7348 27.4094C28.5931 27.3891 28.3908 26.9824 28.4515 26.8198C28.6336 26.2301 28.8967 25.6608 29.1598 25.0508Z" fill="#FFF3E0"/>
<path d="M28.1073 22.1026C29.0382 22.0009 29.3012 22.2449 29.2203 23.1396C29.2 23.3023 29.4226 23.4649 29.4631 23.6479C29.5036 23.8919 29.4833 24.1359 29.5036 24.3799C29.281 24.3393 28.9977 24.3596 28.856 24.2376C28.5525 23.9733 28.3299 23.6276 28.0264 23.2616C28.3299 23.1599 28.5525 23.0989 28.856 22.9973C28.593 22.6719 28.3704 22.3873 28.1073 22.1026Z" fill="#FFF3E0"/>
<path d="M49.1529 39.182C49.1529 38.7753 49.1124 38.3483 49.1731 37.9416C49.1933 37.779 49.3957 37.657 49.5171 37.5146C49.6385 37.6773 49.8611 37.8603 49.8611 38.0433C49.9016 38.816 49.8814 39.5886 49.8409 40.3613C49.8409 40.524 49.6588 40.6663 49.5778 40.829C49.4362 40.6663 49.1933 40.524 49.1731 40.341C49.1124 39.975 49.1529 39.5683 49.1529 39.182Z" fill="#FFF3E0"/>
<path d="M26.124 37.4134C26.124 36.4984 26.124 35.5834 26.124 34.6074C27.3382 35.7054 27.0953 35.9494 26.124 37.4134Z" fill="#FFF3E0"/>
<path d="M18.0101 22.8953C17.059 23.302 16.2496 23.668 15.4199 24.034C15.7235 22.6717 16.2091 22.448 18.0101 22.8953Z" fill="#FFF3E0"/>
<path d="M25.6588 24.2167C25.2339 23.7083 24.8494 23.3017 24.5458 22.8543C24.4851 22.7527 24.5256 22.5087 24.6065 22.3867C24.6672 22.3053 24.9708 22.285 25.0113 22.346C25.3148 22.8137 25.5981 23.3017 25.8612 23.81C25.9016 23.8913 25.7397 24.054 25.6588 24.2167Z" fill="#FFF3E0"/>
<path d="M11.3729 29.077C11.2717 29.3617 11.211 29.687 11.0694 29.931C10.9884 30.0733 10.7658 30.1343 10.6039 30.236C10.523 30.0327 10.3206 29.748 10.4016 29.6463C10.6039 29.3413 10.9075 29.0973 11.1503 28.833C11.2312 28.9347 11.3122 28.9957 11.3729 29.077Z" fill="#FFF3E0"/>
<path d="M22.624 24.4814C23.1704 24.8881 23.5549 25.1728 23.9798 25.4778C23.1299 25.8438 22.8264 25.6404 22.624 24.4814Z" fill="#FFF3E0"/>
<path d="M13.8011 30.3572C13.7606 30.7029 13.7404 31.0689 13.6999 31.4146C13.6999 31.4146 13.3964 31.4146 13.3964 31.3942C13.3559 31.0486 13.3357 30.7029 13.3154 30.3369C13.4571 30.3369 13.619 30.3369 13.8011 30.3572Z" fill="#FFF3E0"/>
<path d="M33.167 33.6309C33.3086 33.8749 33.4503 34.1392 33.5717 34.4035C33.5717 34.4239 33.3086 34.5662 33.1872 34.6272C33.0658 34.3629 32.9241 34.0985 32.8027 33.8342C32.9241 33.7732 33.0456 33.6919 33.167 33.6309Z" fill="#FFF3E0"/>
<path d="M26.3676 32.5742C26.489 32.9199 26.6104 33.2656 26.7319 33.6112C26.6104 33.6519 26.489 33.6926 26.3676 33.7536C26.226 33.4079 26.1045 33.0826 25.9629 32.7369C26.0843 32.6759 26.226 32.6352 26.3676 32.5742Z" fill="#FFF3E0"/>
<path d="M61.7395 27.3277C60.0802 27.2057 60.1004 27.2057 60.1207 25.6604C60.1409 24.9284 60.3837 24.603 61.1324 24.7047C61.7193 24.786 62.3264 24.725 62.893 24.847C63.5405 24.969 63.9452 25.396 63.8845 26.128C63.8238 26.8397 63.3786 27.165 62.7108 27.2667C62.3466 27.3074 61.9621 27.3074 61.7395 27.3277Z" fill="#1A130D"/>
<path d="M52.755 29.3C51.7432 29.3 51.6622 29.178 52.0872 28.2223C52.2086 27.9376 52.2896 27.6326 52.4514 27.3683C52.5324 27.226 52.6943 27.043 52.8157 27.043C52.9371 27.043 53.0788 27.2463 53.1597 27.3886C53.3013 27.6326 53.3823 27.9173 53.5037 28.1613C53.9287 29.2593 53.8882 29.3203 52.755 29.3Z" fill="#1A130D"/>
<path d="M96.9301 38.0439C97.4967 38.0439 98.0228 38.5523 98.0228 39.1419C98.0228 39.7113 97.5372 40.1993 96.9908 40.1993C96.3837 40.2196 95.9183 39.7316 95.898 39.1216C95.8778 38.5929 96.3837 38.0643 96.9301 38.0439Z" fill="#1A130D"/>
<path d="M93.0446 37.9219C93.2672 38.2065 93.5101 38.3692 93.4898 38.5319C93.4696 38.6945 93.247 38.9182 93.0649 38.9385C92.9435 38.9589 92.6804 38.6945 92.6602 38.5522C92.6602 38.3895 92.8625 38.2065 93.0446 37.9219Z" fill="#1A130D"/>
</g>
<defs>
<clipPath id="clip0_608_4397">
<rect width="151" height="61" fill="white"/>
</clipPath>
</defs>
</svg>
