<svg width="224" height="62" viewBox="0 0 224 62" fill="none" xmlns="http://www.w3.org/2000/svg">
<path d="M0 61.3444C0 40.9275 0 20.4169 0 0C74.7 0 149.3 0 224 0C224 20.4169 224 40.9275 224 61.3444C149.3 61.3444 74.7 61.3444 0 61.3444ZM36.3 33.3414C36.5 33.3414 36.7 33.3414 36.9 33.3414C37 33.997 37.1 34.6526 37.1 35.3082C37.1 37.6495 37.1 39.9909 37 42.3323C37 43.4562 37.4 43.9245 38.6 43.9245C39.1 43.9245 39.5 43.9245 40 44.0181C41.1 44.1118 41.6 43.5499 41.6 42.6133C41.7 34.6526 41.7 26.7855 41.8 18.8248C41.8 17.8882 41.2 17.4199 40.2 17.4199C39.6 17.4199 39.1 17.4199 38.5 17.4199C37.4 17.3263 36.9 17.8882 36.6 18.7311C35.2 23.0393 33.8 27.4411 32.3 31.7492C32.1 32.2175 31.6 32.5921 31.3 32.9668C31 32.5921 30.5 32.2175 30.3 31.7492C28.8 27.3474 27.4 23.0393 25.9 18.6375C25.5 17.6073 23.5 16.9517 22.1 17.5136C20.8 17.9819 21.4 18.9184 21.7 19.7613C23.7 25.6616 25.7 31.5619 27.7 37.4622C28.2 38.8671 28.7 40.3656 29.2 41.7704C29.7 42.9879 30.8 43.1752 31.9 42.9879C32.5 42.8943 33.3 42.3323 33.5 41.8641C34.1 40.4592 34.3 39.0544 34.7 37.6495C35.2 36.1511 35.8 34.7462 36.3 33.3414ZM192.1 31.9366C192 31.9366 191.8 32.0302 191.7 32.0302C191.4 31.6556 191.1 31.3746 190.9 31C189.3 27.1601 187.7 23.3202 186.1 19.574C185.3 17.7009 183.5 16.858 181.6 17.6073C181.3 17.7009 181 18.4502 181.1 18.8248C181.4 19.855 182 20.8852 182.4 21.9154C185.3 28.8459 188.2 35.8701 191.2 42.8006C191.4 43.2689 192.1 43.7372 192.7 43.9245C193.4 44.1118 194.3 44.1118 195 44.1118C196.6 44.1118 196.9 43.8308 196.9 42.2387C196.9 34.4653 196.9 26.7855 196.9 19.0121C196.9 18.6375 196.8 17.9819 196.6 17.9819C195.5 17.7946 194.3 17.6073 193.1 17.7009C192.1 17.7946 192.2 18.7311 192.2 19.4804C192.3 23.2266 192.3 26.8792 192.4 30.6254C192.4 31 192.2 31.4683 192.1 31.9366ZM134.8 25.006C134.8 24.5378 134.8 24.3505 134.8 24.0695C135 20.136 132.3 17.6073 128.3 17.4199C127.1 17.4199 126.5 17.7009 126.6 18.9184C126.6 19.2931 126.6 19.6677 126.6 20.0423C126.5 20.9789 126.9 21.4471 127.9 21.5408C129.3 21.7281 130 22.6647 130 23.7885C130 25.1934 130.5 27.0665 128.5 27.7221C126.9 28.1903 126.6 29.0332 126.6 30.4381C126.6 31.6556 127 32.3112 128.4 32.4048C129.8 32.4985 130.7 33.6224 130.7 35.0272C130.7 35.6828 130.7 36.3384 130.6 36.994C130.5 38.6798 130 39.3353 128.2 39.6163C127.1 39.8036 126.5 40.2719 126.6 41.3021C126.6 41.6767 126.6 42.0514 126.6 42.426C126.5 43.2689 127 43.7372 127.9 43.8308C130.2 44.2054 133.4 42.7069 134.6 40.8338C135.6 39.3353 135.5 37.7432 135.5 36.0574C135.5 33.9033 135.1 31.9366 133 30.6254C132.2 30.1571 132.2 29.5952 132.9 29.0332C134.3 28.0967 135 26.5982 134.8 25.006ZM153 25.568C153 25.006 153 24.5378 153 23.9758C152.7 19.4804 150.1 17.5136 145.6 17.4199C144.5 17.4199 143.9 17.7946 144 18.9184C144 19.3867 144 19.7613 144 20.2296C144 21.1662 144.3 21.6344 145.5 21.6344C147.3 21.6344 147.9 22.3837 148 24.0695C148 24.8187 148 25.568 148 26.3172C147.9 28.0967 147.2 28.6586 145.4 28.8459C144.9 28.9396 144.2 29.3142 144.2 29.6888C144 31 143.7 32.4048 145.3 33.2477C145.7 33.435 145.9 33.997 146 34.4653C146.8 37.0876 147.6 39.8036 148.4 42.426C148.7 43.5499 149.4 44.0181 150.6 44.0181C151 44.0181 151.4 44.0181 151.8 44.0181C153.5 44.0181 153.8 43.7372 153.4 42.2387C152.4 39.2417 151.4 36.3384 150.5 33.3414C150.3 32.8731 150.4 32.0302 150.7 31.6556C152.4 29.9698 153.2 28.003 153 25.568ZM101.8 31H101.7C101.7 32.1239 101.7 33.2477 101.7 34.3716C101.7 35.4955 101.7 36.6193 101.7 37.7432C101.7 40.8338 103.6 43.2689 106.8 44.1118C107.3 44.2054 108.1 44.1118 108.6 43.8308C109.4 43.2689 109.1 40.5529 108.2 39.9909C107 39.2417 106.6 38.3051 106.6 36.994C106.6 35.2145 106.6 33.3414 106.6 31.5619C106.6 29.2205 106.5 26.8792 106.6 24.5378C106.6 23.6012 106.9 22.3837 107.5 21.8218C108.7 20.8852 109 19.855 108.8 18.5438C108.7 17.139 108.2 16.7644 106.7 17.139C103.8 17.8882 101.9 19.855 101.7 22.6647C101.6 25.568 101.8 28.284 101.8 31ZM169.9 19.2931C169.8 18.8248 169.9 18.1692 169.6 17.7946C169.4 17.4199 168.7 17.139 168.3 17.139C165.5 17.6073 162.9 19.6677 162.8 22.29C162.6 27.8157 162.7 33.2477 162.7 38.7734C162.7 39.429 162.9 40.0846 163.2 40.6465C164.1 42.6133 165.7 43.8308 168 44.2054C168.5 44.2991 169.2 44.0181 169.5 43.6435C170.2 42.7069 169.6 40.6465 168.8 39.8036C168.2 39.148 167.6 38.3051 167.5 37.4622C167.4 32.6858 167.5 27.8157 167.6 23.0393C167.6 22.571 168 21.9154 168.4 21.6344C169.5 21.1662 169.9 20.4169 169.9 19.2931ZM57.1 44.0181C59.6 44.1118 59.8 43.7372 59.2 41.4894C58.6 39.148 58.2 36.713 57.8 34.3716C56.8 29.1269 55.8 23.8822 54.8 18.6375C54.7 18.1692 54.2 17.6073 53.8 17.5136C50.9 16.7644 49.8 17.6073 50.4 20.4169C50.5 20.6979 50.5 20.9789 50.6 21.3535C51.3 25.0997 52 28.9396 52.7 32.6858C52.9 33.5287 52.6 34.0906 51.7 34.2779C49.6 34.7462 50.7 36.1511 50.6 37.2749C50.5 38.3988 51.5 38.2115 52.3 38.3051C52.9 38.4925 53.7 38.8671 53.9 39.3354C54.3 40.1782 54.4 41.2085 54.6 42.0514C55.1 44.0181 55.1 44.0181 57.1 44.0181ZM178.4 30.5317H178.5C178.5 27.8157 178.8 25.0997 178.4 22.3837C178 19.1057 175.5 17.6073 172.4 17.2326C172.1 17.2326 171.7 17.4199 171.5 17.7009C170.9 18.6375 171.4 21.0725 172.4 21.7281C173.5 22.3837 173.7 23.3202 173.8 24.4441C173.8 25.0997 173.8 25.8489 173.8 26.5045C173.8 30.0634 173.8 33.6224 173.8 37.1813C173.8 38.4925 173.5 39.6163 172.1 40.3656C171.3 40.8338 171.1 43.4562 171.7 44.1118C171.9 44.2991 172.3 44.4864 172.5 44.4864C175.1 44.5801 178.3 41.864 178.3 39.6163C178.4 36.432 178.4 33.5287 178.4 30.5317ZM117.8 30.719C117.8 29.4079 117.8 28.0967 117.8 26.7855C117.8 25.4743 117.8 24.1631 117.7 22.852C117.6 20.0423 115.3 17.5136 112 17.139C111.6 17.139 111 17.2326 110.8 17.5136C110.1 18.1692 110.8 20.7915 111.5 21.4471C112 21.9154 112.7 22.6647 112.7 23.3202C112.8 28.284 112.8 33.1541 112.8 38.1178C112.8 38.6798 112.4 39.429 112 39.71C110.5 40.4592 110.6 41.6767 110.6 42.9879C110.7 44.2991 111 44.5801 112.5 44.2991C115.4 43.7372 117.7 41.2085 117.8 38.3051C117.8 35.7764 117.8 33.2477 117.8 30.719ZM204.1 30.8127C204.1 26.8792 204.2 22.9456 204.1 19.0121C204.1 18.4502 203.3 17.5136 203.1 17.5136C201.9 17.7009 200.4 16.7644 199.4 18.1692C199.3 18.2628 199.3 18.4502 199.3 18.5438C199.3 19.1057 199.2 19.7613 199.2 20.3233C199.2 27.0665 199.3 33.9033 199.2 40.6465C199.2 43.7372 199.1 43.7372 202.3 43.8308C203.8 43.9245 204.1 43.5499 204.1 42.2387C204.1 38.4924 204.1 34.6526 204.1 30.8127ZM120 30.8127C120 34.6526 120 38.4925 120 42.3323C120 43.7372 120.4 44.1118 121.9 44.0181C122.3 44.0181 122.6 43.9245 123 44.0181C124.3 44.2054 124.8 43.6435 124.8 42.5196C124.8 39.3354 124.8 36.1511 124.8 32.9668C124.8 28.9396 124.7 24.8187 124.8 20.7915C124.9 17.5136 124.8 17.3263 121.4 17.6073C120.5 17.7009 120 18.0755 120 19.0121C120 22.852 120 26.8792 120 30.8127ZM155.5 30.8127C155.5 34.6526 155.5 38.3988 155.5 42.2387C155.5 43.6435 155.9 44.1118 157.5 44.0181C157.9 44.0181 158.2 44.0181 158.6 44.0181C160 44.0181 160.4 43.6435 160.4 42.3323C160.4 38.2115 160.4 34.0906 160.4 29.9698C160.4 26.4109 160.5 22.7583 160.4 19.1994C160.4 17.4199 159.9 17.2326 157.1 17.3263C155.7 17.3263 155.5 18.1692 155.5 19.2931C155.5 23.1329 155.5 26.9728 155.5 30.8127ZM86.6 30.9063C86.5 34.6526 86.5 38.3988 86.5 42.2387C86.5 43.7372 86.8 44.0181 88.4 44.1118C88.8 44.1118 89.2 44.1118 89.6 44.1118C90.8 44.1118 91.2 43.6435 91.2 42.5196C91.2 39.8036 91.2 37.1813 91.2 34.4653C91.2 29.4079 91.1 24.2568 91.2 19.1994C91.2 18.0755 90.7 17.5136 89.5 17.5136C89.2 17.5136 88.9 17.5136 88.5 17.5136C86.8 17.5136 86.5 17.7946 86.5 19.3867C86.6 23.2266 86.6 27.0665 86.6 30.9063ZM142.2 30.8127C142.1 26.8792 142.1 23.0393 142.1 19.1057C142.1 18.7311 142 17.9819 141.8 17.9819C140.7 17.7946 139.5 17.6073 138.3 17.7009C137.9 17.7009 137.5 18.7311 137.4 19.2931C137.3 25.3807 137.4 31.3746 137.4 37.4622C137.4 39.148 137.4 40.8338 137.4 42.5196C137.4 43.6435 138 44.1118 139.1 44.0181C139.4 44.0181 139.7 43.9245 140.1 43.9245C141.9 43.9245 142.2 43.7372 142.2 42.0514C142.2 38.3051 142.2 34.5589 142.2 30.8127ZM62.4 33.6224C62.4 36.5257 62.4 39.5227 62.4 42.426C62.4 42.8943 62.6 43.6435 62.9 43.6435C64.1 43.8308 65.3 44.1118 66.4 43.8308C66.9 43.7372 67.3 42.5196 67.3 41.7704C67.4 36.5257 67.3 31.281 67.3 26.0363C67.3 23.4139 67.3 23.3202 64.6 23.2266C62.7 23.2266 62.4 23.5076 62.4 25.3807C62.4 28.1903 62.4 30.9063 62.4 33.6224ZM81.2 33.8097C81.2 31.281 81.2 28.6586 81.2 26.1299C81.2 23.1329 81.2 23.2266 78 23.3202C76.7 23.3202 76.2 23.8822 76.2 25.0997C76.2 30.4381 76.2 35.7764 76.2 41.0211C76.2 44.2054 76.4 44.2991 79.8 44.0181C80.8 43.9245 81.2 43.4562 81.2 42.5196C81.2 39.5227 81.2 36.713 81.2 33.8097ZM48.3 27.1601C46.3 27.2538 46 27.5347 45.7 29.1269C44.9 33.5287 44.1 37.8369 43.3 42.2387C43.2 42.7069 43.4 43.5499 43.6 43.6435C44.6 43.9245 45.7 44.1118 46.6 43.9245C47.1 43.8308 47.7 42.9879 47.8 42.426C48.7 38.0242 49.6 33.716 50.4 29.3142C50.8 27.5347 50.3 27.1601 48.3 27.1601ZM185.3 37.6495C185.3 36.2447 185.3 34.8399 185.3 33.5287C185.3 31.281 185.2 31.281 182.9 31.0937C180.8 31 180.5 31.3746 180.5 33.3414C180.6 35.8701 180.6 38.3988 180.5 41.0211C180.4 44.0181 180.3 44.0181 183.5 44.1118C184.8 44.1118 185.3 43.5499 185.3 42.5196C185.3 40.8338 185.3 39.2417 185.3 37.6495ZM78.8 21.7281C79.9 21.7281 80.9 21.6344 82 21.7281C84.8 21.8218 85.2 21.4471 84.9 18.7311V18.6375C84.5 18.2628 84.1 17.5136 83.6 17.5136C80.4 17.4199 77.1 17.4199 73.9 17.4199C72.9 17.4199 72.4 17.9819 72.5 18.9184C72.6 19.2931 72.6 19.6677 72.5 20.0423C72.4 21.1662 73 21.6344 74.2 21.6344C75.7 21.7281 77.2 21.7281 78.8 21.7281ZM64.9 21.7281C66.3 21.7281 67.7 21.7281 69.1 21.7281C70.6 21.7281 71 21.3535 71 20.0423C71 19.7613 71 19.4804 71 19.2931C71 17.7946 70.7 17.5136 69.1 17.5136C66.1 17.5136 63.2 17.5136 60.2 17.5136C59.3 17.5136 58.7 17.8882 58.7 18.8248C58.7 19.1994 58.7 19.574 58.7 19.9486C58.7 21.3535 59.1 21.7281 60.7 21.7281C62 21.7281 63.5 21.7281 64.9 21.7281ZM25.6 39.0544C25.6 37.9305 25.6 36.713 25.6 35.5891C25.6 34.1843 25.1 33.716 23.5 33.716C21.3 33.716 20.9 33.9033 20.9 35.5891C20.9 37.3686 21 39.148 20.9 40.9275C20.8 43.9245 20.9 44.0181 24.2 44.0181C25.3 44.0181 25.7 43.6435 25.7 42.6133C25.6 41.3958 25.6 40.2719 25.6 39.0544ZM96.7 44.0181C97.2 44.0181 97.7 44.0181 98.2 44.0181C99.8 44.0181 100.1 43.7372 100.1 42.5196C100.1 40.0846 99.9 39.8036 98.1 39.8036C97.3 39.8036 96.4 39.8036 95.6 39.8036C93.3 39.8036 92.8 40.2719 93 42.426C93.2 43.7372 93.6 44.1118 95.1 44.1118C95.7 44.0181 96.2 44.0181 96.7 44.0181ZM96.5 21.6344C97 21.6344 97.5 21.6344 98 21.7281C99.8 21.8218 100.1 21.4471 100.1 19.855C100.1 19.574 100.1 19.2931 100.1 18.9184C100.2 17.7946 99.5 17.5136 98.5 17.5136C97.3 17.5136 96.1 17.5136 94.9 17.5136C93.9 17.5136 93.2 17.8882 93.2 18.9184C93.2 20.9789 92.8 22.1027 96 21.7281C96.1 21.6344 96.3 21.6344 96.5 21.6344ZM96.1 28.0967C95.5 28.003 95 27.9094 94.5 28.0967C94 28.1903 93.4 28.565 93.2 28.9396C92.3 31.1873 93.3 32.3112 95.8 32.3112C96.2 32.3112 96.6 32.3112 97 32.3112C98.3 32.3112 98.9 31.8429 98.8 30.6254C98.8 30.1571 98.8 29.7825 98.7 29.3142C98.7 28.4713 98.1 28.0967 97.3 28.0967C97 28.003 96.5 28.003 96.1 28.0967Z" fill="#1A130D"/>
<path d="M36.3002 33.3411C35.8002 34.746 35.2002 36.1508 34.8002 37.5556C34.4002 38.9605 34.1002 40.4589 33.6002 41.7701C33.4002 42.2384 32.6002 42.8003 32.0002 42.894C30.9002 43.0813 29.7002 42.9876 29.3002 41.6765C28.8002 40.2716 28.3002 38.7731 27.8002 37.3683C25.8002 31.468 23.8002 25.5677 21.8002 19.6674C21.5002 18.9182 20.9002 17.9816 22.2002 17.4197C23.7002 16.8577 25.7002 17.4197 26.0002 18.5435C27.5002 22.9453 28.9002 27.2535 30.4002 31.6553C30.6002 32.1236 31.0002 32.4982 31.4002 32.8728C31.7002 32.4982 32.3002 32.1236 32.4002 31.6553C33.9002 27.3472 35.3002 22.9453 36.7002 18.6372C37.0002 17.7943 37.5002 17.2324 38.6002 17.326C39.2002 17.4197 39.7002 17.326 40.3002 17.326C41.3002 17.326 41.9002 17.7943 41.9002 18.7308C41.9002 26.6916 41.8002 34.5586 41.7002 42.5194C41.7002 43.4559 41.2002 43.9242 40.1002 43.9242C39.6002 43.9242 39.2002 43.8305 38.7002 43.8305C37.5002 43.8305 37.1002 43.3623 37.1002 42.2384C37.2002 39.897 37.2002 37.5556 37.2002 35.2142C37.2002 34.5586 37.0002 33.9031 37.0002 33.2475C36.7002 33.4348 36.5002 33.4348 36.3002 33.3411Z" fill="#FFF3E0"/>
<path d="M192.1 31.9364C192.2 31.4682 192.4 30.9999 192.4 30.5316C192.4 26.7854 192.3 23.1328 192.2 19.3866C192.2 18.6373 192.1 17.7008 193.1 17.6071C194.2 17.5135 195.4 17.7008 196.6 17.8881C196.8 17.8881 196.9 18.5437 196.9 18.9183C196.9 26.6917 196.9 34.3715 196.9 42.1449C196.9 43.737 196.6 44.018 195 44.018C194.2 44.018 193.4 44.1117 192.7 43.8307C192.1 43.6434 191.4 43.1751 191.2 42.7068C188.2 35.7763 185.3 28.8458 182.4 21.8216C182 20.7914 181.4 19.7612 181.1 18.731C181 18.3564 181.3 17.6071 181.6 17.5135C183.6 16.7642 185.4 17.6071 186.1 19.4802C187.7 23.3201 189.3 27.16 190.9 30.9062C191.1 31.2808 191.4 31.5618 191.7 31.9364C191.8 32.0301 192 32.0301 192.1 31.9364Z" fill="#FFF3E0"/>
<path d="M134.8 25.0062C135 26.5984 134.3 28.0968 132.8 29.2207C132.1 29.7826 132.1 30.3446 132.9 30.8129C135 32.124 135.4 34.0908 135.4 36.2449C135.4 37.9307 135.5 39.5228 134.5 41.0213C133.3 42.8944 130.1 44.3929 127.8 44.0183C126.9 43.9246 126.5 43.4564 126.5 42.6135C126.5 42.2388 126.6 41.8642 126.5 41.4896C126.4 40.4594 127 39.9911 128.1 39.8038C129.9 39.5228 130.4 38.8672 130.5 37.1814C130.5 36.5259 130.6 35.8703 130.6 35.2147C130.6 33.8098 129.6 32.686 128.3 32.5923C126.9 32.4987 126.6 31.9367 126.5 30.6256C126.5 29.2207 126.8 28.3778 128.4 27.9095C130.4 27.2539 129.9 25.3808 129.9 23.976C129.9 22.8521 129.3 21.9156 127.8 21.7283C126.9 21.6346 126.4 21.1663 126.5 20.2298C126.5 19.8552 126.6 19.4805 126.5 19.1059C126.4 17.982 127 17.6074 128.2 17.6074C132.1 17.7011 134.8 20.2298 134.7 24.257C134.8 24.3506 134.8 24.5379 134.8 25.0062Z" fill="#FFF3E0"/>
<path d="M153 25.568C153.2 28.003 152.4 29.9698 150.6 31.6556C150.3 31.9365 150.3 32.7794 150.4 33.3414C151.3 36.3384 152.4 39.2417 153.3 42.2387C153.8 43.7371 153.5 44.1118 151.7 44.0181C151.3 44.0181 150.9 44.0181 150.5 44.0181C149.3 44.0181 148.6 43.5498 148.3 42.426C147.5 39.8036 146.7 37.0876 145.9 34.4652C145.8 33.997 145.5 33.5287 145.2 33.2477C143.6 32.3112 143.9 31 144.1 29.6888C144.2 29.3142 144.9 28.8459 145.3 28.8459C147.2 28.6586 147.8 28.0967 147.9 26.3172C147.9 25.568 147.9 24.8187 147.9 24.0695C147.8 22.3837 147.1 21.6344 145.4 21.6344C144.3 21.6344 143.9 21.1661 143.9 20.2296C143.9 19.7613 143.9 19.3867 143.9 18.9184C143.9 17.8882 144.4 17.4199 145.5 17.4199C150 17.5136 152.6 19.4803 152.9 23.9758C153 24.5377 153 25.006 153 25.568Z" fill="#FFF3E0"/>
<path d="M101.8 30.9995C101.8 28.2835 101.7 25.5675 101.8 22.8515C102 20.0418 103.9 18.0751 106.8 17.3258C108.2 16.9512 108.7 17.3258 108.9 18.7307C109 20.0418 108.8 21.0721 107.6 22.0086C106.9 22.5705 106.7 23.7881 106.7 24.7246C106.6 27.066 106.7 29.4074 106.7 31.7488C106.7 33.5282 106.7 35.4014 106.7 37.1808C106.7 38.492 107.1 39.4286 108.3 40.1778C109.1 40.6461 109.4 43.4557 108.7 44.0177C108.3 44.2986 107.5 44.3923 106.9 44.2986C103.8 43.4557 101.8 41.0207 101.8 37.9301C101.8 36.8062 101.8 35.6823 101.8 34.5585C101.8 33.4346 101.8 32.3107 101.8 31.1869C101.7 30.9995 101.7 30.9995 101.8 30.9995Z" fill="#FFF3E0"/>
<path d="M169.9 19.2928C169.9 20.4167 169.5 21.166 168.5 21.8215C168.1 22.1025 167.7 22.7581 167.7 23.2264C167.6 28.0028 167.5 32.8729 167.6 37.6493C167.6 38.3986 168.3 39.3351 168.9 39.9907C169.7 40.8336 170.3 42.8941 169.6 43.8306C169.3 44.2052 168.6 44.3925 168.1 44.3925C165.9 44.0179 164.3 42.7067 163.3 40.8336C163 40.2717 162.8 39.6161 162.8 38.9605C162.8 33.4348 162.7 28.0028 162.9 22.4771C163 19.8548 165.5 17.7944 168.4 17.3261C168.8 17.2324 169.4 17.607 169.7 17.9817C169.8 18.169 169.8 18.8246 169.9 19.2928Z" fill="#FFF3E0"/>
<path d="M57.1002 44.0182C55.1002 43.9245 55.1002 43.9245 54.7002 42.0514C54.5002 41.1149 54.4002 40.0847 54.0002 39.3354C53.8002 38.8671 53.0002 38.4925 52.4002 38.3052C51.6002 38.1179 50.7002 38.3052 50.7002 37.275C50.8002 36.2448 49.7002 34.7463 51.8002 34.278C52.7002 34.0907 52.9002 33.5288 52.8002 32.6859C52.1002 28.9396 51.4002 25.0998 50.7002 21.3535C50.6002 21.0726 50.6002 20.7916 50.5002 20.417C49.9002 17.6073 50.9002 16.7644 53.9002 17.5137C54.3002 17.6073 54.8002 18.1692 54.9002 18.6375C55.9002 23.8822 56.9002 29.127 57.9002 34.3717C58.4002 36.7131 58.8002 39.1481 59.3002 41.4895C59.8002 43.7372 59.6002 44.1118 57.1002 44.0182Z" fill="#FFF3E0"/>
<path d="M178.4 30.5313C178.4 33.5283 178.4 36.5253 178.4 39.4286C178.4 41.5827 175.2 44.3924 172.6 44.2987C172.3 44.2987 171.9 44.1114 171.8 43.9241C171.2 43.2685 171.4 40.6461 172.2 40.1779C173.6 39.4286 173.9 38.2111 173.9 36.9936C173.9 33.4347 173.9 29.8757 173.9 26.3168C173.9 25.6612 173.9 24.912 173.9 24.2564C173.9 23.1325 173.6 22.196 172.5 21.5404C171.5 20.8848 171 18.5434 171.6 17.5132C171.8 17.2322 172.2 17.0449 172.5 17.0449C175.5 17.5132 178.1 18.918 178.5 22.196C178.8 24.912 178.6 27.628 178.6 30.344C178.5 30.5313 178.5 30.5313 178.4 30.5313Z" fill="#FFF3E0"/>
<path d="M117.8 30.7186C117.8 33.2473 117.9 35.776 117.8 38.2111C117.7 41.1144 115.4 43.7368 112.5 44.205C111 44.486 110.7 44.205 110.6 42.8939C110.5 41.6763 110.4 40.3652 112 39.6159C112.5 39.4286 112.8 38.5857 112.8 38.0238C112.8 33.06 112.8 28.1899 112.7 23.2262C112.7 22.5706 112.1 21.8214 111.5 21.3531C110.8 20.6975 110.1 18.1688 110.8 17.4195C111 17.1386 111.6 17.0449 112 17.0449C115.3 17.3259 117.6 19.9482 117.7 22.7579C117.8 24.0691 117.8 25.3803 117.8 26.6914C117.8 28.0963 117.8 29.4075 117.8 30.7186Z" fill="#FFF3E0"/>
<path d="M204.1 30.8124C204.1 34.6523 204.1 38.4922 204.1 42.332C204.1 43.6432 203.8 43.9242 202.3 43.9242C199 43.8305 199.1 43.8305 199.2 40.7399C199.2 33.9967 199.2 27.1598 199.2 20.4166C199.2 19.8547 199.3 19.1991 199.3 18.6372C199.3 18.5435 199.3 18.3562 199.4 18.2626C200.4 16.8577 201.9 17.7943 203.1 17.607C203.4 17.607 204.1 18.5435 204.1 19.1055C204.2 22.9453 204.1 26.8789 204.1 30.8124Z" fill="#FFF3E0"/>
<path d="M120 30.8124C120 26.8788 120 22.8517 120 18.9181C120 17.9816 120.5 17.6069 121.4 17.5133C124.8 17.326 124.9 17.5133 124.8 20.6976C124.7 24.7248 124.8 28.8456 124.8 32.8728C124.8 36.0571 124.8 39.2414 124.8 42.4257C124.8 43.5495 124.3 44.1115 123 43.9242C122.6 43.8305 122.3 43.9242 121.9 43.9242C120.4 44.0178 120 43.6432 120 42.2384C120 38.4921 120 34.6523 120 30.8124Z" fill="#FFF3E0"/>
<path d="M155.5 30.8125C155.5 26.9727 155.5 23.2264 155.5 19.3866C155.5 18.3564 155.7 17.5135 157.1 17.4198C159.8 17.3261 160.3 17.5135 160.4 19.2929C160.5 22.8518 160.4 26.5044 160.4 30.0633C160.4 34.1841 160.4 38.305 160.4 42.4258C160.4 43.737 160 44.1116 158.6 44.1116C158.2 44.1116 157.9 44.1116 157.5 44.1116C156 44.1116 155.5 43.737 155.5 42.3322C155.5 38.3986 155.5 34.5588 155.5 30.8125Z" fill="#FFF3E0"/>
<path d="M86.5999 30.9067C86.5999 27.0668 86.5999 23.2269 86.5999 19.3871C86.5999 17.7949 86.9999 17.5139 88.5999 17.5139C88.8999 17.5139 89.1999 17.5139 89.5999 17.5139C90.7999 17.4203 91.2999 17.9822 91.2999 19.1997C91.2999 24.2571 91.2999 29.4082 91.2999 34.4656C91.2999 37.1816 91.1999 39.804 91.2999 42.52C91.2999 43.6439 90.7999 44.1121 89.6999 44.1121C89.2999 44.1121 88.8999 44.1121 88.4999 44.1121C86.8999 44.0185 86.5999 43.7375 86.5999 42.239C86.4999 38.3991 86.4999 34.6529 86.5999 30.9067Z" fill="#FFF3E0"/>
<path d="M142.2 30.8126C142.2 34.5588 142.2 38.305 142.2 42.1449C142.2 43.8307 141.9 44.1117 140.1 44.018C139.8 44.018 139.5 44.018 139.1 44.1117C137.9 44.2053 137.4 43.737 137.4 42.6132C137.4 40.9274 137.4 39.2416 137.4 37.5558C137.4 31.4682 137.4 25.4742 137.4 19.3866C137.4 18.8247 137.9 17.7944 138.3 17.7944C139.4 17.7008 140.6 17.8881 141.8 18.0754C142 18.0754 142.1 18.8247 142.1 19.1993C142.1 23.0392 142.1 26.879 142.2 30.8126Z" fill="#FFF3E0"/>
<path d="M62.3999 33.6224C62.3999 30.9064 62.3999 28.1904 62.3999 25.4744C62.3999 23.6013 62.6999 23.3203 64.5999 23.3203C67.2999 23.3203 67.3999 23.414 67.2999 26.13C67.1999 31.3747 67.2999 36.6194 67.2999 41.8641C67.2999 42.6134 66.8999 43.8309 66.3999 43.9245C65.2999 44.2055 64.0999 43.9245 62.8999 43.7372C62.6999 43.7372 62.3999 42.8943 62.3999 42.5197C62.3999 39.5227 62.3999 36.6194 62.3999 33.6224Z" fill="#FFF3E0"/>
<path d="M81.2002 33.8101C81.2002 36.7134 81.2002 39.6168 81.2002 42.5201C81.2002 43.4566 80.8002 43.9249 79.8002 44.0186C76.4002 44.2995 76.3002 44.2059 76.2002 41.0216C76.2002 35.6832 76.2002 30.3449 76.2002 25.1001C76.2002 23.8826 76.7002 23.4143 78.0002 23.3207C81.2002 23.227 81.2002 23.1334 81.2002 26.1304C81.2002 28.6591 81.2002 31.1878 81.2002 33.8101Z" fill="#FFF3E0"/>
<path d="M48.2998 27.1597C50.2998 27.0661 50.6998 27.5344 50.3998 29.3138C49.5998 33.7156 48.6998 38.0238 47.7998 42.4256C47.6998 42.9875 47.0998 43.8304 46.5998 43.9241C45.5998 44.1114 44.4998 43.8304 43.5998 43.6431C43.3998 43.5495 43.2998 42.7066 43.2998 42.2383C44.0998 37.8365 44.8998 33.5283 45.6998 29.1265C45.9998 27.5344 46.2998 27.2534 48.2998 27.1597Z" fill="#FFF3E0"/>
<path d="M185.3 37.6499C185.3 39.2421 185.3 40.8342 185.3 42.4264C185.3 43.5502 184.8 44.1122 183.5 44.0185C180.3 43.9249 180.3 43.9249 180.5 40.9279C180.6 38.3992 180.6 35.8705 180.5 33.2481C180.4 31.2814 180.8 30.9067 182.9 31.0004C185.2 31.094 185.2 31.1877 185.3 33.4354C185.4 34.8403 185.3 36.2451 185.3 37.6499Z" fill="#FFF3E0"/>
<path d="M78.8002 21.7282C77.3002 21.7282 75.8002 21.7282 74.2002 21.7282C73.1002 21.7282 72.5002 21.2599 72.5002 20.136C72.5002 19.7614 72.5002 19.3868 72.5002 19.0122C72.3002 17.9819 72.9002 17.5137 73.9002 17.5137C77.1002 17.5137 80.4002 17.5137 83.6002 17.6073C84.0002 17.6073 84.4002 18.3566 84.9002 18.7312V18.8248C85.2002 21.4472 84.9002 21.8218 82.0002 21.8218C80.9002 21.7282 79.8002 21.7282 78.8002 21.7282Z" fill="#FFF3E0"/>
<path d="M64.9001 21.7282C63.5001 21.7282 62.0001 21.7282 60.6001 21.7282C59.0001 21.7282 58.6001 21.3535 58.6001 19.9487C58.6001 19.5741 58.6001 19.1995 58.6001 18.8248C58.6001 17.8883 59.2001 17.5137 60.1001 17.5137C63.1001 17.5137 66.0001 17.5137 69.0001 17.5137C70.6001 17.5137 70.9001 17.7946 70.9001 19.2931C70.9001 19.5741 70.9001 19.8551 70.9001 20.0424C70.9001 21.3535 70.5001 21.8218 69.0001 21.7282C67.7001 21.7282 66.3001 21.7282 64.9001 21.7282Z" fill="#FFF3E0"/>
<path d="M25.5998 39.0544C25.5998 40.1783 25.5998 41.3958 25.5998 42.5197C25.5998 43.4562 25.1998 43.9245 24.0998 43.9245C20.8998 43.9245 20.7998 43.8308 20.7998 40.8339C20.7998 39.0544 20.6998 37.275 20.7998 35.4955C20.7998 33.8097 21.1998 33.5287 23.3998 33.6224C24.9998 33.6224 25.4998 34.0907 25.4998 35.4955C25.5998 36.8067 25.5998 37.9305 25.5998 39.0544Z" fill="#FFF3E0"/>
<path d="M96.7002 44.0181C96.2002 44.0181 95.7002 44.0181 95.2002 44.0181C93.8002 44.0181 93.3002 43.6435 93.1002 42.3323C92.8002 40.1782 93.3002 39.71 95.7002 39.71C96.5002 39.71 97.4002 39.71 98.2002 39.71C100 39.71 100.2 39.9909 100.2 42.426C100.2 43.7371 99.8002 43.9245 98.3002 43.9245C97.7002 44.0181 97.2002 44.0181 96.7002 44.0181Z" fill="#FFF3E0"/>
<path d="M96.5001 21.6344C96.3001 21.6344 96.1001 21.6344 95.9001 21.6344C92.8001 22.009 93.2001 20.9788 93.1001 18.8248C93.1001 17.7945 93.8001 17.4199 94.8001 17.4199C96.0001 17.4199 97.2001 17.4199 98.4001 17.4199C99.5001 17.4199 100.1 17.7945 100 18.8248C100 19.1057 100 19.3867 100 19.7613C100 21.3535 99.7001 21.7281 97.9001 21.6344C97.5001 21.6344 97.0001 21.7281 96.5001 21.6344Z" fill="#FFF3E0"/>
<path d="M96.0998 28.0963C96.4998 28.0963 96.8998 28.0027 97.2998 28.0027C98.0998 28.0027 98.6998 28.3773 98.6998 29.2202C98.6998 29.6885 98.6998 30.0631 98.7998 30.5314C98.8998 31.7489 98.2998 32.3108 96.9998 32.2172C96.5998 32.2172 96.1998 32.2172 95.7998 32.2172C93.2998 32.3108 92.2998 31.0933 93.1998 28.8456C93.2998 28.4709 93.9998 28.19 94.4998 28.0027C94.9998 27.909 95.5998 28.0027 96.0998 28.0963Z" fill="#FFF3E0"/>
</svg>
