<svg width="164" height="62" viewBox="0 0 164 62" fill="none" xmlns="http://www.w3.org/2000/svg">
<path d="M164 61.6881C109.377 61.6881 54.6885 61.6881 0 61.6881C0 41.1472 0 20.6063 0 0C54.6231 0 109.312 0 164 0C164 20.5409 164 41.1472 164 61.6881ZM37.8109 29.6992C37.9418 29.6992 38.0726 29.6992 38.2034 29.6992C38.4651 30.2226 38.7268 30.7459 38.9884 31.2692C40.6239 34.8672 42.2593 38.4651 43.8293 42.1284C44.2872 43.1751 44.9414 43.5022 45.9226 43.4368C46.3805 43.4368 46.8384 43.5022 47.2309 43.3714C47.6889 43.1751 48.2776 42.848 48.5393 42.4555C49.128 41.6051 49.6514 40.6239 50.0439 39.708C50.4364 38.7922 51.0905 38.5305 52.0064 38.5305C54.296 38.5305 56.5856 38.7268 58.8751 38.5305C60.9685 38.3343 62.3422 38.923 62.8656 41.0164C62.931 41.3434 63.1927 41.6051 63.3889 41.8668C64.3047 43.4368 66.0056 44.0255 67.641 43.3059C67.9027 43.1751 68.1643 42.9789 68.2952 42.7826C69.6035 40.3622 70.8464 37.8763 72.1548 35.4559C72.351 35.0634 72.7435 34.8018 73.0052 34.4093C73.3323 34.7363 73.7248 34.998 73.921 35.3905C74.9023 37.2876 76.0144 39.1193 76.7994 41.1472C77.5844 42.9134 78.631 43.7639 80.5935 43.4368C81.3131 43.3059 81.8365 43.1751 82.1635 42.5209C82.7523 41.4743 83.2756 40.3622 83.9298 39.3809C84.1915 38.9884 84.7148 38.5959 85.1073 38.5959C88.2473 38.5305 91.3873 38.5305 94.4619 38.5959C94.8544 38.5959 95.4432 38.923 95.7048 39.3155C96.359 40.2313 96.9477 41.2126 97.3402 42.2593C97.7327 43.2405 98.3869 43.4368 99.3027 43.4368C100.219 43.4368 101.2 43.4368 102.116 43.4368C105.975 43.4368 109.835 43.4368 113.694 43.4368C114.545 43.4368 114.937 43.1097 114.807 42.2593C114.807 42.063 114.807 41.8668 114.807 41.7359C114.741 40.2968 114.741 40.2968 113.302 40.2968C110.816 40.2968 108.33 40.2968 105.91 40.2968C104.994 40.2968 104.602 39.9043 104.602 38.9884C104.602 33.6897 104.602 28.4563 104.602 23.1576C104.602 21.0642 105.125 20.9988 102.377 21.0642C102.312 21.0642 102.247 21.0642 102.181 21.0642C101.462 21.0642 101.265 21.3913 101.265 22.1109C101.265 28.1292 101.331 34.0822 101.331 40.1005C101.331 40.5584 101.2 40.9509 101.2 41.4089C101.069 41.4089 100.938 41.4743 100.807 41.4743C97.2094 34.7363 93.6769 27.9984 90.0136 21.0642C89.6865 21.4567 89.5556 21.5876 89.4902 21.7838C86.5465 27.3442 83.6027 32.9701 80.659 38.5305C80.5281 38.7922 80.2665 38.9884 80.0048 39.1847C79.8085 38.9884 79.5469 38.7922 79.3506 38.5305C78.0423 36.0447 76.6685 33.5588 75.4256 31.0076C75.2294 30.5497 75.2294 29.7647 75.491 29.3067C76.5377 27.148 77.7152 25.0546 78.8273 22.8959C79.8085 20.9988 79.8085 21.0642 77.6498 20.9334C76.5377 20.868 75.9489 21.2605 75.5564 22.1763C75.0985 23.2884 74.4444 24.3351 73.8556 25.3163C73.6594 25.578 73.3977 25.8396 73.136 26.1013C72.8744 25.8396 72.6127 25.6434 72.4818 25.3817C71.8931 24.3351 71.3043 23.2884 70.781 22.1763C70.3231 21.2605 69.6689 20.8026 68.6223 20.868C68.2952 20.9334 67.9027 20.8026 67.5102 20.868C66.5943 20.868 66.4635 21.1296 66.856 21.9146C68.0989 24.2696 69.3418 26.6901 70.6502 29.0451C71.1081 29.8955 71.0427 30.5497 70.5848 31.4001C69.3418 33.7551 68.0989 36.1101 66.856 38.3997C66.7252 38.7268 66.3981 38.923 66.2018 39.1847C65.9402 38.923 65.6131 38.6613 65.4822 38.3343C64.3702 36.3063 63.3235 34.2784 62.2768 32.2505C60.5106 28.8488 58.7443 25.5126 56.9126 22.1763C56.7164 21.8492 56.4547 21.5876 56.1931 21.3259C55.9968 21.5876 55.6697 21.8492 55.5389 22.1109C52.726 27.4097 49.9785 32.7084 47.1655 38.0072C46.9693 38.3343 46.7076 38.5959 46.4459 38.8576C46.1843 38.5305 45.9226 38.2688 45.7264 37.9418C43.8947 33.8859 42.1284 29.8301 40.2968 25.7742C39.6426 24.2042 38.923 22.6996 38.0726 20.868C37.4184 22.3071 36.9605 23.4192 36.4372 24.5313C35.0634 27.6059 33.6897 30.6805 32.3159 33.7551C32.1851 34.0168 31.9234 34.213 31.7272 34.4747C31.5309 34.2784 31.2692 34.1476 31.1384 33.9513C29.4376 30.0263 27.6713 26.1013 25.9705 22.1763C25.8396 21.8492 25.578 21.5876 25.3817 21.3259C25.1855 21.5876 24.9238 21.8492 24.793 22.1109C23.0921 25.8396 21.4567 29.5684 19.7559 33.3626C18.4475 36.3063 17.1392 39.1847 15.8309 42.1284C15.6346 42.5864 15.5038 43.0443 16.0925 43.3059C17.3355 43.7639 19.0363 43.1097 19.5596 41.8668C21.2605 38.0072 22.9613 34.1476 24.7276 30.3534C24.8584 30.0917 25.1201 29.8955 25.3163 29.6992C25.5126 29.8955 25.7742 30.0917 25.9051 30.4188C27.6059 34.2784 29.3722 38.2034 31.073 42.063C31.2038 42.3901 31.4001 42.5864 31.7926 43.1751C33.8859 38.5959 35.8484 34.1476 37.8109 29.6992ZM138.357 20.5409C134.17 20.4101 131.422 21.3259 128.937 23.1576C124.684 26.2976 123.245 32.8392 125.666 37.353C129.002 43.633 136.525 45.4647 142.347 42.7172C147.973 40.1005 150.72 33.2318 148.169 27.8022C146.076 23.1576 142.282 20.868 138.357 20.5409ZM116.377 33.7551C116.377 36.568 116.377 39.4463 116.377 42.2593C116.377 42.5864 116.507 43.1751 116.638 43.2405C117.489 43.3714 118.404 43.4368 119.32 43.3059C119.517 43.2405 119.778 42.3901 119.778 41.8668C119.778 36.4372 119.778 30.9422 119.778 25.5126C119.778 24.5313 120.04 24.008 121.152 24.0734C122.591 24.1388 124.03 24.0734 125.535 24.1388C126.451 24.2042 126.843 23.8117 126.778 22.8959C126.778 22.5034 126.843 22.1109 126.712 21.8492C126.582 21.5221 126.32 21.1951 125.993 21.1296C125.535 20.9988 125.012 21.0642 124.488 21.0642C120.105 21.0642 115.722 21.0642 111.274 21.0642C109.246 21.0642 109.181 21.1296 109.377 23.1576C109.377 23.223 109.377 23.223 109.377 23.2884C109.377 23.9426 109.704 24.2696 110.424 24.2042C111.994 24.1388 113.564 24.2696 115.134 24.1388C116.18 24.0734 116.442 24.4659 116.442 25.4471C116.311 28.2601 116.377 31.0076 116.377 33.7551Z" fill="#1A130D"/>
<path d="M37.8111 29.6989C35.8486 34.1472 33.8207 38.5956 31.7274 43.3056C31.4003 42.7168 31.1386 42.4552 31.0078 42.1935C29.3069 38.3339 27.6061 34.4089 25.8398 30.5493C25.709 30.2877 25.4473 30.0914 25.2511 29.8297C25.0548 30.026 24.7278 30.2222 24.6623 30.4839C22.9615 34.3435 21.2607 38.2031 19.4944 41.9973C18.9711 43.1748 17.2702 43.8944 16.0273 43.4364C15.4386 43.1748 15.504 42.7823 15.7657 42.2589C17.074 39.3152 18.3823 36.4368 19.6907 33.4931C21.3915 29.7643 23.0269 25.9701 24.7278 22.2414C24.8586 21.9143 25.1203 21.718 25.3165 21.4564C25.5128 21.718 25.7744 21.9797 25.9053 22.3068C27.6061 26.2318 29.3069 30.1568 31.0732 34.0818C31.204 34.2781 31.4657 34.4743 31.6619 34.6052C31.8582 34.3435 32.1199 34.1472 32.2507 33.8856C33.6244 30.811 34.9982 27.7364 36.372 24.6618C36.8953 23.5497 37.3532 22.4376 38.0074 20.9985C38.8578 22.8301 39.5774 24.4001 40.2315 25.9047C42.0632 29.9606 43.8295 34.0164 45.6611 38.0723C45.792 38.3993 46.1191 38.661 46.3807 38.9881C46.6424 38.7264 46.9041 38.4648 47.1003 38.1377C49.9132 32.8389 52.7262 27.5401 55.4737 22.2414C55.6045 21.9143 55.9316 21.718 56.1278 21.4564C56.3895 21.718 56.6512 21.9797 56.8474 22.3068C58.6137 25.6431 60.4453 29.0447 62.2116 32.381C63.2583 34.4089 64.3049 36.4368 65.417 38.4648C65.6133 38.7918 65.9404 39.0535 66.1366 39.3152C66.3329 39.0535 66.6599 38.7918 66.7908 38.5302C68.0337 36.1752 69.2112 33.8202 70.5195 31.5306C70.9775 30.7456 71.0429 30.026 70.585 29.1756C69.2766 26.8206 68.0337 24.4656 66.7908 22.0451C66.3983 21.2601 66.5291 20.9985 67.4449 20.9985C67.8374 20.9985 68.1645 21.0639 68.557 20.9985C69.6037 20.8676 70.2579 21.3255 70.7158 22.3068C71.2391 23.4189 71.8279 24.4656 72.4166 25.5122C72.5475 25.7739 72.8745 26.0356 73.0708 26.2318C73.3325 25.9701 73.5941 25.7739 73.7904 25.4468C74.3791 24.4001 74.9679 23.3535 75.4912 22.3068C75.9491 21.3255 76.5379 20.9985 77.5846 21.0639C79.7433 21.1947 79.7433 21.1293 78.7621 23.0264C77.65 25.1851 76.4725 27.2785 75.4258 29.4372C75.1641 29.8951 75.1641 30.6802 75.3604 31.1381C76.6033 33.6893 77.9771 36.1752 79.2854 38.661C79.4162 38.9227 79.6779 39.1189 79.9396 39.3152C80.1358 39.1189 80.4629 38.9227 80.5937 38.661C83.5375 33.1006 86.4812 27.4747 89.425 21.9143C89.4904 21.718 89.6867 21.5872 89.9483 21.1947C93.6117 28.1289 97.2096 34.8668 100.742 41.6048C100.873 41.6048 101.004 41.5393 101.135 41.5393C101.2 41.0814 101.265 40.6889 101.265 40.231C101.265 34.2127 101.265 28.2597 101.2 22.2414C101.2 21.5218 101.462 21.1947 102.116 21.1947C102.181 21.1947 102.247 21.1947 102.312 21.1947C104.994 21.1947 104.536 21.1947 104.536 23.288C104.536 28.5868 104.536 33.8202 104.536 39.1189C104.536 40.0348 104.863 40.4273 105.845 40.4273C108.33 40.3618 110.816 40.4273 113.237 40.4273C114.676 40.4273 114.676 40.4273 114.741 41.8664C114.741 42.0627 114.741 42.2589 114.741 42.3898C114.872 43.2402 114.48 43.5673 113.629 43.5673C109.77 43.5673 105.91 43.5673 102.05 43.5673C101.135 43.5673 100.153 43.5673 99.2375 43.5673C98.3217 43.5673 97.6675 43.371 97.275 42.3898C96.8825 41.3431 96.2938 40.3618 95.6396 39.446C95.3779 39.1189 94.8546 38.7264 94.3967 38.7264C91.2567 38.661 88.1167 38.661 85.0421 38.7264C84.6496 38.7264 84.1262 39.1189 83.8646 39.5114C83.2104 40.4927 82.6871 41.6048 82.0983 42.6514C81.7712 43.3056 81.2479 43.4364 80.5283 43.5673C78.5658 43.8289 77.4537 43.0439 76.7341 41.2777C75.8837 39.3152 74.8371 37.4181 73.8558 35.521C73.6595 35.1285 73.267 34.8668 72.94 34.5397C72.6783 34.8668 72.2858 35.1939 72.0895 35.5864C70.7812 38.0068 69.5383 40.4927 68.23 42.9131C68.0991 43.1748 67.8375 43.371 67.5758 43.4364C65.9404 44.0906 64.2395 43.5018 63.3237 41.9973C63.1274 41.7356 62.9312 41.4739 62.8004 41.1468C62.277 39.0535 60.9033 38.4648 58.8099 38.661C56.5203 38.8573 54.2308 38.7264 51.9412 38.661C51.0253 38.661 50.3712 38.9227 49.9787 39.8385C49.5862 40.8198 49.0628 41.7356 48.4741 42.586C48.2124 42.9785 47.6236 43.3056 47.1657 43.5019C46.7732 43.6327 46.3153 43.5673 45.8574 43.5673C44.8761 43.6327 44.222 43.3056 43.7641 42.2589C42.1941 38.5956 40.5586 34.9977 38.9232 31.3997C38.6615 30.8764 38.3999 30.3531 38.1382 29.8297C38.0728 29.6989 37.942 29.6989 37.8111 29.6989ZM55.997 35.3247C56.8474 35.3247 57.6324 35.3247 58.4828 35.3247C59.5295 35.3247 59.7258 34.9977 59.2678 34.0818C58.4174 32.5118 57.567 30.8764 56.7166 29.3064C56.2587 28.456 55.8662 28.456 55.4082 29.3064C54.4924 30.9418 53.642 32.6427 52.7262 34.2781C52.3337 34.9977 52.5953 35.3247 53.4457 35.3247C54.3616 35.3247 55.212 35.3247 55.997 35.3247ZM90.0138 28.3906C89.8829 28.3906 89.7521 28.456 89.6213 28.456C89.5558 28.5868 89.4904 28.7831 89.3596 28.9139C88.4438 30.6802 87.4625 32.4464 86.5467 34.2127C86.1542 34.9977 86.5467 35.2593 87.2662 35.2593C88.9671 35.2593 90.6025 35.2593 92.3034 35.2593C93.2192 35.2593 93.4808 34.9322 93.0229 34.1472C92.1071 32.381 91.1913 30.6802 90.2754 28.9793C90.1446 28.8485 90.0792 28.5868 90.0138 28.3906Z" fill="#FFF3E0"/>
<path d="M138.356 20.5406C142.281 20.8677 146.075 23.1573 148.234 27.8019C150.72 33.2315 148.038 40.1003 142.412 42.7169C136.59 45.4644 129.067 43.6328 125.731 37.3527C123.31 32.7736 124.749 26.2973 129.001 23.1573C131.422 21.3256 134.169 20.4098 138.356 20.5406ZM145.617 32.2502C145.486 27.2786 141.496 23.6152 136.459 23.8115C131.749 23.9423 127.889 27.8673 128.02 32.3156C128.151 37.0911 132.141 40.8198 136.982 40.689C141.823 40.4928 145.748 36.6986 145.617 32.2502Z" fill="#FFF3E0"/>
<path d="M116.377 33.7551C116.377 31.0076 116.377 28.2601 116.377 25.4471C116.377 24.4659 116.115 24.0734 115.068 24.1388C113.498 24.2042 111.928 24.1388 110.358 24.2042C109.704 24.2042 109.312 23.9425 109.312 23.2884C109.312 23.223 109.312 23.223 109.312 23.1575C109.115 21.1296 109.181 21.0642 111.209 21.0642C115.592 21.0642 119.975 21.0642 124.423 21.0642C124.946 21.0642 125.47 20.9988 125.928 21.1296C126.189 21.195 126.516 21.5875 126.647 21.8492C126.778 22.1763 126.713 22.5688 126.713 22.8959C126.778 23.7463 126.385 24.1388 125.47 24.1388C124.03 24.0734 122.591 24.1388 121.087 24.0734C119.975 24.008 119.713 24.4659 119.713 25.5126C119.778 30.9421 119.713 36.4372 119.713 41.8668C119.713 42.3901 119.517 43.2405 119.255 43.3059C118.405 43.4368 117.489 43.3713 116.573 43.2405C116.442 43.2405 116.311 42.5863 116.311 42.2593C116.311 39.4463 116.377 36.6334 116.377 33.7551Z" fill="#FFF3E0"/>
<path d="M55.9971 35.3251C55.1467 35.3251 54.3617 35.3251 53.5113 35.3251C52.6609 35.3251 52.3992 34.998 52.7917 34.2784C53.6421 32.643 54.558 30.9422 55.4738 29.3068C55.9317 28.4563 56.3242 28.4563 56.7821 29.3068C57.6326 30.8768 58.483 32.5122 59.3334 34.0822C59.7913 34.998 59.5951 35.3251 58.5484 35.3251C57.698 35.3251 56.8476 35.3251 55.9971 35.3251Z" fill="#1A130D"/>
<path d="M90.014 28.3906C90.0794 28.5869 90.2102 28.7831 90.2757 28.9794C91.1915 30.6802 92.1727 32.4465 93.0232 34.1473C93.4157 34.9977 93.2194 35.2594 92.3036 35.2594C90.6027 35.2594 88.9673 35.2594 87.2665 35.2594C86.5469 35.2594 86.089 34.9977 86.5469 34.2127C87.4627 32.4465 88.444 30.6802 89.3598 28.914C89.4252 28.7831 89.4907 28.5869 89.6215 28.456C89.7523 28.456 89.8832 28.456 90.014 28.3906Z" fill="#1A130D"/>
<path d="M145.618 32.251C145.749 36.6993 141.824 40.4935 136.917 40.6898C132.142 40.8206 128.086 37.0918 127.955 32.3164C127.825 27.8681 131.684 23.943 136.394 23.8122C141.497 23.616 145.487 27.2793 145.618 32.251Z" fill="#1A130D"/>
</svg>
