<svg width="148" height="62" viewBox="0 0 148 62" fill="none" xmlns="http://www.w3.org/2000/svg">
<path d="M150.613 63C99.409 63 48.2045 63 -3 63C-3 41.3984 -3 19.7969 -3 -1.80469C48.1858 -1.80469 99.3716 -1.80469 150.613 -1.80469C150.613 19.8748 150.613 41.4374 150.613 63ZM27.6404 29.0769C27.7526 29.0964 27.8648 29.1354 27.9582 29.1549C28.033 29.4474 28.1078 29.7203 28.1639 30.0128C28.8182 33.873 29.4538 37.7137 30.1268 41.5739C30.3885 43.0751 30.4259 43.0556 31.9215 43.0556C33.0806 43.0556 33.0993 43.0166 32.8749 41.7883C31.828 36.2125 30.7811 30.6366 29.7155 25.0608C29.4912 23.891 29.2856 22.7018 29.0425 21.532C29.0051 21.3175 28.7995 21.1421 28.6686 20.9666C28.5004 21.1226 28.2947 21.2591 28.2013 21.454C28.0517 21.727 28.0143 22.0584 27.8835 22.3313C25.9018 27.0299 23.9202 31.7479 21.9199 36.4464C21.8264 36.6414 21.6208 36.7974 21.4712 36.9533C21.3217 36.7779 21.0973 36.6414 21.0225 36.4464C18.9101 31.4555 16.835 26.445 14.7225 21.454C14.629 21.2201 14.4607 21.0056 14.2177 20.6547C14.0495 21.0251 13.9373 21.2006 13.8999 21.3955C13.6008 22.9747 13.3204 24.5539 13.04 26.1331C12.0678 31.241 11.1144 36.3489 10.1236 41.4569C9.82449 43.0361 9.88057 43.1141 11.4509 43.0751C11.6005 43.0751 11.8061 43.1141 11.8996 43.0361C12.1987 42.7826 12.6474 42.5292 12.7035 42.2172C13.3765 38.5325 13.9934 34.8283 14.629 31.124C14.7412 30.4417 14.9094 29.7788 15.059 29.0964C15.1524 29.0964 15.2646 29.0769 15.3581 29.0769C17.3584 33.756 19.34 38.435 21.3404 43.1141C21.4525 43.1335 21.546 43.1336 21.6582 43.153C23.6211 38.474 25.6401 33.7755 27.6404 29.0769ZM126.965 43.8159C127.04 43.2505 127.114 42.9776 127.114 42.7046C127.114 35.881 127.114 29.0769 127.114 22.2534C127.114 21.2591 126.965 21.1421 125.787 21.1421C124.647 21.1421 124.46 21.2981 124.46 22.2729C124.46 26.1915 124.478 30.1102 124.478 34.0094C124.478 34.9257 124.478 35.8615 124.478 37.0703C124.03 36.7389 123.787 36.6219 123.618 36.4464C118.833 31.2605 114.066 26.0746 109.28 20.8886C109.149 20.7327 108.887 20.7132 108.681 20.6157C108.607 20.8107 108.476 21.0056 108.476 21.2006C108.476 26.9324 108.495 32.6837 108.513 38.4155C108.513 39.6438 108.532 40.872 108.495 42.1003C108.476 42.8021 108.738 43.0946 109.392 43.0556C109.598 43.0361 109.822 43.0361 110.027 43.0751C110.887 43.231 111.168 42.8411 111.168 41.9833C111.13 37.3043 111.13 32.6447 111.13 27.9657C111.13 27.7122 111.224 27.4588 111.317 26.8934C116.589 32.6057 121.674 38.1036 126.965 43.8159ZM66.0204 32.1378H66.0391C66.0391 35.4521 66.0578 38.7665 66.0204 42.0808C66.0204 42.7826 66.2448 43.0946 66.8991 43.0751C68.9929 42.9971 71.1054 43.1141 73.1431 42.8021C77.985 42.0808 81.7239 39.0004 82.2473 33.444C82.7895 27.7512 80.1535 23.2866 74.7134 21.727C72.1149 20.9861 69.4789 21.1811 66.8617 21.1616C66.2074 21.1616 66.0017 21.532 66.0017 22.1949C66.0204 25.5092 66.0204 28.8235 66.0204 32.1378ZM47.2137 32.0793C47.2137 35.3547 47.2137 38.6495 47.2324 41.9248C47.2324 42.2562 47.3258 42.8216 47.4567 42.8606C48.1297 42.9971 48.8401 43.0946 49.4757 42.9581C49.6814 42.9191 49.8683 42.1198 49.8683 41.6714C49.9057 39.3123 49.8496 36.9338 49.8683 34.5748C49.8683 34.3409 50.0179 33.9704 50.2048 33.9119C50.4291 33.8145 50.7656 33.912 51.0274 34.0289C51.1956 34.1069 51.3078 34.3409 51.4386 34.5163C53.1959 37.1093 54.9719 39.7218 56.7105 42.3342C57.0844 42.8801 57.5144 43.1336 58.15 43.0946C58.5987 43.0556 59.066 43.1141 59.5147 43.0946C59.7017 43.0751 59.9821 42.9971 60.0382 42.8606C60.0942 42.7046 60.0008 42.4317 59.8886 42.2757C59.0847 41.1255 58.2622 40.0142 57.4396 38.8834C56.374 37.4017 55.3084 35.9005 54.2428 34.4188C53.8502 33.873 53.8876 33.5415 54.598 33.3661C55.0654 33.2491 55.5328 33.0736 55.944 32.8397C58.0004 31.5919 59.1034 29.0185 58.7295 26.523C58.3183 23.891 56.6918 21.9414 54.1494 21.5515C52.093 21.2396 49.9805 21.298 47.9054 21.2201C47.2884 21.2006 47.2137 21.649 47.2137 22.1949C47.2137 25.4507 47.2137 28.765 47.2137 32.0793ZM97.5582 20.3817C97.2591 20.8301 97.0908 21.0251 96.9974 21.2396C93.8941 28.2191 90.7908 35.1987 87.7248 42.1977C87.6314 42.4122 87.6688 42.8801 87.8183 42.9971C88.3979 43.4845 90.2299 42.9386 90.5664 42.2172C91.1273 40.989 91.7068 39.7802 92.1928 38.513C92.4733 37.7722 92.9219 37.5382 93.651 37.5577C96.2309 37.5967 98.8107 37.6552 101.372 37.5772C102.176 37.5577 102.531 37.9086 102.811 38.5715C103.354 39.8387 103.877 41.1255 104.494 42.3342C104.662 42.6656 105.13 42.8996 105.503 43.0361C105.859 43.153 106.289 43.0556 106.681 43.0556C107.298 43.0556 107.541 42.8216 107.261 42.1782C106.438 40.3456 105.616 38.5325 104.812 36.6999C102.924 32.4303 101.017 28.1606 99.1285 23.9105C98.6425 22.8187 98.1377 21.727 97.5582 20.3817ZM34.0153 32.0013C33.9966 32.0013 33.9966 32.0013 34.0153 32.0013C33.9966 35.3547 34.0153 38.6885 33.9966 42.0418C33.9966 42.7826 34.2583 43.0556 34.95 43.0556C38.072 43.0361 41.194 43.0556 44.316 43.0556C45.3816 43.0556 45.419 42.9191 45.4564 41.6519C45.4938 40.6966 45.0077 40.5796 44.2599 40.5796C42.0166 40.6186 39.7732 40.5991 37.5299 40.6186C36.8943 40.6186 36.6138 40.4236 36.6325 39.6828C36.6886 37.5772 36.6886 35.4521 36.6512 33.3466C36.6325 32.5862 36.8756 32.2548 37.642 32.2743C39.8293 32.2938 41.9979 32.2353 44.1851 32.2938C45.3629 32.3328 45.1199 31.5334 45.1573 30.8316C45.1946 30.0907 45.0264 29.7398 44.2038 29.7593C41.9605 29.8178 39.7171 29.7983 37.4738 29.7983C36.9129 29.7983 36.6325 29.6033 36.6512 28.96C36.6699 27.5173 36.6886 26.0551 36.6512 24.6124C36.6325 23.8715 36.9129 23.6181 37.6233 23.6181C39.8667 23.6571 42.11 23.5986 44.3534 23.6571C45.3816 23.6766 45.4377 23.1112 45.4564 22.2923C45.4751 21.4735 45.176 21.1421 44.4095 21.1421C41.2501 21.1616 38.1094 21.1421 34.95 21.1421C34.277 21.1421 33.9966 21.3955 33.9966 22.1559C34.034 25.4507 34.0153 28.726 34.0153 32.0013ZM61.0851 32.1768C61.0851 35.4521 61.0851 38.747 61.1038 42.0223C61.1038 42.3342 61.2346 42.8801 61.3842 42.9191C62.0198 43.0361 62.7115 43.1335 63.3284 42.9776C63.5714 42.8996 63.7584 42.1393 63.7584 41.6908C63.7771 35.2572 63.7584 28.8235 63.7584 22.3898C63.7584 21.688 63.721 21.1421 62.8236 21.1616C61.2533 21.2006 61.0851 21.2591 61.0851 22.3703C61.0851 25.6067 61.0851 28.882 61.0851 32.1768ZM86.2667 32.1963C86.248 28.843 86.248 25.5092 86.2667 22.1754C86.2667 21.493 86.0423 21.1616 85.388 21.1616C85.0889 21.1616 84.7898 21.1421 84.472 21.1421C83.8924 21.1421 83.5933 21.415 83.5933 22.0584C83.612 28.7845 83.612 35.4911 83.6494 42.2172C83.6494 42.4902 83.9111 42.9581 84.0981 42.9971C84.6589 43.0946 85.2571 43.0946 85.7993 42.9776C85.9862 42.9386 86.248 42.4902 86.248 42.2172C86.2854 38.8834 86.2667 35.5496 86.2667 32.1963ZM132.648 32.0988C132.648 28.843 132.648 25.6067 132.648 22.3508C132.648 21.2396 132.554 21.1421 131.321 21.1421C130.124 21.1421 130.012 21.2396 130.031 22.3703C130.031 28.687 130.049 34.9842 130.049 41.3009C130.049 43.0946 130.068 43.1141 131.713 43.0751C132.424 43.0556 132.667 42.7436 132.667 42.0223C132.629 38.7275 132.648 35.4131 132.648 32.0988Z" fill="#1A130D"/>
<path d="M150.613 62.9996C150.613 41.437 150.613 19.8745 150.613 -1.80504C99.3716 -1.80504 48.1858 -1.80504 -3 -1.80504C-2.96261 -1.86353 -2.94392 -1.9805 -2.90653 -1.9805C-2.6635 -2 -2.42047 -2 -2.17744 -2C48.8027 -2 99.7642 -2 150.8 -2C150.8 -1.64907 150.8 -1.29814 150.8 -0.927721C150.8 20.0889 150.8 41.1251 150.8 62.1418C150.8 62.4147 150.688 62.7072 150.613 62.9996Z" fill="#FFF3E0"/>
<path d="M27.6399 29.0766C25.6396 33.7751 23.6206 38.4737 21.6203 43.1722C21.5081 43.1527 21.4146 43.1527 21.3025 43.1332C19.3022 38.4542 17.3205 33.7751 15.3202 29.0961C15.2267 29.0961 15.1146 29.1156 15.0211 29.1156C14.8715 29.7979 14.7033 30.4608 14.5911 31.1432C13.9555 34.8474 13.3386 38.5321 12.6656 42.2364C12.6095 42.5483 12.1608 42.8213 11.8617 43.0552C11.7682 43.1332 11.5626 43.0747 11.413 43.0942C9.84269 43.1332 9.78661 43.0552 10.0857 41.476C11.0578 36.3681 12.03 31.2601 13.0021 26.1522C13.3012 24.573 13.5816 22.9938 13.862 21.4147C13.8994 21.2197 14.0116 21.0443 14.1798 20.6738C14.4042 21.0443 14.5724 21.2392 14.6846 21.4732C16.7784 26.4641 18.8722 31.4746 20.9847 36.4656C21.0781 36.6605 21.2838 36.8165 21.4333 36.9725C21.5829 36.797 21.8072 36.6605 21.882 36.4656C23.8823 31.767 25.864 27.0685 27.8456 22.3505C27.9577 22.058 28.0138 21.7461 28.1634 21.4732C28.2756 21.2782 28.4812 21.1417 28.6308 20.9858C28.7616 21.1807 28.9486 21.3562 29.0046 21.5511C29.2477 22.7209 29.4533 23.9102 29.6777 25.0799C30.7245 30.6558 31.7714 36.2316 32.837 41.8075C33.0614 43.0162 33.0427 43.0552 31.8836 43.0747C30.388 43.0747 30.3507 43.0942 30.0889 41.593C29.4159 37.7523 28.7803 33.8921 28.126 30.0319C28.0699 29.7395 27.9951 29.447 27.9204 29.1741C27.8643 29.1351 27.7521 29.1156 27.6399 29.0766Z" fill="#FFF3E0"/>
<path d="M126.964 43.8155C121.673 38.1031 116.607 32.6053 111.317 26.8929C111.223 27.4583 111.13 27.7118 111.13 27.9652C111.13 32.6443 111.148 37.3038 111.167 41.9828C111.167 42.8407 110.887 43.2306 110.027 43.0746C109.821 43.0356 109.597 43.0356 109.391 43.0551C108.737 43.0941 108.456 42.8017 108.494 42.0998C108.531 40.8716 108.512 39.6433 108.512 38.4151C108.494 32.6832 108.475 26.9319 108.475 21.2001C108.475 21.0052 108.606 20.8102 108.681 20.6152C108.886 20.7127 109.129 20.7322 109.279 20.8882C114.065 26.0741 118.832 31.26 123.618 36.446C123.786 36.6214 124.029 36.7384 124.478 37.0698C124.478 35.8611 124.478 34.9253 124.478 34.009C124.478 30.0903 124.459 26.1716 124.459 22.2724C124.459 21.2976 124.646 21.1416 125.786 21.1416C126.964 21.1416 127.114 21.2586 127.114 22.2529C127.114 29.0765 127.114 35.8806 127.114 42.7042C127.114 42.9771 127.039 43.2501 126.964 43.8155Z" fill="#FFF3E0"/>
<path d="M66.0206 32.1381C66.0206 28.8237 66.0393 25.5094 66.002 22.1951C66.002 21.5322 66.2076 21.1618 66.8619 21.1618C69.4978 21.1813 72.1151 20.9864 74.7136 21.7272C80.1538 23.2869 82.7897 27.7515 82.2475 33.4443C81.7241 38.9811 77.9852 42.0615 73.1433 42.8024C71.0869 43.1143 68.9744 42.9973 66.8993 43.0753C66.245 43.0948 66.0206 42.7634 66.0206 42.081C66.058 38.7667 66.0393 35.4524 66.0393 32.1381H66.0206ZM68.6753 32.0211C68.6753 34.5166 68.694 37.012 68.6566 39.5075C68.6566 40.3069 68.9183 40.6968 69.7222 40.5993C70.47 40.5213 71.2364 40.5408 71.9842 40.4238C76.4522 39.7415 79.3312 37.5579 79.6303 32.7229C79.8359 29.3501 78.7704 26.5622 75.7231 24.9245C73.8537 23.9302 71.7973 23.6768 69.7222 23.6183C68.937 23.5988 68.6379 23.9107 68.6566 24.7101C68.694 27.1471 68.6753 29.5841 68.6753 32.0211Z" fill="#FFF3E0"/>
<path d="M47.2144 32.0785C47.2144 28.7642 47.2144 25.4499 47.2144 22.1356C47.2144 21.5897 47.2704 21.1413 47.9061 21.1608C49.9999 21.2388 52.0936 21.1803 54.15 21.4922C56.6738 21.8626 58.3189 23.8317 58.7302 26.4637C59.1228 28.9787 58.0011 31.5326 55.9447 32.7804C55.5334 33.0338 55.0661 33.2093 54.5987 33.3068C53.8883 33.4822 53.8509 33.8137 54.2435 34.3595C55.3091 35.8412 56.3747 37.3424 57.4403 38.8241C58.2629 39.9549 59.0854 41.0857 59.8893 42.2164C60.0015 42.3724 60.0949 42.6453 60.0388 42.8013C59.9828 42.9378 59.7023 43.0353 59.5154 43.0353C59.0667 43.0743 58.5994 42.9963 58.1507 43.0353C57.5151 43.0937 57.0664 42.8403 56.7112 42.2749C54.9726 39.6625 53.1966 37.0695 51.4393 34.457C51.3272 34.2816 51.1963 34.0476 51.0281 33.9696C50.785 33.8527 50.4485 33.7552 50.2055 33.8527C50.0372 33.9111 49.869 34.2816 49.869 34.5155C49.8503 36.8745 49.9064 39.253 49.869 41.6121C49.869 42.0605 49.682 42.8598 49.4764 42.8988C48.8221 43.0353 48.1117 42.9378 47.4574 42.8013C47.3265 42.7818 47.2331 42.1969 47.2331 41.8655C47.2144 38.6487 47.2144 35.3733 47.2144 32.0785ZM49.8316 27.5749H49.8503C49.8503 28.6082 49.869 29.661 49.8316 30.6943C49.8129 31.3182 50.0559 31.6301 50.6168 31.5521C51.8319 31.3767 53.0845 31.2402 54.2622 30.8893C55.5148 30.5188 56.2812 29.1346 56.2999 27.6139C56.3186 26.2102 55.5521 24.6311 54.4492 24.2996C53.2153 23.9292 51.9067 23.7927 50.6355 23.5978C50.0746 23.5198 49.8129 23.8512 49.8129 24.4361C49.8503 25.4889 49.8316 26.5222 49.8316 27.5749Z" fill="#FFF3E0"/>
<path d="M97.5586 20.3818C98.1569 21.7076 98.6429 22.7993 99.129 23.9106C101.017 28.1802 102.924 32.4498 104.812 36.7C105.635 38.5326 106.439 40.3652 107.261 42.1783C107.56 42.8217 107.299 43.0557 106.682 43.0557C106.289 43.0557 105.859 43.1531 105.504 43.0362C105.13 42.9192 104.663 42.6657 104.494 42.3343C103.877 41.1061 103.354 39.8388 102.812 38.5716C102.531 37.9087 102.195 37.5578 101.372 37.5773C98.7925 37.6358 96.2126 37.5968 93.6515 37.5578C92.9224 37.5383 92.4737 37.7722 92.1933 38.5131C91.7072 39.7608 91.1277 40.9891 90.5669 42.2173C90.2303 42.9387 88.3983 43.4846 87.8188 42.9972C87.6692 42.8802 87.6318 42.4123 87.7253 42.1978C90.8099 35.1988 93.8945 28.2192 96.9978 21.2397C97.0913 21.0252 97.2595 20.8497 97.5586 20.3818ZM97.5399 35.0818C98.456 35.0818 99.3533 35.0818 100.269 35.0818C101.073 35.0818 101.185 34.9258 100.868 34.146C99.8955 31.8455 98.9233 29.5254 97.9512 27.2249C97.8577 27.03 97.6521 26.874 97.5026 26.6985C97.3343 26.8545 97.11 26.991 97.0165 27.1859C96.0444 29.4865 95.1096 31.8065 94.1001 34.107C93.7449 34.9258 94.1001 35.0623 94.7357 35.0623C95.6705 35.0818 96.6052 35.0818 97.5399 35.0818Z" fill="#FFF3E0"/>
<path d="M34.0162 32.0009C34.0162 28.7255 34.0348 25.4502 33.9975 22.1554C33.9975 21.3951 34.2779 21.1416 34.9509 21.1416C38.1103 21.1416 41.251 21.1416 44.4103 21.1416C45.1768 21.1416 45.4759 21.473 45.4572 22.2919C45.4385 23.1107 45.3825 23.6956 44.3543 23.6566C42.1109 23.5981 39.8676 23.6566 37.6242 23.6176C36.9138 23.5981 36.6521 23.871 36.6521 24.6119C36.6895 26.0546 36.6708 27.5168 36.6521 28.9595C36.6334 29.5834 36.9138 29.7978 37.4746 29.7978C39.718 29.7783 41.9614 29.8173 44.2047 29.7588C45.0273 29.7393 45.1955 30.0903 45.1581 30.8311C45.1207 31.533 45.3638 32.3128 44.186 32.2933C41.9987 32.2348 39.8302 32.3128 37.6429 32.2738C36.8764 32.2543 36.6334 32.5857 36.6521 33.3461C36.6895 35.4517 36.6895 37.5767 36.6334 39.6823C36.6147 40.4231 36.8951 40.6181 37.5307 40.6181C39.7741 40.5986 42.0174 40.6181 44.2608 40.5791C45.0086 40.5596 45.4759 40.6961 45.4572 41.6514C45.4198 42.9186 45.3825 43.0551 44.3169 43.0551C41.1949 43.0551 38.0729 43.0356 34.9509 43.0551C34.2592 43.0551 33.9788 42.7821 33.9975 42.0413C34.0161 38.688 33.9975 35.3542 34.0162 32.0009C33.9975 32.0009 33.9975 32.0009 34.0162 32.0009Z" fill="#FFF3E0"/>
<path d="M61.0845 32.1768C61.0845 28.9015 61.0845 25.6067 61.0845 22.3313C61.0845 21.2396 61.234 21.1616 62.8231 21.1226C63.7391 21.1031 63.7578 21.649 63.7578 22.3508C63.7578 28.7845 63.7765 35.2182 63.7578 41.6518C63.7578 42.1003 63.5709 42.8801 63.3278 42.9386C62.7296 43.114 62.0192 43.0166 61.3836 42.8801C61.234 42.8606 61.1032 42.2952 61.1032 41.9833C61.0845 38.7274 61.0845 35.4521 61.0845 32.1768Z" fill="#FFF3E0"/>
<path d="M86.2656 32.1958C86.2656 35.5296 86.2843 38.8829 86.2469 42.2168C86.2469 42.4897 86.0039 42.9381 85.7982 42.9771C85.2374 43.0941 84.6392 43.0941 84.097 42.9966C83.9101 42.9576 83.6484 42.4897 83.6484 42.2168C83.611 35.4906 83.611 28.784 83.5923 22.0579C83.5923 21.4145 83.8727 21.1416 84.4709 21.1416C84.77 21.1416 85.0692 21.1416 85.387 21.1611C86.0413 21.1611 86.2656 21.4925 86.2656 22.1749C86.2469 25.5087 86.2469 28.862 86.2656 32.1958Z" fill="#FFF3E0"/>
<path d="M132.647 32.0984C132.647 35.4127 132.628 38.727 132.647 42.0413C132.647 42.7627 132.404 43.0746 131.694 43.0941C130.03 43.1331 130.03 43.1136 130.03 41.32C130.03 35.0033 130.011 28.7061 130.011 22.3894C130.011 21.2586 130.105 21.1611 131.301 21.1611C132.535 21.1611 132.628 21.2586 132.628 22.3699C132.628 25.6062 132.628 28.8425 132.647 32.0984Z" fill="#FFF3E0"/>
<path d="M68.6743 32.0199C68.6743 29.5829 68.693 27.1654 68.6556 24.7284C68.6369 23.9096 68.936 23.6172 69.7212 23.6366C71.7963 23.6951 73.8527 23.9486 75.7222 24.9429C78.7507 26.561 79.8163 29.349 79.6293 32.7413C79.3489 37.5958 76.4512 39.7598 71.9832 40.4422C71.2355 40.5592 70.469 40.5397 69.7212 40.6176C68.9173 40.6956 68.6556 40.3252 68.6556 39.5259C68.693 36.9914 68.6743 34.4959 68.6743 32.0199Z" fill="#1A130D"/>
<path d="M49.8306 27.5754C49.8306 26.5421 49.8306 25.4894 49.8306 24.4561C49.8306 23.8712 50.0923 23.5203 50.6531 23.6177C51.9244 23.8127 53.233 23.9687 54.4668 24.3196C55.5698 24.651 56.3363 26.2107 56.3176 27.6339C56.2802 29.1546 55.5324 30.5388 54.2799 30.9092C53.1021 31.2602 51.8496 31.3966 50.6344 31.5721C50.0736 31.6501 49.8306 31.3187 49.8493 30.7143C49.8867 29.681 49.868 28.6282 49.868 27.5949C49.8493 27.5754 49.8493 27.5754 49.8306 27.5754Z" fill="#1A130D"/>
<path d="M97.5393 35.0815C96.6045 35.0815 95.6698 35.0815 94.7164 35.0815C94.0808 35.0815 93.7256 34.9256 94.0808 34.1262C95.0903 31.8257 96.025 29.5057 96.9971 27.2052C97.0719 27.0102 97.3149 26.8737 97.4832 26.7178C97.6327 26.8932 97.8571 27.0297 97.9319 27.2442C98.9227 29.5447 99.8761 31.8452 100.848 34.1652C101.166 34.9256 101.054 35.101 100.25 35.101C99.3526 35.0815 98.4553 35.0815 97.5393 35.0815Z" fill="#1A130D"/>
</svg>
