<svg width="164" height="63" viewBox="0 0 164 63" fill="none" xmlns="http://www.w3.org/2000/svg">
<path d="M-5 64.8061C-5 42.5374 -5 20.2687 -5 -2C53.076 -2 111.152 -2 169.228 -2C169.228 20.241 169.228 42.482 169.228 64.8061C111.047 64.8061 53.0233 64.8061 -5 64.8061ZM10.2179 15.0893C10.2443 15.2278 10.2443 15.3663 10.2707 15.5048C10.6399 15.5601 11.0091 15.6709 11.3784 15.6709C11.9586 15.6986 12.5652 15.6709 13.1455 15.6709C13.9103 15.6709 14.3059 15.9202 14.2796 16.8896C14.2004 20.9888 14.2268 25.0881 14.2268 29.1873C14.2268 34.0897 14.2268 38.9644 14.2268 43.8669C14.2268 46.332 13.1982 47.4952 10.93 47.7168C10.6927 47.7445 10.4553 48.0492 10.2443 48.2154C10.508 48.3816 10.7454 48.6585 11.0091 48.6862C12.3806 48.7139 13.7784 48.6308 15.1499 48.6308C16.1257 48.6308 17.128 48.6862 18.1038 48.6585C18.3148 48.6585 18.4994 48.3816 18.684 48.2431C18.4994 48.0769 18.3676 47.8276 18.1566 47.7445C15.5455 46.969 15.1499 46.4427 15.1499 43.5622C15.1235 35.5577 15.0708 27.5808 15.0444 19.5763C15.0444 19.2716 15.2027 18.9392 15.3081 18.4407C15.5719 18.8007 15.7038 18.9115 15.7565 19.05C16.9961 22.4291 18.2093 25.8082 19.4489 29.1873C21.3742 34.4498 23.2995 39.74 25.2249 45.0025C25.5677 45.9719 25.9106 46.9413 26.3326 47.883C26.4644 48.1877 26.8073 48.4923 27.0974 48.5477C27.282 48.5754 27.5722 48.1877 27.7568 47.9384C27.915 47.6891 28.0205 47.3845 28.126 47.1075C28.7062 45.501 29.2865 43.8946 29.8667 42.2881C32.6888 34.616 35.5372 26.9438 38.3856 19.2993C38.4911 18.9946 38.7548 18.773 39.0977 18.2745C39.0977 19.5763 39.0977 20.518 39.0977 21.4874C39.0977 29.852 39.0977 38.2443 39.1241 46.6089C39.1241 47.5783 38.8076 47.9107 37.9372 47.883C37.1724 47.8553 36.4339 47.8276 35.669 47.883C35.4844 47.883 35.3262 48.1877 35.1416 48.3539C35.2998 48.4923 35.4581 48.6862 35.6427 48.7416C35.88 48.8247 36.1702 48.797 36.4339 48.797C37.9109 48.7693 39.3878 48.6862 40.8648 48.6862C43.4231 48.7139 45.9814 48.7693 48.566 48.797C48.8562 48.797 49.1463 48.4923 49.4364 48.3539C49.1726 48.1877 48.9089 47.9384 48.6188 47.9107C48.0122 47.8276 47.3792 47.8553 46.7462 47.883C45.9814 47.9107 45.6912 47.5506 45.7176 46.7474C45.7704 45.6949 45.744 44.6147 45.744 43.5345C45.744 34.6437 45.744 25.7528 45.7176 16.8619C45.7176 16.0587 46.0869 15.7263 46.7726 15.7263C47.3528 15.7263 47.9594 15.8094 48.5397 15.754C48.8298 15.7263 49.0935 15.5048 49.3573 15.394C49.0935 15.2001 48.8298 14.8677 48.5397 14.8677C45.6912 14.8677 42.8165 14.8954 39.968 14.9231C39.3351 14.9231 38.9658 15.2278 38.7548 15.8925C37.8581 18.4407 36.9086 20.9611 35.9855 23.5093C34.2976 28.1625 32.5833 32.8433 30.8953 37.4965C30.7634 37.8566 30.5524 38.1889 30.3151 38.6598C30.0513 38.2166 29.8931 37.9673 29.7612 37.6904C28.337 34.0897 26.9128 30.5167 25.4886 26.9161C24.038 23.26 22.5874 19.604 21.1632 15.9479C20.9259 15.3109 20.6094 14.9231 19.8709 14.9231C17.0225 14.9231 14.1477 14.8677 11.2993 14.8677C10.8773 14.7846 10.5344 14.9785 10.2179 15.0893ZM73.3314 31.2923C73.3314 30.129 73.3314 29.2981 73.3314 28.4671C73.3314 27.5254 73.0413 27.3869 72.171 27.5254C70.5621 27.7747 68.9269 27.9132 67.2917 28.0794C66.6324 28.1348 65.973 28.024 65.3137 28.0794C65.0236 28.1071 64.7334 28.384 64.4433 28.5225C64.7334 28.6887 65.0236 28.9103 65.3137 28.9657C65.6302 29.0488 65.973 29.0211 66.2895 28.9657C67.239 28.8272 67.5291 29.3258 67.5027 30.2121C67.4763 30.6829 67.4763 31.1815 67.4763 31.6523C67.4763 36.6379 67.4763 41.6511 67.4763 46.6366C67.4763 47.4675 67.1335 47.8276 66.3423 47.7999C65.8939 47.7722 65.4192 47.7445 64.9708 47.8276C64.7598 47.8553 64.6016 48.1323 64.4169 48.2708C64.6016 48.4093 64.7862 48.6308 64.9972 48.7139C65.2082 48.797 65.4455 48.7416 65.6829 48.7416C68.6104 48.7416 71.538 48.7416 74.4655 48.6862C74.993 48.6862 75.6787 49.1017 75.9952 48.2154C75.5205 48.0769 75.0458 47.8553 74.5446 47.7999C73.8853 47.7168 73.2787 47.6891 73.2787 46.7474C73.2787 43.2021 73.1996 39.6569 73.3051 36.1116C73.4105 32.8433 74.4128 30.0182 77.6041 28.6333C79.0019 28.024 80.3997 28.7995 80.6635 30.3506C80.7426 30.8214 80.769 31.32 80.769 31.7908C80.769 35.9731 80.769 40.1277 80.769 44.31C80.769 45.1687 80.769 46.0273 80.769 46.8859C80.769 47.5229 80.5052 47.8553 79.8459 47.7999C79.3447 47.7722 78.8436 47.7168 78.3689 47.7999C78.1052 47.8276 77.8678 48.1046 77.6304 48.2708C77.8942 48.437 78.1315 48.6031 78.3953 48.7416C78.4744 48.797 78.5799 48.7416 78.6854 48.7416C81.8503 48.7416 84.9888 48.7416 88.1537 48.7416C88.3911 48.7416 88.6285 48.7693 88.8395 48.6862C89.0241 48.6031 89.1823 48.3816 89.2351 48.2154C89.2615 48.1323 88.9977 47.883 88.8395 47.8553C88.4438 47.7999 88.0482 47.7999 87.6526 47.8276C86.835 47.883 86.413 47.5506 86.4658 46.6366C86.5185 45.6395 86.4922 44.6424 86.4922 43.6453C86.4922 40.0169 86.5449 36.4163 86.4658 32.7879C86.4394 30.8214 85.7009 29.0488 84.0657 27.9409C80.9272 25.7528 76.47 26.7499 74.3073 30.0736C74.0963 30.4336 73.7798 30.7383 73.3314 31.2923ZM87.9955 37.995C87.9691 44.1716 92.9011 49.3787 98.9144 49.2679C104.717 49.1571 109.701 44.6424 109.781 38.0227C109.86 31.7354 105.007 26.7222 98.8617 26.6668C92.9275 26.6114 88.0219 31.7077 87.9955 37.995ZM122.915 46.2212C122.862 46.1381 122.809 46.055 122.757 45.9719C122.493 46.0827 122.203 46.1381 121.992 46.3043C121.623 46.5258 121.306 46.8582 120.963 47.1075C119.434 48.1323 118.194 47.6337 117.772 45.778C117.614 45.0579 117.64 44.2823 117.614 43.5345C117.587 38.909 117.587 34.3113 117.587 29.6858C117.587 28.7441 117.983 28.3563 118.853 28.4117C119.645 28.4671 120.436 28.4948 121.227 28.4394C121.517 28.4117 121.781 28.1348 122.045 27.9686C121.754 27.8301 121.464 27.5808 121.174 27.5808C120.357 27.5254 119.539 27.5531 118.721 27.5808C117.957 27.6085 117.587 27.3592 117.614 26.4729C117.666 24.2294 117.64 22.0136 117.666 19.7702C117.666 19.1608 117.719 18.5238 117.693 17.9144C117.693 17.7205 117.508 17.5267 117.376 17.3328C117.218 17.499 117.007 17.6651 116.902 17.859C116.823 17.9975 116.875 18.1914 116.849 18.3576C116.163 22.7338 113.789 25.6974 109.886 27.3869C109.57 27.5254 109.332 27.8301 109.068 28.0794C109.411 28.1902 109.754 28.384 110.097 28.384C111.31 28.3286 111.469 28.4394 111.469 29.7412C111.469 32.1232 111.469 34.5052 111.469 36.8594C111.469 39.2968 111.442 41.7619 111.548 44.1993C111.653 46.6643 112.866 48.3539 114.818 48.8247C117.614 49.5172 120.172 49.0186 122.361 46.9967C122.598 46.7751 122.73 46.4704 122.915 46.2212ZM137.421 28.2179C137.421 28.0794 137.421 27.9686 137.421 27.8301C137.236 27.747 137.052 27.5808 136.841 27.5808C135.917 27.5531 134.994 27.5531 134.071 27.5531C132.858 27.5531 132.726 27.3869 132.753 26.1129C132.832 23.4262 132.858 20.7396 132.884 18.0529C132.884 17.8036 132.621 17.5267 132.462 17.2774C132.331 17.499 132.12 17.6928 132.093 17.9144C131.487 22.5676 129.113 25.7251 124.919 27.3869C124.682 27.4977 124.497 27.8024 124.313 28.024C124.603 28.1348 124.893 28.3286 125.183 28.3009C126.581 28.2733 126.713 28.384 126.713 29.8243C126.713 34.2559 126.713 38.7152 126.713 43.1468C126.713 47.1906 128.585 49.1017 132.436 49.0186C134.546 48.9632 136.445 48.2431 137.896 46.5812C138.027 46.415 138.027 46.1381 138.107 45.8888C137.896 45.9442 137.632 45.9442 137.447 46.055C136.893 46.4427 136.419 46.9136 135.865 47.246C134.836 47.8553 133.834 47.5783 133.28 46.4704C132.99 45.9165 132.805 45.2241 132.779 44.587C132.726 42.8698 132.779 41.1525 132.779 39.4353C132.779 36.167 132.779 32.8987 132.779 29.6027C132.779 28.7164 133.069 28.2456 133.992 28.3286C134.704 28.384 135.443 28.3563 136.155 28.3286C136.577 28.384 136.999 28.3009 137.421 28.2179ZM59.7487 37.635C59.7751 34.616 59.7751 31.5692 59.7751 28.5502C59.7751 27.4423 59.5377 27.2761 58.5355 27.5531C57.7443 27.7747 56.9267 27.9686 56.1354 28.024C54.6849 28.1071 53.2606 27.9963 51.8101 28.0517C51.4936 28.0517 51.1771 28.3286 50.8606 28.4948C51.1771 28.661 51.4672 28.9103 51.7837 28.9934C52.1002 29.0765 52.443 29.0488 52.7595 28.9934C53.6563 28.8549 53.9991 29.2427 53.9991 30.2121C53.9728 35.7239 53.9728 41.2356 53.9728 46.7197C53.9728 47.5506 53.6035 47.8276 52.8914 47.8276C52.3376 47.8276 51.7837 47.7999 51.2298 47.8553C51.0716 47.883 50.9133 48.1046 50.7551 48.2708C50.887 48.437 50.9925 48.6585 51.1771 48.7416C51.3353 48.8247 51.5727 48.797 51.7573 48.7693C54.8695 48.7693 57.9816 48.7693 61.1202 48.7139C61.6213 48.7139 62.096 48.437 62.5707 48.2708C62.307 47.4398 61.6477 47.8276 61.1465 47.8276C59.9333 47.7999 59.7751 47.6614 59.7751 46.415C59.7487 43.4791 59.7487 40.5709 59.7487 37.635ZM149.131 37.5242H149.157C149.157 34.4498 149.157 31.4031 149.157 28.3286C149.157 27.6085 148.92 27.3592 148.208 27.4423C146.309 27.6916 144.384 27.8578 142.458 28.024C141.904 28.0794 141.351 27.9686 140.797 28.024C140.586 28.0517 140.401 28.3009 140.216 28.4394C140.401 28.6056 140.559 28.8826 140.744 28.9103C141.192 28.9934 141.667 29.0211 142.115 28.938C143.118 28.7995 143.381 29.2981 143.381 30.2398C143.355 35.7515 143.355 41.2633 143.381 46.7474C143.381 47.4675 143.118 47.7722 142.458 47.7722C141.878 47.7722 141.271 47.7445 140.691 47.7999C140.507 47.8276 140.348 48.1323 140.164 48.2985C140.322 48.437 140.48 48.6308 140.665 48.7139C140.876 48.797 141.113 48.7416 141.351 48.7416C144.436 48.7416 147.522 48.7416 150.608 48.7139C151.056 48.7139 151.742 49.074 151.821 48.1877C151.821 48.0769 151.056 47.8276 150.634 47.7999C149.289 47.7445 149.157 47.6337 149.157 46.2489C149.131 43.3683 149.131 40.4324 149.131 37.5242ZM53.9991 17.5267C53.9991 19.2993 55.2123 20.5734 56.9003 20.5734C58.4827 20.5734 59.6696 19.2439 59.6432 17.4713C59.6168 15.8925 58.2454 14.4246 56.7948 14.563C55.2651 14.7569 54.0255 15.5878 53.9991 17.5267ZM149.025 17.6928C149.025 15.9756 147.839 14.5907 146.362 14.5907C144.595 14.5907 143.408 15.8094 143.408 17.6098C143.408 19.327 144.647 20.6011 146.309 20.5734C147.865 20.5734 149.025 19.327 149.025 17.6928Z" fill="#1A130D"/>
<path d="M-5 64.8061C53.0233 64.8061 111.047 64.8061 169.228 64.8061C169.228 42.5097 169.228 20.2687 169.228 -2C169.281 -1.69533 169.413 -1.39066 169.413 -1.05829C169.413 16.0587 169.413 33.2034 169.413 50.3204C169.413 55.2228 169.413 60.0976 169.413 65C111.574 65 53.7354 65 -4.10328 65C-4.41977 65 -4.70988 64.8615 -5 64.8061Z" fill="#FFF3E0"/>
<path d="M10.2188 15.0898C10.5616 14.979 10.9045 14.7852 11.2474 14.7852C14.0958 14.7852 16.9706 14.8406 19.819 14.8406C20.5311 14.8406 20.8476 15.2283 21.1113 15.8654C22.5355 19.5214 24.0125 23.1775 25.4367 26.8335C26.8609 30.4342 28.2851 34.0348 29.7093 37.6078C29.8148 37.8848 29.9994 38.1341 30.2632 38.5772C30.5005 38.0787 30.7115 37.7463 30.8434 37.4139C32.5577 32.7608 34.2457 28.0799 35.9336 23.4267C36.8567 20.8786 37.8062 18.3581 38.7029 15.81C38.9403 15.1729 39.2831 14.8682 39.9161 14.8406C42.7645 14.8129 45.6393 14.7852 48.4878 14.7852C48.7515 14.7852 49.0152 15.1175 49.3053 15.3114C49.0416 15.4499 48.7779 15.6715 48.4878 15.6715C47.9075 15.7269 47.3009 15.6438 46.7207 15.6438C46.0086 15.6438 45.6657 15.9761 45.6657 16.7794C45.6921 25.6702 45.6921 34.5611 45.6921 43.452C45.6921 44.5322 45.7185 45.5847 45.6657 46.6649C45.6393 47.4681 45.9031 47.8282 46.6943 47.8005C47.3273 47.7728 47.9603 47.7728 48.5669 47.8281C48.857 47.8558 49.1207 48.1328 49.3845 48.2713C49.0944 48.4375 48.8042 48.7145 48.5141 48.7145C45.9558 48.7145 43.3975 48.6314 40.8128 48.6037C39.3359 48.6037 37.8589 48.6591 36.382 48.7145C36.1182 48.7145 35.8545 48.7422 35.5908 48.6591C35.4061 48.6037 35.2479 48.4098 35.0896 48.2713C35.2743 48.1051 35.4325 47.8005 35.6171 47.8005C36.382 47.7451 37.1205 47.7728 37.8853 47.8005C38.7557 47.8559 39.0985 47.5235 39.0722 46.5264C39.0194 38.1618 39.0458 29.7694 39.0458 21.4048C39.0458 20.4631 39.0458 19.4937 39.0458 18.1919C38.7029 18.6905 38.4392 18.9398 38.3337 19.2167C35.4853 26.8889 32.6368 34.5334 29.8148 42.2056C29.2346 43.812 28.6543 45.4185 28.0741 47.0249C27.9686 47.3019 27.8631 47.6066 27.7049 47.8558C27.5202 48.1051 27.2301 48.5206 27.0455 48.4652C26.7554 48.4098 26.4125 48.0774 26.2807 47.8005C25.8587 46.8587 25.5158 45.8893 25.1729 44.9199C23.2476 39.6574 21.3223 34.3672 19.397 29.1047C18.1574 25.7256 16.9442 22.3465 15.7046 18.9675C15.6518 18.829 15.52 18.7182 15.2562 18.3581C15.1244 18.8844 14.9925 19.189 14.9925 19.4937C15.0189 27.4983 15.0452 35.4751 15.098 43.4797C15.1244 46.3602 15.4936 46.8864 18.1046 47.662C18.3156 47.7174 18.4475 47.9943 18.6321 48.1605C18.4475 48.299 18.2365 48.576 18.0519 48.576C17.0761 48.6037 16.0738 48.5483 15.098 48.5483C13.7265 48.5483 12.3287 48.6314 10.9572 48.6037C10.6935 48.6037 10.4561 48.299 10.1924 48.1328C10.4298 47.9666 10.6407 47.6343 10.8781 47.6343C13.1463 47.4127 14.1749 46.2494 14.1749 43.7843C14.1749 38.8819 14.1749 34.0072 14.1749 29.1047C14.1749 25.0055 14.1749 20.9063 14.2276 16.8071C14.254 15.8377 13.8584 15.5884 13.0935 15.5884C12.5133 15.5884 11.9067 15.6161 11.3265 15.5884C10.9572 15.5607 10.588 15.4776 10.2188 15.4222C10.2451 15.3668 10.2188 15.2283 10.2188 15.0898Z" fill="#FFF3E0"/>
<path d="M73.3305 31.2923C73.7789 30.7384 74.0953 30.406 74.3327 30.0459C76.4954 26.7499 80.9526 25.7528 84.0912 27.9132C85.7264 29.0488 86.4385 30.7938 86.4912 32.7603C86.5704 36.3886 86.5176 39.9893 86.5176 43.6177C86.5176 44.6148 86.5176 45.6119 86.4912 46.609C86.4649 47.523 86.8605 47.8554 87.6781 47.8C88.0737 47.7723 88.4693 47.7723 88.8649 47.8277C89.0232 47.8554 89.2605 48.1046 89.2605 48.1877C89.2078 48.3816 89.0495 48.6032 88.8649 48.6586C88.6803 48.7417 88.4165 48.714 88.1792 48.714C85.0143 48.714 81.8757 48.714 78.7108 48.714C78.6053 48.714 78.4998 48.7694 78.4207 48.714C78.157 48.5755 77.9196 48.4093 77.6559 48.2431C77.8932 48.0769 78.1306 47.8277 78.3944 47.7723C78.8691 47.6892 79.3702 47.7446 79.8713 47.7723C80.5043 47.8 80.768 47.4953 80.7944 46.8582C80.7944 45.9996 80.7944 45.141 80.7944 44.2824C80.7944 40.1001 80.7944 35.9455 80.7944 31.7632C80.7944 31.2923 80.768 30.7938 80.6889 30.3229C80.4252 28.7718 79.0273 27.9963 77.6295 28.6057C74.4382 29.9905 73.436 32.8157 73.3305 36.084C73.225 39.6292 73.3041 43.1745 73.3041 46.7198C73.3041 47.6615 73.9107 47.6892 74.5701 47.7723C75.0712 47.8277 75.5459 48.0492 76.0207 48.1877C75.7306 49.0463 75.0184 48.6309 74.491 48.6586C71.5634 48.714 68.6359 48.6863 65.7084 48.714C65.471 48.714 65.2336 48.7694 65.0226 48.6863C64.8116 48.6032 64.627 48.4093 64.4424 48.2431C64.627 48.0769 64.8116 47.8277 64.9962 47.8C65.4446 47.7169 65.9193 47.7723 66.3677 47.7723C67.1589 47.8 67.5018 47.4399 67.5018 46.609C67.4754 41.6234 67.5018 36.6102 67.5018 31.6247C67.5018 31.1538 67.5018 30.6553 67.5282 30.1844C67.5545 29.2981 67.2644 28.7995 66.315 28.938C65.9985 28.9934 65.6556 29.0211 65.3391 28.938C65.0226 28.8549 64.7589 28.6334 64.4688 28.4949C64.7589 28.3287 65.0226 28.0794 65.3391 28.0517C65.9985 27.9963 66.6578 28.1071 67.3172 28.0517C68.9524 27.9132 70.5612 27.747 72.1964 27.4978C73.0668 27.3593 73.3569 27.4978 73.3569 28.4395C73.3569 29.2981 73.3305 30.129 73.3305 31.2923Z" fill="#FFF3E0"/>
<path d="M87.9952 37.9957C88.0216 31.7084 92.9272 26.612 98.8614 26.6674C105.007 26.7228 109.859 31.7361 109.78 38.0234C109.701 44.643 104.716 49.1577 98.9141 49.2685C92.9008 49.3793 87.9688 44.1445 87.9952 37.9957ZM103.187 38.1065C103.187 36.1399 103.319 34.1734 103.134 32.2346C103.029 31.1267 102.659 29.908 102 29.0494C100.839 27.4984 99.0988 27.2214 97.3581 27.8861C95.5119 28.5786 94.6415 30.1573 94.6152 32.1238C94.5624 36.0015 94.536 39.9068 94.6152 43.7844C94.6679 46.4988 96.5932 48.4653 98.9669 48.4099C101.472 48.3545 103.213 46.2772 103.187 43.4521C103.16 41.6794 103.187 39.8791 103.187 38.1065Z" fill="#FFF3E0"/>
<path d="M122.914 46.2208C122.729 46.47 122.597 46.7747 122.36 46.9686C120.145 48.9905 117.586 49.4891 114.817 48.7966C112.865 48.2981 111.652 46.6362 111.547 44.1712C111.441 41.7338 111.494 39.2687 111.467 36.8314C111.467 34.4494 111.467 32.0674 111.467 29.7131C111.467 28.4113 111.283 28.3006 110.096 28.3559C109.753 28.3836 109.41 28.1621 109.067 28.0513C109.331 27.8297 109.568 27.4973 109.885 27.3588C113.762 25.6693 116.136 22.7334 116.848 18.3295C116.874 18.1633 116.821 17.9417 116.901 17.8309C117.032 17.6371 117.217 17.4709 117.375 17.3047C117.481 17.4986 117.665 17.6925 117.692 17.8863C117.718 18.4957 117.665 19.1327 117.665 19.7421C117.639 21.9855 117.665 24.229 117.613 26.4448C117.586 27.3311 117.955 27.6081 118.72 27.5527C119.538 27.525 120.356 27.4973 121.173 27.5527C121.463 27.5804 121.753 27.802 122.044 27.9405C121.78 28.1067 121.49 28.3836 121.226 28.4113C120.435 28.4667 119.643 28.439 118.852 28.3836C117.982 28.3283 117.586 28.716 117.586 29.6577C117.613 34.2832 117.613 38.881 117.613 43.5064C117.613 44.2543 117.613 45.0298 117.771 45.7499C118.193 47.6333 119.406 48.1319 120.962 47.0794C121.331 46.8301 121.622 46.5254 121.991 46.2762C122.228 46.1377 122.518 46.0546 122.756 45.9438C122.808 46.0546 122.861 46.1377 122.914 46.2208Z" fill="#FFF3E0"/>
<path d="M137.42 28.2177C136.998 28.2731 136.576 28.3839 136.154 28.4116C135.441 28.4393 134.703 28.467 133.991 28.4116C133.068 28.3285 132.778 28.7994 132.778 29.6857C132.804 32.954 132.804 36.2223 132.778 39.5183C132.778 41.2355 132.725 42.9527 132.778 44.67C132.804 45.307 132.989 45.9718 133.279 46.5534C133.833 47.6613 134.835 47.9383 135.863 47.3289C136.417 46.9966 136.892 46.498 137.446 46.1379C137.63 46.0272 137.894 46.0272 138.105 45.9718C138.052 46.1933 138.052 46.498 137.894 46.6642C136.417 48.326 134.545 49.0462 132.435 49.1016C128.584 49.1847 126.712 47.2735 126.712 43.2297C126.685 38.7981 126.712 34.3389 126.712 29.9073C126.712 28.467 126.58 28.3562 125.182 28.3839C124.892 28.3839 124.602 28.19 124.312 28.1069C124.523 27.8854 124.681 27.5807 124.918 27.4699C129.112 25.8081 131.512 22.6506 132.092 17.9974C132.118 17.7758 132.329 17.5819 132.461 17.3604C132.619 17.6096 132.883 17.8866 132.883 18.1359C132.883 20.8225 132.83 23.5092 132.751 26.1958C132.725 27.4422 132.857 27.6361 134.07 27.6361C134.993 27.6361 135.916 27.6361 136.839 27.6638C137.024 27.6638 137.235 27.83 137.42 27.9131C137.42 27.9685 137.42 28.1069 137.42 28.2177Z" fill="#FFF3E0"/>
<path d="M59.7495 37.6348C59.7495 40.5707 59.7495 43.4789 59.7495 46.4149C59.7495 47.6612 59.9077 47.7997 61.1209 47.8274C61.622 47.8274 62.2814 47.4674 62.5451 48.2706C62.0704 48.4368 61.5693 48.7137 61.0946 48.7137C57.9824 48.7691 54.8702 48.7414 51.7317 48.7691C51.5471 48.7691 51.3097 48.8245 51.1515 48.7414C50.9669 48.6583 50.8614 48.4368 50.7295 48.2706C50.8877 48.1321 51.046 47.8828 51.2042 47.8551C51.7581 47.7997 52.3119 47.8274 52.8658 47.8274C53.5779 47.8274 53.9471 47.5228 53.9471 46.7195C53.9208 41.2077 53.9471 35.696 53.9735 30.2119C53.9735 29.2702 53.657 28.8824 52.7339 28.9932C52.4174 29.0486 52.0482 29.0763 51.7581 28.9932C51.4152 28.9101 51.1251 28.6608 50.835 28.4946C51.1515 28.3562 51.468 28.0792 51.7845 28.0515C53.235 27.9961 54.6592 28.1069 56.1098 28.0238C56.9274 27.9961 57.7187 27.7745 58.5099 27.5529C59.5121 27.3037 59.7495 27.4421 59.7495 28.55C59.7758 31.5691 59.7758 34.6158 59.7495 37.6348Z" fill="#FFF3E0"/>
<path d="M149.131 37.5242C149.131 40.4601 149.131 43.3683 149.131 46.3043C149.131 47.6614 149.263 47.7999 150.608 47.8553C151.03 47.883 151.821 48.1323 151.795 48.2431C151.716 49.1017 151.03 48.7416 150.582 48.7693C147.496 48.797 144.41 48.797 141.325 48.797C141.087 48.797 140.85 48.8524 140.639 48.7693C140.454 48.7139 140.296 48.4924 140.138 48.3539C140.322 48.1877 140.481 47.883 140.665 47.8553C141.245 47.7999 141.852 47.8276 142.432 47.8276C143.092 47.8276 143.355 47.523 143.355 46.8028C143.329 41.291 143.329 35.7793 143.355 30.2952C143.355 29.3535 143.092 28.8549 142.089 28.9934C141.641 29.0488 141.166 29.0488 140.718 28.9657C140.533 28.938 140.375 28.661 140.19 28.4948C140.375 28.3564 140.56 28.1071 140.771 28.0794C141.325 28.024 141.878 28.1071 142.432 28.0794C144.358 27.9132 146.257 27.747 148.182 27.4977C148.894 27.4146 149.131 27.6639 149.131 28.3841C149.131 31.4585 149.131 34.5052 149.131 37.5796C149.158 37.5242 149.131 37.5242 149.131 37.5242Z" fill="#FFF3E0"/>
<path d="M53.999 17.5267C54.0254 15.5879 55.265 14.7293 56.7947 14.5908C58.2716 14.4246 59.6167 15.9203 59.6431 17.499C59.6695 19.244 58.4826 20.6011 56.9002 20.6011C55.2122 20.6011 53.999 19.327 53.999 17.5267Z" fill="#FFF3E0"/>
<path d="M149.026 17.6929C149.026 19.3271 147.865 20.5735 146.283 20.5735C144.648 20.6012 143.382 19.2994 143.382 17.6098C143.382 15.8095 144.569 14.5908 146.336 14.5908C147.839 14.6185 149 15.9757 149.026 17.6929Z" fill="#FFF3E0"/>
<path d="M103.187 38.1064C103.187 39.9067 103.187 41.6793 103.187 43.4797C103.213 46.3048 101.446 48.3544 98.9671 48.4375C96.5934 48.4929 94.6681 46.5264 94.6154 43.812C94.5362 39.9344 94.5626 36.0291 94.6154 32.1514C94.6417 30.1572 95.5121 28.6062 97.3583 27.9137C99.1254 27.249 100.84 27.526 102 29.077C102.633 29.9356 103.029 31.1543 103.134 32.2622C103.292 34.1733 103.187 36.1398 103.187 38.1064Z" fill="#1A130D"/>
</svg>
