<svg width="176" height="61" viewBox="0 0 176 61" fill="none" xmlns="http://www.w3.org/2000/svg">
<g clip-path="url(#clip0_608_4102)">
<path d="M144.352 61.1018C96.2417 61.1018 48.1107 61.1018 0 61.1018C0 40.7346 0 20.3673 0 0C48.1107 0 96.2417 0 144.352 0C144.352 20.3673 144.352 40.7346 144.352 61.1018ZM50.7294 34.6855C52.5158 34.6855 54.0992 34.6855 55.9262 34.6855C55.1548 34.1356 54.5661 33.8504 54.1601 33.4023C53.3075 32.4451 52.5564 31.4063 51.785 30.388C50.567 28.779 50.5264 28.6771 52.2316 27.7199C53.6729 26.9255 53.7541 24.013 52.4346 22.8928C51.4196 22.0374 50.2422 21.7115 48.9633 21.7115C46.8115 21.7115 44.6597 21.7115 42.4877 21.7115C42.2644 21.7115 42.0614 21.793 41.5539 21.8948C42.0411 22.2207 42.2644 22.4651 42.5486 22.5466C43.3403 22.7706 43.6042 23.2798 43.6042 24.0945C43.5636 26.9866 43.5636 29.8584 43.5839 32.7506C43.5839 33.4431 43.2997 33.8097 42.6907 34.0337C42.3862 34.1559 42.1223 34.3596 41.6148 34.6651C42.0817 34.8077 42.2441 34.8892 42.4268 34.8892C43.9898 34.8892 45.5326 34.8892 47.0957 34.8484C47.319 34.8484 47.5423 34.6855 47.7656 34.5836C47.5829 34.4003 47.4408 34.1559 47.2378 34.0745C46.4664 33.7486 46.1822 33.1987 46.2228 32.3636C46.2837 31.4878 46.2228 30.612 46.2228 29.7566C46.2228 29.0641 46.6085 28.7993 47.2175 29.003C47.5626 29.1048 47.9483 29.3289 48.1716 29.614C49.0648 30.775 49.8768 31.997 50.7903 33.1376C51.176 33.6264 51.3993 34.0541 50.7294 34.6855ZM108.32 34.6855C109.741 34.6855 111.081 34.6855 112.4 34.6855C112.421 34.604 112.441 34.5225 112.461 34.4614C112.279 34.3189 112.137 34.1356 111.934 34.0745C111.182 33.8504 110.939 33.3616 110.959 32.5876C111 30.6324 110.959 28.6771 110.959 26.7219C110.959 26.1516 110.959 25.5813 110.959 24.8277C111.345 25.0721 111.548 25.174 111.67 25.3165C112.949 26.6608 114.227 28.005 115.486 29.3493C117.191 31.1619 118.876 32.9746 120.602 34.7873C120.764 34.9503 121.109 35.1132 121.272 35.0521C121.454 34.991 121.556 34.6447 121.637 34.4207C121.698 34.2374 121.637 34.0134 121.637 33.7893C121.637 30.5306 121.657 27.2922 121.637 24.0334C121.637 23.3002 121.779 22.7503 122.632 22.6077C122.936 22.5466 123.18 22.2411 123.464 22.0578C123.444 21.9967 123.403 21.9152 123.383 21.8541C122.023 21.8541 120.642 21.8541 119.282 21.8541C119.262 21.9356 119.242 22.0374 119.221 22.1189C119.526 22.3022 119.891 22.4651 120.155 22.7095C120.419 22.9539 120.744 23.2798 120.764 23.5853C120.845 25.6017 120.866 27.618 120.886 29.6344C120.886 29.8177 120.764 30.0825 120.622 30.1436C120.5 30.2047 120.216 30.0621 120.094 29.9399C119.16 28.9826 118.247 27.9846 117.313 27.007C115.831 25.4184 114.349 23.789 112.827 22.2207C112.603 21.9763 112.218 21.8134 111.893 21.793C110.939 21.7319 109.985 21.7523 109.031 21.7523C108.828 21.7523 108.625 21.8948 108.239 22.0374C108.625 22.3836 108.929 22.5669 109.112 22.8521C109.437 23.3205 109.924 23.8501 109.944 24.3593C110.025 26.7626 109.904 29.1659 109.964 31.5693C110.005 32.8728 109.944 33.9726 108.442 34.38C108.401 34.3392 108.401 34.4411 108.32 34.6855ZM23.8727 25.7646C24.2178 25.011 23.893 22.5262 23.4667 22.1392C23.3043 21.9967 23.0607 21.8948 22.8374 21.8337C20.7465 21.2023 18.6353 21.1209 16.5444 21.6708C13.134 22.5873 11.1446 24.4611 11.0025 27.9439C10.9213 30.1028 11.6115 32.0377 13.337 33.3616C16.5444 35.826 20.036 35.7038 23.6291 34.2374C24.2178 33.993 24.502 33.5653 24.502 32.9135C24.4817 32.0988 24.4817 31.2841 24.502 30.4695C24.5223 29.8584 24.6847 29.3696 25.3952 29.2067C25.6388 29.1456 25.8012 28.8604 26.0042 28.6771C25.72 28.5549 25.4561 28.3513 25.1719 28.3513C23.6088 28.3309 22.066 28.3716 20.5029 28.392C20.2999 28.392 20.0969 28.4531 19.7315 28.5142C19.9751 28.7382 20.0563 28.8604 20.1578 28.8808C22.0457 29.2474 22.2081 30.612 22.0457 32.1803C22.0051 32.4858 22.0863 32.7913 22.0051 33.0765C21.9239 33.382 21.7818 33.7893 21.5585 33.9115C19.8939 34.7466 17.0316 34.6447 15.8136 32.9339C14.3723 30.8972 14.0881 28.6364 14.5753 26.2942C14.9813 24.2982 16.3414 22.1596 19.0413 22.2818C20.645 22.3633 21.8833 23.0965 22.8577 24.3389C23.1825 24.7259 23.4667 25.2147 23.8727 25.7646ZM99.7942 21.4467C95.714 21.4671 92.06 24.1963 92.2021 28.616C92.3239 32.3229 94.9629 34.9503 98.5153 35.1336C102.981 35.378 106.554 32.1192 106.554 28.1679C106.574 24.4204 103.631 21.4875 99.7942 21.4467ZM36.3977 26.6404C36.3165 26.5997 36.2556 26.5793 36.1744 26.5386C35.9308 26.8237 35.6466 27.0681 35.4842 27.3736C35.1797 27.9439 34.7534 28.2087 34.1038 28.1272C33.7587 28.0865 33.3933 28.1068 33.0279 28.1272C32.4189 28.1679 32.155 27.9439 32.1753 27.2922C32.2159 26.4775 32.155 25.6628 32.1753 24.8481C32.2159 22.3429 31.749 22.4244 34.4083 22.4651C34.4692 22.4651 34.5301 22.4651 34.591 22.4651C36.0323 22.3225 37.0676 22.9132 37.7375 24.2167C37.8999 24.5222 38.1841 24.7666 38.4074 25.0314C38.5089 24.9907 38.6104 24.9499 38.7119 24.8888C38.651 24.2778 38.5495 23.6871 38.5292 23.0761C38.448 21.7726 38.448 21.7523 37.2097 21.7319C34.3271 21.7115 31.4648 21.6912 28.5822 21.6912C28.3183 21.6912 28.0544 21.8134 27.8108 21.8745C27.7905 21.9559 27.7905 22.0578 27.7702 22.1392C28.1965 22.3633 28.6634 22.5466 29.0491 22.8317C29.2927 23.015 29.6175 23.3205 29.6175 23.5649C29.6581 26.4775 29.6175 29.4104 29.6581 32.3229C29.6784 33.2394 29.1709 33.6671 28.4604 33.993C28.1965 34.1152 27.9529 34.2781 27.689 34.4207C27.9529 34.7058 28.1559 34.8077 28.3792 34.8077C31.8302 34.8077 35.2609 34.8077 38.7119 34.7873C38.9352 34.7873 39.1991 34.7058 39.3412 34.5633C39.6863 34.1967 39.5645 32.1396 39.1382 31.6304C38.9352 32.1396 38.8134 32.6488 38.5292 33.0154C38.2044 33.4227 37.7375 33.9726 37.2909 34.0134C35.809 34.1356 34.3068 34.0948 32.8046 34.0541C32.5813 34.0541 32.1956 33.7078 32.1956 33.5042C32.155 32.1803 32.1753 30.8564 32.2159 29.5326C32.2159 29.3085 32.4189 29.003 32.6016 28.9215C33.5151 28.5549 34.9767 29.0234 35.5857 29.8381C35.7684 30.0825 35.8699 30.3676 36.012 30.6324C36.1338 30.5509 36.2759 30.4694 36.3977 30.388C36.3977 29.1456 36.3977 27.9032 36.3977 26.6404ZM81.5852 31.2027C81.4634 31.2434 81.3619 31.2841 81.2401 31.3249C81.3213 32.0377 81.4634 32.7506 81.504 33.4838C81.5243 34.1763 81.8897 34.5429 82.4784 34.7058C84.143 35.1336 85.7873 35.4391 87.4925 34.8077C89.2383 34.1559 91.1668 32.1192 89.6849 29.7566C89.1368 28.8808 88.203 28.229 87.3707 27.5773C86.2948 26.7422 85.0768 26.0498 84.0212 25.174C83.6355 24.8481 83.2904 24.0741 83.4122 23.6464C83.6355 22.9336 84.2039 22.3633 85.158 22.3633C86.3963 22.3633 87.2489 22.9947 87.9188 23.9112C88.3045 24.4204 88.5887 24.9703 88.9947 25.622C89.3804 24.8888 89.1571 22.7503 88.7714 22.3836C88.6699 22.2818 88.5481 22.18 88.406 22.1189C86.8023 21.5078 85.158 21.182 83.4731 21.7115C82.1739 22.1189 81.1589 22.8928 80.9559 24.3593C80.7326 25.8257 81.1995 27.0477 82.4175 27.9032C84.0009 29.0234 85.6249 30.1028 87.2286 31.2027C88.0203 31.7526 87.9797 32.8524 87.2692 33.5042C85.8076 34.8688 83.4934 34.3392 82.4378 32.5673C82.1739 32.0988 81.8694 31.6508 81.5852 31.2027ZM79.8192 34.7058C79.2305 34.0745 78.5606 33.6467 78.2561 33.0357C77.2614 30.999 76.3682 28.9012 75.4547 26.8237C74.8051 25.3369 74.2367 23.8093 73.5668 22.3429C73.4247 22.017 73.0999 21.793 72.836 21.5078C72.5518 21.7726 72.2676 22.0374 72.0037 22.3225C71.8007 22.5669 71.5977 22.8521 71.4962 23.1576C70.4609 25.785 69.5474 28.4531 68.4106 31.0397C67.8625 32.2821 67.6392 33.8504 66.1167 34.4614C66.0964 34.4614 66.0964 34.5633 66.0964 34.7466C67.2535 34.7466 68.4106 34.7466 69.7301 34.7466C69.5271 34.4818 69.4865 34.3392 69.385 34.2985C68.2888 33.6875 68.2888 33.7078 68.7557 32.5469C68.8775 32.2414 68.8978 31.8544 69.1211 31.6304C69.385 31.3452 69.7707 31.0194 70.1361 30.9786C70.9887 30.8972 71.8616 30.9583 72.7345 30.9583C74.5006 30.9379 74.1961 30.7139 74.9269 32.4247C75.4344 33.6264 75.4344 33.6264 74.3585 34.3392C74.2976 34.38 74.2773 34.4818 74.1555 34.7262C76.1246 34.7058 77.9922 34.7058 79.8192 34.7058ZM64.8378 21.8134C64.8175 21.8745 64.7972 21.9356 64.7769 22.017C64.919 22.1392 65.0611 22.3225 65.2235 22.3836C66.1979 22.6484 66.1979 23.1983 65.8528 24.013C64.8784 26.2942 63.9649 28.5957 63.0108 30.8972C62.9499 31.0601 62.7266 31.2638 62.5845 31.2638C62.4424 31.2434 62.2597 31.0397 62.1988 30.8564C61.265 28.5957 60.3313 26.3145 59.3975 24.0334C58.9306 22.8725 58.9712 22.791 60.108 22.3022C60.2704 22.2411 60.3922 22.0781 60.7373 21.8134C58.4434 21.8134 56.4134 21.8134 54.0992 21.8134C54.4646 22.1392 54.5864 22.3225 54.7488 22.3836C55.8044 22.7503 56.2916 23.626 56.6976 24.5833C58.0983 27.8421 59.499 31.0805 60.92 34.3189C61.0621 34.6244 61.4072 35.0521 61.671 35.0521C61.9349 35.0521 62.341 34.6855 62.4627 34.38C63.5386 31.8137 64.513 29.2067 65.6498 26.6811C66.4009 25.0314 66.4415 22.9132 68.4512 22.017C68.4715 22.017 68.4512 21.9559 68.4715 21.8134C67.2941 21.8134 66.0558 21.8134 64.8378 21.8134ZM125.189 21.8337C125.169 21.9152 125.149 21.9967 125.128 22.0781C125.331 22.2207 125.514 22.4855 125.737 22.5058C127.057 22.7095 127.016 23.6668 127.016 24.6648C126.996 27.0477 126.976 29.4104 127.016 31.7933C127.037 33.382 127.057 33.4023 125.677 34.0541C125.474 34.1559 125.311 34.38 125.128 34.5429C125.352 34.6447 125.575 34.8077 125.798 34.8077C127.382 34.828 128.965 34.828 130.549 34.828C130.833 34.828 131.137 34.7058 131.665 34.5836C131.259 34.2985 131.097 34.1152 130.894 34.0541C129.757 33.7078 129.29 32.995 129.513 31.8137C129.554 31.5489 129.513 31.2638 129.513 30.999C129.513 28.5549 129.534 26.1312 129.534 23.6871C129.534 23.178 129.696 22.8725 130.244 22.7299C130.691 22.6077 131.056 22.3022 131.462 22.0578C131.421 21.9763 131.381 21.8948 131.34 21.8134C129.31 21.8337 127.26 21.8337 125.189 21.8337ZM74.7442 48.3112C75.7389 48.3519 76.5103 47.8427 76.9772 47.0688C77.4441 46.2948 77.3223 45.6227 76.6524 44.971C76.5103 44.8284 76.6524 44.2581 76.7945 43.973C77.2411 43.0564 77.0584 42.1806 76.1855 41.7529C75.7186 41.5289 75.1705 41.3659 74.6427 41.3456C72.836 41.3252 72.1255 42.6083 72.9375 44.2581C73.039 44.4618 72.8969 44.8691 72.7345 45.0728C72.1458 45.7856 72.024 46.6207 72.7142 47.2317C73.2826 47.7205 74.054 48.2705 74.7442 48.3112ZM68.4512 41.0808C68.4106 41.1623 68.3497 41.2234 68.3091 41.3048C66.9084 41.3456 65.731 42.1399 66.0558 43.1583C66.4009 44.2377 66.2588 45.0117 65.9137 46.0097C65.5889 46.9262 66.34 47.6798 67.5783 48.1075C68.4512 48.4334 69.8722 47.9649 70.4 47.2114C70.9278 46.4578 70.8466 45.7245 70.2376 45.0117C70.0955 44.8284 70.0143 44.3803 70.1361 44.2174C70.603 43.5452 70.806 42.8324 70.2579 42.2417C69.7707 41.7326 69.0602 41.4678 68.4512 41.0808ZM80.4484 47.1095C80.4281 47.028 80.3875 46.9466 80.3672 46.8651C80.7732 46.5596 81.1792 46.2948 81.5649 45.9486C81.9506 45.6227 82.3363 45.2765 82.6205 44.8691C83.3919 43.7896 83.2701 42.4658 82.3566 41.814C81.2604 41.0197 79.5552 41.2641 78.8651 42.3639C78.7027 42.6287 78.7433 43.0564 78.7027 43.4027C79.0275 43.2805 79.3726 43.1786 79.6973 43.0361C79.7785 42.9953 79.7988 42.8324 79.88 42.7306C80.4281 42.0177 81.504 42.0584 82.0318 42.7917C82.6611 43.6267 82.0724 44.2785 81.5852 44.7673C80.895 45.4598 80.0221 45.969 79.2914 46.6003C79.0275 46.8244 78.8854 47.2114 78.7027 47.5169C79.0275 47.6594 79.3319 47.9038 79.677 47.9242C80.5499 47.9853 81.4025 47.9649 82.2754 47.9446C82.519 47.9242 82.7626 47.7409 83.0062 47.6391C82.7829 47.4761 82.5596 47.191 82.316 47.1503C81.6867 47.0688 81.0574 47.1095 80.4484 47.1095ZM63.6807 44.6451C63.6604 43.81 63.6807 42.9546 63.6401 42.1195C63.6401 41.9159 63.5183 41.6511 63.3559 41.5289C63.2544 41.4474 62.9702 41.5696 62.8078 41.6715C62.4221 41.9362 62.0567 42.2214 61.7319 42.5269C61.5695 42.6695 61.5086 42.9139 61.3868 43.0972C61.5695 43.1786 61.7522 43.3619 61.8943 43.3416C62.7063 43.199 62.7063 43.6878 62.7063 44.2581C62.686 45.2154 62.6454 46.193 62.686 47.1503C62.7063 47.415 62.9905 47.6594 63.1529 47.9038C63.3153 47.6594 63.6198 47.415 63.6401 47.1706C63.7213 46.3356 63.6807 45.4801 63.6807 44.6451Z" fill="#1A130D"/>
<path d="M144.353 61.1018C144.353 40.7346 144.353 20.3673 144.353 0C144.413 0.264775 144.515 0.549917 144.515 0.814691C144.515 15.3366 144.515 29.8584 144.515 44.3803C144.515 49.7165 144.515 55.0528 144.515 60.389C144.535 60.613 144.413 60.8574 144.353 61.1018Z" fill="#FFF3E0"/>
<path d="M50.729 34.6857C51.3786 34.0543 51.1756 33.6266 50.7697 33.1175C49.8765 31.9565 49.0645 30.7345 48.151 29.5939C47.9277 29.3088 47.542 29.0847 47.1969 28.9829C46.5879 28.7996 46.2022 29.0644 46.2022 29.7365C46.2022 30.6123 46.2631 31.4881 46.2022 32.3435C46.1616 33.1786 46.4458 33.7285 47.2172 34.0543C47.4202 34.1358 47.5826 34.4006 47.745 34.5635C47.5217 34.645 47.2984 34.8283 47.0751 34.8283C45.512 34.869 43.9692 34.869 42.4061 34.869C42.2234 34.869 42.0407 34.7672 41.5941 34.645C42.1016 34.3395 42.3655 34.1358 42.67 34.0136C43.2587 33.7692 43.5632 33.4026 43.5632 32.7305C43.5429 29.8383 43.5429 26.9665 43.5835 24.0744C43.5835 23.2801 43.3399 22.7709 42.5279 22.5265C42.2437 22.445 42.0204 22.2006 41.5332 21.8747C42.0407 21.7729 42.264 21.6914 42.467 21.6914C44.6188 21.6914 46.7706 21.6914 48.9427 21.6914C50.2419 21.6914 51.3989 22.0173 52.4139 22.8727C53.7334 23.9929 53.6522 26.9054 52.2109 27.6998C50.5058 28.657 50.5464 28.7589 51.7643 30.3679C52.5357 31.3862 53.2868 32.425 54.1394 33.3822C54.5454 33.8507 55.1544 34.1358 55.9055 34.6654C54.0988 34.6857 52.5357 34.6857 50.729 34.6857ZM46.2225 25.3575C46.2225 26.0093 46.1819 26.6814 46.2428 27.3331C46.2631 27.5775 46.4661 28.0256 46.6285 28.046C47.6029 28.1478 48.5976 28.3719 49.4705 27.659C50.4246 26.8647 50.7088 25.3168 50.1607 23.9318C49.6938 22.7709 48.76 22.3432 47.1157 22.4654C46.527 22.5061 46.2428 22.7709 46.2428 23.3615C46.2225 24.0336 46.2225 24.7058 46.2225 25.3575Z" fill="#FFF3E0"/>
<path d="M108.32 34.6852C108.402 34.4408 108.402 34.339 108.442 34.3186C109.944 33.9113 110.005 32.8114 109.965 31.5079C109.884 29.1046 110.005 26.7012 109.944 24.2979C109.924 23.7887 109.437 23.2795 109.112 22.7907C108.929 22.526 108.625 22.3223 108.239 21.976C108.625 21.8335 108.828 21.6909 109.031 21.6909C109.985 21.6705 110.939 21.6705 111.893 21.7316C112.218 21.752 112.604 21.9353 112.827 22.1593C114.35 23.7276 115.811 25.357 117.313 26.9457C118.227 27.9233 119.161 28.9213 120.094 29.8785C120.216 30.0007 120.48 30.1433 120.622 30.0822C120.764 30.0211 120.886 29.7563 120.886 29.573C120.866 27.5567 120.866 25.5403 120.764 23.5239C120.744 23.2184 120.419 22.8926 120.155 22.6482C119.891 22.4037 119.546 22.2612 119.221 22.0575C119.242 21.976 119.262 21.8742 119.282 21.7927C120.642 21.7927 122.023 21.7927 123.383 21.7927C123.403 21.8538 123.444 21.9353 123.464 21.9964C123.18 22.1797 122.936 22.4852 122.632 22.5463C121.779 22.6889 121.637 23.2388 121.637 23.972C121.657 27.2308 121.637 30.4692 121.637 33.728C121.637 33.9316 121.678 34.1557 121.637 34.3593C121.576 34.6037 121.454 34.9296 121.272 34.9907C121.109 35.0518 120.764 34.8889 120.602 34.726C118.897 32.9336 117.192 31.1006 115.486 29.2879C114.228 27.9436 112.949 26.579 111.67 25.2552C111.528 25.1126 111.345 25.0311 110.959 24.7664C110.959 25.5199 110.959 26.0902 110.959 26.6605C110.959 28.6158 111 30.571 110.959 32.5263C110.939 33.3002 111.183 33.7891 111.934 34.0131C112.137 34.0742 112.279 34.2779 112.462 34.4001C112.441 34.4815 112.421 34.563 112.401 34.6241C111.081 34.6852 109.741 34.6852 108.32 34.6852Z" fill="#FFF3E0"/>
<path d="M23.8724 25.7649C23.4867 25.215 23.1822 24.7262 22.8371 24.2985C21.8627 23.0561 20.6244 22.3229 19.0207 22.2414C16.3208 22.1192 14.9607 24.2578 14.5547 26.2538C14.0878 28.5756 14.3517 30.8568 15.793 32.8935C17.011 34.6043 19.853 34.7062 21.5379 33.8711C21.7815 33.7489 21.9033 33.3416 21.9845 33.0361C22.0657 32.7509 22.0048 32.4454 22.0251 32.1399C22.1875 30.5716 22.0251 29.2274 20.1372 28.8404C20.0357 28.82 19.9748 28.6978 19.7109 28.4738C20.0763 28.4127 20.2793 28.372 20.4823 28.3516C22.0454 28.3312 23.5882 28.2905 25.1513 28.3109C25.4355 28.3109 25.6994 28.5145 25.9836 28.6367C25.7806 28.82 25.5979 29.1255 25.3746 29.1663C24.6641 29.3292 24.5017 29.818 24.4814 30.4291C24.4611 31.2437 24.4611 32.0584 24.4814 32.8731C24.5017 33.5249 24.2175 33.9526 23.6085 34.197C20.0357 35.6634 16.5238 35.7857 13.3164 33.3212C11.591 31.9973 10.9008 30.0624 10.982 27.9035C11.1241 24.4207 13.1337 22.5469 16.5238 21.6304C18.6147 21.0601 20.7259 21.1416 22.8168 21.7933C23.0401 21.8544 23.2837 21.9563 23.4461 22.0988C23.8927 22.5266 24.2175 25.0114 23.8724 25.7649Z" fill="#FFF3E0"/>
<path d="M99.7944 21.4463C103.631 21.487 106.575 24.4199 106.554 28.1675C106.534 32.1187 102.981 35.3571 98.5155 35.1331C94.963 34.9498 92.3241 32.3224 92.2023 28.6156C92.0602 24.1959 95.7141 21.4667 99.7944 21.4463ZM94.3337 26.3344C93.948 28.4526 96.5464 31.8743 98.1095 32.852C98.8403 33.3 99.6523 33.7889 100.464 33.8703C103.103 34.1351 104.91 31.9965 104.402 29.3692C103.915 26.7825 102.312 24.9698 100.282 23.5034C99.7944 23.1571 99.1448 22.9738 98.5358 22.8516C96.3028 22.4035 93.9886 24.2977 94.3337 26.3344Z" fill="#FFF3E0"/>
<path d="M36.3981 26.6407C36.3981 27.8831 36.3981 29.1458 36.3981 30.3882C36.2763 30.4697 36.1342 30.5512 36.0124 30.6326C35.8703 30.3679 35.7485 30.0827 35.5861 29.8383C34.9771 29.0236 33.5155 28.5552 32.602 28.9218C32.4193 29.0033 32.2163 29.3088 32.2163 29.5328C32.1757 30.8567 32.1554 32.1806 32.196 33.5044C32.196 33.7081 32.5817 34.0543 32.805 34.0543C34.3072 34.0951 35.8094 34.1358 37.2913 34.0136C37.7379 33.9729 38.2048 33.423 38.5296 33.0156C38.8138 32.6286 38.9356 32.1195 39.1386 31.6306C39.5649 32.1398 39.6867 34.1969 39.3416 34.5635C39.1995 34.7061 38.9153 34.7876 38.7123 34.7876C35.2613 34.8079 31.8306 34.8079 28.3797 34.8079C28.1767 34.8079 27.9534 34.7061 27.6895 34.421C27.9534 34.2784 28.197 34.1154 28.4608 33.9932C29.1713 33.6674 29.6788 33.2397 29.6585 32.3231C29.6179 29.4106 29.6585 26.4777 29.6179 23.5652C29.6179 23.3208 29.2931 22.9949 29.0495 22.832C28.6639 22.5468 28.197 22.3635 27.7707 22.1395C27.791 22.058 27.791 21.9562 27.8113 21.8747C28.0752 21.8136 28.3391 21.6914 28.5826 21.6914C31.4652 21.6914 34.3275 21.7118 37.2101 21.7321C38.4484 21.7525 38.4484 21.7525 38.5296 23.0764C38.5702 23.6874 38.6514 24.2781 38.7123 24.8891C38.6108 24.9298 38.5093 24.9705 38.4078 25.0316C38.1845 24.7669 37.9003 24.5225 37.7379 24.2169C37.068 22.9338 36.0327 22.3228 34.5914 22.4654C34.5305 22.4654 34.4696 22.4654 34.4087 22.4654C31.7697 22.4246 32.2163 22.3635 32.1757 24.8483C32.1554 25.663 32.2163 26.4777 32.1757 27.2924C32.1554 27.9442 32.4193 28.1682 33.0283 28.1275C33.3937 28.1071 33.7591 28.0867 34.1042 28.1275C34.7538 28.2089 35.1801 27.9442 35.4846 27.3739C35.647 27.0684 35.9515 26.824 36.1748 26.5388C36.2357 26.5796 36.3169 26.6203 36.3981 26.6407Z" fill="#FFF3E0"/>
<path d="M81.5848 31.2026C81.8893 31.6507 82.1938 32.0987 82.4577 32.5672C83.5336 34.3391 85.8275 34.8687 87.2891 33.5041C87.9996 32.832 88.0402 31.7525 87.2485 31.2026C85.6448 30.0824 84.0411 29.0233 82.4374 27.9031C81.2194 27.0476 80.7525 25.8256 80.9758 24.3592C81.1991 22.8927 82.1938 22.1188 83.493 21.7114C85.1779 21.1819 86.8222 21.5077 88.4259 22.1188C88.568 22.1799 88.6898 22.2817 88.7913 22.3835C89.177 22.7502 89.4003 24.8887 89.0146 25.6219C88.6289 24.9906 88.3244 24.4203 87.9387 23.9111C87.2485 22.9946 86.4162 22.3632 85.1779 22.3632C84.2238 22.3632 83.6554 22.9335 83.4321 23.6463C83.3103 24.074 83.6554 24.848 84.0411 25.1739C85.0967 26.0497 86.3147 26.7218 87.3906 27.5772C88.2229 28.229 89.1567 28.8807 89.7048 29.7565C91.1866 32.1191 89.2582 34.1558 87.5124 34.8076C85.8072 35.439 84.1629 35.1335 82.4983 34.7057C81.8893 34.5428 81.5442 34.1966 81.5239 33.4837C81.5036 32.7709 81.3615 32.058 81.26 31.3248C81.3615 31.284 81.463 31.2433 81.5848 31.2026Z" fill="#FFF3E0"/>
<path d="M79.8196 34.7057C77.9926 34.7057 76.125 34.7057 74.1762 34.7057C74.298 34.4613 74.3183 34.3594 74.3792 34.3187C75.4551 33.6058 75.4551 33.6058 74.9476 32.4042C74.2168 30.7137 74.5416 30.9377 72.7552 30.9377C71.8824 30.9377 71.0095 30.8563 70.1569 30.9581C69.7915 30.9988 69.4058 31.3247 69.1419 31.6098C68.9389 31.8339 68.9186 32.2209 68.7765 32.5264C68.2893 33.6669 68.2893 33.6669 69.4058 34.278C69.487 34.3187 69.5479 34.4613 69.7509 34.726C68.4314 34.726 67.2743 34.726 66.1172 34.726C66.1375 34.5427 66.1172 34.4409 66.1375 34.4409C67.6803 33.8299 67.9036 32.282 68.4314 31.0192C69.5682 28.4325 70.4817 25.7644 71.517 23.1371C71.6388 22.8315 71.8215 22.5464 72.0244 22.302C72.268 21.9965 72.5725 21.7521 72.8567 21.4873C73.1003 21.7724 73.4454 21.9965 73.5875 22.3224C74.2371 23.8092 74.8258 25.3164 75.4754 26.8032C76.3889 28.8806 77.2618 30.9785 78.2768 33.0152C78.561 33.6466 79.2309 34.0946 79.8196 34.7057ZM71.9027 30.123C72.2275 30.123 72.5522 30.123 72.8973 30.123C73.9529 30.1027 74.0138 30.0008 73.6281 29.0436C73.2221 27.9845 72.8364 26.905 72.4102 25.8459C72.3087 25.6015 72.0853 25.4182 71.9229 25.2145C71.72 25.4182 71.4561 25.5811 71.3546 25.8255C71.0501 26.5384 70.8268 27.292 70.5426 28.0048C69.5885 30.286 69.487 30.123 71.9027 30.123Z" fill="#FFF3E0"/>
<path d="M64.8377 21.8135C66.0557 21.8135 67.2737 21.8135 68.512 21.8135C68.512 21.956 68.512 22.0171 68.4917 22.0171C66.482 22.9133 66.4211 25.0315 65.6903 26.6813C64.5535 29.2068 63.5791 31.8342 62.5032 34.3801C62.3814 34.6856 61.9754 35.0726 61.7115 35.0522C61.4476 35.0522 61.1025 34.6245 60.9604 34.319C59.5394 31.0806 58.1184 27.8422 56.738 24.5834C56.332 23.6262 55.8448 22.7504 54.7892 22.3838C54.6268 22.3227 54.505 22.1394 54.1396 21.8135C56.4538 21.8135 58.4838 21.8135 60.7777 21.8135C60.4326 22.0783 60.3108 22.2208 60.1484 22.3023C59.0116 22.7911 58.9507 22.8726 59.4379 24.0335C60.3514 26.3146 61.2852 28.5754 62.2393 30.8565C62.3002 31.0195 62.4829 31.2435 62.625 31.2639C62.7468 31.2843 62.9701 31.0602 63.0513 30.8973C64.0054 28.5958 64.9189 26.2943 65.8933 24.0131C66.2384 23.1985 66.2181 22.6485 65.264 22.3838C65.1016 22.343 64.9595 22.1394 64.8174 22.0171C64.7971 21.9357 64.8174 21.8746 64.8377 21.8135Z" fill="#FFF3E0"/>
<path d="M125.19 21.834C127.26 21.834 129.311 21.834 131.381 21.834C131.422 21.9155 131.463 21.9969 131.503 22.0784C131.097 22.3024 130.711 22.6283 130.285 22.7505C129.737 22.8931 129.575 23.1986 129.575 23.7078C129.575 26.1518 129.554 28.5756 129.554 31.0196C129.554 31.2844 129.595 31.5695 129.554 31.8343C129.331 33.0156 129.798 33.7285 130.935 34.0747C131.138 34.1358 131.3 34.3191 131.706 34.6043C131.178 34.7265 130.874 34.8283 130.59 34.8487C129.006 34.869 127.423 34.869 125.839 34.8283C125.616 34.8283 125.393 34.645 125.17 34.5635C125.352 34.4006 125.494 34.1766 125.718 34.0747C127.098 33.4026 127.078 33.4026 127.057 31.814C127.017 29.431 127.037 27.0684 127.057 24.6854C127.078 23.6874 127.098 22.7301 125.779 22.5265C125.555 22.4857 125.373 22.2413 125.17 22.0988C125.149 21.9969 125.17 21.9155 125.19 21.834Z" fill="#FFF3E0"/>
<path d="M74.7443 48.3116C74.0541 48.2912 73.2827 47.7413 72.7346 47.2321C72.0444 46.6211 72.1662 45.786 72.7549 45.0732C72.9173 44.8695 73.0594 44.4621 72.9579 44.2585C72.1459 42.5884 72.8564 41.3256 74.6631 41.3459C75.1706 41.3459 75.739 41.5089 76.2059 41.7533C77.0788 42.2014 77.2615 43.0772 76.8149 43.9733C76.6728 44.2788 76.5104 44.8288 76.6728 44.9713C77.3427 45.6231 77.4645 46.3156 76.9976 47.0692C76.5104 47.8431 75.739 48.3523 74.7443 48.3116ZM74.6834 47.2117C75.6375 47.2321 76.2871 46.8044 76.3074 46.173C76.3277 45.4805 75.6172 44.9713 74.6225 44.9713C73.7902 44.9713 73.2015 45.4601 73.2218 46.1526C73.2421 46.8655 73.7293 47.2117 74.6834 47.2117ZM74.724 44.2585C75.3736 44.2381 76.145 43.6271 76.145 43.1179C76.1247 42.6495 75.333 42.1199 74.6225 42.1606C73.9932 42.2014 73.506 42.4661 73.4248 43.1586C73.3639 43.7289 74.0541 44.2788 74.724 44.2585Z" fill="#FFF3E0"/>
<path d="M68.4507 41.0811C69.0597 41.4477 69.7702 41.7328 70.2371 42.242C70.7852 42.8326 70.6025 43.5659 70.1153 44.2176C69.9935 44.3806 70.0747 44.8286 70.2168 45.0119C70.8258 45.7248 70.907 46.458 70.3792 47.2116C69.8514 47.9856 68.4101 48.4336 67.5575 48.1078C66.3395 47.6597 65.5885 46.9265 65.893 46.0099C66.2381 45.0119 66.3801 44.238 66.0351 43.1585C65.7103 42.1605 66.8876 41.3662 68.2883 41.3051C68.3492 41.244 68.4101 41.1625 68.4507 41.0811ZM68.2274 47.2931C69.2018 47.2931 69.8514 46.8246 69.8514 46.1321C69.8514 45.5008 69.1815 44.9712 68.4101 44.9508C67.456 44.9305 66.7252 45.4804 66.7455 46.1932C66.7455 46.8246 67.3748 47.2931 68.2274 47.2931ZM68.268 44.2787C69.0191 44.2787 69.7093 43.7695 69.6484 43.1585C69.5672 42.5271 69.1409 42.1605 68.471 42.1402C67.6184 42.1198 66.847 42.629 66.9485 43.1789C67.0703 43.8917 67.5372 44.2583 68.268 44.2787Z" fill="#FFF3E0"/>
<path d="M80.4485 47.1094C81.0575 47.1094 81.6868 47.0686 82.2755 47.1297C82.5191 47.1501 82.7424 47.4353 82.9657 47.6186C82.7221 47.7204 82.4785 47.9241 82.2349 47.9241C81.362 47.9648 80.4891 47.9648 79.6365 47.9037C79.3117 47.8833 78.9869 47.6389 78.6621 47.4964C78.8651 47.1908 78.9869 46.8039 79.2508 46.5798C80.0019 45.9484 80.8545 45.4393 81.5447 44.7468C82.0319 44.258 82.6409 43.6266 81.9913 42.7711C81.4432 42.0583 80.3876 42.0176 79.8395 42.71C79.7583 42.8119 79.738 42.9748 79.6568 43.0156C79.332 43.1581 79.0072 43.26 78.6621 43.3822C78.7027 43.0359 78.6621 42.6286 78.8245 42.3434C79.5147 41.2436 81.2199 40.9992 82.3161 41.7935C83.2296 42.4453 83.3717 43.7691 82.58 44.8486C82.2755 45.256 81.8898 45.6022 81.5244 45.9281C81.159 46.254 80.7327 46.5391 80.3267 46.8446C80.3876 46.9464 80.4282 47.0279 80.4485 47.1094Z" fill="#FFF3E0"/>
<path d="M63.6808 44.6448C63.6808 45.4798 63.7214 46.3353 63.6605 47.1703C63.6402 47.4351 63.3357 47.6591 63.1733 47.9035C63.0109 47.6591 62.7267 47.4147 62.7064 47.1499C62.6658 46.1927 62.6861 45.215 62.7267 44.2578C62.747 43.6875 62.7267 43.1987 61.9147 43.3413C61.7523 43.3616 61.5696 43.1783 61.4072 43.0969C61.5087 42.8932 61.5899 42.6691 61.7523 42.5266C62.0974 42.2211 62.4628 41.9156 62.8282 41.6711C62.9906 41.5693 63.2748 41.4471 63.3763 41.5286C63.5387 41.6508 63.6605 41.9156 63.6605 42.1192C63.6808 42.9543 63.6605 43.8097 63.6808 44.6448Z" fill="#FFF3E0"/>
<path d="M46.2231 25.3573C46.2231 24.7056 46.2231 24.0335 46.2231 23.3817C46.2231 22.7911 46.487 22.5263 47.096 22.4856C48.7403 22.343 49.6741 22.7911 50.141 23.952C50.6891 25.337 50.4049 26.9053 49.4508 27.6792C48.5779 28.3921 47.5832 28.168 46.6088 28.0662C46.4464 28.0458 46.2434 27.6181 46.2231 27.3533C46.1825 26.6812 46.2231 26.0091 46.2231 25.3573Z" fill="#1A130D"/>
<path d="M94.3335 26.3353C93.9884 24.2986 96.3026 22.4044 98.5153 22.8525C99.1242 22.9747 99.7738 23.158 100.261 23.5042C102.291 24.9707 103.895 26.8037 104.382 29.37C104.889 31.9974 103.083 34.136 100.444 33.8712C99.6317 33.7897 98.8198 33.3009 98.089 32.8528C96.5462 31.8752 93.9478 28.4535 94.3335 26.3353Z" fill="#1A130D"/>
<path d="M71.9023 30.1234C69.4866 30.1234 69.5881 30.2863 70.5422 28.0052C70.8467 27.2923 71.0497 26.5387 71.3542 25.8259C71.4557 25.5815 71.7196 25.4185 71.9226 25.2148C72.085 25.4185 72.3083 25.6222 72.4098 25.8462C72.8361 26.9053 73.2015 27.9848 73.6278 29.0439C73.9932 30.0012 73.9323 30.103 72.897 30.1234C72.5519 30.1234 72.2271 30.1234 71.9023 30.1234Z" fill="#1A130D"/>
<path d="M74.6833 47.2111C73.7089 47.1907 73.2217 46.8445 73.2217 46.152C73.2217 45.4595 73.8104 44.9707 74.6224 44.9707C75.6171 44.9707 76.3276 45.4799 76.3073 46.1724C76.3073 46.8241 75.6577 47.2315 74.6833 47.2111Z" fill="#1A130D"/>
<path d="M74.7238 44.2582C74.054 44.2786 73.3638 43.7083 73.4247 43.1584C73.4856 42.4659 73.9931 42.2011 74.6223 42.1604C75.3328 42.1197 76.1448 42.6492 76.1448 43.1177C76.1448 43.6269 75.3734 44.2582 74.7238 44.2582Z" fill="#1A130D"/>
<path d="M68.2282 47.293C67.3756 47.293 66.7463 46.8245 66.726 46.1931C66.7057 45.4803 67.4568 44.9304 68.3906 44.9507C69.1823 44.9711 69.8319 45.5007 69.8319 46.132C69.8522 46.8245 69.2026 47.293 68.2282 47.293Z" fill="#1A130D"/>
<path d="M68.2687 44.2789C67.5379 44.2789 67.071 43.892 66.9289 43.1995C66.8274 42.6496 67.5988 42.1404 68.4514 42.1607C69.101 42.1811 69.5476 42.5274 69.6288 43.1791C69.71 43.7698 69.0198 44.2789 68.2687 44.2789Z" fill="#1A130D"/>
<path d="M0 62.8331C0 42.1196 0 21.4264 0 0.712891C58.6667 0.712891 117.333 0.712891 176 0.712891C176 21.4264 176 42.1196 176 62.8331C117.333 62.8331 58.6667 62.8331 0 62.8331ZM18.1887 18.3917C18.3105 18.3713 18.4323 18.351 18.5338 18.3306C18.6962 18.7379 18.8992 19.1453 19.021 19.573C20.8683 26.2127 22.6953 32.8525 24.5629 39.4922C24.6847 39.9199 25.1313 40.2458 25.4358 40.6328C25.72 40.2458 26.1057 39.8995 26.2478 39.4718C26.674 38.1683 26.9785 36.8241 27.3439 35.4798C28.7243 30.4491 30.1047 25.398 31.5257 20.3673C31.7693 19.4508 32.1144 18.575 32.4189 17.6788C32.5407 17.6992 32.6625 17.6992 32.7843 17.7196C32.8249 18.3306 32.8858 18.962 32.8655 19.573C32.8452 21.3246 32.7843 23.0558 32.764 24.8074C32.7437 29.2271 32.7234 33.6468 32.764 38.0665C32.764 39.1867 32.4392 39.757 31.2212 39.6348C30.8152 39.594 30.3889 39.594 30.0032 39.6959C29.8002 39.757 29.6378 40.0421 29.4754 40.2254C29.6378 40.368 29.8002 40.592 29.9829 40.6531C30.328 40.7346 30.7137 40.7142 31.0791 40.7142C33.5557 40.7142 36.0323 40.7346 38.5089 40.6735C39.1179 40.6531 39.7066 40.3476 40.3156 40.1643C39.9502 39.1867 39.1585 39.6755 38.5495 39.6959C37.5142 39.757 37.0676 39.37 37.0676 38.2905C37.1082 31.6304 37.0879 24.9907 37.1082 18.3306C37.1082 16.0495 37.1285 16.0495 39.3412 15.8865C39.666 15.8661 39.9705 15.5403 40.2953 15.357C39.9705 15.194 39.666 14.9089 39.3412 14.8885C37.3518 14.8478 35.3624 14.9089 33.373 14.8478C32.2971 14.807 31.7693 15.2144 31.4851 16.2735C30.2265 21.0598 28.907 25.8054 27.6078 30.5713C27.5063 30.9176 27.283 31.2231 27.1206 31.549C27.0191 31.549 26.8973 31.5286 26.7958 31.5286C26.674 31.1823 26.5117 30.8361 26.4102 30.4695C25.1313 25.6221 23.8524 20.7543 22.5938 15.8865C22.3908 15.1126 21.9239 14.8478 21.1728 14.8478C19.021 14.8478 16.8692 14.8274 14.7174 14.8478C14.352 14.8478 13.9866 15.0718 13.6212 15.194C13.6415 15.357 13.6618 15.5199 13.6618 15.7032C14.3723 15.7643 15.0828 15.8661 15.8136 15.8661C16.5241 15.8865 16.9301 16.0291 16.9301 16.9049C16.8895 23.8094 16.8692 30.6935 16.8489 37.598C16.8489 39.6348 16.8489 39.6144 14.7783 39.6755C14.4129 39.6959 14.0678 40.0217 13.7024 40.1847C14.0678 40.368 14.4129 40.6735 14.7783 40.6735C16.4429 40.7142 18.1075 40.7346 19.7721 40.6531C20.2187 40.6328 20.645 40.3273 21.0713 40.1439C20.645 39.9606 20.2187 39.7977 19.7924 39.6144C19.7518 39.594 19.7112 39.6144 19.6706 39.6144C18.1278 39.6348 18.0669 39.5533 18.0669 37.9646C18.0669 31.9156 18.0466 25.8665 18.0466 19.8174C18.0466 19.3693 18.1481 18.8805 18.1887 18.3917ZM137.917 40.6531C137.917 40.6735 137.917 40.6939 137.917 40.7142C138.892 40.7142 139.866 40.755 140.841 40.6939C141.165 40.6735 141.49 40.4087 141.815 40.2458C141.47 40.0421 141.084 39.6348 140.78 39.6959C138.892 40.1032 138.06 39.0441 137.39 37.5573C137.065 36.8648 136.517 36.2742 136.212 35.5817C136.05 35.1947 136.009 34.5633 136.212 34.2374C137.714 32.0785 138.384 29.6344 138.729 27.0885C138.872 26.0905 139.257 25.6017 140.292 25.7443C140.536 25.785 140.82 25.8257 141.023 25.7443C141.307 25.6221 141.531 25.3573 141.795 25.1536C141.571 24.9703 141.328 24.6444 141.104 24.6444C139.156 24.6037 137.207 24.6037 135.258 24.6444C135.035 24.6444 134.812 24.9907 134.588 25.174C134.852 25.3777 135.075 25.6832 135.36 25.7443C135.786 25.8257 136.314 25.6221 136.679 25.785C137.065 25.948 137.593 26.4368 137.572 26.7626C137.532 28.9827 136.821 31.0601 135.766 32.995C135.38 33.6875 134.933 33.6468 134.507 32.9543C133.086 30.5917 131.645 28.2495 130.183 25.9072C129.757 25.2351 129.899 24.8277 130.569 24.4611C131.421 23.9723 132.254 23.4835 133.005 22.8725C134.812 21.4468 135.441 19.5934 134.832 17.7399C134.121 15.581 132.294 14.9904 130.346 14.5219C127.828 13.9109 123.85 15.8865 123.444 19.0027C123.159 21.1413 123.687 23.0558 124.641 24.8277C125.128 25.7443 124.844 26.0091 124.174 26.4164C122.997 27.1293 121.779 27.8014 120.723 28.6568C118.145 30.7546 117.374 33.9727 118.551 37.2518C119.282 39.2885 122.023 41.6104 125.372 41.4067C127.767 41.2438 129.899 40.6124 131.787 39.1256C132.254 38.759 132.802 38.3109 133.167 39.1052C133.817 40.5513 134.933 40.8364 136.334 40.6531C136.862 40.592 137.39 40.6531 137.917 40.6531ZM151.011 27.557C151.133 25.4388 151.072 23.0965 151.457 20.8358C152.594 14.3182 158.136 14.2164 161.79 16.8438C163.191 17.8418 163.982 19.4101 164.368 21.1413C164.449 21.4671 164.815 21.7116 165.058 21.9967C165.241 21.6505 165.566 21.3042 165.586 20.958C165.647 19.3693 165.627 17.801 165.586 16.2124C165.566 15.7236 165.343 15.2551 165.221 14.7663C164.815 15.0107 164.348 15.1737 164.043 15.4995C163.495 16.0698 163.028 16.1106 162.338 15.6828C158.745 13.4424 154.117 13.8498 150.909 16.6197C145.205 21.5486 143.987 28.9623 147.864 35.4187C150.788 40.2661 156.817 43.0972 162.135 39.9403C163.313 39.2478 164.043 39.1459 164.774 40.3884C164.896 40.592 165.383 40.7753 165.566 40.6939C165.789 40.592 165.972 40.1847 165.972 39.8995C165.992 37.8832 165.992 35.8465 165.952 33.8301C165.952 33.5449 165.627 33.2598 165.444 32.9747C165.18 33.1987 164.815 33.3616 164.693 33.6264C164.328 34.4411 164.104 35.3169 163.739 36.1112C162.277 39.2071 159.638 40.5309 156.147 39.981C153.447 39.5533 151.823 37.6591 151.437 34.3189C151.173 32.1396 151.153 29.9399 151.011 27.557ZM86.376 40.1439C87.7564 40.8975 93.9276 40.7753 94.6787 40.0625C94.3133 39.8995 94.0088 39.6348 93.7246 39.6551C92.8314 39.7162 92.5675 39.2478 92.5878 38.4942C92.6081 36.3353 92.5878 34.1967 92.6284 32.0378C92.6487 30.164 93.2577 28.4939 94.7396 27.3126C95.2471 26.9052 96.1199 26.5793 96.6883 26.7219C97.2364 26.8645 97.7439 27.6384 98.0281 28.2291C98.2717 28.7383 98.2311 29.4308 98.2311 30.0214C98.2311 32.7303 98.1905 35.4595 98.2108 38.1683C98.2108 39.1052 98.1093 39.7977 96.8913 39.6348C96.6883 39.6144 96.4244 39.9606 96.1809 40.1236C96.3635 40.2865 96.5666 40.6124 96.7696 40.6124C98.9213 40.6531 101.073 40.6735 103.205 40.6328C103.387 40.6328 103.59 40.3069 103.773 40.1439C103.59 39.9606 103.387 39.6144 103.245 39.6348C101.56 39.8792 101.784 38.7182 101.763 37.7202C101.743 34.8077 101.784 31.8748 101.682 28.9623C101.601 26.9459 100.687 25.7646 99.1649 25.3573C96.8507 24.7463 94.8817 25.3369 93.7246 26.9663C93.5216 27.2718 93.1765 27.4755 92.9126 27.7199C92.8111 27.3329 92.6081 26.9256 92.6284 26.559C92.7096 25.6017 92.3036 25.1944 91.3901 25.1944C90.1721 25.1944 88.9541 25.174 87.7361 25.2555C87.4316 25.2758 87.1271 25.6017 86.8226 25.8054C87.1068 25.9683 87.4113 26.2535 87.6955 26.2535C88.6496 26.2127 89.015 26.6608 89.015 27.557C89.015 31.2027 89.015 34.8484 89.015 38.4942C89.015 39.2682 88.6496 39.6755 87.8173 39.6551C87.4316 39.6959 87.0459 39.9199 86.376 40.1439ZM63.1326 40.4698C63.1529 40.3476 63.1732 40.2254 63.1935 40.1032C62.9093 39.9403 62.6048 39.6348 62.3612 39.6755C60.8591 39.8588 60.7373 39.0237 60.7576 37.8424C60.7982 30.388 60.7779 22.9336 60.7779 15.4588C60.7779 14.6645 60.514 14.359 59.6817 14.4812C58.4434 14.6645 57.1848 14.7256 55.9465 14.8885C55.5608 14.9293 55.1954 15.1533 54.83 15.3162C55.1954 15.4995 55.5811 15.8661 55.9465 15.8661C56.9412 15.8254 57.1442 16.2531 57.1442 17.1697C57.1036 24.0131 57.1239 30.8768 57.1442 37.7202C57.1442 39.4311 57.2051 39.4311 55.5202 39.6551C55.2563 39.6959 55.0127 39.9606 54.7488 40.1032C54.9924 40.3069 55.236 40.5513 55.4999 40.7142C55.6217 40.7957 55.8247 40.7142 55.9871 40.7142C57.9359 40.7142 59.8847 40.7346 61.8335 40.7142C62.2597 40.6939 62.686 40.5513 63.1326 40.4698ZM40.2953 33.2598C40.478 34.1356 40.5592 35.0318 40.8637 35.8668C41.8584 38.7793 43.8275 40.7142 46.913 41.2234C49.2475 41.6104 51.1151 40.3884 52.5767 38.7386C55.6217 35.2762 55.1345 29.8381 51.6429 26.8034C49.3084 24.787 46.1822 24.5833 43.9289 26.3349C41.6554 28.0661 40.5186 30.388 40.2953 33.2598ZM73.0796 38.4535C72.8969 38.2905 72.6939 38.1276 72.5112 37.9443C72.1661 38.3109 71.8616 38.7793 71.4556 39.0441C70.9887 39.3496 70.2985 39.7366 69.8925 39.5737C69.4662 39.4311 68.9993 38.6775 68.979 38.1887C68.9181 34.7873 68.9587 31.386 68.9587 27.9847C68.9587 27.2107 69.3647 26.9663 70.0955 26.9052C70.7451 26.8645 71.3947 26.6201 72.0443 26.4571C71.6383 25.4388 70.7654 25.8461 70.0752 25.8461C69.2429 25.8461 68.8775 25.5406 68.8978 24.7055C68.9181 23.8501 69.0196 22.9947 68.8978 22.1596C68.8369 21.7727 68.3091 21.1413 68.0452 21.182C65.5686 21.4264 65.1423 20.7339 65.2438 23.7687C65.2438 23.9723 65.2438 24.176 65.2641 24.3797C65.3453 25.2555 65.2032 25.9072 64.0664 25.8665C63.8025 25.8665 63.5183 26.2127 63.2341 26.396C63.498 26.5793 63.7822 26.9663 64.0258 26.9459C65.1626 26.8034 65.2844 27.394 65.2641 28.3106C65.2235 31.4675 65.1626 34.6448 65.2844 37.8017C65.325 38.759 65.6904 39.9403 66.34 40.6124C67.2941 41.6104 70.0143 41.4882 71.1511 40.592C71.9225 40.0014 72.4503 39.1663 73.0796 38.4535ZM81.4634 32.1192C82.519 32.1192 83.5746 32.1192 84.6302 32.1192C85.3204 32.1192 85.9294 31.9563 85.9091 31.162C85.8685 29.1456 85.0768 27.4348 83.4122 26.2535C81.707 25.0518 79.8192 24.6648 77.8907 25.561C73.1608 27.781 71.8007 34.4004 75.1299 38.7182C76.4494 40.4291 78.1546 41.4474 80.3672 41.2234C83.0468 40.9586 84.8332 39.4718 85.767 36.9666C85.8685 36.7019 85.7061 36.3353 85.6655 36.0298C85.4016 36.2131 85.0768 36.3556 84.8941 36.6C84.2648 37.4758 83.7979 38.4942 83.0265 39.2274C81.9506 40.2458 80.5905 40.6328 79.1087 40.1032C77.7283 39.594 77.4644 38.3924 77.3629 37.15C77.2614 35.8261 77.3223 34.4818 77.302 33.1376C77.302 32.3636 77.6471 32.0581 78.4388 32.0989C79.4131 32.1396 80.4484 32.1192 81.4634 32.1192ZM110.979 32.384H111C111 30.4084 110.959 28.4124 111.02 26.4368C111.061 25.4999 110.655 25.2147 109.802 25.2351C108.543 25.2758 107.285 25.2351 106.047 25.2962C105.681 25.3166 105.316 25.6017 104.971 25.785C105.356 25.9683 105.762 26.3349 106.128 26.2942C107.062 26.2331 107.346 26.5997 107.346 27.4755C107.346 30.999 107.366 34.5226 107.386 38.0461C107.386 39.0848 107.183 39.7977 105.884 39.6551C105.62 39.6144 105.316 39.9606 105.032 40.1236C105.336 40.3273 105.62 40.6735 105.925 40.6735C108.077 40.7142 110.208 40.7142 112.36 40.6735C112.685 40.6735 112.989 40.3476 113.314 40.1643C113.009 39.981 112.685 39.594 112.421 39.6348C111.182 39.8588 110.939 39.2071 110.959 38.1887C111 36.2742 110.979 34.3189 110.979 32.384ZM110.919 18.1269C110.919 17.1086 109.883 16.0087 108.949 16.0291C108.077 16.0495 107.122 17.0474 107.102 17.964C107.082 19.2675 108.016 20.3673 109.051 20.3266C109.985 20.3062 110.919 19.2064 110.919 18.1269Z" fill="#1A130D"/>
<path d="M18.1886 18.3913C18.148 18.8801 18.0465 19.3893 18.0465 19.8781C18.0465 25.9272 18.0668 31.9762 18.0668 38.0253C18.0668 39.614 18.1277 39.6954 19.6705 39.6751C19.7111 39.6751 19.7517 39.6547 19.7923 39.6751C20.2186 39.838 20.6449 40.0213 21.0712 40.2046C20.6449 40.3879 20.1983 40.6934 19.772 40.7138C18.1074 40.7749 16.4428 40.7749 14.7782 40.7342C14.4128 40.7138 14.0677 40.4083 13.7023 40.2454C14.0677 40.0621 14.4128 39.7362 14.7782 39.7362C16.8691 39.6751 16.8488 39.6954 16.8488 37.6587C16.8691 30.7542 16.8691 23.8701 16.93 16.9656C16.93 16.0898 16.5443 15.9472 15.8135 15.9268C15.103 15.9065 14.3722 15.825 13.6617 15.7639C13.6414 15.601 13.6211 15.438 13.6211 15.2547C13.9865 15.1325 14.3519 14.9085 14.7173 14.9085C16.8691 14.8881 19.0209 14.9085 21.1727 14.9085C21.9237 14.9085 22.3906 15.1732 22.5936 15.9472C23.8522 20.815 25.1311 25.6624 26.41 30.5302C26.5115 30.8968 26.6739 31.243 26.7957 31.5893C26.8972 31.5893 27.019 31.6096 27.1205 31.6096C27.2829 31.2838 27.5265 30.9782 27.6077 30.632C28.9272 25.8661 30.2264 21.1001 31.485 16.3342C31.7692 15.2751 32.297 14.8677 33.3729 14.9085C35.3623 14.9696 37.3517 14.9085 39.341 14.9492C39.6658 14.9492 39.9703 15.2547 40.2951 15.4176C39.9703 15.601 39.6658 15.9065 39.341 15.9472C37.1284 16.1305 37.1284 16.1101 37.1081 18.3913C37.0878 25.0514 37.1081 31.6911 37.0675 38.3512C37.0675 39.4103 37.5141 39.8176 38.5494 39.7565C39.1786 39.7158 39.95 39.2474 40.3154 40.225C39.7267 40.4083 39.1177 40.7138 38.5088 40.7342C36.0322 40.7953 33.5556 40.7749 31.079 40.7749C30.7136 40.7749 30.3482 40.7953 29.9828 40.7138C29.7798 40.6731 29.6377 40.449 29.4753 40.2861C29.658 40.1028 29.8001 39.8176 30.0031 39.7565C30.3888 39.6547 30.8151 39.6547 31.2211 39.6954C32.4188 39.838 32.7639 39.2474 32.7639 38.1272C32.7233 33.7075 32.7436 29.2878 32.7639 24.8681C32.7639 23.1165 32.8451 21.3853 32.8654 19.6337C32.8654 19.0227 32.8045 18.3913 32.7842 17.7803C32.6624 17.7599 32.5406 17.7599 32.4188 17.7395C32.1143 18.6357 31.7692 19.5115 31.5256 20.428C30.1249 25.4587 28.7445 30.4894 27.3438 35.5405C26.9784 36.8644 26.6739 38.2086 26.2476 39.5325C26.1055 39.9602 25.7198 40.3065 25.4356 40.6934C25.1311 40.3268 24.6845 39.9806 24.5627 39.5529C22.6951 32.9131 20.8682 26.2734 19.0209 19.6337C18.8991 19.1449 18.7164 18.7375 18.554 18.3302C18.4322 18.3505 18.3104 18.3709 18.1886 18.3913Z" fill="#FFF3E0"/>
<path d="M137.917 40.6533C137.39 40.6533 136.862 40.5922 136.334 40.6736C134.913 40.8569 133.817 40.5718 133.167 39.1257C132.802 38.3314 132.274 38.7795 131.787 39.1461C129.899 40.6329 127.767 41.2643 125.372 41.4272C122.043 41.6512 119.282 39.309 118.551 37.2723C117.374 33.9932 118.125 30.7751 120.723 28.6773C121.779 27.8219 123.017 27.1497 124.174 26.4369C124.844 26.0295 125.128 25.7648 124.641 24.8482C123.687 23.0763 123.159 21.1618 123.443 19.0232C123.849 15.907 127.828 13.9314 130.345 14.5424C132.294 15.0108 134.121 15.6015 134.832 17.7604C135.441 19.6342 134.811 21.4673 133.005 22.893C132.254 23.4836 131.401 23.9928 130.569 24.4816C129.899 24.8686 129.757 25.2556 130.183 25.9277C131.645 28.2496 133.086 30.6122 134.507 32.9748C134.933 33.6673 135.4 33.708 135.766 33.0155C136.821 31.0806 137.532 29.0032 137.572 26.7831C137.572 26.4573 137.065 25.9684 136.679 25.8055C136.314 25.6426 135.786 25.8666 135.36 25.7648C135.075 25.7037 134.852 25.3982 134.588 25.1945C134.811 25.0112 135.035 24.6649 135.258 24.6649C137.207 24.6242 139.156 24.6242 141.104 24.6649C141.348 24.6649 141.571 24.9908 141.795 25.1741C141.531 25.3778 141.307 25.6426 141.023 25.7648C140.82 25.8462 140.536 25.8055 140.292 25.7648C139.257 25.6222 138.871 26.111 138.729 27.109C138.364 29.6549 137.714 32.099 136.212 34.2579C135.989 34.5634 136.029 35.2152 136.212 35.6022C136.517 36.2947 137.085 36.8853 137.39 37.5778C138.059 39.0646 138.892 40.1237 140.78 39.7164C141.064 39.6553 141.47 40.083 141.815 40.2663C141.49 40.4292 141.165 40.694 140.84 40.7144C139.866 40.7755 138.892 40.7347 137.917 40.7347C137.917 40.694 137.917 40.6736 137.917 40.6533ZM121.921 31.9972C122.307 34.3394 123.139 36.8446 125.149 38.7998C125.961 39.5942 126.976 40.0626 128.031 39.6756C129.31 39.2275 130.488 38.5147 131.665 37.8426C131.868 37.7204 131.969 37.0686 131.827 36.8242C129.919 33.6265 127.97 30.4492 125.981 27.2923C125.839 27.0683 125.352 26.8442 125.108 26.9257C123.24 27.5571 121.921 29.5531 121.921 31.9972ZM131.949 19.2269C131.888 18.7381 131.848 18.1678 131.726 17.6179C131.401 16.1718 130.183 15.2349 128.843 15.3978C127.24 15.5811 126.326 16.6606 126.346 18.29C126.387 20.4082 127.788 21.9154 128.782 23.6058C128.884 23.7688 129.615 23.7484 129.919 23.5651C131.584 22.6486 131.868 21.0192 131.949 19.2269Z" fill="#FFF3E0"/>
<path d="M151.011 27.5572C151.153 29.9402 151.194 32.1399 151.438 34.2988C151.823 37.6594 153.447 39.5332 156.147 39.9609C159.639 40.5108 162.278 39.187 163.739 36.0911C164.125 35.2968 164.328 34.4007 164.693 33.6063C164.815 33.3416 165.181 33.1583 165.444 32.9546C165.627 33.2397 165.952 33.5249 165.952 33.81C166.013 35.8264 166.013 37.8631 165.972 39.8795C165.972 40.1646 165.79 40.5719 165.566 40.6738C165.384 40.7552 164.896 40.5719 164.775 40.3683C164.044 39.1259 163.313 39.2277 162.136 39.9202C156.817 43.0975 150.788 40.2461 147.865 35.3987C143.987 28.9626 145.205 21.5489 150.91 16.5997C154.117 13.8501 158.745 13.4427 162.339 15.6831C163.029 16.1108 163.475 16.0701 164.044 15.4998C164.348 15.1739 164.815 15.011 165.221 14.7666C165.343 15.2554 165.587 15.7239 165.587 16.2127C165.627 17.8013 165.647 19.3696 165.587 20.9582C165.566 21.3045 165.241 21.6507 165.059 21.997C164.815 21.7118 164.45 21.4471 164.369 21.1416C163.983 19.4103 163.191 17.8421 161.79 16.8441C158.136 14.2167 152.595 14.3185 151.458 20.836C151.052 23.0968 151.133 25.4391 151.011 27.5572Z" fill="#FFF3E0"/>
<path d="M86.376 40.1437C87.0662 39.9197 87.4316 39.6956 87.8173 39.6956C88.6699 39.716 89.015 39.3086 89.015 38.5347C89.015 34.8889 89.015 31.2432 89.015 27.5974C89.015 26.7013 88.6496 26.2532 87.6955 26.2939C87.4113 26.3143 87.1068 26.0088 86.8226 25.8459C87.1271 25.6626 87.4113 25.3163 87.7361 25.2959C88.9541 25.2145 90.1721 25.2552 91.3901 25.2348C92.3035 25.2348 92.7298 25.6218 92.6283 26.5995C92.5877 26.9864 92.811 27.3734 92.9125 27.7604C93.1967 27.516 93.5215 27.2919 93.7245 27.0068C94.8816 25.3774 96.8507 24.7664 99.1649 25.3978C100.687 25.8051 101.601 26.9864 101.682 29.0028C101.784 31.9153 101.743 34.8482 101.763 37.7607C101.763 38.7791 101.54 39.94 103.245 39.6752C103.387 39.6549 103.59 40.0011 103.773 40.1844C103.59 40.3677 103.408 40.6732 103.205 40.6732C101.053 40.6936 98.901 40.6936 96.7695 40.6529C96.5665 40.6529 96.3838 40.327 96.1808 40.1641C96.4244 40.0011 96.668 39.6549 96.8913 39.6752C98.1093 39.8382 98.2108 39.1457 98.2108 38.2088C98.1905 35.5 98.2311 32.7707 98.2311 30.0619C98.2311 29.4509 98.2717 28.7787 98.0281 28.2696C97.7439 27.6585 97.2567 26.905 96.6883 26.7624C96.1199 26.5994 95.247 26.9457 94.7395 27.353C93.2576 28.5343 92.6689 30.2045 92.6283 32.0782C92.5877 34.2372 92.608 36.3757 92.5877 38.5347C92.5877 39.3086 92.8313 39.7771 93.7245 39.6956C94.0087 39.6752 94.3132 39.94 94.6786 40.103C93.9072 40.7751 87.7564 40.8973 86.376 40.1437Z" fill="#FFF3E0"/>
<path d="M63.1327 40.4696C62.6861 40.5511 62.2598 40.6936 61.8132 40.6936C59.8644 40.714 57.9156 40.6936 55.9668 40.6936C55.8044 40.6936 55.6014 40.7547 55.4796 40.6936C55.2157 40.5307 54.9721 40.2863 54.7285 40.0826C54.9924 39.9197 55.2157 39.6549 55.4999 39.6345C57.1848 39.4105 57.1239 39.4309 57.1239 37.6996C57.1036 30.8562 57.0833 23.9925 57.1239 17.1491C57.1239 16.2122 56.9412 15.8048 55.9262 15.8456C55.5608 15.8659 55.1751 15.4993 54.8097 15.2956C55.1751 15.1531 55.5405 14.929 55.9262 14.8679C57.1645 14.705 58.4231 14.6439 59.6614 14.4606C60.4937 14.3384 60.7576 14.6439 60.7576 15.4382C60.7373 22.8926 60.7576 30.3471 60.7373 37.8218C60.7373 39.0032 60.8388 39.8586 62.341 39.6549C62.6049 39.6142 62.8891 39.94 63.1733 40.0826C63.1733 40.2252 63.153 40.3474 63.1327 40.4696Z" fill="#FFF3E0"/>
<path d="M40.2949 33.2602C40.4979 30.3884 41.655 28.0666 43.9083 26.315C46.1616 24.5634 49.3081 24.7671 51.6223 26.7834C55.1138 29.8182 55.601 35.2562 52.5561 38.7187C51.1148 40.3684 49.2472 41.5904 46.8924 41.2035C43.8068 40.6943 41.8377 38.7594 40.843 35.8469C40.5791 35.0322 40.4776 34.136 40.2949 33.2602ZM50.4449 33.3417C50.4855 33.3417 50.5261 33.3417 50.5667 33.3417C50.5667 32.8936 50.6073 32.4455 50.5667 31.9975C50.4246 30.5106 50.4043 29.0035 50.0186 27.5778C49.6735 26.2946 48.4758 25.8262 46.9736 26.0095C45.8571 26.152 44.7406 27.0278 44.7203 28.2091C44.6391 31.5494 44.6594 34.91 44.7406 38.2502C44.7609 38.7798 45.2684 39.4519 45.7353 39.7778C47.9277 41.2442 50.2216 40.1036 50.4246 37.4559C50.5464 36.1116 50.4449 34.7267 50.4449 33.3417Z" fill="#FFF3E0"/>
<path d="M73.08 38.4536C72.4507 39.1664 71.9026 40.0015 71.1718 40.5921C70.0553 41.4883 67.3149 41.6105 66.3608 40.6125C65.7112 39.9404 65.3458 38.7795 65.3052 37.8018C65.1834 34.6449 65.2443 31.488 65.2849 28.3107C65.3052 27.3941 65.1631 26.8035 64.0466 26.9461C63.803 26.9664 63.5188 26.5998 63.2549 26.3961C63.5391 26.2128 63.803 25.8462 64.0872 25.8666C65.224 25.9073 65.3661 25.2556 65.2849 24.3798C65.2646 24.1761 65.2646 23.9724 65.2646 23.7688C65.1631 20.734 65.5894 21.4265 68.066 21.1821C68.3299 21.1618 68.8779 21.7931 68.9185 22.1598C69.0403 22.9948 68.9388 23.8502 68.9185 24.7057C68.8982 25.5407 69.2636 25.8462 70.0959 25.8462C70.7861 25.8462 71.6793 25.4389 72.065 26.4572C71.4154 26.6202 70.7658 26.8442 70.1162 26.9053C69.3854 26.9664 68.9794 27.1905 68.9794 27.9848C68.9794 31.3861 68.9185 34.7875 68.9997 38.1888C68.9997 38.6776 69.4869 39.4108 69.9132 39.5738C70.3192 39.7163 71.0094 39.3294 71.4763 39.0442C71.9026 38.7794 72.1868 38.3314 72.5319 37.9444C72.7146 38.1277 72.8973 38.2906 73.08 38.4536Z" fill="#FFF3E0"/>
<path d="M81.4635 32.1192C80.4486 32.1192 79.4336 32.1599 78.4186 32.0988C77.6269 32.0581 77.2818 32.3839 77.2818 33.1375C77.3021 34.4818 77.2412 35.826 77.3427 37.1499C77.4239 38.3719 77.7081 39.594 79.0885 40.1031C80.5704 40.653 81.9507 40.2661 83.0063 39.2273C83.7777 38.4941 84.2243 37.4554 84.8739 36.6C85.0566 36.3556 85.3814 36.213 85.6453 36.0297C85.6859 36.3556 85.8483 36.7018 85.7468 36.9666C84.813 39.4717 83.0266 40.9586 80.3471 41.2233C78.1344 41.427 76.4292 40.429 75.1097 38.7182C71.7602 34.4003 73.1203 27.7809 77.8705 25.5609C79.799 24.6647 81.7071 25.0517 83.392 26.2534C85.0566 27.4347 85.8483 29.1252 85.8889 31.1619C85.9092 31.9562 85.3002 32.1192 84.61 32.1192C83.5747 32.0988 82.5191 32.1192 81.4635 32.1192ZM79.5757 31.1008C82.2349 31.0804 82.2349 31.0804 82.1943 28.7178C82.174 27.0884 81.4027 26.1515 80.0223 26.0293C78.4389 25.9071 77.6269 26.5793 77.3224 28.2901C76.8352 30.9582 76.957 31.1008 79.5757 31.1008Z" fill="#FFF3E0"/>
<path d="M110.98 32.3835C110.98 34.3184 111 36.2737 110.98 38.2086C110.959 39.2269 111.203 39.8787 112.441 39.6546C112.705 39.6139 113.03 40.0009 113.334 40.1842C113.01 40.3675 112.705 40.673 112.38 40.6934C110.229 40.7341 108.097 40.7341 105.945 40.6934C105.641 40.6934 105.336 40.3268 105.052 40.1435C105.336 39.9805 105.641 39.6546 105.905 39.675C107.204 39.8176 107.407 39.1047 107.407 38.066C107.366 34.5425 107.346 31.0189 107.366 27.4954C107.366 26.6196 107.082 26.253 106.148 26.3141C105.783 26.3344 105.377 25.9882 104.991 25.8049C105.357 25.642 105.702 25.3364 106.067 25.3161C107.326 25.2346 108.584 25.2957 109.823 25.255C110.675 25.2346 111.061 25.4994 111.041 26.4566C110.98 28.4323 111.02 30.4283 111.02 32.4039C111 32.3835 111 32.3835 110.98 32.3835Z" fill="#FFF3E0"/>
<path d="M110.919 18.1271C110.919 19.1862 109.985 20.2861 109.051 20.3268C108.016 20.3675 107.103 19.2677 107.103 17.9642C107.103 17.0477 108.057 16.0293 108.95 16.0293C109.863 16.0293 110.899 17.1088 110.919 18.1271Z" fill="#FFF3E0"/>
<path d="M121.921 31.9969C121.921 29.5528 123.24 27.5568 125.108 26.9458C125.331 26.8643 125.839 27.0884 125.981 27.3124C127.95 30.4694 129.919 33.6466 131.827 36.8443C131.969 37.0887 131.868 37.7405 131.665 37.8627C130.487 38.5552 129.31 39.2476 128.031 39.6957C126.976 40.0623 125.94 39.5939 125.149 38.8199C123.159 36.8443 122.307 34.3391 121.921 31.9969Z" fill="#1A130D"/>
<path d="M131.949 19.2268C131.868 21.0191 131.584 22.6485 129.939 23.5854C129.635 23.7687 128.884 23.789 128.803 23.6261C127.808 21.9356 126.407 20.4284 126.367 18.3102C126.346 16.6809 127.26 15.6218 128.863 15.4181C130.203 15.2552 131.421 16.1717 131.746 17.6381C131.848 18.188 131.888 18.7583 131.949 19.2268Z" fill="#1A130D"/>
<path d="M50.4456 33.3413C50.4456 34.7263 50.5268 36.0909 50.4253 37.4758C50.2223 40.1236 47.9284 41.2642 45.736 39.7977C45.2691 39.4718 44.7413 38.7997 44.7413 38.2702C44.6398 34.9299 44.6195 31.5693 44.721 28.2291C44.7413 27.0682 45.8578 26.172 46.9743 26.0294C48.4968 25.8461 49.6945 26.3146 50.0193 27.5977C50.405 29.0234 50.4253 30.5306 50.5674 32.0174C50.608 32.4655 50.5674 32.9136 50.5674 33.3617C50.5471 33.3413 50.5065 33.3413 50.4456 33.3413Z" fill="#1A130D"/>
<path d="M79.5755 31.1007C76.9568 31.1211 76.835 30.9582 77.3222 28.2901C77.6267 26.5996 78.4387 25.9071 80.0221 26.0293C81.4025 26.1311 82.1739 27.0884 82.1942 28.7178C82.2348 31.0804 82.2348 31.0804 79.5755 31.1007Z" fill="#1A130D"/>
</g>
<defs>
<clipPath id="clip0_608_4102">
<rect width="176" height="61" fill="white"/>
</clipPath>
</defs>
</svg>
