<svg width="199" height="62" viewBox="0 0 199 62" fill="none" xmlns="http://www.w3.org/2000/svg">
<path d="M0 61.3779C0 40.9532 0 20.5284 0 0C66.5 0 133 0 199.5 0C199.5 20.4247 199.5 40.9532 199.5 61.3779C133 61.3779 66.5 61.3779 0 61.3779ZM130.5 33.7993C130.6 31.4147 130.6 28.9264 130.6 26.5418C130.6 25.7124 130.5 24.8829 129.5 24.8829C128.6 24.8829 127.6 24.9866 126.7 25.2977C125.9 25.6087 125.4 25.6087 124.7 25.194C123.1 24.2609 121.4 24.2609 119.9 25.0903C116.2 27.2676 115.6 32.4515 118.3 35.5619C120.2 37.8428 122.3 38.0502 125.1 36.9097C126.1 36.495 126.5 36.5987 126.6 37.7391C126.7 38.8796 126.6 40.1237 126.6 41.2642C126.6 42.7157 126.9 42.9231 128.7 42.9231C130.2 42.9231 130.5 42.612 130.5 41.2642C130.5 38.8796 130.5 36.3913 130.5 33.7993ZM177 31.2074C177 29.5485 177.1 27.8896 177 26.3344C177 25.8161 176.5 25.0903 176.2 25.0903C175.4 24.9866 174.4 24.8829 173.6 25.194C172.8 25.6087 172.2 25.505 171.4 25.2977C166.9 23.7425 163.8 25.7124 163.3 30.5853C162.8 35.6656 167 39.2943 171.3 37.3244C172.2 36.9097 172.8 36.806 173.7 37.3244C174.3 37.6355 175.2 37.5318 175.9 37.4281C176.7 37.3244 177 36.806 177 35.9766C176.9 34.3177 177 32.7625 177 31.2074ZM51.5 31.1037C51.5 30.2742 51.5 29.4448 51.5 28.6154C51.5 27.786 51.5 26.9565 51.5 26.1271C51.5 25.4013 51.3 24.7793 50.5 24.7793C49.6 24.7793 48.7 24.8829 48 25.194C47.3 25.505 46.7 25.505 46 25.194C44.1 24.0535 41.5 24.3645 39.9 25.8161C38.1 27.3712 37.7 29.4448 37.9 31.7258C38.1 35.3545 40.4 37.8428 43.8 37.4281C45.9 37.2207 47.9 36.5987 50 37.2207C50.9 37.4281 51.5 36.806 51.5 35.6656C51.5 34.2141 51.5 32.6589 51.5 31.1037ZM105.9 31.2074C105.9 29.6522 106 27.9933 105.9 26.4381C105.9 25.9197 105.6 25.0903 105.3 25.0903C104.3 24.9866 103.3 24.8829 102.4 25.2977C101.6 25.6087 101 25.7124 100.2 25.194C98.7 24.3645 95.9 24.6756 94.5 25.7124C92.7 27.1639 92.2 29.2375 92.2 31.4147C92.2 36.0803 96.2 39.2943 100.6 36.9097C100.9 36.7023 101.5 36.806 101.9 36.806C102.8 36.9097 103.8 37.1171 104.7 37.2207C105.5 37.2207 105.8 36.7023 105.8 35.8729C105.9 34.3177 105.9 32.7625 105.9 31.2074ZM90.5 32.4515C90.5 31.2074 90.6 30.0669 90.5 28.8227C90.2 25.9197 89.3 25.194 87.1 24.6756C85.6 24.3645 84.3 24.7793 83.1 25.7124C82.4 26.3344 81.7 26.3344 81 25.6087C79.4 24.1572 76.5 24.1572 75.1 25.7124C74.7 26.2308 74.7 27.1639 74.5 27.9933C75 27.9933 75.6 28.2007 76.1 28.097C77.4 27.786 78.5 28.7191 78.5 30.0669C78.5 31.9331 78.5 33.903 78.5 35.7692C78.5 36.5987 78.7 37.1171 79.6 37.2207C80 37.2207 80.4 37.3244 80.8 37.2207C82.3 37.2207 82.6 36.9097 82.6 35.3545C82.6 33.592 82.6 31.8294 82.6 30.0669C82.6 28.8227 83.5 27.8896 84.7 27.8896C85.8 27.8896 86.7 28.8227 86.7 30.0669C86.7 31.9331 86.7 33.903 86.7 35.7692C86.7 37.1171 87.4 37.2207 88.4 37.2207C90 37.2207 90.5 36.9097 90.6 35.7692C90.5 34.7324 90.5 33.592 90.5 32.4515ZM24 31C24 32.5552 24 34.0067 24 35.5619C24 37.1171 24.3 37.3244 25.9 37.3244C27.7 37.3244 27.9 37.1171 27.9 35.5619C27.9 33.6957 27.9 31.7258 28 29.8595C28.1 28.8227 29.4 27.8896 30.5 27.9933C31.5 28.097 32.1 28.9264 32.1 30.1706C32.1 31.9331 32.1 33.592 32.1 35.3545C32.1 37.1171 32.4 37.4281 34.2 37.4281C35.9 37.4281 36.2 37.1171 36.2 35.4582C36.2 33.0736 36.2 30.7926 36 28.5117C35.9 27.6823 35.7 26.7492 35.2 26.1271C34.1 24.4682 31.7 24.2609 29.6 25.2977C29.1 25.505 28.5 25.6087 28 25.505C27.1 25.4013 26.2 25.0903 25.4 24.9866C24.4 24.8829 23.9 25.505 23.9 26.5418C24 27.9933 24 29.4448 24 31ZM54 31C54 32.5552 54 34.1104 54 35.6656C54 37.0134 54.4 37.3244 55.9 37.3244C57.5 37.3244 57.9 37.0134 57.9 35.6656C57.9 33.7993 57.9 31.9331 58 30.0669C58 28.9264 59.3 27.8896 60.3 27.9933C61.5 28.097 62.2 28.9264 62.2 30.2742C62.2 32.1405 62.1 33.903 62.2 35.6656C62.2 36.1839 62.7 37.0134 63.1 37.2207C63.7 37.5318 64.5 37.4281 65.2 37.2207C65.6 37.1171 66 36.495 66 36.1839C66 33.4883 66.1 30.7926 65.9 28.2007C65.7 25.8161 64.8 24.8829 62.5 24.7793C61.5 24.6756 60.5 25.194 59.5 25.4013C59 25.505 58.5 25.6087 58 25.505C57.1 25.4013 56.2 25.0903 55.4 24.9866C54.3 24.8829 53.9 25.505 53.9 26.5418C54 27.9933 54 29.4448 54 31ZM133 29.7559H133.1C133.1 30.1706 133 30.5853 133 31C132.8 34.214 133.7 36.2876 136 37.2207C137.9 37.9465 139.9 38.0502 141.9 37.3244C143.7 36.5987 145 35.3545 145.1 33.2809C145.2 31 145.2 28.7191 145.2 26.4381C145.2 25.194 144.7 24.8829 143.1 24.8829C142 24.8829 141.2 25.0903 141.3 26.5418C141.3 28.2007 141.3 29.8595 141.3 31.6221C141.3 33.2809 140.4 34.3177 139.1 34.4214C137.9 34.4214 137 33.2809 136.8 31.8294C136.8 31.5184 136.8 31.2074 136.8 30.8963C136.8 29.4448 136.8 27.9933 136.8 26.5418C136.8 25.4013 136.3 24.9866 135.2 24.9866C133.3 24.9866 133 25.194 132.9 26.5418C133 27.4749 133 28.6154 133 29.7559ZM161.4 31.9331C161.4 31.311 161.4 30.689 161.4 30.1706C161.4 29.5485 161.4 28.9264 161.4 28.2007C161.3 26.2308 160.5 25.194 158.7 24.6756C156.9 24.1572 154.3 24.9866 153.6 26.3344C153.4 26.6455 153.3 27.1639 153.3 27.5786C153.3 28.6154 153.7 28.8227 154.5 28.408C156.2 27.5786 157.4 28.3043 157.5 30.2742C157.6 31.8294 157.5 33.3846 157.5 34.9398C157.5 37.2207 158.1 37.7391 160.3 37.4281C161.1 37.3244 161.5 36.9097 161.5 35.9766C161.4 34.5251 161.4 33.2809 161.4 31.9331ZM108.6 31.5184C108.7 32.8662 108.7 34.214 108.7 35.5619C108.7 37.1171 109 37.3244 110.7 37.3244C112.2 37.3244 112.5 37.0134 112.5 35.5619C112.5 33.6957 112.6 31.8294 112.8 30.0669C112.9 28.9264 113.7 28.408 114.7 28.3043C115.1 28.2007 115.9 28.097 115.9 27.8896C116 27.0602 116 26.1271 115.8 25.2977C115.8 25.0903 115.1 24.8829 114.7 24.9866C114.2 25.0903 113.8 25.505 113.3 25.7124C113 25.8161 112.6 25.8161 112.5 25.7124C111.7 24.6756 110.7 25.0903 109.7 25.0903C108.8 25.0903 108.5 25.6087 108.5 26.5418C108.6 28.097 108.6 29.8595 108.6 31.5184ZM72.7 31.1037C72.7 29.6522 72.7 28.2007 72.7 26.6455C72.7 25.0903 72.5 24.8829 71 24.8829C70.7 24.8829 70.4 24.8829 70.1 24.8829C69.1 24.8829 68.7 25.2977 68.7 26.3344C68.7 29.5485 68.7 32.7625 68.7 35.9766C68.7 36.806 69.1 37.2207 69.9 37.3244C70.4 37.3244 70.9 37.4281 71.4 37.3244C72.3 37.3244 72.8 36.806 72.8 35.7692C72.7 34.214 72.7 32.6589 72.7 31.1037ZM151.6 30.8963C151.5 29.6522 151.5 28.5117 151.5 27.2676C151.6 24.2609 151.3 24.8829 148.9 24.7793C147.9 24.7793 147.5 25.194 147.5 26.2308C147.5 29.3411 147.5 32.4515 147.5 35.5619C147.5 36.806 148 37.2207 149.3 37.2207C151.1 37.2207 151.5 36.9097 151.5 35.5619C151.6 34.1104 151.6 32.5552 151.6 30.8963ZM149.6 17.8328C148.4 17.8328 147.2 18.8696 147.2 20.1137C147.2 21.3579 148.2 22.3946 149.4 22.3946C150.8 22.3946 151.9 21.3579 151.9 20.1137C152 18.8696 150.9 17.8328 149.6 17.8328ZM70.7 22.291C72.1 22.291 72.9 21.4615 72.9 19.9064C72.9 18.6622 71.8 17.6254 70.5 17.6254C69.4 17.6254 68.3 18.8696 68.3 20.01C68.4 21.5652 69.3 22.3946 70.7 22.291Z" fill="#1A130D"/>
<path d="M130.5 33.799C130.5 36.2873 130.5 38.7756 130.5 41.3676C130.5 42.7154 130.2 43.0264 128.7 43.0264C126.9 43.0264 126.6 42.8191 126.6 41.3676C126.6 40.2271 126.6 38.983 126.6 37.8425C126.5 36.702 126.2 36.4947 125.1 37.0131C122.4 38.2572 120.3 37.9462 118.3 35.6652C115.6 32.5549 116.2 27.3709 119.9 25.1937C121.4 24.3642 123.1 24.3642 124.7 25.2973C125.4 25.7121 125.9 25.7121 126.7 25.401C127.6 25.09 128.6 24.9863 129.5 24.9863C130.5 24.9863 130.6 25.8157 130.6 26.6452C130.6 29.0298 130.6 31.4144 130.5 33.799ZM126.7 31.4144C126.7 29.5482 125.5 27.993 124.1 27.993C122.5 27.993 120.9 29.3408 120.9 30.9997C120.9 32.7622 122.3 34.5248 123.8 34.5248C125.3 34.4211 126.7 32.9696 126.7 31.4144Z" fill="#FFF3E0"/>
<path d="M177 31.2069C177 32.7621 177 34.3173 177 35.8725C177 36.7019 176.7 37.2203 175.9 37.324C175.2 37.4276 174.3 37.5313 173.7 37.2203C172.8 36.8056 172.1 36.9093 171.3 37.2203C167 39.1902 162.8 35.5614 163.3 30.4812C163.8 25.6082 166.9 23.5347 171.4 25.1935C172.2 25.5046 172.8 25.5046 173.6 25.0899C174.3 24.7788 175.3 24.7788 176.2 24.9862C176.6 25.0899 177 25.8156 177 26.2303C177 27.8892 177 29.548 177 31.2069ZM173.2 31.3106C173.2 29.4444 171.9 27.8892 170.1 27.8892C168.7 27.8892 167.2 29.548 167.2 31.1032C167.2 32.9694 168.6 34.421 170.5 34.421C171.9 34.5246 173.2 32.9694 173.2 31.3106Z" fill="#FFF3E0"/>
<path d="M51.5 31.1037C51.5 32.6589 51.4 34.2141 51.5 35.7693C51.6 36.9097 50.9 37.6355 50 37.3244C47.9 36.8061 45.9 37.3244 43.8 37.5318C40.4 37.9465 38.1 35.3545 37.9 31.8295C37.8 29.5485 38.2 27.4749 39.9 25.9198C41.5 24.4683 44.1 24.1572 46 25.2977C46.7 25.7124 47.2 25.7124 48 25.2977C48.8 24.9867 49.7 24.883 50.5 24.883C51.3 24.883 51.5 25.505 51.5 26.2308C51.5 27.0602 51.5 27.8897 51.5 28.7191C51.6 29.4448 51.5 30.2743 51.5 31.1037ZM47.8 31.1037C47.8 29.4448 46.5 27.9933 45.1 27.9933C43.3 27.9933 41.9 29.4448 42 31.3111C42 33.0736 43.4 34.5251 45.1 34.5251C46.6 34.5251 47.8 32.9699 47.8 31.1037Z" fill="#FFF3E0"/>
<path d="M105.9 31.2078C105.9 32.763 105.9 34.4219 105.9 35.9771C105.9 36.8065 105.6 37.3249 104.8 37.3249C103.9 37.3249 102.9 37.0139 102 36.9102C101.6 36.9102 101.1 36.8065 100.7 37.0139C96.2998 39.3985 92.2998 36.0807 92.2998 31.5189C92.2998 29.3416 92.7998 27.268 94.5998 25.8165C95.8998 24.7797 98.7998 24.365 100.3 25.2981C101.1 25.7129 101.6 25.7129 102.5 25.4018C103.4 25.0908 104.4 25.0908 105.4 25.1945C105.6 25.1945 106 26.0239 106 26.5423C106 27.9938 106 29.549 105.9 31.2078ZM102.2 31.2078C102.2 29.549 100.8 27.8901 99.1998 27.8901C97.8998 27.8901 96.3998 29.549 96.3998 31.1042C96.3998 32.763 97.7998 34.3182 99.3998 34.4219C101 34.5256 102.2 33.1777 102.2 31.2078Z" fill="#FFF3E0"/>
<path d="M90.5004 32.4515C90.5004 33.592 90.5004 34.8362 90.5004 35.9766C90.5004 37.1171 90.0004 37.4281 88.3004 37.4281C87.3004 37.4281 86.6004 37.2208 86.6004 35.9766C86.6004 34.1104 86.6004 32.1405 86.6004 30.2743C86.6004 29.0301 85.7004 28.097 84.6004 28.097C83.4004 28.097 82.5004 29.0301 82.5004 30.2743C82.5004 32.0368 82.5004 33.7994 82.5004 35.5619C82.5004 37.0134 82.2004 37.3244 80.7004 37.4281C80.3004 37.4281 79.9004 37.4281 79.5004 37.4281C78.6004 37.3244 78.4004 36.7024 78.4004 35.9766C78.4004 34.1104 78.4004 32.1405 78.4004 30.2743C78.4004 28.8228 77.2004 27.9933 76.0004 28.3044C75.5004 28.4081 75.0004 28.2007 74.4004 28.2007C74.6004 27.475 74.5004 26.4382 75.0004 25.9198C76.4004 24.3646 79.4004 24.4683 80.9004 25.8161C81.6004 26.4382 82.3004 26.4382 83.0004 25.9198C84.2004 24.9867 85.5004 24.5719 87.0004 24.883C89.2004 25.4014 90.1004 26.0234 90.4004 29.0301C90.6004 29.9632 90.5004 31.2074 90.5004 32.4515Z" fill="#FFF3E0"/>
<path d="M24 31C24 29.4449 24 27.9934 24 26.4382C24 25.2977 24.4 24.7793 25.5 24.883C26.4 24.9867 27.3 25.2977 28.1 25.4014C28.6 25.5051 29.2 25.4014 29.7 25.194C31.8 24.1572 34.1 24.4683 35.3 26.0235C35.8 26.6455 36.1 27.5786 36.1 28.4081C36.2 30.689 36.3 33.0736 36.3 35.3546C36.3 37.0134 36 37.3245 34.3 37.3245C32.5 37.3245 32.2 37.0134 32.2 35.2509C32.2 33.4883 32.2 31.8295 32.2 30.0669C32.2 28.8228 31.6 27.9934 30.6 27.8897C29.5 27.786 28.2 28.7191 28.1 29.7559C28 31.6221 28 33.592 28 35.4582C28 37.0134 27.8 37.2208 26 37.2208C24.4 37.2208 24.1 36.9097 24.1 35.4582C24 34.0067 24 32.5552 24 31Z" fill="#FFF3E0"/>
<path d="M54 31.0002C54 29.445 54 27.9935 54 26.4383C54 25.4015 54.4 24.7795 55.5 24.8831C56.4 24.9868 57.3 25.2979 58.1 25.4015C58.6 25.5052 59.1 25.4015 59.6 25.2979C60.6 25.0905 61.6 24.6758 62.6 24.6758C64.9 24.8831 65.8 25.7126 66 28.0972C66.2 30.7928 66.1 33.4885 66.1 36.0805C66.1 36.4952 65.6 37.0136 65.3 37.1173C64.6 37.3246 63.8 37.4283 63.2 37.1173C62.7 36.9099 62.3 36.1841 62.3 35.5621C62.2 33.7995 62.3 31.9333 62.3 30.1708C62.3 28.8229 61.6 27.8898 60.4 27.8898C59.4 27.7861 58.1 28.9266 58.1 29.9634C58 31.8296 58 33.6958 58 35.5621C58 36.9099 57.6 37.2209 56 37.2209C54.5 37.2209 54.1 36.9099 54.1 35.5621C54.1 34.1106 54.1 32.5554 54 31.0002Z" fill="#FFF3E0"/>
<path d="M133 29.7559C133 28.6154 133 27.4749 133 26.4382C133 25.0903 133.3 24.883 135.3 24.883C136.3 24.883 136.9 25.2977 136.9 26.4382C136.9 27.8897 136.9 29.3412 136.9 30.7927C136.9 31.1037 136.9 31.4147 136.9 31.7258C137 33.281 138 34.4214 139.2 34.3178C140.5 34.3178 141.4 33.1773 141.4 31.5184C141.4 29.8596 141.4 28.2007 141.4 26.4382C141.4 25.0903 142.1 24.7793 143.2 24.7793C144.8 24.7793 145.3 24.9867 145.3 26.3345C145.3 28.6154 145.3 30.8964 145.2 33.1773C145.1 35.2509 143.8 36.5987 142 37.2208C140.1 37.9465 138 37.8428 136.1 37.1171C133.8 36.2877 132.9 34.1104 133.1 30.8964C133.1 30.4816 133.2 30.0669 133.2 29.6522C133.1 29.7559 133 29.7559 133 29.7559Z" fill="#FFF3E0"/>
<path d="M161.4 31.9329C161.4 33.177 161.4 34.5248 161.4 35.769C161.4 36.7021 161 37.1168 160.2 37.2205C158 37.5315 157.4 37.1168 157.4 34.7322C157.4 33.177 157.4 31.6218 157.4 30.0667C157.3 28.0968 156.1 27.371 154.4 28.2004C153.6 28.6152 153.2 28.4078 153.2 27.371C153.2 26.9563 153.3 26.5416 153.5 26.1269C154.2 24.779 156.8 24.0533 158.6 24.468C160.4 24.9864 161.2 26.0232 161.3 27.9931C161.3 28.6151 161.3 29.2372 161.3 29.963C161.4 30.7924 161.4 31.3108 161.4 31.9329Z" fill="#FFF3E0"/>
<path d="M108.6 31.5187C108.6 29.7561 108.6 28.0973 108.6 26.3347C108.6 25.4016 108.9 24.8832 109.8 24.8832C110.8 24.8832 111.8 24.4685 112.6 25.5053C112.7 25.609 113.2 25.609 113.4 25.5053C113.9 25.2979 114.3 24.8832 114.8 24.7795C115.1 24.6759 115.8 24.8832 115.9 25.0906C116 25.92 116.1 26.8531 116 27.6825C116 27.8899 115.2 27.9936 114.8 28.0973C113.7 28.2009 113 28.7193 112.9 29.8598C112.7 31.726 112.7 33.5922 112.6 35.3548C112.6 36.8063 112.3 37.1173 110.8 37.1173C109.1 37.1173 108.8 36.91 108.8 35.3548C108.7 34.2143 108.7 32.8665 108.6 31.5187Z" fill="#FFF3E0"/>
<path d="M72.6996 31.1039C72.6996 32.6591 72.6996 34.2142 72.6996 35.7694C72.6996 36.8062 72.1996 37.3246 71.2996 37.3246C70.7996 37.3246 70.2996 37.3246 69.7996 37.3246C68.9996 37.3246 68.5996 36.8062 68.5996 35.9768C68.5996 32.7627 68.5996 29.5487 68.5996 26.3346C68.5996 25.2979 68.9996 24.7795 69.9996 24.8831C70.2996 24.8831 70.5996 24.8831 70.8996 24.8831C72.3996 24.8831 72.5996 25.0905 72.5996 26.6457C72.6996 28.2009 72.6996 29.6524 72.6996 31.1039Z" fill="#FFF3E0"/>
<path d="M151.6 30.8962C151.6 32.4514 151.6 34.1102 151.6 35.6654C151.6 37.0132 151.1 37.3243 149.4 37.3243C148.1 37.3243 147.6 36.9096 147.6 35.6654C147.6 32.5551 147.6 29.4447 147.6 26.3343C147.6 25.2975 148 24.7791 149 24.8828C151.3 24.8828 151.7 24.2607 151.6 27.3711C151.5 28.5116 151.5 29.7557 151.6 30.8962Z" fill="#FFF3E0"/>
<path d="M149.6 17.833C150.9 17.833 151.9 18.8698 151.9 20.1139C151.9 21.3581 150.8 22.3949 149.4 22.3949C148.2 22.3949 147.2 21.2544 147.2 20.1139C147.2 18.8698 148.4 17.833 149.6 17.833Z" fill="#FFF3E0"/>
<path d="M70.6998 22.2914C69.1998 22.2914 68.3998 21.4619 68.2998 20.1141C68.2998 18.9736 69.3998 17.7295 70.4998 17.7295C71.7998 17.7295 72.8998 18.6626 72.8998 20.0104C72.9998 21.4619 72.0998 22.2914 70.6998 22.2914Z" fill="#FFF3E0"/>
<path d="M126.7 31.4147C126.7 32.9699 125.3 34.4214 123.8 34.4214C122.4 34.4214 121 32.6589 120.9 30.8963C120.9 29.3412 122.4 27.8896 124.1 27.8896C125.6 27.9933 126.7 29.5485 126.7 31.4147Z" fill="#1A130D"/>
<path d="M173.2 31.3111C173.2 32.9699 171.9 34.4214 170.5 34.4214C168.7 34.4214 167.2 32.9699 167.2 31.1037C167.2 29.5485 168.7 27.8896 170.1 27.8896C171.9 27.9933 173.2 29.4448 173.2 31.3111Z" fill="#1A130D"/>
<path d="M47.8 31.1035C47.8 32.9698 46.6 34.5249 45.1 34.5249C43.4 34.5249 42 33.0734 42 31.3109C42 29.4447 43.3 27.9932 45.1 27.9932C46.5 27.9932 47.8 29.4447 47.8 31.1035Z" fill="#1A130D"/>
<path d="M102.2 31.2074C102.2 33.0736 101 34.5251 99.4002 34.4214C97.8002 34.4214 96.3002 32.7626 96.4002 31.1037C96.4002 29.5485 97.9002 27.8896 99.2002 27.8896C100.8 27.9933 102.2 29.5485 102.2 31.2074Z" fill="#1A130D"/>
</svg>
