<svg width="128" height="59" viewBox="0 0 128 59" fill="none" xmlns="http://www.w3.org/2000/svg">
<path d="M0 58.2C0 38.8 0 19.4 0 0C42.2 0 84.3 0 126.5 0C126.5 19.4 126.5 38.8 126.5 58.2C84.3 58.2 42.2 58.2 0 58.2ZM70.6 30.4C70.5 30.4 70.3 30.4 70.2 30.5C70 30 69.7 29.6 69.6 29.1C68.6 24.9 67.6 20.8 66.6 16.6C66.3 15.5 65.7 15.1 64.7 15.1C63.5 15.1 62.4 15.1 61.2 15.1C60.1 15.1 59.5 15.5 59.4 16.7C59.2 19.4 58.9 22.2 58.6 24.9C58.1 29.7 57.7 34.6 57.3 39.4C57.2 40.3 57.6 40.8 58.6 40.8C59.4 40.8 60.2 40.8 61 40.8C62.1 40.8 62.6 40.3 62.6 39.2C62.8 35 63 30.9 63.2 26.7C63.2 26.2 63.4 25.8 63.5 25.3C63.6 25.3 63.8 25.3 63.9 25.3C64.2 26.2 64.6 27.1 64.8 28.1C65.7 31.9 66.6 35.7 67.6 39.5C67.7 40 68.4 40.6 69 40.8C69.7 41 70.6 40.9 71.4 40.9C72.2 40.9 72.6 40.6 72.8 39.8C73.9 35.7 74.9 31.7 76 27.6C76.2 27 76.4 26.3 76.7 25.7C76.9 25.7 77 25.7 77.2 25.7C77.4 26.5 77.6 27.3 77.7 28.1C78 31.8 78.2 35.5 78.5 39.2C78.6 40.6 78.9 40.9 80.3 40.8C80.6 40.8 81 40.8 81.3 40.8C83.4 40.8 83.6 40.6 83.5 38.4C82.9 31.1 82.2 23.8 81.6 16.5C81.5 15.4 80.9 15.1 79.9 15.1C78.6 15.1 77.3 15.1 76 15.1C75.2 15.1 74.7 15.4 74.5 16.2C73.4 20.6 72.3 24.9 71.2 29.2C70.9 29.6 70.8 30 70.6 30.4ZM23.5 24.9C23.6 24.9 23.7 24.8 23.9 24.8C24.2 25.2 24.5 25.5 24.7 26C26.4 29.9 28.2 33.9 29.9 37.9C31.4 41.3 31 40.7 34.3 40.7C36.5 40.7 36.7 40.4 36.6 38.2C36.6 37.9 36.6 37.5 36.6 37.2C36.6 30.8 36.6 24.5 36.6 18.1C36.6 15.1 36.5 15.1 33.6 15C32 14.9 31.6 15.3 31.6 16.9C31.8 20.8 31.9 24.7 32.1 28.6C32.1 29.1 32 29.7 31.9 30.5C31.5 30.1 31.4 30 31.3 29.9C29.5 25.9 27.6 21.9 25.8 17.9C24.5 15 24.8 15 21.7 15C21.3 15 21 15 20.6 15C18.9 15 18.7 15.2 18.7 16.9C18.7 23.7 18.8 30.5 18.7 37.2C18.7 41.1 18.2 40.6 22.4 40.6C23.4 40.6 23.8 40.1 23.8 39.1C23.7 34.8 23.5 30.5 23.4 26.3C23.3 25.9 23.4 25.4 23.5 24.9ZM96.1 40.7C101 41.2 105 37.3 106.2 33.9C107.4 30.3 107.7 26.6 106.7 22.8C105.6 18.7 103.2 15.9 99 14.8C94.5 13.6 88.2 14.9 85.7 20.4C83.9 24.2 83.7 28.1 84.7 32.1C85.2 34.1 86.1 35.9 87.5 37.4C89.8 40.1 92.8 40.9 96.1 40.7ZM39.2 28.1H39.1C39.1 30.1 39.1 32.1 39.1 34.1C39.1 35.9 39.1 37.7 39.1 39.5C39.1 40.3 39.5 40.8 40.4 40.8C44 40.8 47.6 40.8 51.1 40.8C53.9 40.8 53.9 40.8 53.9 38C53.9 36.5 53.6 36.3 52.1 36.4C50 36.5 47.9 36.5 45.7 36.5C44.9 36.5 44.3 36.2 44.3 35.3C44.3 33.9 44.3 32.5 44.3 31.1C44.3 30 44.9 29.5 45.9 29.6C47.2 29.6 48.6 29.6 49.9 29.7C50.9 29.7 51.5 29.3 51.4 28.2C51.4 27.8 51.4 27.4 51.4 27.1C51.5 26 51 25.5 49.9 25.5C48.5 25.5 47.2 25.5 45.8 25.5C44.5 25.5 44.2 25.2 44.2 23.9C44.2 22.9 44.2 22 44.3 21C44.4 19.6 44.7 19.4 46.1 19.5C47.9 19.6 49.8 19.6 51.6 19.5C52.1 19.5 52.9 19 53 18.6C53.3 17.7 53.2 16.7 53.2 15.7C53.2 15.5 52.6 15.3 52.3 15.3C48.4 15.3 44.6 15.3 40.7 15.3C39.6 15.3 39.2 15.7 39.2 16.8C39.2 20.4 39.2 24.2 39.2 28.1Z" fill="#1A130D"/>
<path d="M70.5999 30.3996C70.6999 29.9996 70.8999 29.5996 70.9999 29.1996C72.0999 24.8996 73.2999 20.4996 74.2999 16.1996C74.4999 15.2996 75.0999 15.0996 75.7999 15.0996C77.0999 15.0996 78.3999 15.0996 79.6999 15.0996C80.5999 15.0996 81.2999 15.3996 81.3999 16.4996C81.9999 23.7996 82.6999 31.0996 83.2999 38.3996C83.4999 40.5996 83.2999 40.7996 81.0999 40.7996C80.7999 40.7996 80.3999 40.7996 80.0999 40.7996C78.6999 40.7996 78.3999 40.5996 78.2999 39.1996C77.9999 35.4996 77.7999 31.7996 77.4999 28.0996C77.3999 27.2996 77.1999 26.4996 76.9999 25.6996C76.7999 25.6996 76.6999 25.6996 76.4999 25.6996C76.2999 26.2996 75.9999 26.9996 75.7999 27.5996C74.6999 31.5996 73.5999 35.6996 72.5999 39.7996C72.3999 40.5996 71.8999 40.8996 71.1999 40.8996C70.3999 40.8996 69.5999 41.0996 68.7999 40.7996C68.1999 40.5996 67.4999 39.9996 67.3999 39.4996C66.3999 35.6996 65.4999 31.8996 64.5999 28.0996C64.3999 27.1996 63.9999 26.1996 63.6999 25.2996C63.5999 25.2996 63.3999 25.2996 63.2999 25.2996C63.1999 25.7996 62.9999 26.1996 62.9999 26.6996C62.7999 30.8996 62.5999 34.9996 62.3999 39.1996C62.3999 40.2996 61.8999 40.7996 60.7999 40.7996C59.9999 40.7996 59.1999 40.7996 58.3999 40.7996C57.3999 40.7996 56.9999 40.3996 57.0999 39.3996C57.4999 34.5996 57.9999 29.6996 58.3999 24.8996C58.6999 22.1996 58.9999 19.3996 59.1999 16.6996C59.2999 15.4996 59.8999 15.0996 60.9999 15.0996C62.1999 15.0996 63.2999 15.0996 64.4999 15.0996C65.5999 15.0996 66.1999 15.5996 66.3999 16.5996C67.3999 20.7996 68.3999 24.8996 69.3999 29.0996C69.4999 29.5996 69.7999 29.9996 69.9999 30.4996C70.2999 30.4996 70.4999 30.3996 70.5999 30.3996Z" fill="#FFF3E0"/>
<path d="M23.4996 24.8996C23.3996 25.3996 23.2996 25.8996 23.2996 26.2996C23.3996 30.5996 23.5996 34.8996 23.6996 39.0996C23.6996 40.0996 23.2996 40.5996 22.2996 40.5996C17.9996 40.5996 18.4996 41.0996 18.5996 37.1996C18.6996 30.3996 18.5996 23.5996 18.5996 16.8996C18.5996 15.1996 18.8996 14.8996 20.4996 14.9996C20.8996 14.9996 21.1996 14.9996 21.5996 14.9996C24.6996 14.9996 24.3996 14.9996 25.6996 17.8996C27.5996 21.8996 29.3996 25.8996 31.1996 29.8996C31.2996 29.9996 31.3996 30.0996 31.7996 30.4996C31.8996 29.6996 31.9996 29.0996 31.9996 28.5996C31.8996 24.6996 31.6996 20.7996 31.4996 16.8996C31.3996 15.2996 31.8996 14.8996 33.4996 14.9996C36.3996 15.0996 36.4996 15.0996 36.4996 18.0996C36.4996 24.4996 36.4996 30.7996 36.4996 37.1996C36.4996 37.4996 36.4996 37.8996 36.4996 38.1996C36.5996 40.3996 36.3996 40.6996 34.1996 40.6996C30.8996 40.6996 31.3996 41.2996 29.7996 37.8996C28.0996 33.8996 26.2996 29.9996 24.5996 25.9996C24.3996 25.5996 23.9996 25.1996 23.7996 24.7996C23.6996 24.8996 23.5996 24.8996 23.4996 24.8996Z" fill="#FFF3E0"/>
<path d="M96.1003 40.7002C92.8003 40.9002 89.8003 40.1002 87.5003 37.5002C86.1003 35.9002 85.2003 34.1002 84.7003 32.2002C83.7003 28.2002 83.9003 24.3002 85.7003 20.5002C88.2003 15.0002 94.6003 13.7002 99.0003 14.9002C103.1 16.0002 105.6 18.8002 106.7 22.9002C107.7 26.7002 107.4 30.3002 106.2 34.0002C105.1 37.2002 101 41.1002 96.1003 40.7002ZM90.0003 27.7002C90.4003 29.7002 90.6003 31.8002 91.2003 33.9002C91.7003 35.9002 93.3003 36.8002 95.7003 36.8002C97.7003 36.8002 99.4003 35.8002 100 34.0002C101.5 30.0002 101.4 26.0002 100.4 22.0002C99.9003 19.9002 98.0003 18.4002 95.8003 18.4002C93.4003 18.4002 91.5003 19.7002 91.0003 22.0002C90.6003 23.8002 90.4003 25.7002 90.0003 27.7002Z" fill="#FFF3E0"/>
<path d="M39.1996 28.1C39.1996 24.2 39.1996 20.4 39.1996 16.5C39.1996 15.4 39.5996 15 40.6996 15C44.5996 15 48.3996 15 52.2996 15C52.5996 15 53.1996 15.3 53.1996 15.4C53.1996 16.4 53.2996 17.4 52.9996 18.3C52.8996 18.7 52.0996 19.2 51.5996 19.2C49.7996 19.3 47.8996 19.3 46.0996 19.2C44.6996 19.2 44.3996 19.3 44.2996 20.7C44.1996 21.7 44.1996 22.6 44.1996 23.6C44.1996 24.9 44.5996 25.2 45.7996 25.2C47.1996 25.2 48.4996 25.2 49.8996 25.2C50.9996 25.2 51.4996 25.7 51.3996 26.8C51.3996 27.2 51.3996 27.5 51.3996 27.9C51.3996 29 50.8996 29.4 49.8996 29.4C48.5996 29.4 47.1996 29.4 45.8996 29.3C44.7996 29.3 44.2996 29.8 44.2996 30.8C44.2996 32.2 44.2996 33.6 44.2996 35C44.2996 35.9 44.8996 36.2 45.6996 36.2C47.7996 36.2 49.8996 36.2 52.0996 36.1C53.5996 36.1 53.8996 36.3 53.8996 37.7C53.9996 40.5 53.9996 40.5 51.0996 40.5C47.4996 40.5 43.8996 40.5 40.3996 40.5C39.4996 40.5 39.0996 40.1 39.0996 39.2C39.0996 37.4 39.0996 35.6 39.0996 33.8C39.0996 31.8 39.0996 29.8 39.0996 27.8C39.0996 28.1 39.1996 28.1 39.1996 28.1Z" fill="#FFF3E0"/>
<path d="M90 27.7004C90.4 25.7004 90.6 23.8004 91 22.0004C91.5 19.7004 93.3 18.4004 95.8 18.4004C98 18.4004 99.9 19.9004 100.4 22.0004C101.4 26.0004 101.5 30.1004 100 34.0004C99.4 35.7004 97.6 36.8004 95.7 36.8004C93.3 36.8004 91.7 35.8004 91.2 33.9004C90.6 31.8004 90.4 29.7004 90 27.7004Z" fill="#1A130D"/>
</svg>
