<svg width="144" height="62" viewBox="0 0 144 62" fill="none" xmlns="http://www.w3.org/2000/svg">
<g clip-path="url(#clip0_608_4962)">
<path d="M144.339 61.5282C96.2259 61.5282 48.1129 61.5282 0 61.5282C0 41.0692 0 20.629 0 0.169922C48.0941 0.169922 96.1882 0.169922 144.339 0.169922C144.339 20.7045 144.339 41.1069 144.339 61.5282ZM103.209 34.5955C103.209 37.0113 103.228 39.4083 103.209 41.8241C103.209 42.5224 103.416 42.8433 104.169 42.7867C104.922 42.73 105.675 42.73 106.428 42.7678C107.219 42.8244 107.482 42.5224 107.482 41.7109C107.445 38.7477 107.464 35.7845 107.482 32.8214C107.501 31.4058 108.104 30.2546 109.402 29.6506C111.304 28.7447 113.129 30.0092 113.186 32.2363C113.242 33.9727 113.205 35.7279 113.205 37.4643C113.205 38.8609 113.205 40.2576 113.186 41.6542C113.167 42.4281 113.431 42.8433 114.315 42.7678C115.087 42.6923 115.878 42.7489 116.668 42.7489C117.233 42.7489 117.496 42.5413 117.478 41.9185C117.459 38.8609 117.459 35.8223 117.496 32.7647C117.496 32.1985 117.647 31.6135 117.873 31.085C118.362 29.8582 119.473 29.2542 120.885 29.3675C121.995 29.4619 122.692 30.1224 122.993 31.4625C123.106 31.9343 123.144 32.4439 123.144 32.9346C123.162 35.8412 123.162 38.7477 123.125 41.6542C123.125 42.4658 123.388 42.8433 124.235 42.7867C125.045 42.73 125.854 42.7489 126.664 42.7678C127.266 42.7867 127.586 42.5413 127.586 41.9185C127.567 38.3136 127.642 34.7087 127.529 31.1227C127.473 29.5373 126.871 27.9897 125.478 27.0838C122.579 25.1964 119.887 25.555 117.421 28.0275C117.026 28.4238 116.706 28.4616 116.367 27.952C116.122 27.5934 115.84 27.2348 115.52 26.9894C113.374 25.3663 110.344 25.5739 108.348 27.4046C108.198 27.5367 107.953 27.65 107.746 27.65C107.652 27.65 107.501 27.348 107.501 27.1781C107.482 26.5742 107.162 26.3666 106.598 26.3854C105.788 26.3854 104.979 26.3854 104.169 26.3854C103.473 26.3854 103.209 26.6874 103.209 27.4046C103.228 29.7827 103.209 32.1797 103.209 34.5955ZM16.6212 31.387C16.6212 34.8786 16.64 38.3514 16.6024 41.843C16.6024 42.5602 16.8471 42.8433 17.5624 42.8055C18.5224 42.7489 19.4824 42.7489 20.4424 42.7867C21.1765 42.8055 21.4588 42.5791 21.44 41.7864C21.3835 39.748 21.4212 37.7285 21.4024 35.6902C21.4024 34.9352 21.6847 34.5766 22.4941 34.6144C23.7741 34.6521 25.0541 34.6899 26.3153 34.6332C28.9882 34.52 31.3788 33.7462 32.7153 31.1982C34.1647 28.4427 34.1082 25.6494 32.4141 23.0259C31.1341 21.0253 29.0635 20.2515 26.8235 20.1383C23.6988 20.0061 20.5553 20.0816 17.4306 20.0816C16.8659 20.0816 16.6212 20.3836 16.6212 20.9687C16.64 24.4226 16.6212 27.8953 16.6212 31.387ZM41.92 25.9325C36.4988 25.9891 33.0541 29.4807 33.0918 34.8597C33.1482 40.1821 36.7812 43.7492 42.2024 43.5982C47.0588 43.4661 50.6541 40.1821 50.6165 34.6899C50.5788 29.3864 47.0965 25.8759 41.92 25.9325ZM73.4682 34.973C73.5624 39.2007 75.52 41.8807 79.4918 43.2585C82.56 44.3154 86.8141 43.2208 88.9035 40.7861C91.1059 38.2192 91.2753 35.1995 90.6353 32.0853C90.2776 30.2923 89.2988 28.8202 87.8494 27.7066C85.7788 26.1212 83.3506 25.6494 80.8659 26.0646C79.4729 26.2911 78.0235 26.7818 76.8753 27.5556C74.2965 29.292 73.3929 31.9532 73.4682 34.973ZM66.6918 36.0488C66.6918 37.9739 66.7294 39.8801 66.6729 41.8052C66.6541 42.5979 66.9929 42.8244 67.7082 42.8055C68.4612 42.7867 69.2141 42.7867 69.9671 42.8055C70.9271 42.8244 71.0588 42.6923 71.0588 41.7109C71.0588 37.9739 71.04 34.218 71.0212 30.481C71.0212 29.5185 71.2094 29.3109 72.0753 29.292C72.5082 29.292 72.9412 29.292 73.3741 29.3109C73.9012 29.3297 74.1459 29.141 74.1835 28.5559C74.2776 26.31 74.2965 26.31 72 26.3854C71.8494 26.3854 71.6612 26.4609 71.5671 26.3854C71.3224 26.2156 71.0023 26.008 70.9459 25.7626C70.6635 24.6679 71.2847 23.7431 72.3953 23.4789C74.1647 23.0637 74.1647 23.0637 74.1082 21.2141C74.1082 21.0065 74.1835 20.7611 74.0894 20.6101C73.92 20.327 73.6753 19.9118 73.4306 19.9118C72.3953 19.8552 71.3412 19.8552 70.3059 19.9873C68.1224 20.2704 66.8988 21.5349 66.5788 23.7243C66.5035 24.2716 66.4847 24.8189 66.4471 25.3663C66.3906 26.3477 66.2588 26.4421 65.2988 26.4232C64.9788 26.4043 64.4141 26.5364 64.3953 26.6686C64.3012 27.4235 64.2635 28.2162 64.3953 28.9711C64.4329 29.141 65.1859 29.2731 65.6188 29.2731C66.3529 29.2731 66.6729 29.5373 66.6729 30.2923C66.6729 32.2174 66.6918 34.1236 66.6918 36.0488ZM56.8094 31.4436C56.8094 28.0275 56.8094 24.5924 56.8282 21.1763C56.8282 20.3836 56.6588 19.9684 55.7553 20.0439C54.9459 20.1194 54.1365 20.0628 53.3271 20.025C52.6494 20.0061 52.3859 20.2893 52.4235 20.9687C52.4612 21.7425 52.4424 22.5352 52.4424 23.309C52.4424 29.4807 52.4424 35.6713 52.4235 41.843C52.4235 42.5224 52.7059 42.7867 53.3647 42.7678C54.2118 42.7489 55.04 42.7489 55.8871 42.7867C56.6024 42.8055 56.8471 42.5036 56.8282 41.7864C56.7906 38.3514 56.8094 34.8975 56.8094 31.4436ZM92.4612 34.6144C92.4612 35.8034 92.4612 36.9925 92.4612 38.1815C92.4612 39.4083 92.48 40.6162 92.4612 41.843C92.4612 42.5224 92.7059 42.8622 93.44 42.8055C94.1365 42.7489 94.8329 42.7867 95.5294 42.7867C96.8659 42.7867 96.8471 42.8055 96.8659 41.4278C96.8659 39.1063 96.9224 36.7848 96.8847 34.4634C96.8659 31.8022 98.7482 29.745 101.289 29.745C101.534 29.745 101.986 29.3486 102.005 29.1033C102.08 28.2351 102.061 27.3669 101.986 26.4987C101.967 26.2722 101.628 25.8947 101.44 25.8947C99.9718 25.857 98.5035 25.8947 97.6565 27.4424C97.5435 27.6311 97.28 27.7255 97.0729 27.8576C96.9788 27.6311 96.7718 27.4046 96.7906 27.197C96.8282 26.4987 96.4706 26.3477 95.8871 26.3666C95.1718 26.3854 94.4376 26.3854 93.7035 26.3666C92.5176 26.3477 92.4424 26.4232 92.4424 27.65C92.4612 29.9714 92.4612 32.2929 92.4612 34.6144ZM63.0212 34.6144C63.0024 34.6144 63.0024 34.6144 63.0212 34.6144C63.0024 32.1419 62.9835 29.6883 63.0212 27.2159C63.0212 26.5931 62.7953 26.3666 62.2306 26.3666C61.4776 26.3666 60.7247 26.3666 59.9718 26.3666C58.6729 26.3666 58.5412 26.4987 58.6165 27.8198C58.6353 28.103 58.6353 28.4049 58.6353 28.688C58.6165 33.029 58.6165 37.3888 58.5788 41.7297C58.5788 42.4847 58.8424 42.8055 59.5765 42.7867C60.48 42.7678 61.3647 42.7867 62.2682 42.8055C62.8141 42.8055 63.04 42.5602 63.04 42.0128C63.0024 39.5404 63.0212 37.0868 63.0212 34.6144ZM60.8565 20.025C60.3671 20.025 59.8776 20.025 59.3694 20.025C58.8047 20.025 58.5224 20.2893 58.5224 20.8743C58.5412 21.5349 58.56 22.2144 58.5412 22.8749C58.5224 23.4789 58.8235 23.7243 59.3882 23.7054C60.0847 23.7054 60.7812 23.6865 61.4776 23.6865C63.0024 23.7054 63.0024 23.7054 62.9835 22.1577C62.9835 20.0439 62.9835 20.0439 60.8565 20.025Z" fill="#1A130D"/>
<path d="M144.339 61.5282C144.339 41.1069 144.339 20.7044 144.339 0.169863C96.1882 0.169863 48.0941 0.169863 0 0.169863C0.0376471 0.113242 0.0564706 0.0188737 0.0941176 0C0.32 0 0.545882 0 0.790588 0C48.6776 0 96.5647 0 144.527 0C144.527 0.320852 144.527 0.660578 144.527 0.981431C144.527 20.8932 144.527 40.8237 144.527 60.7355C144.508 60.9997 144.414 61.2639 144.339 61.5282Z" fill="#FFF3E0"/>
<path d="M103.209 34.5958C103.209 32.18 103.228 29.783 103.19 27.3672C103.19 26.65 103.454 26.348 104.15 26.348C104.96 26.348 105.769 26.3669 106.579 26.348C107.125 26.348 107.463 26.5367 107.482 27.1407C107.482 27.3106 107.652 27.6125 107.727 27.6125C107.934 27.6125 108.179 27.5182 108.329 27.3672C110.325 25.5364 113.355 25.3477 115.501 26.952C115.84 27.1973 116.122 27.5559 116.348 27.9145C116.687 28.4052 117.007 28.3864 117.402 27.99C119.868 25.5176 122.56 25.1401 125.459 27.0463C126.852 27.9523 127.454 29.4999 127.51 31.0853C127.623 34.6902 127.567 38.295 127.567 41.881C127.567 42.5227 127.247 42.7492 126.645 42.7303C125.835 42.7115 125.026 42.6926 124.216 42.7492C123.369 42.8058 123.087 42.4284 123.106 41.6168C123.125 38.7103 123.125 35.8037 123.125 32.8972C123.125 32.4064 123.087 31.9157 122.974 31.425C122.673 30.085 121.976 29.4244 120.866 29.33C119.454 29.2168 118.362 29.8208 117.854 31.0475C117.647 31.576 117.496 32.1611 117.477 32.7273C117.44 35.766 117.44 38.8235 117.459 41.881C117.459 42.5039 117.214 42.7115 116.649 42.7115C115.859 42.7115 115.087 42.6737 114.296 42.7303C113.43 42.8058 113.167 42.3906 113.167 41.6168C113.186 40.2201 113.186 38.8235 113.186 37.4268C113.186 35.6905 113.223 33.9352 113.167 32.1988C113.11 29.9529 111.285 28.7072 109.383 29.6131C108.103 30.2171 107.482 31.3684 107.463 32.7839C107.445 35.7471 107.426 38.7103 107.463 41.6734C107.482 42.485 107.219 42.7681 106.409 42.7303C105.656 42.6737 104.903 42.6926 104.15 42.7492C103.397 42.8058 103.19 42.4661 103.19 41.7867C103.228 39.4086 103.228 37.0116 103.209 34.5958Z" fill="#FFF3E0"/>
<path d="M16.6213 31.387C16.6213 27.8954 16.6213 24.4226 16.6213 20.931C16.6213 20.3459 16.866 20.0439 17.4307 20.0439C20.5554 20.0439 23.699 19.9684 26.8237 20.1006C29.0637 20.1949 31.1343 20.9876 32.4143 22.9882C34.1084 25.6117 34.1649 28.405 32.7154 31.1605C31.379 33.7085 28.9884 34.4634 26.3154 34.5955C25.0354 34.6522 23.7554 34.6333 22.4943 34.5767C21.6849 34.5578 21.4025 34.8975 21.4025 35.6525C21.4213 37.6908 21.3837 39.7292 21.4401 41.7487C21.459 42.5413 21.1766 42.7678 20.4425 42.749C19.4825 42.7301 18.5225 42.7112 17.5625 42.7678C16.8472 42.8056 16.5837 42.5413 16.6025 41.8053C16.6401 38.3514 16.6213 34.8598 16.6213 31.387ZM21.4401 27.2726C21.4401 28.1785 21.3837 29.0844 21.4778 29.9715C21.5154 30.2735 21.8919 30.7642 22.1366 30.7831C23.4919 30.8397 24.866 30.8774 26.2213 30.7076C27.8966 30.4999 28.9319 29.2165 29.0072 27.5368C29.0825 25.6872 28.3296 24.4792 26.5601 24.1584C25.0919 23.8942 23.5672 23.9319 22.0613 23.913C21.8543 23.913 21.4966 24.3849 21.4778 24.6491C21.3837 25.5173 21.4401 26.4044 21.4401 27.2726Z" fill="#FFF3E0"/>
<path d="M41.9198 25.9323C47.0963 25.8757 50.5787 29.3862 50.6163 34.6897C50.654 40.1819 47.0587 43.4471 42.2022 43.5981C36.781 43.7491 33.1481 40.2008 33.0916 34.8596C33.054 29.4806 36.5175 25.9889 41.9198 25.9323ZM46.0422 34.8218C45.9857 33.1798 45.8351 31.5001 44.4422 30.2166C43.0116 28.8955 40.2446 29.1408 38.9457 30.5564C37.4775 32.1606 37.4022 36.3506 38.4563 38.2568C39.8116 40.7293 43.4634 40.5972 44.7998 38.974C45.7598 37.7472 45.9857 36.3695 46.0422 34.8218Z" fill="#FFF3E0"/>
<path d="M73.4682 34.9732C73.3929 31.9534 74.2964 29.2923 76.8376 27.5559C77.9858 26.7821 79.4541 26.2725 80.8282 26.0649C83.3317 25.6496 85.7411 26.1215 87.8117 27.7069C89.2611 28.8204 90.2399 30.2926 90.5976 32.0856C91.2376 35.2186 91.0682 38.2195 88.8658 40.7863C86.7764 43.221 82.5223 44.3346 79.4541 43.2588C75.5011 41.881 73.5623 39.1821 73.4682 34.9732ZM86.5129 35.1242C86.3058 33.9541 86.2305 33.0292 85.9858 32.1422C85.5529 30.5379 84.4611 29.5565 82.7858 29.3678C81.1294 29.179 79.6423 29.6131 78.8705 31.1608C77.7223 33.4822 77.6094 35.9169 78.8517 38.2761C79.5858 39.6728 80.847 40.2012 82.4094 40.1257C83.8776 40.0691 85.0258 39.4652 85.6094 38.144C86.0423 37.1437 86.2494 36.0113 86.5129 35.1242Z" fill="#FFF3E0"/>
<path d="M66.6916 36.0486C66.6916 34.1235 66.6728 32.2172 66.6916 30.2921C66.6916 29.5372 66.3716 29.2729 65.6375 29.2729C65.2046 29.2729 64.4516 29.1408 64.414 28.971C64.2822 28.216 64.3387 27.4233 64.414 26.6684C64.4328 26.5551 64.9975 26.423 65.3175 26.423C66.2775 26.4608 66.4093 26.3475 66.4658 25.3661C66.4846 24.8187 66.5034 24.2525 66.5975 23.7241C66.9175 21.5347 68.1411 20.2702 70.3246 19.9871C71.3599 19.855 72.414 19.8738 73.4493 19.9116C73.6752 19.9305 73.9387 20.3457 74.1081 20.6099C74.2022 20.7609 74.1081 21.0063 74.1269 21.2139C74.1834 23.0635 74.1834 23.0635 72.414 23.4787C71.3034 23.7429 70.6822 24.6678 70.9646 25.7624C71.0211 26.0078 71.3599 26.2154 71.5858 26.3853C71.6799 26.4608 71.8681 26.3853 72.0187 26.3853C74.334 26.3098 74.3152 26.3098 74.2022 28.5557C74.1834 29.1408 73.9199 29.3296 73.3928 29.3107C72.9599 29.2918 72.5269 29.2918 72.094 29.2918C71.2093 29.2918 71.0399 29.5183 71.0399 30.4808C71.0587 34.2178 71.0587 37.9737 71.0775 41.7107C71.0775 42.6921 70.9269 42.8242 69.9858 42.8054C69.2328 42.7865 68.4799 42.7865 67.7269 42.8054C67.0116 42.8242 66.6728 42.5977 66.6916 41.805C66.7105 39.8799 66.6916 37.9548 66.6916 36.0486Z" fill="#FFF3E0"/>
<path d="M56.8096 31.4435C56.8096 34.8974 56.7908 38.3513 56.8284 41.8052C56.8284 42.5224 56.6025 42.8244 55.8872 42.8055C55.0402 42.7677 54.212 42.7677 53.3649 42.7866C52.7061 42.8055 52.4237 42.5413 52.4237 41.8618C52.4425 35.6901 52.4425 29.4996 52.4425 23.3279C52.4425 22.554 52.4614 21.7614 52.4237 20.9875C52.3861 20.3081 52.6684 20.025 53.3272 20.0439C54.1367 20.0627 54.9461 20.1193 55.7555 20.0627C56.659 19.9872 56.8284 20.4025 56.8284 21.1951C56.8096 24.6113 56.8096 28.0274 56.8096 31.4435Z" fill="#FFF3E0"/>
<path d="M92.4609 34.6142C92.4609 32.2927 92.4609 29.9713 92.4609 27.6498C92.4609 26.423 92.5362 26.3475 93.7221 26.3664C94.4562 26.3664 95.1715 26.3853 95.9056 26.3664C96.4892 26.3475 96.8656 26.4985 96.8092 27.1969C96.7903 27.4045 96.9974 27.631 97.0915 27.8574C97.2798 27.7253 97.5621 27.6309 97.6751 27.4422C98.5221 25.8946 99.9903 25.8568 101.459 25.8946C101.647 25.8946 101.986 26.272 102.004 26.4985C102.08 27.3667 102.099 28.2349 102.023 29.1031C102.004 29.3485 101.553 29.7448 101.308 29.7448C98.7668 29.7448 96.8845 31.802 96.9033 34.4632C96.9221 36.7847 96.8845 39.1061 96.8845 41.4276C96.8845 42.8054 96.8845 42.8054 95.548 42.7865C94.8515 42.7865 94.1551 42.7488 93.4586 42.8054C92.7245 42.862 92.4609 42.5223 92.4798 41.8428C92.4986 40.616 92.4798 39.4081 92.4798 38.1813C92.4609 36.9923 92.4609 35.8032 92.4609 34.6142Z" fill="#FFF3E0"/>
<path d="M63.0212 34.6145C63.0212 37.0869 63.0212 39.5405 63.0212 42.0129C63.0212 42.5603 62.7953 42.8245 62.2494 42.8056C61.3459 42.7868 60.4612 42.7679 59.5577 42.7868C58.8047 42.8056 58.5412 42.4848 58.56 41.7298C58.5977 37.3889 58.5977 33.0291 58.6165 28.6881C58.6165 28.405 58.6165 28.103 58.5977 27.8199C58.5224 26.4988 58.6541 26.3478 59.953 26.3667C60.7059 26.3667 61.4588 26.3667 62.2118 26.3667C62.7765 26.3667 63.0212 26.612 63.0024 27.216C62.9835 29.6884 63.0024 32.142 63.0212 34.6145C63.0024 34.6145 63.0024 34.6145 63.0212 34.6145Z" fill="#FFF3E0"/>
<path d="M60.8567 20.0254C62.9838 20.0443 62.9838 20.0443 63.0026 22.1581C63.0214 23.7058 63.0214 23.7058 61.4967 23.6869C60.8002 23.668 60.1038 23.6869 59.4073 23.7058C58.8426 23.7058 58.5414 23.4793 58.5602 22.8753C58.5791 22.2147 58.5602 21.5353 58.5414 20.8747C58.5226 20.2896 58.8049 20.0254 59.3885 20.0254C59.8779 20.0443 60.3673 20.0254 60.8567 20.0254Z" fill="#FFF3E0"/>
<path d="M21.4401 27.2723C21.4401 26.4041 21.3837 25.517 21.4778 24.6677C21.4966 24.3846 21.8731 23.9316 22.0613 23.9316C23.5672 23.9505 25.0919 23.8939 26.5601 24.177C28.3296 24.4979 29.0637 25.7058 29.0072 27.5554C28.9319 29.2351 27.9154 30.5186 26.2213 30.7262C24.8848 30.896 23.4919 30.8583 22.1366 30.8017C21.8919 30.8017 21.5154 30.2921 21.4778 29.9901C21.3837 29.0653 21.4401 28.1593 21.4401 27.2723Z" fill="#1A130D"/>
<path d="M46.0424 34.8219C45.9859 36.3695 45.7789 37.7662 44.7812 38.9741C43.4447 40.5972 39.8118 40.7293 38.4377 38.2569C37.3836 36.3506 37.4589 32.1607 38.9271 30.5564C40.2259 29.1409 42.993 28.8955 44.4236 30.2167C45.8353 31.5001 45.9859 33.1799 46.0424 34.8219Z" fill="#1A130D"/>
<path d="M86.5129 35.1243C86.2493 36.0113 86.0611 37.1249 85.6093 38.1441C85.0258 39.4841 83.8776 40.0692 82.4093 40.1258C80.847 40.1824 79.5858 39.654 78.8517 38.2762C77.6282 35.9358 77.7223 33.5011 78.8705 31.1608C79.6423 29.5943 81.1293 29.1602 82.7858 29.3678C84.4611 29.5565 85.534 30.538 85.9858 32.1422C86.2117 33.0293 86.3058 33.9541 86.5129 35.1243Z" fill="#1A130D"/>
</g>
<defs>
<clipPath id="clip0_608_4962">
<rect width="144" height="62" fill="white"/>
</clipPath>
</defs>
</svg>
