<svg width="180" height="60" viewBox="0 0 180 60" fill="none" xmlns="http://www.w3.org/2000/svg">
<path d="M0 0C60.278 0 120.556 0 180.834 0C180.834 20.0797 180.834 40.0398 180.834 60C120.556 60 60.278 60 0 60C0 40.0398 0 20.0797 0 0ZM22.7531 19.6016C23.1105 20.9163 23.587 21.8725 23.587 22.9482C23.7062 27.251 23.7062 31.5538 23.587 35.8566C23.587 37.4104 23.1105 38.9641 22.9914 40.5179C22.9914 40.8765 23.2297 41.4741 23.4679 41.4741C25.1357 41.5936 26.8034 41.4741 28.9477 41.4741C26.8034 38.7251 27.5182 35.7371 27.5182 32.988C27.5182 32.3904 27.9947 31.9124 28.233 31.3147C28.8286 31.5538 29.5433 31.6733 29.9007 32.1514C32.045 34.6614 34.3084 37.2908 36.3336 39.9203C37.7631 41.7132 39.55 42.3108 41.9325 41.3546C41.6942 40.996 41.5751 40.6375 41.3369 40.3984C39.1926 37.8884 37.0483 35.3785 34.904 32.8685C33.4745 31.0757 33.5936 31.0757 35.4997 30.1195C38.8352 28.4462 39.9073 24.1434 37.1674 21.3944C35.7379 19.9602 34.0702 19.6016 32.1641 19.4821C30.3772 19.3625 28.5903 19.4821 26.8034 19.4821C25.493 19.3625 24.0635 19.4821 22.7531 19.6016ZM74.5731 34.3028C74.454 32.988 74.5731 30.9562 74.2158 29.0438C73.8584 26.7729 72.1906 25.3386 69.9272 25.6972C68.7359 25.9363 67.6638 26.6534 66.5917 27.3705C65.5195 28.0877 64.9239 28.0877 64.09 27.1315C63.4944 26.5339 62.6605 25.8167 61.9457 25.8167C60.6353 25.8167 59.4441 26.2948 58.2528 26.8924C57.2998 27.3705 56.585 27.9681 55.8703 26.6534C55.7512 26.4143 55.2747 26.1753 55.0364 26.2948C54.2025 26.6534 53.3686 27.1315 52.5347 27.6096C52.4156 27.7291 52.2965 28.2072 52.4156 28.3267C54.2025 30.239 53.4878 32.51 53.4878 34.6614C53.4878 36.6932 54.0834 38.7251 52.773 40.6375C52.6539 40.757 52.8921 41.4741 53.0112 41.4741C54.2025 41.4741 55.3938 41.4741 56.585 41.3546C56.7042 41.3546 56.9424 40.757 56.9424 40.5179C56.7042 37.5299 56.4659 34.6614 56.3468 31.6733C56.2277 30.3586 56.7042 29.2829 57.7763 28.8048C58.8484 28.3267 60.0397 27.9681 61.1118 28.0877C62.3031 28.3267 62.6605 29.5219 62.6605 30.8367C62.6605 33.1076 62.7796 35.498 62.7796 37.7689C62.7796 38.4861 62.6605 39.2032 62.3031 39.9203C61.9457 40.996 62.3031 41.3546 63.2561 41.3546C63.8517 41.3546 64.3283 41.3546 64.9239 41.3546C65.8769 41.3546 66.2343 40.757 65.996 39.9203C65.7578 39.2032 65.5195 38.3665 65.5195 37.6494C65.5195 35.7371 65.6386 33.9442 65.6386 32.0319C65.6386 29.0438 65.7578 28.9243 68.3786 27.9681C69.9272 27.3705 71.1185 27.9681 71.4758 29.6414C71.7141 30.8367 71.8332 32.1514 71.7141 33.4661C71.7141 35.6175 71.7141 37.7689 71.2376 39.9203C70.9993 41.2351 71.2376 41.5936 72.4289 41.5936C72.9054 41.5936 73.3819 41.5936 73.8584 41.5936C75.2879 41.4741 75.407 41.1155 74.8114 39.8008C74.6923 39.4422 74.5731 39.0837 74.5731 38.7251C74.5731 37.4104 74.5731 36.2151 74.5731 34.3028ZM105.665 29.2829C105.665 26.5339 105.665 23.9044 105.665 21.1554C105.665 20.5578 104.95 19.4821 104.831 19.4821C103.759 19.7211 102.806 20.1992 101.734 20.6773C101.734 20.6773 101.734 21.2749 101.853 21.2749C103.044 22.1116 102.806 23.3068 102.925 24.502C103.044 25.9363 102.449 26.2948 100.9 26.0558C99.5897 25.9363 98.041 25.9363 96.8498 26.4143C92.323 28.2072 91.1317 34.0637 92.6803 37.8884C93.9907 41.1155 98.3984 43.1474 100.9 41.1155C101.257 40.757 102.33 40.8765 102.925 41.1155C103.64 41.3546 106.38 40.996 106.618 40.2789C106.737 40.0398 106.499 39.5618 106.38 39.3227C106.142 38.6056 105.665 37.7689 105.665 37.0518C105.665 34.4223 105.665 31.9124 105.665 29.2829ZM91.1317 39.3227C89.2257 39.2032 88.8683 38.8446 88.8683 37.4104C88.8683 35.0199 88.8683 32.6295 88.8683 30.1195C88.8683 28.0877 87.7962 26.7729 86.0093 26.0558C84.1032 25.2191 80.1721 26.1753 78.8617 27.8486C78.5043 28.3267 78.0278 29.0438 78.1469 29.5219C78.266 30.1195 78.8617 30.5976 79.2191 31.1952C79.8147 30.8367 80.4103 30.4781 80.7677 30C81.1251 29.6414 81.006 28.9243 81.2442 28.4462C81.7207 27.251 82.6737 26.8924 83.865 27.1315C85.1754 27.3705 85.6519 28.4462 86.0093 29.5219C86.3666 30.5976 85.6519 31.4343 84.6989 31.9124C84.1032 32.1514 83.5076 32.3904 82.912 32.749C81.3633 33.5857 79.6956 34.3028 78.3852 35.498C76.36 37.4104 77.1939 40.3984 79.6956 41.4741C81.2442 42.0717 82.5546 41.8327 83.7459 40.996C84.9371 40.2789 85.771 40.2789 86.8431 41.2351C87.3197 41.5936 88.3918 41.8327 88.9874 41.5936C90.1787 41.2351 91.2508 40.757 91.1317 39.3227ZM157.962 34.1833C157.962 29.0438 154.745 26.0558 150.695 25.8167C145.572 25.5777 142.713 29.761 142.475 34.1833C142.237 38.247 146.406 42.4303 150.457 42.0717C154.507 41.7132 157.604 38.8446 157.962 34.1833ZM120.556 35.8566C120.079 36.5737 119.841 37.1713 119.365 37.6494C116.625 40.2789 113.647 39.6813 111.979 36.3347C111.741 35.8566 111.502 35.259 111.383 34.6614C110.907 32.988 111.502 32.2709 113.289 32.2709C115.314 32.2709 117.459 32.2709 119.484 32.2709C120.556 32.2709 121.152 31.7928 121.032 30.5976C120.437 26.5339 115.314 24.3825 112.098 26.7729C109.001 29.0438 108.167 32.2709 108.762 35.9761C109.239 38.8446 110.907 40.757 113.527 41.5936C116.267 42.4303 118.531 41.3546 120.199 39.2032C120.794 38.6056 121.747 37.6494 120.556 35.8566ZM131.635 29.761C132.469 27.49 132.111 26.5339 129.967 26.1753C128.776 25.9363 127.584 25.9363 126.393 26.0558C124.011 26.2948 122.462 28.6853 122.938 31.0757C123.296 32.8685 124.725 33.5857 126.036 34.4223C127.227 35.259 128.657 36.0956 129.729 37.0518C130.92 38.1275 130.563 39.4422 129.133 40.1594C127.584 40.8765 125.678 40.1594 124.725 38.7251C124.487 38.247 124.13 37.7689 123.772 37.2908C122.462 38.7251 122.7 40.757 124.13 41.2351C126.393 41.9522 128.657 42.4303 130.92 41.1155C132.469 40.2789 133.183 37.6494 132.707 36.0956C131.992 33.9442 130.086 33.3466 128.418 32.2709C127.346 31.5538 126.274 30.9562 125.321 30C124.964 29.6414 124.964 28.6853 125.321 28.2072C126.155 26.8924 128.061 26.7729 129.252 27.7291C130.205 28.3267 130.92 29.0438 131.635 29.761ZM46.221 41.5936C46.4593 41.5936 46.5784 41.5936 46.8167 41.5936C48.4844 41.5936 48.6036 41.2351 47.7697 39.8008C47.5314 39.4422 47.4123 38.8446 47.4123 38.3665C47.4123 34.9004 47.5314 31.4343 47.5314 27.8486C47.5314 27.3705 46.9358 26.4143 46.8167 26.4143C45.7445 26.6534 44.6724 27.1315 43.7194 27.6096C43.6003 27.6096 44.0768 28.8048 44.315 29.4024C44.4342 29.6414 44.6724 30 44.6724 30.239C44.6724 33.3466 44.7915 36.3347 44.5533 39.4422C44.1959 41.5936 44.0768 41.5936 46.221 41.5936ZM139.735 33.3466C139.735 31.9124 139.735 30.5976 139.735 29.1633C139.735 25.8167 139.735 25.8167 136.757 27.251C135.566 27.8486 135.804 28.3267 136.4 29.1633C136.757 29.6414 136.995 30.239 137.114 30.7171C137.234 32.1514 137.114 33.5857 137.114 35.0199C137.114 36.4542 137.234 38.008 136.876 39.4422C136.4 41.5936 136.281 41.5936 138.425 41.5936C139.021 41.5936 139.497 41.5936 140.093 41.5936C140.807 41.4741 141.046 41.2351 140.688 40.5179C140.331 39.8008 139.974 38.9641 139.974 38.1275C139.735 36.4542 139.735 34.9004 139.735 33.3466ZM139.735 21.2749C139.735 19.6016 139.021 19.1235 138.068 19.243C137.472 19.3626 137.114 20.0797 136.638 20.5578C137.234 21.1554 137.71 21.8725 138.306 22.1116C138.663 22.2311 139.378 21.3944 139.735 21.2749ZM45.7445 19.243C44.7915 19.243 44.1959 19.6016 44.1959 20.5578C44.1959 21.6335 45.0298 22.2311 45.9828 22.1116C46.5784 21.992 47.4123 21.2749 47.4123 20.6773C47.6506 19.7211 46.8167 19.1235 45.7445 19.243Z" fill="#1A130D"/>
<path d="M22.7529 19.6017C24.0633 19.4822 25.4928 19.3627 26.8032 19.3627C28.5901 19.3627 30.377 19.2432 32.1639 19.3627C34.0699 19.4822 35.7377 19.8408 37.1672 21.275C39.9071 24.024 38.7159 28.3268 35.4995 30.0001C33.4743 31.0758 33.4743 31.0758 34.9038 32.7491C37.0481 35.2591 39.1924 37.7691 41.3366 40.279C41.5749 40.5181 41.694 40.8766 41.9323 41.2352C39.5498 42.1914 37.6437 41.5938 36.3333 39.8009C34.3082 37.1715 32.1639 34.542 29.9005 32.032C29.5431 31.5539 28.8284 31.4344 28.2327 31.1954C27.9945 31.793 27.518 32.3906 27.518 32.8687C27.518 35.6177 26.8032 38.4862 28.9475 41.3547C26.9224 41.3547 25.2546 41.3547 23.4677 41.3547C23.3486 41.3547 22.9912 40.7571 22.9912 40.3985C23.1103 38.8448 23.5868 37.291 23.5868 35.7372C23.7059 31.4344 23.7059 27.1316 23.5868 22.8288C23.5868 21.8727 23.1103 20.9165 22.7529 19.6017ZM27.3989 25.4583C27.3989 26.4145 27.2797 27.3707 27.518 28.2073C27.6371 28.6854 28.1136 29.4025 28.7092 29.6416C30.4961 30.2392 32.4022 29.5221 33.5934 27.8487C34.6656 26.295 34.7847 24.6217 33.9508 22.9483C33.1169 21.3946 31.0918 20.5579 29.1858 20.797C27.9945 20.9165 27.3989 21.5141 27.3989 22.7093C27.3989 23.6655 27.3989 24.5021 27.3989 25.4583Z" fill="#FFF3E0"/>
<path d="M74.573 34.3032C74.573 36.2155 74.573 37.4107 74.573 38.7255C74.573 39.084 74.6922 39.5621 74.8113 39.8012C75.4069 41.1159 75.2878 41.4745 73.8583 41.594C73.3818 41.594 72.9053 41.594 72.4288 41.594C71.2375 41.594 70.9993 41.2354 71.2375 39.9207C71.5949 37.7693 71.5949 35.6179 71.714 33.4665C71.714 32.1518 71.714 30.9565 71.4758 29.6418C71.1184 27.9685 69.9271 27.4904 68.3785 27.9685C65.5194 29.1637 65.5194 29.2832 65.5194 32.2713C65.5194 34.1836 65.4003 35.9765 65.4003 37.8888C65.4003 38.6059 65.6386 39.4426 65.8768 40.1597C66.1151 41.1159 65.8768 41.594 64.8047 41.594C64.2091 41.594 63.7325 41.594 63.1369 41.594C62.1839 41.4745 61.8265 41.1159 62.1839 40.1597C62.4222 39.4426 62.5413 38.7255 62.6604 38.0083C62.6604 35.7374 62.5413 33.347 62.5413 31.0761C62.5413 29.8808 62.1839 28.5661 60.9926 28.3271C59.9205 28.088 58.7292 28.5661 57.6571 29.0442C56.585 29.5223 56.1085 30.598 56.2276 31.9127C56.4658 34.9008 56.7041 37.7693 56.8232 40.7573C56.8232 40.9964 56.585 41.594 56.4658 41.594C55.2746 41.7135 54.0833 41.7135 52.892 41.7135C52.7729 41.7135 52.5347 40.9964 52.6538 40.8769C53.9642 38.9645 53.3685 36.9326 53.3685 34.9008C53.3685 32.7494 54.0833 30.3589 52.2964 28.5661C52.1773 28.4466 52.2964 27.849 52.4155 27.849C53.2494 27.3709 53.9642 26.8928 54.9172 26.5342C55.1554 26.4147 55.632 26.6537 55.7511 26.8928C56.4658 28.3271 57.1806 27.6099 58.1336 27.1318C59.3249 26.5342 60.6353 26.1757 61.8265 26.0561C62.5413 26.0561 63.4943 26.7733 63.9708 27.3709C64.8047 28.3271 65.5194 28.3271 66.4725 27.6099C67.4255 26.8928 68.6167 26.1757 69.808 25.9366C72.0714 25.5781 73.8583 27.0123 74.0965 29.2832C74.5731 31.0761 74.573 32.9884 74.573 34.3032Z" fill="#FFF3E0"/>
<path d="M105.666 29.2832C105.666 31.9127 105.546 34.4227 105.666 37.0521C105.666 37.7693 106.142 38.6059 106.38 39.3231C106.499 39.6816 106.738 40.0402 106.619 40.2792C106.261 40.9964 103.64 41.3549 102.926 41.1159C102.33 40.8768 101.377 40.7573 100.9 41.1159C98.3988 43.1478 93.872 41.1159 92.6807 37.8888C91.1321 34.0641 92.3234 28.2075 96.8502 26.4147C98.0414 25.9366 99.5901 25.9366 100.9 26.0561C102.449 26.1756 103.045 25.9366 102.926 24.5023C102.806 23.3071 103.045 22.1119 101.853 21.2753C101.734 21.1557 101.615 20.6776 101.734 20.6776C102.687 20.1996 103.759 19.7215 104.832 19.4824C105.07 19.4824 105.666 20.5581 105.666 21.1557C105.785 23.9047 105.666 26.5342 105.666 29.2832ZM102.806 33.8251C102.926 33.8251 102.926 33.8251 102.806 33.8251C102.806 32.7494 102.926 31.5541 102.806 30.4784C102.687 29.0442 101.973 27.9685 100.543 27.4904C99.1136 26.8928 97.8032 27.2513 96.8502 28.4466C95.0633 30.4784 94.5868 34.9007 96.0163 37.4107C97.0884 39.3231 98.5179 40.0402 100.067 39.6816C102.568 38.9645 102.926 38.6059 102.806 35.6179C102.926 34.9007 102.926 34.3031 102.806 33.8251Z" fill="#FFF3E0"/>
<path d="M91.1321 39.3228C91.2512 40.757 90.06 41.2351 89.107 41.5937C88.5113 41.8327 87.4392 41.5937 86.9627 41.2351C85.8905 40.3985 85.0567 40.2789 83.8654 40.9961C82.6741 41.8327 81.2446 42.0718 79.8151 41.4742C77.1943 40.3985 76.3604 37.4104 78.5047 35.4981C79.8151 34.3029 81.4829 33.5857 83.0315 32.7491C83.6271 32.3905 84.2228 32.271 84.8184 31.9124C85.7714 31.4343 86.4862 30.5977 86.1288 29.522C85.7714 28.4463 85.2949 27.3706 83.9845 27.1315C82.7933 26.8925 81.8403 27.2511 81.3637 28.4463C81.1255 28.9244 81.2446 29.6415 80.8872 30.0001C80.5299 30.4782 79.8151 30.8367 79.3386 31.1953C78.9812 30.5977 78.3856 30.1196 78.2665 29.522C78.1473 29.0439 78.6238 28.3268 78.9812 27.8487C80.2916 26.2949 84.2228 25.3387 86.1288 26.0558C87.9157 26.773 88.9878 28.0877 88.9878 30.1196C88.9878 32.51 88.9878 34.9005 88.9878 37.4104C88.9878 38.8447 89.3452 39.2033 91.1321 39.3228ZM86.1288 35.4981C86.1288 32.9881 85.414 32.6295 83.1506 34.0638C82.3168 34.5419 81.7211 35.259 81.1255 35.9762C80.5299 36.6933 80.2916 37.6495 81.0064 38.4861C81.7211 39.4423 82.555 40.0399 83.8654 39.4423C85.8906 38.6056 86.1288 38.1276 86.1288 35.4981Z" fill="#FFF3E0"/>
<path d="M157.962 34.1836C157.724 38.8449 154.626 41.833 150.576 42.072C146.526 42.4306 142.356 38.2473 142.595 34.1836C142.833 29.7612 145.692 25.6975 150.814 25.817C154.626 25.9365 157.962 29.0441 157.962 34.1836ZM145.573 32.2712C145.93 34.7812 145.93 37.1716 147.717 38.9644C150.1 41.2354 152.125 41.2354 153.912 38.7254C155.937 35.6178 154.746 30.0003 151.887 27.9684C150.576 27.0122 149.266 27.0122 147.955 27.9684C146.288 28.9246 145.811 30.5979 145.573 32.2712Z" fill="#FFF3E0"/>
<path d="M120.556 35.8567C121.628 37.6495 120.675 38.4862 120.079 39.3228C118.411 41.4742 116.148 42.5499 113.408 41.7133C110.787 40.8766 109.12 38.9643 108.643 36.0957C108.047 32.3905 108.881 29.1635 111.979 26.8925C115.195 24.5021 120.317 26.6535 120.913 30.7172C121.032 31.9125 120.437 32.3905 119.364 32.3905C117.339 32.3905 115.195 32.5101 113.17 32.3905C111.383 32.3905 110.787 32.9882 111.264 34.781C111.383 35.3786 111.621 35.8567 111.859 36.4543C113.527 39.8009 116.505 40.3985 119.245 37.769C119.841 37.1714 120.079 36.5738 120.556 35.8567ZM115.195 30.8368C115.195 30.9563 115.314 31.0758 115.314 31.1953C115.91 30.8368 116.863 30.7172 117.101 30.2392C117.339 29.7611 116.863 28.9244 116.386 28.4463C115.314 27.2511 112.932 27.7292 111.979 29.1635C111.264 30.2392 111.621 30.8368 112.812 30.9563C113.646 30.8368 114.48 30.8368 115.195 30.8368Z" fill="#FFF3E0"/>
<path d="M131.635 29.7612C130.801 29.0441 130.205 28.327 129.372 27.7294C128.18 26.7732 126.274 26.8927 125.44 28.2074C125.202 28.6855 125.202 29.7612 125.44 30.0003C126.274 30.8369 127.466 31.5541 128.538 32.2712C130.205 33.3469 132.111 33.9445 132.826 36.0959C133.303 37.7692 132.588 40.2792 131.039 41.1158C128.776 42.4306 126.513 41.9525 124.249 41.2353C122.7 40.7572 122.581 38.7254 123.892 37.2911C124.249 37.7692 124.606 38.2473 124.845 38.7254C125.679 40.1596 127.704 40.8768 129.252 40.1596C130.682 39.562 131.039 38.1278 129.848 37.0521C128.657 36.0959 127.346 35.2592 126.155 34.4226C124.845 33.5859 123.415 32.8688 123.058 31.076C122.581 28.6855 124.011 26.2951 126.512 26.056C127.704 25.9365 128.895 25.9365 130.086 26.1756C132.111 26.5341 132.588 27.4903 131.635 29.7612Z" fill="#FFF3E0"/>
<path d="M46.2206 41.5939C44.0764 41.5939 44.3146 41.5939 44.4337 39.5621C44.672 36.574 44.5529 33.4664 44.5529 30.3589C44.5529 30.1198 44.3146 29.7613 44.1955 29.5222C43.9572 28.9246 43.4807 27.7294 43.5999 27.7294C44.5529 27.2513 45.625 26.7732 46.6971 26.5342C46.8163 26.5342 47.4119 27.4904 47.4119 27.9684C47.4119 31.4346 47.2928 34.9007 47.2928 38.4864C47.2928 38.9645 47.4119 39.4425 47.6502 39.9206C48.484 41.4744 48.3649 41.7135 46.6971 41.7135C46.578 41.5939 46.3398 41.5939 46.2206 41.5939Z" fill="#FFF3E0"/>
<path d="M139.736 33.3468C139.736 34.9006 139.617 36.4544 139.736 38.1277C139.855 38.9644 140.093 39.801 140.45 40.5182C140.808 41.2353 140.57 41.5939 139.855 41.5939C139.259 41.7134 138.783 41.5939 138.187 41.5939C136.043 41.5939 136.162 41.5939 136.638 39.4425C136.996 38.0082 136.877 36.4544 136.877 35.0201C136.877 33.5859 136.996 32.1516 136.877 30.7174C136.877 30.2393 136.519 29.6417 136.162 29.1636C135.566 28.3269 135.447 27.7293 136.519 27.2512C139.497 25.817 139.497 25.817 139.497 29.1636C139.736 30.4783 139.736 31.9126 139.736 33.3468Z" fill="#FFF3E0"/>
<path d="M139.735 21.2748C139.378 21.5138 138.782 22.231 138.305 22.1115C137.591 21.8724 137.114 21.0358 136.638 20.5577C137.114 20.0796 137.591 19.3625 138.067 19.2429C139.02 19.0039 139.735 19.6015 139.735 21.2748Z" fill="#FFF3E0"/>
<path d="M45.7449 19.2426C46.8171 19.1231 47.651 19.7207 47.4127 20.7964C47.2936 21.394 46.4597 22.1111 45.9832 22.2307C45.0302 22.3502 44.3154 21.7526 44.1963 20.6769C44.1963 19.6012 44.7919 19.2426 45.7449 19.2426Z" fill="#FFF3E0"/>
<path d="M27.3989 25.4582C27.3989 24.6215 27.3989 23.6653 27.3989 22.8287C27.3989 21.6335 27.9946 21.0358 29.1858 20.9163C31.0918 20.6773 33.117 21.5139 33.9509 23.0677C34.9039 24.741 34.7848 26.4143 33.5935 27.9681C32.4022 29.6414 30.4962 30.3586 28.7093 29.7609C28.2328 29.6414 27.6372 28.9243 27.518 28.3267C27.2798 27.3705 27.3989 26.2948 27.3989 25.4582Z" fill="#1A130D"/>
<path d="M102.806 33.8247C102.806 34.4223 102.925 34.9004 102.925 35.498C102.925 38.3665 102.687 38.8446 100.185 39.5617C98.6362 40.0398 97.2067 39.2032 96.1345 37.2908C94.705 34.9004 95.1815 30.3586 96.9684 28.3267C98.0406 27.1315 99.2318 26.8924 100.661 27.3705C102.091 27.8486 102.806 28.9243 102.925 30.3586C102.925 31.5538 102.925 32.6295 102.806 33.8247C102.925 33.8247 102.925 33.8247 102.806 33.8247Z" fill="#1A130D"/>
<path d="M86.1287 35.4978C86.1287 38.1272 85.8904 38.6053 83.8653 39.442C82.5549 40.0396 81.721 39.442 81.0062 38.4858C80.2915 37.6492 80.5297 36.693 81.1253 35.9758C81.721 35.2587 82.4357 34.5416 83.1505 34.0635C85.4139 32.6292 86.0095 32.9878 86.1287 35.4978Z" fill="#1A130D"/>
<path d="M145.572 32.2711C145.811 30.5978 146.168 28.9245 147.836 27.8488C149.146 26.8927 150.456 27.0122 151.767 27.8488C154.626 29.8807 155.817 35.4982 153.792 38.6058C152.124 41.2353 149.98 41.1158 147.597 38.8449C145.93 37.1715 145.93 34.7811 145.572 32.2711Z" fill="#1A130D"/>
<path d="M115.195 30.8368C114.362 30.8368 113.647 30.8368 112.813 30.8368C111.502 30.8368 111.264 30.1197 111.979 29.044C112.932 27.6097 115.315 27.1316 116.387 28.3268C116.863 28.8049 117.34 29.7611 117.101 30.1197C116.863 30.5977 115.91 30.8368 115.315 31.0758C115.315 31.0758 115.315 30.9563 115.195 30.8368Z" fill="#1A130D"/>
</svg>
