<svg width="207" height="62" viewBox="0 0 207 62" fill="none" xmlns="http://www.w3.org/2000/svg">
<path d="M0 62C0 41.3333 0 20.6873 0 0C68.9724 0 137.965 0 207 0C207 20.646 207 41.3333 207 62C138.007 62 69.0138 62 0 62ZM160.425 33.294C160.653 27.28 156.823 22.3407 151.69 22.072C145.976 21.7827 141.898 26.04 141.629 32.612C141.36 38.7087 145.21 43.6687 150.385 43.958C156.182 44.268 160.156 40.0313 160.425 33.294ZM183.857 43.4207C183.547 42.8833 183.34 42.5113 183.092 42.1393C181.705 40.0727 180.318 38.0267 178.91 35.9807C178.268 35.0507 178.02 34.41 179.221 33.7073C181.063 32.6327 181.932 30.69 181.767 28.1893C181.58 25.5027 180.463 23.4567 178.268 22.94C176.24 22.444 174.128 22.444 172.058 22.4027C171.748 22.4027 171.189 23.25 171.127 23.746C171.003 25.2133 171.086 26.7013 171.065 28.1893C171.044 32.8187 171.044 37.448 171.023 42.0567C171.023 43.1313 171.355 43.772 172.286 43.7307C173.197 43.6893 173.383 43.0073 173.363 42.036C173.321 40.3827 173.3 38.7087 173.404 37.0553C173.445 36.3733 173.756 35.1953 174.025 35.1747C174.646 35.092 175.495 35.3607 175.909 35.898C177.503 37.9647 178.993 40.1553 180.442 42.3873C181.311 43.7513 182.305 44.1647 183.857 43.4207ZM110.704 43.8133C112.235 43.896 112.463 43.3173 111.966 42.0153C109.689 35.9187 107.433 29.822 105.156 23.746C104.97 23.25 104.576 22.878 104.287 22.444C103.976 22.8573 103.562 23.188 103.396 23.6633C101.182 29.7187 98.9874 35.774 96.8346 41.8707C96.669 42.3667 96.8967 43.0693 96.9588 43.6893C97.5591 43.462 98.2008 43.3173 98.7597 42.966C98.9874 42.8213 99.1116 42.2633 99.1737 41.8707C99.6498 38.6467 101.389 37.9233 103.728 38.378C103.914 38.4193 104.121 38.3987 104.307 38.378C106.853 38.006 108.882 38.5227 109.503 42.2013C109.648 42.9247 110.455 43.4827 110.704 43.8133ZM44.2359 43.8753C45.3744 43.7307 46.0575 43.5653 45.5607 42.2013C43.2216 35.96 40.9239 29.6773 38.5641 23.436C38.4192 23.0227 38.0052 22.6093 37.6533 22.506C37.4877 22.444 37.0737 23.0433 36.9288 23.436C34.6518 29.7807 32.3955 36.146 30.1392 42.5113C29.808 43.4413 30.0771 44.02 30.8637 43.7927C31.4226 43.6273 32.0643 43.1107 32.3748 42.532C32.8509 41.664 32.9958 40.5273 33.4719 39.6387C33.7824 39.0807 34.3827 38.564 34.9209 38.4607C35.9766 38.254 37.0737 38.5227 38.1087 38.316C40.8618 37.758 42.3936 39.1427 43.0974 42.346C43.263 42.9867 43.9254 43.462 44.2359 43.8753ZM10.8675 39.3907C10.4742 41.106 10.5156 42.3253 11.7783 42.7593C13.2894 43.276 14.8626 43.9167 16.3944 43.8753C18.9612 43.8133 20.5344 41.9533 21.0105 39.122C21.4659 36.4973 20.6793 34.8027 18.3402 33.0873C16.8498 31.992 15.318 30.9587 13.9932 29.6153C13.455 29.078 13.0824 27.5693 13.3101 26.8253C13.5999 25.8953 14.5728 24.738 15.2973 24.676C16.5807 24.552 17.9055 25.172 19.2096 25.4613C19.4787 25.5233 19.872 25.7507 19.9755 25.6267C20.1825 25.3787 20.3895 24.8827 20.3067 24.5727C20.1825 24.0353 19.9548 23.4153 19.6029 23.1053C17.9055 21.5553 14.2209 21.824 12.5442 23.5187C9.7911 26.3087 10.5363 31.372 13.9104 33.294C15.2145 34.038 16.6221 34.782 17.6571 35.96C18.2988 36.704 18.6507 38.2747 18.5472 39.4113C18.4851 40.176 17.5329 41.2093 16.8291 41.4573C15.2559 41.974 13.6413 41.7467 12.2337 40.5273C11.8611 40.176 11.4678 39.8867 10.8675 39.3907ZM75.2445 22.3613C73.8369 22.2167 73.5264 22.7747 73.9404 23.932C76.1553 30.132 78.3495 36.332 80.5851 42.532C80.7507 42.966 81.1026 43.2967 81.351 43.6687C81.6408 43.3173 82.0548 43.028 82.1997 42.594C84.2697 36.518 86.2983 30.4213 88.3269 24.304C88.5339 23.6633 89.1756 22.7747 88.1613 22.4233C87.3333 22.134 86.5881 22.382 86.1948 23.6427C84.8907 27.9207 83.5038 32.1573 82.1376 36.4147C82.0134 36.8073 81.6822 37.1173 81.4338 37.4687C81.1647 37.1173 80.7714 36.8073 80.6265 36.394C79.1361 32.1367 77.7285 27.8587 76.2174 23.6013C76.0311 22.9813 75.4308 22.5887 75.2445 22.3613ZM127.781 34.5547C127.76 34.5547 127.74 34.5547 127.74 34.5547C127.74 32.0127 127.781 29.45 127.719 26.908C127.698 25.4613 128.154 24.8 129.334 24.862C130.203 24.9033 131.093 24.862 131.962 24.9033C132.79 24.9447 133.66 24.9653 133.681 23.6427C133.701 22.3407 132.873 22.2167 132.004 22.3613C131.714 22.4027 131.424 22.3613 131.135 22.3613C127.678 22.3613 124.221 22.3407 120.764 22.32C119.977 22.32 119.273 22.63 119.439 23.6633C119.501 24.1387 120.246 24.7173 120.743 24.8207C121.592 25.0067 122.482 24.9033 123.372 24.8827C125.276 24.8207 125.525 25.11 125.504 27.342C125.463 32.2607 125.442 37.2 125.38 42.1187C125.359 43.1107 125.587 43.7513 126.498 43.7513C127.326 43.7513 127.843 43.4827 127.823 42.2013C127.74 39.6593 127.781 37.0967 127.781 34.5547ZM55.476 32.86C55.476 35.8773 55.5174 38.8947 55.4553 41.9327C55.4346 43.214 55.7865 43.772 56.8836 43.7513C59.4504 43.71 62.0379 43.7513 64.6047 43.7513C65.3499 43.7513 66.0123 43.524 65.9295 42.3873C65.8467 41.3333 65.2878 41.1267 64.4805 41.1473C62.8245 41.23 61.1685 41.106 59.5332 41.23C58.0842 41.3333 57.6909 40.5687 57.7116 38.936C57.7737 33.9553 57.7116 28.9747 57.753 23.994C57.753 22.8573 57.4839 22.2993 56.5317 22.3407C55.6209 22.382 55.4346 22.9813 55.4553 23.994C55.5174 26.9493 55.476 29.9047 55.476 32.86ZM195.967 33.046C195.946 33.046 195.946 33.046 195.926 33.046C195.926 30.0287 195.884 27.0113 195.946 23.994C195.967 22.9607 195.677 22.3613 194.828 22.3407C194.042 22.32 193.607 22.754 193.607 23.87C193.628 29.9047 193.607 35.96 193.566 41.9947C193.566 43.028 193.773 43.7927 194.725 43.8133C195.781 43.8547 195.988 43.028 195.967 41.9327C195.946 38.9773 195.967 36.022 195.967 33.046Z" fill="#1A130D"/>
<path d="M160.425 33.2944C160.156 40.0524 156.182 44.2891 150.386 43.9584C145.19 43.6691 141.36 38.7091 141.63 32.6124C141.899 26.0404 145.977 21.7624 151.69 22.0724C156.803 22.3411 160.653 27.2598 160.425 33.2944ZM158.107 32.8604C158.024 28.0451 155.022 24.5524 151.007 24.6144C146.908 24.6764 143.886 28.2931 143.907 33.0878C143.948 38.0064 147.012 41.4784 151.234 41.3751C155.229 41.2924 158.19 37.5931 158.107 32.8604Z" fill="#FFF3E0"/>
<path d="M183.857 43.4205C182.305 44.1645 181.311 43.7512 180.442 42.4079C178.993 40.1759 177.502 37.9852 175.909 35.9185C175.495 35.3812 174.646 35.1332 174.025 35.1952C173.756 35.2365 173.425 36.3939 173.404 37.0759C173.3 38.7292 173.342 40.4032 173.362 42.0565C173.383 43.0279 173.197 43.7099 172.286 43.7512C171.334 43.7925 171.003 43.1519 171.023 42.0772C171.044 37.4479 171.044 32.8185 171.065 28.2099C171.065 26.7219 170.982 25.2339 171.127 23.7665C171.168 23.2705 171.727 22.4025 172.058 22.4232C174.128 22.4852 176.24 22.4852 178.268 22.9605C180.463 23.4772 181.58 25.5232 181.767 28.2099C181.932 30.7105 181.063 32.6532 179.221 33.7279C178.041 34.4099 178.268 35.0505 178.91 36.0012C180.318 38.0265 181.705 40.0932 183.091 42.1599C183.34 42.4905 183.547 42.8832 183.857 43.4205ZM175.577 24.2832C173.383 24.5519 173.259 24.6965 173.321 27.2592C173.342 28.0239 173.342 28.7885 173.383 29.5739C173.528 32.8599 173.901 33.2319 176.612 32.6325C176.861 32.5705 177.088 32.5085 177.316 32.4052C179.655 31.3719 180.421 27.6519 178.558 25.8332C177.751 25.0479 176.571 24.7792 175.577 24.2832Z" fill="#FFF3E0"/>
<path d="M110.703 43.8137C110.455 43.483 109.648 42.925 109.524 42.2017C108.903 38.523 106.874 38.0063 104.328 38.3783C104.142 38.399 103.935 38.4197 103.748 38.3783C101.388 37.9237 99.6496 38.6263 99.1942 41.871C99.1321 42.2637 99.0079 42.8217 98.7802 42.9663C98.2213 43.3177 97.5796 43.4623 96.9793 43.6897C96.9379 43.0697 96.6895 42.367 96.8551 41.871C99.0079 35.7743 101.202 29.719 103.417 23.6637C103.583 23.1883 104.017 22.837 104.307 22.4443C104.597 22.8783 104.99 23.2503 105.177 23.7463C107.454 29.8223 109.71 35.9397 111.987 42.0157C112.463 43.3177 112.235 43.8757 110.703 43.8137ZM104.328 36.0223C104.949 36.0223 105.611 36.1463 106.212 35.9603C106.501 35.8777 106.936 35.113 106.853 34.865C106.232 32.881 105.528 30.9177 104.804 28.9957C104.68 28.6857 104.286 28.3137 104.079 28.355C103.852 28.3963 103.603 28.8717 103.479 29.2023C103.086 30.277 102.796 31.4137 102.382 32.4883C100.788 36.7457 101.616 35.9603 104.328 36.0223Z" fill="#FFF3E0"/>
<path d="M44.2363 43.8753C43.9258 43.4827 43.2634 42.9867 43.1185 42.346C42.4147 39.1633 40.8622 37.758 38.1298 38.316C37.0948 38.5227 35.977 38.2747 34.942 38.4607C34.4038 38.564 33.7828 39.0807 33.493 39.6387C33.0169 40.5067 32.872 41.664 32.3959 42.532C32.0647 43.1107 31.4437 43.6273 30.8848 43.7927C30.0982 44.02 29.8291 43.4413 30.1603 42.5113C32.4166 36.146 34.6729 29.8013 36.9499 23.436C37.0948 23.0433 37.5088 22.4647 37.6744 22.506C38.0263 22.6093 38.4403 23.0227 38.5852 23.436C40.945 29.6773 43.2427 35.9393 45.5818 42.2013C46.0579 43.5653 45.3748 43.71 44.2363 43.8753ZM37.6537 36.0427C38.2747 36.0427 38.9578 36.1873 39.5374 35.9807C39.8686 35.8773 40.3447 35.0507 40.2619 34.782C39.6616 32.7773 38.9785 30.814 38.2333 28.8713C37.8814 27.962 37.3432 28.0033 36.9913 28.9747C36.598 30.1113 36.2875 31.31 35.8735 32.4467C34.6522 35.9393 34.6522 35.9187 37.6537 36.0427Z" fill="#FFF3E0"/>
<path d="M10.8677 39.3903C11.468 39.8657 11.8613 40.1757 12.2546 40.5063C13.6622 41.7257 15.2768 41.9737 16.85 41.4363C17.5538 41.209 18.506 40.155 18.5681 39.3903C18.6509 38.2537 18.3197 36.683 17.678 35.939C16.643 34.761 15.2354 34.017 13.9313 33.273C10.5572 31.351 9.81201 26.2877 12.5651 23.4977C14.2211 21.803 17.9264 21.555 19.6238 23.0843C19.9757 23.3943 20.2034 24.0143 20.3276 24.5517C20.3897 24.8617 20.2034 25.3577 19.9964 25.6057C19.8929 25.7297 19.4996 25.5023 19.2305 25.4403C17.9264 25.1303 16.6016 24.5103 15.3182 24.655C14.573 24.7377 13.6208 25.8743 13.331 26.8043C13.1033 27.5483 13.4759 29.0363 14.0141 29.5943C15.3389 30.9377 16.8707 31.971 18.3611 33.0663C20.7002 34.7817 21.4868 36.4763 21.0314 39.101C20.5553 41.9323 18.9821 43.7923 16.4153 43.8543C14.8835 43.8957 13.3103 43.255 11.7992 42.7383C10.5158 42.3457 10.4951 41.1057 10.8677 39.3903Z" fill="#FFF3E0"/>
<path d="M75.2448 22.361C75.4311 22.5883 76.0107 22.981 76.2384 23.5803C77.7495 27.817 79.1571 32.1157 80.6475 36.373C80.7924 36.807 81.1857 37.0963 81.4548 37.4477C81.6825 37.0963 82.0137 36.807 82.1586 36.3937C83.5455 32.157 84.9117 27.8997 86.2158 23.6217C86.5884 22.3817 87.3543 22.1337 88.1823 22.4023C89.1966 22.7537 88.5756 23.6423 88.3479 24.283C86.3193 30.3797 84.2907 36.4763 82.2207 42.573C82.0758 43.007 81.6618 43.2963 81.372 43.6477C81.1029 43.2757 80.751 42.945 80.6061 42.511C78.3705 36.3317 76.1763 30.111 73.9614 23.911C73.5474 22.7537 73.8372 22.2163 75.2448 22.361Z" fill="#FFF3E0"/>
<path d="M127.781 34.5551C127.781 37.0971 127.719 39.6597 127.802 42.2017C127.843 43.4831 127.326 43.7311 126.477 43.7517C125.566 43.7517 125.359 43.1111 125.359 42.1191C125.421 37.2004 125.442 32.2611 125.484 27.3424C125.504 25.1104 125.256 24.8211 123.351 24.8831C122.482 24.9037 121.571 25.0071 120.723 24.8211C120.226 24.7177 119.501 24.1391 119.418 23.6637C119.274 22.6304 119.977 22.3204 120.743 22.3204C124.2 22.3411 127.657 22.3411 131.114 22.3617C131.404 22.3617 131.694 22.4031 131.983 22.3617C132.853 22.2171 133.66 22.3411 133.66 23.6431C133.639 24.9657 132.77 24.9451 131.942 24.9037C131.073 24.8624 130.182 24.9037 129.313 24.8624C128.112 24.8004 127.657 25.4617 127.698 26.9084C127.761 29.4504 127.719 32.0131 127.719 34.5551C127.761 34.5551 127.781 34.5551 127.781 34.5551Z" fill="#FFF3E0"/>
<path d="M55.4763 32.8595C55.4763 29.9042 55.5177 26.9282 55.4556 23.9729C55.4349 22.9602 55.6212 22.3609 56.532 22.3195C57.4842 22.2782 57.7533 22.8362 57.7533 23.9729C57.7119 28.9535 57.774 33.9342 57.7119 38.9149C57.6912 40.5682 58.0845 41.3122 59.5335 41.2089C61.1895 41.0849 62.8455 41.2089 64.4808 41.1262C65.2881 41.0849 65.8677 41.3122 65.9298 42.3662C66.0126 43.5029 65.3502 43.7302 64.605 43.7302C62.0382 43.7302 59.4507 43.6889 56.8839 43.7302C55.7868 43.7509 55.4556 43.1722 55.4556 41.9115C55.5177 38.9149 55.4763 35.8975 55.4763 32.8595Z" fill="#FFF3E0"/>
<path d="M195.967 33.0462C195.967 36.0015 195.946 38.9775 195.967 41.9328C195.967 43.0282 195.78 43.8548 194.725 43.8135C193.772 43.7722 193.565 43.0282 193.565 41.9948C193.607 35.9602 193.628 29.9048 193.607 23.8702C193.607 22.7748 194.042 22.3408 194.828 22.3408C195.677 22.3615 195.946 22.9608 195.946 23.9942C195.905 27.0115 195.925 30.0288 195.925 33.0462C195.925 33.0462 195.946 33.0462 195.967 33.0462Z" fill="#FFF3E0"/>
<path d="M158.107 32.8601C158.189 37.5928 155.209 41.2921 151.255 41.3748C147.032 41.4781 143.969 38.0061 143.927 33.0874C143.886 28.2928 146.908 24.6761 151.027 24.6141C155.022 24.5521 158.045 28.0654 158.107 32.8601Z" fill="#1A130D"/>
<path d="M175.578 24.2832C176.592 24.7792 177.751 25.0479 178.559 25.8332C180.401 27.6519 179.635 31.3719 177.317 32.4052C177.089 32.5085 176.841 32.5705 176.613 32.6325C173.88 33.2319 173.508 32.8805 173.384 29.5739C173.342 28.8092 173.342 28.0445 173.322 27.2592C173.239 24.6965 173.384 24.5519 175.578 24.2832Z" fill="#1A130D"/>
<path d="M104.328 36.0222C101.616 35.9602 100.809 36.7456 102.403 32.4676C102.796 31.3929 103.106 30.2769 103.5 29.1815C103.624 28.8302 103.872 28.3756 104.1 28.3342C104.328 28.2929 104.721 28.6649 104.824 28.9749C105.549 30.9175 106.253 32.8602 106.874 34.8442C106.957 35.0922 106.501 35.8569 106.232 35.9395C105.611 36.1255 104.949 36.0222 104.328 36.0222Z" fill="#1A130D"/>
<path d="M37.6528 36.0426C34.6306 35.9393 34.6513 35.9393 35.8933 32.4673C36.3073 31.3306 36.6178 30.1319 37.0111 28.9953C37.3423 28.0239 37.8805 27.9826 38.2531 28.8919C38.9983 30.8139 39.6814 32.7979 40.2817 34.8026C40.3645 35.0713 39.8884 35.8979 39.5572 36.0013C38.9569 36.1873 38.2945 36.0426 37.6528 36.0426Z" fill="#1A130D"/>
</svg>
