<svg width="176" height="62" viewBox="0 0 176 62" fill="none" xmlns="http://www.w3.org/2000/svg">
<g clip-path="url(#clip0_608_5209)">
<path d="M0 61.4381C0 40.9275 0 20.5106 0 0C58.6667 0 117.333 0 176 0C176 20.5106 176 41.0211 176 61.4381C117.333 61.4381 58.6667 61.4381 0 61.4381ZM102.892 20.7915C103.795 18.3565 104.296 18.2628 106.101 19.6677C106.402 19.9486 106.803 20.136 107.205 20.4169C109.611 22.1027 111.818 21.3535 112.72 18.7311C112.821 18.3565 113.222 17.7946 113.522 17.7946C113.924 17.7009 114.425 18.0755 114.826 18.3565C115.829 18.9184 116.832 19.574 117.835 20.0423C118.136 20.2296 118.737 19.9486 119.138 19.855C119.038 19.4804 119.038 19.0121 118.737 18.7311C117.233 17.139 115.328 16.1088 113.021 15.7341C111.216 15.4532 109.511 14.8912 107.706 14.423C104.898 13.7674 102.19 13.5801 99.4826 14.7976C99.1818 14.9849 98.6803 14.7976 98.1789 14.8912C97.7778 14.8912 97.3766 14.9849 96.9755 14.9849C97.0758 15.3595 97.0758 15.8278 97.3766 16.1088C97.6775 16.4834 98.2792 16.6707 98.6803 16.9517C99.0815 17.2326 99.4826 17.4199 99.7835 17.7009C100.786 18.5438 101.689 19.574 102.892 20.7915ZM78.8239 22.571C78.7236 22.4773 78.7236 22.3837 78.6234 22.29C78.0217 22.3837 77.4199 22.3837 76.9185 22.571C76.6177 22.6647 76.4171 23.1329 76.2165 23.4139C76.5174 23.6012 76.8182 23.8822 77.2194 23.8822C78.0217 23.8822 78.8239 23.6949 79.6262 23.6012C80.1276 23.6012 80.7293 23.6012 81.1305 23.7885C82.0331 24.4441 82.5345 24.1631 83.0359 23.3202C84.3396 20.9789 84.4399 18.5438 83.1362 16.1088C82.8353 15.6405 82.3339 15.0785 81.7322 15.7341C80.6291 17.0453 79.5259 16.6707 78.2222 15.9215C76.9185 15.1722 76.4171 15.5468 76.2165 16.858C76.1162 17.5136 76.1162 18.2628 75.2137 18.1692C75.0131 18.1692 74.8125 17.3263 74.9128 16.858C75.0131 15.6405 74.7122 15.1722 73.4085 15.3595C72.1048 15.5468 70.5003 15.6405 69.5977 16.3897C67.7926 17.7009 66.2883 19.3867 64.6838 20.8852C64.4832 21.0725 64.6838 21.4471 64.6838 21.8218C64.9846 21.7281 65.3858 21.7281 65.5863 21.6344C66.2883 21.2598 67.0906 20.8852 67.6923 20.4169C68.0934 20.136 68.4946 19.9486 68.7954 19.574C69.7983 18.1692 70.6006 18.2628 71.5031 19.7613C72.8068 21.9154 75.314 22.0091 76.7179 19.7613C77.5202 18.4502 78.1219 18.4502 79.1248 19.4804C79.3254 19.7613 79.6262 19.9486 79.8268 20.2296C80.1276 20.6979 80.5288 21.3535 80.3282 21.7281C80.2279 22.1027 79.4256 22.29 78.8239 22.571ZM48.939 49.7311C48.5379 49.0755 48.3373 48.4199 47.9362 47.9517C47.535 47.577 46.833 47.3897 46.4319 47.0151C44.4262 44.9547 42.5208 42.8006 40.5151 40.7402C39.5123 39.8036 38.4091 38.8671 37.306 38.1178C37.0051 37.9305 36.3031 38.2115 35.8017 38.3051C35.902 38.6798 36.1026 39.148 36.2028 39.5227C36.604 40.7402 38.008 41.1148 38.9105 41.8641C41.6182 44.5801 44.2256 47.3897 46.9333 50.1994C47.2342 50.574 47.8359 50.6677 48.3373 50.9486C48.4376 50.574 48.6382 50.1994 48.939 49.7311ZM12.2348 38.5861C11.8336 38.6798 11.4325 38.5861 11.1316 38.7734C9.12593 39.71 8.6245 42.9879 10.3293 44.2991C11.5328 45.142 13.037 45.7039 14.441 46.2659C16.547 47.1088 17.0484 48.3263 15.845 50.1057C15.6444 50.4804 15.4439 50.7613 15.143 51.136C15.2433 51.2296 15.3436 51.3233 15.3436 51.4169C15.845 51.2296 16.4467 51.136 16.8479 50.855C19.355 49.1692 18.7533 45.7039 15.7447 44.4864C14.6416 44.0181 13.5385 43.7372 12.5356 43.2689C11.5328 42.8943 11.0313 42.145 11.2319 41.1148C11.633 40.3656 11.9339 39.5227 12.2348 38.5861ZM140.8 38.1178C139.897 38.1178 139.396 38.3051 139.697 39.429C139.897 40.1782 139.897 40.9275 139.897 41.6767C139.897 44.5801 139.797 47.577 139.697 50.4804C139.697 51.6042 140.499 51.5106 141.301 51.5106C141.903 51.5106 142.605 51.5106 142.505 50.574C142.304 47.4834 142.204 44.3927 142.104 41.3021C142.104 40.7402 142.204 40.1782 142.304 39.71C142.705 38.3051 142.505 38.1178 140.8 38.1178ZM30.5869 51.6042C32.0912 51.6042 32.4923 51.2296 32.0912 50.3867C30.988 47.858 29.8849 45.3293 28.6815 42.8943C28.0798 41.5831 27.5783 40.2719 26.9766 39.0544C26.7761 38.7734 26.1744 38.3988 25.8735 38.4924C25.1715 38.5861 24.6701 40.7402 25.2718 41.1148C26.8764 42.2387 27.0769 43.9245 27.3778 45.6103C27.4781 45.9849 27.7789 46.3595 27.8792 46.6405C28.3806 47.7644 29.0826 48.8882 29.1829 50.1057C29.2832 51.3233 29.7846 51.6042 30.5869 51.6042ZM78.9242 51.6042C79.0245 51.5106 79.6262 51.4169 79.8268 51.136C80.0273 50.855 79.7265 50.3867 79.5259 50.0121C78.9242 48.6073 78.2222 47.2024 77.6205 45.7976C76.7179 43.6435 75.8154 41.3958 74.9128 39.2417C74.7122 38.8671 74.0103 38.4925 73.6091 38.5861C72.7066 38.7734 72.4057 40.7402 73.1077 41.3021C74.5117 42.426 74.9128 44.0181 75.1134 45.7039C75.2137 46.0786 75.4142 46.4532 75.6148 46.7341C76.1162 47.858 76.8182 48.8882 77.0188 50.0121C77.1191 51.2296 77.1191 51.6042 78.9242 51.6042ZM153.235 38.2115C153.436 39.2417 153.636 39.9909 153.636 40.7402C153.636 44.0181 153.536 47.3897 153.536 50.6677C153.536 50.9486 154.038 51.4169 154.338 51.5106C155.742 51.6979 156.144 51.3233 155.943 50.0121C155.843 49.6375 155.843 49.1692 155.843 48.7946C155.843 45.6103 155.943 42.426 155.943 39.148C155.943 38.8671 155.642 38.4924 155.442 38.3988C154.74 38.2115 154.038 38.2115 153.235 38.2115ZM114.024 38.4924C112.219 38.2115 110.213 39.5227 109.311 41.0211C107.405 44.2991 107.706 47.577 110.213 50.2931C111.116 51.3233 112.821 51.7915 114.024 51.3233C111.517 49.9184 110.414 47.858 110.313 45.142C110.414 42.426 111.617 40.2719 114.024 38.4924ZM60.5721 38.8671C60.6724 38.3988 60.1709 38.0242 59.2684 38.0242C58.4661 38.0242 58.065 38.3988 58.1652 39.2417C58.2655 41.3958 58.2655 43.5499 58.2655 45.7976C58.2655 47.2024 58.1652 48.6073 58.065 50.0121C58.065 50.4804 57.9647 51.2296 58.1652 51.2296C58.7669 51.4169 59.4689 51.5106 60.0707 51.3233C60.2712 51.2296 60.5721 50.574 60.5721 50.1994C60.5721 46.6405 60.5721 42.9879 60.5721 38.8671ZM132.376 38.7734C136.688 42.8943 136.187 47.0151 132.075 51.3233C134.683 51.2296 135.986 49.8248 136.789 48.2326C137.892 45.8912 137.992 43.3625 136.488 41.0211C135.585 39.71 134.382 38.5861 132.376 38.7734ZM128.264 38.5861C125.958 38.5861 124.955 39.8973 124.153 41.2085C122.348 44.1118 122.749 47.0151 124.855 49.6375C125.557 50.574 126.459 51.4169 128.164 51.2296C124.353 47.0151 124.454 42.8943 128.264 38.5861ZM88.1504 44.7674C86.0444 45.6103 85.2422 46.9215 85.543 48.8882C85.7436 50.3867 87.4484 51.7915 89.1533 51.9789C90.7578 52.1662 92.8638 51.136 93.5658 49.4502C91.861 49.7311 90.1561 51.0423 88.5516 49.6375C86.947 48.139 87.5487 46.5468 88.1504 44.7674ZM74.7122 25.6616C74.5117 23.8822 74.0103 23.5076 72.2051 23.3202C70.9014 23.1329 69.2969 23.8822 68.294 22.29C68.1937 22.1027 67.592 22.1027 67.2912 22.29C67.0906 22.3837 66.7897 22.9456 66.89 23.1329C67.1909 23.6012 67.592 23.9758 68.0934 24.3505C68.4946 24.6314 69.1966 24.7251 69.3971 25.0997C70.0991 26.5045 71.3026 26.2236 72.506 26.2236C73.208 26.0363 74.0103 25.7553 74.7122 25.6616ZM103.594 20.7915C103.494 21.2598 103.394 21.4471 103.494 21.6344C103.695 23.7885 106.803 25.9426 109.21 25.568C109.611 25.4743 109.912 25.006 110.313 24.8187C110.013 24.5378 109.812 24.2568 109.511 24.0695C109.01 23.7885 108.408 23.6949 107.907 23.5076C107.205 23.2266 106.402 22.9456 105.7 22.4773C104.898 21.9154 104.296 21.3535 103.594 20.7915ZM90.6575 39.148C89.1533 39.429 88.4513 40.4592 88.6518 41.6767C88.9527 42.9879 89.4541 44.1118 90.7578 44.6737C91.2593 44.861 92.1618 45.0483 92.4627 44.7674C93.1647 44.2054 92.4627 43.8308 91.9613 43.3625C90.7578 42.426 89.755 41.3021 90.5573 39.71C90.6576 39.6163 90.6575 39.429 90.6575 39.148ZM98.7806 51.9789C99.2821 51.6979 99.7835 51.5106 99.8838 51.136C99.984 50.9486 99.5829 50.4804 99.2821 50.1994C98.7806 49.7311 98.1789 49.3565 97.5772 48.7946C97.1761 48.4199 96.7749 47.858 96.3738 47.4834C95.7721 46.9215 95.1704 47.1088 94.7692 47.6707C94.5687 47.9517 94.4684 48.6073 94.6689 48.7946C95.1704 49.4501 95.8724 50.1057 96.5744 50.6677C97.2764 51.136 97.9783 51.5106 98.7806 51.9789ZM24.4695 45.9849C24.0684 45.7039 23.7675 45.423 23.4667 45.2356C23.2661 45.5166 22.9652 45.8912 22.7647 46.1722C22.5641 46.6405 22.3635 47.1088 22.163 47.577C21.6615 48.5136 21.1601 49.4502 20.759 50.3867C20.6587 50.6677 20.759 51.136 20.9595 51.2296C21.2604 51.4169 21.7618 51.4169 22.0627 51.3233C22.163 51.3233 22.2632 50.7613 22.2632 50.574C21.461 48.6073 22.865 47.3897 24.4695 45.9849ZM68.996 11.8943C68.996 11.8006 68.996 11.7069 68.8957 11.6133C68.4946 11.6133 67.9932 11.6133 67.592 11.7069C66.7897 11.8943 65.9875 11.9879 65.2855 12.2689C64.8843 12.3625 64.4832 12.7372 64.2826 13.0181C64.1823 13.2054 64.4832 13.9547 64.6838 13.9547C65.0849 13.9547 65.5863 13.7674 65.9875 13.5801C66.7897 13.2054 67.6923 12.7372 68.4946 12.2689C68.5949 12.1752 68.7954 12.0816 68.996 11.8943ZM150.828 48.5136C150.628 48.4199 150.427 48.2326 150.227 48.139C149.625 48.7946 149.023 49.4502 148.522 50.1057C148.321 50.4804 148.321 50.9486 148.321 51.4169C148.823 51.4169 149.625 51.5106 149.926 51.2296C150.628 50.4804 151.029 49.5438 150.828 48.5136ZM121.646 24.8187C122.849 23.6949 123.25 19.0121 122.147 17.7946C122.047 20.136 121.846 22.4773 121.646 24.8187ZM158.149 44.3928C158.149 44.5801 158.049 44.6737 158.049 44.861C158.851 45.2357 159.553 45.7039 160.356 46.0786C160.556 45.2357 160.757 44.2991 160.857 43.4562C160.656 43.3625 160.556 43.3625 160.356 43.2689C159.654 43.6435 158.851 44.0181 158.149 44.3928ZM163.264 48.2326C162.662 48.8882 162.261 49.4502 161.86 49.9184C161.76 50.0121 161.659 50.1057 161.559 50.1994C161.459 50.4804 161.258 50.9486 161.358 51.0423C161.559 51.3233 162.06 51.5106 162.361 51.4169C163.565 51.4169 164.166 50.0121 163.264 48.2326ZM118.737 38.6798C118.637 38.7734 118.637 38.9607 118.537 39.0544C118.938 39.6163 119.239 40.2719 119.74 40.8338C119.941 41.0211 120.242 41.2085 120.542 41.2085C120.743 41.2085 120.944 40.9275 121.044 40.6465C121.144 40.1782 121.244 39.5227 120.944 39.3354C120.242 39.0544 119.439 38.9607 118.737 38.6798ZM84.841 27.8157C82.735 29.0332 80.8296 30.1571 78.8239 31.3746C80.0273 31.7492 83.3367 29.6888 84.841 27.8157ZM88.0501 16.1088C88.8524 15.6405 89.1533 15.1722 88.1504 14.423C87.649 14.142 87.3481 13.6737 86.8467 13.2991C86.5459 13.0181 86.1447 12.9245 85.7436 12.7372C85.6433 12.8308 85.6433 12.9245 85.543 13.0181C86.3453 14.0483 87.1476 14.9849 88.0501 16.1088ZM18.653 40.1782C17.951 39.5227 17.4496 39.0544 16.8479 38.5861L16.1459 39.0544C16.547 39.8036 17.0484 40.4592 17.5499 41.2085C17.951 41.0211 18.1516 40.7402 18.653 40.1782ZM66.0878 40.7402C66.2883 40.6465 66.5892 40.5529 66.7897 40.4592C66.5892 39.8036 66.5892 39.0544 66.2883 38.3988C66.188 38.1178 65.486 38.1178 64.9846 38.0242C64.8843 38.0242 64.5835 38.5861 64.5835 38.6798C65.0849 39.429 65.5863 40.0846 66.0878 40.7402ZM88.7521 18.1692C88.5516 18.1692 88.4513 18.0755 88.2507 18.0755C87.7493 20.3233 87.3481 22.571 86.8467 24.9124C86.947 24.9124 87.0473 25.006 87.2479 25.006C87.7493 22.7583 88.2507 20.4169 88.7521 18.1692ZM51.9476 40.4592C52.0479 40.5529 52.1481 40.5529 52.2484 40.6465C52.7499 40.1782 53.3516 39.8036 53.853 39.2417C54.0536 39.0544 53.7527 38.4925 53.6524 38.1178C53.151 38.3051 52.449 38.3051 52.3487 38.5861C52.0479 39.0544 52.0479 39.8036 51.9476 40.4592ZM160.556 38.1178C160.556 38.2115 160.456 38.3988 160.456 38.4924C160.757 38.8671 161.058 39.3353 161.459 39.6163C161.86 39.8973 162.361 39.9909 162.863 40.1782C162.762 39.6163 162.762 38.8671 162.361 38.5861C162.06 38.1178 161.258 38.2115 160.556 38.1178ZM117.434 29.2205C116.03 29.8761 114.726 30.5317 113.222 31.281C114.525 31.9366 116.431 31 117.434 29.2205ZM9.62735 48.6073C9.52707 48.6073 9.42678 48.6073 9.3265 48.6073C9.22621 49.2628 9.02564 49.9184 9.12593 50.574C9.12593 50.855 9.82792 51.0423 10.2291 51.2296C10.3293 50.855 10.6302 50.3867 10.5299 50.1057C10.4296 49.5438 10.0285 49.0755 9.62735 48.6073ZM121.345 49.6375C120.843 49.0755 120.542 48.7009 120.342 48.4199C119.941 48.9819 119.439 49.5438 119.138 50.1994C119.138 50.2931 119.74 50.7613 119.84 50.7613C120.342 50.4804 120.743 50.1057 121.345 49.6375ZM47.3345 38.3051C47.2342 38.4925 47.2342 38.5861 47.1339 38.7734C47.535 39.0544 48.0365 39.71 48.4376 39.6163C48.939 39.5227 49.3402 38.9607 49.7413 38.6798C49.641 38.5861 49.641 38.4925 49.5407 38.3051C48.8387 38.3051 48.0365 38.3051 47.3345 38.3051ZM121.345 15.8278C121.545 15.8278 121.646 15.8278 121.846 15.8278C121.946 15.1722 122.047 14.5166 121.946 13.9547C121.946 13.861 121.044 13.861 120.342 13.7674C120.743 14.7039 121.044 15.2659 121.345 15.8278ZM95.4712 39.8973C94.7692 39.5227 94.3681 39.2417 93.9669 39.148C93.8667 39.148 93.3652 39.71 93.4655 39.8036C93.6661 40.1782 94.0672 40.5529 94.4684 40.7402C94.5687 40.7402 94.9698 40.2719 95.4712 39.8973ZM69.7983 49.6375C69.4974 49.5438 69.1966 49.5438 68.8957 49.4502C68.6952 50.0121 68.4946 50.574 68.294 51.136C68.6952 51.2296 69.0963 51.2296 69.4974 51.3233C69.5977 50.7613 69.698 50.1994 69.7983 49.6375ZM73.208 46.2659C72.8068 46.0786 72.3054 45.8912 71.804 45.7039C71.4028 45.6103 70.9014 45.5166 70.7009 45.7039C70.4 45.9849 70.4 46.4532 70.2997 46.9215C71.5031 46.6405 72.4057 46.4532 73.208 46.2659ZM98.7806 41.9577C98.3795 42.5196 98.0786 42.8006 97.9783 43.1752C97.9783 43.4562 98.3795 43.7372 98.5801 44.0181C98.9812 43.6435 99.3823 43.3625 99.6832 42.9879C99.6832 42.8006 99.1818 42.426 98.7806 41.9577ZM103.093 30.3444C103.193 30.2508 103.293 30.1571 103.394 30.0634C102.491 29.3142 101.589 28.565 100.686 27.8157C100.586 27.9094 100.485 28.003 100.385 28.0967C101.388 28.8459 102.19 29.5952 103.093 30.3444ZM37.2057 50.0121C37.0051 50.0121 36.8046 50.0121 36.604 50.0121C36.5037 50.3867 36.4034 50.855 36.2028 51.2296C36.604 51.2296 36.9048 51.2296 37.306 51.2296C37.306 50.855 37.2057 50.3867 37.2057 50.0121Z" fill="#1A130D"/>
<path d="M102.892 20.7916C101.689 19.5741 100.786 18.6375 99.7836 17.6073C99.4827 17.3264 99.0816 17.0454 98.6804 16.8581C98.2793 16.5771 97.6776 16.3898 97.3767 16.0152C97.0759 15.7342 97.0759 15.2659 96.9756 14.8913C97.3767 14.8913 97.7779 14.7977 98.179 14.7977C98.5801 14.7977 99.0816 14.8913 99.4827 14.704C102.19 13.4865 104.898 13.6738 107.706 14.3294C109.511 14.704 111.216 15.3596 113.021 15.6406C115.328 16.0152 117.233 17.0454 118.737 18.6375C119.038 18.9185 119.038 19.3868 119.139 19.7614C118.737 19.8551 118.136 20.136 117.835 19.9487C116.832 19.4804 115.829 18.8248 114.826 18.2629C114.425 18.0756 113.924 17.701 113.523 17.701C113.222 17.7946 112.821 18.2629 112.72 18.6375C111.918 21.2599 109.611 22.0091 107.205 20.3233C106.804 20.0424 106.503 19.8551 106.102 19.5741C104.397 18.1693 103.795 18.2629 102.892 20.7916ZM111.617 17.701C111.015 17.3264 110.715 16.9517 110.514 17.0454C110.113 17.2327 109.812 17.6073 109.611 17.8883C109.511 17.9819 110.113 18.5439 110.313 18.5439C110.715 18.4502 111.015 18.0756 111.617 17.701Z" fill="#FFF3E0"/>
<path d="M78.824 22.5707C79.3255 22.2897 80.1277 22.1024 80.3283 21.7278C80.5289 21.3532 80.0275 20.6976 79.8269 20.2293C79.6263 19.9483 79.4258 19.6674 79.1249 19.4801C78.122 18.4498 77.5203 18.4498 76.7181 19.761C75.3141 21.9151 72.8069 21.9151 71.5032 19.761C70.6007 18.2625 69.7984 18.2625 68.7955 19.5737C68.4947 19.9483 68.0936 20.1356 67.6924 20.4166C66.9904 20.8849 66.2884 21.2595 65.5864 21.6341C65.2856 21.7278 64.9847 21.8214 64.6839 21.8214C64.6839 21.5405 64.4833 21.0722 64.6839 20.8849C66.2884 19.2927 67.7927 17.7006 69.5978 16.3894C70.6007 15.7338 72.1049 15.5465 73.4087 15.3592C74.7124 15.1719 75.1135 15.6402 74.9129 16.8577C74.8126 17.326 75.1135 18.1689 75.2138 18.1689C76.2166 18.2625 76.2166 17.5133 76.2166 16.8577C76.4172 15.4529 76.9186 15.1719 78.2223 15.9211C79.526 16.6704 80.6292 17.045 81.7323 15.7338C82.2337 15.0782 82.8354 15.6402 83.1363 16.1085C84.44 18.5435 84.3397 20.8849 83.036 23.3199C82.6349 24.1628 82.1334 24.4438 81.1306 23.7882C80.8297 23.5072 80.1277 23.5072 79.6263 23.6009C78.824 23.6009 78.0218 23.8819 77.2195 23.8819C76.9186 23.8819 76.6178 23.6009 76.2166 23.4136C76.4172 23.1326 76.6178 22.758 76.9186 22.5707C77.42 22.3834 78.0218 22.3834 78.6235 22.2897C78.7238 22.3834 78.824 22.477 78.824 22.5707Z" fill="#FFF3E0"/>
<path d="M48.9393 49.731C48.6384 50.1993 48.4378 50.5739 48.2373 50.9485C47.7358 50.6675 47.1341 50.5739 46.8333 50.1993C44.1256 47.4833 41.5182 44.6736 38.8105 41.8639C38.0082 41.021 36.6042 40.7401 36.1028 39.5225C36.0025 39.1479 35.8019 38.6796 35.7017 38.305C36.2031 38.2114 36.9051 37.9304 37.2059 38.1177C38.3091 38.8669 39.4122 39.8035 40.4151 40.7401C42.4207 42.8005 44.3262 44.9546 46.3319 47.015C46.733 47.3896 47.5353 47.5769 47.8361 47.9515C48.3376 48.4198 48.5381 49.0754 48.9393 49.731Z" fill="#FFF3E0"/>
<path d="M12.2348 38.5859C11.9339 39.5225 11.5328 40.3654 11.3322 41.2083C11.1317 42.2385 11.6331 42.8941 12.6359 43.3624C13.7391 43.8306 14.8422 44.1116 15.845 44.5799C18.8536 45.7974 19.4553 49.2627 16.9482 50.9485C16.547 51.2294 15.9453 51.3231 15.4439 51.5104C15.3436 51.4168 15.2433 51.3231 15.2433 51.2294C15.4439 50.8548 15.6445 50.5739 15.9453 50.1992C17.1487 48.4198 16.6473 47.2023 14.5413 46.3594C13.1374 45.7974 11.6331 45.2355 10.4297 44.3926C8.62453 43.0814 9.22624 39.8035 11.2319 38.8669C11.5328 38.5859 11.8336 38.6796 12.2348 38.5859Z" fill="#FFF3E0"/>
<path d="M140.8 38.1183C142.605 38.1183 142.705 38.3056 142.304 39.7104C142.104 40.2724 142.003 40.7407 142.104 41.3026C142.204 44.3932 142.304 47.4839 142.505 50.5745C142.505 51.5111 141.903 51.5111 141.301 51.5111C140.599 51.5111 139.697 51.6047 139.697 50.4808C139.797 47.5775 139.897 44.5805 139.897 41.6772C139.897 40.928 139.897 40.1787 139.697 39.4295C139.396 38.3056 139.897 38.0246 140.8 38.1183Z" fill="#FFF3E0"/>
<path d="M30.587 51.6041C29.7847 51.6977 29.2833 51.3231 29.183 50.1992C29.0827 48.9817 28.3807 47.8579 27.8793 46.734C27.6787 46.3594 27.4781 46.0784 27.3779 45.7038C27.077 44.018 26.8764 42.3322 25.2719 41.2083C24.6702 40.8337 25.1716 38.6796 25.8736 38.586C26.1744 38.4923 26.8764 38.8669 26.9767 39.1479C27.5784 40.3654 28.1801 41.6766 28.6816 42.9878C29.7847 45.5165 30.8878 48.0452 32.0913 50.4802C32.4924 51.2295 32.1915 51.6041 30.587 51.6041Z" fill="#FFF3E0"/>
<path d="M78.9243 51.6045C77.1192 51.6045 77.1192 51.3236 76.9186 50.0124C76.7181 48.8885 76.0161 47.7646 75.5146 46.7344C75.3141 46.3598 75.1135 46.0788 75.0132 45.7042C74.8126 44.1121 74.4115 42.5199 73.0075 41.3024C72.3055 40.7405 72.7067 38.7737 73.5089 38.5864C73.9101 38.4927 74.6121 38.961 74.8126 39.242C75.8155 41.3961 76.6178 43.6438 77.5203 45.7979C78.122 47.2027 78.824 48.6075 79.4257 50.0124C79.6263 50.387 79.8269 50.9489 79.7266 51.1362C79.6263 51.4172 79.0246 51.5109 78.9243 51.6045Z" fill="#FFF3E0"/>
<path d="M153.235 38.2119C154.038 38.2119 154.74 38.2119 155.442 38.3056C155.642 38.3056 155.943 38.7738 155.943 39.0548C155.943 42.2391 155.943 45.4234 155.843 48.7013C155.843 49.076 155.843 49.5442 155.943 49.9189C156.144 51.23 155.742 51.6047 154.338 51.4174C154.038 51.3237 153.536 50.8554 153.536 50.5745C153.536 47.2965 153.636 43.9249 153.636 40.647C153.636 39.8977 153.436 39.2421 153.235 38.2119Z" fill="#FFF3E0"/>
<path d="M114.024 38.4926C111.617 40.3657 110.414 42.4262 110.414 45.1422C110.514 47.8582 111.617 49.9186 114.124 51.3235C112.921 51.7917 111.216 51.2298 110.314 50.2932C107.806 47.5772 107.506 44.2993 109.411 41.0213C110.213 39.4292 112.319 38.2117 114.024 38.4926Z" fill="#FFF3E0"/>
<path d="M60.5721 38.8673C60.5721 42.8945 60.5721 46.5471 60.5721 50.1996C60.5721 50.5743 60.3715 51.2299 60.0706 51.3235C59.4689 51.4172 58.7669 51.4172 58.1652 51.2299C58.0649 51.2299 58.0649 50.4806 58.0649 50.0123C58.1652 48.6075 58.2655 47.2027 58.2655 45.7978C58.2655 43.6438 58.2655 41.4897 58.1652 39.2419C58.1652 38.399 58.4661 38.0244 59.2684 38.0244C60.1709 38.1181 60.6723 38.399 60.5721 38.8673Z" fill="#FFF3E0"/>
<path d="M132.376 38.7734C134.382 38.5861 135.585 39.71 136.488 41.0212C137.992 43.3626 137.892 45.8913 136.789 48.2326C136.087 49.8248 134.783 51.136 132.075 51.3233C136.087 47.0151 136.688 42.8943 132.376 38.7734Z" fill="#FFF3E0"/>
<path d="M128.264 38.5859C124.353 42.8941 124.353 47.0149 128.164 51.2294C126.459 51.4168 125.557 50.5739 124.855 49.6373C122.749 46.9213 122.448 44.1116 124.153 41.2083C124.955 39.8971 125.958 38.5859 128.264 38.5859Z" fill="#FFF3E0"/>
<path d="M88.1505 44.7676C87.4485 46.6407 86.8468 48.2328 88.5516 49.6377C90.2565 51.0425 91.861 49.825 93.5659 49.4504C92.8639 51.0425 90.7579 52.1664 89.1533 51.9791C87.3482 51.7917 85.7436 50.3869 85.5431 48.8884C85.3425 46.9217 86.1448 45.5168 88.1505 44.7676Z" fill="#FFF3E0"/>
<path d="M74.7123 25.6615C74.0103 25.8488 73.3083 26.1298 72.506 26.1298C71.4029 26.1298 70.0992 26.5044 69.3972 25.0059C69.1966 24.6313 68.4946 24.5376 68.0935 24.2566C67.6923 23.882 67.1909 23.5074 66.89 23.0391C66.7898 22.8518 67.0906 22.3835 67.2912 22.1962C67.4917 22.1026 68.1937 22.1026 68.294 22.1962C69.1966 23.7884 70.9014 23.0391 72.2051 23.2264C73.91 23.5074 74.5117 23.882 74.7123 25.6615Z" fill="#FFF3E0"/>
<path d="M103.594 20.792C104.396 21.4476 104.898 22.0095 105.6 22.3841C106.302 22.7588 107.104 23.1334 107.806 23.4143C108.308 23.6017 108.909 23.789 109.411 23.9763C109.712 24.1636 109.912 24.4446 110.213 24.7255C109.812 25.0065 109.511 25.4748 109.11 25.4748C106.803 25.943 103.694 23.789 103.394 21.5412C103.394 21.4476 103.494 21.2603 103.594 20.792Z" fill="#FFF3E0"/>
<path d="M90.6576 39.1484C90.6576 39.4294 90.7579 39.6167 90.6576 39.7104C89.9556 41.3962 90.8581 42.4264 92.0616 43.3629C92.563 43.7376 93.1647 44.2058 92.563 44.7678C92.2621 45.0487 91.3596 44.8614 90.8581 44.6741C89.5544 44.1122 88.9527 42.9883 88.7522 41.6771C88.351 40.5533 89.1533 39.5231 90.6576 39.1484Z" fill="#FFF3E0"/>
<path d="M98.7804 51.9793C97.9781 51.511 97.2761 51.1364 96.6744 50.6681C95.9724 50.1062 95.2704 49.5442 94.769 48.795C94.5684 48.514 94.6687 47.9521 94.8693 47.6711C95.2704 47.1092 95.8721 46.9219 96.4738 47.4838C96.875 47.8584 97.2761 48.4204 97.6773 48.795C98.1787 49.2633 98.7804 49.6379 99.3821 50.1998C99.683 50.4808 100.084 50.9491 99.9838 51.1364C99.7832 51.4174 99.2818 51.6047 98.7804 51.9793Z" fill="#FFF3E0"/>
<path d="M24.4696 45.9847C22.9653 47.3895 21.5613 48.5134 22.2633 50.6675C22.3636 50.8548 22.2633 51.4167 22.0628 51.4167C21.6616 51.5104 21.2605 51.5104 20.9596 51.3231C20.7591 51.2294 20.6588 50.6675 20.7591 50.4802C21.1602 49.5436 21.7619 48.607 22.1631 47.6705C22.3636 47.2022 22.5642 46.7339 22.7648 46.2657C22.9653 45.891 23.1659 45.6101 23.4668 45.3291C23.7676 45.5164 24.0685 45.7037 24.4696 45.9847Z" fill="#FFF3E0"/>
<path d="M68.9961 11.8942C68.7956 11.9879 68.595 12.1752 68.3944 12.2689C67.5921 12.7371 66.7899 13.2054 65.8873 13.58C65.4862 13.7674 64.9847 13.9547 64.5836 13.9547C64.4833 13.9547 64.0822 13.2991 64.1825 13.0181C64.383 12.6435 64.7842 12.3625 65.1853 12.2689C65.8873 11.9879 66.6896 11.8942 67.4919 11.7069C67.893 11.6133 68.3944 11.6133 68.7956 11.6133C68.9961 11.7069 68.9961 11.8006 68.9961 11.8942Z" fill="#FFF3E0"/>
<path d="M150.828 48.5133C151.129 49.5435 150.628 50.4801 149.926 51.2293C149.625 51.5103 148.923 51.323 148.321 51.4166C148.422 50.9483 148.321 50.4801 148.522 50.1054C149.023 49.3562 149.625 48.7943 150.227 48.1387C150.427 48.2323 150.628 48.4196 150.828 48.5133Z" fill="#FFF3E0"/>
<path d="M121.646 24.8191C121.846 22.5714 122.047 20.1363 122.147 17.7949C123.25 19.0124 122.849 23.6016 121.646 24.8191Z" fill="#FFF3E0"/>
<path d="M158.149 44.3924C158.952 44.0178 159.654 43.6432 160.456 43.2686C160.657 43.3622 160.757 43.3622 160.957 43.4559C160.757 44.2988 160.556 45.2353 160.456 46.0782C159.654 45.7036 158.952 45.2353 158.149 44.8607C158.049 44.6734 158.049 44.4861 158.149 44.3924Z" fill="#FFF3E0"/>
<path d="M163.264 48.2324C164.166 50.0119 163.565 51.4167 162.361 51.5104C162.06 51.5104 161.559 51.3231 161.358 51.1357C161.258 50.9484 161.459 50.5738 161.559 50.2928C161.559 50.1992 161.76 50.1055 161.86 50.0119C162.261 49.4499 162.662 48.9817 163.264 48.2324Z" fill="#FFF3E0"/>
<path d="M118.737 38.6797C119.439 38.867 120.242 39.0543 120.843 39.4289C121.044 39.5226 120.944 40.2718 120.944 40.7401C120.944 40.9274 120.643 41.302 120.442 41.302C120.141 41.302 119.841 41.2084 119.64 40.9274C119.239 40.3655 118.838 39.7099 118.437 39.148C118.637 38.9607 118.737 38.867 118.737 38.6797Z" fill="#FFF3E0"/>
<path d="M84.8408 27.8154C83.3366 29.6885 80.1274 31.749 78.8237 31.3743C80.8294 30.1568 82.7348 29.033 84.8408 27.8154Z" fill="#FFF3E0"/>
<path d="M88.0499 16.1089C87.1473 14.985 86.4453 14.0485 85.6431 13.0183C85.7434 12.9246 85.7433 12.831 85.8436 12.7373C86.2448 12.9246 86.5456 13.1119 86.9468 13.2992C87.3479 13.6739 87.749 14.0485 88.2505 14.4231C89.0528 15.1723 88.8522 15.6406 88.0499 16.1089Z" fill="#FFF3E0"/>
<path d="M18.6529 40.1779C18.1515 40.7398 17.8507 40.9271 17.6501 41.2081C17.1487 40.4588 16.6472 39.8032 16.2461 39.054C16.2461 39.054 16.8478 38.4921 16.9481 38.5857C17.4495 39.054 18.0512 39.5223 18.6529 40.1779Z" fill="#FFF3E0"/>
<path d="M66.0876 40.7405C65.5862 40.0849 65.0848 39.4293 64.5833 38.7738C64.4831 38.6801 64.8842 38.1182 64.9845 38.1182C65.4859 38.1182 66.0876 38.2118 66.2882 38.4928C66.589 39.0547 66.6893 39.804 66.7896 40.5532C66.589 40.5532 66.3885 40.6469 66.0876 40.7405Z" fill="#FFF3E0"/>
<path d="M88.7521 18.1688C88.2507 20.4165 87.7492 22.6642 87.2478 24.912C87.1475 24.912 87.0472 24.8183 86.8467 24.8183C87.3481 22.5706 87.7492 20.3228 88.2507 17.9814C88.4512 18.1688 88.5515 18.1688 88.7521 18.1688Z" fill="#FFF3E0"/>
<path d="M51.9478 40.4596C52.048 39.804 52.048 39.1484 52.3489 38.5864C52.5495 38.3055 53.2515 38.3055 53.6526 38.1182C53.7529 38.4928 53.9535 39.0547 53.8532 39.242C53.452 39.804 52.8503 40.1786 52.2486 40.6469C52.1483 40.5532 52.048 40.4596 51.9478 40.4596Z" fill="#FFF3E0"/>
<path d="M160.556 38.1182C161.158 38.2118 161.96 38.1182 162.361 38.4928C162.763 38.7738 162.662 39.523 162.863 40.0849C162.361 39.8976 161.86 39.804 161.459 39.523C161.058 39.242 160.757 38.7738 160.456 38.3991C160.456 38.3055 160.556 38.2118 160.556 38.1182Z" fill="#FFF3E0"/>
<path d="M117.434 29.2207C116.431 30.9065 114.525 31.9367 113.222 31.2811C114.726 30.6255 116.03 29.9699 117.434 29.2207Z" fill="#FFF3E0"/>
<path d="M9.62739 48.6074C9.92824 49.0757 10.3294 49.544 10.53 50.1059C10.6302 50.3869 10.3294 50.8552 10.2291 51.2298C9.82796 51.0425 9.12596 50.8552 9.12596 50.5742C9.02568 49.9186 9.22625 49.263 9.32653 48.6074C9.42682 48.6074 9.5271 48.6074 9.62739 48.6074Z" fill="#FFF3E0"/>
<path d="M121.345 49.6374C120.743 50.1057 120.342 50.4803 119.841 50.7613C119.74 50.855 119.038 50.293 119.139 50.1994C119.54 49.5438 119.941 48.9819 120.342 48.4199C120.643 48.7945 120.944 49.0755 121.345 49.6374Z" fill="#FFF3E0"/>
<path d="M47.3344 38.3047C48.0364 38.3047 48.8386 38.3047 49.5406 38.3047C49.6409 38.3983 49.6409 38.492 49.7412 38.6793C49.3401 39.0539 48.9389 39.6159 48.4375 39.6159C48.0364 39.6159 47.5349 39.0539 47.1338 38.773C47.2341 38.5857 47.2341 38.3983 47.3344 38.3047Z" fill="#FFF3E0"/>
<path d="M121.345 15.828C121.044 15.2661 120.743 14.6105 120.342 13.7676C121.044 13.8612 121.946 13.8612 121.946 13.9549C122.047 14.6105 121.846 15.2661 121.846 15.828C121.646 15.828 121.445 15.828 121.345 15.828Z" fill="#FFF3E0"/>
<path d="M95.4712 39.8977C94.9698 40.2723 94.4684 40.7406 94.3681 40.7406C93.9669 40.4596 93.6661 40.1786 93.3652 39.804C93.265 39.7104 93.7664 39.1484 93.8667 39.1484C94.4684 39.2421 94.8695 39.5231 95.4712 39.8977Z" fill="#FFF3E0"/>
<path d="M69.7982 49.6375C69.6979 50.1994 69.5977 50.7614 69.4974 51.3233C69.0962 51.2297 68.6951 51.2297 68.2939 51.136C68.4945 50.5741 68.6951 50.0121 68.8957 49.4502C69.1965 49.5439 69.4974 49.6375 69.7982 49.6375Z" fill="#FFF3E0"/>
<path d="M73.2081 46.2658C72.4058 46.4531 71.5032 46.6404 70.2998 46.9214C70.4001 46.4531 70.4001 45.9848 70.7009 45.7038C70.9015 45.5165 71.4029 45.6102 71.8041 45.7038C72.3055 45.7975 72.8069 46.0785 73.2081 46.2658Z" fill="#FFF3E0"/>
<path d="M98.7805 41.958C99.1816 42.4263 99.6831 42.8946 99.5828 42.8946C99.2819 43.2692 98.8808 43.6438 98.4796 43.9248C98.2791 43.6438 97.8779 43.3628 97.8779 43.0819C97.9782 42.8009 98.3794 42.4263 98.7805 41.958Z" fill="#FFF3E0"/>
<path d="M103.093 30.3441C102.19 29.5949 101.288 28.8456 100.385 28.0964C100.486 28.0027 100.586 27.9091 100.686 27.8154C101.589 28.5647 102.491 29.3139 103.394 30.0632C103.294 30.1568 103.193 30.2505 103.093 30.3441Z" fill="#FFF3E0"/>
<path d="M37.2058 50.0117C37.3061 50.3863 37.3061 50.8546 37.4064 51.2292C37.0052 51.2292 36.7044 51.2292 36.3032 51.2292C36.4035 50.8546 36.5038 50.3863 36.7044 50.0117C36.7044 50.0117 36.9049 50.0117 37.2058 50.0117Z" fill="#FFF3E0"/>
<path d="M111.617 17.7014C111.015 18.076 110.714 18.4506 110.313 18.5443C110.113 18.5443 109.511 17.9824 109.611 17.8887C109.812 17.5141 110.113 17.1395 110.514 17.0458C110.614 16.9522 111.015 17.3268 111.617 17.7014Z" fill="#1A130D"/>
</g>
<defs>
<clipPath id="clip0_608_5209">
<rect width="176" height="62" fill="white"/>
</clipPath>
</defs>
</svg>
