<svg width="149" height="61" viewBox="0 0 149 61" fill="none" xmlns="http://www.w3.org/2000/svg">
<path d="M-2 61.8847C-2 40.9354 -2 19.9861 -2 -1C48.9381 -1 99.8762 -1 150.814 -1C150.814 19.9493 150.814 40.8801 150.814 61.8847C99.7834 61.8847 48.901 61.8847 -2 61.8847ZM42.7914 28.5538C42.8656 28.5538 42.9399 28.5538 43.0142 28.5722C43.0885 28.867 43.1999 29.1434 43.2185 29.4382C43.4042 31.4834 43.5527 33.5286 43.757 35.5553C43.7941 35.8501 44.0356 36.2555 44.2955 36.3476C44.6298 36.4581 45.0569 36.3292 45.354 36.2923C45.1312 35.5 44.8898 34.9657 44.8155 34.413C44.4998 31.8334 44.2398 29.2355 43.9613 26.656C43.9241 26.2875 43.7942 25.9374 43.6456 25.3847C43.3856 25.7163 43.2742 25.79 43.2185 25.9006C41.9928 28.4801 40.7858 31.0596 39.5416 33.6207C39.4487 33.8234 39.2259 34.026 39.0402 34.0813C38.9288 34.1182 38.6688 33.8418 38.5945 33.6575C37.7588 31.9624 36.9603 30.2673 36.1247 28.5722C35.6233 27.5588 35.1033 26.5455 34.6019 25.5137C34.4719 25.5321 34.3419 25.5505 34.1933 25.5505C33.7662 29.125 33.3391 32.6994 32.912 36.366C33.4877 36.4213 34.0076 36.624 34.0634 35.758C34.1933 33.676 34.3233 31.6123 34.4719 29.5303C34.4905 29.3276 34.5648 29.125 34.6205 28.9039C34.7319 28.867 34.8433 28.8302 34.9547 28.7749C36.1804 31.2438 37.3874 33.7128 38.6131 36.1818C38.743 36.2002 38.8545 36.2186 38.9845 36.237C40.2472 33.7128 41.51 31.1333 42.7914 28.5538ZM77.1463 35.9791C76.9048 35.9054 76.6449 35.887 76.422 35.7764C75.8649 35.5 75.3264 35.2052 74.7878 34.9104C74.2307 34.6156 74.0822 34.2656 74.4536 33.6575C74.8436 32.9942 75.1221 32.2572 75.3821 31.5386C75.4749 31.2807 75.4007 30.8016 75.2335 30.6727C74.9921 30.4884 74.5836 30.5621 74.5093 30.5437C74.305 31.6308 74.1564 32.4783 73.9522 33.3259C73.8222 33.8786 73.4322 33.8786 73.0794 33.5101C71.7609 32.1651 70.4238 30.8201 69.1611 29.4198C68.8268 29.0513 68.6597 28.4985 68.5297 28.0195C68.3254 27.2272 68.8082 26.0848 69.5696 25.79C70.2938 25.5137 71.0738 25.5505 71.6495 26.2138C71.8909 26.4902 72.0952 26.8034 72.4109 27.2272C72.8194 25.9927 72.4851 25.3478 71.5752 25.2189C71.0552 25.1452 70.5167 25.1267 69.9967 25.2373C68.2326 25.5874 66.9326 27.264 67.6569 28.7749C68.1026 29.6777 67.8426 30.1199 67.1926 30.6727C66.1713 31.5386 65.7813 32.6994 66.0413 34.0076C66.6169 36.9003 70.331 37.4531 72.3551 35.7948C73.0237 35.2605 73.4508 35.2052 74.1379 35.7211C74.8993 36.2739 75.7535 36.7529 77.1463 35.9791ZM50.7394 25.3663C50.7394 28.996 50.7208 32.3862 50.758 35.7948C50.758 36.0159 51.0551 36.4213 51.2408 36.4213C52.615 36.495 53.9892 36.5134 55.3634 36.4766C55.9576 36.4581 56.2176 36.1081 55.9948 35.5922C55.1034 35.7027 54.3049 35.8685 53.5064 35.887C52.7079 35.9054 52.1136 35.5737 52.1507 34.6156C52.1879 33.6023 52.095 32.5889 52.1879 31.5939C52.2065 31.336 52.6893 30.9122 52.9678 30.9122C53.7664 30.9122 54.5649 31.078 55.3634 31.1886C55.6977 30.3042 55.5862 30.1752 54.6392 30.2673C54.082 30.3226 53.5249 30.3042 52.9678 30.3226C52.3922 30.341 52.1322 30.0094 52.1322 29.475C52.1322 28.6275 52.0393 27.7799 52.1693 26.9508C52.225 26.5639 52.6521 25.9927 52.9493 25.9559C53.5621 25.8822 54.212 26.1401 54.8434 26.2507C55.0848 26.2875 55.3262 26.4349 55.5305 26.3796C55.6419 26.3428 55.7719 25.919 55.6977 25.8085C55.5491 25.6058 55.252 25.4031 55.0291 25.4031C53.6364 25.3478 52.225 25.3663 50.7394 25.3663ZM135.902 35.6106C134.9 35.7027 134.045 35.8317 133.173 35.8317C132.43 35.8317 131.947 35.4816 131.966 34.6341C131.984 33.7865 131.966 32.9389 131.947 32.1098C131.928 31.0227 132.133 30.8201 133.247 30.9122C133.693 30.949 134.138 31.078 134.602 31.1149C134.825 31.1333 135.141 31.1517 135.271 31.0227C135.382 30.9122 135.401 30.5253 135.29 30.4147C135.16 30.2673 134.862 30.212 134.621 30.212C134.027 30.2305 133.433 30.4147 132.875 30.2857C132.504 30.212 132.021 29.7698 131.966 29.4198C131.836 28.5906 131.873 27.7247 131.966 26.8955C132.003 26.5639 132.3 25.9927 132.504 25.9927C133.247 25.9927 134.008 26.1585 134.77 26.2691C134.974 26.3059 135.234 26.5086 135.345 26.4349C135.494 26.3428 135.605 26.048 135.568 25.8637C135.531 25.6795 135.308 25.4215 135.16 25.4031C133.674 25.3663 132.188 25.3847 130.833 25.3847C130.833 27.2272 130.87 28.7749 130.833 30.3226C130.777 32.1283 130.703 33.9339 130.573 35.7396C130.517 36.3292 130.796 36.4213 131.223 36.4213C132.467 36.4581 133.711 36.5134 134.955 36.5318C135.587 36.5318 135.977 36.2555 135.902 35.6106ZM12.0205 26.3059C13.0604 26.2322 14.1004 26.1033 15.1217 26.1217C15.4003 26.1217 15.9203 26.5823 15.9203 26.8403C15.9203 29.7883 15.8274 32.7363 15.8088 35.6843C15.8088 35.9238 16.0688 36.3107 16.2917 36.366C16.6259 36.4581 17.0159 36.3292 17.3687 36.3107C17.2759 35.4816 17.1459 34.7815 17.1459 34.0629C17.1088 32.1835 17.1273 30.2857 17.1088 28.4064C17.0902 25.9743 17.7587 25.4952 20.1728 26.2691C20.2657 26.3059 20.3585 26.3796 20.4514 26.3796C20.6928 26.3428 20.9342 26.2875 21.1756 26.2322C21.0271 25.9559 20.9342 25.5689 20.7114 25.4215C20.47 25.2741 20.08 25.3847 19.7457 25.3663C17.4987 25.3294 15.2332 25.311 12.9862 25.2557C12.1505 25.2557 11.8905 25.5689 12.0205 26.3059ZM86.1528 34.9657C85.8 35.629 85.9857 36.0896 86.5428 36.4029C87.4713 36.9556 89.6254 36.7345 90.4797 36.0344C92.0396 34.7815 92.1324 32.681 90.6468 31.2438C89.8297 30.4516 88.9012 29.7698 88.0841 28.9776C87.137 28.0747 87.0813 27.0798 87.8427 26.2138C88.4555 25.5137 89.7183 25.5137 90.6282 26.177C90.8511 26.3428 91.0739 26.4902 91.2968 26.656C91.3896 26.5823 91.501 26.5086 91.5939 26.4349C91.3896 26.0664 91.1853 25.3847 90.9625 25.3663C89.8854 25.3294 88.6598 25.182 87.7313 25.6058C86.0971 26.3612 85.8743 28.3327 87.1185 29.733C87.9727 30.7095 89.0312 31.5018 89.9597 32.423C90.8325 33.289 90.9254 34.3208 90.2754 35.2605C89.7369 36.0712 88.6041 36.366 87.5641 35.9054C87.0813 35.6843 86.6913 35.3342 86.1528 34.9657ZM95.0665 26.3796C95.3079 26.3796 95.4379 26.3981 95.5493 26.3796C96.4221 26.2691 97.2764 26.1033 98.1492 26.0296C98.7805 25.9743 99.1334 26.3244 99.1334 26.9692C99.1334 27.7431 99.152 28.5354 99.1148 29.3092C99.022 31.5018 98.9105 33.6944 98.8548 35.887C98.8548 36.0712 99.3377 36.3476 99.6348 36.4029C100.043 36.495 100.489 36.4766 100.47 35.7948C100.378 32.8837 100.322 29.9541 100.229 27.0429C100.21 26.3428 100.545 25.9743 101.232 26.0296C101.975 26.0848 102.699 26.2507 103.442 26.3428C103.665 26.3796 103.943 26.4718 104.073 26.3796C104.203 26.2875 104.259 25.9374 104.184 25.7716C104.092 25.5874 103.832 25.4584 103.609 25.3478C103.516 25.2926 103.349 25.3847 103.219 25.3663C100.842 25.3294 98.4463 25.311 96.0693 25.2557C95.3265 25.2557 95.1222 25.6611 95.0665 26.3796ZM106.821 25.5137C107.434 26.3244 108.01 26.9508 108.437 27.6694C109.681 29.733 111.464 31.6123 110.944 34.3208C110.851 34.7999 110.758 35.2789 110.721 35.758C110.703 35.9607 110.795 36.3476 110.87 36.3476C111.278 36.3844 111.705 36.3844 112.114 36.2923C112.207 36.2739 112.3 35.9238 112.281 35.7211C112.244 34.5235 112.151 33.3259 112.114 32.1283C112.114 31.7966 112.207 31.3912 112.393 31.1149C113.414 29.4566 114.491 27.8352 115.531 26.1954C115.642 26.0296 115.679 25.8085 115.772 25.4952C115.289 25.4584 114.918 25.44 114.51 25.4215C114.472 25.7348 114.528 25.9927 114.417 26.177C113.618 27.6325 112.801 29.0697 111.965 30.4884C111.91 30.5621 111.334 30.5068 111.241 30.3594C110.406 28.867 109.626 27.3193 108.79 25.8085C108.697 25.6242 108.456 25.4031 108.251 25.3847C107.88 25.3847 107.453 25.4584 106.821 25.5137ZM126.264 35.6106C124.927 35.7211 123.962 35.887 123.015 35.887C122.142 35.8685 121.678 35.3526 121.678 34.4314C121.696 32.7178 121.659 30.9859 121.659 29.2724C121.659 28.388 121.678 27.522 121.678 26.6376C121.678 26.2875 121.789 25.7163 121.64 25.6426C121.306 25.4584 120.823 25.5137 120.285 25.4584C120.285 29.0697 120.285 32.4599 120.303 35.8685C120.303 36.0528 120.601 36.4029 120.768 36.4213C122.29 36.495 123.832 36.5503 125.373 36.5134C125.633 36.4581 125.893 35.9791 126.264 35.6106ZM25.651 25.5505C25.7068 25.919 25.8182 26.2322 25.8182 26.5455C25.7625 29.5856 25.6696 32.6257 25.6139 35.6659C25.6139 35.887 25.7068 36.2923 25.8182 36.3107C26.2267 36.3844 26.6538 36.366 27.0624 36.3292C27.1552 36.3107 27.2852 36.0159 27.2852 35.8685C27.2109 33.7497 27.081 31.6123 27.0067 29.4935C26.9695 28.5538 26.9324 27.6141 27.0438 26.6744C27.1738 25.4215 27.0438 25.2557 25.651 25.5505Z" fill="#1A130D"/>
<path d="M-2 61.8847C48.901 61.8847 99.7834 61.8847 150.814 61.8847C150.814 40.8801 150.814 19.9493 150.814 -1C150.889 -0.705199 151 -0.410398 151 -0.115597C151 16.1353 151 32.3678 151 48.6187C151 53.1144 151 57.6101 151 62.0874C100.285 62.0874 49.5881 62.0874 -1.1272 62.0874C-1.40575 62.069 -1.70288 61.9584 -2 61.8847Z" fill="#FFF3E0"/>
<path d="M42.7905 28.5543C41.5092 31.1338 40.2464 33.7133 38.965 36.2928C38.835 36.2744 38.7236 36.2559 38.5936 36.2375C37.368 33.7686 36.1609 31.2996 34.9353 28.8306C34.8239 28.8675 34.7125 28.9043 34.601 28.9596C34.5453 29.1623 34.471 29.365 34.4525 29.5861C34.3039 31.6681 34.1554 33.7317 34.0439 35.8137C33.9882 36.6797 33.4683 36.477 32.8926 36.4218C33.3383 32.7552 33.7468 29.1807 34.1739 25.6063C34.3039 25.5878 34.4339 25.5694 34.5825 25.5694C35.0839 26.5828 35.6038 27.5962 36.1052 28.628C36.9409 30.3231 37.7394 32.0366 38.5751 33.7133C38.6679 33.8975 38.9279 34.1555 39.0207 34.1371C39.225 34.0818 39.4293 33.8791 39.5221 33.6764C40.7478 31.0969 41.9734 28.5174 43.199 25.9563C43.2548 25.8458 43.3476 25.7537 43.6262 25.4404C43.7747 25.9932 43.9047 26.3433 43.9419 26.7118C44.239 29.2913 44.499 31.8892 44.7961 34.4687C44.8704 35.0215 45.0932 35.5558 45.3346 36.3481C45.0375 36.3665 44.6104 36.5139 44.2761 36.4033C44.0347 36.3112 43.7747 35.9059 43.7376 35.6111C43.5333 33.5659 43.3848 31.5391 43.199 29.4939C43.1805 29.1991 43.0691 28.9043 42.9948 28.628C42.9391 28.5727 42.8648 28.5543 42.7905 28.5543Z" fill="#FFF3E0"/>
<path d="M77.146 35.9791C75.7533 36.753 74.899 36.2739 74.1376 35.7212C73.4506 35.2053 73.0234 35.2606 72.3549 35.7949C70.3308 37.4531 66.6167 36.9004 66.041 34.0077C65.7811 32.6995 66.171 31.5387 67.1924 30.6727C67.8423 30.12 68.0838 29.6778 67.6566 28.775C66.9138 27.2641 68.2323 25.5874 69.9965 25.2373C70.4979 25.1452 71.055 25.1636 71.575 25.2189C72.4663 25.3295 72.8006 25.9928 72.4106 27.2272C72.0949 26.8035 71.8907 26.4902 71.6492 26.2139C71.0736 25.5506 70.2936 25.5137 69.5694 25.7901C68.8266 26.0665 68.3252 27.2088 68.5294 28.0195C68.6594 28.517 68.8266 29.0513 69.1608 29.4198C70.4236 30.8201 71.7607 32.1467 73.0791 33.5102C73.432 33.8787 73.822 33.8787 73.9519 33.3259C74.1562 32.4784 74.2862 31.6308 74.5091 30.5438C74.5648 30.5438 74.9919 30.4885 75.2333 30.6727C75.419 30.8017 75.4747 31.2808 75.3819 31.5387C75.1404 32.2757 74.8619 32.9943 74.4533 33.6576C74.0819 34.2656 74.2491 34.6157 74.7876 34.9105C75.3261 35.2053 75.8647 35.5185 76.4218 35.7765C76.6446 35.887 76.9046 35.9054 77.146 35.9791ZM68.3623 30.3595C66.821 31.7598 66.6353 33.547 67.7681 34.8552C68.7709 35.9976 70.9064 36.2002 72.1692 35.2974C72.6892 34.9289 72.7077 34.6525 72.2435 34.2472C71.6678 33.7313 71.0921 33.1785 70.5536 32.6258C69.8108 31.8704 69.0865 31.1149 68.3623 30.3595Z" fill="#FFF3E0"/>
<path d="M50.7383 25.3659C52.2239 25.3659 53.6167 25.3475 55.028 25.3844C55.2694 25.3844 55.548 25.587 55.6965 25.7897C55.7708 25.9003 55.6408 26.324 55.5294 26.3609C55.3251 26.4162 55.0651 26.2872 54.8423 26.2319C54.2109 26.1029 53.561 25.8634 52.9481 25.9371C52.6324 25.974 52.2239 26.5451 52.1682 26.9321C52.0568 27.7612 52.131 28.6087 52.131 29.4563C52.131 29.9906 52.391 30.3223 52.9667 30.3038C53.5238 30.2854 54.0809 30.3039 54.638 30.2486C55.5851 30.1564 55.7151 30.2854 55.3623 31.1698C54.5452 31.0593 53.7467 30.8935 52.9667 30.8935C52.6882 30.8935 52.2053 31.3172 52.1868 31.5752C52.0939 32.5701 52.1868 33.5835 52.1496 34.5969C52.1125 35.555 52.7067 35.8866 53.5052 35.8682C54.3038 35.8498 55.1023 35.684 55.9936 35.5734C56.2165 36.0893 55.9565 36.4394 55.3623 36.4578C53.9881 36.4947 52.6139 36.4762 51.2397 36.4025C51.054 36.4025 50.7569 35.9972 50.7569 35.7761C50.7383 32.3859 50.7383 28.9957 50.7383 25.3659Z" fill="#FFF3E0"/>
<path d="M135.903 35.6104C135.977 36.2553 135.587 36.5316 134.937 36.5316C133.693 36.5132 132.449 36.4579 131.204 36.4211C130.777 36.4027 130.499 36.329 130.554 35.7394C130.703 33.9337 130.777 32.1281 130.814 30.3224C130.852 28.7747 130.814 27.227 130.814 25.3845C132.17 25.3845 133.656 25.3661 135.141 25.4029C135.29 25.4029 135.513 25.6793 135.55 25.8635C135.587 26.0478 135.476 26.3426 135.327 26.4347C135.216 26.5084 134.956 26.3057 134.751 26.2689C134.009 26.1583 133.247 25.9925 132.486 25.9925C132.3 25.9925 131.984 26.5637 131.947 26.8953C131.873 27.7245 131.817 28.5904 131.947 29.4196C132.003 29.7512 132.504 30.2119 132.857 30.2856C133.414 30.3961 134.027 30.2119 134.603 30.2119C134.826 30.2119 135.141 30.2671 135.271 30.4145C135.383 30.5435 135.364 30.9304 135.253 31.0226C135.123 31.1515 134.807 31.1331 134.584 31.1147C134.138 31.0778 133.693 30.9489 133.229 30.912C132.096 30.8199 131.891 31.0226 131.929 32.1096C131.947 32.9572 131.966 33.8047 131.947 34.6339C131.929 35.4814 132.411 35.8499 133.154 35.8315C134.046 35.8315 134.9 35.7025 135.903 35.6104Z" fill="#FFF3E0"/>
<path d="M12.0208 26.306C11.8908 25.569 12.1694 25.2374 12.9679 25.2742C15.2149 25.3295 17.4805 25.3479 19.7275 25.3848C20.0617 25.3848 20.4517 25.2927 20.6931 25.4401C20.9345 25.569 21.0088 25.9744 21.1574 26.2508C20.916 26.306 20.6745 26.3797 20.4331 26.3982C20.3403 26.4166 20.2474 26.3245 20.1546 26.2876C17.7404 25.5138 17.0719 25.9928 17.0905 28.4249C17.1091 30.3043 17.0905 32.2021 17.1276 34.0814C17.1462 34.7816 17.2762 35.4817 17.3505 36.3293C16.9976 36.3661 16.5891 36.4767 16.2734 36.3846C16.0506 36.3293 15.7906 35.9423 15.7906 35.7028C15.8091 32.7548 15.902 29.8068 15.902 26.8588C15.902 26.6008 15.382 26.1402 15.1035 26.1402C14.0821 26.1034 13.0608 26.2323 12.0208 26.306Z" fill="#FFF3E0"/>
<path d="M86.1532 34.9656C86.6917 35.3341 87.0817 35.6842 87.546 35.8869C88.6045 36.3475 89.7187 36.0527 90.2572 35.242C90.8886 34.3023 90.7957 33.2705 89.9415 32.4046C89.013 31.4833 87.9545 30.691 87.1003 29.7145C85.8561 28.3142 86.0789 26.3427 87.7131 25.5873C88.623 25.1635 89.8672 25.3109 90.9443 25.3478C91.1671 25.3478 91.3714 26.0295 91.5757 26.4164C91.4828 26.4901 91.3714 26.5638 91.2786 26.6375C91.0557 26.4717 90.8329 26.3243 90.61 26.1585C89.7001 25.4952 88.4373 25.4952 87.8245 26.1953C87.0631 27.0613 87.1188 28.0562 88.0659 28.9591C88.883 29.7514 89.8115 30.4331 90.6286 31.2254C92.1142 32.6625 92.0028 34.763 90.4615 36.0159C89.5887 36.716 87.4531 36.9371 86.5246 36.3844C85.9861 36.0896 85.8004 35.6289 86.1532 34.9656Z" fill="#FFF3E0"/>
<path d="M95.0669 26.3796C95.1412 25.6426 95.3269 25.2556 96.0883 25.2741C98.4652 25.3478 100.861 25.3662 103.238 25.3846C103.368 25.3846 103.516 25.3109 103.628 25.3662C103.851 25.4767 104.111 25.5873 104.203 25.79C104.278 25.9374 104.222 26.2874 104.092 26.398C103.962 26.4901 103.683 26.398 103.461 26.3611C102.718 26.2506 101.994 26.1032 101.251 26.0479C100.564 25.9926 100.229 26.3796 100.248 27.0613C100.322 29.9725 100.378 32.902 100.489 35.8132C100.508 36.4949 100.062 36.5134 99.6537 36.4212C99.3566 36.366 98.8738 36.0711 98.8738 35.9053C98.9109 33.7127 99.0409 31.5202 99.1338 29.3276C99.1709 28.5537 99.1523 27.7614 99.1523 26.9876C99.1523 26.3427 98.7995 25.9926 98.1681 26.0479C97.2953 26.1216 96.4411 26.2874 95.5683 26.398C95.4383 26.398 95.3083 26.3796 95.0669 26.3796Z" fill="#FFF3E0"/>
<path d="M106.821 25.5137C107.452 25.4769 107.861 25.3848 108.288 25.4216C108.474 25.44 108.715 25.6427 108.826 25.8454C109.643 27.3563 110.423 28.8855 111.278 30.3964C111.352 30.5438 111.946 30.5991 112.002 30.5254C112.856 29.1066 113.673 27.6695 114.453 26.2139C114.546 26.0297 114.509 25.7717 114.546 25.4585C114.955 25.4769 115.326 25.4953 115.809 25.5322C115.697 25.8454 115.679 26.0481 115.567 26.2323C114.527 27.8722 113.45 29.4936 112.429 31.1518C112.243 31.4466 112.15 31.8335 112.15 32.1652C112.169 33.3628 112.262 34.5605 112.318 35.7581C112.318 35.9608 112.243 36.3108 112.15 36.3293C111.742 36.403 111.315 36.4214 110.906 36.3845C110.832 36.3845 110.739 35.9976 110.758 35.7949C110.795 35.3159 110.888 34.8368 110.981 34.3578C111.5 31.6309 109.718 29.7699 108.474 27.7063C108.009 26.9509 107.434 26.3245 106.821 25.5137Z" fill="#FFF3E0"/>
<path d="M126.265 35.6109C125.894 35.9794 125.653 36.4769 125.393 36.4769C123.87 36.5138 122.329 36.4585 120.787 36.3848C120.62 36.3848 120.323 36.0347 120.323 35.832C120.286 32.4418 120.304 29.0332 120.304 25.4219C120.843 25.4772 121.326 25.4219 121.66 25.6061C121.809 25.6983 121.697 26.251 121.697 26.6011C121.697 27.4855 121.66 28.3515 121.679 29.2359C121.679 30.9494 121.716 32.6813 121.697 34.3949C121.679 35.3346 122.161 35.8505 123.034 35.8505C123.963 35.8873 124.91 35.7215 126.265 35.6109Z" fill="#FFF3E0"/>
<path d="M25.6514 25.5505C27.0442 25.2557 27.1927 25.4215 27.0442 26.6745C26.9327 27.5957 26.9699 28.5538 27.007 29.4935C27.0813 31.6124 27.1927 33.7497 27.2856 35.8686C27.2856 36.0344 27.1556 36.3292 27.0627 36.3292C26.6542 36.3845 26.2271 36.4029 25.8185 36.3108C25.7071 36.2923 25.6143 35.887 25.6143 35.6659C25.67 32.6257 25.7628 29.5856 25.8185 26.5455C25.8185 26.2323 25.7071 25.919 25.6514 25.5505Z" fill="#FFF3E0"/>
<path d="M68.3623 30.3594C69.0865 31.1148 69.8108 31.8887 70.5536 32.6441C71.1107 33.1968 71.6678 33.7496 72.2434 34.2655C72.7077 34.6708 72.7077 34.9472 72.1692 35.3157C70.9064 36.2001 68.7523 36.0159 67.768 34.8735C66.6167 33.5285 66.8209 31.7597 68.3623 30.3594Z" fill="#1A130D"/>
</svg>
