<svg width="99" height="61" viewBox="0 0 99 61" fill="none" xmlns="http://www.w3.org/2000/svg">
<path d="M0 61C0 40.6667 0 20.3333 0 0C32.9744 0 65.9488 0 98.9231 0C98.9231 20.3333 98.9231 40.6667 98.9231 61C65.9488 61 32.9744 61 0 61ZM21.9061 30.4616C21.9829 30.4616 21.9829 30.4616 22.0598 30.5384C22.1366 31.2289 22.1366 31.9962 22.2135 32.6868C22.2904 32.9937 22.4441 33.3774 22.7516 33.5308C22.9053 33.6075 23.3665 33.3774 23.5202 33.2239C24.75 31.9962 25.9798 30.6918 27.2096 29.3874C28.2857 28.3132 29.3618 27.3157 30.4379 26.2415C30.9759 25.7044 31.4371 25.8579 31.7446 26.395C31.9752 26.7019 32.2057 27.0855 32.2826 27.4692C32.5901 28.5434 32.8207 29.6943 33.1281 30.7686C33.8967 33.3006 35.434 34.4516 38.2011 33.5308C39.1234 33.2239 39.8921 32.6868 40.8144 32.3031C41.1219 32.1497 41.7368 32.073 41.9674 32.2264C43.7352 33.5308 45.6568 33.8377 47.809 33.6843C50.1149 33.5308 52.3439 33.0704 54.3424 31.766C56.4177 30.3849 57.4169 28.4667 57.5707 26.0113C57.5707 25.6277 57.8012 25.244 57.8781 24.8604C58.1856 25.0138 58.493 25.244 58.8005 25.3975C59.1079 25.6277 59.4922 25.7811 59.7228 26.0881C61.2601 27.6226 62.1056 28.8503 60.7989 31.2289C60.4146 31.9195 60.5683 32.917 60.4915 33.761C61.337 33.8377 62.2593 34.1447 63.1048 33.9145C64.9495 33.5308 66.2562 32.3031 67.4092 30.922C67.6397 30.6918 67.9472 30.3082 68.2547 30.3082C68.9464 30.2314 69.177 29.7711 69.4076 29.234C69.7151 28.4667 70.0225 27.6226 70.4837 26.9321C71.6366 25.3975 73.2508 25.1673 75.0186 25.3975C75.4029 25.4742 75.7873 25.0138 76.1716 24.8604C75.8641 24.5535 75.5567 24.0931 75.2492 24.0164C72.7896 23.556 70.33 24.6302 69.177 26.9321C68.4853 28.3132 67.8703 29.6176 66.6405 30.6151C65.795 31.3057 64.8727 31.9962 64.0272 32.6101C63.8735 32.6868 63.7197 32.7635 63.566 32.6868C63.1048 32.6868 62.6436 32.6101 62.1056 32.5333C62.1825 32.073 62.1825 31.6126 62.2593 31.1522C62.413 30.3082 63.0279 29.3107 62.7974 28.6201C61.9519 25.7811 59.7997 23.9396 57.1863 22.7887C56.4946 22.4818 55.9565 23.0189 56.0334 23.7094C56.0334 23.9396 56.1871 24.1698 56.264 24.4767C56.9557 26.9321 55.6491 30.1547 53.3432 31.0755C51.4216 31.766 49.3463 32.3031 47.271 32.5333C46.1949 32.6868 45.0419 32.2264 43.889 32.073C43.7352 32.073 43.4278 31.766 43.4278 31.5358C43.4278 31.3824 43.6584 31.0755 43.8121 30.9987C44.2733 30.6918 44.8113 30.3849 45.2725 30.078C46.6561 29.1572 47.8859 28.083 48.5776 26.5484C49.0388 25.4742 48.8082 23.9396 47.9627 23.2491C47.3478 22.7119 46.118 22.6352 45.2725 23.1723C42.6592 24.7069 41.3525 26.9321 41.1988 29.9245C41.1988 30.4616 40.8144 31.0755 40.4301 31.3824C39.6615 31.9195 38.7391 32.3799 37.8168 32.6868C36.3564 33.2239 35.3571 32.6101 35.0497 31.1522C34.7422 29.6943 34.5885 28.2365 34.2811 26.7786C34.0505 25.4742 33.743 24.1698 33.3587 22.9421C33.1281 22.1748 32.4363 21.9447 31.8983 22.4818C30.8991 23.4025 29.8998 24.4767 29.0543 25.4742C27.6708 27.1623 26.2873 28.8503 24.9037 30.5384C24.6731 30.8453 24.0582 30.9987 23.7508 30.922C23.5202 30.8453 23.2896 30.2314 23.3665 29.8478C23.4433 29.0038 23.6739 28.083 23.7508 27.239C23.8276 26.6252 23.9045 26.0113 23.8276 25.3975C23.6739 24.5535 23.059 24.1698 22.2904 24.4767C21.368 24.8604 20.4457 25.3975 19.6002 25.9346C19.3696 26.088 19.2927 26.395 19.139 26.6252C19.4464 26.6252 19.7539 26.7019 19.9845 26.5484C20.5994 26.2415 21.2143 25.8579 21.8292 25.5509C22.1366 25.3975 22.521 25.4742 22.8284 25.5509C22.9821 25.6277 22.9821 26.088 22.9821 26.3182C22.4441 27.7761 22.2135 29.0805 21.9061 30.4616ZM75.4029 32.6868C76.7096 32.5333 77.4783 31.4591 78.17 30.3849C79.2461 28.8503 79.1693 27.0855 78.3238 25.3975C78.17 25.1673 77.7857 25.0138 77.5551 24.8604C77.4014 25.1673 77.0939 25.4742 77.0939 25.7811C77.0939 26.2415 77.3245 26.6252 77.4014 27.0855C77.4783 27.7761 77.632 28.6201 77.4014 29.1572C76.8633 30.4616 76.0179 31.6126 75.4029 32.6868ZM74.6343 33.1472C74.5574 32.9937 74.4806 32.9937 74.4806 32.9937C73.712 33.0704 72.8665 33.0704 72.0978 33.1472C70.7912 33.2239 69.8688 32.6101 69.4076 31.3824C69.3307 31.1522 69.1002 30.922 68.7927 30.5384C68.4853 31.9962 69.2539 33.5308 70.33 33.8377C71.8672 34.0679 73.2508 33.9912 74.6343 33.1472ZM22.9821 35.6792C22.0598 36.5233 22.2135 37.2906 23.2127 37.9044C24.3657 38.6717 24.3657 38.6717 23.3665 39.6692C23.2896 39.7459 23.2896 39.8226 23.2127 39.9761C24.1351 40.283 24.5194 39.5925 24.75 39.0553C24.9037 38.8252 24.5194 38.0579 24.212 37.8277C23.4433 37.444 22.7516 37.0604 22.9821 35.6792ZM77.9394 39.5925C78.0163 39.5157 78.17 39.439 78.2469 39.3623C77.7857 38.2881 77.3245 37.2138 76.7865 36.1396C76.7096 35.9862 76.4022 35.9862 76.1716 35.9094C76.0947 36.2164 76.0179 36.6767 76.0179 36.7535C76.7865 37.0604 76.6328 37.7509 76.8634 38.2881C77.0171 38.8252 77.5551 39.1321 77.9394 39.5925ZM33.5893 21.561C34.3579 20.8704 34.896 20.3333 35.434 19.7962C35.5877 19.6428 35.5109 19.4126 35.5109 19.1824C35.5109 19.1057 35.2803 19.0289 35.1266 19.0289C34.5116 19.1057 33.5124 20.4868 33.5893 21.561ZM58.0318 36.2931C57.5707 37.444 57.6475 38.595 58.0318 39.7459C58.1087 39.9761 58.7236 39.9761 59.0311 40.1296C59.1079 40.0528 59.1848 39.9761 59.2616 39.8226C57.5707 39.0553 58.4161 37.5208 58.0318 36.2931ZM50.1918 39.2088C50.2686 39.2088 50.3455 39.2088 50.4992 39.2088C50.4992 38.2113 50.4992 37.2138 50.4992 36.2164C50.4224 36.2164 50.3455 36.2164 50.1918 36.2164C50.1918 37.2138 50.1918 38.2113 50.1918 39.2088ZM74.4037 39.439C74.5575 39.5157 74.6343 39.5925 74.788 39.5925C74.9418 38.7484 76.479 38.595 75.6335 37.1371C75.1724 38.0579 74.788 38.7484 74.4037 39.439ZM67.3323 36.3698C66.7174 37.2906 66.8711 38.8252 67.486 39.2855C67.4092 38.2881 67.4092 37.2906 67.3323 36.3698Z" fill="#1A130D"/>
<path d="M21.9056 30.4615C22.213 29.0804 22.4436 27.776 22.6742 26.3948C22.7511 26.1646 22.6742 25.7043 22.5205 25.6275C22.213 25.4741 21.8287 25.4741 21.5213 25.6275C20.9064 25.8577 20.2915 26.3181 19.6766 26.625C19.446 26.7017 19.1385 26.7017 18.8311 26.7017C18.9848 26.4716 19.0616 26.0879 19.2922 26.0112C20.1377 25.4741 21.0601 24.937 21.9825 24.5533C22.7511 24.2464 23.4429 24.5533 23.5197 25.4741C23.5966 26.0879 23.5197 26.7017 23.4429 27.3156C23.366 28.1596 23.1354 29.0804 23.0585 29.9244C23.0585 30.308 23.2123 30.9219 23.4429 30.9986C23.7503 31.0753 24.3652 30.9219 24.5958 30.615C26.0562 28.9269 27.3629 27.2388 28.7464 25.5508C29.6688 24.4766 30.5911 23.4791 31.5904 22.5583C32.2053 22.0212 32.8202 22.2514 33.0508 23.0187C33.4351 24.3231 33.7425 25.5508 33.9731 26.8552C34.2806 28.3131 34.4343 29.7709 34.7418 31.2288C35.0492 32.6866 36.1253 33.3005 37.5088 32.7634C38.4312 32.4565 39.3536 31.9961 40.1222 31.459C40.5065 31.1521 40.8908 30.5382 40.8908 30.0011C41.0446 27.0087 42.3512 24.7068 44.9646 23.2489C45.887 22.7118 47.1168 22.8653 47.6548 23.3256C48.4234 24.0162 48.7309 25.5508 48.2697 26.625C47.5779 28.1596 46.2713 29.2338 44.9646 30.1546C44.5034 30.4615 43.9654 30.7684 43.5042 31.0753C43.3505 31.2288 43.1199 31.459 43.1199 31.6124C43.1199 31.7659 43.3505 32.0728 43.5811 32.1495C44.734 32.3797 45.887 32.7634 46.963 32.6099C49.0383 32.303 51.1137 31.8426 53.0352 31.1521C55.3411 30.308 56.7247 27.0854 55.9561 24.5533C55.8792 24.3231 55.8023 24.0929 55.7255 23.786C55.6486 23.0955 56.1866 22.5583 56.8784 22.8653C59.5686 24.0162 61.6439 25.8577 62.4894 28.6967C62.72 29.464 62.1051 30.3848 61.9514 31.2288C61.8745 31.6892 61.7977 32.1495 61.7977 32.6099C62.2588 32.6866 62.72 32.7634 63.2581 32.7634C63.4118 32.7634 63.5655 32.7634 63.7192 32.6866C64.6416 31.9961 65.4871 31.3055 66.3326 30.6917C67.5624 29.7709 68.1773 28.3898 68.8691 27.0087C70.022 24.7835 72.4048 23.6326 74.9413 24.0929C75.3256 24.1697 75.5562 24.63 75.8637 24.937C75.4793 25.1672 75.095 25.5508 74.7107 25.4741C72.9428 25.2439 71.3287 25.5508 70.1758 27.0087C69.7146 27.6992 69.4071 28.5433 69.0997 29.3105C68.8691 29.9244 68.6385 30.308 67.9467 30.3848C67.6393 30.4615 67.3318 30.7684 67.1012 30.9986C65.8714 32.303 64.5647 33.6074 62.7969 33.991C61.9514 34.1445 61.1059 33.9143 60.1835 33.8376C60.2604 32.9936 60.1067 31.9961 60.491 31.3055C61.7977 28.9269 60.9522 27.6992 59.4149 26.1646C59.1843 25.9344 58.8 25.7043 58.4925 25.4741C58.1851 25.2439 57.8776 25.0904 57.5702 24.937C57.4933 25.3206 57.2627 25.7043 57.2627 26.0879C57.1859 28.5433 56.1098 30.4615 54.0345 31.8426C52.036 33.147 49.807 33.5307 47.5011 33.7609C45.4258 33.9143 43.4273 33.6074 41.6595 32.303C41.4289 32.1495 40.8908 32.2263 40.5065 32.3797C39.661 32.7634 38.8155 33.3005 37.8932 33.6074C35.2029 34.6049 33.5888 33.3772 32.8202 30.8451C32.5127 29.7709 32.2821 28.62 31.9747 27.5458C31.8978 27.1621 31.6672 26.7785 31.4366 26.4716C31.0523 25.9344 30.5911 25.781 30.13 26.3181C29.0539 27.3923 27.9778 28.3898 26.9017 29.464C25.6719 30.6917 24.4421 31.9961 23.2123 33.3005C22.9817 33.5307 22.5974 33.7609 22.4436 33.6074C22.213 33.4539 21.9825 33.0703 21.9056 32.7634C21.8287 32.0728 21.8287 31.3055 21.7519 30.615C22.0593 30.4615 21.9825 30.4615 21.9056 30.4615ZM47.3474 25.7043C46.963 25.1672 46.7324 24.5533 46.1944 24.2464C45.887 24.0929 45.1183 24.3231 44.734 24.63C43.1199 25.781 42.5818 27.469 42.2744 29.3105C42.1975 30.0011 42.6587 30.308 43.2736 29.9244C44.2728 29.2338 45.272 28.5433 46.1175 27.6992C46.7325 27.2388 46.963 26.4716 47.3474 25.7043Z" fill="#FFF3E0"/>
<path d="M75.4033 32.6872C76.0951 31.5362 76.8637 30.462 77.4018 29.2344C77.6324 28.6205 77.4786 27.8532 77.4018 27.1627C77.3249 26.7023 77.0943 26.3186 77.0943 25.8583C77.0943 25.5513 77.4018 25.2444 77.5555 24.9375C77.863 25.091 78.2473 25.2444 78.3241 25.4746C79.1696 27.1627 79.2465 28.8507 78.1704 30.462C77.4786 31.4595 76.71 32.6105 75.4033 32.6872Z" fill="#FFF3E0"/>
<path d="M74.6345 33.1474C73.251 34.0682 71.7906 34.1449 70.3302 33.7613C69.2541 33.5311 68.4855 31.9198 68.7929 30.4619C69.1004 30.8456 69.2541 31.0757 69.4078 31.3059C69.7922 32.5336 70.7145 33.2242 72.0981 33.0707C72.8667 32.994 73.7122 32.994 74.4808 32.9173C74.4808 32.994 74.5577 32.994 74.6345 33.1474Z" fill="#FFF3E0"/>
<path d="M22.9825 35.6797C22.675 36.9841 23.4437 37.3677 24.1355 37.8281C24.4429 38.0583 24.8272 38.7489 24.6735 39.0558C24.366 39.5162 24.0586 40.2835 23.1362 39.9765C23.2131 39.8231 23.2131 39.7464 23.29 39.6696C24.2892 38.6721 24.2892 38.6721 23.1362 37.9048C22.2907 37.291 22.0601 36.5237 22.9825 35.6797Z" fill="#FFF3E0"/>
<path d="M77.9396 39.5926C77.5553 39.209 77.0941 38.8253 76.8635 38.3649C76.6329 37.8278 76.7098 37.1373 76.018 36.8304C75.9412 36.8304 76.0949 36.2932 76.1717 35.9863C76.4023 36.0631 76.7098 36.0631 76.7867 36.2165C77.3247 37.2907 77.7859 38.3649 78.2471 39.4392C78.0933 39.4392 78.0165 39.5159 77.9396 39.5926Z" fill="#FFF3E0"/>
<path d="M33.5891 21.5614C33.4353 20.4872 34.5114 19.106 35.1263 19.0293C35.2801 19.0293 35.5107 19.106 35.5107 19.1828C35.5107 19.4129 35.5875 19.7199 35.4338 19.7966C34.9726 20.4104 34.3577 20.8708 33.5891 21.5614Z" fill="#FFF3E0"/>
<path d="M58.0316 36.293C58.4159 37.5206 57.5704 39.0552 59.2614 39.8225C59.1845 39.8993 59.1077 39.976 59.0308 40.1294C58.6465 40.0527 58.0316 39.976 58.0316 39.7458C57.6473 38.6716 57.5704 37.5206 58.0316 36.293Z" fill="#FFF3E0"/>
<path d="M50.1914 39.2092C50.1914 38.2118 50.1914 37.2143 50.1914 36.2168C50.2683 36.2168 50.3451 36.2168 50.4989 36.2168C50.4989 37.2143 50.4989 38.2118 50.4989 39.2092C50.3451 39.2092 50.2683 39.2092 50.1914 39.2092Z" fill="#FFF3E0"/>
<path d="M74.4033 39.4386C74.7876 38.748 75.172 37.9807 75.6331 37.1367C76.4786 38.5946 74.9414 38.8248 74.7876 39.5921C74.7108 39.5921 74.557 39.5153 74.4033 39.4386Z" fill="#FFF3E0"/>
<path d="M67.3325 36.3701C67.4093 37.2909 67.4093 38.2116 67.4862 39.2858C66.8713 38.8255 66.7944 37.2909 67.3325 36.3701Z" fill="#FFF3E0"/>
<path d="M47.3482 25.704C46.8871 26.4713 46.6565 27.2386 46.1953 27.6989C45.3498 28.543 44.3506 29.2335 43.3514 29.9241C42.7365 30.3077 42.2753 30.0008 42.3521 29.3103C42.5827 27.4688 43.1976 25.7807 44.8118 24.6298C45.1961 24.3228 45.8878 24.0927 46.2722 24.2461C46.7333 24.553 46.9639 25.1669 47.3482 25.704Z" fill="#1A130D"/>
</svg>
