<svg width="92" height="62" viewBox="0 0 92 62" fill="none" xmlns="http://www.w3.org/2000/svg">
<path d="M0 62C0 41.3132 0 20.6868 0 0C30.6466 0 61.2931 0 92 0C92 20.6265 92 41.3132 92 62C61.3534 62 30.7069 62 0 62ZM36.1967 51.4455C36.257 51.144 36.3777 50.9027 36.438 50.6012C36.5587 50.0584 36.3777 49.7568 35.5934 49.7568C36.0157 50.2996 35.0505 51.144 36.1967 51.4455C36.1967 51.928 35.6538 52.3502 36.1364 52.893C36.3777 52.6517 36.619 52.4708 36.8603 52.2296C37.162 52.4105 37.4033 52.5914 37.7652 52.8327C37.7049 52.2296 37.6446 51.7471 37.6446 51.4455C37.0413 51.4455 36.619 51.4455 36.1967 51.4455ZM37.4636 15.8016C36.619 15.3191 35.8951 15.3794 35.1108 15.9825C34.5075 16.465 34.1456 17.0681 34.3266 17.5506C35.2315 16.6459 36.0761 15.7412 37.4636 15.8016C37.6446 16.1031 37.9462 16.465 37.8859 16.7665C37.8256 17.6712 38.5495 18.0331 38.9115 18.6362C38.9718 18.7568 39.3338 18.6965 39.5751 18.7568C39.5148 18.5759 39.5148 18.3346 39.3941 18.1537C39.2734 17.8521 38.9718 17.6109 38.9115 17.249C38.7908 16.465 38.2479 15.9825 37.4636 15.8016ZM44.0997 7.35798C43.798 7.29767 43.6171 7.23735 43.4361 7.23735C42.0485 7.23735 40.661 7.17704 39.2734 7.23735C39.0321 7.23735 38.7908 7.4786 38.5495 7.59922C38.7908 7.78016 39.0321 8.0214 39.2734 8.0214C40.118 8.0214 40.3593 8.5642 40.6007 9.22763C41.5056 11.7004 42.4105 14.1128 43.3154 16.5253C44.0997 18.6965 44.9443 20.928 45.7285 23.0992C45.9095 23.5214 46.3318 23.642 46.6938 23.3405C46.8748 23.1595 46.9954 22.9183 47.1161 22.7374C47.478 21.893 47.84 21.0486 48.1416 20.144C49.3482 16.8268 50.5548 13.4494 51.7613 10.1323C52.1233 9.04669 52.4249 7.96109 53.8125 7.71984C53.8125 7.71984 53.8728 7.65953 53.8728 7.4786C53.6315 7.41829 53.4505 7.29767 53.2092 7.29767C52.2439 7.23735 51.2787 7.23735 50.3738 7.23735C50.1325 7.23735 49.8911 7.4786 49.7102 7.53891C49.8911 7.65953 50.0721 7.90078 50.3134 7.96109C50.7357 8.08171 51.0977 8.20233 50.9167 8.74514C50.4341 10.3735 50.0721 12.0019 49.5292 13.57C48.8656 15.6206 48.0813 17.6109 47.2971 19.6012C47.2367 19.7218 47.1764 19.7821 46.9351 20.0837C46.6334 19.3599 46.3318 18.7568 46.0905 18.1537C45.0046 15.3191 43.979 12.4844 42.9534 9.58949C42.4708 8.20233 42.5311 8.20233 43.798 7.65953C43.8584 7.65953 43.9187 7.53891 44.0997 7.35798ZM78.4866 39.3833C78.4866 39.4436 78.4866 39.5642 78.4262 39.6245C78.5469 39.6848 78.6072 39.7451 78.7279 39.8054C79.2105 40.107 79.6328 41.2529 79.4518 41.9767C79.2708 42.6401 78.7279 42.8813 78.1246 42.9416C76.4957 43.1829 75.0479 42.9416 73.962 41.5545C72.6951 39.8658 72.9967 37.5739 74.3239 36.0661C75.5908 34.679 78.5469 34.6187 79.5725 35.8249C79.8138 36.1265 80.1757 36.428 80.5377 36.0058C80.8393 35.5837 80.5377 35.2821 80.1757 35.0409C77.8833 33.5934 73.6 33.9553 72.1521 37.0311C71.4885 38.4786 71.3679 41.2529 73.3587 42.6401C75.5305 44.1479 77.8229 44.0272 80.1757 43.1829C80.4774 43.0623 80.7187 42.6401 80.779 42.3385C80.8393 41.6148 80.8393 40.891 80.779 40.1673C80.779 39.9261 80.5377 39.5642 80.4171 39.5039C79.7534 39.3833 79.1502 39.3833 78.4866 39.3833ZM49.1069 39.5039C49.2879 39.3833 49.5895 39.2023 49.8911 39.0817C50.977 38.5389 51.5803 37.5739 51.3993 36.5486C51.2184 35.4027 50.4341 34.5584 49.2275 34.4377C48.4433 34.3171 47.659 34.3171 46.9351 34.3171C45.9698 34.2568 45.7889 34.4377 45.7889 35.4027C45.7889 37.2724 45.7889 39.142 45.7889 41.072C45.7889 41.7354 45.7285 42.3988 45.7889 43.0019C45.8492 43.2432 46.2111 43.5447 46.4525 43.6051C46.6334 43.6051 47.1161 43.3035 47.1161 43.1226C47.1764 41.7957 47.1764 40.4689 47.1764 39.142C47.1764 38.0564 47.1161 36.9708 47.1161 35.8249C47.1161 35.5837 47.4177 35.2218 47.659 35.1012C48.202 34.7996 49.3482 35.3424 49.8308 35.9455C50.2531 36.5486 50.3134 37.393 49.7705 37.9358C49.3482 38.358 48.8656 38.7198 48.3829 39.0817C48.0813 39.323 47.9003 39.5039 48.202 39.9261C48.6846 40.5292 49.1672 41.1926 49.5895 41.856C50.0118 42.5798 50.5548 43.2432 51.3993 43.4844C51.6407 43.5447 52.0026 43.4844 52.4852 43.4241C51.2787 42.037 50.2531 40.8307 49.1069 39.5039ZM60.6898 39.6848C60.6295 39.6848 60.6295 39.6848 60.6898 39.6848C60.6898 40.7101 60.6295 41.7354 60.6898 42.7607C60.6898 43.0019 60.9311 43.1829 61.0518 43.3638C61.1725 43.1829 61.3534 43.0019 61.4741 42.7607C61.5344 42.6401 61.5344 42.3988 61.4741 42.2179C61.4741 40.5895 61.4138 38.9611 61.4138 37.3327C61.4138 37.0914 61.5948 36.8502 61.7154 36.6089C61.8964 36.7296 62.1377 36.7899 62.3187 36.9708C63.4649 38.2374 64.6111 39.5039 65.7574 40.7704C66.4813 41.5545 67.1449 42.3385 67.8689 43.1226C68.0498 43.3035 68.2911 43.3638 68.4721 43.4844C68.5325 43.2432 68.6531 43.0623 68.6531 42.821C68.7134 42.4591 68.7134 42.0973 68.7134 41.6751C68.7134 39.5642 68.7738 37.4533 68.7134 35.3424C68.7134 34.9805 68.4721 34.679 68.3515 34.3171C68.1705 34.6187 67.9292 34.9805 67.9292 35.2821C67.8689 36.8502 67.9292 38.4183 67.9292 39.9261C67.9292 40.1673 67.7482 40.4689 67.6879 40.7101C67.4466 40.5895 67.2052 40.4689 67.0846 40.2879C65.3351 38.358 63.5856 36.428 61.7757 34.5584C61.5948 34.3774 61.2931 34.3171 61.0518 34.1965C60.9311 34.4377 60.6898 34.7393 60.6898 34.9805C60.6295 36.6089 60.6898 38.177 60.6898 39.6848ZM39.4544 39.2023C40.48 39.6245 41.0833 39.142 41.6866 38.7198C42.4708 38.177 42.7725 37.4533 42.6518 36.5486C42.5311 35.7043 42.0485 35.1012 41.2643 34.679C40.0577 34.0759 38.7908 34.3171 37.5843 34.3171C37.1016 34.3171 36.981 34.7996 36.981 35.2821C36.981 37.2724 36.981 39.2626 36.981 41.3132C36.981 41.856 36.981 42.3385 36.981 42.8813C36.981 43.3638 37.2223 43.7257 37.7049 43.6654C38.0066 43.6051 38.2479 43.1829 38.4289 42.8813C38.5495 42.6401 38.4289 42.3385 38.4289 42.037C38.4289 40.0467 38.4289 37.9961 38.3685 36.0058C38.3685 35.3424 38.6702 35.1012 39.2734 35.1012C40.118 35.0409 40.9626 35.5837 41.2643 36.3677C41.5659 37.1517 41.3849 37.8152 40.6007 38.4183C40.3593 38.6595 39.9974 38.8405 39.4544 39.2023ZM30.5259 43.8463C30.5259 43.786 30.5862 43.7257 30.5862 43.6654C30.8879 43.6654 31.1292 43.6654 31.4308 43.6654C32.3357 43.6051 33.6629 42.6401 33.8439 41.7354C34.0249 40.5895 33.9043 39.5642 32.6977 38.9008C32.2151 38.5992 31.6721 38.358 31.1895 38.1167C30.7069 37.8755 30.2243 37.5739 29.802 37.2724C29.078 36.6693 29.1987 35.5233 30.1036 35.1615C30.8879 34.8599 31.6118 34.9202 32.3357 35.4027C32.6374 35.644 32.939 35.8249 33.1803 35.4027C33.4216 35.0409 33.1803 34.7393 32.8184 34.5584C31.7928 34.1362 30.7672 34.0156 29.7416 34.4377C28.1128 35.0409 27.6905 37.2121 29.0177 38.2977C29.621 38.8405 30.4656 39.142 31.1895 39.5642C31.6118 39.8054 32.1548 40.0467 32.4564 40.4689C32.6977 40.8307 32.8787 41.4339 32.758 41.856C32.5167 42.5195 31.9134 42.9416 31.1895 42.9416C30.3449 43.0019 29.5607 42.9416 28.8971 42.2179C28.7161 42.037 28.3541 42.0973 28.0525 42.0973C28.1128 42.3988 28.1128 42.7004 28.2334 42.9416C28.2938 43.0623 28.4748 43.1829 28.6557 43.2432C29.259 43.4844 29.9226 43.6654 30.5259 43.8463ZM16.2282 41.3735C15.9266 41.0117 15.7456 40.891 15.6249 40.6498C14.901 39.0214 14.177 37.3327 13.4531 35.7043C13.2721 35.2821 13.0308 34.7996 12.7292 34.4981C12.5482 34.3171 12.1259 34.3774 11.8243 34.3171C11.7639 34.6187 11.7036 34.9202 11.7639 35.2218C11.8243 35.5233 12.0656 35.7646 12.1862 36.0661C13.2118 38.358 14.2374 40.7101 15.263 43.0019C15.3233 43.1829 15.5646 43.3638 15.7456 43.3638C15.9266 43.3638 16.1075 43.1226 16.2282 42.9416C17.4348 40.3482 18.6413 37.8152 19.8479 35.2218C19.9685 34.9805 19.8479 34.679 19.8479 34.4377C19.6066 34.5584 19.2446 34.679 19.1843 34.8599C18.6413 35.9455 18.219 37.0311 17.7364 38.1167C17.1934 39.142 16.7711 40.1673 16.2282 41.3735ZM24.5534 39.0214C24.5534 37.7549 24.5534 36.4883 24.5534 35.2821C24.5534 34.7393 24.4931 34.2568 23.8295 34.2568C23.2262 34.2568 23.1659 34.7393 23.1659 35.2218C23.1659 37.6946 23.1659 40.1673 23.1056 42.5798C23.1056 43.1226 23.2262 43.6051 23.8295 43.6051C24.4328 43.6051 24.6138 43.1829 24.5534 42.6401C24.5534 41.4338 24.5534 40.2276 24.5534 39.0214ZM55.562 39.0214C55.562 40.2879 55.562 41.5545 55.562 42.8813C55.562 43.3638 55.8033 43.6654 56.2256 43.6051C56.5272 43.5447 56.7685 43.2432 57.0098 43.0019C57.1305 42.8813 57.0702 42.6401 57.0702 42.3988C57.0702 39.9864 57.0702 37.6342 57.0098 35.2218C57.0098 34.7996 56.9495 34.3171 56.4066 34.3171C55.743 34.3171 55.6826 34.7393 55.6826 35.2821C55.562 36.4883 55.562 37.7549 55.562 39.0214ZM34.5075 12.4844C33.9043 12.786 33.301 13.1479 32.6977 13.5097C32.3357 13.6907 32.0341 14.1128 32.3961 14.4144C32.6977 14.716 33.2407 15.0175 33.663 14.9572C34.2059 14.8969 34.2662 14.3541 33.7836 13.9922C33.663 13.8716 33.5423 13.6907 33.482 13.5097C33.7233 13.4494 33.9043 13.2685 34.1456 13.2685C34.6885 13.3288 35.1712 13.5097 35.2315 14.1732C35.2315 14.3541 35.5331 14.4747 35.7141 14.5953C35.7744 14.5953 36.0157 14.3541 36.0157 14.1732C36.0761 13.6907 35.0505 12.6654 34.5075 12.4844ZM58.1561 14.5953C58.2164 14.6556 58.337 14.8969 58.5784 15.0175C59.1213 15.3191 59.423 14.9572 59.7246 14.5953C59.8452 14.4144 59.9659 13.9922 59.8452 13.8113C59.3023 12.9669 58.3974 12.7257 57.4925 12.5447C57.3115 12.5447 57.0702 12.7257 56.9495 12.9066C56.7082 13.2082 56.5272 13.5097 56.3462 13.8716C56.2859 14.0525 56.4066 14.3541 56.4066 14.5953C56.5875 14.4747 56.8289 14.3541 56.9495 14.1732C57.1305 13.9319 57.1908 13.6303 57.4321 13.4494C57.7941 13.1479 58.337 12.9066 58.6387 13.4494C58.7593 13.6303 58.3974 14.0525 58.1561 14.5953ZM37.4636 20.3249C37.2223 20.2043 37.0413 20.0837 36.8603 19.9027C36.3174 19.4805 36.3174 18.9377 36.9207 18.6362C37.343 18.4553 37.5843 18.214 37.2826 17.7918C37.0413 17.3696 36.619 17.1284 36.1364 17.43C35.5934 17.7315 35.3521 18.4553 35.5331 19.0584C35.8951 20.0837 36.619 20.6868 37.343 20.5058C37.343 20.5058 37.3429 20.4455 37.4636 20.3249ZM54.657 20.3852C54.657 20.4455 54.7174 20.5058 54.7174 20.5661C55.019 20.5058 55.4413 20.5661 55.6223 20.3852C56.0446 19.963 56.4669 19.4202 56.5875 18.8774C56.7082 18.5156 56.4066 17.9125 56.1652 17.5506C56.0446 17.3696 55.562 17.3696 55.3207 17.4903C55.0793 17.6109 54.8984 17.9125 54.838 18.1537C54.838 18.3346 55.0793 18.5759 55.3207 18.6965C55.8033 18.9981 55.8636 19.3599 55.4413 19.7821C55.2 20.0233 54.8984 20.2043 54.657 20.3852ZM52.4249 19.5409C52.9075 18.9981 53.3298 18.6362 53.6315 18.1537C53.9934 17.6109 54.1744 16.9475 54.4761 16.3444C54.5364 16.2237 54.4761 16.0428 54.5364 15.8619C54.3554 15.9222 54.1744 15.8619 54.1141 15.9825C53.8728 16.284 53.6315 16.6459 53.4505 16.9475C53.1489 17.4903 52.8472 18.0331 52.4852 18.6965C52.2439 18.2743 52.1233 18.0934 52.0026 17.8521C51.9423 17.9125 51.8216 17.9125 51.7613 17.9728C51.9423 18.5156 52.1836 18.9981 52.4249 19.5409ZM52.9075 21.7724C52.9679 21.6517 53.0282 21.5311 53.0885 21.4105C52.4852 21.0486 51.9423 20.6265 51.339 20.2646C50.1928 19.6012 49.3482 20.0233 48.9862 21.3502C49.6498 21.1693 50.1325 20.3852 50.9771 20.8677C51.5803 21.1693 52.2439 21.4708 52.9075 21.7724ZM38.7908 21.5311C38.8512 21.6518 38.8511 21.7121 38.9115 21.8327C39.1528 21.7724 39.4544 21.7121 39.6957 21.5914C40.661 21.1089 41.6262 20.4455 42.7725 21.0486H42.8328C42.9534 20.3852 42.6518 20.0837 41.8675 20.0837C40.5403 19.963 39.8767 21.1089 38.7908 21.5311ZM52.6059 13.751C53.1488 14.1128 53.5108 14.4144 53.8728 14.5953C54.0538 14.716 54.3554 14.6556 54.5967 14.6556C54.5364 14.4144 54.4761 14.1732 54.3554 14.0525C54.1744 13.8113 53.9331 13.6303 53.6315 13.5097C53.3902 13.3891 52.9679 13.2082 52.7869 13.3288C52.3043 13.6304 51.52 13.8113 51.5803 14.5953C51.5803 14.7763 51.8216 14.8969 51.882 15.0175C52.0026 14.8969 52.063 14.716 52.1233 14.5953C52.3646 14.3541 52.4249 14.1128 52.6059 13.751ZM40.0577 14.8366C40.6007 14.5953 40.661 14.3541 40.2387 13.9319C39.8767 13.6304 39.5148 13.3288 39.1528 13.0272C38.8512 13.2685 38.4892 13.4494 38.2479 13.751C38.0066 14.0525 37.162 14.1732 37.7049 14.716C38.1272 15.1984 38.3685 14.4747 38.7305 14.2938C39.0321 14.1732 39.3941 13.9922 39.6354 14.0525C39.8164 14.0525 39.8767 14.4747 40.0577 14.8366ZM34.6282 49.4552C34.5679 49.3949 34.4472 49.3949 34.3869 49.3346C34.2662 49.4553 34.0249 49.6362 34.0249 49.7568C33.9646 50.6615 33.9043 51.5661 33.9646 52.5311C33.9646 52.6517 34.2662 52.7724 34.4472 52.893C34.5075 52.7121 34.6282 52.5311 34.6885 52.3502C34.7489 52.1089 34.6885 51.8074 34.6885 51.5661C34.6282 50.8424 34.6282 50.1187 34.6282 49.4552ZM49.7705 51.3852H49.7102C49.7102 51.6868 49.6498 52.0486 49.7102 52.3502C49.7705 52.5311 49.9515 52.6517 50.0721 52.8327C50.1928 52.6517 50.3738 52.5311 50.3738 52.3502C50.4341 51.5661 50.4341 50.7821 50.4341 49.9377C50.4341 49.7568 50.1928 49.5759 50.0721 49.3949C49.9515 49.5759 49.7102 49.7568 49.7102 49.9377C49.6498 50.4202 49.7102 50.9027 49.7705 51.3852ZM43.2551 22.5564C42.5311 22.3152 42.0485 22.1342 41.5056 22.0136C41.3849 22.0136 41.023 22.3152 41.023 22.4358C41.023 22.7374 41.1436 23.1595 41.3246 23.2802C41.6262 23.4008 42.0485 23.3405 42.4105 23.2198C42.6518 23.1595 42.8931 22.858 43.2551 22.5564ZM15.4439 52.4708C15.5043 52.5311 15.6249 52.7121 15.8059 52.893C15.9266 52.6517 16.1075 52.4708 16.1075 52.2296C16.1679 51.5058 16.1679 50.7821 16.1679 50.0584C16.1679 49.8171 15.9266 49.6362 15.8059 49.3949C15.6852 49.6362 15.4439 49.8171 15.4439 50.0584C15.3836 50.7821 15.4439 51.5058 15.4439 52.4708ZM57.9751 17.7315C58.1561 16.3444 56.3462 15.0778 55.0793 15.6809C56.1049 16.284 57.4321 16.465 57.9751 17.7315ZM49.8308 22.4358C49.7705 22.3755 49.7102 22.3152 49.6498 22.2549C49.5292 22.4358 49.3482 22.677 49.2275 22.858C49.5895 23.0992 50.0118 23.4611 50.4341 23.5214C50.6754 23.5214 50.9771 23.0389 51.2184 22.7374C51.2787 22.6167 51.158 22.3152 50.9771 22.1946C50.8564 22.1342 50.6151 22.1946 50.4341 22.2549C50.1928 22.2549 50.0118 22.3755 49.8308 22.4358ZM41.8072 51.4455C41.8675 50.7821 41.9279 50.2393 41.9279 49.7568C41.9279 49.5759 41.7469 49.4552 41.6262 49.2743C41.6262 49.2743 41.3246 49.3346 41.3246 49.3949C41.2643 49.9981 41.2039 50.6615 41.2039 51.2646C41.2039 51.6265 41.2643 51.928 41.3246 52.2899C41.3849 52.4708 41.4452 52.6517 41.5659 52.8327C41.6866 52.6517 41.9279 52.5311 41.9279 52.3502C41.8675 51.9883 41.8072 51.6868 41.8072 51.4455ZM55.381 22.3152C56.3462 23.3405 58.2767 22.2549 59.0007 20.0837C58.699 20.4455 58.518 20.6265 58.337 20.8074C57.4925 21.5311 56.8289 22.677 55.381 22.3152ZM33.2407 20.144C33.6629 21.893 35.2315 22.9183 36.5587 22.5564C35.9554 22.3152 35.2315 22.1342 34.6885 21.7121C34.1456 21.2899 33.7233 20.6868 33.2407 20.144ZM60.3882 49.3949C60.2675 49.3949 60.2072 49.3949 60.0866 49.3949C60.0866 50.5409 60.0866 51.6868 60.0866 52.7724C60.2072 52.7724 60.3279 52.7724 60.4485 52.7724C60.4485 51.6868 60.8105 50.5409 60.3882 49.3949ZM23.2262 52.893C23.1056 51.5058 22.8039 51.0837 21.718 51.0837C22.1403 51.7471 22.261 52.5914 23.2262 52.893ZM29.1987 50.8424C29.1384 50.9027 29.1384 50.963 29.078 51.0837C29.3797 51.5661 29.7416 52.0486 30.0433 52.5311C30.1036 52.6517 30.2243 52.8327 30.3449 52.893C30.4052 52.9533 30.6466 52.7724 30.6466 52.7121C30.6466 52.5311 30.6466 52.3502 30.5259 52.1693C30.4052 51.928 30.1639 51.6868 29.983 51.5058C29.7416 51.3249 29.44 51.0837 29.1987 50.8424ZM53.2695 52.4105C53.2695 52.1089 53.2092 51.6868 53.2092 51.2646C53.1488 51.2646 53.0885 51.2043 53.0282 51.2043C52.6059 51.6868 52.1233 52.2296 51.6407 52.7724C52.1836 52.6517 52.6662 52.5914 53.2695 52.4105ZM69.4374 50.1187C69.3167 50.1187 69.1961 50.1187 69.0754 50.1187C69.0754 50.963 68.8341 51.8074 69.1961 52.6518C69.2564 52.6518 69.3167 52.6518 69.4374 52.6518C69.4374 51.8074 69.4374 50.963 69.4374 50.1187ZM43.7377 52.6518C43.8584 52.5914 43.9187 52.4708 44.0393 52.4105C43.8584 52.1089 43.7377 51.8074 43.5567 51.5058C43.4361 51.3852 43.2551 51.3249 43.1344 51.2043C43.0138 51.3852 42.7725 51.6868 42.8328 51.7471C43.0741 52.0486 43.4361 52.3502 43.7377 52.6518ZM28.1128 51.144C28.0525 51.0837 27.9921 51.0233 27.9921 50.963C27.8111 51.0837 27.5095 51.2043 27.5095 51.3249C27.4492 51.8074 27.5095 52.2899 27.5698 52.7724C27.6905 52.7724 27.8111 52.7724 27.8715 52.7724C27.9921 52.2296 28.0525 51.6868 28.1128 51.144ZM72.3934 50.4805C72.2728 50.963 71.9711 51.4455 72.6348 51.6868C72.8157 51.7471 73.1777 51.6868 73.1777 51.5661C73.3587 51.0233 72.9364 50.7821 72.3934 50.4805ZM64.9731 51.0233C64.2492 51.144 64.0682 52.0486 64.6715 52.9533C64.7318 52.2296 64.8525 51.6868 64.9731 51.0233ZM20.3305 50.963C20.3305 51.6265 20.3305 52.2296 20.3305 52.893C20.9941 52.3502 20.9941 51.5661 20.3305 50.963ZM18.943 51.0233C18.8223 51.0837 18.762 51.0837 18.6413 51.144C18.581 51.8074 18.7016 52.4105 19.4859 52.7121C19.3049 52.1693 19.1239 51.6265 18.943 51.0233ZM25.0964 52.7121C25.0361 52.1693 24.9757 51.5661 24.8551 51.0233C24.3121 51.7471 24.3725 52.4105 25.0964 52.7121ZM55.8636 52.6518C55.9239 52.6518 56.0446 52.6518 56.1049 52.6518C56.2256 52.1089 56.3462 51.5661 56.4669 50.9027C56.2256 51.0233 55.8636 51.0837 55.8636 51.144C55.8636 51.6868 55.8636 52.1693 55.8636 52.6518ZM63.2236 52.4105C63.2839 52.4105 63.4046 52.4105 63.4649 52.4105C63.4649 52.1089 63.5856 51.7471 63.4649 51.5058C63.3443 51.2646 62.9823 51.144 62.6203 50.9027C62.8616 51.5661 63.0426 51.9883 63.2236 52.4105ZM65.878 52.6518C66.421 51.928 66.24 51.2646 65.5161 51.0837C65.6367 51.6265 65.7574 52.1693 65.878 52.6518ZM74.9272 50.6012C74.8066 50.6012 74.6859 50.6012 74.5652 50.6012C74.6256 51.0837 74.6256 51.5661 74.6859 52.1089C74.7462 52.1089 74.8669 52.1089 74.9272 52.1089C74.9272 51.6265 74.9272 51.0837 74.9272 50.6012ZM39.937 51.3249C39.2131 51.928 39.2734 52.2899 40.118 52.6518C40.0577 52.2296 39.9974 51.8677 39.937 51.3249ZM54.3554 51.0233C54.2951 51.0837 54.2348 51.144 54.1744 51.2043C54.2348 51.4455 54.2951 51.6265 54.3554 51.8677C54.5364 52.4708 54.8984 52.4708 54.9587 51.8677C55.019 51.6265 54.5967 51.3249 54.3554 51.0233ZM61.8361 52.5914C61.8361 52.1089 61.7757 51.6868 61.7757 51.2043C61.0518 51.8074 61.0518 52.2296 61.8361 52.5914ZM57.2511 51.144C57.1908 51.144 57.1305 51.2043 57.0702 51.2043C57.1305 51.6868 57.1908 52.2296 57.2511 52.7121C57.7941 52.1089 57.6131 51.6265 57.2511 51.144ZM58.699 52.4708C58.699 51.9883 58.699 51.6868 58.699 51.3249C58.1561 51.8074 58.1561 51.928 58.699 52.4708ZM25.8807 52.5914C25.941 52.6517 26.0013 52.7121 26.0616 52.7724C26.1823 52.6517 26.4236 52.4708 26.4839 52.3502C26.4839 52.1693 26.303 51.9883 26.2426 51.8074C26.1823 51.8074 26.122 51.8677 26.0616 51.8677C26.0013 52.1089 25.941 52.3502 25.8807 52.5914Z" fill="#1A130D"/>
<path d="M44.0997 7.35793C43.9187 7.53886 43.9187 7.59917 43.8584 7.65948C42.5312 8.14197 42.4708 8.14197 43.0138 9.58944C44.0394 12.4241 45.0649 15.319 46.1508 18.1536C46.3922 18.7568 46.6938 19.3599 46.9954 20.0836C47.2367 19.7821 47.3574 19.6614 47.3574 19.6011C48.0813 17.6108 48.9259 15.5603 49.5895 13.57C50.1325 12.0019 50.5548 10.3735 50.9771 8.74509C51.1581 8.20229 50.7961 8.08166 50.3738 7.96104C50.1325 7.90073 49.9515 7.71979 49.7705 7.53886C50.0118 7.41824 50.2531 7.2373 50.4341 7.2373C51.3994 7.2373 52.3646 7.2373 53.2695 7.29762C53.5108 7.29762 53.6918 7.41824 53.9331 7.47855C53.8728 7.59917 53.8728 7.7198 53.8728 7.7198C52.5456 7.96104 52.244 9.10695 51.8217 10.1322C50.6151 13.4494 49.4086 16.8268 48.202 20.1439C47.9004 20.9883 47.5384 21.8929 47.1764 22.7373C47.0558 22.9786 46.9351 23.2198 46.7541 23.3404C46.3922 23.642 45.9699 23.5214 45.7889 23.0992C45.0046 20.928 44.2204 18.6964 43.3758 16.5252C42.4708 14.1128 41.5056 11.64 40.661 9.22758C40.4197 8.56415 40.1181 8.08166 39.3338 8.02135C39.0925 8.02135 38.8512 7.7198 38.6099 7.59917C38.8512 7.47855 39.0925 7.2373 39.3338 7.2373C40.7213 7.2373 42.1089 7.2373 43.4964 7.2373C43.6171 7.2373 43.7981 7.29762 44.0997 7.35793Z" fill="#FFF3E0"/>
<path d="M78.4868 39.3829C79.1504 39.4432 79.7536 39.3829 80.4173 39.5035C80.5982 39.5035 80.7792 39.9257 80.7792 40.167C80.8395 40.8907 80.8999 41.6144 80.7792 42.3382C80.7189 42.6397 80.4776 43.0619 80.1759 43.1825C77.8232 44.0269 75.5307 44.1475 73.3589 42.6397C71.3681 41.1923 71.4284 38.4783 72.1523 37.0308C73.5399 33.9549 77.8835 33.593 80.1759 35.0405C80.5379 35.2818 80.8396 35.5833 80.5379 36.0055C80.1759 36.488 79.814 36.1261 79.5727 35.8246C78.5471 34.6183 75.591 34.6786 74.3241 36.0658C72.9969 37.5133 72.6953 39.8654 73.9622 41.5541C75.0481 43.0016 76.5563 43.1825 78.1248 42.9413C78.7281 42.881 79.271 42.6397 79.452 41.9763C79.633 41.3129 79.2107 40.167 78.7281 39.8051C78.6074 39.7448 78.5471 39.6845 78.4264 39.6242C78.4868 39.5035 78.4868 39.4432 78.4868 39.3829Z" fill="#FFF3E0"/>
<path d="M49.107 39.5038C50.2532 40.8307 51.2788 42.0369 52.4854 43.4241C52.0027 43.4844 51.6408 43.5447 51.3995 43.4844C50.5549 43.2431 50.0723 42.5797 49.5896 41.856C49.1673 41.1926 48.6847 40.5291 48.2021 39.926C47.8401 39.5038 48.0211 39.3229 48.3831 39.0817C48.8657 38.7198 49.3483 38.3579 49.7706 37.9357C50.3136 37.3929 50.3136 36.5486 49.8309 35.9455C49.3483 35.282 48.2021 34.7996 47.6591 35.1011C47.4178 35.2217 47.1162 35.5836 47.1162 35.8248C47.1162 36.9104 47.1765 37.9961 47.1765 39.142C47.1765 40.4688 47.1765 41.7957 47.1162 43.1225C47.1162 43.3034 46.6336 43.6653 46.4526 43.605C46.2113 43.5447 45.789 43.2431 45.789 43.0019C45.6683 42.3385 45.789 41.675 45.789 41.0719C45.789 39.2023 45.789 37.3326 45.789 35.4027C45.789 34.4377 45.9096 34.2568 46.9352 34.3171C47.7195 34.3171 48.5037 34.3774 49.2277 34.4377C50.4945 34.6186 51.2788 35.4027 51.3995 36.5486C51.5201 37.5739 50.9772 38.5389 49.8913 39.0817C49.5896 39.2023 49.288 39.3832 49.107 39.5038Z" fill="#FFF3E0"/>
<path d="M60.6898 39.6851C60.6898 38.1773 60.6898 36.6092 60.6898 35.1014C60.6898 34.8602 60.9311 34.5586 61.0517 34.3174C61.2931 34.438 61.5947 34.4983 61.7757 34.6792C63.5252 36.6092 65.2747 38.5392 67.0845 40.4088C67.2655 40.5898 67.5068 40.7104 67.6878 40.831C67.7481 40.5898 67.9291 40.2882 67.9291 40.047C67.9291 38.4789 67.8688 36.9108 67.9291 35.403C67.9291 35.1014 68.2308 34.7396 68.3514 34.438C68.4721 34.7999 68.7134 35.1014 68.7134 35.4633C68.7134 37.5742 68.7134 39.6851 68.7134 41.796C68.7134 42.1579 68.7134 42.5197 68.6531 42.9419C68.6531 43.1831 68.5324 43.3641 68.4721 43.6053C68.2911 43.4847 67.9894 43.4244 67.8688 43.2435C67.1449 42.4594 66.4813 41.6754 65.7573 40.8913C64.6111 39.6248 63.4649 38.3582 62.3186 37.0917C62.198 36.9108 61.8963 36.8505 61.7154 36.7298C61.5947 36.9711 61.4137 37.2123 61.4137 37.4536C61.4137 39.082 61.474 40.7104 61.474 42.3388C61.474 42.5197 61.5344 42.7006 61.474 42.8816C61.3534 43.1228 61.1724 43.3038 61.0517 43.4847C60.9311 43.3038 60.6898 43.0625 60.6898 42.8816C60.6294 41.7357 60.6294 40.7104 60.6898 39.6851C60.6294 39.6851 60.6294 39.6851 60.6898 39.6851Z" fill="#FFF3E0"/>
<path d="M39.4544 39.2022C39.937 38.8403 40.299 38.6594 40.6006 38.3578C41.3246 37.7547 41.5659 37.0913 41.2642 36.3072C40.9626 35.5232 40.118 35.0407 39.2734 35.0407C38.6701 35.0407 38.3685 35.2819 38.3685 35.9454C38.3685 37.9356 38.3685 39.9862 38.4288 41.9765C38.4288 42.278 38.5495 42.5796 38.4288 42.8208C38.2478 43.1224 38.0065 43.5446 37.7049 43.6049C37.2223 43.7255 36.981 43.3033 36.981 42.8208C36.981 42.278 36.981 41.7955 36.981 41.2527C36.981 39.2625 36.981 37.2722 36.981 35.2216C36.981 34.7391 37.1016 34.2566 37.5842 34.2566C38.7908 34.2566 40.118 34.0154 41.2642 34.6185C42.0485 35.0407 42.5311 35.5835 42.6518 36.4882C42.7724 37.3928 42.4708 38.1769 41.6865 38.6594C41.0833 39.1419 40.48 39.6243 39.4544 39.2022Z" fill="#FFF3E0"/>
<path d="M30.5257 43.8461C29.8621 43.6651 29.1985 43.4842 28.5349 43.243C28.3539 43.1826 28.173 43.062 28.1126 42.9414C27.992 42.7001 27.992 42.3383 27.9316 42.097C28.2333 42.1574 28.5952 42.097 28.7762 42.2177C29.4398 42.8811 30.2241 42.9414 31.0687 42.9414C31.7926 42.8811 32.3959 42.4589 32.6372 41.8558C32.7579 41.4939 32.5769 40.8305 32.3356 40.4686C32.0339 40.0465 31.491 39.8655 31.0687 39.564C30.3448 39.1418 29.5605 38.8402 28.8969 38.2974C27.5697 37.2118 28.0523 35.0406 29.6208 34.4375C30.6464 34.0153 31.672 34.1359 32.6975 34.5581C33.1198 34.7391 33.3008 34.9803 33.0595 35.4025C32.8182 35.885 32.5166 35.6437 32.2149 35.4025C31.5513 34.92 30.7671 34.8597 29.9828 35.1612C29.1382 35.5231 28.9572 36.669 29.6811 37.2721C30.1034 37.634 30.5861 37.8752 31.0687 38.1165C31.5513 38.4181 32.0943 38.599 32.5769 38.9005C33.7834 39.6243 33.9041 40.6496 33.7231 41.7352C33.5421 42.5795 32.2752 43.6048 31.31 43.6651C31.0084 43.6651 30.7671 43.6651 30.4654 43.6651C30.5861 43.7254 30.5861 43.7858 30.5257 43.8461Z" fill="#FFF3E0"/>
<path d="M16.228 41.3738C16.771 40.1676 17.1933 39.1423 17.6759 38.117C18.1585 37.0314 18.6411 35.9458 19.1237 34.8602C19.2444 34.6792 19.546 34.5586 19.7873 34.438C19.7873 34.6792 19.908 35.0411 19.7873 35.2221C18.5808 37.8154 17.3742 40.4088 16.1677 42.9419C16.1073 43.1228 15.866 43.3038 15.6851 43.3641C15.5041 43.3641 15.2628 43.1831 15.2024 43.0022C14.1769 40.7104 13.1513 38.3582 12.1257 36.0664C12.0051 35.7649 11.7637 35.5236 11.7034 35.2221C11.6431 34.9205 11.7637 34.6189 11.7637 34.3174C12.0654 34.3777 12.4877 34.3174 12.6687 34.4983C12.9703 34.7999 13.2116 35.2824 13.3926 35.7045C14.1165 37.3329 14.8405 39.0217 15.5644 40.6501C15.7454 40.8913 15.9867 41.0722 16.228 41.3738Z" fill="#FFF3E0"/>
<path d="M24.5533 39.0214C24.5533 40.2277 24.5533 41.4339 24.5533 42.6401C24.5533 43.1829 24.3724 43.6654 23.8294 43.6051C23.2261 43.6051 23.1055 43.1226 23.1055 42.5798C23.1658 40.107 23.1658 37.6343 23.1658 35.2218C23.1658 34.7393 23.2261 34.2568 23.8294 34.2568C24.493 34.2568 24.5533 34.7393 24.5533 35.2821C24.5533 36.4884 24.5533 37.7549 24.5533 39.0214Z" fill="#FFF3E0"/>
<path d="M55.5621 39.0217C55.5621 37.7551 55.5621 36.4886 55.5621 35.2824C55.5621 34.7396 55.6827 34.3174 56.286 34.3174C56.8893 34.3174 56.8893 34.7999 56.8893 35.2221C56.8893 37.6345 56.9496 39.9866 56.9496 42.3991C56.9496 42.58 57.0099 42.8816 56.8893 43.0022C56.7083 43.2435 56.4067 43.6053 56.105 43.6053C55.6827 43.6656 55.4414 43.3641 55.4414 42.8816C55.5621 41.5547 55.5621 40.2882 55.5621 39.0217Z" fill="#FFF3E0"/>
<path d="M34.5074 12.4844C35.0503 12.6653 36.0759 13.6906 36.0156 14.1128C36.0156 14.2937 35.7139 14.535 35.7139 14.535C35.533 14.4746 35.2313 14.2937 35.2313 14.1128C35.1107 13.4494 34.6884 13.2684 34.1454 13.2081C33.9041 13.2081 33.7231 13.389 33.4818 13.4494C33.6025 13.6303 33.6628 13.8112 33.7834 13.9318C34.2057 14.354 34.2057 14.8968 33.6628 14.8968C33.2405 14.8968 32.6975 14.6556 32.3959 14.354C32.0943 14.0525 32.3356 13.6303 32.6975 13.4494C33.3008 13.1478 33.9041 12.8462 34.5074 12.4844Z" fill="#FFF3E0"/>
<path d="M58.156 14.5955C58.3974 14.0527 58.8197 13.6305 58.699 13.4496C58.337 12.9671 57.8544 13.148 57.4924 13.4496C57.3115 13.6305 57.1908 13.9321 57.0098 14.1733C56.8892 14.3543 56.6479 14.4749 56.4669 14.5955C56.4669 14.3543 56.3462 14.113 56.4065 13.8718C56.5272 13.5099 56.7685 13.2083 57.0098 12.9068C57.1305 12.7259 57.3718 12.5449 57.5528 12.5449C58.4577 12.6655 59.3626 12.9068 59.9056 13.8115C60.0262 13.9924 59.9659 14.4146 59.7849 14.5955C59.4833 14.9574 59.1816 15.3192 58.6387 15.0177C58.337 14.8971 58.156 14.6558 58.156 14.5955Z" fill="#FFF3E0"/>
<path d="M37.4638 20.3251C37.3432 20.4457 37.3432 20.506 37.3432 20.506C36.6795 20.6869 35.9556 20.0838 35.5333 19.0585C35.292 18.4554 35.5936 17.7317 36.1366 17.4301C36.6192 17.1889 37.0415 17.4301 37.2828 17.792C37.5845 18.2142 37.3432 18.4554 36.9209 18.6363C36.3176 18.9379 36.3176 19.4807 36.8605 19.9029C37.0415 20.0838 37.2828 20.2044 37.4638 20.3251Z" fill="#FFF3E0"/>
<path d="M54.6572 20.3853C54.8985 20.2043 55.2002 19.9631 55.4415 19.7821C55.8638 19.36 55.7431 18.9981 55.3208 18.6965C55.1398 18.5759 54.8382 18.3347 54.8382 18.1537C54.8382 17.9125 55.0795 17.5506 55.3208 17.4903C55.5621 17.3697 56.1051 17.3697 56.1654 17.5506C56.4067 17.9125 56.7084 18.5156 56.5877 18.8775C56.4671 19.4203 56.0448 19.9631 55.6225 20.3853C55.4415 20.5662 55.0192 20.5059 54.7176 20.5662C54.6572 20.5059 54.6572 20.4456 54.6572 20.3853Z" fill="#FFF3E0"/>
<path d="M52.4251 19.5406C52.1838 18.9978 51.9425 18.5153 51.7012 18.0328C51.7615 17.9725 51.8822 17.9725 51.9425 17.9121C52.0631 18.1534 52.1838 18.3343 52.4251 18.7565C52.7871 18.0931 53.0887 17.5503 53.3904 17.0075C53.5713 16.6456 53.8126 16.3441 54.054 16.0425C54.1143 15.9219 54.3556 15.9822 54.4763 15.9219C54.4763 16.1028 54.4763 16.2234 54.4159 16.4044C54.1746 17.0075 53.9333 17.6709 53.5713 18.2137C53.33 18.6359 52.9077 19.0581 52.4251 19.5406Z" fill="#FFF3E0"/>
<path d="M52.9076 21.7723C52.244 21.4707 51.6408 21.2295 50.9771 20.8676C50.1326 20.3851 49.6499 21.2295 48.9863 21.3501C49.288 20.0233 50.1929 19.6011 51.3391 20.2645C51.9424 20.6264 52.4853 21.0486 53.0886 21.4104C53.0283 21.5311 52.968 21.6517 52.9076 21.7723Z" fill="#FFF3E0"/>
<path d="M38.791 21.5312C39.8769 21.109 40.5405 20.0234 41.8677 20.0234C42.652 20.0234 42.9536 20.325 42.833 20.9884C42.833 20.9884 42.7727 21.0487 42.7727 20.9884C41.6264 20.3853 40.6612 21.0487 39.6959 21.5312C39.4546 21.7122 39.2133 21.7122 38.9117 21.8328C38.8513 21.7122 38.8513 21.5915 38.791 21.5312Z" fill="#FFF3E0"/>
<path d="M52.6057 13.751C52.4248 14.1129 52.3041 14.3541 52.1834 14.5954C52.1231 14.716 52.0025 14.8969 51.9421 15.0176C51.8215 14.8969 51.6405 14.716 51.6405 14.5954C51.5802 13.8113 52.3644 13.6304 52.8471 13.3288C53.028 13.2082 53.4503 13.3892 53.6916 13.5098C53.933 13.6304 54.2346 13.8113 54.4156 14.0526C54.5362 14.2335 54.5966 14.4748 54.6569 14.6557C54.4156 14.6557 54.1139 14.716 53.933 14.5954C53.5107 14.4144 53.1487 14.1129 52.6057 13.751Z" fill="#FFF3E0"/>
<path d="M37.4634 15.8018C38.2476 15.9827 38.7906 16.4652 38.9716 17.3095C39.0319 17.6111 39.3335 17.9127 39.4542 18.2142C39.5145 18.3951 39.5749 18.6364 39.6352 18.8173C39.3939 18.8173 39.0922 18.8173 38.9716 18.6967C38.6096 18.0936 37.8253 17.7317 37.946 16.827C37.946 16.4652 37.6444 16.1033 37.4634 15.8018Z" fill="#FFF3E0"/>
<path d="M40.0577 14.8367C39.8767 14.5351 39.7561 14.1129 39.5751 14.0526C39.2734 13.9923 38.9718 14.1733 38.6702 14.2939C38.3082 14.4748 38.0669 15.1985 37.6446 14.7161C37.162 14.1733 38.0066 14.0526 38.1875 13.7511C38.4289 13.4495 38.7908 13.2686 39.0925 13.0273C39.4544 13.3289 39.8767 13.6305 40.1784 13.932C40.661 14.2939 40.6007 14.5954 40.0577 14.8367Z" fill="#FFF3E0"/>
<path d="M34.6282 49.4556C34.6282 50.1793 34.6282 50.8427 34.6282 51.5665C34.6282 51.8077 34.6886 52.1093 34.6282 52.3505C34.6282 52.5315 34.4472 52.7124 34.3869 52.8933C34.2059 52.7727 33.9043 52.6521 33.9043 52.5315C33.9043 51.6268 33.9043 50.7221 33.9646 49.7571C33.9646 49.5762 34.2059 49.4556 34.3266 49.335C34.4472 49.3953 34.5076 49.3953 34.6282 49.4556Z" fill="#FFF3E0"/>
<path d="M49.7707 51.385C49.7707 50.9025 49.6501 50.4201 49.7104 49.9979C49.7104 49.8169 49.9517 49.636 50.0724 49.4551C50.193 49.636 50.4343 49.8169 50.4343 49.9979C50.4343 50.7819 50.4343 51.566 50.374 52.4103C50.374 52.5913 50.193 52.7119 50.0724 52.8928C49.9517 52.7119 49.7707 52.5913 49.7104 52.4103C49.6501 52.1088 49.7104 51.7469 49.7104 51.4454C49.7104 51.385 49.7104 51.385 49.7707 51.385Z" fill="#FFF3E0"/>
<path d="M43.2551 22.5564C42.8931 22.8579 42.6518 23.1595 42.4105 23.2198C42.0485 23.3404 41.6262 23.4007 41.3246 23.2801C41.1436 23.2198 41.0229 22.7373 41.0229 22.4357C41.0229 22.3151 41.3849 21.9533 41.5056 22.0136C41.9882 22.1342 42.5311 22.3151 43.2551 22.5564Z" fill="#FFF3E0"/>
<path d="M15.4438 52.4704C15.4438 51.5054 15.4438 50.7817 15.4438 50.058C15.4438 49.8167 15.6852 49.6358 15.8058 49.3945C15.9265 49.6358 16.1075 49.8167 16.1678 50.058C16.1678 50.7817 16.1678 51.5054 16.1075 52.2292C16.1075 52.4704 15.9265 52.6513 15.8058 52.8926C15.6248 52.7116 15.5042 52.4704 15.4438 52.4704Z" fill="#FFF3E0"/>
<path d="M57.9748 17.7312C57.4319 16.4647 56.165 16.2837 55.0791 15.6806C56.346 15.0775 58.0955 16.344 57.9748 17.7312Z" fill="#FFF3E0"/>
<path d="M49.8308 22.4359C50.0118 22.3756 50.1928 22.255 50.4341 22.1947C50.6151 22.1344 50.8564 22.074 50.977 22.1344C51.0977 22.255 51.2787 22.5565 51.2184 22.6772C51.0374 22.9787 50.6754 23.4612 50.4341 23.4612C50.0118 23.4009 49.6498 23.039 49.2275 22.7978C49.3482 22.6168 49.5292 22.3756 49.6498 22.1947C49.7102 22.3153 49.7705 22.3756 49.8308 22.4359Z" fill="#FFF3E0"/>
<path d="M41.8072 51.4452C41.8072 51.6865 41.9278 51.988 41.8675 52.2896C41.8675 52.4705 41.6262 52.5911 41.5055 52.7721C41.4452 52.5911 41.3245 52.4102 41.2642 52.2293C41.2039 51.8674 41.1436 51.5658 41.1436 51.204C41.1436 50.6009 41.2039 49.9374 41.2642 49.3343C41.2642 49.274 41.5055 49.1534 41.5659 49.2137C41.6865 49.3343 41.8675 49.5153 41.8675 49.6962C41.8675 50.2993 41.8072 50.8421 41.8072 51.4452Z" fill="#FFF3E0"/>
<path d="M36.1968 51.4453C36.619 51.4453 37.1017 51.4453 37.6446 51.4453C37.6446 51.7469 37.7049 52.2294 37.7653 52.8325C37.4033 52.5912 37.162 52.4103 36.8604 52.2294C36.619 52.4706 36.3777 52.6515 36.1364 52.8928C35.6538 52.35 36.1968 51.8675 36.1968 51.4453Z" fill="#FFF3E0"/>
<path d="M37.4634 15.7409C36.0758 15.7409 35.2312 16.6456 34.266 17.4899C34.085 17.0075 34.447 16.4043 35.0502 15.9219C35.8345 15.3791 36.6188 15.3187 37.4634 15.7409Z" fill="#FFF3E0"/>
<path d="M55.3809 22.3155C56.8287 22.7377 57.4923 21.5918 58.3369 20.8077C58.5179 20.6268 58.6989 20.4459 59.0005 20.084C58.2766 22.1949 56.3461 23.3408 55.3809 22.3155Z" fill="#FFF3E0"/>
<path d="M33.2407 20.1436C33.7233 20.6864 34.1456 21.2895 34.6886 21.7116C35.2315 22.1338 35.9555 22.2544 36.5588 22.556C35.2315 22.9782 33.663 21.9529 33.2407 20.1436Z" fill="#FFF3E0"/>
<path d="M60.3883 49.3945C60.8106 50.5404 60.3883 51.6864 60.5089 52.772C60.3883 52.772 60.2676 52.772 60.147 52.772C60.147 51.626 60.147 50.4801 60.147 49.3945C60.2073 49.3945 60.328 49.3945 60.3883 49.3945Z" fill="#FFF3E0"/>
<path d="M23.2265 52.8933C22.2009 52.5918 22.1406 51.7474 21.7183 51.084C22.8042 51.084 23.1661 51.4459 23.2265 52.8933Z" fill="#FFF3E0"/>
<path d="M29.1988 50.8428C29.4401 51.084 29.7417 51.265 29.983 51.5062C30.164 51.6871 30.4053 51.9284 30.526 52.1696C30.6466 52.2902 30.6466 52.5315 30.6466 52.7124C30.6466 52.7727 30.345 52.9537 30.345 52.8934C30.2244 52.833 30.164 52.6521 30.0434 52.5315C29.7417 52.049 29.3798 51.5665 29.0781 51.084C29.0781 51.0237 29.1385 50.9634 29.1988 50.8428Z" fill="#FFF3E0"/>
<path d="M53.2695 52.4103C52.6662 52.5309 52.1836 52.6516 51.6406 52.7722C52.1232 52.2294 52.5455 51.6866 53.0282 51.2041C53.0885 51.2041 53.1488 51.2644 53.2091 51.2644C53.2091 51.7469 53.2695 52.1691 53.2695 52.4103Z" fill="#FFF3E0"/>
<path d="M69.4373 50.1191C69.4373 50.9635 69.4373 51.8079 69.4373 52.6522C69.377 52.6522 69.3167 52.6522 69.196 52.6522C68.8341 51.8079 69.0754 50.9635 69.0754 50.1191C69.2564 50.1191 69.377 50.1191 69.4373 50.1191Z" fill="#FFF3E0"/>
<path d="M36.1965 51.4456C35.0503 51.144 36.0156 50.2996 35.5933 49.7568C36.3172 49.7568 36.4982 50.1187 36.4379 50.6012C36.3775 50.9028 36.2569 51.144 36.1965 51.4456Z" fill="#FFF3E0"/>
<path d="M43.7375 52.6516C43.4358 52.35 43.0739 52.0485 42.7722 51.7469C42.7119 51.6866 42.9532 51.385 43.0739 51.2041C43.2548 51.3247 43.4358 51.385 43.4962 51.5057C43.6771 51.8072 43.7978 52.1088 43.9788 52.4103C43.9788 52.4706 43.8581 52.531 43.7375 52.6516Z" fill="#FFF3E0"/>
<path d="M28.1126 51.1438C28.0522 51.6866 27.9316 52.2294 27.8712 52.7722C27.7506 52.7722 27.6299 52.7722 27.5696 52.7722C27.5696 52.2897 27.5093 51.8072 27.5093 51.3248C27.5093 51.2041 27.8109 51.0835 27.9919 50.9629C28.0522 51.0232 28.1126 51.0835 28.1126 51.1438Z" fill="#FFF3E0"/>
<path d="M72.3936 50.4805C72.9365 50.7217 73.3588 50.963 73.1779 51.5661C73.1779 51.6264 72.7556 51.747 72.6349 51.6867C71.9713 51.4454 72.2729 51.0233 72.3936 50.4805Z" fill="#FFF3E0"/>
<path d="M64.9729 51.0234C64.8522 51.6869 64.7919 52.2297 64.6712 52.9534C64.0076 52.0487 64.1886 51.1441 64.9729 51.0234Z" fill="#FFF3E0"/>
<path d="M20.3306 50.9629C20.9942 51.566 20.9942 52.35 20.3306 52.8928C20.3306 52.2294 20.3306 51.6866 20.3306 50.9629Z" fill="#FFF3E0"/>
<path d="M18.9429 51.0234C19.1239 51.5662 19.3049 52.1694 19.4859 52.7122C18.7016 52.3503 18.581 51.8075 18.6413 51.1441C18.762 51.0838 18.8223 51.0837 18.9429 51.0234Z" fill="#FFF3E0"/>
<path d="M25.0966 52.7122C24.3727 52.3503 24.3124 51.6869 24.8553 51.0234C24.9156 51.6266 24.976 52.1694 25.0966 52.7122Z" fill="#FFF3E0"/>
<path d="M55.8638 52.6514C55.8638 52.1689 55.8638 51.6864 55.8638 51.1436C55.8638 51.023 56.1654 50.9627 56.467 50.9023C56.3464 51.5658 56.2257 52.1086 56.1051 52.6514C56.0448 52.6514 55.9844 52.6514 55.8638 52.6514Z" fill="#FFF3E0"/>
<path d="M63.2234 52.4101C63.0424 51.9879 62.8614 51.5658 62.6201 50.9023C62.9821 51.1436 63.344 51.2642 63.4647 51.5055C63.5854 51.7467 63.4647 52.1086 63.4647 52.4101C63.4044 52.4101 63.2837 52.4101 63.2234 52.4101Z" fill="#FFF3E0"/>
<path d="M65.8781 52.6521C65.7574 52.1696 65.6368 51.6268 65.5161 51.084C66.1797 51.3252 66.3607 51.9283 65.8781 52.6521Z" fill="#FFF3E0"/>
<path d="M74.9274 50.6016C74.9274 51.0841 74.9274 51.6269 74.9274 52.1093C74.8671 52.1093 74.7464 52.1093 74.6861 52.1093C74.6258 51.6269 74.6258 51.1444 74.5654 50.6016C74.6861 50.6016 74.8067 50.6016 74.9274 50.6016Z" fill="#FFF3E0"/>
<path d="M39.9372 51.3252C39.9975 51.868 40.0579 52.2299 40.1182 52.652C39.2736 52.2902 39.2133 51.9283 39.9372 51.3252Z" fill="#FFF3E0"/>
<path d="M54.3553 51.0234C54.5966 51.325 55.0189 51.6266 54.9586 51.8678C54.8379 52.4709 54.5363 52.4709 54.3553 51.8678C54.295 51.6869 54.2346 51.4456 54.1743 51.2044C54.2346 51.1441 54.295 51.0837 54.3553 51.0234Z" fill="#FFF3E0"/>
<path d="M61.8362 52.5913C61.0519 52.2294 61.0519 51.8072 61.7759 51.2041C61.7759 51.7469 61.8362 52.1088 61.8362 52.5913Z" fill="#FFF3E0"/>
<path d="M57.2513 51.1436C57.6133 51.626 57.7942 52.1085 57.2513 52.7116C57.191 52.2292 57.1306 51.6864 57.0703 51.2039C57.1306 51.1436 57.191 51.1436 57.2513 51.1436Z" fill="#FFF3E0"/>
<path d="M58.699 52.4711C58.0958 51.9283 58.0958 51.8077 58.699 51.3252C58.699 51.6871 58.699 51.9886 58.699 52.4711Z" fill="#FFF3E0"/>
<path d="M25.8809 52.5917C25.9412 52.3504 26.0015 52.1092 26.0618 51.8679C26.1222 51.8679 26.1825 51.8076 26.2428 51.8076C26.3635 51.9886 26.5445 52.1695 26.4841 52.3504C26.4841 52.5314 26.2428 52.652 26.0618 52.7726C26.0015 52.7123 25.9412 52.652 25.8809 52.5917Z" fill="#FFF3E0"/>
</svg>
