<svg width="140" height="60" viewBox="0 0 140 60" fill="none" xmlns="http://www.w3.org/2000/svg">
<g clip-path="url(#clip0_608_4702)">
<g clip-path="url(#clip1_608_4702)">
<path d="M142.251 62.0003C93.9614 62.0003 45.6902 62.0003 -2.59961 62.0003C-2.59961 40.3905 -2.59961 18.7807 -2.59961 -2.8291C45.6716 -2.8291 93.9242 -2.8291 142.251 -2.8291C142.251 18.8376 142.251 40.4095 142.251 62.0003ZM60.5257 22.5529C60.5443 21.5293 59.7616 21.9084 59.2211 21.9463C58.5688 21.9843 58.7179 22.5719 58.7179 23.0079C58.7179 28.4482 58.7551 33.8886 58.6992 39.329C58.6992 40.2957 59.1652 40.2389 59.8175 40.2768C60.563 40.3147 60.6189 39.9166 60.6189 39.329C60.6189 34.8554 60.6375 30.3628 60.6562 25.8892C60.6748 24.1452 61.849 23.0079 63.5636 23.0079C65.5765 23.0268 66.5456 23.9557 66.5643 25.8702C66.5829 30.3438 66.6015 34.8364 66.5643 39.31C66.5643 40.1441 66.8997 40.2578 67.608 40.2768C68.3348 40.2768 68.5026 39.9735 68.5026 39.31C68.4839 35.0639 68.4839 30.8367 68.4839 26.5906C68.4839 26.1167 68.5212 25.6238 68.6144 25.1689C68.8753 24.0505 69.9004 23.1595 71.0746 22.9889C72.3978 22.7994 73.4229 23.1974 73.8888 24.2211C74.1311 24.7518 74.2243 25.3963 74.2243 26.0029C74.2616 30.4576 74.2802 34.9122 74.2616 39.3669C74.2616 40.0114 74.392 40.2957 75.0816 40.2768C75.6967 40.2578 76.1812 40.2768 76.1812 39.3669C76.144 35.2345 76.1626 31.1021 76.144 26.9697C76.144 26.0029 76.1812 25.0172 75.9576 24.1073C75.7898 23.4439 75.3426 22.7615 74.8393 22.2876C73.5347 21.0365 69.4531 21.0554 68.2976 22.7425C68.2044 22.8941 67.6825 22.951 67.6266 22.8752C66.5084 21.3777 64.9242 21.2829 63.34 21.5293C62.4267 21.662 61.5321 22.1738 60.5257 22.5529ZM78.921 33.0166C78.9396 34.7416 78.9396 36.4856 78.9396 38.2106C78.9396 39.9356 78.9582 41.6795 78.921 43.4045C78.9023 44.1627 79.2937 44.2765 79.9087 44.2765C80.5051 44.2765 80.8593 44.1248 80.8406 43.4235C80.8034 42.4188 80.8033 41.3952 80.822 40.3905C80.822 40.182 80.8965 39.8976 81.0456 39.765C81.1202 39.6891 81.4184 39.8408 81.6048 39.8976C82.4621 40.163 83.3194 40.6369 84.1954 40.6938C87.867 40.8834 90.1594 39.4048 90.0662 35.1776C90.0103 32.3342 90.0662 29.4719 90.0476 26.6285C90.0289 25.3016 89.8425 24.0315 88.892 22.9889C87.3638 21.3398 83.4872 20.9227 81.5489 22.2496C81.1947 22.4961 81.027 22.5529 80.6356 22.2307C80.3188 21.9653 79.7224 21.9653 79.2751 22.0222C79.126 22.0411 78.9582 22.6288 78.9582 22.951C78.921 26.3062 78.921 29.6614 78.921 33.0166ZM97.6144 31.1969C97.5771 31.1969 97.5212 31.1969 97.4839 31.1969C97.4839 32.846 97.428 34.4952 97.5026 36.1633C97.5958 38.6466 98.8631 40.182 101.267 40.5421C102.572 40.7317 103.933 40.6748 105.237 40.4853C106.728 40.2768 107.94 39.3669 108.312 37.8504C108.629 36.6183 108.629 35.2724 108.648 33.9834C108.648 33.3199 108.014 33.5095 107.585 33.5095C107.157 33.4905 106.803 33.6043 106.784 34.154C106.784 34.8174 106.803 35.4809 106.747 36.1444C106.654 37.5281 105.945 38.5707 104.753 38.7792C103.839 38.9498 102.87 38.9878 101.957 38.893C100.056 38.6655 99.4409 37.3765 99.3663 35.9169C99.3104 34.6658 99.3477 33.4147 99.3291 32.1636C99.3291 31.5949 99.59 31.3675 100.168 31.3675C101.379 31.3864 102.591 31.3675 103.783 31.3675C105.144 31.3675 106.505 31.3675 107.884 31.3864C108.368 31.3864 108.704 31.2537 108.704 30.6661C108.685 29.0927 108.741 27.5194 108.666 25.9461C108.573 24.2211 107.921 22.7425 106.262 22.0411C104.417 21.2639 102.479 21.226 100.559 21.8137C98.8445 22.3444 97.7262 23.4818 97.633 25.3584C97.5398 27.3109 97.6144 29.2444 97.6144 31.1969ZM54.133 39.4048C54.2076 40.3715 54.8226 40.3905 55.4936 40.2768C56.295 40.1441 55.9968 39.5185 55.9968 39.0636C56.0154 34.7985 55.9968 30.5334 56.0154 26.2683C56.0341 24.2211 55.1767 22.5908 53.5553 22.0222C51.9711 21.4535 50.3123 21.3208 48.6722 21.8326C47.964 22.0601 47.2371 22.3823 46.6594 22.8373C45.3548 23.8988 45.3175 25.4532 45.3361 27.0076C45.3548 27.709 45.7089 27.7848 46.2307 27.7848C46.7712 27.7848 47.2558 27.7469 47.2185 27.0076C47.1999 26.5906 47.1999 26.1546 47.2185 25.7186C47.2744 24.7329 47.7404 23.8799 48.635 23.5955C49.6041 23.2922 50.7037 23.1216 51.7102 23.2543C53.2943 23.4628 53.8348 24.2211 53.9839 25.8323C54.0212 26.2494 53.9839 26.6853 54.0398 27.1024C54.133 27.8796 53.7603 28.1829 53.0707 28.3724C51.2442 28.9032 49.4364 29.4529 47.6472 30.0595C46.4171 30.4955 45.3361 31.2537 45.2243 32.7133C45.1125 34.2298 45.1125 35.7463 45.2243 37.2628C45.3361 38.6845 46.1562 39.6702 47.4794 40.163C49.5668 40.9402 51.5983 40.8834 53.4994 39.6133C53.7044 39.5375 53.8907 39.4996 54.133 39.4048ZM13.7828 38.4759C13.7828 38.457 13.7828 38.457 13.7828 38.438C14.4351 38.438 15.106 38.3622 15.7397 38.457C16.5039 38.5707 16.9139 38.2106 17.2307 37.604C17.9576 36.1823 18.6845 34.7795 19.4113 33.3578C20.921 30.4765 22.4492 27.5763 23.9589 24.695C24.3689 23.9178 24.2757 23.7092 23.4184 23.7092C21.9833 23.7092 20.5296 23.6713 19.0945 23.7282C18.7217 23.7472 18.2185 24.0125 18.0508 24.3348C15.6465 28.7894 13.2796 33.2631 10.9312 37.7367C10.6703 38.2485 10.8567 38.4759 11.4158 38.4759C12.1986 38.4759 12.9814 38.4759 13.7828 38.4759ZM38.7571 40.2957C38.7571 40.2768 38.7571 40.2768 38.7571 40.2957C40.1922 40.2768 41.6459 40.2389 43.081 40.2957C43.8265 40.3147 43.9569 39.9545 43.9569 39.329C43.9569 38.6655 43.696 38.457 43.0623 38.457C40.9377 38.4949 38.813 38.4759 36.6883 38.4759C35.9801 38.4759 35.9055 38.3243 36.241 37.6798C38.5521 33.282 40.8818 28.9032 43.1742 24.5054C43.4537 23.9746 43.5283 23.3112 43.6401 22.7046C43.7706 22.0601 43.3419 21.9274 42.8387 21.9274C40.1922 21.9274 37.5456 21.9653 34.8805 21.9463C34.2841 21.9463 34.0418 22.1169 34.0418 22.7615C34.0231 23.5386 34.34 23.804 35.0668 23.7851C36.9306 23.7472 38.7943 23.7472 40.6581 23.7472C41.3477 23.7472 41.4595 23.9367 41.124 24.5623C38.9621 28.6378 36.7815 32.7133 34.6568 36.8078C34.2282 37.6419 33.9672 38.5518 33.7063 39.4617C33.5386 40.0682 33.9113 40.3147 34.5077 40.3147C35.9242 40.2768 37.3406 40.2957 38.7571 40.2957ZM111.462 32.6754H111.443C111.443 34.9312 111.443 37.2059 111.443 39.4617C111.443 40.0872 111.704 40.3147 112.319 40.2768C112.897 40.2389 113.4 40.3336 113.382 39.4427C113.344 36.6751 113.363 33.9076 113.363 31.121C113.363 29.4908 113.326 27.8606 113.382 26.2494C113.438 24.4485 114.519 23.3491 116.289 23.2164C116.532 23.1974 116.755 23.1974 116.997 23.1785C117.631 23.1027 117.501 22.6288 117.519 22.2117C117.538 21.7568 117.37 21.4156 116.904 21.4914C115.805 21.681 114.63 21.7757 113.643 22.2496C112.021 23.0079 111.499 24.5812 111.481 26.3062C111.443 28.4103 111.462 30.5334 111.462 32.6754ZM119.737 31.1021C119.737 33.9644 119.737 36.8078 119.756 39.6702C119.756 39.8597 119.886 40.182 119.979 40.182C120.427 40.2389 120.93 40.2957 121.34 40.163C121.508 40.1062 121.62 39.5754 121.62 39.2531C121.638 33.7559 121.62 28.2587 121.657 22.7615C121.657 21.9274 121.228 21.8895 120.613 21.8895C119.961 21.8705 119.737 22.1169 119.737 22.7804C119.756 25.5669 119.737 28.3345 119.737 31.1021ZM92.7873 31.0073C92.7686 33.7749 92.7873 36.5424 92.7686 39.31C92.7686 40.0493 93.0482 40.2768 93.7564 40.2768C94.4647 40.2768 94.8001 40.0682 94.7069 39.31C94.6697 39.0825 94.7069 38.8361 94.7069 38.5897C94.7069 33.3389 94.7256 28.0881 94.6883 22.8373C94.6883 22.515 94.4647 21.9843 94.241 21.9084C93.3091 21.5862 92.8059 22.0032 92.8059 22.9889C92.7873 25.6807 92.7873 28.3535 92.7873 31.0073Z" fill="#1A130D"/>
<path d="M142.251 62C142.251 40.4281 142.251 18.8562 142.251 -2.8294C93.9242 -2.8294 45.6716 -2.8294 -2.59961 -2.8294C-2.58097 -2.88626 -2.5437 -2.98104 -2.52506 -3C-2.32005 -3 -2.0964 -3 -1.89138 -3C46.1935 -3 94.2596 -3 142.4 -3C142.4 -2.6967 142.4 -2.39341 142.4 -2.09011C142.4 19.0268 142.4 40.1627 142.4 61.2797C142.4 61.5071 142.289 61.7536 142.251 62Z" fill="#FFF3E0"/>
<path d="M60.5261 22.5522C61.5326 22.1731 62.4272 21.6613 63.359 21.5286C64.9432 21.3011 66.5274 21.3769 67.6457 22.8744C67.7202 22.9692 68.2234 22.8934 68.3166 22.7418C69.4721 21.0547 73.5538 21.0357 74.8584 22.2868C75.3616 22.7607 75.8275 23.4431 75.9767 24.1066C76.2003 25.0165 76.1444 26.0022 76.163 26.9689C76.1817 31.1013 76.163 35.2337 76.2003 39.3661C76.2003 40.276 75.7157 40.2381 75.1007 40.276C74.4111 40.295 74.2806 40.0106 74.2806 39.3661C74.2993 34.9115 74.2806 30.4568 74.2434 26.0022C74.2434 25.3956 74.1502 24.7511 73.9079 24.2203C73.4419 23.1967 72.4169 22.7986 71.0936 22.9882C69.9194 23.1588 68.8758 24.0308 68.6335 25.1681C68.5216 25.6231 68.503 26.1159 68.503 26.5898C68.503 30.836 68.503 35.0631 68.5216 39.3093C68.5216 39.9727 68.3539 40.276 67.627 40.276C66.9188 40.276 66.5833 40.1623 66.5833 39.3093C66.6206 34.8357 66.602 30.3431 66.5833 25.8695C66.5833 23.9549 65.6142 23.0261 63.5827 23.0071C61.8867 22.9882 60.6939 24.1255 60.6752 25.8884C60.638 30.362 60.638 34.8546 60.638 39.3282C60.638 39.9159 60.6007 40.3139 59.8365 40.276C59.1842 40.2381 58.6997 40.295 58.7183 39.3282C58.7556 33.8879 58.7369 28.4475 58.7369 23.0071C58.7369 22.5711 58.5878 21.9835 59.2401 21.9456C59.762 21.9077 60.5634 21.5475 60.5261 22.5522Z" fill="#FFF3E0"/>
<path d="M78.9206 33.016C78.9206 29.6608 78.9206 26.3056 78.9393 22.9504C78.9393 22.6281 79.107 22.0405 79.2561 22.0215C79.7034 21.9647 80.2998 21.9647 80.6167 22.23C81.008 22.5523 81.1758 22.4954 81.5299 22.249C83.4682 20.9221 87.3448 21.3391 88.8731 22.9883C89.8236 24.0119 90.01 25.3009 90.0286 26.6278C90.0473 29.4712 89.9913 32.3336 90.0473 35.177C90.1404 39.4041 87.848 40.8827 84.1764 40.6931C83.3005 40.6552 82.4431 40.1813 81.5858 39.897C81.3994 39.8401 81.1012 39.6885 81.0267 39.7643C80.8776 39.897 80.803 40.1624 80.803 40.3898C80.7844 41.3945 80.7844 42.4181 80.8217 43.4228C80.8403 44.1242 80.4862 44.2758 79.8898 44.2758C79.2748 44.2758 78.8834 44.1621 78.902 43.4038C78.9393 41.6789 78.9206 39.9349 78.9206 38.2099C78.9393 36.4849 78.9393 34.741 78.9206 33.016ZM80.8217 30.8929C80.8403 30.8929 80.8776 30.8929 80.8962 30.8929C80.8962 32.7127 80.8217 34.5135 80.9149 36.3333C81.008 37.8687 81.9586 38.7217 83.4496 38.9113C83.7664 38.9492 84.0832 38.9871 84.3814 39.0061C86.5434 39.1577 88.1276 38.2289 88.1462 35.6129C88.1462 32.5231 88.1649 29.4333 88.1462 26.3245C88.1276 24.8649 87.3262 23.6707 86.152 23.3863C85.5742 23.2347 84.9592 23.1399 84.3628 23.1399C81.9772 23.1589 80.8403 24.3152 80.8217 26.7226C80.803 28.1253 80.8217 29.5091 80.8217 30.8929Z" fill="#FFF3E0"/>
<path d="M97.6143 31.1969C97.6143 29.2634 97.5398 27.3109 97.633 25.3774C97.7261 23.5007 98.8444 22.3634 100.559 21.8326C102.479 21.245 104.417 21.2829 106.262 22.0601C107.921 22.7615 108.592 24.24 108.666 25.965C108.741 27.5384 108.685 29.1117 108.704 30.685C108.704 31.2537 108.368 31.4054 107.884 31.4054C106.523 31.4054 105.163 31.3864 103.783 31.3864C102.572 31.3864 101.36 31.4054 100.168 31.3864C99.5899 31.3675 99.329 31.6139 99.329 32.1826C99.329 33.4337 99.3103 34.6848 99.3662 35.9359C99.4408 37.3955 100.056 38.6845 101.957 38.9119C102.87 39.0257 103.839 38.9688 104.752 38.7982C105.945 38.5897 106.654 37.5471 106.747 36.1633C106.784 35.4999 106.765 34.8364 106.784 34.1729C106.784 33.6232 107.138 33.5095 107.585 33.5284C108.014 33.5474 108.648 33.3389 108.648 34.0023C108.629 35.2913 108.629 36.6372 108.312 37.8694C107.94 39.3858 106.728 40.2768 105.237 40.5042C103.932 40.6938 102.553 40.7507 101.267 40.5611C98.863 40.2009 97.5957 38.6655 97.5025 36.1823C97.4466 34.5331 97.4839 32.8839 97.4839 31.2158C97.5211 31.1969 97.5584 31.1969 97.6143 31.1969ZM103.056 29.5856C104.082 29.5856 105.107 29.5666 106.132 29.5856C106.579 29.5856 106.821 29.415 106.821 28.9411C106.803 27.9364 106.84 26.9128 106.765 25.9081C106.691 24.7329 106.076 23.9178 105.013 23.4818C103.783 22.9889 102.535 23.1027 101.305 23.4439C100.429 23.6903 99.7763 24.2969 99.6272 25.1689C99.4222 26.3631 99.4408 27.5952 99.3476 28.8084C99.2917 29.434 99.6085 29.6046 100.149 29.5856C101.118 29.5666 102.087 29.5856 103.056 29.5856Z" fill="#FFF3E0"/>
<path d="M54.1329 39.4048C53.8906 39.4996 53.7229 39.5375 53.5738 39.6322C51.6541 40.9023 49.6413 40.9592 47.5539 40.182C46.2306 39.6891 45.3919 38.7034 45.2987 37.2817C45.1869 35.7652 45.1869 34.2488 45.2987 32.7323C45.4105 31.2727 46.4915 30.5144 47.7216 30.0784C49.5108 29.4529 51.3186 28.9032 53.1451 28.3914C53.8347 28.2018 54.2075 27.8795 54.1143 27.1213C54.0584 26.7043 54.0956 26.2683 54.0584 25.8513C53.9093 24.24 53.3501 23.4818 51.7846 23.2733C50.7781 23.1406 49.6785 23.3112 48.7094 23.6145C47.8148 23.8988 47.3488 24.7329 47.2929 25.7375C47.2743 26.1546 47.2743 26.5905 47.2929 27.0265C47.3302 27.7848 46.827 27.8037 46.3051 27.8037C45.7646 27.8037 45.4105 27.7469 45.4105 27.0265C45.3919 25.4721 45.4292 23.9367 46.7338 22.8562C47.3116 22.3823 48.0384 22.0601 48.7467 21.8516C50.3681 21.3397 52.0269 21.4724 53.6297 22.0411C55.2325 22.6098 56.1085 24.24 56.0898 26.2873C56.0712 30.5523 56.0898 34.8174 56.0712 39.0825C56.0712 39.5375 56.3694 40.163 55.568 40.2957C54.8225 40.3905 54.2075 40.3715 54.1329 39.4048ZM54.1702 33.2251C54.1329 33.2251 54.1143 33.2251 54.077 33.2251C54.077 32.3152 54.077 31.4054 54.077 30.5144C54.077 30.0216 53.872 29.832 53.3874 30.0026C51.7473 30.5334 50.0886 31.0452 48.4485 31.5949C47.5911 31.8793 47.1066 32.4859 47.0879 33.4147C47.0693 34.3246 47.032 35.2345 47.0506 36.1254C47.0693 37.8883 47.8893 38.874 49.6226 39.0446C50.4613 39.1204 51.3745 39.0446 52.176 38.7792C53.0146 38.5138 53.7788 37.9262 53.8906 36.8836C54.0211 35.6705 54.077 34.4383 54.1702 33.2251Z" fill="#FFF3E0"/>
<path d="M13.7824 38.4756C12.9996 38.4756 12.2168 38.4567 11.4341 38.4756C10.8749 38.4946 10.6699 38.2482 10.9495 37.7364C13.3165 33.2628 15.6648 28.7891 18.069 24.3345C18.2368 24.0312 18.7586 23.7469 19.1127 23.7279C20.5478 23.6521 22.0015 23.7089 23.4366 23.7089C24.3126 23.7089 24.4058 23.9175 23.9771 24.6947C22.4488 27.576 20.9392 30.4573 19.4296 33.3575C18.6841 34.7603 17.9572 36.182 17.249 37.6037C16.9321 38.2292 16.5221 38.5704 15.758 38.4567C15.1243 38.3619 14.4533 38.4377 13.801 38.4377C13.7824 38.4567 13.7824 38.4756 13.7824 38.4756Z" fill="#FFF3E0"/>
<path d="M38.7571 40.2955C37.3406 40.2955 35.9242 40.2765 34.5077 40.2955C33.9113 40.2955 33.5386 40.0491 33.7063 39.4425C33.9486 38.5326 34.2282 37.6227 34.6568 36.7886C36.7815 32.6941 38.9621 28.6186 41.1241 24.5431C41.4595 23.9175 41.3664 23.728 40.6581 23.728C38.7944 23.728 36.9306 23.728 35.0669 23.7659C34.34 23.7848 34.0232 23.5195 34.0418 22.7423C34.0604 22.0978 34.2841 21.9272 34.8805 21.9272C37.527 21.9461 40.1736 21.9082 42.8387 21.9082C43.3419 21.9082 43.7706 22.0409 43.6401 22.6854C43.5097 23.292 43.4538 23.9554 43.1742 24.4862C40.8818 28.884 38.5707 33.2818 36.241 37.6606C35.9056 38.3051 35.9801 38.4568 36.6883 38.4568C38.813 38.4568 40.9377 38.4757 43.0624 38.4378C43.7147 38.4188 43.9756 38.6463 43.957 39.3098C43.957 39.9353 43.8265 40.3144 43.081 40.2765C41.6459 40.2386 40.2108 40.2765 38.7571 40.2955C38.7571 40.2765 38.7571 40.2765 38.7571 40.2955Z" fill="#FFF3E0"/>
<path d="M111.462 32.6755C111.462 30.5524 111.425 28.4104 111.462 26.2873C111.499 24.5623 112.003 22.989 113.624 22.2307C114.612 21.7758 115.786 21.6621 116.886 21.4725C117.333 21.3967 117.519 21.7379 117.501 22.1928C117.482 22.6098 117.612 23.1027 116.979 23.1596C116.736 23.1785 116.513 23.1785 116.271 23.1975C114.5 23.3491 113.419 24.4296 113.363 26.2304C113.307 27.8607 113.344 29.4909 113.344 31.1021C113.344 33.8697 113.307 36.6562 113.363 39.4238C113.382 40.3147 112.86 40.2389 112.301 40.2579C111.704 40.2958 111.425 40.0683 111.425 39.4427C111.443 37.187 111.425 34.9123 111.425 32.6565C111.462 32.6755 111.462 32.6755 111.462 32.6755Z" fill="#FFF3E0"/>
<path d="M119.737 31.1013C119.737 28.3337 119.756 25.5472 119.719 22.7796C119.719 22.1162 119.924 21.8697 120.595 21.8887C121.21 21.9077 121.638 21.9266 121.638 22.7607C121.601 28.2579 121.62 33.7551 121.601 39.2524C121.601 39.5746 121.489 40.1054 121.322 40.1623C120.893 40.2949 120.408 40.2381 119.961 40.1812C119.868 40.1623 119.756 39.84 119.737 39.6694C119.737 36.807 119.737 33.9637 119.737 31.1013Z" fill="#FFF3E0"/>
<path d="M92.7873 31.0067C92.7873 28.3339 92.7873 25.68 92.7873 23.0072C92.7873 22.0026 93.2718 21.5855 94.2224 21.9267C94.4647 22.0026 94.6697 22.5333 94.6697 22.8556C94.6883 28.1064 94.6883 33.3572 94.6883 38.608C94.6883 38.8544 94.6697 39.0819 94.6883 39.3283C94.7815 40.0866 94.446 40.2951 93.7378 40.2951C93.0296 40.2951 92.75 40.0676 92.75 39.3283C92.7873 36.5608 92.7686 33.7932 92.7873 31.0067Z" fill="#FFF3E0"/>
<path d="M80.8218 30.8932C80.8218 29.5094 80.8031 28.1256 80.8218 26.7419C80.8404 24.3344 81.9959 23.1592 84.3629 23.1592C84.9593 23.1592 85.5743 23.254 86.1521 23.4056C87.3076 23.7089 88.1277 24.9031 88.1463 26.3438C88.1649 29.4336 88.1649 32.5234 88.1463 35.6322C88.1463 38.2292 86.5435 39.158 84.3815 39.0253C84.0647 39.0064 83.7479 38.9685 83.4497 38.9305C81.9587 38.741 81.0081 37.888 80.9149 36.3525C80.8031 34.5517 80.8963 32.7319 80.8963 30.9122C80.859 30.8932 80.8404 30.8932 80.8218 30.8932Z" fill="#1A130D"/>
<path d="M103.057 29.5856C102.088 29.5856 101.119 29.5856 100.15 29.5856C99.6091 29.5856 99.2922 29.415 99.3482 28.8084C99.4413 27.5952 99.4227 26.3631 99.6277 25.1689C99.7768 24.2969 100.429 23.6903 101.305 23.4439C102.535 23.1027 103.784 22.9889 105.014 23.4818C106.095 23.9178 106.71 24.7329 106.766 25.9081C106.822 26.9128 106.803 27.9364 106.822 28.9411C106.84 29.434 106.58 29.6046 106.132 29.5856C105.107 29.5666 104.082 29.5856 103.057 29.5856Z" fill="#1A130D"/>
<path d="M54.1705 33.2253C54.0773 34.4384 54.0028 35.6706 53.891 36.8838C53.7978 37.9263 53.015 38.495 52.1763 38.7793C51.3749 39.0447 50.4616 39.1206 49.623 39.0447C47.8897 38.8741 47.0696 37.9074 47.051 36.1255C47.0323 35.2156 47.0696 34.3247 47.0883 33.4148C47.1069 32.467 47.5915 31.8794 48.4488 31.595C50.0889 31.0643 51.7476 30.5335 53.3877 30.0027C53.8723 29.8511 54.0773 30.0217 54.0773 30.5146C54.0773 31.4244 54.0773 32.3343 54.0773 33.2253C54.1146 33.2253 54.1332 33.2253 54.1705 33.2253Z" fill="#1A130D"/>
</g>
</g>
<defs>
<clipPath id="clip0_608_4702">
<rect width="140" height="60" fill="white"/>
</clipPath>
<clipPath id="clip1_608_4702">
<rect width="145" height="65" fill="white" transform="translate(-2.59961 -3)"/>
</clipPath>
</defs>
</svg>
