<svg width="138" height="62" viewBox="0 0 138 62" fill="none" xmlns="http://www.w3.org/2000/svg">
<path d="M-7.81982 -4C43.2866 -4 94.393 -4 145.56 -4C145.56 18.9274 145.56 41.8757 145.56 64.8032C94.4532 64.8032 43.3468 64.8032 -7.81982 64.8032C-7.81982 41.7923 -7.81982 18.8858 -7.81982 -4ZM94.6138 22.6375C93.8911 22.6167 93.1484 22.6167 92.4258 22.6375C91.5225 22.6375 91.382 22.4708 91.5225 21.512C91.7031 20.3656 91.9039 19.2192 92.0845 18.0729C92.2451 17.0516 92.1247 16.9265 91.101 16.9473C90.3382 16.9682 89.5754 17.0516 88.8126 16.9473C87.829 16.8014 87.4878 17.3225 87.3473 18.1771C87.2067 18.99 87.1064 19.8028 86.9257 20.5949C86.5243 22.5333 86.5042 22.5541 84.5772 22.6167C83.9549 22.6375 83.6337 22.8876 83.5333 23.5338C83.4531 24.1799 83.3326 24.8469 83.2122 25.493C83.0114 26.4935 83.1118 26.6394 84.1355 26.6602C84.3162 26.6602 84.4969 26.6602 84.6775 26.6602C85.7414 26.6394 85.902 26.827 85.7213 27.9108C85.2596 30.6204 84.7779 33.3092 84.3162 36.0188C84.1355 37.0818 83.9549 38.1448 83.8947 39.2078C83.8144 41.0628 84.7377 42.2509 86.5243 42.4385C87.9695 42.5844 89.4349 42.5219 90.8801 42.5219C91.5024 42.5219 91.8838 42.1258 92.0042 41.4797C92.1247 40.7085 92.2451 39.9165 92.3656 39.1453C92.4459 38.6033 92.1849 38.3949 91.7031 38.3949C91.2214 38.3949 90.7396 38.3949 90.2378 38.3532C88.9732 38.2699 88.6922 37.9364 88.8929 36.6232C89.3747 33.601 89.9166 30.5996 90.4185 27.5773C90.5188 26.9312 90.84 26.6811 91.4623 26.6811C92.9276 26.7019 94.3929 26.6602 95.8382 26.6811C96.8218 26.6811 96.9423 26.9104 96.7616 27.9734C96.1393 31.5792 95.5171 35.1851 94.955 38.7909C94.6539 40.8127 95.6375 42.2092 97.6047 42.4593C98.9295 42.6261 100.274 42.5427 101.599 42.5844C102.503 42.6261 102.944 42.1675 103.065 41.2713C103.105 40.9378 103.185 40.5834 103.245 40.25C103.586 38.3949 103.586 38.3949 101.74 38.4158C100.154 38.4366 99.7525 37.9364 100.013 36.3523C100.475 33.6218 100.937 30.8705 101.378 28.1401C101.619 26.6811 101.619 26.7019 103.085 26.6811C106.377 26.6602 105.815 27.1396 106.497 23.5338C106.497 23.5129 106.497 23.4712 106.517 23.4296C106.618 22.7834 106.337 22.4916 105.694 22.5125C104.911 22.5333 104.108 22.5333 103.326 22.5541C102.643 22.575 102.382 22.2623 102.503 21.5537C102.723 20.3865 102.904 19.1984 103.145 18.0103C103.285 17.3017 103.165 16.9265 102.342 16.9473C101.398 16.989 100.455 16.989 99.5116 16.9265C98.8893 16.8848 98.6083 17.1558 98.5079 17.7394C98.2671 19.0317 98.0262 20.3448 97.8054 21.637C97.685 22.3874 97.3036 22.7209 96.5408 22.6375C95.9587 22.575 95.2762 22.6375 94.6138 22.6375ZM119.224 42.4802V42.501C119.745 42.501 120.267 42.501 120.769 42.501C121.251 42.501 121.552 42.3343 121.632 41.7715C122.074 38.7076 122.536 35.6645 123.017 32.6005C123.499 29.6408 124.001 26.6811 124.523 23.7422C124.663 22.9085 124.483 22.575 123.599 22.6375C122.776 22.7 121.953 22.6375 121.13 22.6167C120.508 22.5958 120.067 22.7417 119.966 23.4921C119.886 24.1382 119.525 24.0757 119.123 23.7839C118.702 23.4921 118.3 23.1169 117.838 22.9293C114.386 21.5328 110.512 22.7209 108.103 25.8474C105.313 29.4949 104.751 33.5802 105.855 37.9989C106.738 41.5005 110.271 43.6057 113.603 42.5427C114.486 42.2509 115.329 41.7715 116.152 41.3338C116.534 41.1462 116.975 40.9586 116.915 41.5631C116.815 42.5844 117.337 42.5635 118.019 42.4802C118.421 42.4385 118.822 42.4802 119.224 42.4802ZM36.6825 41.042C36.8832 42.4176 36.8832 42.4593 37.385 42.4593C38.5493 42.4802 39.6935 42.501 40.8577 42.4385C41.0785 42.4176 41.4398 42.0216 41.48 41.7507C41.8614 39.3329 42.1625 36.8942 42.5639 34.4556C43.1461 30.8497 43.7683 27.2438 44.3906 23.638C44.511 22.8876 44.3103 22.575 43.5475 22.6167C42.7044 22.6584 41.8413 22.6584 40.9982 22.6375C40.3759 22.6167 39.9343 22.7 39.854 23.4921C39.7938 24.1591 39.4325 24.0757 38.9508 23.763C38.2683 23.3045 37.5657 22.7417 36.8029 22.5958C33.5511 21.9288 30.6003 22.6375 28.3521 25.3054C25.4616 28.7029 24.6586 32.7047 25.5017 37.061C26.6659 43.0638 32.447 44.1059 36.0602 41.2921C36.2208 41.1879 36.4215 41.1462 36.6825 41.042ZM64.3032 34.8724C64.3835 35.5186 64.4437 36.6024 64.6846 37.6237C65.2266 39.8956 66.6317 41.3963 68.7394 42.23C72.1518 43.564 77.1099 42.501 79.1975 39.8122C81.506 36.8525 82.5297 33.4134 82.329 29.5991C82.2487 28.1401 81.9877 26.7436 81.1848 25.4722C78.6556 21.4286 72.0515 21.637 68.9803 23.9923C65.6682 26.5769 64.524 30.3078 64.3032 34.8724ZM58.5623 42.501C59.044 42.501 59.5459 42.4593 60.0276 42.5219C60.69 42.5844 60.9711 42.2717 61.0714 41.6256C61.6937 37.7696 62.3762 33.9136 62.9382 30.0577C63.2193 28.1609 63.3196 26.2017 62.0952 24.5134C60.1882 21.8872 55.3907 21.6162 52.8615 23.9923C52.6608 24.1799 52.3597 24.2633 52.1188 24.3883C52.0786 24.0965 51.9381 23.7839 52.0184 23.5546C52.2191 22.8668 51.9983 22.6167 51.3359 22.6375C50.5129 22.6584 49.6899 22.6792 48.8669 22.6167C47.9235 22.5541 47.522 22.9502 47.3614 23.9089C46.3979 29.8284 45.3942 35.727 44.3705 41.6256C44.23 42.3968 44.5311 42.5844 45.1935 42.5635C46.0366 42.5427 46.8997 42.501 47.7428 42.5427C48.606 42.5844 48.9874 42.23 49.1279 41.3338C49.6096 38.3532 50.1315 35.3727 50.6936 32.3921C51.0549 30.4745 51.6972 28.682 53.263 27.4106C54.4071 26.4935 56.3944 26.1808 57.2977 26.8061C58.6024 27.7024 58.4218 29.0572 58.2411 30.3912C58.2411 30.4537 58.221 30.5162 58.201 30.5787C57.6389 33.9762 57.0568 37.3528 56.4947 40.7502C56.1936 42.5219 56.2137 42.5219 57.8999 42.501C58.1207 42.501 58.3415 42.501 58.5623 42.501ZM15.6658 42.5219C15.6658 42.501 15.6658 42.501 15.6658 42.5219C17.8538 42.501 20.0619 42.4802 22.2498 42.5219C22.9323 42.5427 23.2736 42.2717 23.3739 41.6048C23.4944 40.8336 23.6148 40.0415 23.7553 39.2703C23.8758 38.6033 23.5747 38.4158 23.0126 38.4158C20.9049 38.4158 18.8173 38.4366 16.7096 38.4158C16.1677 38.4158 15.6056 38.2699 15.0636 38.2073C15.4049 37.7279 15.6859 37.2069 16.0673 36.79C18.5162 34.1429 20.9652 31.5167 23.4342 28.8904C24.7389 27.494 26.124 26.1808 26.2043 23.9923C26.2645 22.7209 26.3448 22.6167 25.1203 22.6167C21.467 22.6375 17.8137 22.6375 14.1603 22.6584C11.1092 22.6792 11.7917 22.2623 11.1494 25.3263C10.8884 26.5977 11.0088 26.7019 12.2132 26.7019C14.3811 26.6811 16.529 26.6602 18.6969 26.6811C18.9378 26.6811 19.1786 26.8478 19.4195 26.9312C19.2991 27.1605 19.2188 27.4314 19.0582 27.6399C18.8374 27.9317 18.5363 28.1609 18.2753 28.4319C15.5454 31.3499 12.8957 34.3513 10.0654 37.186C8.78072 38.4783 8.31903 39.9165 8.25882 41.6464C8.23874 42.3343 8.45955 42.6052 9.16211 42.5844C11.3501 42.4802 13.518 42.5219 15.6658 42.5219ZM126.631 42.5219C127.213 42.5219 127.795 42.501 128.357 42.5219C128.959 42.5427 129.26 42.2509 129.34 41.6673C129.521 40.4792 129.722 39.2912 129.923 38.124C130.023 37.5195 129.862 37.2069 129.24 37.2069C128.076 37.2069 126.912 37.1652 125.767 37.2485C125.446 37.2694 124.985 37.6654 124.904 37.9572C124.583 39.2078 124.382 40.4792 124.162 41.7507C124.061 42.3551 124.342 42.5427 124.884 42.5219C125.466 42.5219 126.048 42.5219 126.631 42.5219ZM129.16 27.9317C129.16 27.9108 129.16 27.9108 129.16 27.89C129.682 27.89 130.204 27.8483 130.705 27.89C131.388 27.9525 131.689 27.6607 131.789 26.9729C131.97 25.7848 132.191 24.6176 132.432 23.4296C132.532 22.9085 132.371 22.5958 131.87 22.5958C130.565 22.5958 129.26 22.5958 127.935 22.6792C127.714 22.7 127.393 22.9918 127.353 23.2211C127.072 24.5134 126.851 25.8265 126.631 27.1188C126.53 27.7024 126.771 28.015 127.413 27.9525C127.995 27.89 128.578 27.9317 129.16 27.9317Z" fill="#1A130D"/>
<path d="M-7.81934 -4C-7.81934 18.8857 -7.81934 41.7923 -7.81934 64.8031C43.3473 64.8031 94.4537 64.8031 145.56 64.8031C145.52 64.8657 145.5 64.9907 145.46 64.9907C145.219 65.0116 144.978 64.9907 144.737 64.9907C93.8314 64.9907 42.9057 64.9907 -8 64.9907C-8 42.2717 -8 19.5736 -8 -3.14543C-8 -3.43724 -7.87956 -3.7082 -7.81934 -4Z" fill="#FFF3E0"/>
<path d="M94.6149 22.6377C95.2773 22.6377 95.9598 22.5752 96.6222 22.6585C97.385 22.7419 97.7663 22.4084 97.8868 21.6581C98.1076 20.345 98.3685 19.0527 98.5893 17.7604C98.6897 17.1768 98.9707 16.9058 99.593 16.9475C100.536 17.0101 101.48 17.0101 102.423 16.9684C103.226 16.9267 103.367 17.3227 103.226 18.0314C102.985 19.1986 102.805 20.3866 102.584 21.5747C102.443 22.2834 102.724 22.596 103.407 22.5752C104.19 22.5543 104.993 22.5752 105.776 22.5335C106.418 22.5126 106.679 22.8044 106.599 23.4506C106.599 23.4714 106.599 23.5131 106.578 23.5548C105.896 27.1607 106.438 26.6813 103.166 26.7021C101.721 26.723 101.701 26.7021 101.46 28.1611C100.998 30.8916 100.557 33.6429 100.095 36.3733C99.8339 37.9574 100.235 38.4576 101.821 38.4368C103.668 38.4159 103.668 38.4159 103.327 40.271C103.266 40.6045 103.186 40.9588 103.146 41.2923C103.026 42.1886 102.584 42.6471 101.681 42.6054C100.356 42.5637 98.9908 42.6471 97.6861 42.4804C95.739 42.2302 94.7353 40.8337 95.0364 38.812C95.5984 35.2061 96.2207 31.6002 96.843 27.9944C97.0236 26.9314 96.9032 26.7021 95.9196 26.7021C94.4543 26.7021 92.9889 26.7438 91.5437 26.7021C90.9013 26.6813 90.6002 26.9522 90.4998 27.5984C89.998 30.6206 89.456 33.622 88.9743 36.6443C88.7535 37.9574 89.0546 38.2909 90.3192 38.3743C90.8009 38.4159 91.2827 38.4159 91.7845 38.4159C92.2663 38.4159 92.5473 38.6244 92.4469 39.1663C92.3265 39.9375 92.2061 40.7295 92.0856 41.5007C91.9853 42.1469 91.5838 42.5429 90.9615 42.5429C89.5163 42.5637 88.0509 42.6054 86.6056 42.4595C84.8191 42.2928 83.8958 41.0839 83.9761 39.2288C84.0363 38.1658 84.2169 37.1028 84.3976 36.0398C84.8392 33.3302 85.341 30.6415 85.8027 27.9319C85.9834 26.848 85.8228 26.6604 84.7589 26.6813C84.5783 26.6813 84.3976 26.6813 84.2169 26.6813C83.1932 26.6604 83.0928 26.5145 83.2936 25.5141C83.4341 24.8679 83.5344 24.2218 83.6147 23.5548C83.695 22.9087 84.0162 22.6585 84.6585 22.6377C86.6056 22.5752 86.6056 22.5543 87.0071 20.6159C87.1677 19.8239 87.2881 19.011 87.4286 18.1981C87.5692 17.3435 87.8903 16.8225 88.894 16.9684C89.6367 17.0726 90.4196 16.9892 91.1823 16.9684C92.2061 16.9475 92.3265 17.0726 92.1659 18.0939C91.9853 19.2403 91.7845 20.3866 91.6039 21.533C91.4433 22.4918 91.6039 22.6794 92.5072 22.6585C93.1495 22.6169 93.8721 22.6377 94.6149 22.6377Z" fill="#FFF3E0"/>
<path d="M119.225 42.4808C118.824 42.4808 118.422 42.4391 118.041 42.4808C117.358 42.5642 116.836 42.585 116.937 41.5637C116.997 40.9592 116.555 41.1468 116.174 41.3344C115.331 41.7721 114.508 42.2515 113.625 42.5433C110.272 43.6063 106.76 41.5012 105.876 37.9995C104.752 33.5808 105.314 29.4955 108.124 25.848C110.533 22.7215 114.407 21.5334 117.86 22.9299C118.322 23.1175 118.723 23.4927 119.145 23.7845C119.546 24.0763 119.907 24.1388 119.988 23.4927C120.088 22.7423 120.53 22.5964 121.152 22.6173C121.975 22.659 122.798 22.7007 123.621 22.6381C124.484 22.5756 124.685 22.9091 124.544 23.7428C124.022 26.6817 123.521 29.6414 123.039 32.6011C122.557 35.6442 122.095 38.7082 121.654 41.7721C121.574 42.3349 121.272 42.5016 120.791 42.5016C120.269 42.5016 119.747 42.5016 119.245 42.5016C119.225 42.5016 119.225 42.4808 119.225 42.4808ZM110.112 34.4562C110.152 34.8314 110.172 35.3108 110.232 35.7693C110.513 37.4993 111.858 38.9166 113.243 38.7916C115.19 38.6248 116.876 37.7494 117.499 35.7693C118.101 33.7892 118.362 31.6632 118.623 29.5789C118.703 28.9744 118.422 28.1824 118.041 27.6613C116.696 25.7854 114.046 25.8063 112.4 27.6405C110.714 29.5372 110.212 31.8925 110.112 34.4562Z" fill="#FFF3E0"/>
<path d="M36.6826 41.042C36.4217 41.1462 36.221 41.1879 36.0604 41.3129C32.4472 44.1267 26.6661 43.0846 25.5019 37.0818C24.6588 32.7256 25.4617 28.7237 28.3523 25.3262C30.6205 22.6583 33.5512 21.9497 36.8031 22.6166C37.5659 22.7625 38.2684 23.3253 38.9509 23.7839C39.4327 24.0965 39.7739 24.1799 39.8542 23.5129C39.9345 22.7209 40.3761 22.6375 40.9984 22.6583C41.8415 22.6792 42.7046 22.6792 43.5477 22.6375C44.3105 22.5958 44.5313 22.9084 44.3908 23.6588C43.7685 27.2647 43.1462 30.8705 42.5641 34.4764C42.1827 36.8942 41.8816 39.3328 41.4801 41.7715C41.44 42.0424 41.0787 42.4385 40.8579 42.4593C39.7137 42.5218 38.5494 42.501 37.3852 42.4801C36.8834 42.4593 36.8834 42.4176 36.6826 41.042ZM38.5896 29.7658C38.4692 29.2448 38.4089 28.6195 38.1681 28.0984C37.0038 25.5764 33.7118 25.889 32.2264 27.6398C30.2592 29.9534 29.8176 32.7256 30.0786 35.6644C30.1588 36.6024 30.5001 37.4986 31.3231 38.1031C32.9089 39.2703 35.5987 38.6867 36.8432 36.79C38.2283 34.7057 38.148 32.2045 38.5896 29.7658Z" fill="#FFF3E0"/>
<path d="M64.3027 34.8727C64.5436 30.308 65.6677 26.5979 69.0199 24.0134C72.0911 21.6373 78.6751 21.4497 81.2244 25.4933C82.0274 26.7647 82.2883 28.1403 82.3686 29.6202C82.5694 33.4345 81.5456 36.8736 79.2372 39.8333C77.1496 42.5221 72.1915 43.5851 68.7791 42.2511C66.6714 41.4174 65.2462 39.9167 64.7243 37.6448C64.4432 36.5818 64.383 35.5188 64.3027 34.8727ZM68.8995 34.1432C69.1805 35.2687 69.2006 36.5818 69.8028 37.5197C71.0273 39.4165 74.2992 39.0413 75.7244 37.0403C77.3302 34.7893 77.6916 32.2047 77.5511 29.516C77.4908 28.2862 76.9087 27.3066 75.7846 26.723C74.0784 25.8476 71.7097 26.7438 70.5455 28.7239C69.5619 30.3497 69.0802 32.1422 68.8995 34.1432Z" fill="#FFF3E0"/>
<path d="M58.5635 42.501C58.3427 42.501 58.1419 42.501 57.9211 42.501C56.235 42.5219 56.2149 42.5219 56.516 40.7502C57.078 37.3528 57.6602 33.9762 58.2222 30.5787C58.2423 30.5162 58.2423 30.4537 58.2624 30.3912C58.443 29.0572 58.6437 27.7024 57.3189 26.8061C56.4156 26.1808 54.4284 26.4935 53.2842 27.4106C51.7185 28.6612 51.0762 30.4745 50.7148 32.3921C50.1528 35.3727 49.6309 38.3532 49.1491 41.3338C49.0086 42.2509 48.6272 42.5844 47.7641 42.5427C46.921 42.501 46.0578 42.5427 45.2148 42.5635C44.5524 42.5844 44.2513 42.3968 44.3918 41.6256C45.4155 35.727 46.3991 29.8284 47.3827 23.9089C47.5433 22.9502 47.9648 22.5541 48.8882 22.6167C49.7112 22.6792 50.5342 22.6584 51.3572 22.6375C52.0196 22.6167 52.2404 22.8668 52.0397 23.5546C51.9594 23.8047 52.0999 24.1174 52.14 24.3883C52.3809 24.2633 52.682 24.1799 52.8827 23.9923C55.3919 21.6162 60.2095 21.8872 62.1164 24.5134C63.3409 26.2017 63.2405 28.1609 62.9595 30.0577C62.3974 33.9345 61.715 37.7696 61.0927 41.6256C60.9923 42.2509 60.7113 42.5844 60.0489 42.5219C59.527 42.4593 59.0452 42.501 58.5635 42.501Z" fill="#FFF3E0"/>
<path d="M15.6665 42.5221C13.4986 42.5221 11.3508 42.5012 9.18285 42.5429C8.48029 42.5638 8.25948 42.2928 8.27956 41.605C8.33978 39.875 8.80146 38.4368 10.0861 37.1445C12.9165 34.3307 15.5661 31.3293 18.2961 28.3904C18.557 28.1195 18.8381 27.8902 19.0789 27.5984C19.2395 27.39 19.3198 27.119 19.4403 26.8897C19.1994 26.8063 18.9585 26.6396 18.7176 26.6396C16.5497 26.6396 14.4019 26.6604 12.234 26.6604C11.0296 26.6604 10.8891 26.5562 11.1701 25.2848C11.8124 22.2417 11.13 22.6377 14.1811 22.6169C17.8344 22.596 21.4877 22.596 25.1411 22.5752C26.3655 22.5752 26.2852 22.6794 26.225 23.9508C26.1246 26.1602 24.7597 27.4525 23.4549 28.849C20.9859 31.4752 18.537 34.1014 16.088 36.7485C15.7066 37.1654 15.4055 37.6865 15.0844 38.1659C15.6264 38.2492 16.1884 38.3743 16.7304 38.3743C18.8381 38.3951 20.9257 38.3951 23.0334 38.3743C23.5954 38.3743 23.8965 38.5619 23.7761 39.2288C23.6356 40 23.5151 40.7712 23.3947 41.5633C23.2943 42.2511 22.933 42.5012 22.2706 42.4804C20.0625 42.4804 17.8746 42.5012 15.6665 42.5221C15.6665 42.5012 15.6665 42.5012 15.6665 42.5221Z" fill="#FFF3E0"/>
<path d="M126.63 42.5223C126.048 42.5223 125.466 42.5014 124.904 42.5223C124.362 42.5431 124.061 42.3555 124.181 41.7511C124.422 40.4796 124.603 39.2082 124.924 37.9576C125.004 37.645 125.466 37.2698 125.787 37.249C126.931 37.1656 128.095 37.2281 129.26 37.2073C129.882 37.2073 130.063 37.5199 129.942 38.1244C129.741 39.3124 129.541 40.4796 129.36 41.6677C129.26 42.2513 128.979 42.5639 128.376 42.5223C127.794 42.5014 127.212 42.5223 126.63 42.5223Z" fill="#FFF3E0"/>
<path d="M129.16 27.9315C128.578 27.9315 127.995 27.8899 127.433 27.9524C126.791 28.0149 126.57 27.7023 126.651 27.1187C126.851 25.8055 127.092 24.5133 127.373 23.221C127.413 22.9917 127.755 22.6999 127.955 22.6791C129.26 22.6165 130.565 22.5957 131.89 22.5957C132.391 22.5957 132.552 22.9084 132.452 23.4294C132.211 24.5966 131.99 25.7847 131.809 26.9728C131.709 27.6814 131.408 27.9732 130.725 27.8899C130.204 27.8482 129.682 27.8899 129.18 27.8899C129.16 27.9107 129.16 27.9315 129.16 27.9315Z" fill="#FFF3E0"/>
<path d="M110.11 34.4554C110.231 31.8708 110.713 29.5364 112.399 27.6397C114.045 25.8055 116.694 25.8055 118.039 27.6605C118.401 28.1816 118.702 28.9736 118.621 29.5781C118.36 31.6624 118.099 33.7675 117.497 35.7685C116.895 37.7694 115.189 38.624 113.242 38.7907C111.857 38.9158 110.512 37.4985 110.231 35.7685C110.15 35.3099 110.13 34.8305 110.11 34.4554Z" fill="#1A130D"/>
<path d="M38.5895 29.7658C38.1479 32.2044 38.2282 34.7056 36.823 36.8108C35.5785 38.6866 32.8887 39.2911 31.3029 38.1239C30.4799 37.5194 30.1587 36.6232 30.0584 35.6852C29.7974 32.7463 30.239 29.9534 32.2062 27.6606C33.6916 25.9098 36.9836 25.5971 38.1479 28.1192C38.4088 28.6194 38.469 29.2447 38.5895 29.7658Z" fill="#1A130D"/>
<path d="M68.8994 34.1428C69.0801 32.1419 69.5819 30.3494 70.5454 28.7028C71.7097 26.7227 74.0783 25.8264 75.7845 26.7018C76.9086 27.2854 77.4707 28.2651 77.551 29.4948C77.6915 32.1836 77.3502 34.7681 75.7243 37.0192C74.2991 39.0201 71.0272 39.3953 69.8027 37.4986C69.2005 36.5815 69.1804 35.2684 68.8994 34.1428Z" fill="#1A130D"/>
</svg>
